<svg style='scaling-svg' viewBox="0 0 207 197" version="1.1" xmlns="http://www.w3.org/2000/svg" xmlns:xlink="http://www.w3.org/1999/xlink">
    <g id="Page-1" stroke="none" stroke-width="1" fill="none" fill-rule="evenodd">
        <g id="Board" transform="translate(-2634.000000, -4244.000000)">
            <g id="climate-6" transform="translate(2634.979748, 4244.000000)">
                <g id="g9652" transform="translate(16.849103, 181.392740)" fill="#B99C9A" fill-rule="nonzero" font-family="ArialMT, Arial" font-size="5.64444447" font-weight="normal">
                    <text id="tspan4772">
                        <tspan x="181.211169" y="5">70</tspan>
                    </text>
                    <text id="tspan4776">
                        <tspan x="121.119789" y="5">10</tspan>
                    </text>
                    <text id="tspan4780">
                        <tspan x="51.594059" y="5">1</tspan>
                    </text>
                    <text id="tspan1467">
                        <tspan x="3.55271368e-15" y="5">0.2</tspan>
                    </text>
                </g>
                <g id="g2239" transform="translate(20.349102, 178.954640)" fill="#B99C9A" fill-rule="nonzero" stroke="#B99C9A" stroke-linecap="square" stroke-linejoin="round" stroke-width="0.29999998">
                    <line x1="181.21117" y1="1.19359" x2="181.21117" y2="5.68434189e-14" id="path5081"></line>
                    <line x1="176.36785" y1="1.19359" x2="176.36785" y2="5.68434189e-14" id="path5079"></line>
                    <line x1="170.72873" y1="1.19359" x2="170.72873" y2="5.68434189e-14" id="path5077"></line>
                    <line x1="163.88658" y1="1.19359" x2="163.88658" y2="5.68434189e-14" id="path5075"></line>
                    <line x1="155.02893" y1="1.19359" x2="155.02893" y2="5.68434189e-14" id="path5073"></line>
                    <line x1="142.54212" y1="1.19359" x2="142.54212" y2="5.68434189e-14" id="path5071"></line>
                    <line x1="121.11978" y1="2.1774" x2="121.11978" y2="5.68434189e-14" id="path5051"></line>
                    <line x1="117.82891" y1="1.19359" x2="117.82891" y2="5.68434189e-14" id="path5049"></line>
                    <line x1="114.22866" y1="1.19359" x2="114.22866" y2="5.68434189e-14" id="path5047"></line>
                    <line x1="110.13094" y1="1.19359" x2="110.13094" y2="5.68434189e-14" id="path5045"></line>
                    <line x1="105.35657" y1="1.19359" x2="105.35657" y2="5.68434189e-14" id="path5043"></line>
                    <line x1="99.71746" y1="1.19359" x2="99.71746" y2="5.68434189e-14" id="path5041"></line>
                    <line x1="92.87531" y1="1.19359" x2="92.87531" y2="5.68434189e-14" id="path5039"></line>
                    <line x1="84.01768" y1="1.19359" x2="84.01768" y2="5.68434189e-14" id="path5037"></line>
                    <line x1="71.530864" y1="1.19359" x2="71.530864" y2="5.68434189e-14" id="path5035"></line>
                    <line x1="50.094057" y1="2.1774" x2="50.094057" y2="5.68434189e-14" id="path5069"></line>
                    <line x1="46.803192" y1="1.19359" x2="46.803192" y2="5.68434189e-14" id="path5067"></line>
                    <line x1="43.20294" y1="1.19359" x2="43.20294" y2="5.68434189e-14" id="path5065"></line>
                    <line x1="39.105215" y1="1.19359" x2="39.105215" y2="5.68434189e-14" id="path5063"></line>
                    <line x1="34.330845" y1="1.19359" x2="34.330845" y2="5.68434189e-14" id="path5061"></line>
                    <line x1="28.691742" y1="1.19359" x2="28.691742" y2="5.68434189e-14" id="path5059"></line>
                    <line x1="21.849584" y1="1.19359" x2="21.849584" y2="5.68434189e-14" id="path5057"></line>
                    <line x1="12.991957" y1="1.19359" x2="12.991957" y2="5.68434189e-14" id="path5055"></line>
                    <line x1="0.5" y1="1.19359" x2="0.5" y2="5.68434189e-14" id="path5053"></line>
                </g>
                <g id="g9554" transform="translate(20.849101, 169.122080)">
                    <path d="M9.99999884e-07,9.83127 L9.99999884e-07,9.99999975e-06 L3.532082,9.99999975e-06 C4.295463,9.99999975e-06 5.011771,0.37943 5.739461,0.61012 C6.533899,0.86197 7.320863,1.14028 8.092915,1.45412 C9.09547,1.86167 10.06962,2.33639 11.046906,2.80128 C12.301056,3.39788 13.514823,4.07867 14.779972,4.65157 C16.282795,5.3321 17.809015,5.96406 19.357034,6.53435 C20.681507,7.02229 22.012359,7.50889 23.382253,7.84902 C24.986155,8.24728 26.633691,8.4458 28.267701,8.69302 C29.761936,8.91909 32.76361,9.27733 32.76361,9.27733 L36.204523,9.42341 L40.749124,9.61818 L45.423572,9.83127 L9.99999884e-07,9.83127 Z" id="path4732" stroke="#806600" stroke-width="0.15000001" fill="#FFCC00" fill-rule="nonzero" stroke-linecap="square" stroke-linejoin="round"></path>
                    <text id="Tán-xạ-Rayleigh" fill="#B99C9A" fill-rule="nonzero" font-family="ArialMT, Arial" font-size="4.93888903" font-weight="normal">
                        <tspan x="142.219031" y="6.19257">Tán xạ Rayleigh</tspan>
                    </text>
                    <rect id="rect4719" stroke="#B99C9A" stroke-width="0.30000001" stroke-linecap="square" x="0" y="0" width="180.71117" height="9.8312664"></rect>
                </g>
                <g id="g9565" transform="translate(20.849101, 158.374370)">
                    <g id="g8063" transform="translate(81.455771, 1.093830)" fill="#00FF00" fill-rule="nonzero" stroke="#008000" stroke-linecap="square" stroke-linejoin="round" stroke-width="0.15000001">
                        <path d="M53.47438,8.73744 L54.07405,8.3028 L54.31506,7.97858 L54.63928,7.72035 L55.08975,7.57115 C55.08975,7.57115 55.13275,6.46363 55.13565,6.44642 C55.13865,6.42922 55.33075,6.07342 55.33075,6.07342 L55.59759,6.09632 L55.82426,6.95422 C55.82426,6.95422 55.82726,7.7203 55.84436,7.74899 C55.86156,7.77769 56.28909,8.01583 56.28909,8.01583 L56.77973,8.2052 L56.94901,8.51507 L57.23306,8.73739 L53.47438,8.73744 Z" id="path4730"></path>
                        <polygon id="path4728" points="29.95831 8.73744 30.44034 8.14786 30.56658 6.57553 30.71578 4.15392 30.94532 3.94734 30.97972 3.72927 31.27812 3.44235 31.42732 3.78666 31.48472 4.29164 31.6454 4.23424 31.7372 3.94732 32.04708 4.10799 32.24218 6.00167 32.54058 7.59695 32.74717 8.33147 33.09147 8.56101 33.63088 8.53811 33.76861 8.17085 34.04405 8.07905 34.34245 8.17085 34.72118 8.20525 35.04254 8.09048 35.2606 8.25115 35.39832 8.73744"></polygon>
                        <polygon id="path4726" points="13.5932 8.73744 13.90159 8.53736 13.91779 5.59148 13.95839 4.32549 14.072 1.11992 14.1288 0.56807 14.29922 0.39765 14.43718 5.68434189e-14 14.69687 0.38142 14.89164 1.03065 15.11887 2.66995 15.20007 4.72314 15.37049 6.79256 15.54091 7.86378 15.73568 8.73744 13.60134 8.73744"></polygon>
                        <path d="M9.50309,8.73744 C9.52339,8.73744 9.76278,8.5617 9.76278,8.5617 L9.84798,7.77451 L10.09956,7.42961 L10.42417,7.71365 C10.42417,7.71365 10.67575,8.1113 10.67575,8.14376 C10.67575,8.17626 10.72855,8.5617 10.72855,8.5617 L10.95983,8.6266 C10.95983,8.6266 11.21547,8.47241 11.21547,8.45617 C11.21547,8.43997 11.38995,8.28575 11.38995,8.28575 C11.38995,8.28575 11.56037,8.22485 11.61312,8.34255 C11.66592,8.46022 11.7592,8.61036 11.7592,8.61036 L11.97831,8.7374 L9.50309,8.73744 Z" id="path4724"></path>
                        <path d="M-2.84217094e-14,8.73745 C0.12985,8.65994 0.25969,8.58241 0.38954,8.5049 C0.44364,8.18569 0.49774,7.86649 0.55184,7.54728 C0.63304,7.45528 0.71415,7.36334 0.79531,7.27136 C0.86561,7.41744 0.93597,7.56351 1.00631,7.70959 C1.01711,7.96387 1.02791,8.21815 1.03881,8.47244 C1.10371,8.48864 1.16865,8.50494 1.23357,8.52114 C1.29307,8.59324 1.3526,8.66535 1.41211,8.73745 C0.94142,8.73745 0.47073,8.73745 4e-05,8.73745 L-2.84217094e-14,8.73745 Z" id="path4722"></path>
                    </g>
                    <text id="Nitơ-ôxít" fill="#B99C9A" fill-rule="nonzero" font-family="ArialMT, Arial" font-size="4.93888903" font-weight="normal">
                        <tspan x="158.668361" y="6.68091">Nitơ ôxít</tspan>
                    </text>
                    <rect id="rect4721" stroke="#B99C9A" stroke-width="0.30000001" stroke-linecap="square" x="0" y="0" width="180.71117" height="9.8312664"></rect>
                </g>
                <g id="g9580" transform="translate(20.849101, 147.635710)">
                    <g id="g8056" transform="translate(73.724099, 3.911660)" fill="#FF5555" fill-rule="nonzero" stroke="#800000" stroke-linecap="square" stroke-linejoin="round" stroke-width="0.15000001">
                        <path d="M36.461962,5.91061 C36.565252,5.77283 36.852172,5.10718 36.852172,5.10718 L37.104662,4.72844 L37.047262,3.81029 L37.357132,3.19054 L37.483382,2.75442 L37.678482,2.11172 L38.022792,2.15762 C38.022792,2.15762 38.114592,2.59374 38.068692,2.75441 C38.022792,2.91509 38.148992,3.61518 38.148992,3.61518 L38.309662,4.31526 L38.619542,4.28086 L38.711342,1.41165 L38.780242,0 L38.952392,0.0115 L39.078642,1.88223 L39.147542,2.84629 L39.411512,3.2365 L39.560712,2.43312 L39.836152,2.70856 L39.927952,3.47751 L40.341112,3.91363 L40.582132,4.6252 L40.857572,5.06132 L41.167452,5.54335 L41.672432,5.91061 L36.461962,5.91061 Z" id="path4720"></path>
                        <path d="M33.122192,5.91056 C33.133692,5.91056 33.328782,5.35967 33.397642,5.35967 C33.466542,5.35967 33.764902,5.33667 33.764902,5.33667 L33.971482,5.91052 L33.122192,5.91056 Z" id="path4718"></path>
                        <path d="M10.811192,5.91057 L11.086642,5.45148 C11.086642,5.45148 11.270272,4.98093 11.327652,4.92355 C11.385052,4.86615 11.545712,4.40709 11.545712,4.40709 L11.935922,4.0054 L12.073652,3.51189 L12.383522,3.59219 L12.555672,4.55625 C12.555672,4.55625 12.785212,4.73988 12.785212,4.65954 C12.785212,4.57924 12.739312,2.9954 12.739312,2.9954 L12.796712,1.70999 L13.014772,1.66409 C13.014772,1.66409 13.255782,2.82325 13.221352,2.86916 C13.186952,2.91506 13.255752,4.34967 13.255752,4.34967 L13.416432,4.37267 L13.577102,3.70701 L13.852552,3.59224 L14.231282,4.39562 L14.506732,4.91208 L15.275682,5.199 L15.436352,5.46297 L16.538132,5.91057 L10.811192,5.91057 Z" id="path4716"></path>
                        <path d="M1.42108547e-14,5.91056 C0.06886,5.91056 0.195106,5.62364 0.195106,5.62364 L0.562365,5.57774 L0.929625,5.38263 L1.296884,5.09571 L1.49199,4.83174 L1.744481,4.77434 L1.89368,5.08421 L2.019926,5.00391 L2.203555,4.63665 L2.605245,4.62515 L2.685585,5.02684 L2.915122,5.45148 L3.408627,5.78431 L3.534872,5.91056 L1.42108547e-14,5.91056 Z" id="path4714"></path>
                    </g>
                    <text id="Mê-tan" fill="#B99C9A" fill-rule="nonzero" font-family="ArialMT, Arial" font-size="4.93888903" font-weight="normal">
                        <tspan x="162.026861" y="6.67639">Mê-tan</tspan>
                    </text>
                    <rect id="rect4723" stroke="#B99C9A" stroke-width="0.30000001" stroke-linecap="square" x="0" y="0" width="180.71118" height="9.822238"></rect>
                </g>
                <g id="g9597" transform="translate(20.849101, 136.769830)">
                    <g id="g8046" transform="translate(0.000001, 0.000010)" fill="#7D7DFF" fill-rule="nonzero" stroke="#000080" stroke-linecap="square" stroke-linejoin="round" stroke-width="0.15000001">
                        <path d="M178.22084,9.94943 L178.50776,9.58131 C178.50776,9.58131 178.82911,9.46654 178.8865,9.47802 C178.9439,9.48952 179.20785,9.94943 179.20785,9.94943 L178.25527,9.94943 L178.22084,9.94943 Z" id="path4712"></path>
                        <path d="M176.21239,9.94943 C176.24679,9.82232 176.48783,9.56983 176.48783,9.56983 L176.7059,9.61573 L176.91248,9.94942 L176.21239,9.94943 Z" id="path4710"></path>
                        <path d="M128.64084,9.94943 L129.21468,9.59278 L130.17874,9.48949 C130.17874,9.48949 130.28203,9.16814 130.33941,9.14519 C130.39681,9.12219 130.79849,9.01894 130.79849,9.01894 L131.3379,9.20257 L131.55596,9.55835 L131.79697,9.59275 L131.9806,9.20254 C131.9806,9.20254 132.31343,8.84676 132.35934,8.973 C132.40524,9.09925 132.94466,9.24845 132.94466,9.24845 L133.08238,9.50094 L134.1153,9.50094 L134.67766,9.9494 L128.64084,9.94943 Z" id="path4708"></path>
                        <path d="M115.55722,9.94943 C115.60312,9.94943 115.84415,9.74198 115.84415,9.74198 L116.30322,9.69608 L116.62457,9.42063 L117.26728,9.37473 L117.45091,9.69609 L117.61158,9.70759 L117.76078,9.52396 L118.25429,9.47806 L118.32319,8.78944 L118.52977,8.54843 L118.57567,6.83838 C118.57567,6.83838 118.91997,6.6318 118.91997,6.55146 C118.91997,6.47116 118.98887,5.18571 118.98887,5.18571 L119.25284,5.15131 L119.34464,5.73663 L119.51679,5.73663 L119.65451,5.47266 L119.73481,5.49566 L119.90696,6.40233 L120.15945,7.06799 L120.41194,7.85989 L120.69886,8.59441 L120.9284,9.1912 L121.24975,9.66176 L121.46781,9.94954 L115.55722,9.94943 Z" id="path4706"></path>
                        <path d="M103.33438,9.94943 C103.32288,9.94943 103.57539,9.74198 103.57539,9.74198 L104.05742,9.77638 L104.32139,9.9494 L103.33438,9.94943 Z" id="path4704"></path>
                        <polygon id="path4702" points="96.98768 9.94943 97.02208 9.21405 97.27457 9.06485 97.34347 8.53691 97.73368 8.52541 97.84845 8.90414 98.10094 9.0763 98.22719 9.46651 98.43377 9.5698 98.52557 9.9494"></polygon>
                        <path d="M85.90104,9.94943 C85.90104,9.94943 85.92404,9.67312 85.96994,9.70755 C86.01584,9.74195 86.11914,9.52392 86.11914,9.52392 L86.3372,9.52392 L86.52083,9.75346 L86.71593,9.94943 L85.90104,9.94943 Z" id="path4700"></path>
                        <polygon id="path4698" points="56.256328 9.94943 56.61211 9.74198 56.70392 9.39768 56.876073 9.29439 57.013795 8.97303 57.231856 9.48949 57.346624 9.58129 57.381054 9.94941"></polygon>
                        <polygon id="path4696" points="40.7511 9.94943 40.79701 9.48949 41.038024 9.28291 41.038024 7.22855 41.164269 7.0564 41.210179 6.50551 41.359379 6.14973 41.428239 6.49403 41.439719 7.94012 41.680733 8.41067 41.703683 9.94943"></polygon>
                        <polygon id="path4694" points="37.744165 9.94943 37.858934 9.44359 37.973702 9.31734 38.019612 9.01894 38.157335 8.83531 38.295057 9.05337 38.352437 9.35177 38.467206 9.5354 38.524586 9.94943"></polygon>
                        <path d="M0,9.94943 L0,0 L11.955826,0 C12.173919,0 12.282336,0.29407 12.410286,0.47069 C12.600542,0.73331 12.758756,1.02443 12.864745,1.33092 C13.022898,1.78825 13.095441,2.28531 13.193299,2.75922 C13.329181,3.41727 13.430271,4.06784 13.578897,4.72314 C13.722327,5.35551 13.83985,5.99401 14.000897,6.62213 C14.111456,7.05334 14.218035,7.4875 14.374203,7.90436 C14.487146,8.20584 14.602326,8.51232 14.779971,8.78082 C14.949057,9.03638 15.159993,9.26795 15.396739,9.46251 C15.640467,9.6628 16.052905,9.94943 16.208274,9.94943 L0,9.94943 Z" id="path4692"></path>
                    </g>
                    <text id="Ôxy-và-Ô-zôn" fill="#B99C9A" fill-rule="nonzero" font-family="ArialMT, Arial" font-size="4.93888903" font-weight="normal">
                        <tspan x="146.854881" y="6.25164">Ôxy và Ô-zôn</tspan>
                    </text>
                    <rect id="rect4725" stroke="#B99C9A" stroke-width="0.29999998" stroke-linecap="square" x="0" y="0" width="180.71117" height="9.9494238"></rect>
                </g>
                <g id="g9613" transform="translate(20.849101, 126.041990)">
                    <g id="g4820" stroke-linecap="square" stroke-linejoin="round" transform="translate(60.416244, 0.000002)" fill="#C09A00" fill-rule="nonzero" stroke="#806600" stroke-width="0.5">
                        <path d="M66.5504684,9.81141063 L66.9400056,9.32881541 L67.1996965,9.28012417 L67.3457738,8.59843402 L67.670387,8.56597197 L67.8002333,9.19897089 L67.9787709,9.16650884 C68.0419726,8.91859781 68.044492,8.64565989 68.1447354,8.38663559 C68.217651,8.1982224 68.3648945,8.03074483 68.5143855,7.81935957 L68.936383,4.93029057 L69.2609979,2.95014238 L69.5044596,1.14853362 L69.9751501,1.06738034 L70.3322253,0.288304044 L70.6730713,0 L74.6009056,0 L75.0066739,0.531765729 L75.4773644,0.612919012 L75.8182085,1.55430187 L76.1590545,1.878915 L76.4836695,3.81037196 C76.7033511,4.61942395 76.867169,5.44052756 77.0355133,6.26121065 L77.262744,7.39736029 L77.6198191,8.27381905 L78.0093564,8.97174023 C78.0093564,8.97174023 78.4313556,9.31258622 78.4962779,9.31258622 L78.7397396,9.31258622 L78.7884308,8.98797125 L79.161737,9.03666248 L79.1779699,9.52358402 L79.9570443,9.81141063 L66.5504684,9.81141063 Z" id="path4682"></path>
                        <polygon id="path4680" points="60.6492508 9.81141063 60.7782083 9.6047979 60.9716438 9.2582245 61.2537375 9.26628584 61.4229944 9.69345796 61.5761305 9.72569598 61.7292685 9.46778264 62.1806191 9.48390533 62.3901754 9.81141613"></polygon>
                        <polygon id="path4678" points="57.4494951 9.81141063 57.77189 9.51613967 57.7880127 9.17762578 58.0459278 9.1615031 58.1587646 9.50001516 58.4811576 9.58061388 58.7229538 9.20986196 58.9848978 9.23001164 59.0413162 9.53225501 59.2226633 9.81140695"></polygon>
                        <polygon id="path5179" points="39.19378 9.81141063 39.7384494 9.47776108 39.9018504 8.98755992 40.3920515 8.96032581 40.5826848 9.53222747 40.7733199 9.81141063"></polygon>
                        <polygon id="path5177" points="36.524905 9.81141063 37.0968066 9.50499335 37.3963745 8.19778904 37.6142419 7.48972049 37.5870078 6.75441783 37.9410439 6.75441783 38.2133777 8.03438987 38.3767787 9.47776108 38.6491124 9.81141063"></polygon>
                        <path d="M31.5684215,9.81141063 L32.0858567,9.34159419 L32.0586226,7.5169546 L32.4126569,5.31104663 L32.6577584,2.96897176 L32.8211594,1.28049906 L33.0934932,0.272862627 L33.2841264,4.17525462e-14 L35.1360001,4.17525462e-14 C35.1360001,4.17525462e-14 35.3266334,1.63453333 35.3266334,1.79793433 C35.3266334,1.96133533 35.5445008,5.96464878 35.5445008,5.96464878 L35.8168364,8.68799203 L36.1164043,9.81141063 L31.5684215,9.81141063 Z" id="path5175"></path>
                        <polygon id="path5173" points="18.7959443 9.81141063 19.2316791 8.25225726 19.4495465 4.73914497 19.5584811 2.45153649 19.694648 0 19.8852813 0 20.0486823 1.30773317 20.3482501 1.38943367 20.5388834 0 20.9746182 0 21.1107851 2.42430422 21.3286525 5.5833804 21.6282204 8.27948954 21.9277882 9.45052697 22.7992578 9.81141063"></polygon>
                        <polygon id="path5171" points="9.46719319 9.81141063 9.5923625 8.97373261 9.74641859 8.83893376 9.84270295 6.67252819 10.0449012 6.47033176 10.2470995 9.08927421 10.3433839 9.10853145 10.4781827 8.33825469 10.5840948 5.38231329 10.6803791 3.84175793 10.8055503 3.81287299 10.9210919 5.6133965 11.075148 6.20073407 11.0944034 8.29011251 11.3062312 8.52119572 11.4025155 7.2887507 11.4891722 6.7784421 11.575827 6.7784421 11.6817409 7.6835177 11.7972825 9.08927421 12.1342797 9.81141063"></polygon>
                        <path d="M2.89094753,9.81141246 L3.1027735,9.55866279 L3.21350217,9.39979377 L3.28571453,9.39257713 L3.37477858,9.52737597 L3.45902786,9.73679456 L3.54327713,9.74160565 C3.54327713,9.74160565 3.66603906,9.34202389 3.70214615,9.32276665 C3.73825325,9.3035094 3.91397213,9.3035094 3.91397213,9.3035094 L3.9982214,9.61162158 L4.15468488,9.81141246 L2.89094753,9.81141246 Z" id="path5169"></path>
                        <polygon id="path5167" points="-1.04381365e-14 9.81141063 0.199790885 9.53699816 0.264782923 8.75468632 0.310517721 8.75949741 0.358659904 8.9953954 0.565672942 9.01465264 0.623442827 9.47922644 0.86896851 9.81140879"></polygon>
                    </g>
                    <text id="CO2" fill="#B99C9A" fill-rule="nonzero" font-family="ArialMT, Arial" font-size="4.93888903" font-weight="normal">
                        <tspan x="168.113701" y="6.67097">CO</tspan>
                        <tspan x="175.522035" y="6.67097" font-size="3">2</tspan>
                    </text>
                    <rect id="rect4727" stroke="#B99C9A" stroke-width="0.30000001" stroke-linecap="square" x="0" y="0" width="180.71118" height="9.8114176"></rect>
                </g>
                <g id="g9629" transform="translate(20.849101, 115.063640)">
                    <g id="g9642" transform="translate(33.007690, 0.000010)" fill="#00FFFF" fill-rule="nonzero" stroke="#007E80" stroke-linecap="square" stroke-linejoin="round">
                        <path d="M61.0046915,9.99914 C61.1009915,9.99914 61.4476015,9.67177 61.4476015,9.67177 L61.9675415,9.61397 L62.4297115,8.5741 L62.7185615,8.6126 L62.8148615,9.03625 L62.9689215,9.01695 L63.0844615,7.99634 L63.2770315,8.07334 L63.4118315,8.53551 L63.6429115,8.57401 L63.8162215,8.09258 L63.8547215,7.01419 L63.9895215,6.2054 L64.2976315,6.2824 L64.3939315,6.99491 L64.7213015,7.11045 L64.9909015,6.43645 L64.9909015,5.39658 L65.0487015,4.70333 L65.4338415,4.62633 L65.7034315,3.9716 L65.8382315,3.9716 L65.8767315,2.75841 L66.1463215,2.1807 L66.3003815,1.69928 L66.4736915,1.58374 L66.5506915,2.83544 L66.9165715,2.79694 L66.9165715,0.94828 L67.2439415,0.56314 L67.8601615,2.84217094e-14 L78.6440515,2.84217094e-14 C78.6440515,2.84217094e-14 78.6633515,0.25503 78.7595915,0.40908 C78.8558915,0.56314 79.3565615,0.5824 79.3565615,0.5824 C79.3565615,0.5824 79.2987615,2.87397 79.3950615,2.87397 C79.4913615,2.87397 79.4528615,3.23985 79.4528615,3.23985 L79.7032015,3.18205 C79.7032015,3.18205 79.7032015,1.54521 79.7802015,1.44893 C79.8572015,1.35263 79.8572015,1.50673 79.8572015,1.50673 L80.0112515,2.83546 L80.1653115,2.83546 L80.2231115,0.85199 L80.5889915,1.27565 L80.5119915,4.56858 L80.7623315,3.54796 L80.8008315,4.78041 L81.1859615,4.81891 L81.2244615,6.93718 L81.3592615,6.82163 C81.3592615,6.82163 81.2822615,4.54931 81.5133115,4.41452 C81.7444015,4.27972 81.7636515,4.53006 81.7636515,4.53006 L81.8792015,4.93445 L81.7251415,7.03346 L81.9754815,7.07196 L82.1968515,6.64833 L82.4862115,6.55643 L82.7449315,6.19559 L82.8606715,7.94534 L83.4598015,7.97254 L83.6674615,7.16915 L83.8478815,7.16615 L83.8716815,8.72866 L84.0112515,9.06568 L84.1269915,8.49718 L84.2938015,8.46998 L84.4537915,7.9219 L84.6886815,7.9219 L84.7908115,8.75933 L85.0188915,9.17805 L85.1686715,9.5457 L85.3116515,9.5627 L85.4478115,9.18143 L85.5295115,8.6674 C85.5295115,8.6674 85.6248115,8.28273 85.6384515,8.28273 C85.6520515,8.28273 85.7780215,8.27573 85.7780215,8.27573 L85.8529215,8.79998 L86.0027115,9.18465 L86.1184515,9.47741 L86.4452515,9.48041 L86.6052515,8.89489 L86.7175815,8.90849 L86.7686815,9.18423 L86.9150715,9.17403 L87.1329315,8.80979 L87.2384615,8.86769 L87.4222915,8.89149 L87.5175915,9.41233 L87.6946015,9.67446 L87.8273615,9.81743 L88.1439515,9.82443 L88.2494815,9.40232 L88.3550115,8.88148 L88.5660715,8.85768 C88.5660715,8.85768 88.8213915,9.48745 88.8316015,9.47383 C88.8418015,9.46023 88.9371315,9.50793 88.9575515,9.47083 C88.9779515,9.43333 89.0869115,8.92276 89.0869115,8.92276 L89.3456315,8.90236 L89.5771115,9.76021 L89.8528515,9.76721 L90.0502915,8.80382 L90.3022015,9.13062 L90.4451815,9.13062 L90.5745415,8.60979 L90.8434715,9.67189 L91.1294215,9.65829 L91.3098415,8.37832 L91.5651515,8.50768 L91.8136615,9.21235 L92.3310915,8.96384 L92.3480915,8.17067 L92.4740415,6.85325 C92.4790415,6.4351 92.5622415,6.67742 92.6374415,6.85325 L92.7327415,8.15024 L92.9403915,8.67789 L93.1923015,9.41319 L93.4203815,9.44039 L93.4918815,8.57572 L93.5633815,8.57272 L93.7301815,9.46461 L93.8459215,9.47161 L93.9582615,8.14399 L94.2578315,6.54743 L94.4927215,4.68534 L94.7242015,4.66494 L94.8501615,7.10913 L94.9420615,8.24954 L95.0952515,8.24654 L95.1292515,7.12997 L95.3675415,6.27212 L95.5888115,6.24492 L95.7862615,7.83127 L95.9326315,8.97507 L96.1198715,8.97507 L96.2696515,6.17684 L96.4568815,5.79217 L96.7053815,4.50879 L96.9300615,4.51899 L96.9742615,7.04149 L97.1002215,7.8653 L97.3180915,7.8755 L97.3759915,6.0849 L97.4985415,6.0879 L97.6142815,8.36529 L97.7402315,8.37889 L97.9342715,6.89467 L98.0295715,6.17298 L98.1623315,4.24281 C98.1623315,4.24281 98.3801715,2.94363 98.3869815,2.95724 C98.3939815,2.97084 98.7580615,3.75261 98.7580615,3.75261 L98.7955615,2.45902 L98.9079015,1.68628 L98.9964015,1.69328 L99.1734115,2.39454 L99.2211115,4.01833 L99.3811115,5.20639 L99.5070615,6.69401 L99.6704615,6.69101 L99.8747115,4.52255 L99.9190115,2.94982 L100.079001,2.94282 L100.364961,3.69855 L100.620271,5.02278 L100.722391,6.11211 L100.848351,6.23126 L101.096851,5.84318 L101.151351,3.25941 L101.386241,1.63902 L101.519001,0.52926 L101.696021,0.52226 L101.818571,2.04392 L101.859471,3.35794 L102.063721,3.21496 L102.237331,1.83627 C102.237331,1.83627 102.400731,1.51287 102.397331,1.49925 C102.394331,1.48565 102.509671,0.89672 102.509671,0.89672 L102.652641,0.92392 L102.826261,2.69409 L102.918161,3.9264 L103.125811,4.27703 L103.323261,2.72813 L103.323261,1.50263 L103.575171,1.01243 L103.714741,0.48138 L103.857711,0.48138 L104.021111,1.34263 L104.143661,1.34563 L104.327491,0.62054 L104.453441,0.00098 L104.586211,0.00098 L104.718971,0.64097 L104.892581,0.63797 L105.045771,0.00139 L105.284061,0.8286 L105.331761,1.62858 L105.488351,2.38772 L105.610901,2.39072 L105.787921,1.51925 L106.009191,0.62055 L106.145361,0.001 L106.315571,0.001 L106.499391,0.63757 L106.720671,0.94735 L107.159811,1.30479 L107.333421,1.26389 L107.486611,0.23923 L107.578511,0.00095 L108.623591,0.00095 L108.855081,0.31753 L109.137621,0.6239 L109.372511,0.6269 L109.685691,0.00054 L110.237171,0.00054 L110.414191,0.27627 L110.652481,0.00054 L147.703561,0.00054 L147.703561,9.99958 L61.0046915,9.99914 Z" id="path5159" stroke-width="0.15000001"></path>
                        <path d="M41.8247815,9.99914 L42.7105995,9.17109 L43.3460795,7.05282 C43.3460795,7.05282 43.6927035,5.55078 43.7889885,5.4545 C43.8852685,5.3582 44.1741275,5.08862 44.1741275,5.08862 L44.3281815,4.068 L44.6170415,1.62237 L44.9829215,0.62101 L45.1177215,9e-05 L49.1424215,9e-05 L49.4697815,0.54398 L49.8356715,1.12169 L50.2978315,1.50683 L50.4518915,2.04602 L50.7407415,2.02672 L50.8562815,1.48753 L50.9525815,0.98685 L51.4147415,0.79428 L51.7228615,1.12165 L51.7806615,2.29632 L52.0117415,4.22201 L52.0695415,5.7048 L52.4966515,5.52487 L52.5702515,5.06932 L52.4354515,1.71861 L52.6280215,0.67874 L52.8976215,1.50679 L52.8783215,2.5274 L53.1479215,3.22065 L53.5715715,2.54666 L53.8989415,3.81762 L54.0915115,3.29768 L54.2070515,6.20548 L54.5151615,7.43792 L54.7847615,8.55483 L55.1506415,9.13253 L55.4202415,8.88219 L55.6898415,8.05414 L56.1712615,8.13114 L56.2868015,8.95919 L56.5756515,8.95919 L56.6719515,7.47641 L56.9608015,7.57271 L57.0186015,9.0555 C57.0186015,9.0555 57.1341415,9.0362 57.2111615,9.0362 C57.2881615,9.0362 57.4615015,8.49701 57.4615015,8.49701 L57.8466415,8.55481 L58.3088115,9.24805 L58.9442915,9.99914 L41.8247815,9.99914 Z" id="path5157" stroke-width="0.125"></path>
                        <path d="M39.9761135,9.99914 C39.9761135,9.99914 40.2649685,9.42143 40.3997675,9.42143 C40.5345665,9.42143 40.6308505,9.13258 40.6308505,9.13258 C40.6308505,9.13258 40.9389605,9.11328 40.9582185,9.19038 C40.9774785,9.26738 41.2278155,9.65254 41.2278155,9.65254 L41.6322105,9.99917 L39.9761135,9.99914 Z" id="path5155" stroke-width="0.125"></path>
                        <polygon id="path5153" stroke-width="0.125" points="32.1000255 9.99914 32.8895615 9.78731 33.4287545 8.78595 33.9486925 7.76533 34.2760605 5.43524 34.5649135 3.10515 34.8345115 0.98689 35.0270795 9e-05 36.7794615 9e-05 37.1453435 0.71729 37.3956835 2.43116 37.5882545 5.1849 37.6845345 6.53289 38.1659585 7.49573 38.3970415 8.65115 39.0325195 9.45994 39.9761095 9.99914"></polygon>
                        <polygon id="path5151" stroke-width="0.125" points="24.0506255 9.99914 24.6861035 9.09406 24.9557015 7.88087 25.4371245 5.91667 25.6104365 3.9332 25.8030065 1.50683 25.9570615 9e-05 27.2280205 9e-05 27.6131585 0.56324 28.0753245 1.98825 28.6722895 2.5467 28.9226305 4.93456 29.1729705 7.01431 29.5773675 8.68966 29.8662205 9.40217 30.1550755 9.99914"></polygon>
                        <path d="M18.6827525,9.99914 L19.0775195,9.56104 L19.5156165,8.66078 L19.6263425,7.20207 L19.7322565,4.9827 L20.0114825,4.45314 C20.0114825,4.45314 20.0307425,2.67187 20.0548125,2.66224 C20.0788825,2.65224 20.2425685,2.60444 20.2425685,2.60444 L20.3195985,2.29633 L20.4206975,2.25783 L20.5266115,2.91738 L20.5891915,3.55285 L21.0272875,3.76468 L21.1524545,5.78666 L21.2968835,7.42831 L21.5327815,7.97232 L21.9901325,8.41042 L22.4763715,8.68964 L22.7459675,9.19995 L22.9674225,9.62842 L23.2418335,9.99914 L18.6827525,9.99914 Z" id="path5149" stroke-width="0.125"></path>
                        <path d="M12.9320605,9.99914 L13.0409945,9.42286 L13.2792875,9.00755 L13.2792875,7.76843 L13.5039635,7.69353 C13.5039635,7.69353 13.6673625,7.1761 13.6945965,7.15567 C13.7218365,7.13527 13.9260805,7.19657 13.9260805,7.19657 L14.1235225,8.02719 L14.1984125,8.01359 L14.4367045,6.57022 L14.4571345,5.21535 L14.4435145,3.24093 L14.7226575,3.22733 L14.7362875,3.81285 L15.0426645,3.89455 L15.2875635,4.43648 L15.4171235,6.48173 L15.7575415,7.82297 L16.0230685,8.60594 L16.2477425,9.53868 L16.6562455,9.99922 L12.9320605,9.99914 Z" id="path5147" stroke-width="0.125"></path>
                        <path d="M9.0070425,9.99914 L9.2861855,9.71902 L9.9295755,9.63392 C9.9295755,9.63392 10.1440385,9.06882 10.1440385,9.0552 C10.1440385,9.0416 10.3448855,8.12246 10.3448855,8.12246 L10.6240285,8.10546 C10.6240285,8.10546 10.7567905,8.47311 10.7533865,8.52077 C10.7499865,8.56847 11.0325295,9.17437 11.0325295,9.17437 L11.3116715,9.73265 L11.6623035,9.99916 L9.0070425,9.99914 Z" id="path5145" stroke-width="0.125"></path>
                        <path d="M4.9526675,9.99914 L5.1398975,9.68157 L5.3781885,9.36158 L5.7015865,9.35458 C5.7015865,9.35458 5.8343485,9.68819 5.8343485,9.70181 C5.8343485,9.71541 6.1883845,9.71881 6.1883845,9.71881 L6.3415725,9.37839 L6.4130625,8.22778 L6.6377385,8.03714 L6.9373065,8.18352 L7.0053865,8.61585 L7.1653835,9.35116 L7.3730395,9.78689 L7.6555865,9.99893 L4.9526675,9.99914 Z" id="path5143" stroke-width="0.125"></path>
                        <polygon id="path5141" stroke-width="0.125" points="2.8420755 9.99914 3.1007935 9.82795 3.2199395 9.50796 3.5978035 9.48756 3.7475885 9.79054 3.9824765 9.99917"></polygon>
                        <polygon id="path5139" stroke-width="0.125" points="0.0336295 9.99914 0.2004355 9.81774 0.2923455 9.60328 0.7859505 9.58628 0.8710505 9.83138 0.9663705 9.99916"></polygon>
                    </g>
                    <rect id="rect4729" stroke="#B99C9A" stroke-width="0.30000001" stroke-linecap="square" x="0" y="0" width="180.71117" height="9.9991369"></rect>
                    <text id="Hơi-nước" fill="#3d1818" fill-rule="nonzero" font-family="Helvetica" font-size="4.93888903" font-weight="normal">
                        <tspan x="155.764821" y="7.18607">Hơi nước</tspan>
                    </text>
                </g>
                <g id="g11493" transform="translate(111.204686, 113.974940) scale(-1, 1) rotate(-180.000000) translate(-111.204686, -113.974940) translate(20.349101, 112.886240)" fill="#B99C9A" fill-rule="nonzero" stroke="#B99C9A" stroke-linecap="square" stroke-linejoin="round" stroke-width="0.29999998">
                    <line x1="181.21117" y1="1.19359" x2="181.21117" y2="5.68434189e-14" id="path11445"></line>
                    <line x1="176.36785" y1="1.19359" x2="176.36785" y2="5.68434189e-14" id="path11447"></line>
                    <line x1="170.72873" y1="1.19359" x2="170.72873" y2="5.68434189e-14" id="path11449"></line>
                    <line x1="163.88658" y1="1.19359" x2="163.88658" y2="5.68434189e-14" id="path11451"></line>
                    <line x1="155.02893" y1="1.19359" x2="155.02893" y2="5.68434189e-14" id="path11453"></line>
                    <line x1="142.54212" y1="1.19359" x2="142.54212" y2="5.68434189e-14" id="path11455"></line>
                    <line x1="121.11978" y1="2.1774" x2="121.11978" y2="5.68434189e-14" id="path11457"></line>
                    <line x1="117.82891" y1="1.19359" x2="117.82891" y2="5.68434189e-14" id="path11459"></line>
                    <line x1="114.22866" y1="1.19359" x2="114.22866" y2="5.68434189e-14" id="path11461"></line>
                    <line x1="110.13094" y1="1.19359" x2="110.13094" y2="5.68434189e-14" id="path11463"></line>
                    <line x1="105.35657" y1="1.19359" x2="105.35657" y2="5.68434189e-14" id="path11465"></line>
                    <line x1="99.71746" y1="1.19359" x2="99.71746" y2="5.68434189e-14" id="path11467"></line>
                    <line x1="92.87531" y1="1.19359" x2="92.87531" y2="5.68434189e-14" id="path11469"></line>
                    <line x1="84.01768" y1="1.19359" x2="84.01768" y2="5.68434189e-14" id="path11471"></line>
                    <line x1="71.530864" y1="1.19359" x2="71.530864" y2="5.68434189e-14" id="path11473"></line>
                    <line x1="50.094057" y1="2.1774" x2="50.094057" y2="5.68434189e-14" id="path11475"></line>
                    <line x1="46.803192" y1="1.19359" x2="46.803192" y2="5.68434189e-14" id="path11477"></line>
                    <line x1="43.20294" y1="1.19359" x2="43.20294" y2="5.68434189e-14" id="path11479"></line>
                    <line x1="39.105215" y1="1.19359" x2="39.105215" y2="5.68434189e-14" id="path11481"></line>
                    <line x1="34.330845" y1="1.19359" x2="34.330845" y2="5.68434189e-14" id="path11483"></line>
                    <line x1="28.691742" y1="1.19359" x2="28.691742" y2="5.68434189e-14" id="path11485"></line>
                    <line x1="21.849584" y1="1.19359" x2="21.849584" y2="5.68434189e-14" id="path11487"></line>
                    <line x1="12.991957" y1="1.19359" x2="12.991957" y2="5.68434189e-14" id="path11489"></line>
                    <line x1="0.5" y1="1.19359" x2="0.5" y2="5.68434189e-14" id="path11491"></line>
                </g>
                <g id="g11018" transform="translate(20.349102, 108.644270)" fill="#B99C9A" fill-rule="nonzero" stroke="#B99C9A" stroke-linecap="square" stroke-linejoin="round" stroke-width="0.29999998">
                    <line x1="181.21117" y1="1.19359" x2="181.21117" y2="5.68434189e-14" id="path10970"></line>
                    <line x1="176.36785" y1="1.19359" x2="176.36785" y2="5.68434189e-14" id="path10972"></line>
                    <line x1="170.72873" y1="1.19359" x2="170.72873" y2="5.68434189e-14" id="path10974"></line>
                    <line x1="163.88658" y1="1.19359" x2="163.88658" y2="5.68434189e-14" id="path10976"></line>
                    <line x1="155.02893" y1="1.19359" x2="155.02893" y2="5.68434189e-14" id="path10978"></line>
                    <line x1="142.54212" y1="1.19359" x2="142.54212" y2="5.68434189e-14" id="path10980"></line>
                    <line x1="121.11978" y1="2.1774" x2="121.11978" y2="5.68434189e-14" id="path10982"></line>
                    <line x1="117.82891" y1="1.19359" x2="117.82891" y2="5.68434189e-14" id="path10984"></line>
                    <line x1="114.22866" y1="1.19359" x2="114.22866" y2="5.68434189e-14" id="path10986"></line>
                    <line x1="110.13094" y1="1.19359" x2="110.13094" y2="5.68434189e-14" id="path10988"></line>
                    <line x1="105.35657" y1="1.19359" x2="105.35657" y2="5.68434189e-14" id="path10990"></line>
                    <line x1="99.71746" y1="1.19359" x2="99.71746" y2="5.68434189e-14" id="path10992"></line>
                    <line x1="92.87531" y1="1.19359" x2="92.87531" y2="5.68434189e-14" id="path10994"></line>
                    <line x1="84.01768" y1="1.19359" x2="84.01768" y2="5.68434189e-14" id="path10996"></line>
                    <line x1="71.530864" y1="1.19359" x2="71.530864" y2="5.68434189e-14" id="path10998"></line>
                    <line x1="50.094057" y1="2.1774" x2="50.094057" y2="5.68434189e-14" id="path11000"></line>
                    <line x1="46.803192" y1="1.19359" x2="46.803192" y2="5.68434189e-14" id="path11002"></line>
                    <line x1="43.20294" y1="1.19359" x2="43.20294" y2="5.68434189e-14" id="path11004"></line>
                    <line x1="39.105215" y1="1.19359" x2="39.105215" y2="5.68434189e-14" id="path11006"></line>
                    <line x1="34.330845" y1="1.19359" x2="34.330845" y2="5.68434189e-14" id="path11008"></line>
                    <line x1="28.691742" y1="1.19359" x2="28.691742" y2="5.68434189e-14" id="path11010"></line>
                    <line x1="21.849584" y1="1.19359" x2="21.849584" y2="5.68434189e-14" id="path11012"></line>
                    <line x1="12.991957" y1="1.19359" x2="12.991957" y2="5.68434189e-14" id="path11014"></line>
                    <line x1="0.5" y1="1.19359" x2="0.5" y2="5.68434189e-14" id="path11016"></line>
                </g>
                <g id="g10888" transform="translate(7.272483, 71.436490)">
                    <path d="M25.660393,3.15062 C25.761667,3.15062 26.007618,3.49791 26.007618,3.49791 L26.470587,5.66807 L26.962491,8.69183 L27.237379,10.74625 L27.729282,14.0015 L27.975234,15.27466 L28.279056,16.76484 L28.684154,18.55884 L29.262865,20.04902 L29.971784,21.5392 L30.825382,22.9281 L32.040675,24.64977 L33.516385,26.58845 L35.469532,28.71521 L37.16226,30.26326 L38.927326,31.63769 L40.64899,32.70831 L41.372377,33.05553 L41.806411,33.31595 L42.168105,33.33045 L42.500863,33.60534 L43.528073,34.15512 L44.569753,34.47341 L45.61143,34.84957 L46.349285,35.03765 L46.580771,35.1968 L46.667571,35.09552 L46.855652,34.27086 L47.058201,34.08278 L47.304153,34.31426 L47.347553,34.86404 L47.492229,35.18233 L47.868391,35.65976 L48.707522,35.73206 L48.98241,35.32697 L49.06921,35.32697 L49.228356,35.64526 L49.575582,35.65976 L49.749194,35.08105 L49.966212,35.02315 L50.284502,35.51505 L50.544922,35.93461 L50.892147,36.15163 L51.224906,36.16613 L51.412987,36.00699 L51.485327,34.37213 L51.572137,33.63428 L51.67341,32.76621 L51.774684,32.78071 L51.904894,33.83685 L52.165313,34.56024 L52.512541,35.15342 L52.758492,35.22572 L52.903169,34.9219 L52.961039,33.07003 L52.946569,30.63944 L53.250392,30.29222 L53.39507,30.35012 L53.496344,30.91436 L53.510814,32.39007 L53.65549,32.92538 L53.69889,35.00873 L53.930373,35.16788 L53.915903,35.99254 L54.103984,36.26743 L54.39334,36.33973 L54.509082,35.10997 C54.509082,35.10997 54.610356,35.09547 54.624824,34.96529 C54.639294,34.83508 54.566954,32.83853 54.566954,32.83853 L54.610354,27.38419 L54.711629,26.83441 L54.697159,25.41657 L54.812901,23.92639 L54.972047,23.98429 L55.102255,29.10588 L55.160125,30.85648 L55.160125,32.69388 L55.174595,35.44276 L55.217995,36.16614 L55.362672,36.4989 L55.550752,36.4989 C55.550752,36.4989 55.666496,36.22401 55.753301,36.22401 C55.840111,36.22401 55.912448,36.12274 55.912448,36.12274 L55.941378,35.76105 L56.389879,35.70315 L56.679233,35.34145 L56.621363,33.8368 C56.621363,33.8368 56.83838,33.66319 56.83838,33.60532 C56.83838,33.54742 56.939653,30.43688 56.939653,30.43688 L57.127734,30.36458 L57.257944,31.66668 L57.359219,31.85476 L57.503896,32.89644 L57.561766,34.34322 L57.807719,35.06661 L57.865589,36.19509 L58.212814,36.57125 L58.632379,36.75933 C58.632379,36.75933 59.167687,36.73043 59.225558,36.73043 C59.283428,36.73043 59.587251,36.47001 59.587251,36.47001 C59.587251,36.47001 59.601721,34.64707 59.630651,34.57473 C59.659581,34.50243 59.789795,32.96881 59.789795,32.96881 L59.818735,29.09145 L60.079153,29.00465 L60.2383,27.65915 L60.527654,27.60125 C60.527654,27.60125 60.845945,27.34083 60.860413,27.23956 C60.874883,27.13828 60.759139,24.64983 60.759139,24.64983 L61.019559,23.96984 L60.990619,18.77592 L61.019559,13.90029 L61.337848,13.94369 L61.424658,16.02705 L61.612739,16.15726 L61.80082,18.81932 L62.017837,20.39631 L62.003367,25.40215 L62.234851,26.48723 L62.249321,28.90335 L62.495273,29.69908 L62.538673,32.202 L62.726754,34.87853 L62.958239,35.84787 L63.348869,36.6436 L64.057788,37.01976 L65.027128,36.99086 L65.316483,36.68703 C65.316483,36.68703 65.403293,36.2096 65.461161,36.16619 C65.519031,36.12279 65.764984,35.28366 65.764984,35.28366 L65.92413,34.76282 L65.95306,32.7084 L66.184546,28.72977 L66.285819,28.44041 L66.416029,21.61163 L66.60411,20.51208 L66.502835,16.14282 L66.575175,11.29612 L66.821126,11.12251 L67.168354,15.66538 L67.428773,16.15729 L67.602386,19.55721 L67.747064,22.49416 L67.862806,27.78936 L67.877276,29.14933 L67.97855,29.74251 L68.03642,30.62504 L68.282372,30.9578 L68.513858,31.768 L68.658534,32.39011 L69.063632,32.63606 L69.20831,33.83688 L69.483196,35.48621 L69.700213,35.42831 L69.758083,36.65807 L70.076374,36.68697 L70.322326,36.16613 L70.380196,35.37041 L70.53934,34.35766 L70.58274,34.28536 L70.785287,36.02149 L71.002304,36.1517 L71.118046,35.89128 L71.161446,34.8062 L71.320591,31.43521 L71.624413,27.8472 L71.798026,23.98431 L72.159721,17.6619 L72.420141,8.8221 L72.564817,4.75666 L72.651627,3.4835 L72.926513,3.15062 L73.476289,3.15062 L73.707773,3.70052 L74.011595,4.94474 L74.358822,6.01536 L74.590306,8.99572 L74.720516,10.9344 L75.183485,10.83312 L75.328161,14.36325 L75.458371,19.15208 L75.516241,21.88649 L75.71879,24.10005 L75.79113,28.45485 L75.993679,29.01909 L76.080479,32.76624 L76.254094,33.04113 L76.311964,35.06662 L76.398774,35.37044 L76.500049,36.32531 C76.500049,36.32531 76.731533,36.77381 76.803872,36.77381 C76.876212,36.77381 76.963016,36.81721 76.991953,36.74491 C77.020883,36.67261 77.151097,35.64537 77.151097,35.64537 L77.339178,35.67427 L77.469388,36.38319 C77.469388,36.38319 77.541728,36.5134 77.599598,36.36869 C77.657468,36.22401 77.744276,35.61637 77.744276,35.61637 L77.97576,35.81892 L78.120438,36.86059 L78.525536,36.5423 L79.118713,36.36869 L79.899972,34.3432 L80.406344,31.08796 L80.608893,28.04973 L80.883779,25.14171 L80.970589,21.39456 L81.173138,16.43212 L81.086328,12.95986 L81.346748,12.14967 L81.332278,8.99569 L81.346748,6.66639 L81.621634,6.34809 L81.665034,3.77283 L81.968856,3.3388 L82.156937,3.15062 L83.386696,3.15062 L83.618181,4.95919 L83.907535,7.85274 L84.037745,8.43145 L84.052215,14.36323 L84.081155,17.98017 L84.211365,19.57163 L84.341575,22.74006 L84.57306,22.65326 L84.55859,18.89164 L84.60199,16.40319 L84.7322,13.46623 L84.905812,13.55303 L85.007088,18.74695 L85.021558,22.72559 L85.050498,26.4438 L85.122838,30.19095 L85.296451,30.30669 L85.470064,25.30085 L85.614742,25.18511 L85.744952,27.28293 L85.802822,30.50924 L85.860692,33.40279 L86.019839,34.51681 L86.193451,35.18233 L86.352596,35.78997 L86.569613,36.1372 L86.728757,36.26741 L86.974709,35.42828 L87.321936,34.70489 L87.669162,34.34319 L87.784905,34.45894 L87.958518,35.83337 L88.161067,35.80447 L88.754244,34.0828 L89.246147,32.31774 L89.361891,29.56887 L89.709116,26.4583 L89.911665,24.53409 L90.12868,24.27367 L90.21549,21.64053 L90.548249,20.85927 L90.953349,16.90958 L91.155899,15.83896 L91.213799,10.22547 L91.387409,8.80763 L91.416309,5.26303 L91.604389,4.98814 C91.604389,4.98814 91.633289,3.70052 91.705659,3.70052 C91.777959,3.70052 91.937149,3.41116 91.937149,3.41116 L91.966049,3.15062 L95.698739,3.15062 L95.785539,3.8886 L96.118299,4.35156 L96.248509,5.00261 L96.378719,6.623 L96.827219,7.0281 L97.000829,8.27233 L97.087629,9.44422 L97.319109,9.12592 L97.420389,8.22892 L97.492689,6.47832 L97.839909,6.34811 L98.013529,5.63919 L98.259479,5.68259 L98.288379,10.99225 L98.418589,14.33431 L98.534339,16.53341 L98.707949,20.20822 L98.968369,20.26612 L99.011769,16.85173 L99.055169,12.78629 L99.069669,8.22894 L99.119669,7.65876 L99.078769,5.11143 L99.221989,4.92728 L99.354979,5.19327 L99.477749,7.62807 L99.457249,9.72527 L99.692539,9.98103 L99.753939,10.69714 L99.856249,12.26237 L100.009699,12.3749 L100.142689,8.48741 L100.244999,8.45671 L100.337099,10.29815 L100.470089,10.4823 L100.572389,13.50022 L100.664489,14.2368 L100.736089,19.17801 L100.869079,19.51561 L100.909979,22.59491 L101.124819,23.00412 L101.186219,27.63843 L101.441979,28.36477 L101.482879,30.25737 L101.667019,30.53359 L101.718219,31.51569 L101.943289,32.08858 L102.076279,32.09878 L102.188809,31.30082 L102.239909,29.34685 L102.454749,29.13201 L102.690049,29.44915 L102.730949,31.48497 L102.863939,31.64865 C102.863939,31.64865 102.956039,32.40569 102.956039,32.44661 C102.956039,32.48751 103.201569,32.93766 103.201569,32.93766 L103.416399,28.9274 L103.487999,28.9069 L103.600539,32.18058 L103.651739,33.09108 L103.825649,32.98877 L103.958649,32.26243 L104.173479,31.86345 L104.347399,32.26243 L104.521309,32.76371 L104.633839,33.15246 L104.848679,32.8967 L104.899779,31.51562 L105.145309,31.25986 L105.216909,32.27266 L105.339669,32.62049 L105.421469,34.09364 L105.636309,34.29825 L105.667009,35.90439 L105.830689,36.51821 L106.045529,35.95555 L106.158059,31.77137 L106.301279,31.24963 L106.321779,29.36727 L106.352479,27.2496 L106.454789,23.33142 L106.598009,23.22912 L106.587809,17.17281 L106.690119,15.24952 L106.843569,14.88123 L106.882369,11.49134 L106.947469,8.64843 L107.099379,8.53992 L107.128279,4.7566 L107.381469,4.3732 L107.388469,3.15062 L109.218639,3.15062 L109.262039,3.87407 L109.507989,4.09832 L109.536889,6.0804 L109.782849,6.46379 L109.826249,8.30843 L110.007099,8.7714 L109.985399,11.95431 C109.985399,11.95431 109.978399,14.72488 110.014299,14.81893 C110.050499,14.91293 110.187909,15.78103 110.187909,15.78103 L110.267509,18.12481 L110.339809,18.63118 L110.383209,21.21367 L110.426609,26.4944 L110.564049,26.74759 C110.564049,26.74759 110.773839,26.15441 110.759369,26.07484 C110.744869,25.99524 110.795569,24.01318 110.795569,24.01318 C110.795569,24.01318 110.983649,23.94808 110.990879,23.87574 C110.997879,23.80344 111.048779,22.42173 111.048779,22.42173 L111.352609,21.6043 C111.352609,21.6043 111.526219,20.22263 111.526219,20.1937 C111.526219,20.1648 111.490019,17.03973 111.490019,17.03973 L111.627459,16.38868 L111.757669,13.97256 L111.887879,13.96556 L111.960179,15.01447 L112.039779,16.44678 L112.191689,16.54078 C112.191689,16.54078 112.263989,16.49018 112.278489,16.41057 C112.292989,16.33097 112.423169,15.51357 112.423169,15.51357 L112.509969,13.09022 L112.531669,11.10813 L112.632939,10.99963 L112.741449,11.00663 L112.849959,12.07001 C112.849959,12.07001 112.842959,12.13511 112.886159,12.11341 C112.929559,12.09171 112.915059,9.01008 112.915059,9.01008 L113.088669,9.14029 L113.139269,12.72106 L113.262239,12.73556 L113.363519,10.92709 L113.457519,10.63773 L113.503019,5.95022 L113.728089,5.54101 L113.728089,4.72259 L113.994079,4.4566 L114.178219,4.02693 L114.178219,3.55634 L114.853419,3.15062 L125.124589,3.15062 L125.499269,3.44829 L125.840699,4.00647 L126.004389,5.09088 L126.352219,5.4387 L126.618199,6.83002 C126.618199,6.83002 126.781889,7.05508 126.781889,6.80952 C126.781889,6.56399 126.843289,4.35426 126.843289,4.35426 L127.170659,4.86577 L127.191159,9.48984 L127.252559,12.84537 L127.498079,15.09602 L127.600389,18.472 L127.661789,22.42088 L127.764089,22.54364 C127.764089,22.54364 127.866389,23.83265 127.907309,23.75081 C127.948209,23.66901 127.968709,22.40042 127.968709,22.40042 L128.132389,17.65358 L128.336999,18.34924 L128.398399,26.47206 L128.582539,27.76107 L128.684839,27.69967 L128.889449,26.47204 L129.012209,25.10118 C129.012209,25.10118 129.114509,25.12168 129.155429,24.95796 C129.196329,24.79428 129.319119,23.75079 129.319119,23.75079 L129.441879,23.73029 L129.462379,27.92469 L129.605609,27.90419 L129.687409,27.02439 L129.626009,30.95281 L129.728309,31.03461 L129.810109,27.86323 L130.076099,27.74047 C130.076099,27.74047 130.157899,26.90159 130.239779,26.90159 C130.321579,26.90159 130.423929,31.62796 130.423929,31.62796 L130.526229,32.93743 L130.689909,32.99883 L130.853599,31.03462 C130.853599,31.03462 131.017279,31.01412 131.017279,30.91186 L131.017279,29.68423 L131.344649,30.01159 L131.365149,32.42593 L131.733439,33.08067 L131.897119,32.26225 L131.938019,28.57936 L132.306309,27.6791 L132.408609,23.77114 C132.408609,23.77114 132.592759,23.52562 132.592759,23.13687 C132.592759,22.74812 132.572259,19.08569 132.572259,19.08569 L132.715479,19.10619 L132.961009,22.87092 L133.042809,22.89142 L133.247409,20.74307 L133.472479,22.9528 L133.554279,24.18043 L133.738429,24.75333 L133.840729,26.45155 L134.004409,25.67405 L134.045309,30.68687 L134.311299,29.92983 L134.434059,33.20351 L134.577289,34.73805 C134.577289,34.73805 134.720509,35.20864 134.761429,34.92219 C134.802329,34.63575 134.945579,32.28279 134.945579,32.28279 L135.150179,32.22139 L135.231979,34.3902 C135.231979,34.3902 135.579809,35.33138 135.600269,35.18816 C135.620769,35.04494 135.784419,34.36974 135.784419,34.14468 C135.784419,33.91961 135.886719,33.06027 135.886719,33.06027 L136.050399,33.26487 L136.275469,35.92474 L136.541459,36.19072 L136.561959,34.96309 L136.582459,33.08073 L136.664259,32.99893 L136.930239,34.22656 C136.930239,34.22656 137.032549,34.30836 137.032549,34.20606 C137.032549,34.10375 137.134849,32.81474 137.134849,32.81474 L137.298529,32.87614 C137.298529,32.87614 137.400839,36.53857 137.503139,36.45673 C137.605439,36.37493 137.748659,36.35443 137.748659,36.35443 L137.912349,31.70989 L138.116949,31.83266 L138.239719,34.06285 L138.301119,34.32884 L138.505719,34.5539 L138.505719,34.16516 L138.587519,33.91963 L138.833049,34.18562 L139.017189,34.71759 L139.160419,26.86076 L139.221819,26.77896 L139.303619,31.01428 L139.344519,33.71506 L139.692349,33.46954 L139.794649,35.16776 L139.917419,35.18826 L140.060639,32.56932 L140.122039,32.58982 L140.347109,35.00416 L140.428909,34.98366 L140.592589,33.03992 L140.756279,30.17545 L140.858579,25.75598 L140.919979,20.47717 L141.022279,18.06283 L141.308729,17.715 L141.451949,25.24447 L141.533849,25.53092 L141.533849,28.41585 C141.533849,28.41585 141.677069,28.62045 141.697529,28.39535 C141.718029,28.17029 141.881669,24.26233 141.881669,24.26233 L142.045359,21.9503 L142.127159,21.9094 L142.249919,24.48742 L142.413609,24.52832 L142.556829,25.94009 L142.618229,25.77641 L142.638729,24.77385 L142.843339,18.61524 L142.802439,15.54616 L143.007039,15.36202 L143.047939,10.88117 L143.232089,10.67656 L143.272989,5.5819 L143.477589,5.41821 L143.702659,5.7865 L143.928209,5.47417 L144.255089,5.35683 L144.357389,4.19058 L144.541539,3.9246 L144.807529,3.15062 L148.654099,3.15062 L149.329299,3.69953 L149.513439,4.47703 L149.758969,4.78394 C149.849769,4.09128 150.006179,4.02246 150.168179,4.00644 L150.393239,3.15062 L150.577389,3.15062 L150.536489,4.47703 L150.597889,4.88624 C150.597889,4.88624 150.822949,4.88624 150.822949,4.80444 C150.822949,4.72264 151.129859,3.15062 151.129859,3.15062 L151.334459,3.15062 L151.579989,4.25201 L151.805059,4.12924 L151.907359,3.15062 L152.255189,10.472 L152.439329,10.4515 L152.398429,6.33894 C152.398429,6.33894 152.766719,4.8044 152.766719,4.59979 C152.766719,4.39519 152.848519,3.15062 152.848519,3.15062 L153.175729,6.01715 L153.646479,5.58432 L153.769249,7.62795 C153.769249,7.62795 153.728349,7.81209 153.830649,7.73025 C153.932949,7.64845 154.117089,5.39775 154.117089,5.39775 C154.117089,5.39775 154.219389,5.52052 154.239859,5.09085 C154.260359,4.66117 154.403539,3.15062 154.403539,3.15062 L155.508409,3.15062 L155.590209,4.37473 L155.774349,5.25453 L155.958499,5.29543 L156.285869,3.15062 L194.293479,3.15062 L194.293479,37.20778 L13.576619,37.20778 L13.576619,3.15062 L25.660393,3.15062 Z" id="path4521" stroke="#404040" stroke-width="0.15000001" fill="#B4B4B4" fill-rule="nonzero" stroke-linecap="square" stroke-linejoin="round"></path>
                    <rect id="rect4731" stroke="#B99C9A" stroke-width="0.30000001" stroke-linecap="round" x="13.58176" y="3.15068" width="180.70604" height="34.057102"></rect>
                    <text id="Tổng-cộng-hấp-thụ-&amp;" fill="#3d1818" fill-rule="nonzero" font-family="Helvetica-Bold, Helvetica" font-size="5.64444447" font-weight="bold">
                        <tspan x="149.051456" y="19.19011">Tổng cộng hấp </tspan>
                        <tspan x="153.290301" y="25.19011">thụ &amp; tán xạ</tspan>
                    </text>
                    <g id="g10905" fill-rule="nonzero">
                        <line x1="11.763408" y1="37.20778" x2="13.576619" y2="37.20778" id="path4928" stroke="#B99C9A" stroke-width="0.30000001" fill="#AA8800" stroke-linecap="square"></line>
                        <line x1="11.763408" y1="28.67407" x2="13.576619" y2="28.67407" id="path4930" stroke="#B99C9A" stroke-width="0.30000001" fill="#AA8800" stroke-linecap="square"></line>
                        <line x1="11.763408" y1="20.06612" x2="13.576619" y2="20.06612" id="path4932" stroke="#B99C9A" stroke-width="0.30000001" fill="#AA8800" stroke-linecap="square"></line>
                        <line x1="11.763408" y1="11.61189" x2="13.576619" y2="11.61189" id="path4934" stroke="#B99C9A" stroke-width="0.30000001" fill="#AA8800" stroke-linecap="square"></line>
                        <line x1="11.763408" y1="3.15068" x2="13.576619" y2="3.15068" id="path4936" stroke="#B99C9A" stroke-width="0.30000001" fill="#AA8800" stroke-linecap="square"></line>
                        <text id="tspan4938" fill="#B99C9A" font-family="ArialMT, Arial" font-size="5.64444447" font-weight="normal">
                            <tspan x="6" y="39.05711">0</tspan>
                        </text>
                        <text id="tspan4942" fill="#B99C9A" font-family="ArialMT, Arial" font-size="5.64444447" font-weight="normal">
                            <tspan x="3.005512" y="13.43228">75</tspan>
                        </text>
                        <text id="tspan4946" fill="#B99C9A" font-family="ArialMT, Arial" font-size="5.64444447" font-weight="normal">
                            <tspan x="3" y="21.91545">50</tspan>
                        </text>
                        <text id="tspan4950" fill="#B99C9A" font-family="ArialMT, Arial" font-size="5.64444447" font-weight="normal">
                            <tspan x="3.005512" y="30.51514">25</tspan>
                        </text>
                        <text id="tspan4954" fill="#B99C9A" font-family="ArialMT, Arial" font-size="5.64444447" font-weight="normal">
                            <tspan x="0" y="5">100</tspan>
                        </text>
                    </g>
                </g>
                <g id="g11443" transform="translate(111.209828, 73.498470) scale(-1, 1) rotate(-180.000000) translate(-111.209828, -73.498470) translate(20.354243, 72.409770)" fill="#B99C9A" fill-rule="nonzero" stroke="#B99C9A" stroke-linecap="square" stroke-linejoin="round" stroke-width="0.29999998">
                    <line x1="181.21117" y1="1.19359" x2="181.21117" y2="5.68434189e-14" id="path11395"></line>
                    <line x1="176.36785" y1="1.19359" x2="176.36785" y2="5.68434189e-14" id="path11397"></line>
                    <line x1="170.72873" y1="1.19359" x2="170.72873" y2="5.68434189e-14" id="path11399"></line>
                    <line x1="163.88658" y1="1.19359" x2="163.88658" y2="5.68434189e-14" id="path11401"></line>
                    <line x1="155.02893" y1="1.19359" x2="155.02893" y2="5.68434189e-14" id="path11403"></line>
                    <line x1="142.54212" y1="1.19359" x2="142.54212" y2="5.68434189e-14" id="path11405"></line>
                    <line x1="121.11978" y1="2.1774" x2="121.11978" y2="5.68434189e-14" id="path11407"></line>
                    <line x1="117.82891" y1="1.19359" x2="117.82891" y2="5.68434189e-14" id="path11409"></line>
                    <line x1="114.22866" y1="1.19359" x2="114.22866" y2="5.68434189e-14" id="path11411"></line>
                    <line x1="110.13094" y1="1.19359" x2="110.13094" y2="5.68434189e-14" id="path11413"></line>
                    <line x1="105.35657" y1="1.19359" x2="105.35657" y2="5.68434189e-14" id="path11415"></line>
                    <line x1="99.71746" y1="1.19359" x2="99.71746" y2="5.68434189e-14" id="path11417"></line>
                    <line x1="92.87531" y1="1.19359" x2="92.87531" y2="5.68434189e-14" id="path11419"></line>
                    <line x1="84.01768" y1="1.19359" x2="84.01768" y2="5.68434189e-14" id="path11421"></line>
                    <line x1="71.530864" y1="1.19359" x2="71.530864" y2="5.68434189e-14" id="path11423"></line>
                    <line x1="50.094057" y1="2.1774" x2="50.094057" y2="5.68434189e-14" id="path11425"></line>
                    <line x1="46.803192" y1="1.19359" x2="46.803192" y2="5.68434189e-14" id="path11427"></line>
                    <line x1="43.20294" y1="1.19359" x2="43.20294" y2="5.68434189e-14" id="path11429"></line>
                    <line x1="39.105215" y1="1.19359" x2="39.105215" y2="5.68434189e-14" id="path11431"></line>
                    <line x1="34.330845" y1="1.19359" x2="34.330845" y2="5.68434189e-14" id="path11433"></line>
                    <line x1="28.691742" y1="1.19359" x2="28.691742" y2="5.68434189e-14" id="path11435"></line>
                    <line x1="21.849584" y1="1.19359" x2="21.849584" y2="5.68434189e-14" id="path11437"></line>
                    <line x1="12.991957" y1="1.19359" x2="12.991957" y2="5.68434189e-14" id="path11439"></line>
                    <line x1="0.5" y1="1.19359" x2="0.5" y2="5.68434189e-14" id="path11441"></line>
                </g>
                <g id="g11068" transform="translate(20.348935, 68.167770)" fill="#B99C9A" fill-rule="nonzero" stroke="#B99C9A" stroke-linecap="square" stroke-linejoin="round" stroke-width="0.29999998">
                    <line x1="181.21117" y1="1.19359" x2="181.21117" y2="5.68434189e-14" id="path11020"></line>
                    <line x1="176.36785" y1="1.19359" x2="176.36785" y2="5.68434189e-14" id="path11022"></line>
                    <line x1="170.72873" y1="1.19359" x2="170.72873" y2="5.68434189e-14" id="path11024"></line>
                    <line x1="163.88658" y1="1.19359" x2="163.88658" y2="5.68434189e-14" id="path11026"></line>
                    <line x1="155.02893" y1="1.19359" x2="155.02893" y2="5.68434189e-14" id="path11028"></line>
                    <line x1="142.54212" y1="1.19359" x2="142.54212" y2="5.68434189e-14" id="path11030"></line>
                    <line x1="121.11978" y1="2.1774" x2="121.11978" y2="5.68434189e-14" id="path11032"></line>
                    <line x1="117.82891" y1="1.19359" x2="117.82891" y2="5.68434189e-14" id="path11034"></line>
                    <line x1="114.22866" y1="1.19359" x2="114.22866" y2="5.68434189e-14" id="path11036"></line>
                    <line x1="110.13094" y1="1.19359" x2="110.13094" y2="5.68434189e-14" id="path11038"></line>
                    <line x1="105.35657" y1="1.19359" x2="105.35657" y2="5.68434189e-14" id="path11040"></line>
                    <line x1="99.71746" y1="1.19359" x2="99.71746" y2="5.68434189e-14" id="path11042"></line>
                    <line x1="92.87531" y1="1.19359" x2="92.87531" y2="5.68434189e-14" id="path11044"></line>
                    <line x1="84.01768" y1="1.19359" x2="84.01768" y2="5.68434189e-14" id="path11046"></line>
                    <line x1="71.530864" y1="1.19359" x2="71.530864" y2="5.68434189e-14" id="path11048"></line>
                    <line x1="50.094057" y1="2.1774" x2="50.094057" y2="5.68434189e-14" id="path11050"></line>
                    <line x1="46.803192" y1="1.19359" x2="46.803192" y2="5.68434189e-14" id="path11052"></line>
                    <line x1="43.20294" y1="1.19359" x2="43.20294" y2="5.68434189e-14" id="path11054"></line>
                    <line x1="39.105215" y1="1.19359" x2="39.105215" y2="5.68434189e-14" id="path11056"></line>
                    <line x1="34.330845" y1="1.19359" x2="34.330845" y2="5.68434189e-14" id="path11058"></line>
                    <line x1="28.691742" y1="1.19359" x2="28.691742" y2="5.68434189e-14" id="path11060"></line>
                    <line x1="21.849584" y1="1.19359" x2="21.849584" y2="5.68434189e-14" id="path11062"></line>
                    <line x1="12.991957" y1="1.19359" x2="12.991957" y2="5.68434189e-14" id="path11064"></line>
                    <line x1="0.5" y1="1.19359" x2="0.5" y2="5.68434189e-14" id="path11066"></line>
                </g>
                <g id="text4982" transform="translate(13.000000, 38.142110) rotate(-90.000000) translate(-13.000000, -38.142110) translate(-15.000000, 35.142110)" fill="#B99C9A" fill-rule="nonzero" font-family="Helvetica-Bold, Helvetica" font-size="5.64444447" font-weight="bold">
                    <text id="Cường-độ-quan-phổ">
                        <tspan x="0" y="5">Cường độ quan phổ</tspan>
                    </text>
                </g>
                <text id="Các-thành-phần-chính" fill="#B99C9A" fill-rule="nonzero" transform="translate(14.000000, 147.142110) rotate(-90.000000) translate(-14.000000, -147.142110) " font-family="Helvetica-Bold, Helvetica" font-size="5.64444447" font-weight="bold">
                    <tspan x="-16" y="149.14211">Các thành phần chính</tspan>
                </text>
                <text id="Bước-sóng-(micromét," fill="#B99C9A" fill-rule="nonzero" font-family="Helvetica-Bold, Helvetica" font-size="5.64444447" font-weight="bold">
                    <tspan x="72.5" y="194.64211">Bước sóng (micromét, μm) </tspan>
                </text>
                <text id="Phần-trăm" fill="#B99C9A" fill-rule="nonzero" transform="translate(3.000000, 91.142110) rotate(-90.000000) translate(-3.000000, -91.142110) " font-family="Helvetica-Bold, Helvetica" font-size="5.64444447" font-weight="bold">
                    <tspan x="-11" y="93.14211">Phần trăm</tspan>
                </text>
                <g id="g10957" transform="translate(20.849101, 8.657280)">
                    <g id="g9485" transform="translate(12.665766, 19.608315)" fill-rule="nonzero" stroke="#800000" stroke-linecap="square" stroke-linejoin="round" stroke-width="0.15000001">
                        <path d="M57.485352,33.6725351 L57.789174,33.2819051 C57.837404,33.0552451 57.885624,32.8285751 57.933852,32.6019151 C58.160514,32.6069151 58.358239,32.5681151 58.5849,32.5730151 C58.66206,32.4042251 58.768159,32.2788351 58.84532,32.1100451 L59.351692,32.0377451 C59.419212,31.9123551 59.486724,31.7869751 59.554241,31.6615851 C60.880452,31.8978951 62.206662,32.1341951 63.532874,32.3705051 C63.720955,32.5634051 64.126053,32.7997151 64.314134,32.9926251 C64.367184,33.2337551 64.507037,33.4314751 64.560084,33.6726051 L57.485352,33.6726051 L57.485352,33.6725351 Z" id="path4499" fill="#FF0000"></path>
                        <path d="M47.970729,33.6725351 C47.658343,33.6725351 48.264593,33.1201751 48.385054,32.8319451 C48.471344,32.6254751 48.426404,32.3324951 48.605004,32.1976751 C48.701774,32.1245751 48.868446,32.2461751 48.968177,32.1771751 C49.103169,32.0838751 49.123124,31.8849951 49.167667,31.7270451 C49.272712,31.3545351 49.260907,30.9584551 49.321121,30.5761351 C49.356711,30.3501651 49.381331,30.1209751 49.443885,29.9009351 C49.525535,29.6137451 49.636139,29.3334351 49.771252,29.0671751 C49.911027,28.7917251 49.976078,28.1819551 50.267419,28.2845651 C51.577527,28.7459451 52.682847,29.3363251 53.546215,29.7577151 C53.892996,29.9269751 53.954457,30.4142651 54.19072,30.7193651 C54.305331,30.8673651 54.478073,30.9725651 54.564125,31.1388051 C54.720223,31.4403551 54.700929,31.8046651 54.794305,32.1311351 C54.853765,32.3390151 54.939251,32.5386651 55.004025,32.7449451 C55.100385,33.0518251 55.591658,33.6725351 55.270012,33.6725351 L47.970729,33.6725351 Z" id="path4497" fill="#FF0000"></path>
                        <path d="M-1.42108547e-14,33.6725451 C1.307572,29.6784451 1.868372,25.6771951 3.813074,21.9082351 C5.860607,17.7419751 7.637837,13.4398951 9.79804,9.33212508 C11.424706,6.54259508 13.020962,3.70003508 15.254391,1.33812508 C16.410427,1.08252508 17.222922,0.0477450834 18.450448,0.0440250834 C19.133515,-0.0592249166 20.432675,-0.0467749166 20.451357,0.831725083 C20.872051,2.47174508 21.167203,-0.329044917 22.02557,0.768925083 C22.454518,1.21956508 23.217352,1.39524508 23.419167,1.95137508 C23.394237,3.14628508 24.25005,2.02927508 24.647766,2.72892508 C25.417902,3.16543508 25.051765,4.19924508 25.249482,4.93665508 C25.358264,5.31642508 25.241482,6.99172508 25.629467,6.40468508 C25.535377,5.88541508 26.274811,4.49117508 26.577262,5.32339508 C26.641612,6.89300508 26.705955,8.46261508 26.770303,10.0322151 C27.547761,10.2043651 27.156717,8.87812508 27.378541,8.39031508 C27.475391,7.69164508 27.457491,6.97340508 27.689004,6.29953508 C28.534106,6.37003508 28.172403,7.47741508 28.273218,8.06074508 L28.491965,16.9044051 C28.832405,16.4813051 28.60484,17.0070951 28.721412,16.3864251 L28.925997,7.60886508 C29.355847,8.41714508 30.0747,9.12742508 30.327114,9.99586508 C30.480468,11.3184651 30.470728,12.7037351 30.72512,13.9875051 C31.172708,13.9052051 31.3358,12.8233951 31.391868,12.2831751 C31.314318,11.7573151 31.824297,10.4179051 32.300405,11.3080151 C32.762228,12.0399751 33.614595,12.6336551 33.434382,13.5929251 C33.489282,15.0487951 33.544184,16.5046751 33.599083,17.9605451 C34.457614,18.1066451 34.610585,18.6527351 34.59965,19.4871951 C34.65273,22.2373151 34.68973,24.9908951 34.908416,27.7335151 C34.996186,27.4162751 35.172404,27.5694451 35.297143,27.2567451 C35.39903,27.0013451 35.447308,26.2810351 35.54454,26.0161251 C35.816158,24.1068951 35.891154,22.1690751 36.058602,20.2464551 C36.539761,19.6006451 36.235669,18.6559751 36.589538,17.9177651 C36.736354,16.7890651 37.524679,17.6692651 37.908803,18.1825451 C38.518646,18.9068151 39.422844,19.4702851 39.467879,20.5030951 C40.104599,22.6037651 39.991912,24.8412551 40.213021,27.0114151 C40.288841,28.1653651 40.393661,29.3171551 40.507438,30.4679251 C41.048148,30.0923351 40.933822,29.1067451 41.484012,28.5726451 C41.878892,27.3023251 41.240295,25.5469451 42.272398,24.4611251 C43.226616,24.9440451 42.949674,23.0379151 43.551729,23.6389751 C44.436539,24.2606551 44.364692,25.2266051 45.053217,25.9072451 C45.64916,28.4563251 46.08279,31.0596151 46.243903,33.6725451 L-1.42108547e-14,33.6725451 Z" id="path4492" fill="#FF0101"></path>
                    </g>
                    <g id="g9491" transform="translate(96.439031, 17.019561)" fill="#0000FF" fill-rule="nonzero" stroke="#0000FF" stroke-linecap="square" stroke-linejoin="round" stroke-width="0.15000001">
                        <path d="M45.25515,36.2612888 C45.36124,35.9622888 45.46734,35.6632888 45.57344,35.3642888 C45.72776,35.3063888 45.88208,35.2485388 46.03641,35.1906688 C46.07501,35.5475488 46.11361,35.9044188 46.15215,36.2612888 C45.85315,36.2612888 45.55415,36.2612888 45.25515,36.2612888 Z" id="path4513"></path>
                        <path d="M39.35229,36.2613188 C39.4584,35.9237088 39.5645,35.5861288 39.67059,35.2485388 C39.73809,35.2292388 39.80563,35.2099388 39.87314,35.1906388 C39.95034,35.4028388 40.02746,35.6150288 40.10463,35.8272188 C40.18183,35.8172188 40.25895,35.8079188 40.33611,35.7983188 C40.43261,35.5089588 40.52901,35.2196088 40.62546,34.9302488 L40.97269,34.9302488 C41.01129,35.1810288 41.04989,35.4317988 41.08843,35.6825788 C41.08843,35.6825788 41.43566,35.5089588 41.5514,35.4510888 C41.66714,35.3931888 42.10118,30.8792788 42.10118,30.8792788 C42.16868,30.8985788 42.23621,30.9178788 42.30373,30.9371788 C42.42911,32.3550188 42.5545,33.7728588 42.67989,35.1906988 C42.78598,35.2099988 42.89208,35.2292988 42.99818,35.2485988 C43.03678,34.9206688 43.07538,34.5927288 43.11392,34.2647988 C43.2586,34.1875988 43.40327,34.1104788 43.54795,34.0333088 C43.57685,33.8404088 43.60585,33.6475088 43.63475,33.4545988 L43.95304,33.3966988 C44.00124,33.8982488 44.04954,34.3997988 44.09772,34.9013488 C44.12662,35.3546688 44.15562,35.8079988 44.18452,36.2613188 L39.35229,36.2613188 L39.35229,36.2613188 Z" id="path4511"></path>
                        <path d="M15.42263,36.2612888 L15.85666,35.6825788 L16.03028,34.8723788 C16.12678,34.8241788 16.22318,34.7758788 16.31963,34.7277088 C16.38713,34.3708388 16.45466,34.0139588 16.52218,33.6570888 L16.66686,33.6570888 C16.71506,34.2165088 16.76336,34.7759288 16.81154,35.3353488 C16.89834,35.3835488 16.98515,35.4318488 17.07195,35.4800288 C17.13945,34.6216088 17.20699,33.7631888 17.2745,32.9047688 L17.3324,28.3329588 C17.3999,28.1882788 17.46744,28.0435988 17.53495,27.8989188 L17.6507,24.4555988 C17.81466,24.3398588 17.97863,24.2241088 18.1426,24.1083688 C18.1715,22.5651388 18.2005,21.0219188 18.2294,19.4786888 C18.36443,19.4014888 18.49946,19.3243688 18.63449,19.2471988 C18.58629,17.8872388 18.53799,16.5272688 18.48982,15.1672988 L18.77917,15.2830388 C18.87567,15.6977788 18.97208,16.1125288 19.06853,16.5272688 C19.18427,16.5372688 19.30001,16.5465688 19.41575,16.5561688 L19.53149,11.7239388 C19.56549,10.4016188 19.71117,10.7425688 19.90766,11.8396788 C19.99446,12.0904588 20.08127,12.3412288 20.16808,12.5920088 L20.39956,12.5341088 C20.40956,11.2030688 20.41886,9.87203876 20.42846,8.54099876 C20.45086,8.06887876 20.49436,7.77806876 20.65994,8.54099876 L21.09397,10.5664888 C21.21483,10.9682588 21.32739,11.1174488 21.41226,10.4218088 C21.42226,9.50551876 21.43156,8.58922876 21.44116,7.67293876 C21.50866,7.40286876 21.57619,7.13280876 21.64371,6.86273876 C21.73051,6.91093876 21.81732,6.95923876 21.90413,7.00741876 L22.07774,13.9230088 L22.19348,18.5526888 C22.19348,18.5526888 22.30922,19.7679788 22.33816,19.9126588 C22.36706,20.0573388 22.74326,20.4045688 22.74326,20.4045688 C22.80116,20.0573388 22.859,19.7101088 22.91687,19.3628888 C22.94577,19.0928188 22.97477,18.8227588 23.00367,18.5526888 C23.17728,18.3887188 23.35089,18.2247588 23.52451,18.0607888 L23.58241,14.5885288 L23.9875,14.0966188 L23.9875,6.68912876 C23.9875,6.68912876 24.62409,6.60232876 24.47941,6.37083876 C24.33473,6.13935876 24.56621,2.58028876 24.56621,2.58028876 C24.63061,2.16639876 24.71113,2.11185876 24.82663,2.84070876 C24.88453,3.70876876 24.94238,4.57683876 25.00025,5.44490876 C25.07745,5.42560876 25.15457,5.40630876 25.23173,5.38700876 L25.34747,2.14623876 C25.36717,1.84130876 25.39297,1.63621876 25.46321,2.14623876 C25.55001,2.83103876 25.63683,3.51584876 25.72363,4.20065876 L26.0998,4.31639876 C26.0709,2.95642876 26.0419,1.67571876 26.013,0.315748759 C26.1075,-0.0761612406 26.2244,-0.163271241 26.38916,0.402548759 L26.79426,4.17170876 L27.05468,4.17170876 C27.18971,2.88889876 27.32474,1.60609876 27.45978,0.323288759 C27.51598,-0.00209124059 27.59031,-0.0619612406 27.69126,0.265388759 C27.72016,1.95328876 27.74916,3.64119876 27.77806,5.32909876 L28.15422,5.38699876 C28.25072,4.29709876 28.34712,3.20718876 28.44357,2.11728876 C28.54007,2.15588876 28.63648,2.19448876 28.73293,2.23302876 C28.83903,5.13622876 28.94512,8.03942876 29.05122,10.9426188 C29.15732,10.9908188 29.26341,11.0391188 29.36951,11.0872988 C29.39841,8.88819876 29.42741,6.68909876 29.45631,4.48999876 C29.62027,4.40319876 29.55331,3.12077876 29.71724,3.03396876 C29.87994,3.07656876 29.86436,2.53976876 29.89085,2.13968876 L30.52692,2.66706876 L30.7584,7.81758876 C30.8259,10.7014888 30.89344,13.5853988 30.96095,16.4693088 L31.07669,20.9832488 L31.36605,20.9832488 L31.25031,11.4923988 C31.36605,11.1162388 31.48179,11.9356388 31.59753,10.1465288 C31.67473,10.2383288 31.75186,10.3300388 31.82902,10.4217788 C31.87722,20.4683388 31.92552,14.6463688 31.9737,16.7586588 C32.0219,16.8647588 32.0701,16.9708488 32.11837,17.0769488 C32.22447,15.7073388 32.33057,14.3377188 32.43666,12.9681088 C32.5524,13.1610088 32.66815,13.3539188 32.78389,13.5468188 C32.79849,19.4504888 33.01838,25.9795088 33.3626,31.5157688 C33.4494,32.2295188 33.53621,32.5759988 33.62302,33.2897388 C33.80628,33.3862388 33.98954,33.4826488 34.1728,33.5790988 L34.34641,36.2612888 L15.42263,36.2612888 Z" id="path4509"></path>
                        <polygon id="path4507" points="0 36.2612888 0.20255 35.3064188 0.31829 34.5540888 1.33103 34.6987688 1.53358 35.0459988 1.88081 35.1038988 2.02549 34.7277388 2.40165 34.9302788 3.0093 35.2196388 3.55761 36.2612888"></polygon>
                    </g>
                    <rect id="rect4733" stroke="#B99C9A" stroke-width="0.30000001" stroke-linecap="square" x="0" y="0" width="180.71118" height="53.280846"></rect>
                    <g id="g9657" transform="translate(0.025896, 16.320113)">
                        <path d="M0,35.5718273 C7.522866,32.2332673 11.361267,24.4316973 15.123906,17.6062873 C18.457543,11.9347273 20.956298,5.38613728 26.186641,1.13856728 C29.739691,-1.05044272 32.698153,-0.0557227206 36.644966,3.88716728 C41.824961,9.56792728 45.755715,16.2856073 50.997326,21.9282473 C56.980029,28.5480273 64.815343,33.8520273 73.7761,35.2220173 C79.084645,36.2684373 84.430915,36.6161173 89.820235,36.9607473" id="path4487" stroke="#FF0000" stroke-linecap="round" stroke-linejoin="round"></path>
                        <g id="text4836" transform="translate(14.183985, 13.099349) rotate(-61.599699) translate(-14.183985, -13.099349) translate(6.183985, 10.599349)" fill="#B99C9A" fill-rule="nonzero" font-family="ArialMT, Arial" font-size="4.93888903" font-weight="normal">
                            <text id="tspan1532">
                                <tspan x="0" y="4">5525 K</tspan>
                            </text>
                        </g>
                    </g>
                    <g id="g10964" transform="translate(81.580671, 16.354857)">
                        <path d="M0,36.9260326 C0,36.9260326 3.56309,36.5050326 5.28071,36.0145626 L5.28071,36.0145226 C6.87206,35.5601126 8.47746,35.0243626 9.88145,34.1481826 C11.83136,32.9313126 13.50177,31.2752726 15.01751,29.5474326 C16.65119,27.6851426 17.91599,25.5236526 19.21316,23.4131026 C20.44049,21.4161626 21.4957,19.3181026 22.59861,17.2498426 C23.55162,15.4627026 24.39293,13.6157926 25.39089,11.8533626 C26.10574,10.5909126 26.88613,9.36602261 27.67679,8.14962261 C28.54284,6.81724261 29.37654,5.45644261 30.3678,4.21439261 C30.98299,3.44355261 31.63515,2.69200261 32.37882,2.04422261 C32.98209,1.51874261 33.63203,1.02991261 34.34643,0.669792613 C34.92792,0.376662613 35.55344,0.138222613 36.1983,0.0476726132 C36.83412,-0.0416273868 37.49502,-0.00142738676 38.12252,0.134472613 C38.91985,0.307202613 39.6804,0.650442613 40.39395,1.04594261 C41.24522,1.51776261 42.01284,2.13466261 42.7522,2.76760261 C43.38428,3.30871261 43.95387,3.92037261 44.51727,4.53267261 C45.57382,5.68093261 46.55922,6.89341261 47.54103,8.10621261 C48.13584,8.84096261 48.70554,9.59577261 49.27716,10.3487126 C50.57132,12.0533926 51.80984,13.7999726 53.11111,15.4992326 C54.0778,16.7615726 55.06211,18.0106026 56.06253,19.2463826 C57.00197,20.4068226 57.90777,21.5988226 58.92715,22.6897026 C59.80981,23.6342726 60.78195,24.4915526 61.7339,25.3662426 C62.6018,26.1637126 63.45474,26.9817726 64.3815,27.7100226 C65.51754,28.6027226 66.70553,29.4342026 67.94056,30.1840026 C69.40281,31.0717526 70.91425,31.8900726 72.48344,32.5711826 C74.0434,33.2482826 75.66459,33.7874526 77.3012,34.2494426 C78.69314,34.6423726 80.11834,34.9107226 81.54025,35.1753826 C83.59345,35.5575526 85.65914,35.8792826 87.73246,36.1302526 C89.3137,36.3216526 90.9042,36.4283626 92.49234,36.5498226 C93.45848,36.6237226 97.23904,36.7757826 98.68432,36.9260326" id="path4501" stroke="#FF00FF" stroke-width="0.30000001" stroke-linecap="round" stroke-linejoin="round"></path>
                        <path d="M5.5089,36.9259926 C5.5089,36.9259926 9.07198,36.5049926 10.7896,36.0145226 C12.38095,35.5601126 13.98635,35.0243626 15.39034,34.1481826 C17.34025,32.9313126 19.02258,31.2856626 20.5264,29.5474326 C22.13227,27.6912426 23.31262,25.5032626 24.59928,23.4131026 C25.8385,21.4000226 26.9794,19.3272326 28.1075,17.2498426 C29.07403,15.4699826 29.90182,13.6157926 30.89978,11.8533626 C31.61463,10.5909126 32.39502,9.36602261 33.18568,8.14962261 C34.05173,6.81724261 34.88543,5.45644261 35.87669,4.21439261 C36.49188,3.44355261 37.14404,2.69200261 37.8877,2.04422261 C38.49098,1.51874261 39.14091,1.02991261 39.85532,0.669792613 C40.43681,0.376662613 41.06233,0.138222613 41.70719,0.0476726132 C42.34301,-0.0416273868 43.00391,-0.00142738676 43.6314,0.134472613 C44.42874,0.307202613 45.18929,0.650442613 45.90284,1.04594261 C46.75411,1.51776261 47.52173,2.13466261 48.26109,2.76760261 C48.89317,3.30871261 49.46276,3.92037261 50.02615,4.53267261 C51.08271,5.68093261 52.06811,6.89341261 53.04992,8.10621261 C53.64473,8.84096261 54.21832,9.59283261 54.78605,10.3487126 C56.06169,12.0471026 57.24417,13.8147726 58.53816,15.4992326 C59.51713,16.7736126 60.55198,18.0041426 61.57142,19.2463826 C62.51858,20.4005326 63.41666,21.5988226 64.43604,22.6897026 C65.3187,23.6342726 66.29084,24.4915526 67.24278,25.3662426 C68.11069,26.1637126 68.96363,26.9817726 69.89038,27.7100226 C71.02643,28.6027226 72.21442,29.4342026 73.44945,30.1840026 C74.9117,31.0717526 76.42314,31.8900726 77.99233,32.5711826 C79.55229,33.2482826 81.17348,33.7874526 82.81008,34.2494426 C84.20203,34.6423726 85.62724,34.9107226 87.04914,35.1753826 C89.10234,35.5575526 91.16786,35.8805926 93.24135,36.1302526 C95.19767,36.3658026 97.17689,36.4975926 99.13051,36.6418926" id="path4503" stroke="#000097" stroke-linecap="round" stroke-linejoin="round"></path>
                        <path d="M12.11958,36.9259826 C12.11958,36.9259826 15.65849,36.5803026 17.35934,36.0963526 L17.35934,36.0963626 C18.97326,35.6371526 20.58644,35.0507426 22.00101,34.1481826 C23.92158,32.9227726 25.55194,31.2592626 27.05522,29.5474326 C28.70011,27.6743526 30.01785,25.5309426 31.33271,23.4131026 C32.56906,21.4217326 33.61526,19.3181026 34.71817,17.2498426 C35.67117,15.4627026 36.51249,13.6157926 37.51044,11.8533626 C38.22529,10.5909126 39.00569,9.36602261 39.79635,8.14962261 C40.6624,6.81724261 41.4961,5.45644261 42.48735,4.21439261 C43.10254,3.44355261 43.75471,2.69200261 44.49837,2.04422261 C45.10164,1.51874261 45.75158,1.02991261 46.46599,0.669792613 C47.04748,0.376662613 47.673,0.138222613 48.31786,0.0476726132 C48.95368,-0.0416273868 49.61457,-0.00142738676 50.24207,0.134472613 C51.03941,0.307202613 51.79995,0.650442613 52.51351,1.04594261 C53.36477,1.51776261 54.1324,2.13466261 54.87176,2.76760261 C55.50384,3.30871261 56.07343,3.92037261 56.63682,4.53267261 C57.69338,5.68093261 58.67878,6.89341261 59.66058,8.10621261 C60.25539,8.84096261 60.8251,9.59577261 61.39671,10.3487126 C62.69087,12.0533926 63.9294,13.7999726 65.23067,15.4992326 C66.19736,16.7615726 67.18167,18.0106026 68.18209,19.2463826 C69.12153,20.4068226 70.02733,21.5988226 71.04671,22.6897026 C71.92936,23.6342726 72.9015,24.4915526 73.85345,25.3662426 C74.72136,26.1637126 75.57429,26.9817726 76.50105,27.7100226 C77.63709,28.6027226 78.82558,29.4334026 80.06012,30.1840026 C81.51817,31.0705026 83.02379,31.8907126 84.58865,32.5711526 C86.14817,33.2492626 87.7698,33.7874226 89.40641,34.2494126 C90.79835,34.6423426 92.22444,34.9059526 93.64547,35.1753526 C95.46496,35.5202926 97.0725,35.8186426 99.13051,36.0586126" id="path4505" stroke="#007D00" stroke-width="0.30000001" stroke-linecap="round" stroke-linejoin="round"></path>
                        <g id="text4840" transform="translate(22.050299, 12.885891) rotate(-61.027387) translate(-22.050299, -12.885891) translate(9.050299, 10.385891)" fill="#B99C9A" fill-rule="nonzero" font-family="ArialMT, Arial" font-size="4.93888903" font-weight="normal">
                            <text id="tspan1530">
                                <tspan x="-4.78381367e-13" y="4">210 - 310 K</tspan>
                            </text>
                        </g>
                    </g>
                    <text id="Bức-xạ-nhiệt-phát-ra" fill="#B99C9A" fill-rule="nonzero" font-family="Helvetica" font-size="4.93888903" font-weight="normal">
                        <tspan x="89.553141" y="6.4049">Bức xạ nhiệt phát ra ngoài không gian</tspan>
                    </text>
                    <text id="15-30%-được-truyền-q" fill="#B99C9A" fill-rule="nonzero" font-family="ArialMT, Arial" font-size="4.93888903" font-weight="normal">
                        <tspan x="101.553141" y="13.27701">15-30% được truyền qua</tspan>
                    </text>
                    <g id="g9668" transform="translate(0.000000, 53.280840)" fill-rule="nonzero">
                        <rect id="rect4850" stroke="#B99C9A" stroke-width="0.30000001" fill="#FFEEAA" stroke-linecap="square" x="0" y="0" width="180.711" height="6.2296467"></rect>
                        <line x1="38.638271" y1="6.22966" x2="38.638271" y2="9.99999975e-06" id="path4883" stroke="#3d1818" stroke-width="0.30000001" fill="#3d1818" stroke-linecap="square"></line>
                        <line x1="19.059088" y1="6.22966" x2="19.059088" y2="9.99999975e-06" id="path5380" stroke="#3d1818" stroke-width="0.30000001" fill="#3d1818" stroke-linecap="square"></line>
                        <text id="Hồng-ngoại" fill="#3d1818" font-family="ArialMT, Arial" font-size="5.64444447" font-weight="normal">
                            <tspan x="99.663701" y="5.13228">Hồng ngoại</tspan>
                        </text>
                        <text id="UV" fill="#3d1818" font-family="ArialMT, Arial" font-size="5.64444447" font-weight="normal">
                            <tspan x="5.326975" y="5.02893">UV</tspan>
                        </text>
                        <text id="Thấy" fill="#3d1818" font-family="ArialMT, Arial" font-size="5.64444447" font-weight="normal">
                            <tspan x="21.965811" y="5.13228">Thấy</tspan>
                        </text>
                    </g>
                    <text id="Bức-xạ-mặt-trời-đến" fill="#B99C9A" fill-rule="nonzero" font-family="Helvetica" font-size="4.93888903" font-weight="normal">
                        <tspan x="3.237696" y="6.30774">Bức xạ mặt trời đến trái đất</tspan>
                    </text>
                    <text id="70-75%-được-truyền-q" fill="#B99C9A" fill-rule="nonzero" font-family="Helvetica" font-size="4.93888903" font-weight="normal">
                        <tspan x="6.237696" y="13.37419">70-75% được truyền qua</tspan>
                    </text>
                    <g id="g10522" transform="translate(49.615746, 19.726170)">
                        <line x1="0" y1="14.77492" x2="12.916427" y2="5.93514" id="path5396" stroke="#B99C9A" stroke-width="0.24999999" stroke-dasharray="0.50000002,0.25000001"></line>
                        <text id="Bức-xạ-vật-đen" fill="#B99C9A" fill-rule="nonzero" font-family="ArialMT, Arial" font-size="4.93888903" font-weight="normal">
                            <tspan x="3.535978" y="4">Bức xạ vật đen</tspan>
                        </text>
                        <line x1="44.665155" y1="26.66538" x2="22.680497" y2="5.93905" id="path5398" stroke="#B99C9A" stroke-width="0.24999999" stroke-dasharray="0.5000000100000001,0.25000001"></line>
                    </g>
                </g>
                <g id="g11393" transform="translate(111.204686, 7.568580) scale(-1, 1) rotate(-180.000000) translate(-111.204686, -7.568580) translate(20.349101, 6.479880)" fill="#B99C9A" fill-rule="nonzero" stroke="#B99C9A" stroke-linecap="square" stroke-linejoin="round" stroke-width="0.29999998">
                    <line x1="181.21117" y1="1.19359" x2="181.21117" y2="5.68434189e-14" id="path11345"></line>
                    <line x1="176.36785" y1="1.19359" x2="176.36785" y2="5.68434189e-14" id="path11347"></line>
                    <line x1="170.72873" y1="1.19359" x2="170.72873" y2="5.68434189e-14" id="path11349"></line>
                    <line x1="163.88658" y1="1.19359" x2="163.88658" y2="5.68434189e-14" id="path11351"></line>
                    <line x1="155.02893" y1="1.19359" x2="155.02893" y2="5.68434189e-14" id="path11353"></line>
                    <line x1="142.54212" y1="1.19359" x2="142.54212" y2="5.68434189e-14" id="path11355"></line>
                    <line x1="121.11978" y1="2.1774" x2="121.11978" y2="5.68434189e-14" id="path11357"></line>
                    <line x1="117.82891" y1="1.19359" x2="117.82891" y2="5.68434189e-14" id="path11359"></line>
                    <line x1="114.22866" y1="1.19359" x2="114.22866" y2="5.68434189e-14" id="path11361"></line>
                    <line x1="110.13094" y1="1.19359" x2="110.13094" y2="5.68434189e-14" id="path11363"></line>
                    <line x1="105.35657" y1="1.19359" x2="105.35657" y2="5.68434189e-14" id="path11365"></line>
                    <line x1="99.71746" y1="1.19359" x2="99.71746" y2="5.68434189e-14" id="path11367"></line>
                    <line x1="92.87531" y1="1.19359" x2="92.87531" y2="5.68434189e-14" id="path11369"></line>
                    <line x1="84.01768" y1="1.19359" x2="84.01768" y2="5.68434189e-14" id="path11371"></line>
                    <line x1="71.530864" y1="1.19359" x2="71.530864" y2="5.68434189e-14" id="path11373"></line>
                    <line x1="50.094057" y1="2.1774" x2="50.094057" y2="5.68434189e-14" id="path11375"></line>
                    <line x1="46.803192" y1="1.19359" x2="46.803192" y2="5.68434189e-14" id="path11377"></line>
                    <line x1="43.20294" y1="1.19359" x2="43.20294" y2="5.68434189e-14" id="path11379"></line>
                    <line x1="39.105215" y1="1.19359" x2="39.105215" y2="5.68434189e-14" id="path11381"></line>
                    <line x1="34.330845" y1="1.19359" x2="34.330845" y2="5.68434189e-14" id="path11383"></line>
                    <line x1="28.691742" y1="1.19359" x2="28.691742" y2="5.68434189e-14" id="path11385"></line>
                    <line x1="21.849584" y1="1.19359" x2="21.849584" y2="5.68434189e-14" id="path11387"></line>
                    <line x1="12.991957" y1="1.19359" x2="12.991957" y2="5.68434189e-14" id="path11389"></line>
                    <line x1="0.5" y1="1.19359" x2="0.5" y2="5.68434189e-14" id="path11391"></line>
                </g>
                <g id="g10915" transform="translate(16.849103, 0.000000)" fill="#B99C9A" fill-rule="nonzero" font-family="ArialMT, Arial" font-size="5.64444447" font-weight="normal">
                    <text id="tspan2261">
                        <tspan x="181.211169" y="5">70</tspan>
                    </text>
                    <text id="tspan2265">
                        <tspan x="121.119789" y="5">10</tspan>
                    </text>
                    <text id="tspan2269">
                        <tspan x="51.594059" y="5">1</tspan>
                    </text>
                    <text id="tspan2273">
                        <tspan x="3.55271368e-15" y="5">0.2</tspan>
                    </text>
                </g>
            </g>
        </g>
    </g>
</svg>