<svg style='scaling-svg' viewBox="0 0 226 188" version="1.1" xmlns="http://www.w3.org/2000/svg" xmlns:xlink="http://www.w3.org/1999/xlink">
    <g id="Page-1" stroke="none" stroke-width="1" fill="none" fill-rule="evenodd">
        <g id="Board" transform="translate(-3586.000000, -4228.000000)">
            <g id="climate-5" transform="translate(3586.818583, 4228.151606)">
                <g id="Group-16" transform="translate(31.239770, 16.830636)">
                    <path d="M81.7354242,0.183999493 C71.2771515,-0.542289603 60.7800933,0.886564972 50.8987191,4.38146875 C41.0173045,7.87637252 31.9613221,13.3631741 24.2953204,20.4997942 C16.6293187,27.6364143 10.5159868,36.2713681 6.33647955,45.8663431 C2.15697233,55.4613181 0,65.8126696 0,76.2750268 L76.4297259,76.2750268 L81.7354242,0.183999493 Z" id="Fill-14" fill="#FF8888"></path>
                    <path d="M81.7354242,0.183999493 C71.2771515,-0.542289603 60.7800933,0.886564972 50.8987191,4.38146875 C41.0173045,7.87637252 31.9613221,13.3631741 24.2953204,20.4997942 C16.6293187,27.6364143 10.5159868,36.2713681 6.33647955,45.8663431 C2.15697233,55.4613181 0,65.8126696 0,76.2750268 L76.4297259,76.2750268 L81.7354242,0.183999493 Z" id="Stroke-15" stroke="#3D1818"></path>
                </g>
                <g id="Group-19" transform="translate(107.669495, 17.014636)">
                    <path d="M23.1634387,3.40331208 C20.2681703,2.48437432 17.3205556,1.73859077 14.3363349,1.16986839 C11.3521142,0.601105727 8.3365342,0.210491727 5.30569829,0 L0,76.0910273 L23.1634387,3.40331208 Z" id="Fill-17" fill="#FFBBBB"></path>
                    <path d="M23.1634387,3.40331208 C20.2681703,2.48437432 17.3205556,1.73859077 14.3363349,1.16986839 C11.3521142,0.601105727 8.3365342,0.210491727 5.30569829,0 L0,76.0910273 L23.1634387,3.40331208 Z" id="Stroke-18" stroke="#3D1818"></path>
                </g>
                <g id="Group-22" transform="translate(107.669495, 20.417948)">
                    <path d="M69.1273228,40.1512365 C64.6440701,30.6646088 58.2478585,22.2020438 50.3394981,15.2937585 C42.4310973,8.38547323 33.1791696,3.17880369 23.1634387,0 L0,72.6877152 L69.1273228,40.1512365 Z" id="Fill-20" fill="#7777FF"></path>
                    <path d="M69.1273228,40.1512365 C64.6440701,30.6646088 58.2478585,22.2020438 50.3394981,15.2937585 C42.4310973,8.38547323 33.1791696,3.17880369 23.1634387,0 L0,72.6877152 L69.1273228,40.1512365 Z" id="Stroke-21" stroke="#3D1818"></path>
                </g>
                <g id="Group-25" transform="translate(107.669495, 60.569184)">
                    <path d="M75.1140874,18.4448511 C74.5140629,15.2593613 73.7111917,12.1153173 72.7103571,9.03181091 C71.7094823,5.94830448 70.5127428,2.93157861 69.1273228,0 L0,32.5364787 L75.1140874,18.4448511 Z" id="Fill-23" fill="#9999FF"></path>
                    <path d="M75.1140874,18.4448511 C74.5140629,15.2593613 73.7111917,12.1153173 72.7103571,9.03181091 C71.7094823,5.94830448 70.5127428,2.93157861 69.1273228,0 L0,32.5364787 L75.1140874,18.4448511 Z" id="Stroke-24" stroke="#3D1818"></path>
                </g>
                <g id="Group-28" transform="translate(107.669495, 79.014036)">
                    <path d="M76.4246809,14.9695626 C76.4536187,12.4607397 76.3584914,9.95199729 76.1396622,7.45247852 C75.9208331,4.95300003 75.5785443,2.46580626 75.1140874,0 L0,14.0916276 L76.4246809,14.9695626 Z" id="Fill-26" fill="#BBBBFF"></path>
                    <path d="M76.4246809,14.9695626 C76.4536187,12.4607397 76.3584914,9.95199729 76.1396622,7.45247852 C75.9208331,4.95300003 75.5785443,2.46580626 75.1140874,0 L0,14.0916276 L76.4246809,14.9695626 Z" id="Stroke-27" stroke="#3D1818"></path>
                </g>
                <g id="Group-31" transform="translate(107.669495, 93.105663)">
                    <path d="M62.3895489,44.0586654 C66.8445096,37.7756927 70.3209949,30.8558477 72.7006709,23.5344734 C75.0803065,16.2131394 76.3358901,8.57433578 76.4246809,0.877934973 L0,0 L62.3895489,44.0586654 Z" id="Fill-29" fill="#DDDDFF"></path>
                    <path d="M62.3895489,44.0586654 C66.8445096,37.7756927 70.3209949,30.8558477 72.7006709,23.5344734 C75.0803065,16.2131394 76.3358901,8.57433578 76.4246809,0.877934973 L0,0 L62.3895489,44.0586654 Z" id="Stroke-30" stroke="#3D1818"></path>
                </g>
                <g id="Group-34" transform="translate(107.669495, 93.105663)">
                    <path d="M39.2801112,65.4308256 C43.8212394,62.7156676 48.0674608,59.5369969 51.9503258,55.9460346 C55.8331908,52.3550763 59.3317125,48.3712203 62.3895489,44.0586654 L0,0 L39.2801112,65.4308256 Z" id="Fill-32" fill="#55DD55"></path>
                    <path d="M39.2801112,65.4308256 C43.8212394,62.7156676 48.0674608,59.5369969 51.9503258,55.9460346 C55.8331908,52.3550763 59.3317125,48.3712203 62.3895489,44.0586654 L0,0 L39.2801112,65.4308256 Z" id="Stroke-33" stroke="#3D1818"></path>
                </g>
                <g id="Group-37" transform="translate(107.669495, 93.105663)">
                    <path d="M12.6043883,75.2306534 C17.3079231,74.4457964 21.9275505,73.2233333 26.4027717,71.5792704 C30.8780332,69.9352036 35.1892738,67.8767427 39.2801112,65.4308256 L0,0 L12.6043883,75.2306534 Z" id="Fill-35" fill="#88DD88"></path>
                    <path d="M12.6043883,75.2306534 C17.3079231,74.4457964 21.9275505,73.2233333 26.4027717,71.5792704 C30.8780332,69.9352036 35.1892738,67.8767427 39.2801112,65.4308256 L0,0 L12.6043883,75.2306534 Z" id="Stroke-36" stroke="#3D1818"></path>
                </g>
                <g id="Group-40" transform="translate(96.182096, 93.105663)">
                    <path d="M0,75.4085685 C3.98848577,76.013702 8.01874361,76.3027273 12.0529567,76.2729339 C16.0871697,76.2431444 20.1127055,75.8946247 24.0917875,75.2306534 L11.4873992,0 L0,75.4085685 Z" id="Fill-38" fill="#AAEEAA"></path>
                    <path d="M0,75.4085685 C3.98848577,76.013702 8.01874361,76.3027273 12.0529567,76.2729339 C16.0871697,76.2431444 20.1127055,75.8946247 24.0917875,75.2306534 L11.4873992,0 L0,75.4085685 Z" id="Stroke-39" stroke="#3D1818"></path>
                </g>
                <g id="Group-43" transform="translate(37.657937, 93.105663)">
                    <path d="M0,30.5954921 C5.17331918,42.3857274 13.2538532,52.6795582 23.4861531,60.5146355 C33.7184934,68.3497127 45.7734681,73.4740383 58.5241595,75.4085685 L70.0115587,0 L0,30.5954921 Z" id="Fill-41" fill="#CCFFCC"></path>
                    <path d="M0,30.5954921 C5.17331918,42.3857274 13.2538532,52.6795582 23.4861531,60.5146355 C33.7184934,68.3497127 45.7734681,73.4740383 58.5241595,75.4085685 L70.0115587,0 L0,30.5954921 Z" id="Stroke-42" stroke="#3D1818"></path>
                </g>
                <g id="Group-46" transform="translate(33.357755, 93.105663)">
                    <path d="M0,17.8319843 C0.526529845,20.0172557 1.14955922,22.1782397 1.8673123,24.3086125 C2.58506539,26.4389853 3.39681572,28.5366526 4.30018208,30.5954921 L74.3117408,0 L0,17.8319843 Z" id="Fill-44" fill="#BBBB55"></path>
                    <path d="M0,17.8319843 C0.526529845,20.0172557 1.14955922,22.1782397 1.8673123,24.3086125 C2.58506539,26.4389853 3.39681572,28.5366526 4.30018208,30.5954921 L74.3117408,0 L0,17.8319843 Z" id="Stroke-45" stroke="#3D1818"></path>
                </g>
                <g id="Group-49" transform="translate(31.435231, 93.105663)">
                    <path d="M0,5.45135711 C0.149693331,7.53669937 0.385271646,9.61507358 0.706129554,11.6811228 C1.0269471,13.747172 1.43276173,15.7992045 1.92252408,17.8319843 L76.2342649,0 L0,5.45135711 Z" id="Fill-47" fill="#FF77FF"></path>
                    <path d="M0,5.45135711 C0.149693331,7.53669937 0.385271646,9.61507358 0.706129554,11.6811228 C1.0269471,13.747172 1.43276173,15.7992045 1.92252408,17.8319843 L76.2342649,0 L0,5.45135711 Z" id="Stroke-48" stroke="#3D1818"></path>
                </g>
                <g id="Group-52" transform="translate(31.239770, 93.105663)">
                    <path d="M0,0 C0,0.909351649 0.016305232,1.81862274 0.0488753367,2.7274105 C0.0814454413,3.63619826 0.130320778,4.5443013 0.195460987,5.45135711 L76.4297259,0 L0,0 Z" id="Fill-50" fill="#55FFFF"></path>
                    <path d="M0,0 C0,0.909351649 0.016305232,1.81862274 0.0488753367,2.7274105 C0.0814454413,3.63619826 0.130320778,4.5443013 0.195460987,5.45135711 L76.4297259,0 L0,0 Z" id="Stroke-51" stroke="#3D1818"></path>
                </g>
                <g id="number" transform="translate(32.569333, 20.944905)" fill="#3D1818" font-family="LucidaGrande, Lucida Grande" font-size="7" font-weight="normal" letter-spacing="0.0239035223">
                    <text id="26.1%">
                        <tspan x="21.8122422" y="24.2740394">26</tspan>
                        <tspan x="30.7125883" y="24.2740394" letter-spacing="-0.0320964777">.</tspan>
                        <tspan x="32.8953356" y="24.2740394">1%</tspan>
                    </text>
                    <text id="3.8%">
                        <tspan x="80.1096218" y="7">3</tspan>
                        <tspan x="84.5597948" y="7" letter-spacing="-0.0320964777">.</tspan>
                        <tspan x="86.7425421" y="7">8%</tspan>
                    </text>
                    <text id="13.1%">
                        <tspan x="107.915034" y="24.8981501">13</tspan>
                        <tspan x="116.81538" y="24.8981501" letter-spacing="-0.0320964777">.</tspan>
                        <tspan x="118.998127" y="24.8981501">1%</tspan>
                    </text>
                    <text id="4.1%">
                        <tspan x="129.727533" y="53.7040194">4</tspan>
                        <tspan x="134.177706" y="53.7040194" letter-spacing="-0.0320964777">.</tspan>
                        <tspan x="136.360453" y="53.7040194">1%</tspan>
                    </text>
                    <text id="3.1%">
                        <tspan x="133.642456" y="68.0397305">3</tspan>
                        <tspan x="138.092629" y="68.0397305" letter-spacing="-0.0320964777">.</tspan>
                        <tspan x="140.275376" y="68.0397305">1%</tspan>
                    </text>
                    <text id="9.6%">
                        <tspan x="129.719299" y="94.6873378">9</tspan>
                        <tspan x="134.169472" y="94.6873378" letter-spacing="-0.0320964777">.</tspan>
                        <tspan x="136.35222" y="94.6873378">6%</tspan>
                    </text>
                    <text id="6.6%">
                        <tspan x="112.081518" y="124.237136">6</tspan>
                        <tspan x="116.531691" y="124.237136" letter-spacing="-0.0320964777">.</tspan>
                        <tspan x="118.714438" y="124.237136">6%</tspan>
                    </text>
                    <text id="6.0%">
                        <tspan x="90.366097" y="139.525383">6</tspan>
                        <tspan x="94.8162701" y="139.525383" letter-spacing="-0.0320964777">.</tspan>
                        <tspan x="96.9990173" y="139.525383">0%</tspan>
                    </text>
                    <text id="5.0%">
                        <tspan x="67.4044831" y="144.514999">5</tspan>
                        <tspan x="71.8546562" y="144.514999" letter-spacing="-0.0320964777">.</tspan>
                        <tspan x="74.0374034" y="144.514999">0%</tspan>
                    </text>
                    <text id="16.0%">
                        <tspan x="23.5799082" y="127.120447">16</tspan>
                        <tspan x="32.4802543" y="127.120447" letter-spacing="-0.0320964777">.</tspan>
                        <tspan x="34.6630016" y="127.120447">0%</tspan>
                    </text>
                    <text id="2.8%">
                        <tspan x="3.34596277" y="95.3453158">2</tspan>
                        <tspan x="7.79613582" y="95.3453158" letter-spacing="-0.0320964777">.</tspan>
                        <tspan x="9.97888309" y="95.3453158">8%</tspan>
                    </text>
                    <text id="2.6%">
                        <tspan x="0.724815996" y="84.6119696">2</tspan>
                        <tspan x="5.17498905" y="84.6119696" letter-spacing="-0.0320964777">.</tspan>
                        <tspan x="7.35773632" y="84.6119696">6%</tspan>
                    </text>
                    <text id="1.1%">
                        <tspan x="0" y="74.0013202">1</tspan>
                        <tspan x="4.45017305" y="74.0013202" letter-spacing="-0.0320964777">.</tspan>
                        <tspan x="6.63292033" y="74.0013202">1%</tspan>
                    </text>
                </g>
                <text id="Hoa-Kì" font-family="LucidaGrande-Bold, Lucida Grande" font-size="7" font-weight="bold" letter-spacing="0.0209905483" fill="#3D1818">
                    <tspan x="27.5023068" y="38.060531">Hoa Kì</tspan>
                </text>
                <text id="Bắc-Mĩ-(các-nước-còn" font-family="LucidaGrande-Bold, Lucida Grande" font-size="7" font-weight="bold" letter-spacing="0.011994599" fill="#3D1818">
                    <tspan x="120.43944" y="7">Bắc Mĩ (các </tspan>
                    <tspan x="120.43944" y="15">nước còn lại)</tspan>
                </text>
                <text id="China" font-family="LucidaGrande-Bold, Lucida Grande" font-size="7" font-weight="bold" letter-spacing="0.0203908183" fill="#3D1818">
                    <tspan x="163.042911" y="30.2799305">C</tspan>
                    <tspan x="168.050118" y="30.2799305" letter-spacing="0.00639081831">h</tspan>
                    <tspan x="172.653677" y="30.2799305" letter-spacing="-0.0566091817">i</tspan>
                    <tspan x="174.873435" y="30.2799305" letter-spacing="0.00639081831">n</tspan>
                    <tspan x="179.476994" y="30.2799305">a</tspan>
                </text>
                <text id="Nhật-Bản" font-family="LucidaGrande-Bold, Lucida Grande" font-size="7" font-weight="bold" letter-spacing="0.0083962193" fill="#3D1818">
                    <tspan x="182.650856" y="70.5581523">Nhật Bản</tspan>
                </text>
                <text id="Ấn-Độ" font-family="LucidaGrande-Bold, Lucida Grande" font-size="7" font-weight="bold" letter-spacing="0.0083962193" fill="#3D1818">
                    <tspan x="186.423136" y="89.1102228">Ấn Độ</tspan>
                </text>
                <text id="Châu-Á-(Các-nước-còn" font-family="LucidaGrande-Bold, Lucida Grande" font-size="7" font-weight="bold" letter-spacing="0.011994599" fill="#3D1818">
                    <tspan x="183.640201" y="117.301216">Châu Á </tspan>
                    <tspan x="183.640201" y="125.301216">(Các nước </tspan>
                    <tspan x="183.640201" y="133.301216">còn lại)</tspan>
                </text>
                <text id="Nga" font-family="LucidaGrande-Bold, Lucida Grande" font-size="7" font-weight="bold" letter-spacing="0.0197910884" fill="#3D1818">
                    <tspan x="162.814854" y="153.953927">Nga</tspan>
                </text>
                <text id="Đức" font-family="LucidaGrande-Bold, Lucida Grande" font-size="7" font-weight="bold" letter-spacing="0.0221900082" fill="#3D1818">
                    <tspan x="133.712544" y="172.150484">Đức</tspan>
                </text>
                <text id="Liên-hiệp-Anh-(UK)" font-family="LucidaGrande-Bold, Lucida Grande" font-size="7" font-weight="bold" letter-spacing="0.0209905483" fill="#3D1818">
                    <tspan x="90.2501396" y="177.313515">Liên hiệp </tspan>
                    <tspan x="90.2501396" y="185.313515">Anh (UK)</tspan>
                </text>
                <text id="Châu-Âu-(Các-nước-cò" font-family="LucidaGrande-Bold, Lucida Grande" font-size="7" font-weight="bold" letter-spacing="0.011994599" fill="#3D1818">
                    <tspan x="9.06475461" y="157.979386">Châu Âu (Các </tspan>
                    <tspan x="9.06475461" y="165.979386">nước còn lại)</tspan>
                </text>
                <text id="Châu-Phi" font-family="LucidaGrande-Bold, Lucida Grande" font-size="7" font-weight="bold" letter-spacing="0.0197910884" fill="#3D1818">
                    <tspan x="0" y="120.152769">Châu Phi</tspan>
                </text>
                <text id="Nam-Mĩ" font-family="LucidaGrande-Bold, Lucida Grande" font-size="7" font-weight="bold" letter-spacing="0.0179918985" fill="#3D1818">
                    <tspan x="2.55587204" y="109.26253">Nam Mĩ</tspan>
                </text>
                <text id="Úc" font-family="LucidaGrande-Bold, Lucida Grande" font-size="7" font-weight="bold" letter-spacing="0.0197910884" fill="#3D1818">
                    <tspan x="18.5143157" y="97.4134424">Úc</tspan>
                </text>
            </g>
        </g>
    </g>
</svg>