<svg style='scaling-svg' viewBox="0 0 412 237" version="1.1" xmlns="http://www.w3.org/2000/svg" xmlns:xlink="http://www.w3.org/1999/xlink">
    <g id="Page-1" stroke="none" stroke-width="1" fill="none" fill-rule="evenodd">
        <g id="Group-235" transform="translate(-753.000000, -2.000000)">
            <g id="circle" transform="translate(753.000000, 2.000000)">
                <polygon id="Fill-99" fill="#84BF41" points="0.0635 62.312825 18.4885 62.312825 18.4885 53.241825 0.0635 53.241825"></polygon>
                <polygon id="Fill-100" fill="#4EC0E3" points="0.0635 75.068825 18.4885 75.068825 18.4885 65.997825 0.0635 65.997825"></polygon>
                <polygon id="Fill-103" fill="#B3D594" points="0.0635 49.556825 18.4885 49.556825 18.4885 40.485825 0.0635 40.485825"></polygon>
                <polygon id="Fill-217" fill="#D6517C" points="0.0635 201.898825 18.4885 201.898825 18.4885 192.827825 0.0635 192.827825"></polygon>
                <polygon id="Fill-218" fill="#E9879A" points="0.0635 214.654825 18.4885 214.654825 18.4885 205.583825 0.0635 205.583825"></polygon>
                <polygon id="Fill-219" fill="#F0AFA9" points="0.0635 227.410825 18.4885 227.410825 18.4885 218.339825 0.0635 218.339825"></polygon>
                <polygon id="Fill-220" fill="#850954" points="0.0635 176.386825 18.4885 176.386825 18.4885 167.315825 0.0635 167.315825"></polygon>
                <polygon id="Fill-221" fill="#C5234C" points="0.0635 189.142825 18.4885 189.142825 18.4885 180.071825 0.0635 180.071825"></polygon>
                <line x1="0.0629" y1="160.621925" x2="127.6219" y2="160.621925" id="Stroke-222" stroke="#3D1818" stroke-width="0.7"></line>
                <g id="graph" transform="translate(165.000000, 1.000000)">
                    <path d="M116.000688,115.997823 L189,206.145458 C139.21334,246.462111 66.1704394,238.785378 25.854259,188.99791 C-14.4619214,139.210441 -6.78528342,66.166841 43.001377,25.8501878 C64.1117123,8.75619467 88.838232,0 116.000688,0 L116.000688,115.997823 Z" id="Fill-223" fill="#BD85AF"></path>
                    <path d="M116,116 L199,196.447786 C195.459605,200.126984 192.576259,202.780284 188.613952,206 L116,116 Z" id="Fill-224" fill="#E98551"></path>
                    <path d="M116,116.173037 L220.766754,67 C241.460143,111.669034 233.168419,161.543776 199.152805,197 L116,116.173037 Z" id="Fill-225" fill="#F2D01E"></path>
                    <path d="M116,116 L209.727754,48 C214.278848,54.2541973 217.728169,60.1011291 221,67.1081001 L116,116 Z" id="Fill-226" fill="#4EC0E3"></path>
                    <path d="M116,116 L151.904924,6 C176.560276,13.9747872 194.762112,27.139277 210,48.0165658 L116,116 Z" id="Fill-227" fill="#84BF41"></path>
                    <path d="M116,116 L116,0 C128.996773,0 139.63968,1.67863687 152,5.67690554 L116,116 Z" id="Fill-228" fill="#B3D594"></path>
                    <path d="M180,116.5 C180,152.122653 151.122653,181 115.5,181 C79.879022,181 51,152.122653 51,116.5 C51,80.877347 79.879022,52 115.5,52 C151.122653,52 180,80.877347 180,116.5" id="Fill-229" fill="#FFF9EA"></path>
                    <text id="60%" font-family="LucidaGrande, Lucida Grande" font-size="11.9542" font-weight="normal" fill="#FFF9EA">
                        <tspan x="22" y="148">60%</tspan>
                    </text>
                    <text id="10%" font-family="LucidaGrande, Lucida Grande" font-size="11.9542" font-weight="normal" fill="#FFF9EA">
                        <tspan x="157" y="43">10%</tspan>
                    </text>
                    <text id="19%" font-family="LucidaGrande, Lucida Grande" font-size="11.9542" font-weight="normal" fill="#FFF9EA">
                        <tspan x="191" y="129">19%</tspan>
                    </text>
                    <text id="3%" font-family="LucidaGrande, Lucida Grande" font-size="11.9542" font-weight="normal" fill="#4EC0E3">
                        <tspan x="220" y="51">3%</tspan>
                    </text>
                    <text id="2%" font-family="LucidaGrande, Lucida Grande" font-size="11.9542" font-weight="normal" fill="#E98551">
                        <tspan x="196" y="213">2%</tspan>
                    </text>
                    <text id="5%" font-family="LucidaGrande, Lucida Grande" font-size="11.9542" font-weight="normal" fill="#FFF9EA">
                        <tspan x="121" y="25">5%</tspan>
                    </text>
                    <path d="M116,116 L62,94.2728033 C71.0611367,71.939749 91.8117288,58 116,58 L116,116 Z" id="Fill-230" fill="#F0AFA9"></path>
                    <path d="M116.071566,116 L66.9372896,147 C56.8800441,131.006508 54.8895592,111.759309 62,94.2728033 L116.071566,116 Z" id="Fill-231" fill="#E9879A"></path>
                    <path d="M116.071566,116 L111,173.773965 C92.1181481,172.109046 77.0443907,163.049503 67,146.852243 L116.071566,116 Z" id="Fill-232" fill="#D6517C"></path>
                    <path d="M116.071566,116 L172,131.985196 C164.285907,158.802905 138.882688,176.205549 111,173.773965 L116.071566,116 Z" id="Fill-233" fill="#C5234C"></path>
                    <path d="M116,116.010496 L116,58 C148.033052,58 174,83.9729002 174,116.010496 C174,122.033343 173.413498,126.209831 171.75286,132 L116,116.010496 Z" id="Fill-234" fill="#850954"></path>
                    <text id="30%" font-family="LucidaGrande, Lucida Grande" font-size="11.9542" font-weight="normal" fill="#FFF9EA">
                        <tspan x="134" y="97">30%</tspan>
                    </text>
                    <text id="22%" font-family="LucidaGrande, Lucida Grande" font-size="11.9542" font-weight="normal" fill="#FFF9EA">
                        <tspan x="125" y="146">22%</tspan>
                    </text>
                    <text id="15%" font-family="LucidaGrande, Lucida Grande" font-size="11.9542" font-weight="normal" fill="#FFF9EA">
                        <tspan x="82" y="150">15%</tspan>
                    </text>
                    <text id="15%" font-family="LucidaGrande, Lucida Grande" font-size="11.9542" font-weight="normal" fill="#FFF9EA">
                        <tspan x="65" y="119">15%</tspan>
                    </text>
                    <text id="19%" font-family="LucidaGrande, Lucida Grande" font-size="11.9542" font-weight="normal" fill="#FFF9EA">
                        <tspan x="81" y="84">19%</tspan>
                    </text>
                </g>
                <polygon id="Fill-105" fill="#BD85AF" points="0.0635 113.335825 18.4885 113.335825 18.4885 104.264825 0.0635 104.264825"></polygon>
                <polygon id="Fill-102" fill="#F2D01E" points="0.0635 87.824825 18.4885 87.824825 18.4885 78.753825 0.0635 78.753825"></polygon>
                <polygon id="Fill-101" fill="#E98551" points="0.0635 100.579825 18.4885 100.579825 18.4885 91.508825 0.0635 91.508825"></polygon>
                <line x1="0.0629" y1="33.791425" x2="133.719872" y2="33.791425" id="Stroke-104" stroke="#3D1818" stroke-width="0.7"></line>
                <text id="Dấu-chân-sinh-thái-c" font-family="LucidaGrande-Bold, Lucida Grande" font-size="12" font-weight="bold" letter-spacing="0.0215661842" fill="#3D1818">
                    <tspan x="0" y="12">Dấu chân sinh thái của con người </tspan>
                    <tspan x="0" y="27">theo diện tích đất sử dụng</tspan>
                </text>
                <text id="Dấu-chân-sinh-thái-c" font-family="LucidaGrande-Bold, Lucida Grande" font-size="12" font-weight="bold" letter-spacing="0.0215661842" fill="#3D1818">
                    <tspan x="0" y="138">Dấu chân sinh thái của </tspan>
                    <tspan x="0" y="153">con người theo hoạt động</tspan>
                </text>
                <text id="Đất-chăn-thả-Lâm-sản" font-family="LucidaGrande, Lucida Grande" font-size="10" font-weight="normal" line-spacing="12.5" letter-spacing="0.0179718202" fill="#3D1818">
                    <tspan x="24" y="49.5">Đất chăn thả</tspan>
                    <tspan x="24" y="62">Lâm sản</tspan>
                    <tspan x="24" y="74.5">Ngư trường</tspan>
                    <tspan x="24" y="87">Đất trồng trọt</tspan>
                    <tspan x="24" y="99.5">Đất xây dựng</tspan>
                    <tspan x="24" y="112">Dấu vết carbon</tspan>
                </text>
                <text id="Thực-phẩm-Nhà-ở-Phươ" font-family="LucidaGrande, Lucida Grande" font-size="10" font-weight="normal" line-spacing="12.5" letter-spacing="0.0179718202" fill="#3D1818">
                    <tspan x="24" y="175.5">Thực phẩm</tspan>
                    <tspan x="24" y="188">Nhà ở</tspan>
                    <tspan x="24" y="200.5">Phương tiện cá nhân</tspan>
                    <tspan x="24" y="213">Hàng hoá</tspan>
                    <tspan x="24" y="225.5">Dịch vụ</tspan>
                </text>
            </g>
        </g>
    </g>
</svg>