
<svg style='scaling-svg' viewBox="0 0 687 300" version="1.1" xmlns="http://www.w3.org/2000/svg" xmlns:xlink="http://www.w3.org/1999/xlink">
    <g id="Page-1" stroke="none" stroke-width="1" fill="none" fill-rule="evenodd">
        <g id="A0" transform="translate(-1126.000000, -50.000000)">
            <g id="Emergency-Formula" transform="translate(1126.000000, 50.000000)">
                <path d="M345.974643,294 L344.974643,294 L344.974643,300 L345.974643,300 L345.974643,294 Z M12.9746433,294 L11.9746433,294 L11.9746433,300 L12.9746433,300 L12.9746433,294 Z M15.9746433,294 L14.9746433,294 L14.9746433,300 L15.9746433,300 L15.9746433,294 Z M18.9746433,294 L17.9746433,294 L17.9746433,300 L18.9746433,300 L18.9746433,294 Z M21.9746433,294 L20.9746433,294 L20.9746433,300 L21.9746433,300 L21.9746433,294 Z M24.9746433,294 L23.9746433,294 L23.9746433,300 L24.9746433,300 L24.9746433,294 Z M27.9746433,294 L26.9746433,294 L26.9746433,300 L27.9746433,300 L27.9746433,294 Z M30.9746433,294 L29.9746433,294 L29.9746433,300 L30.9746433,300 L30.9746433,294 Z M33.9746433,294 L32.9746433,294 L32.9746433,300 L33.9746433,300 L33.9746433,294 Z M36.9746433,294 L35.9746433,294 L35.9746433,300 L36.9746433,300 L36.9746433,294 Z M39.9746433,294 L38.9746433,294 L38.9746433,300 L39.9746433,300 L39.9746433,294 Z M42.9746433,294 L41.9746433,294 L41.9746433,300 L42.9746433,300 L42.9746433,294 Z M45.9746433,294 L44.9746433,294 L44.9746433,300 L45.9746433,300 L45.9746433,294 Z M48.9746433,294 L47.9746433,294 L47.9746433,300 L48.9746433,300 L48.9746433,294 Z M51.9746433,294 L50.9746433,294 L50.9746433,300 L51.9746433,300 L51.9746433,294 Z M54.9746433,294 L53.9746433,294 L53.9746433,300 L54.9746433,300 L54.9746433,294 Z M57.9746433,294 L56.9746433,294 L56.9746433,300 L57.9746433,300 L57.9746433,294 Z M60.9746433,294 L59.9746433,294 L59.9746433,300 L60.9746433,300 L60.9746433,294 Z M63.9746433,294 L62.9746433,294 L62.9746433,300 L63.9746433,300 L63.9746433,294 Z M66.9746433,294 L65.9746433,294 L65.9746433,300 L66.9746433,300 L66.9746433,294 Z M69.9746433,294 L68.9746433,294 L68.9746433,300 L69.9746433,300 L69.9746433,294 Z M72.9746433,294 L71.9746433,294 L71.9746433,300 L72.9746433,300 L72.9746433,294 Z M75.9746433,294 L74.9746433,294 L74.9746433,300 L75.9746433,300 L75.9746433,294 Z M78.9746433,294 L77.9746433,294 L77.9746433,300 L78.9746433,300 L78.9746433,294 Z M81.9746433,294 L80.9746433,294 L80.9746433,300 L81.9746433,300 L81.9746433,294 Z M84.9746433,294 L83.9746433,294 L83.9746433,300 L84.9746433,300 L84.9746433,294 Z M87.9746433,294 L86.9746433,294 L86.9746433,300 L87.9746433,300 L87.9746433,294 Z M90.9746433,294 L89.9746433,294 L89.9746433,300 L90.9746433,300 L90.9746433,294 Z M93.9746433,294 L92.9746433,294 L92.9746433,300 L93.9746433,300 L93.9746433,294 Z M96.9746433,294 L95.9746433,294 L95.9746433,300 L96.9746433,300 L96.9746433,294 Z M99.9746433,294 L98.9746433,294 L98.9746433,300 L99.9746433,300 L99.9746433,294 Z M102.974643,294 L101.974643,294 L101.974643,300 L102.974643,300 L102.974643,294 Z M105.974643,294 L104.974643,294 L104.974643,300 L105.974643,300 L105.974643,294 Z M108.974643,294 L107.974643,294 L107.974643,300 L108.974643,300 L108.974643,294 Z M111.974643,294 L110.974643,294 L110.974643,300 L111.974643,300 L111.974643,294 Z M114.974643,294 L113.974643,294 L113.974643,300 L114.974643,300 L114.974643,294 Z M117.974643,294 L116.974643,294 L116.974643,300 L117.974643,300 L117.974643,294 Z M120.974643,294 L119.974643,294 L119.974643,300 L120.974643,300 L120.974643,294 Z M123.974643,294 L122.974643,294 L122.974643,300 L123.974643,300 L123.974643,294 Z M126.974643,294 L125.974643,294 L125.974643,300 L126.974643,300 L126.974643,294 Z M129.974643,294 L128.974643,294 L128.974643,300 L129.974643,300 L129.974643,294 Z M132.974643,294 L131.974643,294 L131.974643,300 L132.974643,300 L132.974643,294 Z M135.974643,294 L134.974643,294 L134.974643,300 L135.974643,300 L135.974643,294 Z M138.974643,294 L137.974643,294 L137.974643,300 L138.974643,300 L138.974643,294 Z M141.974643,294 L140.974643,294 L140.974643,300 L141.974643,300 L141.974643,294 Z M144.974643,294 L143.974643,294 L143.974643,300 L144.974643,300 L144.974643,294 Z M147.974643,294 L146.974643,294 L146.974643,300 L147.974643,300 L147.974643,294 Z M150.974643,294 L149.974643,294 L149.974643,300 L150.974643,300 L150.974643,294 Z M153.974643,294 L152.974643,294 L152.974643,300 L153.974643,300 L153.974643,294 Z M156.974643,294 L155.974643,294 L155.974643,300 L156.974643,300 L156.974643,294 Z M159.974643,294 L158.974643,294 L158.974643,300 L159.974643,300 L159.974643,294 Z M162.974643,294 L161.974643,294 L161.974643,300 L162.974643,300 L162.974643,294 Z M165.974643,294 L164.974643,294 L164.974643,300 L165.974643,300 L165.974643,294 Z M168.974643,294 L167.974643,294 L167.974643,300 L168.974643,300 L168.974643,294 Z M171.974643,294 L170.974643,294 L170.974643,300 L171.974643,300 L171.974643,294 Z M174.974643,294 L173.974643,294 L173.974643,300 L174.974643,300 L174.974643,294 Z M177.974643,294 L176.974643,294 L176.974643,300 L177.974643,300 L177.974643,294 Z M180.974643,294 L179.974643,294 L179.974643,300 L180.974643,300 L180.974643,294 Z M183.974643,294 L182.974643,294 L182.974643,300 L183.974643,300 L183.974643,294 Z M186.974643,294 L185.974643,294 L185.974643,300 L186.974643,300 L186.974643,294 Z M189.974643,294 L188.974643,294 L188.974643,300 L189.974643,300 L189.974643,294 Z M192.974643,294 L191.974643,294 L191.974643,300 L192.974643,300 L192.974643,294 Z M195.974643,294 L194.974643,294 L194.974643,300 L195.974643,300 L195.974643,294 Z M198.974643,294 L197.974643,294 L197.974643,300 L198.974643,300 L198.974643,294 Z M201.974643,294 L200.974643,294 L200.974643,300 L201.974643,300 L201.974643,294 Z M204.974643,294 L203.974643,294 L203.974643,300 L204.974643,300 L204.974643,294 Z M207.974643,294 L206.974643,294 L206.974643,300 L207.974643,300 L207.974643,294 Z M210.974643,294 L209.974643,294 L209.974643,300 L210.974643,300 L210.974643,294 Z M213.974643,294 L212.974643,294 L212.974643,300 L213.974643,300 L213.974643,294 Z M216.974643,294 L215.974643,294 L215.974643,300 L216.974643,300 L216.974643,294 Z M219.974643,294 L218.974643,294 L218.974643,300 L219.974643,300 L219.974643,294 Z M222.974643,294 L221.974643,294 L221.974643,300 L222.974643,300 L222.974643,294 Z M225.974643,294 L224.974643,294 L224.974643,300 L225.974643,300 L225.974643,294 Z M228.974643,294 L227.974643,294 L227.974643,300 L228.974643,300 L228.974643,294 Z M231.974643,294 L230.974643,294 L230.974643,300 L231.974643,300 L231.974643,294 Z M234.974643,294 L233.974643,294 L233.974643,300 L234.974643,300 L234.974643,294 Z M237.974643,294 L236.974643,294 L236.974643,300 L237.974643,300 L237.974643,294 Z M240.974643,294 L239.974643,294 L239.974643,300 L240.974643,300 L240.974643,294 Z M243.974643,294 L242.974643,294 L242.974643,300 L243.974643,300 L243.974643,294 Z M246.974643,294 L245.974643,294 L245.974643,300 L246.974643,300 L246.974643,294 Z M249.974643,294 L248.974643,294 L248.974643,300 L249.974643,300 L249.974643,294 Z M252.974643,294 L251.974643,294 L251.974643,300 L252.974643,300 L252.974643,294 Z M255.974643,294 L254.974643,294 L254.974643,300 L255.974643,300 L255.974643,294 Z M258.974643,294 L257.974643,294 L257.974643,300 L258.974643,300 L258.974643,294 Z M261.974643,294 L260.974643,294 L260.974643,300 L261.974643,300 L261.974643,294 Z M264.974643,294 L263.974643,294 L263.974643,300 L264.974643,300 L264.974643,294 Z M267.974643,294 L266.974643,294 L266.974643,300 L267.974643,300 L267.974643,294 Z M270.974643,294 L269.974643,294 L269.974643,300 L270.974643,300 L270.974643,294 Z M273.974643,294 L272.974643,294 L272.974643,300 L273.974643,300 L273.974643,294 Z M276.974643,294 L275.974643,294 L275.974643,300 L276.974643,300 L276.974643,294 Z M279.974643,294 L278.974643,294 L278.974643,300 L279.974643,300 L279.974643,294 Z M282.974643,294 L281.974643,294 L281.974643,300 L282.974643,300 L282.974643,294 Z M285.974643,294 L284.974643,294 L284.974643,300 L285.974643,300 L285.974643,294 Z M288.974643,294 L287.974643,294 L287.974643,300 L288.974643,300 L288.974643,294 Z M291.974643,294 L290.974643,294 L290.974643,300 L291.974643,300 L291.974643,294 Z M294.974643,294 L293.974643,294 L293.974643,300 L294.974643,300 L294.974643,294 Z M297.974643,294 L296.974643,294 L296.974643,300 L297.974643,300 L297.974643,294 Z M300.974643,294 L299.974643,294 L299.974643,300 L300.974643,300 L300.974643,294 Z M303.974643,294 L302.974643,294 L302.974643,300 L303.974643,300 L303.974643,294 Z M306.974643,294 L305.974643,294 L305.974643,300 L306.974643,300 L306.974643,294 Z M309.974643,294 L308.974643,294 L308.974643,300 L309.974643,300 L309.974643,294 Z M675.974643,294 L674.974643,294 L674.974643,300 L675.974643,300 L675.974643,294 Z M672.974643,294 L671.974643,294 L671.974643,300 L672.974643,300 L672.974643,294 Z M669.974643,294 L668.974643,294 L668.974643,300 L669.974643,300 L669.974643,294 Z M666.974643,294 L665.974643,294 L665.974643,300 L666.974643,300 L666.974643,294 Z M663.974643,294 L662.974643,294 L662.974643,300 L663.974643,300 L663.974643,294 Z M660.974643,294 L659.974643,294 L659.974643,300 L660.974643,300 L660.974643,294 Z M657.974643,294 L656.974643,294 L656.974643,300 L657.974643,300 L657.974643,294 Z M654.974643,294 L653.974643,294 L653.974643,300 L654.974643,300 L654.974643,294 Z M651.974643,294 L650.974643,294 L650.974643,300 L651.974643,300 L651.974643,294 Z M648.974643,294 L647.974643,294 L647.974643,300 L648.974643,300 L648.974643,294 Z M645.974643,294 L644.974643,294 L644.974643,300 L645.974643,300 L645.974643,294 Z M642.974643,294 L641.974643,294 L641.974643,300 L642.974643,300 L642.974643,294 Z M639.974643,294 L638.974643,294 L638.974643,300 L639.974643,300 L639.974643,294 Z M636.974643,294 L635.974643,294 L635.974643,300 L636.974643,300 L636.974643,294 Z M633.974643,294 L632.974643,294 L632.974643,300 L633.974643,300 L633.974643,294 Z M630.974643,294 L629.974643,294 L629.974643,300 L630.974643,300 L630.974643,294 Z M627.974643,294 L626.974643,294 L626.974643,300 L627.974643,300 L627.974643,294 Z M624.974643,294 L623.974643,294 L623.974643,300 L624.974643,300 L624.974643,294 Z M621.974643,294 L620.974643,294 L620.974643,300 L621.974643,300 L621.974643,294 Z M618.974643,294 L617.974643,294 L617.974643,300 L618.974643,300 L618.974643,294 Z M615.974643,294 L614.974643,294 L614.974643,300 L615.974643,300 L615.974643,294 Z M612.974643,294 L611.974643,294 L611.974643,300 L612.974643,300 L612.974643,294 Z M609.974643,294 L608.974643,294 L608.974643,300 L609.974643,300 L609.974643,294 Z M606.974643,294 L605.974643,294 L605.974643,300 L606.974643,300 L606.974643,294 Z M603.974643,294 L602.974643,294 L602.974643,300 L603.974643,300 L603.974643,294 Z M600.974643,294 L599.974643,294 L599.974643,300 L600.974643,300 L600.974643,294 Z M597.974643,294 L596.974643,294 L596.974643,300 L597.974643,300 L597.974643,294 Z M594.974643,294 L593.974643,294 L593.974643,300 L594.974643,300 L594.974643,294 Z M591.974643,294 L590.974643,294 L590.974643,300 L591.974643,300 L591.974643,294 Z M588.974643,294 L587.974643,294 L587.974643,300 L588.974643,300 L588.974643,294 Z M585.974643,294 L584.974643,294 L584.974643,300 L585.974643,300 L585.974643,294 Z M582.974643,294 L581.974643,294 L581.974643,300 L582.974643,300 L582.974643,294 Z M579.974643,294 L578.974643,294 L578.974643,300 L579.974643,300 L579.974643,294 Z M576.974643,294 L575.974643,294 L575.974643,300 L576.974643,300 L576.974643,294 Z M573.974643,294 L572.974643,294 L572.974643,300 L573.974643,300 L573.974643,294 Z M570.974643,294 L569.974643,294 L569.974643,300 L570.974643,300 L570.974643,294 Z M567.974643,294 L566.974643,294 L566.974643,300 L567.974643,300 L567.974643,294 Z M564.974643,294 L563.974643,294 L563.974643,300 L564.974643,300 L564.974643,294 Z M561.974643,294 L560.974643,294 L560.974643,300 L561.974643,300 L561.974643,294 Z M558.974643,294 L557.974643,294 L557.974643,300 L558.974643,300 L558.974643,294 Z M555.974643,294 L554.974643,294 L554.974643,300 L555.974643,300 L555.974643,294 Z M552.974643,294 L551.974643,294 L551.974643,300 L552.974643,300 L552.974643,294 Z M549.974643,294 L548.974643,294 L548.974643,300 L549.974643,300 L549.974643,294 Z M546.974643,294 L545.974643,294 L545.974643,300 L546.974643,300 L546.974643,294 Z M543.974643,294 L542.974643,294 L542.974643,300 L543.974643,300 L543.974643,294 Z M540.974643,294 L539.974643,294 L539.974643,300 L540.974643,300 L540.974643,294 Z M537.974643,294 L536.974643,294 L536.974643,300 L537.974643,300 L537.974643,294 Z M534.974643,294 L533.974643,294 L533.974643,300 L534.974643,300 L534.974643,294 Z M531.974643,294 L530.974643,294 L530.974643,300 L531.974643,300 L531.974643,294 Z M528.974643,294 L527.974643,294 L527.974643,300 L528.974643,300 L528.974643,294 Z M525.974643,294 L524.974643,294 L524.974643,300 L525.974643,300 L525.974643,294 Z M522.974643,294 L521.974643,294 L521.974643,300 L522.974643,300 L522.974643,294 Z M519.974643,294 L518.974643,294 L518.974643,300 L519.974643,300 L519.974643,294 Z M516.974643,294 L515.974643,294 L515.974643,300 L516.974643,300 L516.974643,294 Z M513.974643,294 L512.974643,294 L512.974643,300 L513.974643,300 L513.974643,294 Z M510.974643,294 L509.974643,294 L509.974643,300 L510.974643,300 L510.974643,294 Z M507.974643,294 L506.974643,294 L506.974643,300 L507.974643,300 L507.974643,294 Z M504.974643,294 L503.974643,294 L503.974643,300 L504.974643,300 L504.974643,294 Z M501.974643,294 L500.974643,294 L500.974643,300 L501.974643,300 L501.974643,294 Z M498.974643,294 L497.974643,294 L497.974643,300 L498.974643,300 L498.974643,294 Z M495.974643,294 L494.974643,294 L494.974643,300 L495.974643,300 L495.974643,294 Z M492.974643,294 L491.974643,294 L491.974643,300 L492.974643,300 L492.974643,294 Z M489.974643,294 L488.974643,294 L488.974643,300 L489.974643,300 L489.974643,294 Z M486.974643,294 L485.974643,294 L485.974643,300 L486.974643,300 L486.974643,294 Z M483.974643,294 L482.974643,294 L482.974643,300 L483.974643,300 L483.974643,294 Z M480.974643,294 L479.974643,294 L479.974643,300 L480.974643,300 L480.974643,294 Z M477.974643,294 L476.974643,294 L476.974643,300 L477.974643,300 L477.974643,294 Z M474.974643,294 L473.974643,294 L473.974643,300 L474.974643,300 L474.974643,294 Z M471.974643,294 L470.974643,294 L470.974643,300 L471.974643,300 L471.974643,294 Z M468.974643,294 L467.974643,294 L467.974643,300 L468.974643,300 L468.974643,294 Z M465.974643,294 L464.974643,294 L464.974643,300 L465.974643,300 L465.974643,294 Z M462.974643,294 L461.974643,294 L461.974643,300 L462.974643,300 L462.974643,294 Z M459.974643,294 L458.974643,294 L458.974643,300 L459.974643,300 L459.974643,294 Z M456.974643,294 L455.974643,294 L455.974643,300 L456.974643,300 L456.974643,294 Z M453.974643,294 L452.974643,294 L452.974643,300 L453.974643,300 L453.974643,294 Z M450.974643,294 L449.974643,294 L449.974643,300 L450.974643,300 L450.974643,294 Z M447.974643,294 L446.974643,294 L446.974643,300 L447.974643,300 L447.974643,294 Z M444.974643,294 L443.974643,294 L443.974643,300 L444.974643,300 L444.974643,294 Z M441.974643,294 L440.974643,294 L440.974643,300 L441.974643,300 L441.974643,294 Z M438.974643,294 L437.974643,294 L437.974643,300 L438.974643,300 L438.974643,294 Z M435.974643,294 L434.974643,294 L434.974643,300 L435.974643,300 L435.974643,294 Z M432.974643,294 L431.974643,294 L431.974643,300 L432.974643,300 L432.974643,294 Z M429.974643,294 L428.974643,294 L428.974643,300 L429.974643,300 L429.974643,294 Z M426.974643,294 L425.974643,294 L425.974643,300 L426.974643,300 L426.974643,294 Z M423.974643,294 L422.974643,294 L422.974643,300 L423.974643,300 L423.974643,294 Z M420.974643,294 L419.974643,294 L419.974643,300 L420.974643,300 L420.974643,294 Z M417.974643,294 L416.974643,294 L416.974643,300 L417.974643,300 L417.974643,294 Z M414.974643,294 L413.974643,294 L413.974643,300 L414.974643,300 L414.974643,294 Z M411.974643,294 L410.974643,294 L410.974643,300 L411.974643,300 L411.974643,294 Z M408.974643,294 L407.974643,294 L407.974643,300 L408.974643,300 L408.974643,294 Z M405.974643,294 L404.974643,294 L404.974643,300 L405.974643,300 L405.974643,294 Z M402.974643,294 L401.974643,294 L401.974643,300 L402.974643,300 L402.974643,294 Z M399.974643,294 L398.974643,294 L398.974643,300 L399.974643,300 L399.974643,294 Z M396.974643,294 L395.974643,294 L395.974643,300 L396.974643,300 L396.974643,294 Z M393.974643,294 L392.974643,294 L392.974643,300 L393.974643,300 L393.974643,294 Z M390.974643,294 L389.974643,294 L389.974643,300 L390.974643,300 L390.974643,294 Z M387.974643,294 L386.974643,294 L386.974643,300 L387.974643,300 L387.974643,294 Z M384.974643,294 L383.974643,294 L383.974643,300 L384.974643,300 L384.974643,294 Z M381.974643,294 L380.974643,294 L380.974643,300 L381.974643,300 L381.974643,294 Z M378.974643,294 L377.974643,294 L377.974643,300 L378.974643,300 L378.974643,294 Z M375.974643,294 L374.974643,294 L374.974643,300 L375.974643,300 L375.974643,294 Z M372.974643,294 L371.974643,294 L371.974643,300 L372.974643,300 L372.974643,294 Z M369.974643,294 L368.974643,294 L368.974643,300 L369.974643,300 L369.974643,294 Z M366.974643,294 L365.974643,294 L365.974643,300 L366.974643,300 L366.974643,294 Z M363.974643,294 L362.974643,294 L362.974643,300 L363.974643,300 L363.974643,294 Z M360.974643,294 L359.974643,294 L359.974643,300 L360.974643,300 L360.974643,294 Z M357.974643,294 L356.974643,294 L356.974643,300 L357.974643,300 L357.974643,294 Z M354.974643,294 L353.974643,294 L353.974643,300 L354.974643,300 L354.974643,294 Z M351.974643,294 L350.974643,294 L350.974643,300 L351.974643,300 L351.974643,294 Z M348.974643,294 L347.974643,294 L347.974643,300 L348.974643,300 L348.974643,294 Z M312.974643,294 L311.974643,294 L311.974643,300 L312.974643,300 L312.974643,294 Z M342.974643,294 L341.974643,294 L341.974643,300 L342.974643,300 L342.974643,294 Z M339.974643,294 L338.974643,294 L338.974643,300 L339.974643,300 L339.974643,294 Z M336.974643,294 L335.974643,294 L335.974643,300 L336.974643,300 L336.974643,294 Z M333.974643,294 L332.974643,294 L332.974643,300 L333.974643,300 L333.974643,294 Z M330.974643,294 L329.974643,294 L329.974643,300 L330.974643,300 L330.974643,294 Z M327.974643,294 L326.974643,294 L326.974643,300 L327.974643,300 L327.974643,294 Z M324.974643,294 L323.974643,294 L323.974643,300 L324.974643,300 L324.974643,294 Z M321.974643,294 L320.974643,294 L320.974643,300 L321.974643,300 L321.974643,294 Z M318.974643,294 L317.974643,294 L317.974643,300 L318.974643,300 L318.974643,294 Z M315.974643,294 L314.974643,294 L314.974643,300 L315.974643,300 L315.974643,294 Z M9.968,297 L8.929,297 L8.24508577,299.651436 C8.68859884,299.765907 9.13991017,299.852685 9.59687628,299.911025 L9.968,297 Z M679.043,297 L677.945,297 L678.59686,299.690977 C679.044514,299.58252 679.48391,299.446145 679.91282,299.282869 L679.043,297 Z M6.538,297 L5.119,297 L4.48453075,297.863425 C4.85381643,298.135217 5.23984993,298.38383 5.64042084,298.607635 L6.538,297 Z M683.469,297 L681.786,297 L682.447057,297.913372 C682.818158,297.644614 683.172157,297.352976 683.506944,297.040301 L683.469,297 Z M8.99563386,296.74684 C9.31511553,296.829262 9.64233017,296.892443 9.97596825,296.935073 L10.3567081,293.959331 C10.1493732,293.932861 9.94508257,293.89358 9.74455142,293.841823 L8.99563386,296.74684 Z M678.845614,296.479109 L677.778205,293.675426 C677.584537,293.749151 677.386204,293.810707 677.184058,293.859683 L677.89039,296.775347 C678.217091,296.696197 678.535959,296.596992 678.845614,296.479109 Z M6.26342674,295.447741 C6.53112747,295.644727 6.81154109,295.825442 7.10320902,295.988427 L8.56691706,293.369732 C8.38489421,293.268033 8.20926123,293.154923 8.04106899,293.031134 L6.26342674,295.447741 Z M3,294.022 L1.6833269,294.850022 L1.93535302,295.232859 C2.10861589,295.484492 2.29228441,295.728831 2.48584683,295.965234 L3,295.544 L3,294.022 Z M681.459124,294.847943 L679.41158,292.655327 C679.25866,292.798147 679.097037,292.931299 678.927743,293.053904 L680.687144,295.483824 C680.957711,295.287891 681.215531,295.075437 681.459124,294.847943 Z M684,292.793 L684,294.103 L685.273589,294.917979 C685.520675,294.531376 685.743488,294.129483 685.940538,293.714544 L684,292.793 Z M4.22295903,293.253066 C4.40104484,293.53624 4.59638746,293.807465 4.80751159,294.065267 L7.12822275,292.164136 C6.99577901,292.002379 6.87359163,291.832617 6.76246088,291.655903 L4.22295903,293.253066 Z M683.230602,292.42759 L680.520634,291.140704 C680.431322,291.328776 680.330208,291.511156 680.217943,291.686813 L682.745554,293.302728 C682.924711,293.02244 683.086878,292.730243 683.230602,292.42759 Z M3,290.383 L0.159046971,290.871452 L0.246446429,291.323303 C0.310960857,291.622948 0.387929422,291.919306 0.477099465,292.21173 L3,291.442 L3,290.383 Z M3.11579505,290.363868 C3.17275001,290.695457 3.25011438,291.020069 3.34654864,291.336366 L6.21620518,290.461683 C6.15579951,290.263588 6.10776929,290.0614 6.07247525,289.85589 L3.11579505,290.363868 Z M684,289.513 L684,290.531 L686.80577,291.065811 C686.891246,290.616735 686.948807,290.161408 686.977864,289.701902 L684,289.513 Z M683.983846,289.512542 L680.989823,289.323257 C680.976558,289.533039 680.950377,289.740139 680.911589,289.943925 L683.85873,290.504599 C683.920422,290.180421 683.962552,289.84931 683.983846,289.512542 Z M6,287.461965 L0,287.461965 L0,288.461965 L6,288.461965 L6,287.461965 Z M687,286.512678 L681,286.512678 L681,287.512678 L687,287.512678 L687,286.512678 Z M6,284.461965 L0,284.461965 L0,285.461965 L6,285.461965 L6,284.461965 Z M687,283.512678 L681,283.512678 L681,284.512678 L687,284.512678 L687,283.512678 Z M6,281.461965 L0,281.461965 L0,282.461965 L6,282.461965 L6,281.461965 Z M687,280.512678 L681,280.512678 L681,281.512678 L687,281.512678 L687,280.512678 Z M6,278.461965 L0,278.461965 L0,279.461965 L6,279.461965 L6,278.461965 Z M687,277.512678 L681,277.512678 L681,278.512678 L687,278.512678 L687,277.512678 Z M6,275.461965 L0,275.461965 L0,276.461965 L6,276.461965 L6,275.461965 Z M687,274.512678 L681,274.512678 L681,275.512678 L687,275.512678 L687,274.512678 Z M6,272.461965 L0,272.461965 L0,273.461965 L6,273.461965 L6,272.461965 Z M687,271.512678 L681,271.512678 L681,272.512678 L687,272.512678 L687,271.512678 Z M6,269.461965 L0,269.461965 L0,270.461965 L6,270.461965 L6,269.461965 Z M687,268.512678 L681,268.512678 L681,269.512678 L687,269.512678 L687,268.512678 Z M6,266.461965 L0,266.461965 L0,267.461965 L6,267.461965 L6,266.461965 Z M687,265.512678 L681,265.512678 L681,266.512678 L687,266.512678 L687,265.512678 Z M6,263.461965 L0,263.461965 L0,264.461965 L6,264.461965 L6,263.461965 Z M687,262.512678 L681,262.512678 L681,263.512678 L687,263.512678 L687,262.512678 Z M6,260.461965 L0,260.461965 L0,261.461965 L6,261.461965 L6,260.461965 Z M687,259.512678 L681,259.512678 L681,260.512678 L687,260.512678 L687,259.512678 Z M6,257.461965 L0,257.461965 L0,258.461965 L6,258.461965 L6,257.461965 Z M687,256.512678 L681,256.512678 L681,257.512678 L687,257.512678 L687,256.512678 Z M6,254.461965 L0,254.461965 L0,255.461965 L6,255.461965 L6,254.461965 Z M687,253.512678 L681,253.512678 L681,254.512678 L687,254.512678 L687,253.512678 Z M6,251.461965 L0,251.461965 L0,252.461965 L6,252.461965 L6,251.461965 Z M687,250.512678 L681,250.512678 L681,251.512678 L687,251.512678 L687,250.512678 Z M6,248.461965 L0,248.461965 L0,249.461965 L6,249.461965 L6,248.461965 Z M687,247.512678 L681,247.512678 L681,248.512678 L687,248.512678 L687,247.512678 Z M6,245.461965 L0,245.461965 L0,246.461965 L6,246.461965 L6,245.461965 Z M687,244.512678 L681,244.512678 L681,245.512678 L687,245.512678 L687,244.512678 Z M6,242.461965 L0,242.461965 L0,243.461965 L6,243.461965 L6,242.461965 Z M687,241.512678 L681,241.512678 L681,242.512678 L687,242.512678 L687,241.512678 Z M6,239.461965 L0,239.461965 L0,240.461965 L6,240.461965 L6,239.461965 Z M687,238.512678 L681,238.512678 L681,239.512678 L687,239.512678 L687,238.512678 Z M6,236.461965 L0,236.461965 L0,237.461965 L6,237.461965 L6,236.461965 Z M687,235.512678 L681,235.512678 L681,236.512678 L687,236.512678 L687,235.512678 Z M6,233.461965 L0,233.461965 L0,234.461965 L6,234.461965 L6,233.461965 Z M687,232.512678 L681,232.512678 L681,233.512678 L687,233.512678 L687,232.512678 Z M6,230.461965 L0,230.461965 L0,231.461965 L6,231.461965 L6,230.461965 Z M687,229.512678 L681,229.512678 L681,230.512678 L687,230.512678 L687,229.512678 Z M6,227.461965 L0,227.461965 L0,228.461965 L6,228.461965 L6,227.461965 Z M687,226.512678 L681,226.512678 L681,227.512678 L687,227.512678 L687,226.512678 Z M6,224.461965 L0,224.461965 L0,225.461965 L6,225.461965 L6,224.461965 Z M687,223.512678 L681,223.512678 L681,224.512678 L687,224.512678 L687,223.512678 Z M6,221.461965 L0,221.461965 L0,222.461965 L6,222.461965 L6,221.461965 Z M687,220.512678 L681,220.512678 L681,221.512678 L687,221.512678 L687,220.512678 Z M6,218.461965 L0,218.461965 L0,219.461965 L6,219.461965 L6,218.461965 Z M687,217.512678 L681,217.512678 L681,218.512678 L687,218.512678 L687,217.512678 Z M6,215.461965 L0,215.461965 L0,216.461965 L6,216.461965 L6,215.461965 Z M687,214.512678 L681,214.512678 L681,215.512678 L687,215.512678 L687,214.512678 Z M6,212.461965 L0,212.461965 L0,213.461965 L6,213.461965 L6,212.461965 Z M687,211.512678 L681,211.512678 L681,212.512678 L687,212.512678 L687,211.512678 Z M6,209.461965 L0,209.461965 L0,210.461965 L6,210.461965 L6,209.461965 Z M687,208.512678 L681,208.512678 L681,209.512678 L687,209.512678 L687,208.512678 Z M6,206.461965 L0,206.461965 L0,207.461965 L6,207.461965 L6,206.461965 Z M687,205.512678 L681,205.512678 L681,206.512678 L687,206.512678 L687,205.512678 Z M6,203.461965 L0,203.461965 L0,204.461965 L6,204.461965 L6,203.461965 Z M687,202.512678 L681,202.512678 L681,203.512678 L687,203.512678 L687,202.512678 Z M6,200.461965 L0,200.461965 L0,201.461965 L6,201.461965 L6,200.461965 Z M687,199.512678 L681,199.512678 L681,200.512678 L687,200.512678 L687,199.512678 Z M6,197.461965 L0,197.461965 L0,198.461965 L6,198.461965 L6,197.461965 Z M687,196.512678 L681,196.512678 L681,197.512678 L687,197.512678 L687,196.512678 Z M6,194.461965 L0,194.461965 L0,195.461965 L6,195.461965 L6,194.461965 Z M687,193.512678 L681,193.512678 L681,194.512678 L687,194.512678 L687,193.512678 Z M6,191.461965 L0,191.461965 L0,192.461965 L6,192.461965 L6,191.461965 Z M687,190.512678 L681,190.512678 L681,191.512678 L687,191.512678 L687,190.512678 Z M6,188.461965 L0,188.461965 L0,189.461965 L6,189.461965 L6,188.461965 Z M687,187.512678 L681,187.512678 L681,188.512678 L687,188.512678 L687,187.512678 Z M6,185.461965 L0,185.461965 L0,186.461965 L6,186.461965 L6,185.461965 Z M687,184.512678 L681,184.512678 L681,185.512678 L687,185.512678 L687,184.512678 Z M6,182.461965 L0,182.461965 L0,183.461965 L6,183.461965 L6,182.461965 Z M687,181.512678 L681,181.512678 L681,182.512678 L687,182.512678 L687,181.512678 Z M6,179.461965 L0,179.461965 L0,180.461965 L6,180.461965 L6,179.461965 Z M687,178.512678 L681,178.512678 L681,179.512678 L687,179.512678 L687,178.512678 Z M6,176.461965 L0,176.461965 L0,177.461965 L6,177.461965 L6,176.461965 Z M687,175.512678 L681,175.512678 L681,176.512678 L687,176.512678 L687,175.512678 Z M6,173.461965 L0,173.461965 L0,174.461965 L6,174.461965 L6,173.461965 Z M687,172.512678 L681,172.512678 L681,173.512678 L687,173.512678 L687,172.512678 Z M6,170.461965 L0,170.461965 L0,171.461965 L6,171.461965 L6,170.461965 Z M687,169.512678 L681,169.512678 L681,170.512678 L687,170.512678 L687,169.512678 Z M6,167.461965 L0,167.461965 L0,168.461965 L6,168.461965 L6,167.461965 Z M687,166.512678 L681,166.512678 L681,167.512678 L687,167.512678 L687,166.512678 Z M6,164.461965 L0,164.461965 L0,165.461965 L6,165.461965 L6,164.461965 Z M687,163.512678 L681,163.512678 L681,164.512678 L687,164.512678 L687,163.512678 Z M6,161.461965 L0,161.461965 L0,162.461965 L6,162.461965 L6,161.461965 Z M687,160.512678 L681,160.512678 L681,161.512678 L687,161.512678 L687,160.512678 Z M6,158.461965 L0,158.461965 L0,159.461965 L6,159.461965 L6,158.461965 Z M687,157.512678 L681,157.512678 L681,158.512678 L687,158.512678 L687,157.512678 Z M6,155.461965 L0,155.461965 L0,156.461965 L6,156.461965 L6,155.461965 Z M687,154.512678 L681,154.512678 L681,155.512678 L687,155.512678 L687,154.512678 Z M6,152.461965 L0,152.461965 L0,153.461965 L6,153.461965 L6,152.461965 Z M687,151.512678 L681,151.512678 L681,152.512678 L687,152.512678 L687,151.512678 Z M6,149.461965 L0,149.461965 L0,150.461965 L6,150.461965 L6,149.461965 Z M687,148.512678 L681,148.512678 L681,149.512678 L687,149.512678 L687,148.512678 Z M6,146.461965 L0,146.461965 L0,147.461965 L6,147.461965 L6,146.461965 Z M687,145.512678 L681,145.512678 L681,146.512678 L687,146.512678 L687,145.512678 Z M6,143.461965 L0,143.461965 L0,144.461965 L6,144.461965 L6,143.461965 Z M687,142.512678 L681,142.512678 L681,143.512678 L687,143.512678 L687,142.512678 Z M6,140.461965 L0,140.461965 L0,141.461965 L6,141.461965 L6,140.461965 Z M687,139.512678 L681,139.512678 L681,140.512678 L687,140.512678 L687,139.512678 Z M6,137.461965 L0,137.461965 L0,138.461965 L6,138.461965 L6,137.461965 Z M687,136.512678 L681,136.512678 L681,137.512678 L687,137.512678 L687,136.512678 Z M6,134.461965 L0,134.461965 L0,135.461965 L6,135.461965 L6,134.461965 Z M687,133.512678 L681,133.512678 L681,134.512678 L687,134.512678 L687,133.512678 Z M6,131.461965 L0,131.461965 L0,132.461965 L6,132.461965 L6,131.461965 Z M687,130.512678 L681,130.512678 L681,131.512678 L687,131.512678 L687,130.512678 Z M6,128.461965 L0,128.461965 L0,129.461965 L6,129.461965 L6,128.461965 Z M687,127.512678 L681,127.512678 L681,128.512678 L687,128.512678 L687,127.512678 Z M6,125.461965 L0,125.461965 L0,126.461965 L6,126.461965 L6,125.461965 Z M687,124.512678 L681,124.512678 L681,125.512678 L687,125.512678 L687,124.512678 Z M6,122.461965 L0,122.461965 L0,123.461965 L6,123.461965 L6,122.461965 Z M687,121.512678 L681,121.512678 L681,122.512678 L687,122.512678 L687,121.512678 Z M6,119.461965 L0,119.461965 L0,120.461965 L6,120.461965 L6,119.461965 Z M687,118.512678 L681,118.512678 L681,119.512678 L687,119.512678 L687,118.512678 Z M6,116.461965 L0,116.461965 L0,117.461965 L6,117.461965 L6,116.461965 Z M687,115.512678 L681,115.512678 L681,116.512678 L687,116.512678 L687,115.512678 Z M6,113.461965 L0,113.461965 L0,114.461965 L6,114.461965 L6,113.461965 Z M687,112.512678 L681,112.512678 L681,113.512678 L687,113.512678 L687,112.512678 Z M6,110.461965 L0,110.461965 L0,111.461965 L6,111.461965 L6,110.461965 Z M687,109.512678 L681,109.512678 L681,110.512678 L687,110.512678 L687,109.512678 Z M6,107.461965 L0,107.461965 L0,108.461965 L6,108.461965 L6,107.461965 Z M687,106.512678 L681,106.512678 L681,107.512678 L687,107.512678 L687,106.512678 Z M6,104.461965 L0,104.461965 L0,105.461965 L6,105.461965 L6,104.461965 Z M687,103.512678 L681,103.512678 L681,104.512678 L687,104.512678 L687,103.512678 Z M6,101.461965 L0,101.461965 L0,102.461965 L6,102.461965 L6,101.461965 Z M687,100.512678 L681,100.512678 L681,101.512678 L687,101.512678 L687,100.512678 Z M6,98.461965 L0,98.461965 L0,99.461965 L6,99.461965 L6,98.461965 Z M687,97.5126783 L681,97.5126783 L681,98.5126783 L687,98.5126783 L687,97.5126783 Z M6,95.461965 L0,95.461965 L0,96.461965 L6,96.461965 L6,95.461965 Z M687,94.5126783 L681,94.5126783 L681,95.5126783 L687,95.5126783 L687,94.5126783 Z M6,92.461965 L0,92.461965 L0,93.461965 L6,93.461965 L6,92.461965 Z M687,91.5126783 L681,91.5126783 L681,92.5126783 L687,92.5126783 L687,91.5126783 Z M6,89.461965 L0,89.461965 L0,90.461965 L6,90.461965 L6,89.461965 Z M687,88.5126783 L681,88.5126783 L681,89.5126783 L687,89.5126783 L687,88.5126783 Z M6,86.461965 L0,86.461965 L0,87.461965 L6,87.461965 L6,86.461965 Z M687,85.5126783 L681,85.5126783 L681,86.5126783 L687,86.5126783 L687,85.5126783 Z M6,83.461965 L0,83.461965 L0,84.461965 L6,84.461965 L6,83.461965 Z M687,82.5126783 L681,82.5126783 L681,83.5126783 L687,83.5126783 L687,82.5126783 Z M6,80.461965 L0,80.461965 L0,81.461965 L6,81.461965 L6,80.461965 Z M687,79.5126783 L681,79.5126783 L681,80.5126783 L687,80.5126783 L687,79.5126783 Z M6,77.461965 L0,77.461965 L0,78.461965 L6,78.461965 L6,77.461965 Z M687,76.5126783 L681,76.5126783 L681,77.5126783 L687,77.5126783 L687,76.5126783 Z M6,74.461965 L0,74.461965 L0,75.461965 L6,75.461965 L6,74.461965 Z M687,73.5126783 L681,73.5126783 L681,74.5126783 L687,74.5126783 L687,73.5126783 Z M6,71.461965 L0,71.461965 L0,72.461965 L6,72.461965 L6,71.461965 Z M687,70.5126783 L681,70.5126783 L681,71.5126783 L687,71.5126783 L687,70.5126783 Z M6,68.461965 L0,68.461965 L0,69.461965 L6,69.461965 L6,68.461965 Z M687,67.5126783 L681,67.5126783 L681,68.5126783 L687,68.5126783 L687,67.5126783 Z M6,65.461965 L0,65.461965 L0,66.461965 L6,66.461965 L6,65.461965 Z M687,64.5126783 L681,64.5126783 L681,65.5126783 L687,65.5126783 L687,64.5126783 Z M6,62.461965 L0,62.461965 L0,63.461965 L6,63.461965 L6,62.461965 Z M687,61.5126783 L681,61.5126783 L681,62.5126783 L687,62.5126783 L687,61.5126783 Z M6,59.461965 L0,59.461965 L0,60.461965 L6,60.461965 L6,59.461965 Z M687,58.5126783 L681,58.5126783 L681,59.5126783 L687,59.5126783 L687,58.5126783 Z M6,56.461965 L0,56.461965 L0,57.461965 L6,57.461965 L6,56.461965 Z M687,55.5126783 L681,55.5126783 L681,56.5126783 L687,56.5126783 L687,55.5126783 Z M6,53.461965 L0,53.461965 L0,54.461965 L6,54.461965 L6,53.461965 Z M687,52.5126783 L681,52.5126783 L681,53.5126783 L687,53.5126783 L687,52.5126783 Z M6,50.461965 L0,50.461965 L0,51.461965 L6,51.461965 L6,50.461965 Z M687,49.5126783 L681,49.5126783 L681,50.5126783 L687,50.5126783 L687,49.5126783 Z M6,47.461965 L0,47.461965 L0,48.461965 L6,48.461965 L6,47.461965 Z M687,46.5126783 L681,46.5126783 L681,47.5126783 L687,47.5126783 L687,46.5126783 Z M6,44.461965 L0,44.461965 L0,45.461965 L6,45.461965 L6,44.461965 Z M687,43.5126783 L681,43.5126783 L681,44.5126783 L687,44.5126783 L687,43.5126783 Z M6,41.461965 L0,41.461965 L0,42.461965 L6,42.461965 L6,41.461965 Z M687,40.5126783 L681,40.5126783 L681,41.5126783 L687,41.5126783 L687,40.5126783 Z M6,38.461965 L0,38.461965 L0,39.461965 L6,39.461965 L6,38.461965 Z M687,37.5126783 L681,37.5126783 L681,38.5126783 L687,38.5126783 L687,37.5126783 Z M6,35.461965 L0,35.461965 L0,36.461965 L6,36.461965 L6,35.461965 Z M687,34.5126783 L681,34.5126783 L681,35.5126783 L687,35.5126783 L687,34.5126783 Z M6,32.461965 L0,32.461965 L0,33.461965 L6,33.461965 L6,32.461965 Z M687,31.5126783 L681,31.5126783 L681,32.5126783 L687,32.5126783 L687,31.5126783 Z M6,29.461965 L0,29.461965 L0,30.461965 L6,30.461965 L6,29.461965 Z M687,28.5126783 L681,28.5126783 L681,29.5126783 L687,29.5126783 L687,28.5126783 Z M6,26.461965 L0,26.461965 L0,27.461965 L6,27.461965 L6,26.461965 Z M687,25.5126783 L681,25.5126783 L681,26.5126783 L687,26.5126783 L687,25.5126783 Z M6,23.461965 L0,23.461965 L0,24.461965 L6,24.461965 L6,23.461965 Z M687,22.5126783 L681,22.5126783 L681,23.5126783 L687,23.5126783 L687,22.5126783 Z M6,20.461965 L0,20.461965 L0,21.461965 L6,21.461965 L6,20.461965 Z M687,19.5126783 L681,19.5126783 L681,20.5126783 L687,20.5126783 L687,19.5126783 Z M6,17.461965 L0,17.461965 L0,18.461965 L6,18.461965 L6,17.461965 Z M687,16.5126783 L681,16.5126783 L681,17.5126783 L687,17.5126783 L687,16.5126783 Z M6,14.461965 L0,14.461965 L0,15.461965 L6,15.461965 L6,14.461965 Z M687,13.5126783 L681,13.5126783 L681,14.5126783 L687,14.5126783 L687,13.5126783 Z M6,11.461965 L0,11.461965 L0,12.461965 L6,12.461965 L6,11.461965 Z M684,10.503 L684,10.999 L683.996193,10.7508207 L683.984907,10.504536 L680.990477,10.6872569 L680.99753,10.8404111 L681,11.5127054 L687,11.5126513 L687,10.9912079 C686.999754,10.7650051 686.992839,10.5426044 686.97929,10.3210384 L684,10.503 Z M3.39791892,8.50139883 C3.29461791,8.81588269 3.21028706,9.13897095 3.14627985,9.46931011 L6.09152553,10.0398607 C6.13116394,9.83531548 6.18349833,9.63424148 6.24815286,9.43743649 L3.39791892,8.50139883 Z M683.631801,8.59377805 C683.530894,8.27342181 683.410373,7.96176463 683.271646,7.66021472 L680.546268,8.91413573 C680.633023,9.10272489 680.707869,9.2966109 680.770326,9.49486616 L683.631801,8.59377805 Z M0.547876874,7.56477699 L0.413813823,8.00371128 C0.33055176,8.29830826 0.259561028,8.59674477 0.201109948,8.89836853 L3,9.44 L3,8.37 L0.547876874,7.56477699 Z M684,7.325 L684,8.477 L686.493061,7.6920066 C686.354741,7.2529434 686.189051,6.82372888 685.997171,6.40661625 L684,7.325 Z M4.88206289,5.84503399 C4.66738926,6.09954841 4.46830849,6.36764421 4.28629353,6.64784843 L6.80208464,8.28210518 C6.91583421,8.10698937 7.04053143,7.93898722 7.17535783,7.77914836 L4.88206289,5.84503399 Z M682.163324,5.89932644 C681.950518,5.64247455 681.721964,5.39914395 681.479141,5.17081486 L679.423593,7.3559292 C679.576061,7.4992613 679.719504,7.65196322 679.852975,7.81303768 L682.163324,5.89932644 Z M7.20106873,3.95778377 C6.90691582,4.1167994 6.6238545,4.29370713 6.35334333,4.48704841 L8.09773647,6.92776399 C8.26754987,6.80639197 8.44464904,6.69580067 8.62798612,6.59670531 L7.20106873,3.95778377 Z M679.851959,3.98670956 C679.561195,3.8266712 679.259408,3.68418892 678.948025,3.56069089 L677.841508,6.34917097 C678.034747,6.42578763 678.222956,6.51451013 678.405145,6.61477554 L679.851959,3.98670956 Z M10.1729644,3.04223065 C9.83786125,3.07664723 9.50888799,3.13174765 9.18734244,3.20623407 L9.86407886,6.12890887 C10.0659285,6.0821374 10.2713593,6.0478965 10.4796878,6.0265096 L10.1729644,3.04223065 Z M676,0 L675.050713,0 L675.050713,6 L676,6 C676.211767,6 676.421166,6.01299697 676.627639,6.03869569 L676.997944,3.06163759 C676.671009,3.02095536 676.337952,3 676,3 L677.005,3 L677.368712,0.0846372593 C677.067269,0.0471181361 676.763723,0.0220079508 676.45866,0.00943661874 L676,0 Z M28.0507133,0 L27.0507133,0 L27.0507133,6 L28.0507133,6 L28.0507133,0 Z M31.0507133,0 L30.0507133,0 L30.0507133,6 L31.0507133,6 L31.0507133,0 Z M34.0507133,0 L33.0507133,0 L33.0507133,6 L34.0507133,6 L34.0507133,0 Z M37.0507133,0 L36.0507133,0 L36.0507133,6 L37.0507133,6 L37.0507133,0 Z M40.0507133,0 L39.0507133,0 L39.0507133,6 L40.0507133,6 L40.0507133,0 Z M43.0507133,0 L42.0507133,0 L42.0507133,6 L43.0507133,6 L43.0507133,0 Z M46.0507133,0 L45.0507133,0 L45.0507133,6 L46.0507133,6 L46.0507133,0 Z M49.0507133,0 L48.0507133,0 L48.0507133,6 L49.0507133,6 L49.0507133,0 Z M52.0507133,0 L51.0507133,0 L51.0507133,6 L52.0507133,6 L52.0507133,0 Z M55.0507133,0 L54.0507133,0 L54.0507133,6 L55.0507133,6 L55.0507133,0 Z M58.0507133,0 L57.0507133,0 L57.0507133,6 L58.0507133,6 L58.0507133,0 Z M61.0507133,0 L60.0507133,0 L60.0507133,6 L61.0507133,6 L61.0507133,0 Z M64.0507133,0 L63.0507133,0 L63.0507133,6 L64.0507133,6 L64.0507133,0 Z M67.0507133,0 L66.0507133,0 L66.0507133,6 L67.0507133,6 L67.0507133,0 Z M70.0507133,0 L69.0507133,0 L69.0507133,6 L70.0507133,6 L70.0507133,0 Z M73.0507133,0 L72.0507133,0 L72.0507133,6 L73.0507133,6 L73.0507133,0 Z M76.0507133,0 L75.0507133,0 L75.0507133,6 L76.0507133,6 L76.0507133,0 Z M79.0507133,0 L78.0507133,0 L78.0507133,6 L79.0507133,6 L79.0507133,0 Z M82.0507133,0 L81.0507133,0 L81.0507133,6 L82.0507133,6 L82.0507133,0 Z M85.0507133,0 L84.0507133,0 L84.0507133,6 L85.0507133,6 L85.0507133,0 Z M88.0507133,0 L87.0507133,0 L87.0507133,6 L88.0507133,6 L88.0507133,0 Z M91.0507133,0 L90.0507133,0 L90.0507133,6 L91.0507133,6 L91.0507133,0 Z M94.0507133,0 L93.0507133,0 L93.0507133,6 L94.0507133,6 L94.0507133,0 Z M97.0507133,0 L96.0507133,0 L96.0507133,6 L97.0507133,6 L97.0507133,0 Z M100.050713,0 L99.0507133,0 L99.0507133,6 L100.050713,6 L100.050713,0 Z M103.050713,0 L102.050713,0 L102.050713,6 L103.050713,6 L103.050713,0 Z M106.050713,0 L105.050713,0 L105.050713,6 L106.050713,6 L106.050713,0 Z M109.050713,0 L108.050713,0 L108.050713,6 L109.050713,6 L109.050713,0 Z M112.050713,0 L111.050713,0 L111.050713,6 L112.050713,6 L112.050713,0 Z M115.050713,0 L114.050713,0 L114.050713,6 L115.050713,6 L115.050713,0 Z M118.050713,0 L117.050713,0 L117.050713,6 L118.050713,6 L118.050713,0 Z M121.050713,0 L120.050713,0 L120.050713,6 L121.050713,6 L121.050713,0 Z M124.050713,0 L123.050713,0 L123.050713,6 L124.050713,6 L124.050713,0 Z M127.050713,0 L126.050713,0 L126.050713,6 L127.050713,6 L127.050713,0 Z M130.050713,0 L129.050713,0 L129.050713,6 L130.050713,6 L130.050713,0 Z M133.050713,0 L132.050713,0 L132.050713,6 L133.050713,6 L133.050713,0 Z M136.050713,0 L135.050713,0 L135.050713,6 L136.050713,6 L136.050713,0 Z M139.050713,0 L138.050713,0 L138.050713,6 L139.050713,6 L139.050713,0 Z M142.050713,0 L141.050713,0 L141.050713,6 L142.050713,6 L142.050713,0 Z M145.050713,0 L144.050713,0 L144.050713,6 L145.050713,6 L145.050713,0 Z M148.050713,0 L147.050713,0 L147.050713,6 L148.050713,6 L148.050713,0 Z M151.050713,0 L150.050713,0 L150.050713,6 L151.050713,6 L151.050713,0 Z M154.050713,0 L153.050713,0 L153.050713,6 L154.050713,6 L154.050713,0 Z M157.050713,0 L156.050713,0 L156.050713,6 L157.050713,6 L157.050713,0 Z M160.050713,0 L159.050713,0 L159.050713,6 L160.050713,6 L160.050713,0 Z M163.050713,0 L162.050713,0 L162.050713,6 L163.050713,6 L163.050713,0 Z M166.050713,0 L165.050713,0 L165.050713,6 L166.050713,6 L166.050713,0 Z M169.050713,0 L168.050713,0 L168.050713,6 L169.050713,6 L169.050713,0 Z M172.050713,0 L171.050713,0 L171.050713,6 L172.050713,6 L172.050713,0 Z M175.050713,0 L174.050713,0 L174.050713,6 L175.050713,6 L175.050713,0 Z M178.050713,0 L177.050713,0 L177.050713,6 L178.050713,6 L178.050713,0 Z M181.050713,0 L180.050713,0 L180.050713,6 L181.050713,6 L181.050713,0 Z M184.050713,0 L183.050713,0 L183.050713,6 L184.050713,6 L184.050713,0 Z M187.050713,0 L186.050713,0 L186.050713,6 L187.050713,6 L187.050713,0 Z M190.050713,0 L189.050713,0 L189.050713,6 L190.050713,6 L190.050713,0 Z M193.050713,0 L192.050713,0 L192.050713,6 L193.050713,6 L193.050713,0 Z M196.050713,0 L195.050713,0 L195.050713,6 L196.050713,6 L196.050713,0 Z M199.050713,0 L198.050713,0 L198.050713,6 L199.050713,6 L199.050713,0 Z M202.050713,0 L201.050713,0 L201.050713,6 L202.050713,6 L202.050713,0 Z M205.050713,0 L204.050713,0 L204.050713,6 L205.050713,6 L205.050713,0 Z M25.0507133,0 L24.0507133,0 L24.0507133,6 L25.0507133,6 L25.0507133,0 Z M211.050713,0 L210.050713,0 L210.050713,6 L211.050713,6 L211.050713,0 Z M214.050713,0 L213.050713,0 L213.050713,6 L214.050713,6 L214.050713,0 Z M217.050713,0 L216.050713,0 L216.050713,6 L217.050713,6 L217.050713,0 Z M220.050713,0 L219.050713,0 L219.050713,6 L220.050713,6 L220.050713,0 Z M223.050713,0 L222.050713,0 L222.050713,6 L223.050713,6 L223.050713,0 Z M226.050713,0 L225.050713,0 L225.050713,6 L226.050713,6 L226.050713,0 Z M229.050713,0 L228.050713,0 L228.050713,6 L229.050713,6 L229.050713,0 Z M232.050713,0 L231.050713,0 L231.050713,6 L232.050713,6 L232.050713,0 Z M235.050713,0 L234.050713,0 L234.050713,6 L235.050713,6 L235.050713,0 Z M238.050713,0 L237.050713,0 L237.050713,6 L238.050713,6 L238.050713,0 Z M241.050713,0 L240.050713,0 L240.050713,6 L241.050713,6 L241.050713,0 Z M244.050713,0 L243.050713,0 L243.050713,6 L244.050713,6 L244.050713,0 Z M247.050713,0 L246.050713,0 L246.050713,6 L247.050713,6 L247.050713,0 Z M250.050713,0 L249.050713,0 L249.050713,6 L250.050713,6 L250.050713,0 Z M253.050713,0 L252.050713,0 L252.050713,6 L253.050713,6 L253.050713,0 Z M256.050713,0 L255.050713,0 L255.050713,6 L256.050713,6 L256.050713,0 Z M259.050713,0 L258.050713,0 L258.050713,6 L259.050713,6 L259.050713,0 Z M262.050713,0 L261.050713,0 L261.050713,6 L262.050713,6 L262.050713,0 Z M265.050713,0 L264.050713,0 L264.050713,6 L265.050713,6 L265.050713,0 Z M268.050713,0 L267.050713,0 L267.050713,6 L268.050713,6 L268.050713,0 Z M271.050713,0 L270.050713,0 L270.050713,6 L271.050713,6 L271.050713,0 Z M274.050713,0 L273.050713,0 L273.050713,6 L274.050713,6 L274.050713,0 Z M277.050713,0 L276.050713,0 L276.050713,6 L277.050713,6 L277.050713,0 Z M280.050713,0 L279.050713,0 L279.050713,6 L280.050713,6 L280.050713,0 Z M283.050713,0 L282.050713,0 L282.050713,6 L283.050713,6 L283.050713,0 Z M286.050713,0 L285.050713,0 L285.050713,6 L286.050713,6 L286.050713,0 Z M289.050713,0 L288.050713,0 L288.050713,6 L289.050713,6 L289.050713,0 Z M292.050713,0 L291.050713,0 L291.050713,6 L292.050713,6 L292.050713,0 Z M295.050713,0 L294.050713,0 L294.050713,6 L295.050713,6 L295.050713,0 Z M298.050713,0 L297.050713,0 L297.050713,6 L298.050713,6 L298.050713,0 Z M301.050713,0 L300.050713,0 L300.050713,6 L301.050713,6 L301.050713,0 Z M304.050713,0 L303.050713,0 L303.050713,6 L304.050713,6 L304.050713,0 Z M307.050713,0 L306.050713,0 L306.050713,6 L307.050713,6 L307.050713,0 Z M310.050713,0 L309.050713,0 L309.050713,6 L310.050713,6 L310.050713,0 Z M313.050713,0 L312.050713,0 L312.050713,6 L313.050713,6 L313.050713,0 Z M316.050713,0 L315.050713,0 L315.050713,6 L316.050713,6 L316.050713,0 Z M319.050713,0 L318.050713,0 L318.050713,6 L319.050713,6 L319.050713,0 Z M322.050713,0 L321.050713,0 L321.050713,6 L322.050713,6 L322.050713,0 Z M325.050713,0 L324.050713,0 L324.050713,6 L325.050713,6 L325.050713,0 Z M328.050713,0 L327.050713,0 L327.050713,6 L328.050713,6 L328.050713,0 Z M331.050713,0 L330.050713,0 L330.050713,6 L331.050713,6 L331.050713,0 Z M334.050713,0 L333.050713,0 L333.050713,6 L334.050713,6 L334.050713,0 Z M337.050713,0 L336.050713,0 L336.050713,6 L337.050713,6 L337.050713,0 Z M340.050713,0 L339.050713,0 L339.050713,6 L340.050713,6 L340.050713,0 Z M343.050713,0 L342.050713,0 L342.050713,6 L343.050713,6 L343.050713,0 Z M346.050713,0 L345.050713,0 L345.050713,6 L346.050713,6 L346.050713,0 Z M349.050713,0 L348.050713,0 L348.050713,6 L349.050713,6 L349.050713,0 Z M352.050713,0 L351.050713,0 L351.050713,6 L352.050713,6 L352.050713,0 Z M355.050713,0 L354.050713,0 L354.050713,6 L355.050713,6 L355.050713,0 Z M358.050713,0 L357.050713,0 L357.050713,6 L358.050713,6 L358.050713,0 Z M361.050713,0 L360.050713,0 L360.050713,6 L361.050713,6 L361.050713,0 Z M364.050713,0 L363.050713,0 L363.050713,6 L364.050713,6 L364.050713,0 Z M367.050713,0 L366.050713,0 L366.050713,6 L367.050713,6 L367.050713,0 Z M370.050713,0 L369.050713,0 L369.050713,6 L370.050713,6 L370.050713,0 Z M373.050713,0 L372.050713,0 L372.050713,6 L373.050713,6 L373.050713,0 Z M376.050713,0 L375.050713,0 L375.050713,6 L376.050713,6 L376.050713,0 Z M379.050713,0 L378.050713,0 L378.050713,6 L379.050713,6 L379.050713,0 Z M382.050713,0 L381.050713,0 L381.050713,6 L382.050713,6 L382.050713,0 Z M385.050713,0 L384.050713,0 L384.050713,6 L385.050713,6 L385.050713,0 Z M388.050713,0 L387.050713,0 L387.050713,6 L388.050713,6 L388.050713,0 Z M391.050713,0 L390.050713,0 L390.050713,6 L391.050713,6 L391.050713,0 Z M394.050713,0 L393.050713,0 L393.050713,6 L394.050713,6 L394.050713,0 Z M397.050713,0 L396.050713,0 L396.050713,6 L397.050713,6 L397.050713,0 Z M400.050713,0 L399.050713,0 L399.050713,6 L400.050713,6 L400.050713,0 Z M403.050713,0 L402.050713,0 L402.050713,6 L403.050713,6 L403.050713,0 Z M406.050713,0 L405.050713,0 L405.050713,6 L406.050713,6 L406.050713,0 Z M409.050713,0 L408.050713,0 L408.050713,6 L409.050713,6 L409.050713,0 Z M412.050713,0 L411.050713,0 L411.050713,6 L412.050713,6 L412.050713,0 Z M415.050713,0 L414.050713,0 L414.050713,6 L415.050713,6 L415.050713,0 Z M418.050713,0 L417.050713,0 L417.050713,6 L418.050713,6 L418.050713,0 Z M421.050713,0 L420.050713,0 L420.050713,6 L421.050713,6 L421.050713,0 Z M424.050713,0 L423.050713,0 L423.050713,6 L424.050713,6 L424.050713,0 Z M427.050713,0 L426.050713,0 L426.050713,6 L427.050713,6 L427.050713,0 Z M430.050713,0 L429.050713,0 L429.050713,6 L430.050713,6 L430.050713,0 Z M433.050713,0 L432.050713,0 L432.050713,6 L433.050713,6 L433.050713,0 Z M436.050713,0 L435.050713,0 L435.050713,6 L436.050713,6 L436.050713,0 Z M439.050713,0 L438.050713,0 L438.050713,6 L439.050713,6 L439.050713,0 Z M442.050713,0 L441.050713,0 L441.050713,6 L442.050713,6 L442.050713,0 Z M445.050713,0 L444.050713,0 L444.050713,6 L445.050713,6 L445.050713,0 Z M448.050713,0 L447.050713,0 L447.050713,6 L448.050713,6 L448.050713,0 Z M451.050713,0 L450.050713,0 L450.050713,6 L451.050713,6 L451.050713,0 Z M454.050713,0 L453.050713,0 L453.050713,6 L454.050713,6 L454.050713,0 Z M457.050713,0 L456.050713,0 L456.050713,6 L457.050713,6 L457.050713,0 Z M460.050713,0 L459.050713,0 L459.050713,6 L460.050713,6 L460.050713,0 Z M463.050713,0 L462.050713,0 L462.050713,6 L463.050713,6 L463.050713,0 Z M466.050713,0 L465.050713,0 L465.050713,6 L466.050713,6 L466.050713,0 Z M469.050713,0 L468.050713,0 L468.050713,6 L469.050713,6 L469.050713,0 Z M472.050713,0 L471.050713,0 L471.050713,6 L472.050713,6 L472.050713,0 Z M475.050713,0 L474.050713,0 L474.050713,6 L475.050713,6 L475.050713,0 Z M478.050713,0 L477.050713,0 L477.050713,6 L478.050713,6 L478.050713,0 Z M481.050713,0 L480.050713,0 L480.050713,6 L481.050713,6 L481.050713,0 Z M484.050713,0 L483.050713,0 L483.050713,6 L484.050713,6 L484.050713,0 Z M487.050713,0 L486.050713,0 L486.050713,6 L487.050713,6 L487.050713,0 Z M490.050713,0 L489.050713,0 L489.050713,6 L490.050713,6 L490.050713,0 Z M493.050713,0 L492.050713,0 L492.050713,6 L493.050713,6 L493.050713,0 Z M496.050713,0 L495.050713,0 L495.050713,6 L496.050713,6 L496.050713,0 Z M499.050713,0 L498.050713,0 L498.050713,6 L499.050713,6 L499.050713,0 Z M502.050713,0 L501.050713,0 L501.050713,6 L502.050713,6 L502.050713,0 Z M505.050713,0 L504.050713,0 L504.050713,6 L505.050713,6 L505.050713,0 Z M508.050713,0 L507.050713,0 L507.050713,6 L508.050713,6 L508.050713,0 Z M511.050713,0 L510.050713,0 L510.050713,6 L511.050713,6 L511.050713,0 Z M514.050713,0 L513.050713,0 L513.050713,6 L514.050713,6 L514.050713,0 Z M517.050713,0 L516.050713,0 L516.050713,6 L517.050713,6 L517.050713,0 Z M520.050713,0 L519.050713,0 L519.050713,6 L520.050713,6 L520.050713,0 Z M523.050713,0 L522.050713,0 L522.050713,6 L523.050713,6 L523.050713,0 Z M526.050713,0 L525.050713,0 L525.050713,6 L526.050713,6 L526.050713,0 Z M529.050713,0 L528.050713,0 L528.050713,6 L529.050713,6 L529.050713,0 Z M532.050713,0 L531.050713,0 L531.050713,6 L532.050713,6 L532.050713,0 Z M535.050713,0 L534.050713,0 L534.050713,6 L535.050713,6 L535.050713,0 Z M538.050713,0 L537.050713,0 L537.050713,6 L538.050713,6 L538.050713,0 Z M541.050713,0 L540.050713,0 L540.050713,6 L541.050713,6 L541.050713,0 Z M544.050713,0 L543.050713,0 L543.050713,6 L544.050713,6 L544.050713,0 Z M547.050713,0 L546.050713,0 L546.050713,6 L547.050713,6 L547.050713,0 Z M550.050713,0 L549.050713,0 L549.050713,6 L550.050713,6 L550.050713,0 Z M553.050713,0 L552.050713,0 L552.050713,6 L553.050713,6 L553.050713,0 Z M556.050713,0 L555.050713,0 L555.050713,6 L556.050713,6 L556.050713,0 Z M559.050713,0 L558.050713,0 L558.050713,6 L559.050713,6 L559.050713,0 Z M562.050713,0 L561.050713,0 L561.050713,6 L562.050713,6 L562.050713,0 Z M565.050713,0 L564.050713,0 L564.050713,6 L565.050713,6 L565.050713,0 Z M568.050713,0 L567.050713,0 L567.050713,6 L568.050713,6 L568.050713,0 Z M571.050713,0 L570.050713,0 L570.050713,6 L571.050713,6 L571.050713,0 Z M574.050713,0 L573.050713,0 L573.050713,6 L574.050713,6 L574.050713,0 Z M577.050713,0 L576.050713,0 L576.050713,6 L577.050713,6 L577.050713,0 Z M580.050713,0 L579.050713,0 L579.050713,6 L580.050713,6 L580.050713,0 Z M583.050713,0 L582.050713,0 L582.050713,6 L583.050713,6 L583.050713,0 Z M586.050713,0 L585.050713,0 L585.050713,6 L586.050713,6 L586.050713,0 Z M589.050713,0 L588.050713,0 L588.050713,6 L589.050713,6 L589.050713,0 Z M592.050713,0 L591.050713,0 L591.050713,6 L592.050713,6 L592.050713,0 Z M595.050713,0 L594.050713,0 L594.050713,6 L595.050713,6 L595.050713,0 Z M598.050713,0 L597.050713,0 L597.050713,6 L598.050713,6 L598.050713,0 Z M601.050713,0 L600.050713,0 L600.050713,6 L601.050713,6 L601.050713,0 Z M604.050713,0 L603.050713,0 L603.050713,6 L604.050713,6 L604.050713,0 Z M607.050713,0 L606.050713,0 L606.050713,6 L607.050713,6 L607.050713,0 Z M610.050713,0 L609.050713,0 L609.050713,6 L610.050713,6 L610.050713,0 Z M613.050713,0 L612.050713,0 L612.050713,6 L613.050713,6 L613.050713,0 Z M616.050713,0 L615.050713,0 L615.050713,6 L616.050713,6 L616.050713,0 Z M619.050713,0 L618.050713,0 L618.050713,6 L619.050713,6 L619.050713,0 Z M622.050713,0 L621.050713,0 L621.050713,6 L622.050713,6 L622.050713,0 Z M625.050713,0 L624.050713,0 L624.050713,6 L625.050713,6 L625.050713,0 Z M628.050713,0 L627.050713,0 L627.050713,6 L628.050713,6 L628.050713,0 Z M631.050713,0 L630.050713,0 L630.050713,6 L631.050713,6 L631.050713,0 Z M634.050713,0 L633.050713,0 L633.050713,6 L634.050713,6 L634.050713,0 Z M637.050713,0 L636.050713,0 L636.050713,6 L637.050713,6 L637.050713,0 Z M640.050713,0 L639.050713,0 L639.050713,6 L640.050713,6 L640.050713,0 Z M643.050713,0 L642.050713,0 L642.050713,6 L643.050713,6 L643.050713,0 Z M646.050713,0 L645.050713,0 L645.050713,6 L646.050713,6 L646.050713,0 Z M649.050713,0 L648.050713,0 L648.050713,6 L649.050713,6 L649.050713,0 Z M652.050713,0 L651.050713,0 L651.050713,6 L652.050713,6 L652.050713,0 Z M655.050713,0 L654.050713,0 L654.050713,6 L655.050713,6 L655.050713,0 Z M658.050713,0 L657.050713,0 L657.050713,6 L658.050713,6 L658.050713,0 Z M661.050713,0 L660.050713,0 L660.050713,6 L661.050713,6 L661.050713,0 Z M664.050713,0 L663.050713,0 L663.050713,6 L664.050713,6 L664.050713,0 Z M667.050713,0 L666.050713,0 L666.050713,6 L667.050713,6 L667.050713,0 Z M670.050713,0 L669.050713,0 L669.050713,6 L670.050713,6 L670.050713,0 Z M673.050713,0 L672.050713,0 L672.050713,6 L673.050713,6 L673.050713,0 Z M22.0507133,0 L21.0507133,0 L21.0507133,6 L22.0507133,6 L22.0507133,0 Z M19.0507133,0 L18.0507133,0 L18.0507133,6 L19.0507133,6 L19.0507133,0 Z M16.0507133,0 L15.0507133,0 L15.0507133,6 L16.0507133,6 L16.0507133,0 Z M13.0507133,0 L12.0507133,0 L12.0507133,6 L13.0507133,6 L13.0507133,0 Z M208.050713,0 L207.050713,0 L207.050713,6 L208.050713,6 L208.050713,0 Z M2.58907656,3.91055376 L2.30101334,4.26680013 C2.11394482,4.50822789 1.93691021,4.75740933 1.77042927,5.01370431 L3,5.812 L3,4.256 L2.58907656,3.91055376 Z M684.001734,3.45197284 L684,4.375 L684.472972,3.98476993 C684.321623,3.8021212 684.164454,3.62442795 684.001734,3.45197284 Z M679.169,3 L680.395,3 L681.298016,1.3582272 C680.896021,1.13699509 680.480248,0.940997801 680.052951,0.771579933 L679.169,3 Z M5.77501242,1.31839677 L5.37615346,1.54486736 C5.113517,1.70132648 4.85752905,1.86866415 4.60884669,2.04640679 L5.289,3 L6.684,3 L5.77501242,1.31839677 Z M9.86695112,0.0578787854 L9.4105114,0.114388971 C9.107452,0.158359086 8.80696466,0.214888663 8.50967671,0.283774579 L9.139,3 L10.168,3 L9.86695112,0.0578787854 Z" id="Rectangle" fill="#2E1213" fill-rule="nonzero"></path>
                <text id="Tnh-cp-bch-(U)-tr" font-family="LucidaGrande, Lucida Grande" font-size="18" font-weight="normal" letter-spacing="0.0323492763" fill="#2E1213">
                    <tspan x="31" y="199">Tnh cp bch </tspan>
                    <tspan x="159.614999" y="199" font-family="LucidaGrande-Bold, Lucida Grande" font-weight="bold">(U)</tspan>
                    <tspan x="186.30775" y="199"> trong trng hp khn cp bng thi gian phn ng </tspan>
                    <tspan x="31" y="220" font-family="LucidaGrande-Bold, Lucida Grande" font-weight="bold">(reaction time)</tspan>
                    <tspan x="167.267466" y="220">thi gian cn  gii quyt vn  </tspan>
                    <tspan x="488.49454" y="220" font-family="LucidaGrande-Bold, Lucida Grande" font-weight="bold">(</tspan>
                    <tspan x="495.197787" y="220" font-family="STIXTwoMath-Regular, STIX Two Math"></tspan>
                    <tspan x="503.582137" y="220" font-family="LucidaGrande-Bold, Lucida Grande" font-weight="bold">)</tspan>
                    <tspan x="510.285384" y="220">chia cho thi </tspan>
                    <tspan x="31" y="241">gian can thip </tspan>
                    <tspan x="160.904184" y="241" font-family="LucidaGrande-Bold, Lucida Grande" font-weight="bold">(intervention time)</tspan>
                    <tspan x="353.187889" y="241">thi gian thc t  hnh ng </tspan>
                    <tspan x="31" y="262">trc khi qu mun </tspan>
                    <tspan x="211.544324" y="262" font-family="LucidaGrande-Bold, Lucida Grande" font-weight="bold">(T):</tspan>
                    <tspan x="241.881729" y="262"> </tspan>
                    <tspan x="247.60939" y="262" font-family="LucidaGrande-Bold, Lucida Grande" font-weight="bold">= ( </tspan>
                    <tspan x="280.592303" y="262" font-family="STIXTwoMath-Regular, STIX Two Math"></tspan>
                    <tspan x="288.976652" y="262" font-family="LucidaGrande-Bold, Lucida Grande" font-weight="bold"> / T )</tspan>
                </text>
                <text id="Tnh-khn-cp-(E)-=" font-family="LucidaGrande-Bold, Lucida Grande" font-size="24" font-weight="bold" letter-spacing="0.0431323684" fill="#2E1213">
                    <tspan x="31" y="143">Tnh khn cp (E) = R (Ri ro)  U (Tnh cp bch)</tspan>
                </text>
                <text id="Ri-ro-(R)-l-thit" font-family="LucidaGrande, Lucida Grande" font-size="18" font-weight="normal" letter-spacing="0.0323492763" fill="#2E1213">
                    <tspan x="238.070548" y="43">Ri ro (R) l thit hi (D) </tspan>
                    <tspan x="251.582696" y="64">nhn vi xc sut (p)</tspan>
                    <tspan x="300.367124" y="85" font-family="LucidaGrande-Bold, Lucida Grande" font-weight="bold">= (p  D)</tspan>
                </text>
                <path d="M221.675302,94.0366175 C221.722002,95.7179437 222.723546,97.3048904 224.679935,98.7974578 C226.636324,100.290025 229.248675,101.036309 232.516988,101.036309 L333.730132,101.036309 C336.146182,101.036309 338.00955,102.224053 339.320237,104.599542 C340.630924,106.97503 341.506724,109.045227 341.947637,110.810134 C342.540044,109.045227 343.404235,106.97503 344.540209,104.599542 C345.676184,102.224053 347.363126,101.036309 349.601034,101.036309 L450.506769,101.036309 C452.806217,101.036309 454.888628,100.036627 456.754001,98.0372617 C458.619374,96.0378968 459.420247,94.7043487 459.156621,94.0366175" id="Path-2" stroke="#2E1213" stroke-width="3"></path>
                <path d="M317.675302,157.036617 C317.740575,158.717944 319.14045,160.30489 321.874927,161.797458 C324.609404,163.290025 328.26073,164.036309 332.828906,164.036309 L474.296187,164.036309 C477.67314,164.036309 480.277601,165.224053 482.10957,167.599542 C483.941539,169.97503 485.165659,172.045227 485.78193,173.810134 C486.609947,172.045227 487.81784,169.97503 489.405611,167.599542 C490.993382,165.224053 493.351248,164.036309 496.47921,164.036309 L637.51682,164.036309 C640.730798,164.036309 643.641417,163.036627 646.24868,161.037262 C648.855942,159.037897 649.975336,157.704349 649.606862,157.036617" id="Path-2-Copy" stroke="#2E1213" stroke-width="3" transform="translate(483.675302, 165.423376) rotate(-180.000000) translate(-483.675302, -165.423376) "></path>
            </g>
        </g>
    </g>
</svg>