<svg style='scaling-svg' viewBox="0 0 238 125" version="1.1" xmlns="http://www.w3.org/2000/svg" xmlns:xlink="http://www.w3.org/1999/xlink">
    <g id="Page-1" stroke="none" stroke-width="1" fill="none" fill-rule="evenodd">
        <g id="Board" transform="translate(-3660.000000, -1986.000000)">
            <g id="fossil-fuel" transform="translate(3460.416946, 1684.003000)">
                <g id="fossil-1" transform="translate(200.519704, 302.290611)">
                    <rect id="Rectangle" x="0" y="0" width="237" height="124"></rect>
                    <g id="Group-17" transform="translate(43.000000, 8.857239)">
                        <line x1="14.2353501" y1="4.19655" x2="14.2353501" y2="0" id="Stroke-6" stroke="#B99C9A" stroke-linecap="round"></line>
                        <line x1="72.9870501" y1="4.19655" x2="72.9870501" y2="0" id="Stroke-8" stroke="#B99C9A" stroke-linecap="round"></line>
                        <line x1="131.73875" y1="4.19655" x2="131.73875" y2="0" id="Stroke-10" stroke="#B99C9A" stroke-linecap="round"></line>
                        <g id="Group-16" transform="translate(0.000000, 4.684160)" fill="#B99C9A" font-weight="normal">
                            <text id="0" font-family="ArialMT, Arial" font-size="8.3931">
                                <tspan x="70.6531158" y="8">0</tspan>
                            </text>
                            <text id="-10.000" font-family="Helvetica" font-size="8">
                                <tspan x="0" y="8">-10.000</tspan>
                            </text>
                            <text id="10.000" font-family="Helvetica" font-size="8">
                                <tspan x="118.896655" y="8">10.000</tspan>
                            </text>
                        </g>
                        <line x1="14.2353501" y1="4.19655" x2="131.73875" y2="4.19655" id="Stroke-4" stroke="#B99C9A"></line>
                    </g>
                    <g id="Group-54" transform="translate(43.000000, 80.328625)">
                        <g id="Group-48" transform="translate(0.000000, 33.765775)" fill="#B99C9A" font-family="Helvetica" font-size="8" font-weight="normal">
                            <text id="0">
                                <tspan x="70.6531158" y="8">0</tspan>
                            </text>
                            <text id="-10.000">
                                <tspan x="0" y="8">-10.000</tspan>
                            </text>
                            <text id="10.000">
                                <tspan x="118.896655" y="8">10.000</tspan>
                            </text>
                        </g>
                        <g id="Group-45" transform="translate(13.735350, 29.081515)" stroke="#B99C9A">
                            <line x1="0.5" y1="4.19655" x2="118.0034" y2="4.19655" id="Stroke-37"></line>
                            <line x1="0.5" y1="4.19655" x2="0.5" y2="0" id="Stroke-39" stroke-linecap="round"></line>
                            <line x1="59.2517" y1="4.19655" x2="59.2517" y2="0" id="Stroke-41" stroke-linecap="round"></line>
                            <line x1="118.0034" y1="4.19655" x2="118.0034" y2="0" id="Stroke-43" stroke-linecap="round"></line>
                        </g>
                        <path d="M15.1582501,32.5076647 C15.0550501,32.5008647 14.9518501,32.4941647 14.8485501,32.4883647 C14.7512501,32.8265647 14.6530501,33.1647647 14.5548501,33.5030647 C23.2769501,33.0229647 32.0132501,33.2319647 40.7580501,33.3452647 C45.6864501,33.4081647 50.5251501,33.4174647 55.4527501,33.2487647 C60.2048501,33.0850647 64.9327501,33.6658647 69.6907501,33.4073647 C70.7449501,33.3494647 71.1083501,31.9595647 69.8485501,32.0300647 C65.0955501,32.2977647 60.3609501,31.8260647 55.6079501,31.8974647 C50.6980501,31.9712647 45.8241501,32.1114647 40.9099501,32.0224647 C32.2533501,31.8655647 23.2601501,31.2133647 14.6723501,32.4832647 C13.9261501,32.5940647 13.5963501,33.5324647 14.5548501,33.5030647 C14.6614501,33.5005647 14.7671501,33.4971647 14.8729501,33.4938647 C15.4696501,33.4753647 15.9757501,32.5604647 15.1582501,32.5076647" id="Fill-51" fill="#AB2430"></path>
                        <path d="M68.9056501,32.6068647 C71.5117501,34.6329647 72.6364501,27.0967647 72.8982501,25.8579647 C74.6096501,17.7527647 73.9641501,8.93576473 74.3997501,0.690364726 C74.4493501,-0.249635274 73.0845501,-0.206835274 72.9738501,0.679464726 C72.2360501,6.54126473 72.6103501,12.6597647 72.2780501,18.5685647 C72.2108501,19.7586647 71.8071501,31.6684647 69.2136501,31.8665647 C68.8830501,31.8908647 68.5733501,32.3483647 68.9056501,32.6068647" id="Fill-53" fill="#AB2430"></path>
                    </g>
                    <g id="Group-54-Copy" transform="translate(43.000000, 49.410139)">
                        <g id="Group-48" transform="translate(0.000000, 4.684260)" fill="#B99C9A" font-family="Helvetica" font-size="8" font-weight="normal">
                            <text id="0">
                                <tspan x="70.6531158" y="8">0</tspan>
                            </text>
                            <text id="-10.000">
                                <tspan x="0" y="8">-10.000</tspan>
                            </text>
                            <text id="10.000">
                                <tspan x="118.896655" y="8">10.000</tspan>
                            </text>
                        </g>
                        <g id="Group-45" transform="translate(13.735350, 0.000000)" stroke="#B99C9A">
                            <line x1="0.5" y1="4.19655" x2="118.0034" y2="4.19655" id="Stroke-37"></line>
                            <line x1="0.5" y1="4.19655" x2="0.5" y2="0" id="Stroke-39" stroke-linecap="round"></line>
                            <line x1="59.2517" y1="4.19655" x2="59.2517" y2="0" id="Stroke-41" stroke-linecap="round"></line>
                            <line x1="118.0034" y1="4.19655" x2="118.0034" y2="0" id="Stroke-43" stroke-linecap="round"></line>
                        </g>
                        <path d="M15.1582501,3.42615 C15.0550501,3.41935 14.9518501,3.41265 14.8485501,3.40685 C14.7512501,3.74505 14.6530501,4.08325 14.5548501,4.42155 C23.2769501,3.94145 32.0132501,4.15045 40.7580501,4.26375 C45.6864501,4.32665 50.5251501,4.33595 55.4527501,4.16725 C60.2048501,4.00355 64.9327501,4.58435 69.6907501,4.32585 C70.7449501,4.26795 71.1083501,2.87805 69.8485501,2.94855 C65.0955501,3.21625 60.3609501,2.74455 55.6079501,2.81595 C50.6980501,2.88975 45.8241501,3.02995 40.9099501,2.94095 C32.2533501,2.78405 23.2601501,2.13185 14.6723501,3.40175 C13.9261501,3.51255 13.5963501,4.45095 14.5548501,4.42155 C14.6614501,4.41905 14.7671501,4.41565 14.8729501,4.41235 C15.4696501,4.39385 15.9757501,3.47895 15.1582501,3.42615" id="Fill-51" fill="#AB2430"></path>
                    </g>
                </g>
            </g>
        </g>
    </g>
</svg>