<svg style='scaling-svg' viewBox="0 0 297 221" version="1.1" xmlns="http://www.w3.org/2000/svg" xmlns:xlink="http://www.w3.org/1999/xlink">
    <g id="Page-1" stroke="none" stroke-width="1" fill="none" fill-rule="evenodd">
        <g id="Board" transform="translate(-4104.000000, -3275.000000)">
            <g id="fossil-fuel-II" transform="translate(3375.000000, 3013.055047)">
                <g id="fossil-10" transform="translate(729.000000, 261.944953)">
                    <g id="Group-30" transform="translate(25.895427, 3.729972)" stroke-linecap="square" stroke-linejoin="round">
                        <g id="Group-10" transform="translate(0.000000, 162.368519)" stroke="#458AFF">
                            <polyline id="Stroke-8" points="0 12.4772505 0.209150325 13.6027973 0.8366013 13.6605188 1.04575163 13.7374775 1.04575163 13.6508977 1.46405228 14.1222808 1.6732026 14.1030437 1.88235293 13.7663407 2.09150325 14.2377238 2.30065358 14.2954454 2.5098039 14.9015086 2.71895423 11.6884017 2.92810455 11.4478996 3.13725488 11.4094202 3.3464052 10.9476532 3.55555553 10.8033519 3.55555553 10.4858912 3.97385618 10.0818457 4.1830065 9.50464065 4.39215683 9.2064221 4.60130715 8.68693353 4.81045748 7.88846861 5.0196078 7.76340955 5.22875813 8.03276987 5.43790845 6.89760202 5.8562091 6.8495016 6.06535943 6.45507716 6.06535943 6.15685355 6.48366008 5.85862995 6.6928104 5.84900885 6.90196073 5.96445188 7.11111105 6.24343329 7.32026138 6.41659783 7.73856203 7.71530913 7.94771235 7.56138678 8.15686268 7.17658343 8.99346398 6.8495016 9.2026143 6.15685355 9.41176463 5.7816713 9.62091495 5.5507903 9.83006528 5.89710927 10.0392156 5.63737005 10.2483659 4.83890006 10.4575163 4.37713807 10.6666666 4.713841 10.8758169 4.52143933 11.0849672 4.07891447 11.0849672 3.55943096 11.5032679 1.97211715 11.7124182 1.70275683 12.1307189 2.85716688 12.3398692 5.05054393 12.5490195 5.19484518 12.7581698 5.58926963 12.9673202 4.78118361 13.1764705 6.03179449 13.3856208 5.45458947 13.5947711 5.31028821 13.5947711 5.58926963 14.0130718 6.43583497 14.2222221 7.0803826 14.4313724 7.46518594 14.6405228 7.68644584 15.0588234 9.52388284 15.2679737 9.89906509 15.4771241 9.50464065 15.6862744 8.75427614 15.8954247 6.93608134 16.104575 6.46469825 16.104575 6.25305439 16.5228757 6.03179449 16.732026 9.196801 16.9411763 9.658563 17.1503267 7.56138678 17.359477 6.74367967 17.5686273 7.55176568 17.7777776 9.50464065 17.986928 9.56236216 18.1960783 9.36996049 18.4052286 8.52339515 18.6143789 8.93705672 18.6143789 9.4180609 19.0326796 9.62008367 19.2418299 9.6489419 19.4509802 9.29300184 19.6601306 9.94716551 19.8692809 9.89906509 20.0784312 12.2175063 20.2875815 10.0818457 20.4967319 9.25452252 20.7058822 6.97456066 20.9150325 9.23528033 21.1241828 3.24197022 21.5424835 3.82879128 21.7516338 3.77107482 22.3790848 7.86922642 22.7973854 7.95581122 23.0065358 7.84036819 23.4248364 6.04141052 23.6339867 5.48344769 23.6339867 4.76194142 24.0522874 5.06016502 24.2614377 5.75280801 24.470588 6.0125523 24.8888887 7.09000369 25.098039 7.09000369 25.3071893 5.87787214 25.5163397 5.30066712 25.72549 5.01206461 25.9346403 5.15636586 26.1437906 4.713841 26.1437906 3.89613389 26.5620913 3.77107482 26.7712416 3.98271363 26.9803919 3.32854996 27.3986926 2.56856437 27.6078429 2.77058207 27.8169932 2.74172385 28.0261436 3.05918458 28.4444442 1.2890902 28.6535945 1.21213156 28.6535945 1.38529104 29.0718952 1.73161506 29.2810455 0.798464921 29.4901958 1.13516785 29.6993462 0.57720502 29.9084965 1.11593072 30.1176468 0"></polyline>
                        </g>
                        <polyline id="Stroke-11" stroke="#458AFF" points="30.1176468 162.368519 30.3267971 162.079917 30.7450978 159.549857 30.9542481 159.011106 31.1633984 158.251136 31.1633984 158.741756 31.5816991 158.308832 31.7908494 156.952414 31.9999997 157.40457 32.4183004 159.251608 32.6274507 159.597937 32.836601 159.771076 33.0457514 160.146304 33.2549017 159.617169 33.464052 159.742228 33.6732023 162.435862 34.3006533 159.722996 34.5098036 161.031334 34.9281043 161.060182 35.1372546 160.925507 35.3464049 160.867811 35.5555553 160.559946 35.7647056 159.54019 35.9738559 158.837967 36.1830062 158.366579 36.1830062 159.126549 36.6013069 158.24152 36.8104572 167.572986 37.0196075 157.981785 37.2287579 157.23138 37.4379082 156.788891 37.6470585 157.039009 37.8562088 156.288604 38.0653592 156.711912 38.2745095 154.951419 38.4836598 154.508929 38.6928101 154.239528 38.6928101 154.412718 39.1111108 153.104381 39.3202611 152.132756 39.5294114 150.853267 39.9477121 149.81433 40.1568624 150.728208 40.3660127 158.33768 40.7843134 157.664304 41.202614 156.375199 41.202614 155.788368 41.6209147 155.971174 41.830065 155.009165 42.0392153 154.364587 42.2483657 153.527638 42.457516 153.113997 42.6666663 152.863879 42.8758166 152.873495 43.084967 153.518022 43.2941173 157.144836 43.5032676 158.982258 43.7124179 158.472406 43.7124179 157.84706 44.1307186 157.981785 44.3398689 155.297748 44.5490192 155.53825 44.7581696 155.336262 44.9673199 155.442039 45.1764702 155.2689 45.3856205 156.25014 45.5947709 155.393959 46.0130715 154.48003 46.2222218 154.152984 46.6405225 153.065917 46.8496728 152.084626 47.0588231 150.805187 47.4771238 149.756583 47.6862741 150.689744 47.8954244 150.564685 48.1045748 149.929773 48.3137251 150.218356 48.5228754 149.833562 48.7320257 148.6599 49.1503264 148.775343 49.3594767 147.543984 49.568627 146.822478 49.7777774 147.082212 49.9869277 146.986001 50.196078 147.572833 50.4052284 146.918689 50.6143787 146.812862 50.823529 146.456917 51.0326793 146.428018 51.2418297 145.754643 51.2418297 145.927782 51.6601303 145.562221 51.8692806 145.754643 52.078431 150.122145 52.2875813 151.45933 52.4967316 149.217883 52.7058819 149.650756 52.9150323 148.178896 53.1241826 147.274584 53.3333329 150.20874 53.5424832 147.717124 53.7516336 146.639672 53.7516336 145.571837 54.1699342 145.321719 54.3790845 146.149052 54.5882349 146.591592 54.7973852 146.639672 55.0065355 146.283727 55.2156858 147.216887 55.4248362 147.72674 55.6339865 146.389554 56.0522871 144.763786 56.2614375 144.244267 56.2614375 143.590124 56.6797381 143.214947 56.8888884 142.878234 57.3071891 141.454453 57.5163394 141.78155 57.7254897 141.300546 57.9346401 141.752702 58.1437904 141.060044 58.3529407 140.57904 58.562091 139.847918 58.7712414 139.69396 58.7712414 139.299551 59.189542 139.491972 59.3986923 138.98212 59.6078427 140.328922"></polyline>
                        <polyline id="Stroke-13" stroke="#458AFF" points="59.6078427 140.328922 59.816993 138.376006 60.0261433 137.904669 60.2352936 137.625652 60.444444 140.838774 60.6535943 140.89647 60.8627446 142.272171 61.0718949 144.465537 61.2810453 144.802251 61.2810453 145.446778 61.6993459 147.50547 61.9084962 146.630056 62.1176466 145.119732 62.3267969 144.427073 62.5359472 142.483825 62.7450975 144.31163 62.9542479 145.215892 63.1633982 144.869563 63.3725485 145.716179 63.5816988 144.840715 63.7908492 143.1572 63.7908492 140.944601 64.2091498 139.895998 64.6274505 136.0095 64.8366008 135.874825 65.0457511 135.980652 65.2549014 137.596804 65.4640518 135.749766 65.6732021 135.586192 65.8823524 134.402914 66.3006531 133.21007 66.3006531 133.652559 66.7189537 133.517884 66.928104 132.613623 67.1372544 132.382737 67.3464047 131.180226 67.7647053 133.094627 67.9738557 132.825226 68.183006 131.362981 68.3921563 131.497657 68.6013066 130.805049 68.810457 143.715183 68.810457 133.123475 69.2287576 134.027737 69.4379079 132.854125 69.6470583 129.948817 69.8562086 130.112391 70.0653589 130.516416 70.2745092 128.775205 70.4836596 129.612155 70.6928099 129.737214 70.9019602 129.977716 71.1111105 131.122479 71.3202609 131.189842 71.3202609 129.294674 71.7385615 129.140766 71.9477118 129.217695 72.1568622 129.641003 72.3660125 132.555876 72.5751628 132.344222 72.7843131 132.671319 72.9934635 132.642471 73.4117641 130.06426 73.6209144 129.015707 73.8300648 130.410589 73.8300648 130.150855 74.4575157 133.585247 74.6666661 133.565964 74.8758164 133.796851 75.0849667 131.622716 75.294117 131.189842 75.5032674 127.630391 75.7124177 126.928117 75.921568 126.427881 76.1307183 126.399032 76.3398687 128.409644 76.3398687 129.227311 76.7581693 128.86175 76.9673196 128.553935 77.17647 127.880509 77.3856203 126.928117 77.8039209 123.820822 78.0130713 123.426412 78.2222216 123.310969 78.4313719 122.64721 78.6405222 123.917033 78.8496726 124.725134 78.8496726 124.369189 79.2679732 124.475016 79.4771235 123.455261 79.6862739 124.821345 79.8954242 125.773737 80.3137248 121.704434 80.5228752 120.790505 80.7320255 118.818409 80.9411758 118.664501 81.3594765 121.156067 81.3594765 124.272978 81.7777771 126.639535 81.9869274 127.457252 82.1960778 126.360568 82.4052281 126.870421 82.6143784 126.851189 82.8235287 126.062319 83.0326791 126.485627 83.2418294 127.062792 83.4509797 132.286526 83.66013 132.065256 83.8692804 132.719399 83.8692804 131.690078 84.287581 129.458197 84.4967313 125.946876 84.7058817 124.484632 84.915032 125.677526 85.1241823 125.571699 85.3333326 124.003628 85.542483 123.18591 85.7516333 123.464877 85.9607836 123.522623 86.1699339 122.86848 86.3790843 123.214758 86.3790843 124.532712 86.7973849 127.409121 87.0065352 127.582311 87.2156856 126.706847 87.4248359 126.187378 87.6339862 125.504336 87.8431365 123.474543"></polyline>
                        <polyline id="Stroke-15" stroke="#458AFF" points="87.8431365 123.474543 88.0522869 123.118598 88.2614372 123.012771 88.6797378 124.965636 88.8888882 126.793442 88.8888882 125.918028 89.3071888 126.677999 89.5163391 125.908412 89.7254895 125.610163 89.9346398 125.735222 90.1437901 124.051708 90.3529404 123.888185 90.5620908 123.310969 90.7712411 122.483636 90.9803914 120.800122 91.3986921 123.917033 91.3986921 124.340341 91.8169927 125.735222 92.026143 124.330725 92.2352934 125.379277 92.4444437 124.109455 92.653594 123.868952 92.8627443 122.339345 93.0718947 121.993016 93.281045 120.838636 93.4901953 121.71405 93.6993456 121.569759 93.908496 123.474543 93.908496 122.858813 94.3267966 123.157062 94.5359469 123.080083 94.7450973 122.25275 94.9542476 121.800645 95.1633979 121.088754 95.5816986 122.406708 95.7908489 119.684206 95.9999992 119.963172 96.2091495 119.472552 96.4182999 119.924708 96.8366005 119.703438 97.0457508 119.174354 97.2549012 120.453792 97.4640515 120.174826 97.6732018 120.097847 97.8823521 120.415328 98.0915025 119.328261 98.3006528 118.712582 98.7189534 118.221961 98.9281038 119.94394 99.3464044 120.780889 99.5555547 121.011775 99.9738554 119.337877 100.183006 119.23205 100.392156 117.923712 100.601306 117.894864 100.810457 117.558151 101.019607 117.029067 101.228757 116.721202 101.437908 118.731814 101.437908 118.135366 101.856208 118.933852 102.065359 118.135366 102.274509 121.310024 102.483659 116.913624 102.69281 115.826556 102.90196 113.979519 103.11111 115.258957 103.320261 113.402303 103.529411 112.882785 103.738561 113.094439 103.947712 112.382548 104.366012 113.498514 104.575163 113.28686 104.784313 113.267628 104.993463 112.603818 105.411764 110.795245 105.830065 109.746641 106.457515 112.007371 106.457515 110.525894 107.084966 101.906283 107.294117 105.177102 107.503267 106.09103 107.712417 106.302684 107.921568 106.976059 108.130718 105.82168 108.339868 102.964503 108.549019 103.022199 108.758169 104.907751 108.967319 104.118933 108.967319 104.705713 109.38562 104.590321 109.59477 104.801924 109.803921 106.745173 110.013071 106.899131 110.222221 106.389228 110.431372 106.995342 110.640522 107.168481 110.849672 106.783688 111.058823 105.561945 111.267973 103.801452 111.477123 102.666304 111.477123 100.020781 111.895424 103.253085 112.104574 105.446502 112.313725 103.253085 112.522875 104.041954 112.732025 102.762465 112.941176 101.011638 113.150326 101.492642 113.359476 100.607562 113.568627 101.204009 113.777777 100.405574 113.986927 101.059718 113.986927 102.637406 114.405228 104.147781 114.823528 97.8851105 115.032679 96.345887 115.241829 96.0476381 115.450979 97.0096465 115.66013 99.7898952 115.86928 99.078005 116.07843 98.7028278 116.287581 98.6931611 116.496731 99.8860556 116.496731 100.280515 116.915032 101.704296 117.124182 102.137169 117.333332 104.792308"></polyline>
                        <polyline id="Stroke-17" stroke="#458AFF" points="117.333332 104.792308 117.542483 104.532574 117.751633 104.753844 117.960783 105.129021 118.169934 104.994346 118.379084 102.858676 118.588234 101.646549 118.797385 101.155929 119.006535 100.184304 119.006535 101.069334 119.633986 101.444511 119.843136 101.204009 120.052287 101.454127 120.261437 101.992878 120.470587 102.868292 120.679738 104.397899 120.888888 102.291076 121.098038 103.474355 121.307189 103.281984 121.516339 103.570566 121.516339 104.032338 121.93464 104.00349 122.14379 104.465211 122.35294 105.465734 122.562091 103.936127 122.771241 104.54219 122.980391 105.484967 123.189541 106.725941 123.398692 104.724996 123.607842 106.427743 123.816992 106.53357 124.026143 106.947211 124.026143 108.207468 124.444443 108.207468 124.653594 108.986671 124.862744 111.449439 125.071894 109.833236 125.490195 110.641337 125.699345 111.333996 125.908496 110.025658 126.117646 110.968434 126.326796 111.314713 126.535947 112.065118 126.535947 111.661042 126.954247 112.478759 127.163398 113.315709 127.372548 113.01751 127.581698 112.594202 127.790849 113.036742 128.209149 113.479232 128.62745 113.479232 128.8366 114.970375 129.045751 114.508603 129.045751 114.806801 129.464051 114.489371 129.673202 114.643278 129.882352 114.268101 130.091502 115.10505 130.300653 114.941527 130.509803 115.124282 130.718953 117.115662 130.928104 114.373928 131.137254 114.845316 131.346404 114.316181 131.555554 114.989607 131.555554 114.729873 131.973855 114.701025 132.392156 111.093494 132.601306 110.198797 132.810456 110.141101 133.019607 111.026131 133.228757 112.247873 133.437907 112.08435 133.647058 108.784633 133.856208 107.841907 134.065358 107.774544 134.065358 107.707182 134.483659 108.438354 134.692809 108.419072 134.90196 108.015047 135.11111 107.822625 135.529411 109.342616 135.738561 111.141574 135.947711 110.66057 136.156862 109.929447 136.366012 110.391219 136.575162 109.929447 136.575162 111.555215 136.993463 112.209409 137.202613 110.439299 137.411764 110.679802 137.620914 109.737025 137.830064 108.390224 138.039215 109.794772 138.248365 109.217557 138.457515 108.928975 138.875816 109.121346 139.084966 109.60235 139.084966 110.381603 139.503267 110.448916 139.712417 111.728405 139.921567 109.756257 140.130718 110.593207 140.339868 110.949152 140.549018 109.881367 140.758169 110.516278 140.967319 109.900599 141.176469 109.814004 141.59477 110.891456 141.59477 109.660097 142.013071 110.901072 142.222221 110.102586 142.431371 109.900599 142.640522 110.295008 142.849672 110.073738 143.058822 110.083354 143.267973 110.814477 143.477123 108.957823 143.686273 109.294536 143.895424 110.025658 144.104574 109.140578 144.104574 109.496523 144.522875 109.38108 144.732025 109.611966 144.941175 108.967439 145.359476 109.005903 145.568626 109.958295 145.777777 109.005903"></polyline>
                        <polyline id="Stroke-19" stroke="#458AFF" points="145.777777 109.005903 145.986927 108.419072 146.196077 108.977055 146.405228 108.245933 146.614378 109.640865 146.614378 109.294536 147.032679 109.592734 147.241829 109.179093 147.450979 108.168954 147.66013 108.294013 147.86928 108.303629 148.07843 111.891928 148.28758 107.360903 148.496731 107.303156 148.705881 109.246405 148.915031 107.418599 149.124182 106.523954 149.124182 107.51481 149.542482 107.197329 149.751633 107.928452 149.960783 106.158393 150.169933 106.995342 150.379084 106.293068 150.588234 107.081886 150.797384 108.592262 151.006535 105.850528 151.215685 105.177102 151.424835 105.677388 151.633986 104.821156 151.633986 105.879376 152.052286 106.58165 152.261437 107.986198 152.470587 106.53357 152.679737 106.379612 152.888888 107.033806 153.307188 104.773076 153.516339 104.426747 153.934639 107.399367 154.14379 107.649485 154.14379 109.717793 154.56209 109.361848 154.771241 112.113198 154.980391 112.555738 155.189541 111.680274 155.398692 111.747637 155.607842 112.324852 155.816992 111.093494 156.026143 111.968907 156.235293 111.247401 156.444443 110.920304 156.653594 112.478759 156.653594 113.027126 157.071894 113.296476 157.281044 113.690886 157.490195 113.739017 157.699345 112.209409 157.908495 111.891928 158.326796 113.306093 158.535946 112.113198 158.745097 112.113198 158.954247 112.940531 159.163397 113.50813 159.163397 114.075679 159.581698 115.32632 159.790848 114.951143 159.999999 116.721202 160.209149 115.489843 160.418299 115.489843 160.62745 116.269097 160.8366 116.317177 161.04575 117.750573 161.254901 119.799649 161.464051 117.90448 161.673201 117.481223 161.673201 119.328261 162.091502 121.059856 162.300652 120.097847 162.509803 120.059383 162.718953 120.973311 162.928103 120.174826 163.137254 122.089227 163.346404 120.078615 163.555554 120.550003 163.764705 121.165683 163.973855 121.415801 164.183005 122.175822 164.183005 124.311493 164.601306 123.666915 164.810456 122.570231 165.019607 123.176294 165.228757 120.11713 165.437907 121.608223 165.647057 122.079611 166.065358 119.203202 166.274508 120.078615 166.483659 120.43456 166.692809 121.396569 166.692809 122.25275 167.11111 121.993016 167.32026 122.291265 167.52941 121.791029 167.738561 121.127219 167.947711 122.175822 168.156861 122.454788 168.366012 121.858341 168.575162 121.588991 168.784312 121.9834 168.993463 122.512535 169.202613 123.724661 169.620914 124.07099 169.830064 126.081551 170.248365 124.119071 170.457515 125.100311 170.666665 124.340341 170.875816 125.706374 171.084966 125.879564 171.294116 125.581315 171.503267 126.476011 171.712417 126.803058 171.712417 127.303294 172.130718 128.332665 172.339868 127.659239 172.549018 128.101779 172.758169 126.880037 172.967319 126.177762 173.38562 127.091691 173.59477 127.543796 173.80392 127.774682"></polyline>
                        <polyline id="Stroke-21" stroke="#458AFF" points="173.80392 127.774682 174.01307 129.063788 174.222221 128.332665 174.222221 129.073404 174.640521 130.131623 174.849672 129.717931 175.267972 128.621248 175.477123 128.90988 175.686273 127.640007 175.895423 128.390361 176.104574 127.31291 176.313724 129.179231 176.522874 129.140766 176.732025 128.900264 176.732025 129.381269 177.150325 130.631859 177.359476 130.651091 177.568626 130.94934 177.777776 130.901209 177.986927 129.323522 178.196077 129.852657 178.405227 130.189319 178.614378 129.400501 178.823528 129.458197 179.032678 130.679939 179.241829 131.160944 179.241829 130.545264 179.660129 131.699695 179.86928 131.488041 180.07843 130.314378 180.496731 130.372125 180.705881 130.083543 180.915031 131.084015 181.124182 130.006564 181.333332 130.603011 181.542482 130.708838 181.751633 130.391357 181.751633 130.699222 182.169933 131.016652 182.379083 131.6131 182.588234 130.275914 182.797384 130.45872 183.006534 130.535648 183.215685 129.843041 183.424835 129.74683 183.843136 131.026268 184.052286 130.304762 184.261436 131.6131 184.261436 132.382737 184.679737 133.08496 184.888887 132.998416 185.098038 136.981125 185.307188 133.575631 185.516338 133.604479 185.934639 135.307226 186.143789 135.278378 186.35294 136.076812 186.56209 136.038348 186.77124 136.153791 186.77124 137.260091 187.189541 136.89453 187.398691 137.067719 187.607842 136.836833 187.816992 135.461133 188.026142 135.336074 188.235293 135.34569 188.444443 137.029205 188.862744 135.74015 189.071894 136.355829 189.281044 136.423141 189.281044 136.654028 189.699345 137.462129 189.908495 136.981125 190.117646 137.279323 190.326796 136.788703 190.745096 136.346213 190.954247 136.884914 191.163397 137.067719 191.372547 136.105711 191.581698 136.269234 191.790848 136.596331 191.790848 137.202395 192.209149 137.365918 192.627449 137.750711 192.8366 137.394766 193.04575 136.096095 193.2549 136.038348 193.464051 136.173023 193.882351 136.047964 194.091502 136.45199 194.300652 135.865209 194.300652 136.067196 194.718953 137.346686 194.928103 136.913762 195.137253 140.617504 195.346404 141.127356 195.555554 138.568428 195.764704 137.625652 196.183005 137.038821 196.392155 136.846449 197.228757 139.780555 197.437907 139.049432 197.647057 138.712719 197.856208 138.664639 198.065358 139.309167 198.274508 139.07828 198.483659 138.943605 198.692809 139.068664 198.901959 138.635791 199.111109 139.184107 199.32026 139.222622 199.32026 140.655968 199.73856 139.91523 199.947711 141.444837 200.156861 143.792162 200.366011 142.93593 200.575162 140.502061 200.784312 139.665112 200.993462 140.280791 201.202613 139.751707 201.411763 138.789698 201.620913 139.155259 201.830064 138.837778 201.830064 140.319306 202.248364 142.137495 202.457515 142.66658 202.666665 152.132756 203.084966 145.947014"></polyline>
                        <polyline id="Stroke-23" stroke="#458AFF" points="203.084966 145.947014 203.294116 144.686807 203.503266 144.109592 203.712417 144.2635 203.921567 144.31163 204.339868 143.118736 204.339868 143.003293 204.758168 143.667052 204.967319 144.186571 205.176469 144.273166 205.385619 143.532377 205.59477 143.955685 205.80392 142.782023 206.01307 143.532377 206.222221 143.436217 206.431371 143.42655 206.640521 142.83977 206.849672 142.541521 206.849672 143.849858 207.267972 144.205803 207.686273 145.514141 207.895423 144.35971 208.104573 144.244267 208.313724 143.503529 208.522874 143.465065 208.941175 142.753175 209.150325 142.83977 209.359475 143.243795 209.777776 142.868618 209.986926 144.542516 210.196077 154.441566 210.405227 147.091828 210.614377 143.82101 210.823528 143.580508 211.032678 143.186048 211.241828 142.272171 211.450979 142.464542 211.660129 141.896993 211.869279 140.944601 211.869279 141.983538 212.28758 140.742563 212.49673 140.550192 212.705881 139.193724 212.915031 139.530437 213.124181 140.771411 213.333332 140.223095 213.542482 140.684867 213.751632 139.25147 213.960783 139.617031 214.169933 140.80031 214.379083 140.713715 214.379083 140.915753 214.797384 141.704571 215.215685 138.645407 215.424835 138.501116 215.633985 139.0302 215.843136 138.731951 216.261436 140.684867 216.470586 138.655023 216.679737 139.20334 216.888887 138.578044 216.888887 138.914757 217.307188 140.338538 217.516338 138.174019 217.725488 138.664639 217.934639 135.903673 218.143789 134.614568 218.352939 134.489509 218.77124 132.382737 218.98039 131.815138 219.189541 131.83437 219.398691 131.411112 219.398691 132.363454 219.816992 130.872361 220.026142 131.593868 220.235292 129.217695 220.444443 125.658294 220.653593 124.590459 220.862743 124.378805 221.071894 124.532712 221.490194 123.349484 221.699345 121.752514 221.908495 122.195054 221.908495 122.666442 222.326796 120.290269 222.535946 120.21329 222.745096 117.279185 222.954247 118.039155 223.163397 116.509599 223.372547 116.403772 223.581698 115.008839 223.790848 114.248869 223.999998 112.892451 224.209149 110.699034 224.418299 109.515755 224.418299 108.534515 224.836599 107.572506 225.04575 106.860616 225.46405 103.56095 225.673201 102.993351 225.882351 100.646077 226.091501 102.358439 226.300652 101.184777 226.718952 99.7321484 226.928103 101.463794 226.928103 102.608557 227.346403 101.79084 227.555554 102.089089 227.764704 101.367583 228.183005 102.84906 228.392155 103.387811 228.601305 104.138165 228.810456 105.465734 229.019606 105.234848 229.228756 107.332004 229.437907 107.687949 229.437907 109.256021 229.856207 109.323384 230.065358 109.11173 230.274508 110.477764 230.483658 107.620637 230.692809 106.995342 230.901959 107.572506 231.111109 107.303156 231.32026 105.052043 231.52941 104.243992 231.73856 104.98473 231.947711 104.090034"></polyline>
                        <polyline id="Stroke-25" stroke="#458AFF" points="231.947711 104.090034 231.947711 104.801924 232.366011 103.532102 232.575162 103.551334 232.784312 100.953891 232.993462 99.6648361 233.202612 95.6243808 233.411763 96.5383089 233.620913 96.4901782 234.039214 91.7667313 234.248364 91.6993684 234.457514 92.0745456 234.457514 90.6508157 234.875815 87.7840227 235.084965 83.1567361 235.503266 81.5213523 235.712416 78.1254243 235.921567 77.1923146 236.130717 78.5295002 236.339867 80.3188418 236.758168 75.9320573 236.967318 75.6627071 236.967318 76.3842134 237.385619 78.9719896 237.594769 73.1422432 237.80392 72.4688171 238.22222 68.9574967 238.640521 69.9676358 239.058822 70.1407751 239.267972 77.1345678 239.477122 96.2881402 239.477122 92.2188873 239.895423 87.0432843 240.104573 90.9009338 240.104573 90.9009338"></polyline>
                        <g id="Group-29" transform="translate(60.339869, 0.000000)" stroke="#FF0000">
                            <polyline id="Stroke-27" points="0 135.809132 2.5098039 128.961605 5.0196078 123.646721 7.5294117 121.12565 10.0392156 118.260425 12.5490195 116.912359 15.0588234 110.147984 17.5686273 106.891641 20.0784312 106.923171 22.5882351 104.083151 25.098039 100.304606 27.6078429 97.4606891 30.1176468 96.0434374 32.6274507 92.0753554 35.1372546 88.9724634 37.6470585 86.1140717 40.1568624 81.6010641 42.6666663 76.084598 45.1764702 71.5878871 47.6862741 63.4795453 50.196078 56.9920115 52.7058819 51.3453746 55.2156858 46.3651796 57.7254897 34.96203 60.2352936 25.9211353 62.7450975 32.5584262 65.2549014 36.016656 67.7647053 24.3116135 70.2745092 15.0141731 72.7843131 11.0067665 75.294117 15.0485378 77.8039209 29.0210919 80.3137248 39.9219808 82.8235287 48.087462 85.3333326 48.9602943 87.8431365 44.1924618 90.3529404 44.7949317 92.8627443 38.6450726 95.3725482 35.447994 97.8823521 28.9548424 100.392156 28.9972036 102.90196 32.1784916 105.411764 35.5839344 107.921568 32.3330567 110.431372 31.7585239 112.941176 27.6104195 115.450979 28.148462 117.960783 22.1703756 120.470587 19.8889966 122.980391 16.7525498 125.490195 11.9025761 127.999999 9.89307784 130.509803 10.2184035 133.019607 10.0567023 135.529411 7.23211856 138.039215 0.370419783 140.549018 0 143.058822 2.32864936 145.568626 4.06722845 148.07843 16.5149831 150.588234 26.0498889 153.098038 23.4389836 155.607842 26.7795435 158.117646 30.5534323 160.62745 27.8739495 163.137254 26.6336835 165.647057 23.215588 168.156861 21.6125444 170.666665 19.9553473 173.176469 15.9760802 175.686273 16.7602426"></polyline>
                        </g>
                    </g>
                    <g id="Group-686">
                        <line x1="25.2839457" y1="4.40184214" x2="276.47504" y2="4.40184214" id="Stroke-31" stroke="#B99C9A" stroke-linecap="square"></line>
                        <line x1="276.47504" y1="197.231938" x2="276.47504" y2="4.40184214" id="Stroke-33" stroke="#B99C9A" stroke-linecap="square"></line>
                        <line x1="25.2839457" y1="197.231938" x2="276.47504" y2="197.231938" id="Stroke-35" stroke="#B99C9A" stroke-linecap="square"></line>
                        <line x1="25.2839457" y1="197.231938" x2="25.2839457" y2="4.40184214" id="Stroke-37" stroke="#B99C9A" stroke-linecap="square"></line>
                        <g id="Group-42" transform="translate(24.797903, 192.159597)">
                            <line x1="0.5" y1="5.07234048" x2="0.5" y2="0" id="Fill-39" fill="#B99C9A"></line>
                            <line x1="0.5" y1="5.07234048" x2="0.5" y2="0" id="Stroke-41" stroke="#B99C9A" stroke-linejoin="round"></line>
                        </g>
                        <g id="Group-46" transform="translate(24.797903, 4.401842)">
                            <line x1="0.5" y1="0" x2="0.5" y2="5.07234048" id="Fill-43" fill="#B99C9A"></line>
                            <line x1="0.5" y1="0" x2="0.5" y2="5.07234048" id="Stroke-45" stroke="#B99C9A" stroke-linejoin="round"></line>
                        </g>
                        <text id="1925" font-family="LucidaGrande, Lucida Grande" font-size="7.3031" font-weight="normal" letter-spacing="0.0155" fill="#B99C9A">
                            <tspan x="16.2514413" y="205.294746">1925</tspan>
                        </text>
                        <g id="Group-51" transform="translate(87.595677, 192.159597)">
                            <line x1="0.5" y1="5.07234048" x2="0.5" y2="0" id="Fill-48" fill="#B99C9A"></line>
                            <line x1="0.5" y1="5.07234048" x2="0.5" y2="0" id="Stroke-50" stroke="#B99C9A" stroke-linejoin="round"></line>
                        </g>
                        <g id="Group-55" transform="translate(87.595677, 4.401842)">
                            <line x1="0.5" y1="0" x2="0.5" y2="5.07234048" id="Fill-52" fill="#B99C9A"></line>
                            <line x1="0.5" y1="0" x2="0.5" y2="5.07234048" id="Stroke-54" stroke="#B99C9A" stroke-linejoin="round"></line>
                        </g>
                        <text id="1950" font-family="LucidaGrande, Lucida Grande" font-size="7.3031" font-weight="normal" letter-spacing="0.0155" fill="#B99C9A">
                            <tspan x="79.0492149" y="205.294746">1950</tspan>
                        </text>
                        <g id="Group-60" transform="translate(150.393450, 192.159597)">
                            <line x1="0.5" y1="5.07234048" x2="0.5" y2="0" id="Fill-57" fill="#B99C9A"></line>
                            <line x1="0.5" y1="5.07234048" x2="0.5" y2="0" id="Stroke-59" stroke="#B99C9A" stroke-linejoin="round"></line>
                        </g>
                        <g id="Group-64" transform="translate(150.393450, 4.401842)">
                            <line x1="0.5" y1="0" x2="0.5" y2="5.07234048" id="Fill-61" fill="#B99C9A"></line>
                            <line x1="0.5" y1="0" x2="0.5" y2="5.07234048" id="Stroke-63" stroke="#B99C9A" stroke-linejoin="round"></line>
                        </g>
                        <text id="1975" font-family="LucidaGrande, Lucida Grande" font-size="7.3031" font-weight="normal" letter-spacing="0.0155" fill="#B99C9A">
                            <tspan x="141.846988" y="205.294746">1975</tspan>
                        </text>
                        <g id="Group-69" transform="translate(213.191224, 192.159597)">
                            <line x1="0.5" y1="5.07234048" x2="0.5" y2="0" id="Fill-66" fill="#B99C9A"></line>
                            <line x1="0.5" y1="5.07234048" x2="0.5" y2="0" id="Stroke-68" stroke="#B99C9A" stroke-linejoin="round"></line>
                        </g>
                        <g id="Group-73" transform="translate(213.191224, 4.401842)">
                            <line x1="0.5" y1="0" x2="0.5" y2="5.07234048" id="Fill-70" fill="#B99C9A"></line>
                            <line x1="0.5" y1="0" x2="0.5" y2="5.07234048" id="Stroke-72" stroke="#B99C9A" stroke-linejoin="round"></line>
                        </g>
                        <text id="2000" font-family="LucidaGrande, Lucida Grande" font-size="7.3031" font-weight="normal" letter-spacing="0.0155" fill="#B99C9A">
                            <tspan x="204.644762" y="205.294746">2000</tspan>
                        </text>
                        <g id="Group-78" transform="translate(275.988998, 192.159597)">
                            <line x1="0.5" y1="5.07234048" x2="0.5" y2="0" id="Fill-75" fill="#B99C9A"></line>
                            <line x1="0.5" y1="5.07234048" x2="0.5" y2="0" id="Stroke-77" stroke="#B99C9A" stroke-linejoin="round"></line>
                        </g>
                        <g id="Group-82" transform="translate(275.988998, 4.401842)">
                            <line x1="0.5" y1="0" x2="0.5" y2="5.07234048" id="Fill-79" fill="#B99C9A"></line>
                            <line x1="0.5" y1="0" x2="0.5" y2="5.07234048" id="Stroke-81" stroke="#B99C9A" stroke-linejoin="round"></line>
                        </g>
                        <text id="2025" font-family="LucidaGrande, Lucida Grande" font-size="7.3031" font-weight="normal" letter-spacing="0.0155" fill="#B99C9A">
                            <tspan x="267.442536" y="205.294746">2025</tspan>
                        </text>
                        <g id="Group-87" transform="translate(24.797903, 194.695768)">
                            <line x1="0.5" y1="2.53617024" x2="0.5" y2="0" id="Fill-84" fill="#B99C9A"></line>
                            <line x1="0.5" y1="2.53617024" x2="0.5" y2="0" id="Stroke-86" stroke="#B99C9A" stroke-linejoin="round"></line>
                        </g>
                        <g id="Group-91" transform="translate(24.797903, 4.401842)">
                            <line x1="0.5" y1="0" x2="0.5" y2="2.53617024" id="Fill-88" fill="#B99C9A"></line>
                            <line x1="0.5" y1="0" x2="0.5" y2="2.53617024" id="Stroke-90" stroke="#B99C9A" stroke-linejoin="round"></line>
                        </g>
                        <g id="Group-95" transform="translate(37.357458, 194.695768)">
                            <line x1="0.5" y1="2.53617024" x2="0.5" y2="0" id="Fill-92" fill="#B99C9A"></line>
                            <line x1="0.5" y1="2.53617024" x2="0.5" y2="0" id="Stroke-94" stroke="#B99C9A" stroke-linejoin="round"></line>
                        </g>
                        <g id="Group-99" transform="translate(37.357458, 4.401842)">
                            <line x1="0.5" y1="0" x2="0.5" y2="2.53617024" id="Fill-96" fill="#B99C9A"></line>
                            <line x1="0.5" y1="0" x2="0.5" y2="2.53617024" id="Stroke-98" stroke="#B99C9A" stroke-linejoin="round"></line>
                        </g>
                        <g id="Group-103" transform="translate(49.917013, 194.695768)">
                            <line x1="0.5" y1="2.53617024" x2="0.5" y2="0" id="Fill-100" fill="#B99C9A"></line>
                            <line x1="0.5" y1="2.53617024" x2="0.5" y2="0" id="Stroke-102" stroke="#B99C9A" stroke-linejoin="round"></line>
                        </g>
                        <g id="Group-107" transform="translate(49.917013, 4.401842)">
                            <line x1="0.5" y1="0" x2="0.5" y2="2.53617024" id="Fill-104" fill="#B99C9A"></line>
                            <line x1="0.5" y1="0" x2="0.5" y2="2.53617024" id="Stroke-106" stroke="#B99C9A" stroke-linejoin="round"></line>
                        </g>
                        <g id="Group-111" transform="translate(62.476567, 194.695768)">
                            <line x1="0.5" y1="2.53617024" x2="0.5" y2="0" id="Fill-108" fill="#B99C9A"></line>
                            <line x1="0.5" y1="2.53617024" x2="0.5" y2="0" id="Stroke-110" stroke="#B99C9A" stroke-linejoin="round"></line>
                        </g>
                        <g id="Group-115" transform="translate(62.476567, 4.401842)">
                            <line x1="0.5" y1="0" x2="0.5" y2="2.53617024" id="Fill-112" fill="#B99C9A"></line>
                            <line x1="0.5" y1="0" x2="0.5" y2="2.53617024" id="Stroke-114" stroke="#B99C9A" stroke-linejoin="round"></line>
                        </g>
                        <g id="Group-119" transform="translate(75.036122, 194.695768)">
                            <line x1="0.5" y1="2.53617024" x2="0.5" y2="0" id="Fill-116" fill="#B99C9A"></line>
                            <line x1="0.5" y1="2.53617024" x2="0.5" y2="0" id="Stroke-118" stroke="#B99C9A" stroke-linejoin="round"></line>
                        </g>
                        <g id="Group-123" transform="translate(75.036122, 4.401842)">
                            <line x1="0.5" y1="0" x2="0.5" y2="2.53617024" id="Fill-120" fill="#B99C9A"></line>
                            <line x1="0.5" y1="0" x2="0.5" y2="2.53617024" id="Stroke-122" stroke="#B99C9A" stroke-linejoin="round"></line>
                        </g>
                        <g id="Group-127" transform="translate(87.595677, 194.695768)">
                            <line x1="0.5" y1="2.53617024" x2="0.5" y2="0" id="Fill-124" fill="#B99C9A"></line>
                            <line x1="0.5" y1="2.53617024" x2="0.5" y2="0" id="Stroke-126" stroke="#B99C9A" stroke-linejoin="round"></line>
                        </g>
                        <g id="Group-131" transform="translate(87.595677, 4.401842)">
                            <line x1="0.5" y1="0" x2="0.5" y2="2.53617024" id="Fill-128" fill="#B99C9A"></line>
                            <line x1="0.5" y1="0" x2="0.5" y2="2.53617024" id="Stroke-130" stroke="#B99C9A" stroke-linejoin="round"></line>
                        </g>
                        <g id="Group-135" transform="translate(100.155232, 194.695768)">
                            <line x1="0.5" y1="2.53617024" x2="0.5" y2="0" id="Fill-132" fill="#B99C9A"></line>
                            <line x1="0.5" y1="2.53617024" x2="0.5" y2="0" id="Stroke-134" stroke="#B99C9A" stroke-linejoin="round"></line>
                        </g>
                        <g id="Group-139" transform="translate(100.155232, 4.401842)">
                            <line x1="0.5" y1="0" x2="0.5" y2="2.53617024" id="Fill-136" fill="#B99C9A"></line>
                            <line x1="0.5" y1="0" x2="0.5" y2="2.53617024" id="Stroke-138" stroke="#B99C9A" stroke-linejoin="round"></line>
                        </g>
                        <g id="Group-143" transform="translate(112.714786, 194.695768)">
                            <line x1="0.5" y1="2.53617024" x2="0.5" y2="0" id="Fill-140" fill="#B99C9A"></line>
                            <line x1="0.5" y1="2.53617024" x2="0.5" y2="0" id="Stroke-142" stroke="#B99C9A" stroke-linejoin="round"></line>
                        </g>
                        <g id="Group-147" transform="translate(112.714786, 4.401842)">
                            <line x1="0.5" y1="0" x2="0.5" y2="2.53617024" id="Fill-144" fill="#B99C9A"></line>
                            <line x1="0.5" y1="0" x2="0.5" y2="2.53617024" id="Stroke-146" stroke="#B99C9A" stroke-linejoin="round"></line>
                        </g>
                        <g id="Group-151" transform="translate(125.274341, 194.695768)">
                            <line x1="0.5" y1="2.53617024" x2="0.5" y2="0" id="Fill-148" fill="#B99C9A"></line>
                            <line x1="0.5" y1="2.53617024" x2="0.5" y2="0" id="Stroke-150" stroke="#B99C9A" stroke-linejoin="round"></line>
                        </g>
                        <g id="Group-155" transform="translate(125.274341, 4.401842)">
                            <line x1="0.5" y1="0" x2="0.5" y2="2.53617024" id="Fill-152" fill="#B99C9A"></line>
                            <line x1="0.5" y1="0" x2="0.5" y2="2.53617024" id="Stroke-154" stroke="#B99C9A" stroke-linejoin="round"></line>
                        </g>
                        <g id="Group-159" transform="translate(137.833896, 194.695768)">
                            <line x1="0.5" y1="2.53617024" x2="0.5" y2="0" id="Fill-156" fill="#B99C9A"></line>
                            <line x1="0.5" y1="2.53617024" x2="0.5" y2="0" id="Stroke-158" stroke="#B99C9A" stroke-linejoin="round"></line>
                        </g>
                        <g id="Group-163" transform="translate(137.833896, 4.401842)">
                            <line x1="0.5" y1="0" x2="0.5" y2="2.53617024" id="Fill-160" fill="#B99C9A"></line>
                            <line x1="0.5" y1="0" x2="0.5" y2="2.53617024" id="Stroke-162" stroke="#B99C9A" stroke-linejoin="round"></line>
                        </g>
                        <g id="Group-167" transform="translate(150.393450, 194.695768)">
                            <line x1="0.5" y1="2.53617024" x2="0.5" y2="0" id="Fill-164" fill="#B99C9A"></line>
                            <line x1="0.5" y1="2.53617024" x2="0.5" y2="0" id="Stroke-166" stroke="#B99C9A" stroke-linejoin="round"></line>
                        </g>
                        <g id="Group-171" transform="translate(150.393450, 4.401842)">
                            <line x1="0.5" y1="0" x2="0.5" y2="2.53617024" id="Fill-168" fill="#B99C9A"></line>
                            <line x1="0.5" y1="0" x2="0.5" y2="2.53617024" id="Stroke-170" stroke="#B99C9A" stroke-linejoin="round"></line>
                        </g>
                        <g id="Group-175" transform="translate(162.953005, 194.695768)">
                            <line x1="0.5" y1="2.53617024" x2="0.5" y2="0" id="Fill-172" fill="#B99C9A"></line>
                            <line x1="0.5" y1="2.53617024" x2="0.5" y2="0" id="Stroke-174" stroke="#B99C9A" stroke-linejoin="round"></line>
                        </g>
                        <g id="Group-179" transform="translate(162.953005, 4.401842)">
                            <line x1="0.5" y1="0" x2="0.5" y2="2.53617024" id="Fill-176" fill="#B99C9A"></line>
                            <line x1="0.5" y1="0" x2="0.5" y2="2.53617024" id="Stroke-178" stroke="#B99C9A" stroke-linejoin="round"></line>
                        </g>
                        <g id="Group-183" transform="translate(175.512560, 194.695768)">
                            <line x1="0.5" y1="2.53617024" x2="0.5" y2="0" id="Fill-180" fill="#B99C9A"></line>
                            <line x1="0.5" y1="2.53617024" x2="0.5" y2="0" id="Stroke-182" stroke="#B99C9A" stroke-linejoin="round"></line>
                        </g>
                        <g id="Group-187" transform="translate(175.512560, 4.401842)">
                            <line x1="0.5" y1="0" x2="0.5" y2="2.53617024" id="Fill-184" fill="#B99C9A"></line>
                            <line x1="0.5" y1="0" x2="0.5" y2="2.53617024" id="Stroke-186" stroke="#B99C9A" stroke-linejoin="round"></line>
                        </g>
                        <g id="Group-191" transform="translate(188.072115, 194.695768)">
                            <line x1="0.5" y1="2.53617024" x2="0.5" y2="0" id="Fill-188" fill="#B99C9A"></line>
                            <line x1="0.5" y1="2.53617024" x2="0.5" y2="0" id="Stroke-190" stroke="#B99C9A" stroke-linejoin="round"></line>
                        </g>
                        <g id="Group-195" transform="translate(188.072115, 4.401842)">
                            <line x1="0.5" y1="0" x2="0.5" y2="2.53617024" id="Fill-192" fill="#B99C9A"></line>
                            <line x1="0.5" y1="0" x2="0.5" y2="2.53617024" id="Stroke-194" stroke="#B99C9A" stroke-linejoin="round"></line>
                        </g>
                        <g id="Group-199" transform="translate(200.631669, 194.695768)">
                            <line x1="0.5" y1="2.53617024" x2="0.5" y2="0" id="Fill-196" fill="#B99C9A"></line>
                            <line x1="0.5" y1="2.53617024" x2="0.5" y2="0" id="Stroke-198" stroke="#B99C9A" stroke-linejoin="round"></line>
                        </g>
                        <g id="Group-203" transform="translate(200.631669, 4.401842)">
                            <line x1="0.5" y1="0" x2="0.5" y2="2.53617024" id="Fill-200" fill="#B99C9A"></line>
                            <line x1="0.5" y1="0" x2="0.5" y2="2.53617024" id="Stroke-202" stroke="#B99C9A" stroke-linejoin="round"></line>
                        </g>
                        <g id="Group-207" transform="translate(213.191224, 194.695768)">
                            <line x1="0.5" y1="2.53617024" x2="0.5" y2="0" id="Fill-204" fill="#B99C9A"></line>
                            <line x1="0.5" y1="2.53617024" x2="0.5" y2="0" id="Stroke-206" stroke="#B99C9A" stroke-linejoin="round"></line>
                        </g>
                        <g id="Group-211" transform="translate(213.191224, 4.401842)">
                            <line x1="0.5" y1="0" x2="0.5" y2="2.53617024" id="Fill-208" fill="#B99C9A"></line>
                            <line x1="0.5" y1="0" x2="0.5" y2="2.53617024" id="Stroke-210" stroke="#B99C9A" stroke-linejoin="round"></line>
                        </g>
                        <g id="Group-215" transform="translate(225.750779, 194.695768)">
                            <line x1="0.5" y1="2.53617024" x2="0.5" y2="0" id="Fill-212" fill="#B99C9A"></line>
                            <line x1="0.5" y1="2.53617024" x2="0.5" y2="0" id="Stroke-214" stroke="#B99C9A" stroke-linejoin="round"></line>
                        </g>
                        <g id="Group-219" transform="translate(225.750779, 4.401842)">
                            <line x1="0.5" y1="0" x2="0.5" y2="2.53617024" id="Fill-216" fill="#B99C9A"></line>
                            <line x1="0.5" y1="0" x2="0.5" y2="2.53617024" id="Stroke-218" stroke="#B99C9A" stroke-linejoin="round"></line>
                        </g>
                        <g id="Group-223" transform="translate(238.310333, 194.695768)">
                            <line x1="0.5" y1="2.53617024" x2="0.5" y2="0" id="Fill-220" fill="#B99C9A"></line>
                            <line x1="0.5" y1="2.53617024" x2="0.5" y2="0" id="Stroke-222" stroke="#B99C9A" stroke-linejoin="round"></line>
                        </g>
                        <g id="Group-227" transform="translate(238.310333, 4.401842)">
                            <line x1="0.5" y1="0" x2="0.5" y2="2.53617024" id="Fill-224" fill="#B99C9A"></line>
                            <line x1="0.5" y1="0" x2="0.5" y2="2.53617024" id="Stroke-226" stroke="#B99C9A" stroke-linejoin="round"></line>
                        </g>
                        <g id="Group-231" transform="translate(250.869888, 194.695768)">
                            <line x1="0.5" y1="2.53617024" x2="0.5" y2="0" id="Fill-228" fill="#B99C9A"></line>
                            <line x1="0.5" y1="2.53617024" x2="0.5" y2="0" id="Stroke-230" stroke="#B99C9A" stroke-linejoin="round"></line>
                        </g>
                        <g id="Group-235" transform="translate(250.869888, 4.401842)">
                            <line x1="0.5" y1="0" x2="0.5" y2="2.53617024" id="Fill-232" fill="#B99C9A"></line>
                            <line x1="0.5" y1="0" x2="0.5" y2="2.53617024" id="Stroke-234" stroke="#B99C9A" stroke-linejoin="round"></line>
                        </g>
                        <g id="Group-239" transform="translate(263.429443, 194.695768)">
                            <line x1="0.5" y1="2.53617024" x2="0.5" y2="0" id="Fill-236" fill="#B99C9A"></line>
                            <line x1="0.5" y1="2.53617024" x2="0.5" y2="0" id="Stroke-238" stroke="#B99C9A" stroke-linejoin="round"></line>
                        </g>
                        <g id="Group-243" transform="translate(263.429443, 4.401842)">
                            <line x1="0.5" y1="0" x2="0.5" y2="2.53617024" id="Fill-240" fill="#B99C9A"></line>
                            <line x1="0.5" y1="0" x2="0.5" y2="2.53617024" id="Stroke-242" stroke="#B99C9A" stroke-linejoin="round"></line>
                        </g>
                        <g id="Group-247" transform="translate(275.988998, 194.695768)">
                            <line x1="0.5" y1="2.53617024" x2="0.5" y2="0" id="Fill-244" fill="#B99C9A"></line>
                            <line x1="0.5" y1="2.53617024" x2="0.5" y2="0" id="Stroke-246" stroke="#B99C9A" stroke-linejoin="round"></line>
                        </g>
                        <g id="Group-251" transform="translate(275.988998, 4.401842)">
                            <line x1="0.5" y1="0" x2="0.5" y2="2.53617024" id="Fill-248" fill="#B99C9A"></line>
                            <line x1="0.5" y1="0" x2="0.5" y2="2.53617024" id="Stroke-250" stroke="#B99C9A" stroke-linejoin="round"></line>
                        </g>
                        <text id="Năm" font-family="Helvetica-Bold, Helvetica" font-size="8.3464" font-weight="bold" letter-spacing="0.014" fill="#B99C9A">
                            <tspan x="141.827161" y="218.276353">Năm</tspan>
                        </text>
                        <g id="Group-256" transform="translate(25.283946, 196.745756)">
                            <line x1="0" y1="0.5" x2="5.07087965" y2="0.5" id="Fill-253" fill="#B99C9A"></line>
                            <line x1="0" y1="0.5" x2="5.07087965" y2="0.5" id="Stroke-255" stroke="#B99C9A" stroke-linejoin="round"></line>
                        </g>
                        <text id="0" font-family="LucidaGrande, Lucida Grande" font-size="7.3031" font-weight="normal" fill="#B99C9A">
                            <tspan x="18.7393416" y="197.830091">0</tspan>
                        </text>
                        <g id="Group-261" transform="translate(25.283946, 177.462746)">
                            <line x1="0" y1="0.5" x2="5.07087965" y2="0.5" id="Fill-258" fill="#B99C9A"></line>
                            <line x1="0" y1="0.5" x2="5.07087965" y2="0.5" id="Stroke-260" stroke="#B99C9A" stroke-linejoin="round"></line>
                        </g>
                        <text id="2" font-family="LucidaGrande, Lucida Grande" font-size="7.3031" font-weight="normal" fill="#B99C9A">
                            <tspan x="18.7393416" y="180.547081">2</tspan>
                        </text>
                        <g id="Group-266" transform="translate(25.283946, 158.179736)">
                            <line x1="0" y1="0.5" x2="5.07087965" y2="0.5" id="Fill-263" fill="#B99C9A"></line>
                            <line x1="0" y1="0.5" x2="5.07087965" y2="0.5" id="Stroke-265" stroke="#B99C9A" stroke-linejoin="round"></line>
                        </g>
                        <text id="4" font-family="LucidaGrande, Lucida Grande" font-size="7.3031" font-weight="normal" fill="#B99C9A">
                            <tspan x="18.7393416" y="161.264077">4</tspan>
                        </text>
                        <g id="Group-271" transform="translate(25.283946, 138.896727)">
                            <line x1="0" y1="0.5" x2="5.07087965" y2="0.5" id="Fill-268" fill="#B99C9A"></line>
                            <line x1="0" y1="0.5" x2="5.07087965" y2="0.5" id="Stroke-270" stroke="#B99C9A" stroke-linejoin="round"></line>
                        </g>
                        <text id="6" font-family="LucidaGrande, Lucida Grande" font-size="7.3031" font-weight="normal" fill="#B99C9A">
                            <tspan x="18.7393416" y="141.981067">6</tspan>
                        </text>
                        <g id="Group-276" transform="translate(25.283946, 119.613717)">
                            <line x1="0" y1="0.5" x2="5.07087965" y2="0.5" id="Fill-273" fill="#B99C9A"></line>
                            <line x1="0" y1="0.5" x2="5.07087965" y2="0.5" id="Stroke-275" stroke="#B99C9A" stroke-linejoin="round"></line>
                        </g>
                        <text id="8" font-family="LucidaGrande, Lucida Grande" font-size="7.3031" font-weight="normal" fill="#B99C9A">
                            <tspan x="18.7393416" y="122.698057">8</tspan>
                        </text>
                        <g id="Group-281" transform="translate(25.283946, 100.330708)">
                            <line x1="0" y1="0.5" x2="5.07087965" y2="0.5" id="Fill-278" fill="#B99C9A"></line>
                            <line x1="0" y1="0.5" x2="5.07087965" y2="0.5" id="Stroke-280" stroke="#B99C9A" stroke-linejoin="round"></line>
                        </g>
                        <text id="10" font-family="LucidaGrande, Lucida Grande" font-size="7.3031" font-weight="normal" letter-spacing="0.0155" fill="#B99C9A">
                            <tspan x="14.2230894" y="103.415048">10</tspan>
                        </text>
                        <g id="Group-286" transform="translate(25.283946, 81.047698)">
                            <line x1="0" y1="0.5" x2="5.07087965" y2="0.5" id="Fill-283" fill="#B99C9A"></line>
                            <line x1="0" y1="0.5" x2="5.07087965" y2="0.5" id="Stroke-285" stroke="#B99C9A" stroke-linejoin="round"></line>
                        </g>
                        <text id="12" font-family="LucidaGrande, Lucida Grande" font-size="7.3031" font-weight="normal" letter-spacing="0.0155" fill="#B99C9A">
                            <tspan x="14.2230894" y="84.1320383">12</tspan>
                        </text>
                        <g id="Group-291" transform="translate(25.283946, 61.764689)">
                            <line x1="0" y1="0.5" x2="5.07087965" y2="0.5" id="Fill-288" fill="#B99C9A"></line>
                            <line x1="0" y1="0.5" x2="5.07087965" y2="0.5" id="Stroke-290" stroke="#B99C9A" stroke-linejoin="round"></line>
                        </g>
                        <text id="14" font-family="LucidaGrande, Lucida Grande" font-size="7.3031" font-weight="normal" letter-spacing="0.0155" fill="#B99C9A">
                            <tspan x="14.2230894" y="64.8490287">14</tspan>
                        </text>
                        <g id="Group-296" transform="translate(25.283946, 42.481679)">
                            <line x1="0" y1="0.5" x2="5.07087965" y2="0.5" id="Fill-293" fill="#B99C9A"></line>
                            <line x1="0" y1="0.5" x2="5.07087965" y2="0.5" id="Stroke-295" stroke="#B99C9A" stroke-linejoin="round"></line>
                        </g>
                        <text id="16" font-family="LucidaGrande, Lucida Grande" font-size="7.3031" font-weight="normal" letter-spacing="0.0155" fill="#B99C9A">
                            <tspan x="14.2230894" y="45.5660192">16</tspan>
                        </text>
                        <g id="Group-301" transform="translate(25.283946, 23.198669)">
                            <line x1="0" y1="0.5" x2="5.07087965" y2="0.5" id="Fill-298" fill="#B99C9A"></line>
                            <line x1="0" y1="0.5" x2="5.07087965" y2="0.5" id="Stroke-300" stroke="#B99C9A" stroke-linejoin="round"></line>
                        </g>
                        <text id="18" font-family="LucidaGrande, Lucida Grande" font-size="7.3031" font-weight="normal" letter-spacing="0.0155" fill="#B99C9A">
                            <tspan x="14.2230894" y="26.2830096">18</tspan>
                        </text>
                        <g id="Group-306" transform="translate(25.283946, 3.915660)">
                            <line x1="0" y1="0.5" x2="5.07087965" y2="0.5" id="Fill-303" fill="#B99C9A"></line>
                            <line x1="0" y1="0.5" x2="5.07087965" y2="0.5" id="Stroke-305" stroke="#B99C9A" stroke-linejoin="round"></line>
                        </g>
                        <text id="20" font-family="LucidaGrande, Lucida Grande" font-size="7.3031" font-weight="normal" letter-spacing="0.0155" fill="#B99C9A">
                            <tspan x="14.2230894" y="7">20</tspan>
                        </text>
                        <g id="Group-311" transform="translate(25.283946, 196.745756)">
                            <line x1="0" y1="0.5" x2="2.53543982" y2="0.5" id="Fill-308" fill="#B99C9A"></line>
                            <line x1="0" y1="0.5" x2="2.53543982" y2="0.5" id="Stroke-310" stroke="#B99C9A" stroke-linejoin="round"></line>
                        </g>
                        <g id="Group-315" transform="translate(25.283946, 191.925003)">
                            <line x1="0" y1="0.5" x2="2.53543982" y2="0.5" id="Fill-312" fill="#B99C9A"></line>
                            <line x1="0" y1="0.5" x2="2.53543982" y2="0.5" id="Stroke-314" stroke="#B99C9A" stroke-linejoin="round"></line>
                        </g>
                        <g id="Group-319" transform="translate(25.283946, 187.104251)">
                            <line x1="0" y1="0.5" x2="2.53543982" y2="0.5" id="Fill-316" fill="#B99C9A"></line>
                            <line x1="0" y1="0.5" x2="2.53543982" y2="0.5" id="Stroke-318" stroke="#B99C9A" stroke-linejoin="round"></line>
                        </g>
                        <g id="Group-323" transform="translate(25.283946, 182.283498)">
                            <line x1="0" y1="0.5" x2="2.53543982" y2="0.5" id="Fill-320" fill="#B99C9A"></line>
                            <line x1="0" y1="0.5" x2="2.53543982" y2="0.5" id="Stroke-322" stroke="#B99C9A" stroke-linejoin="round"></line>
                        </g>
                        <g id="Group-327" transform="translate(25.283946, 177.462746)">
                            <line x1="0" y1="0.5" x2="2.53543982" y2="0.5" id="Fill-324" fill="#B99C9A"></line>
                            <line x1="0" y1="0.5" x2="2.53543982" y2="0.5" id="Stroke-326" stroke="#B99C9A" stroke-linejoin="round"></line>
                        </g>
                        <g id="Group-331" transform="translate(25.283946, 172.641994)">
                            <line x1="0" y1="0.5" x2="2.53543982" y2="0.5" id="Fill-328" fill="#B99C9A"></line>
                            <line x1="0" y1="0.5" x2="2.53543982" y2="0.5" id="Stroke-330" stroke="#B99C9A" stroke-linejoin="round"></line>
                        </g>
                        <g id="Group-335" transform="translate(25.283946, 167.821241)">
                            <line x1="0" y1="0.5" x2="2.53543982" y2="0.5" id="Fill-332" fill="#B99C9A"></line>
                            <line x1="0" y1="0.5" x2="2.53543982" y2="0.5" id="Stroke-334" stroke="#B99C9A" stroke-linejoin="round"></line>
                        </g>
                        <g id="Group-339" transform="translate(25.283946, 163.000489)">
                            <line x1="0" y1="0.5" x2="2.53543982" y2="0.5" id="Fill-336" fill="#B99C9A"></line>
                            <line x1="0" y1="0.5" x2="2.53543982" y2="0.5" id="Stroke-338" stroke="#B99C9A" stroke-linejoin="round"></line>
                        </g>
                        <g id="Group-343" transform="translate(25.283946, 158.179736)">
                            <line x1="0" y1="0.5" x2="2.53543982" y2="0.5" id="Fill-340" fill="#B99C9A"></line>
                            <line x1="0" y1="0.5" x2="2.53543982" y2="0.5" id="Stroke-342" stroke="#B99C9A" stroke-linejoin="round"></line>
                        </g>
                        <g id="Group-347" transform="translate(25.283946, 153.358984)">
                            <line x1="0" y1="0.5" x2="2.53543982" y2="0.5" id="Fill-344" fill="#B99C9A"></line>
                            <line x1="0" y1="0.5" x2="2.53543982" y2="0.5" id="Stroke-346" stroke="#B99C9A" stroke-linejoin="round"></line>
                        </g>
                        <g id="Group-351" transform="translate(25.283946, 148.538232)">
                            <line x1="0" y1="0.5" x2="2.53543982" y2="0.5" id="Fill-348" fill="#B99C9A"></line>
                            <line x1="0" y1="0.5" x2="2.53543982" y2="0.5" id="Stroke-350" stroke="#B99C9A" stroke-linejoin="round"></line>
                        </g>
                        <g id="Group-355" transform="translate(25.283946, 143.717479)">
                            <line x1="0" y1="0.5" x2="2.53543982" y2="0.5" id="Fill-352" fill="#B99C9A"></line>
                            <line x1="0" y1="0.5" x2="2.53543982" y2="0.5" id="Stroke-354" stroke="#B99C9A" stroke-linejoin="round"></line>
                        </g>
                        <g id="Group-359" transform="translate(25.283946, 138.896727)">
                            <line x1="0" y1="0.5" x2="2.53543982" y2="0.5" id="Fill-356" fill="#B99C9A"></line>
                            <line x1="0" y1="0.5" x2="2.53543982" y2="0.5" id="Stroke-358" stroke="#B99C9A" stroke-linejoin="round"></line>
                        </g>
                        <g id="Group-363" transform="translate(25.283946, 134.075974)">
                            <line x1="0" y1="0.5" x2="2.53543982" y2="0.5" id="Fill-360" fill="#B99C9A"></line>
                            <line x1="0" y1="0.5" x2="2.53543982" y2="0.5" id="Stroke-362" stroke="#B99C9A" stroke-linejoin="round"></line>
                        </g>
                        <g id="Group-367" transform="translate(25.283946, 129.255222)">
                            <line x1="0" y1="0.5" x2="2.53543982" y2="0.5" id="Fill-364" fill="#B99C9A"></line>
                            <line x1="0" y1="0.5" x2="2.53543982" y2="0.5" id="Stroke-366" stroke="#B99C9A" stroke-linejoin="round"></line>
                        </g>
                        <g id="Group-371" transform="translate(25.283946, 124.434470)">
                            <line x1="0" y1="0.5" x2="2.53543982" y2="0.5" id="Fill-368" fill="#B99C9A"></line>
                            <line x1="0" y1="0.5" x2="2.53543982" y2="0.5" id="Stroke-370" stroke="#B99C9A" stroke-linejoin="round"></line>
                        </g>
                        <g id="Group-375" transform="translate(25.283946, 119.613717)">
                            <line x1="0" y1="0.5" x2="2.53543982" y2="0.5" id="Fill-372" fill="#B99C9A"></line>
                            <line x1="0" y1="0.5" x2="2.53543982" y2="0.5" id="Stroke-374" stroke="#B99C9A" stroke-linejoin="round"></line>
                        </g>
                        <g id="Group-379" transform="translate(25.283946, 114.792965)">
                            <line x1="0" y1="0.5" x2="2.53543982" y2="0.5" id="Fill-376" fill="#B99C9A"></line>
                            <line x1="0" y1="0.5" x2="2.53543982" y2="0.5" id="Stroke-378" stroke="#B99C9A" stroke-linejoin="round"></line>
                        </g>
                        <g id="Group-383" transform="translate(25.283946, 109.972212)">
                            <line x1="0" y1="0.5" x2="2.53543982" y2="0.5" id="Fill-380" fill="#B99C9A"></line>
                            <line x1="0" y1="0.5" x2="2.53543982" y2="0.5" id="Stroke-382" stroke="#B99C9A" stroke-linejoin="round"></line>
                        </g>
                        <g id="Group-387" transform="translate(25.283946, 105.151460)">
                            <line x1="0" y1="0.5" x2="2.53543982" y2="0.5" id="Fill-384" fill="#B99C9A"></line>
                            <line x1="0" y1="0.5" x2="2.53543982" y2="0.5" id="Stroke-386" stroke="#B99C9A" stroke-linejoin="round"></line>
                        </g>
                        <g id="Group-391" transform="translate(25.283946, 100.330708)">
                            <line x1="0" y1="0.5" x2="2.53543982" y2="0.5" id="Fill-388" fill="#B99C9A"></line>
                            <line x1="0" y1="0.5" x2="2.53543982" y2="0.5" id="Stroke-390" stroke="#B99C9A" stroke-linejoin="round"></line>
                        </g>
                        <g id="Group-395" transform="translate(25.283946, 95.509955)">
                            <line x1="0" y1="0.5" x2="2.53543982" y2="0.5" id="Fill-392" fill="#B99C9A"></line>
                            <line x1="0" y1="0.5" x2="2.53543982" y2="0.5" id="Stroke-394" stroke="#B99C9A" stroke-linejoin="round"></line>
                        </g>
                        <g id="Group-399" transform="translate(25.283946, 90.689203)">
                            <line x1="0" y1="0.5" x2="2.53543982" y2="0.5" id="Fill-396" fill="#B99C9A"></line>
                            <line x1="0" y1="0.5" x2="2.53543982" y2="0.5" id="Stroke-398" stroke="#B99C9A" stroke-linejoin="round"></line>
                        </g>
                        <g id="Group-403" transform="translate(25.283946, 85.868451)">
                            <line x1="0" y1="0.5" x2="2.53543982" y2="0.5" id="Fill-400" fill="#B99C9A"></line>
                            <line x1="0" y1="0.5" x2="2.53543982" y2="0.5" id="Stroke-402" stroke="#B99C9A" stroke-linejoin="round"></line>
                        </g>
                        <g id="Group-407" transform="translate(25.283946, 81.047698)">
                            <line x1="0" y1="0.5" x2="2.53543982" y2="0.5" id="Fill-404" fill="#B99C9A"></line>
                            <line x1="0" y1="0.5" x2="2.53543982" y2="0.5" id="Stroke-406" stroke="#B99C9A" stroke-linejoin="round"></line>
                        </g>
                        <g id="Group-411" transform="translate(25.283946, 76.226946)">
                            <line x1="0" y1="0.5" x2="2.53543982" y2="0.5" id="Fill-408" fill="#B99C9A"></line>
                            <line x1="0" y1="0.5" x2="2.53543982" y2="0.5" id="Stroke-410" stroke="#B99C9A" stroke-linejoin="round"></line>
                        </g>
                        <g id="Group-415" transform="translate(25.283946, 71.406193)">
                            <line x1="0" y1="0.5" x2="2.53543982" y2="0.5" id="Fill-412" fill="#B99C9A"></line>
                            <line x1="0" y1="0.5" x2="2.53543982" y2="0.5" id="Stroke-414" stroke="#B99C9A" stroke-linejoin="round"></line>
                        </g>
                        <g id="Group-419" transform="translate(25.283946, 66.585441)">
                            <line x1="0" y1="0.5" x2="2.53543982" y2="0.5" id="Fill-416" fill="#B99C9A"></line>
                            <line x1="0" y1="0.5" x2="2.53543982" y2="0.5" id="Stroke-418" stroke="#B99C9A" stroke-linejoin="round"></line>
                        </g>
                        <g id="Group-423" transform="translate(25.283946, 61.764689)">
                            <line x1="0" y1="0.5" x2="2.53543982" y2="0.5" id="Fill-420" fill="#B99C9A"></line>
                            <line x1="0" y1="0.5" x2="2.53543982" y2="0.5" id="Stroke-422" stroke="#B99C9A" stroke-linejoin="round"></line>
                        </g>
                        <g id="Group-427" transform="translate(25.283946, 56.943936)">
                            <line x1="0" y1="0.5" x2="2.53543982" y2="0.5" id="Fill-424" fill="#B99C9A"></line>
                            <line x1="0" y1="0.5" x2="2.53543982" y2="0.5" id="Stroke-426" stroke="#B99C9A" stroke-linejoin="round"></line>
                        </g>
                        <g id="Group-431" transform="translate(25.283946, 52.123184)">
                            <line x1="0" y1="0.5" x2="2.53543982" y2="0.5" id="Fill-428" fill="#B99C9A"></line>
                            <line x1="0" y1="0.5" x2="2.53543982" y2="0.5" id="Stroke-430" stroke="#B99C9A" stroke-linejoin="round"></line>
                        </g>
                        <g id="Group-435" transform="translate(25.283946, 47.302431)">
                            <line x1="0" y1="0.5" x2="2.53543982" y2="0.5" id="Fill-432" fill="#B99C9A"></line>
                            <line x1="0" y1="0.5" x2="2.53543982" y2="0.5" id="Stroke-434" stroke="#B99C9A" stroke-linejoin="round"></line>
                        </g>
                        <g id="Group-439" transform="translate(25.283946, 42.481679)">
                            <line x1="0" y1="0.5" x2="2.53543982" y2="0.5" id="Fill-436" fill="#B99C9A"></line>
                            <line x1="0" y1="0.5" x2="2.53543982" y2="0.5" id="Stroke-438" stroke="#B99C9A" stroke-linejoin="round"></line>
                        </g>
                        <g id="Group-443" transform="translate(25.283946, 37.660927)">
                            <line x1="0" y1="0.5" x2="2.53543982" y2="0.5" id="Fill-440" fill="#B99C9A"></line>
                            <line x1="0" y1="0.5" x2="2.53543982" y2="0.5" id="Stroke-442" stroke="#B99C9A" stroke-linejoin="round"></line>
                        </g>
                        <g id="Group-447" transform="translate(25.283946, 32.840174)">
                            <line x1="0" y1="0.5" x2="2.53543982" y2="0.5" id="Fill-444" fill="#B99C9A"></line>
                            <line x1="0" y1="0.5" x2="2.53543982" y2="0.5" id="Stroke-446" stroke="#B99C9A" stroke-linejoin="round"></line>
                        </g>
                        <g id="Group-451" transform="translate(25.283946, 28.019422)">
                            <line x1="0" y1="0.5" x2="2.53543982" y2="0.5" id="Fill-448" fill="#B99C9A"></line>
                            <line x1="0" y1="0.5" x2="2.53543982" y2="0.5" id="Stroke-450" stroke="#B99C9A" stroke-linejoin="round"></line>
                        </g>
                        <g id="Group-455" transform="translate(25.283946, 23.198669)">
                            <line x1="0" y1="0.5" x2="2.53543982" y2="0.5" id="Fill-452" fill="#B99C9A"></line>
                            <line x1="0" y1="0.5" x2="2.53543982" y2="0.5" id="Stroke-454" stroke="#B99C9A" stroke-linejoin="round"></line>
                        </g>
                        <g id="Group-459" transform="translate(25.283946, 18.377917)">
                            <line x1="0" y1="0.5" x2="2.53543982" y2="0.5" id="Fill-456" fill="#B99C9A"></line>
                            <line x1="0" y1="0.5" x2="2.53543982" y2="0.5" id="Stroke-458" stroke="#B99C9A" stroke-linejoin="round"></line>
                        </g>
                        <g id="Group-463" transform="translate(25.283946, 13.557165)">
                            <line x1="0" y1="0.5" x2="2.53543982" y2="0.5" id="Fill-460" fill="#B99C9A"></line>
                            <line x1="0" y1="0.5" x2="2.53543982" y2="0.5" id="Stroke-462" stroke="#B99C9A" stroke-linejoin="round"></line>
                        </g>
                        <g id="Group-467" transform="translate(25.283946, 8.736412)">
                            <line x1="0" y1="0.5" x2="2.53543982" y2="0.5" id="Fill-464" fill="#B99C9A"></line>
                            <line x1="0" y1="0.5" x2="2.53543982" y2="0.5" id="Stroke-466" stroke="#B99C9A" stroke-linejoin="round"></line>
                        </g>
                        <g id="Group-471" transform="translate(25.283946, 3.915660)">
                            <line x1="0" y1="0.5" x2="2.53543982" y2="0.5" id="Fill-468" fill="#B99C9A"></line>
                            <line x1="0" y1="0.5" x2="2.53543982" y2="0.5" id="Stroke-470" stroke="#B99C9A" stroke-linejoin="round"></line>
                        </g>
                        <text id="Triệu-thùng/ngày" transform="translate(5.000000, 88.332995) rotate(-90.000000) translate(-5.000000, -88.332995) " font-family="Helvetica-Bold, Helvetica" font-size="8.3464" font-weight="bold" letter-spacing="0.0205" fill="#B99C9A">
                            <tspan x="-34.5" y="91.3329946">Triệu thùng/ngày</tspan>
                        </text>
                        <g id="Group-476" transform="translate(145.329477, 91.064110) rotate(31.000000) translate(-145.329477, -91.064110) translate(143.808213, 84.119011)">
                            <path d="M1.64803589,0 C1.64803589,3.27759425 1.64803589,6.55513778 1.64803589,9.8326813 L3.04252779,9.8326813 C2.53543982,11.1852209 2.02835186,12.5377098 1.52126389,13.8901986 C1.01417593,12.5377098 0.507087965,11.1852209 0,9.8326813 L1.3944919,9.8326813 C1.3944919,6.55513778 1.3944919,3.27759425 1.3944919,0 L1.64803589,0 Z" id="Fill-473" fill="#B99C9A"></path>
                            <path d="M1.64803589,0 C1.64803589,3.27759425 1.64803589,6.55513778 1.64803589,9.8326813 L3.04252779,9.8326813 C2.53543982,11.1852209 2.02835186,12.5377098 1.52126389,13.8901986 C1.01417593,12.5377098 0.507087965,11.1852209 0,9.8326813 L1.3944919,9.8326813 C1.3944919,6.55513778 1.3944919,3.27759425 1.3944919,0 L1.64803589,0 Z" id="Stroke-475" stroke="#B99C9A" stroke-linecap="round" stroke-linejoin="round"></path>
                        </g>
                        <text id="Đỉnh-sản-lượng-dầu-t" font-family="LucidaGrande, Lucida Grande" font-size="7.3031" font-weight="normal" letter-spacing="0.013" fill="#B99C9A">
                            <tspan x="150.329477" y="64.1704628">Đỉnh sản </tspan>
                            <tspan x="150.329477" y="73.1704628">lượng dầu </tspan>
                            <tspan x="150.329477" y="82.1704628">thông </tspan>
                            <tspan x="150.329477" y="91.1704628">thường</tspan>
                        </text>
                        <g id="Group-481" transform="translate(183.254558, 101.704271) rotate(35.000000) translate(-183.254558, -101.704271) translate(181.733294, 96.492771)">
                            <path d="M1.64803589,0 C1.64803589,2.12186147 1.64803589,4.24367222 1.64803589,6.36553369 L3.04252779,6.36553369 C2.53543982,7.71802256 2.02835186,9.07051142 1.52126389,10.4230003 C1.01417593,9.07051142 0.507087965,7.71802256 0,6.36553369 L1.3944919,6.36553369 C1.3944919,4.24367222 1.3944919,2.12186147 1.3944919,0 L1.64803589,0 Z" id="Fill-478" fill="#B99C9A"></path>
                            <path d="M1.64803589,0 C1.64803589,2.12186147 1.64803589,4.24367222 1.64803589,6.36553369 L3.04252779,6.36553369 C2.53543982,7.71802256 2.02835186,9.07051142 1.52126389,10.4230003 C1.01417593,9.07051142 0.507087965,7.71802256 0,6.36553369 L1.3944919,6.36553369 C1.3944919,4.24367222 1.3944919,2.12186147 1.3944919,0 L1.64803589,0 Z" id="Stroke-480" stroke="#B99C9A" stroke-linecap="round" stroke-linejoin="round"></path>
                        </g>
                        <text id="Đỉnh-thứ-hai-lập-ở-m" font-family="LucidaGrande, Lucida Grande" font-size="7.3031" font-weight="normal" letter-spacing="0.0145" fill="#B99C9A">
                            <tspan x="188.254558" y="83.7402686">Đỉnh thứ </tspan>
                            <tspan x="188.254558" y="92.7402686">hai lập ở </tspan>
                            <tspan x="188.254558" y="101.740269">mỏ P</tspan>
                            <tspan x="205.964093" y="101.740269" letter-spacing="-0.0220155">r</tspan>
                            <tspan x="208.930358" y="101.740269" letter-spacing="0.0218031">udh</tspan>
                            <tspan x="222.656986" y="101.740269">o</tspan>
                            <tspan x="227.157472" y="101.740269" letter-spacing="0.0218031">e</tspan>
                        </text>
                        <g id="Group-486" transform="translate(240.557036, 80.014055)">
                            <path d="M0.182247415,0 C2.60151339,2.5018305 5.02077936,5.00366099 7.44009604,7.50554221 L8.44240611,6.53571071 C9.01830591,7.86085966 9.59425642,9.18600862 10.1701562,10.5111576 C8.86531747,9.89131756 7.56042801,9.27147755 6.25553855,8.65163755 L7.25784862,7.68185677 C4.83858265,5.18002627 2.41926597,2.67819578 0,0.176314555 L0.182247415,0 Z" id="Fill-483" fill="#B99C9A"></path>
                            <path d="M0.182247415,0 C2.60151339,2.5018305 5.02077936,5.00366099 7.44009604,7.50554221 L8.44240611,6.53571071 C9.01830591,7.86085966 9.59425642,9.18600862 10.1701562,10.5111576 C8.86531747,9.89131756 7.56042801,9.27147755 6.25553855,8.65163755 L7.25784862,7.68185677 C4.83858265,5.18002627 2.41926597,2.67819578 0,0.176314555 L0.182247415,0 Z" id="Stroke-485" stroke="#B99C9A" stroke-linecap="round" stroke-linejoin="round"></path>
                        </g>
                        <text id="Hoạt-động-fracking" font-family="LucidaGrande, Lucida Grande" font-size="7.3031" font-weight="normal" letter-spacing="0.0085" fill="#B99C9A">
                            <tspan x="224.027044" y="58.3497104">Hoạt </tspan>
                            <tspan x="224.027044" y="67.3497104">động </tspan>
                            <tspan x="224.027044" y="76.3497104">fracking</tspan>
                        </text>
                        <line x1="25.2839457" y1="4.40184214" x2="276.47504" y2="4.40184214" id="Stroke-488" stroke="#B99C9A" stroke-linecap="square"></line>
                        <line x1="276.47504" y1="197.231938" x2="276.47504" y2="4.40184214" id="Stroke-490" stroke="#B99C9A" stroke-linecap="square"></line>
                        <line x1="25.2839457" y1="197.231938" x2="25.2839457" y2="4.40184214" id="Stroke-494" stroke="#B99C9A" stroke-linecap="square"></line>
                        <g id="Group-499" transform="translate(274.446688, 196.745756)">
                            <line x1="2.02835186" y1="0.5" x2="0" y2="0.5" id="Fill-496" fill="#B99C9A"></line>
                            <line x1="2.02835186" y1="0.5" x2="0" y2="0.5" id="Stroke-498" stroke="#B99C9A" stroke-width="0.5" stroke-linejoin="round"></line>
                        </g>
                        <text id="0" font-family="LucidaGrande, Lucida Grande" font-size="6.2598" font-weight="normal" fill="#B99C9A">
                            <tspan x="278.503392" y="197.743507">0</tspan>
                        </text>
                        <g id="Group-504" transform="translate(274.446688, 170.348753)">
                            <line x1="2.02835186" y1="0.5" x2="0" y2="0.5" id="Fill-501" fill="#B99C9A"></line>
                            <line x1="2.02835186" y1="0.5" x2="0" y2="0.5" id="Stroke-503" stroke="#B99C9A" stroke-width="0.5" stroke-linejoin="round"></line>
                        </g>
                        <text id="1" font-family="LucidaGrande, Lucida Grande" font-size="6.2598" font-weight="normal" fill="#B99C9A">
                            <tspan x="278.503392" y="173.346504">1</tspan>
                        </text>
                        <g id="Group-509" transform="translate(274.446688, 143.951771)">
                            <line x1="2.02835186" y1="0.5" x2="0" y2="0.5" id="Fill-506" fill="#B99C9A"></line>
                            <line x1="2.02835186" y1="0.5" x2="0" y2="0.5" id="Stroke-508" stroke="#B99C9A" stroke-width="0.5" stroke-linejoin="round"></line>
                        </g>
                        <text id="2" font-family="LucidaGrande, Lucida Grande" font-size="6.2598" font-weight="normal" fill="#B99C9A">
                            <tspan x="278.503392" y="146.949522">2</tspan>
                        </text>
                        <g id="Group-514" transform="translate(274.446688, 117.554753)">
                            <line x1="2.02835186" y1="0.5" x2="0" y2="0.5" id="Fill-511" fill="#B99C9A"></line>
                            <line x1="2.02835186" y1="0.5" x2="0" y2="0.5" id="Stroke-513" stroke="#B99C9A" stroke-width="0.5" stroke-linejoin="round"></line>
                        </g>
                        <text id="3" font-family="LucidaGrande, Lucida Grande" font-size="6.2598" font-weight="normal" fill="#B99C9A">
                            <tspan x="278.503392" y="120.552504">3</tspan>
                        </text>
                        <g id="Group-519" transform="translate(274.446688, 91.157735)">
                            <line x1="2.02835186" y1="0.5" x2="0" y2="0.5" id="Fill-516" fill="#B99C9A"></line>
                            <line x1="2.02835186" y1="0.5" x2="0" y2="0.5" id="Stroke-518" stroke="#B99C9A" stroke-width="0.5" stroke-linejoin="round"></line>
                        </g>
                        <text id="4" font-family="LucidaGrande, Lucida Grande" font-size="6.2598" font-weight="normal" fill="#B99C9A">
                            <tspan x="278.503392" y="94.1554864">4</tspan>
                        </text>
                        <g id="Group-524" transform="translate(274.446688, 64.760768)">
                            <line x1="2.02835186" y1="0.5" x2="0" y2="0.5" id="Fill-521" fill="#B99C9A"></line>
                            <line x1="2.02835186" y1="0.5" x2="0" y2="0.5" id="Stroke-523" stroke="#B99C9A" stroke-width="0.5" stroke-linejoin="round"></line>
                        </g>
                        <text id="5" font-family="LucidaGrande, Lucida Grande" font-size="6.2598" font-weight="normal" fill="#B99C9A">
                            <tspan x="278.503392" y="67.7585193">5</tspan>
                        </text>
                        <g id="Group-529" transform="translate(274.446688, 38.363750)">
                            <line x1="2.02835186" y1="0.5" x2="0" y2="0.5" id="Fill-526" fill="#B99C9A"></line>
                            <line x1="2.02835186" y1="0.5" x2="0" y2="0.5" id="Stroke-528" stroke="#B99C9A" stroke-width="0.5" stroke-linejoin="round"></line>
                        </g>
                        <text id="6" font-family="LucidaGrande, Lucida Grande" font-size="6.2598" font-weight="normal" fill="#B99C9A">
                            <tspan x="278.503392" y="41.3615015">6</tspan>
                        </text>
                        <g id="Group-534" transform="translate(274.446688, 11.966732)">
                            <line x1="2.02835186" y1="0.5" x2="0" y2="0.5" id="Fill-531" fill="#B99C9A"></line>
                            <line x1="2.02835186" y1="0.5" x2="0" y2="0.5" id="Stroke-533" stroke="#B99C9A" stroke-width="0.5" stroke-linejoin="round"></line>
                        </g>
                        <text id="7" font-family="LucidaGrande, Lucida Grande" font-size="6.2598" font-weight="normal" fill="#B99C9A">
                            <tspan x="278.503392" y="14.9644837">7</tspan>
                        </text>
                        <g id="Group-539" transform="translate(275.460864, 196.745756)">
                            <line x1="1.01417593" y1="0.5" x2="0" y2="0.5" id="Fill-536" fill="#B99C9A"></line>
                            <line x1="1.01417593" y1="0.5" x2="0" y2="0.5" id="Stroke-538" stroke="#B99C9A" stroke-width="0.5" stroke-linejoin="round"></line>
                        </g>
                        <g id="Group-543" transform="translate(275.460864, 191.466357)">
                            <line x1="1.01417593" y1="0.5" x2="0" y2="0.5" id="Fill-540" fill="#B99C9A"></line>
                            <line x1="1.01417593" y1="0.5" x2="0" y2="0.5" id="Stroke-542" stroke="#B99C9A" stroke-width="0.5" stroke-linejoin="round"></line>
                        </g>
                        <g id="Group-547" transform="translate(275.460864, 186.186954)">
                            <line x1="1.01417593" y1="0.5" x2="0" y2="0.5" id="Fill-544" fill="#B99C9A"></line>
                            <line x1="1.01417593" y1="0.5" x2="0" y2="0.5" id="Stroke-546" stroke="#B99C9A" stroke-width="0.5" stroke-linejoin="round"></line>
                        </g>
                        <g id="Group-551" transform="translate(275.460864, 180.907555)">
                            <line x1="1.01417593" y1="0.5" x2="0" y2="0.5" id="Fill-548" fill="#B99C9A"></line>
                            <line x1="1.01417593" y1="0.5" x2="0" y2="0.5" id="Stroke-550" stroke="#B99C9A" stroke-width="0.5" stroke-linejoin="round"></line>
                        </g>
                        <g id="Group-555" transform="translate(275.460864, 175.628157)">
                            <line x1="1.01417593" y1="0.5" x2="0" y2="0.5" id="Fill-552" fill="#B99C9A"></line>
                            <line x1="1.01417593" y1="0.5" x2="0" y2="0.5" id="Stroke-554" stroke="#B99C9A" stroke-width="0.5" stroke-linejoin="round"></line>
                        </g>
                        <g id="Group-559" transform="translate(275.460864, 170.348753)">
                            <line x1="1.01417593" y1="0.5" x2="0" y2="0.5" id="Fill-556" fill="#B99C9A"></line>
                            <line x1="1.01417593" y1="0.5" x2="0" y2="0.5" id="Stroke-558" stroke="#B99C9A" stroke-width="0.5" stroke-linejoin="round"></line>
                        </g>
                        <g id="Group-563" transform="translate(275.460864, 165.069344)">
                            <line x1="1.01417593" y1="0.5" x2="0" y2="0.5" id="Fill-560" fill="#B99C9A"></line>
                            <line x1="1.01417593" y1="0.5" x2="0" y2="0.5" id="Stroke-562" stroke="#B99C9A" stroke-width="0.5" stroke-linejoin="round"></line>
                        </g>
                        <g id="Group-567" transform="translate(275.460864, 159.789951)">
                            <line x1="1.01417593" y1="0.5" x2="0" y2="0.5" id="Fill-564" fill="#B99C9A"></line>
                            <line x1="1.01417593" y1="0.5" x2="0" y2="0.5" id="Stroke-566" stroke="#B99C9A" stroke-width="0.5" stroke-linejoin="round"></line>
                        </g>
                        <g id="Group-571" transform="translate(275.460864, 154.510558)">
                            <line x1="1.01417593" y1="0.5" x2="0" y2="0.5" id="Fill-568" fill="#B99C9A"></line>
                            <line x1="1.01417593" y1="0.5" x2="0" y2="0.5" id="Stroke-570" stroke="#B99C9A" stroke-width="0.5" stroke-linejoin="round"></line>
                        </g>
                        <g id="Group-575" transform="translate(275.460864, 149.231164)">
                            <line x1="1.01417593" y1="0.5" x2="0" y2="0.5" id="Fill-572" fill="#B99C9A"></line>
                            <line x1="1.01417593" y1="0.5" x2="0" y2="0.5" id="Stroke-574" stroke="#B99C9A" stroke-width="0.5" stroke-linejoin="round"></line>
                        </g>
                        <g id="Group-579" transform="translate(275.460864, 143.951771)">
                            <line x1="1.01417593" y1="0.5" x2="0" y2="0.5" id="Fill-576" fill="#B99C9A"></line>
                            <line x1="1.01417593" y1="0.5" x2="0" y2="0.5" id="Stroke-578" stroke="#B99C9A" stroke-width="0.5" stroke-linejoin="round"></line>
                        </g>
                        <g id="Group-583" transform="translate(275.460864, 138.672377)">
                            <line x1="1.01417593" y1="0.5" x2="0" y2="0.5" id="Fill-580" fill="#B99C9A"></line>
                            <line x1="1.01417593" y1="0.5" x2="0" y2="0.5" id="Stroke-582" stroke="#B99C9A" stroke-width="0.5" stroke-linejoin="round"></line>
                        </g>
                        <g id="Group-587" transform="translate(275.460864, 133.392933)">
                            <line x1="1.01417593" y1="0.5" x2="0" y2="0.5" id="Fill-584" fill="#B99C9A"></line>
                            <line x1="1.01417593" y1="0.5" x2="0" y2="0.5" id="Stroke-586" stroke="#B99C9A" stroke-width="0.5" stroke-linejoin="round"></line>
                        </g>
                        <g id="Group-591" transform="translate(275.460864, 128.113540)">
                            <line x1="1.01417593" y1="0.5" x2="0" y2="0.5" id="Fill-588" fill="#B99C9A"></line>
                            <line x1="1.01417593" y1="0.5" x2="0" y2="0.5" id="Stroke-590" stroke="#B99C9A" stroke-width="0.5" stroke-linejoin="round"></line>
                        </g>
                        <g id="Group-595" transform="translate(275.460864, 122.834146)">
                            <line x1="1.01417593" y1="0.5" x2="0" y2="0.5" id="Fill-592" fill="#B99C9A"></line>
                            <line x1="1.01417593" y1="0.5" x2="0" y2="0.5" id="Stroke-594" stroke="#B99C9A" stroke-width="0.5" stroke-linejoin="round"></line>
                        </g>
                        <g id="Group-599" transform="translate(275.460864, 117.554753)">
                            <line x1="1.01417593" y1="0.5" x2="0" y2="0.5" id="Fill-596" fill="#B99C9A"></line>
                            <line x1="1.01417593" y1="0.5" x2="0" y2="0.5" id="Stroke-598" stroke="#B99C9A" stroke-width="0.5" stroke-linejoin="round"></line>
                        </g>
                        <g id="Group-603" transform="translate(275.460864, 112.275359)">
                            <line x1="1.01417593" y1="0.5" x2="0" y2="0.5" id="Fill-600" fill="#B99C9A"></line>
                            <line x1="1.01417593" y1="0.5" x2="0" y2="0.5" id="Stroke-602" stroke="#B99C9A" stroke-width="0.5" stroke-linejoin="round"></line>
                        </g>
                        <g id="Group-607" transform="translate(275.460864, 106.995966)">
                            <line x1="1.01417593" y1="0.5" x2="0" y2="0.5" id="Fill-604" fill="#B99C9A"></line>
                            <line x1="1.01417593" y1="0.5" x2="0" y2="0.5" id="Stroke-606" stroke="#B99C9A" stroke-width="0.5" stroke-linejoin="round"></line>
                        </g>
                        <g id="Group-611" transform="translate(275.460864, 101.716573)">
                            <line x1="1.01417593" y1="0.5" x2="0" y2="0.5" id="Fill-608" fill="#B99C9A"></line>
                            <line x1="1.01417593" y1="0.5" x2="0" y2="0.5" id="Stroke-610" stroke="#B99C9A" stroke-width="0.5" stroke-linejoin="round"></line>
                        </g>
                        <g id="Group-615" transform="translate(275.460864, 96.437128)">
                            <line x1="1.01417593" y1="0.5" x2="0" y2="0.5" id="Fill-612" fill="#B99C9A"></line>
                            <line x1="1.01417593" y1="0.5" x2="0" y2="0.5" id="Stroke-614" stroke="#B99C9A" stroke-width="0.5" stroke-linejoin="round"></line>
                        </g>
                        <g id="Group-619" transform="translate(275.460864, 91.157735)">
                            <line x1="1.01417593" y1="0.5" x2="0" y2="0.5" id="Fill-616" fill="#B99C9A"></line>
                            <line x1="1.01417593" y1="0.5" x2="0" y2="0.5" id="Stroke-618" stroke="#B99C9A" stroke-width="0.5" stroke-linejoin="round"></line>
                        </g>
                        <g id="Group-623" transform="translate(275.460864, 85.878342)">
                            <line x1="1.01417593" y1="0.5" x2="0" y2="0.5" id="Fill-620" fill="#B99C9A"></line>
                            <line x1="1.01417593" y1="0.5" x2="0" y2="0.5" id="Stroke-622" stroke="#B99C9A" stroke-width="0.5" stroke-linejoin="round"></line>
                        </g>
                        <g id="Group-627" transform="translate(275.460864, 80.598948)">
                            <line x1="1.01417593" y1="0.5" x2="0" y2="0.5" id="Fill-624" fill="#B99C9A"></line>
                            <line x1="1.01417593" y1="0.5" x2="0" y2="0.5" id="Stroke-626" stroke="#B99C9A" stroke-width="0.5" stroke-linejoin="round"></line>
                        </g>
                        <g id="Group-631" transform="translate(275.460864, 75.319555)">
                            <line x1="1.01417593" y1="0.5" x2="0" y2="0.5" id="Fill-628" fill="#B99C9A"></line>
                            <line x1="1.01417593" y1="0.5" x2="0" y2="0.5" id="Stroke-630" stroke="#B99C9A" stroke-width="0.5" stroke-linejoin="round"></line>
                        </g>
                        <g id="Group-635" transform="translate(275.460864, 70.040161)">
                            <line x1="1.01417593" y1="0.5" x2="0" y2="0.5" id="Fill-632" fill="#B99C9A"></line>
                            <line x1="1.01417593" y1="0.5" x2="0" y2="0.5" id="Stroke-634" stroke="#B99C9A" stroke-width="0.5" stroke-linejoin="round"></line>
                        </g>
                        <g id="Group-639" transform="translate(275.460864, 64.760768)">
                            <line x1="1.01417593" y1="0.5" x2="0" y2="0.5" id="Fill-636" fill="#B99C9A"></line>
                            <line x1="1.01417593" y1="0.5" x2="0" y2="0.5" id="Stroke-638" stroke="#B99C9A" stroke-width="0.5" stroke-linejoin="round"></line>
                        </g>
                        <g id="Group-643" transform="translate(275.460864, 59.481324)">
                            <line x1="1.01417593" y1="0.5" x2="0" y2="0.5" id="Fill-640" fill="#B99C9A"></line>
                            <line x1="1.01417593" y1="0.5" x2="0" y2="0.5" id="Stroke-642" stroke="#B99C9A" stroke-width="0.5" stroke-linejoin="round"></line>
                        </g>
                        <g id="Group-647" transform="translate(275.460864, 54.201930)">
                            <line x1="1.01417593" y1="0.5" x2="0" y2="0.5" id="Fill-644" fill="#B99C9A"></line>
                            <line x1="1.01417593" y1="0.5" x2="0" y2="0.5" id="Stroke-646" stroke="#B99C9A" stroke-width="0.5" stroke-linejoin="round"></line>
                        </g>
                        <g id="Group-651" transform="translate(275.460864, 48.922537)">
                            <line x1="1.01417593" y1="0.5" x2="0" y2="0.5" id="Fill-648" fill="#B99C9A"></line>
                            <line x1="1.01417593" y1="0.5" x2="0" y2="0.5" id="Stroke-650" stroke="#B99C9A" stroke-width="0.5" stroke-linejoin="round"></line>
                        </g>
                        <g id="Group-655" transform="translate(275.460864, 43.643143)">
                            <line x1="1.01417593" y1="0.5" x2="0" y2="0.5" id="Fill-652" fill="#B99C9A"></line>
                            <line x1="1.01417593" y1="0.5" x2="0" y2="0.5" id="Stroke-654" stroke="#B99C9A" stroke-width="0.5" stroke-linejoin="round"></line>
                        </g>
                        <g id="Group-659" transform="translate(275.460864, 38.363750)">
                            <line x1="1.01417593" y1="0.5" x2="0" y2="0.5" id="Fill-656" fill="#B99C9A"></line>
                            <line x1="1.01417593" y1="0.5" x2="0" y2="0.5" id="Stroke-658" stroke="#B99C9A" stroke-width="0.5" stroke-linejoin="round"></line>
                        </g>
                        <g id="Group-663" transform="translate(275.460864, 33.084357)">
                            <line x1="1.01417593" y1="0.5" x2="0" y2="0.5" id="Fill-660" fill="#B99C9A"></line>
                            <line x1="1.01417593" y1="0.5" x2="0" y2="0.5" id="Stroke-662" stroke="#B99C9A" stroke-width="0.5" stroke-linejoin="round"></line>
                        </g>
                        <g id="Group-667" transform="translate(275.460864, 27.804963)">
                            <line x1="1.01417593" y1="0.5" x2="0" y2="0.5" id="Fill-664" fill="#B99C9A"></line>
                            <line x1="1.01417593" y1="0.5" x2="0" y2="0.5" id="Stroke-666" stroke="#B99C9A" stroke-width="0.5" stroke-linejoin="round"></line>
                        </g>
                        <g id="Group-671" transform="translate(275.460864, 22.525570)">
                            <line x1="1.01417593" y1="0.5" x2="0" y2="0.5" id="Fill-668" fill="#B99C9A"></line>
                            <line x1="1.01417593" y1="0.5" x2="0" y2="0.5" id="Stroke-670" stroke="#B99C9A" stroke-width="0.5" stroke-linejoin="round"></line>
                        </g>
                        <g id="Group-675" transform="translate(275.460864, 17.246126)">
                            <line x1="1.01417593" y1="0.5" x2="0" y2="0.5" id="Fill-672" fill="#B99C9A"></line>
                            <line x1="1.01417593" y1="0.5" x2="0" y2="0.5" id="Stroke-674" stroke="#B99C9A" stroke-width="0.5" stroke-linejoin="round"></line>
                        </g>
                        <g id="Group-679" transform="translate(275.460864, 11.966732)">
                            <line x1="1.01417593" y1="0.5" x2="0" y2="0.5" id="Fill-676" fill="#B99C9A"></line>
                            <line x1="1.01417593" y1="0.5" x2="0" y2="0.5" id="Stroke-678" stroke="#B99C9A" stroke-width="0.5" stroke-linejoin="round"></line>
                        </g>
                        <g id="Group-683" transform="translate(275.460864, 6.687339)">
                            <line x1="1.01417593" y1="0.5" x2="0" y2="0.5" id="Fill-680" fill="#B99C9A"></line>
                            <line x1="1.01417593" y1="0.5" x2="0" y2="0.5" id="Stroke-682" stroke="#B99C9A" stroke-width="0.5" stroke-linejoin="round"></line>
                        </g>
                        <g id="Group-685" transform="translate(286.577601, 66.565421)" fill="#B99C9A" font-family="LucidaGrande-Bold, Lucida Grande" font-size="8.3464" font-weight="bold" letter-spacing="0.0185">
                            <text id="Tỷ-thùng/năm" transform="translate(5.000000, 32.500000) rotate(-90.000000) translate(-5.000000, -32.500000) ">
                                <tspan x="-27.5" y="35.5">Tỷ thùng/năm</tspan>
                            </text>
                        </g>
                    </g>
                </g>
            </g>
        </g>
    </g>
</svg>