<svg style='scaling-svg' viewBox="0 0 254 151" version="1.1" xmlns="http://www.w3.org/2000/svg" xmlns:xlink="http://www.w3.org/1999/xlink">
    <g id="Page-1" stroke="none" stroke-width="1" fill="none" fill-rule="evenodd">
        <g id="Board" transform="translate(-3626.000000, -2368.000000)">
            <g id="fossil-fuel" transform="translate(3263.449925, 1684.003000)">
                <g id="fossil-5" transform="translate(363.370893, 684.146808)">
                    <g id="Group-174" transform="translate(80.128392, 7.330687)">
                        <g id="Group-143" transform="translate(61.218339, 33.768542)">
                            <path d="M35.3580109,77.4242073 C47.3081623,68.9692929 55.8381518,56.5021993 59.3895207,42.3007965 C62.9408563,28.0993937 61.2832081,13.0847079 54.7194537,0 L0,27.4492681 L35.3580109,77.4242073 Z" id="Fill-141" fill="#CCBB55"></path>
                            <path d="M35.3580109,77.4242073 C47.3081623,68.9692929 55.8381518,56.5021993 59.3895207,42.3007965 C62.9408563,28.0993937 61.2832081,13.0847079 54.7194537,0 L0,27.4492681 L35.3580109,77.4242073 Z" id="Stroke-142" stroke="#000000"></path>
                        </g>
                        <g id="Group-146" transform="translate(61.218339, 61.217810)">
                            <path d="M4.22770257,61.0721752 C9.80039353,60.6864066 15.29416,59.539701 20.5558937,57.6640221 C25.8175941,55.7883432 30.7979173,53.2012788 35.3580109,49.9749392 L0,0 L4.22770257,61.0721752 Z" id="Fill-144" fill="#FFFF77"></path>
                            <path d="M4.22770257,61.0721752 C9.80039353,60.6864066 15.29416,59.539701 20.5558937,57.6640221 C25.8175941,55.7883432 30.7979173,53.2012788 35.3580109,49.9749392 L0,0 L4.22770257,61.0721752 Z" id="Stroke-145" stroke="#000000"></path>
                        </g>
                        <g id="Group-149" transform="translate(46.740233, 61.217810)">
                            <path d="M0,59.4816694 C3.05368388,60.2249453 6.16005086,60.7319651 9.2915575,60.9982318 C12.4230975,61.2644952 15.5704959,61.2892175 18.7058086,61.0721752 L14.478106,0 L0,59.4816694 Z" id="Fill-147" fill="#BB9999"></path>
                            <path d="M0,59.4816694 C3.05368388,60.2249453 6.16005086,60.7319651 9.2915575,60.9982318 C12.4230975,61.2644952 15.5704959,61.2892175 18.7058086,61.0721752 L14.478106,0 L0,59.4816694 Z" id="Stroke-148" stroke="#000000"></path>
                        </g>
                        <g id="Group-152" transform="translate(32.402615, 61.217810)">
                            <path d="M0,54.0123849 C2.26320355,55.219813 4.60005662,56.2837981 6.99673741,57.1980504 C9.39345157,58.1123026 11.8452193,58.8750124 14.3376177,59.4816694 L28.8157237,0 L0,54.0123849 Z" id="Fill-150" fill="#BB9955"></path>
                            <path d="M0,54.0123849 C2.26320355,55.219813 4.60005662,56.2837981 6.99673741,57.1980504 C9.39345157,58.1123026 11.8452193,58.8750124 14.3376177,59.4816694 L28.8157237,0 L0,54.0123849 Z" id="Stroke-151" stroke="#000000"></path>
                        </g>
                        <g id="Group-155" transform="translate(19.875554, 61.217810)">
                            <path d="M0,45.1493067 C1.89185108,46.8816361 3.8906709,48.493352 5.98470759,49.9749125 C8.07874428,51.4564763 10.2638246,52.8049569 12.5270615,54.0123849 L41.3427852,0 L0,45.1493067 Z" id="Fill-153" fill="#DDDDFF"></path>
                            <path d="M0,45.1493067 C1.89185108,46.8816361 3.8906709,48.493352 5.98470759,49.9749125 C8.07874428,51.4564763 10.2638246,52.8049569 12.5270615,54.0123849 L41.3427852,0 L0,45.1493067 Z" id="Stroke-154" stroke="#000000"></path>
                        </g>
                        <g id="Group-158" transform="translate(11.918702, 61.217810)">
                            <path d="M0,36.2936869 C1.17845903,37.8944121 2.43413987,39.4368119 3.76266897,40.9153777 C5.09116468,42.3939434 6.49087273,43.8069258 7.95685199,45.1493067 L49.2996372,0 L0,36.2936869 Z" id="Fill-156" fill="#9999DD"></path>
                            <path d="M0,36.2936869 C1.17845903,37.8944121 2.43413987,39.4368119 3.76266897,40.9153777 C5.09116468,42.3939434 6.49087273,43.8069258 7.95685199,45.1493067 L49.2996372,0 L0,36.2936869 Z" id="Stroke-157" stroke="#000000"></path>
                        </g>
                        <g id="Group-161" transform="translate(5.826324, 61.217810)">
                            <path d="M0,26.0654852 C0.8463351,27.8640224 1.77977427,29.6202929 2.79697892,31.3280202 C3.81418357,33.0357809 4.9139518,34.6929617 6.09237744,36.2936869 L55.3920147,0 L0,26.0654852 Z" id="Fill-159" fill="#999999"></path>
                            <path d="M0,26.0654852 C0.8463351,27.8640224 1.77977427,29.6202929 2.79697892,31.3280202 C3.81418357,33.0357809 4.9139518,34.6929617 6.09237744,36.2936869 L55.3920147,0 L0,26.0654852 Z" id="Stroke-160" stroke="#000000"></path>
                        </g>
                        <g id="Group-164" transform="translate(2.763126, 61.217810)">
                            <path d="M2.84217094e-14,18.1843526 C0.418960914,19.5312106 0.884361754,20.8631785 1.39536787,22.1778858 C1.9063406,23.4925597 2.46261813,24.7892052 3.06319889,26.0654852 L58.4552135,0 L2.84217094e-14,18.1843526 Z" id="Fill-162" fill="#FF66FF"></path>
                            <path d="M2.84217094e-14,18.1843526 C0.418960914,19.5312106 0.884361754,20.8631785 1.39536787,22.1778858 C1.9063406,23.4925597 2.46261813,24.7892052 3.06319889,26.0654852 L58.4552135,0 L2.84217094e-14,18.1843526 Z" id="Stroke-163" stroke="#000000"></path>
                        </g>
                        <g id="Group-167" transform="translate(0.815052, 61.217810)">
                            <path d="M0,9.95633953 C0.229395206,11.3480683 0.506832866,12.731484 0.83181219,14.1040492 C1.15675813,15.4766145 1.5290788,16.837528 1.9480731,18.1843526 L60.4032866,0 L0,9.95633953 Z" id="Fill-165" fill="#BB8855"></path>
                            <path d="M0,9.95633953 C0.229395206,11.3480683 0.506832866,12.731484 0.83181219,14.1040492 C1.15675813,15.4766145 1.5290788,16.837528 1.9480731,18.1843526 L60.4032866,0 L0,9.95633953 Z" id="Stroke-166" stroke="#000000"></path>
                        </g>
                        <g id="Group-170" transform="translate(0.204122, 61.217810)">
                            <path d="M0,4.99481269 C0.067973896,5.82545637 0.152941266,6.65463106 0.254801952,7.48183599 C0.356662638,8.30900752 0.475383254,9.13400897 0.610930414,9.95633953 L61.0142171,0 L0,4.99481269 Z" id="Fill-168" fill="#BBBB22"></path>
                            <path d="M0,4.99481269 C0.067973896,5.82545637 0.152941266,6.65463106 0.254801952,7.48183599 C0.356662638,8.30900752 0.475383254,9.13400897 0.610930414,9.95633953 L61.0142171,0 L0,4.99481269 Z" id="Stroke-169" stroke="#000000"></path>
                        </g>
                        <g id="Group-173" transform="translate(0.000000, 61.217777)">
                            <path d="M0,0 C0,0.833448104 0.01702686,1.66679605 0.051047194,2.49950966 C0.085067528,3.33225666 0.136114722,4.16420239 0.204122004,4.99484607 L61.2183391,0 L0,0 Z" id="Fill-171" fill="#FFFFFF"></path>
                            <path d="M0,0 C0,0.833448104 0.01702686,1.66679605 0.051047194,2.49950966 C0.085067528,3.33225666 0.136114722,4.16420239 0.204122004,4.99484607 L61.2183391,0 L0,0 Z" id="Stroke-172" stroke="#000000"></path>
                        </g>
                        <g id="Group-140">
                            <path d="M115.937793,33.7685421 C109.758645,21.4505437 99.5974824,11.5726613 87.1096828,5.74420015 C74.6218833,-0.0842609602 60.5245446,-1.52863948 47.1142898,1.64636912 C33.7040017,4.82134434 21.7508455,12.4334191 13.2021265,23.2424371 C4.65340745,34.0514884 0,47.4368039 0,61.2178102 L61.2183391,61.2178102 L115.937793,33.7685421 Z" id="Fill-138" fill="#DDDD66"></path>
                            <path d="M115.937793,33.7685421 C109.758645,21.4505437 99.5974824,11.5726613 87.1096828,5.74420015 C74.6218833,-0.0842609602 60.5245446,-1.52863948 47.1142898,1.64636912 C33.7040017,4.82134434 21.7508455,12.4334191 13.2021265,23.2424371 C4.65340745,34.0514884 0,47.4368039 0,61.2178102 L61.2183391,61.2178102 L115.937793,33.7685421 Z" id="Stroke-139" stroke="#000000"></path>
                        </g>
                        <text id="43%" font-family="LucidaGrande, Lucida Grande" font-size="7" font-weight="normal" letter-spacing="0.0232133229" fill="#3D1818">
                            <tspan x="37.0368017" y="13.3683911">43%</tspan>
                        </text>
                        <text id="23%" font-family="LucidaGrande, Lucida Grande" font-size="7" font-weight="normal" letter-spacing="0.0232133229" fill="#3D1818">
                            <tspan x="104.506348" y="77.6279502">23%</tspan>
                        </text>
                        <text id="9%" font-family="LucidaGrande, Lucida Grande" font-size="7" font-weight="normal" letter-spacing="0.0232133229" fill="#3D1818">
                            <tspan x="73.9844552" y="116.01855">9%</tspan>
                        </text>
                        <text id="5%" font-family="LucidaGrande, Lucida Grande" font-size="7" font-weight="normal" letter-spacing="0.0232133229" fill="#3D1818">
                            <tspan x="52.1034044" y="118.852627">5%</tspan>
                        </text>
                        <text id="4%" font-family="LucidaGrande, Lucida Grande" font-size="7" font-weight="normal" letter-spacing="0.0232133229" fill="#3D1818">
                            <tspan x="36.9658356" y="116.622475">4%</tspan>
                        </text>
                        <text id="4%" font-family="LucidaGrande, Lucida Grande" font-size="7" font-weight="normal" letter-spacing="0.0232133229" fill="#3D1818">
                            <tspan x="24.4576146" y="109.48281">4%</tspan>
                        </text>
                    </g>
                    <g id="text" fill="#3D1818" font-weight="normal">
                        <text id="xăng" font-family="Helvetica" font-size="8" letter-spacing="0.0179716049">
                            <tspan x="97.8819316" y="8">xăng</tspan>
                        </text>
                        <text id="dầu-sưởi-ấm-hay-dies" font-family="Helvetica" font-size="8" letter-spacing="0.0179716049">
                            <tspan x="206.675187" y="84.8652764">dầu sưởi ấm</tspan>
                            <tspan x="252.54475" y="84.8652764" letter-spacing="-0.0540283951"></tspan>
                            <tspan x="206.675187" y="94.8652764" letter-spacing="-0.0540283951">hay diesel</tspan>
                        </text>
                        <text id="nhiên-liệu-phản-lực" font-family="Helvetica" font-size="8" letter-spacing="0.00778769544">
                            <tspan x="160.958201" y="133.959007">nhiên liệu </tspan>
                            <tspan x="160.958201" y="143.959007">phản lực</tspan>
                        </text>
                        <text id="luyện-than-cốc" font-family="Helvetica" font-size="8" letter-spacing="0.0155753909">
                            <tspan x="127.30694" y="138.626636">luyện </tspan>
                            <tspan x="121.724983" y="148.626636">than cốc</tspan>
                        </text>
                        <text id="dầu-nhiên-liệu" font-family="Helvetica" font-size="8" letter-spacing="0.0101839094">
                            <tspan x="68.8729182" y="133.446439">dầu nhiên liệu</tspan>
                        </text>
                        <text id="khí-trưng-cất" font-family="Helvetica" font-size="8" letter-spacing="-0.0250236626">
                            <tspan x="57.8499869" y="123.500988">khí </tspan>
                            <tspan x="70.6444235" y="123.500988" letter-spacing="0.0149763374">trưng cất</tspan>
                        </text>
                        <text id="dầu-nhẹ" font-family="Helvetica" font-size="8" letter-spacing="0.00778769544">
                            <tspan x="53.5648069" y="114.535497">dầu nhẹ</tspan>
                        </text>
                        <text id="nhựa-đường" font-family="Helvetica" font-size="8" letter-spacing="0.0173725514">
                            <tspan x="30.885648" y="104.989434">nhựa đường</tspan>
                        </text>
                        <text id="nguyên-liệu-hoá-dầu" font-family="Helvetica" font-size="8" letter-spacing="0.0179716049">
                            <tspan x="0" y="95.9242562">nguyên liệu hoá dầu</tspan>
                        </text>
                        <text id="dầu-bôi-trơn" font-family="Helvetica" font-size="8" letter-spacing="0.00778769544">
                            <tspan x="25.7972652" y="87.0430126">dầu bôi trơn</tspan>
                        </text>
                        <text id="dầu-hoả" font-family="Helvetica" font-size="8" letter-spacing="0.0167734979">
                            <tspan x="37.7753848" y="78.7585881">dầu hoả</tspan>
                        </text>
                        <text id="khác" font-family="Helvetica" font-size="8" letter-spacing="0.0173725514">
                            <tspan x="49.2742352" y="71.2780091">khác</tspan>
                        </text>
                        <text id="3%" font-family="LucidaGrande, Lucida Grande" font-size="7" letter-spacing="0.0232133229">
                            <tspan x="84.9339245" y="114.112886">3%</tspan>
                        </text>
                        <text id="3%" font-family="LucidaGrande, Lucida Grande" font-size="7" letter-spacing="0.0232133229">
                            <tspan x="77.9345605" y="103.963664">3%</tspan>
                        </text>
                        <text id="2%" font-family="LucidaGrande, Lucida Grande" font-size="7" letter-spacing="0.0232133229">
                            <tspan x="74.1394737" y="95.1859945">2%</tspan>
                        </text>
                        <text id="2%" font-family="LucidaGrande, Lucida Grande" font-size="7" letter-spacing="0.0232133229">
                            <tspan x="71.0046059" y="86.3232351">2%</tspan>
                        </text>
                        <text id="1%" font-family="LucidaGrande, Lucida Grande" font-size="7" letter-spacing="0.0232133229">
                            <tspan x="68.9948463" y="78.6943555">1%</tspan>
                        </text>
                        <text id="1%" font-family="LucidaGrande, Lucida Grande" font-size="7" letter-spacing="0.0232133229">
                            <tspan x="68.6481661" y="71.4593748">1%</tspan>
                        </text>
                    </g>
                </g>
            </g>
        </g>
    </g>
</svg>