
<svg style='scaling-svg' viewBox="0 0 694 392" version="1.1" xmlns="http://www.w3.org/2000/svg" xmlns:xlink="http://www.w3.org/1999/xlink">
    <g id="Page-1" stroke="none" stroke-width="1" fill="none" fill-rule="evenodd">
        <g id="gdp-damage">
            <path d="M78.9948306,8.85155338 L78.9948306,310 M73,234.254327 L78.801838,234.254327 M73,272.128015 L78.801838,272.128015 M73,197.133412 L78.801838,197.133412 M73,158.506951 L78.801838,158.506951 M73,120.841041 L78.801838,120.841041 M73,84.2634176 L78.801838,84.2634176 M73,45.6982681 L78.801838,45.6982681 M73,8.85155338 L78.801838,8.85155338" id="Stroke-4" stroke="#A5A5A5" stroke-width="2.529"></path>
            <line x1="73" y1="309" x2="694" y2="309" id="Stroke-5" stroke="#A5A5A5" stroke-width="2.529" stroke-linejoin="round"></line>
            <polyline id="Stroke-6" stroke="#055592" stroke-width="4.382" stroke-linecap="round" stroke-linejoin="round" points="107 219 127.670562 208.207905 148.342822 198.316143 168.115328 188.422682 188.78589 179.429553 209.45815 171.335057 230.128712 164.140894 271.471534 151.549834 333.486616 143.455338 354.157178 141.658072 374.829438 138.958774 416.17226 135.362542 436.842822 134.462209 457.513384 127.268046 478.185644 123.670115 498.856206 119.17355 518.628712 113.778352 580.643794 100.288659 601.314356 99.3883269 663.329438 85.8986334 684 85"></polyline>
            <polyline id="Stroke-7" stroke="#FAA73A" stroke-width="4.382" stroke-linecap="round" stroke-linejoin="round" points="107 224 127.670562 213.164966 148.342822 204.136055 168.115328 194.203229 188.78589 185.174318 209.45815 177.049322 250.800972 162.602041 271.471534 156.281462 292.143794 151.767007 374.829438 137.319726 395.5 130.096938 416.17226 123.77636 457.513384 109.330784 478.185644 103.010205 498.856206 95.7874178 518.628712 89.4668391 539.300972 82.2423459 580.643794 69.6028938 601.314356 62.3784007 663.329438 43.4183699 684 38"></polyline>
            <text id="Ghi-chú:-Nóng-lên-to" font-family="LucidaGrande, Lucida Grande" font-size="16" font-weight="normal" letter-spacing="-0.00377777253" fill="#3D1818">
                <tspan x="76" y="352">Ghi chú: Nóng lên toàn cầu ở mức hạn chế là theo Đường </tspan>
                <tspan x="76" y="370">Nồng độ Khí nhà kính Đại diện RCP2.6 của IPCC và nóng </tspan>
                <tspan x="76" y="388">lên toàn cầu ở mức trung bình là theo RCP4.5 </tspan>
            </text>
            <text id="16" font-family="LucidaGrande, Lucida Grande" font-size="14" font-weight="normal" letter-spacing="-0.00330555096" fill="#3D1818">
                <tspan x="49" y="14">16</tspan>
            </text>
            <text id="14" font-family="LucidaGrande, Lucida Grande" font-size="14" font-weight="normal" letter-spacing="-0.00330555096" fill="#3D1818">
                <tspan x="49" y="49">14</tspan>
            </text>
            <text id="12" font-family="LucidaGrande, Lucida Grande" font-size="14" font-weight="normal" letter-spacing="-0.00330555096" fill="#3D1818">
                <tspan x="49" y="88">12</tspan>
            </text>
            <text id="10" font-family="LucidaGrande, Lucida Grande" font-size="14" font-weight="normal" letter-spacing="-0.00330555096" fill="#3D1818">
                <tspan x="49" y="123">10</tspan>
            </text>
            <text id="8" font-family="LucidaGrande, Lucida Grande" font-size="14" font-weight="normal" letter-spacing="-0.00330555096" fill="#3D1818">
                <tspan x="57" y="163">8</tspan>
            </text>
            <text id="6" font-family="LucidaGrande, Lucida Grande" font-size="14" font-weight="normal" letter-spacing="-0.00330555096" fill="#3D1818">
                <tspan x="57" y="201">6</tspan>
            </text>
            <text id="4" font-family="LucidaGrande, Lucida Grande" font-size="14" font-weight="normal" letter-spacing="-0.00330555096" fill="#3D1818">
                <tspan x="57" y="239">4</tspan>
            </text>
            <text id="2" font-family="LucidaGrande, Lucida Grande" font-size="14" font-weight="normal" letter-spacing="-0.00330555096" fill="#3D1818">
                <tspan x="57" y="277">2</tspan>
            </text>
            <text id="0" font-family="LucidaGrande, Lucida Grande" font-size="14" font-weight="normal" letter-spacing="-0.00330555096" fill="#3D1818">
                <tspan x="57" y="312">0</tspan>
            </text>
            <text id="2022" font-family="LucidaGrande, Lucida Grande" font-size="14" font-weight="normal" letter-spacing="-0.00330555096" fill="#3D1818">
                <tspan x="79" y="325.894737">2022</tspan>
            </text>
            <text id="2030" font-family="LucidaGrande, Lucida Grande" font-size="14" font-weight="normal" letter-spacing="-0.00330555096" fill="#3D1818">
                <tspan x="254" y="325.894737">2030</tspan>
            </text>
            <text id="2040" font-family="LucidaGrande, Lucida Grande" font-size="14" font-weight="normal" letter-spacing="-0.00330555096" fill="#3D1818">
                <tspan x="433" y="325.894737">2040</tspan>
            </text>
            <text id="2050" font-family="LucidaGrande, Lucida Grande" font-size="14" font-weight="normal" letter-spacing="-0.00330555096" fill="#3D1818">
                <tspan x="655" y="325.894737">2050</tspan>
            </text>
            <text id="%-GDP-thiệt-hại-(so" transform="translate(26.500000, 168.000000) rotate(-90.000000) translate(-26.500000, -168.000000) " font-family="LucidaGrande, Lucida Grande" font-size="18" font-weight="normal" letter-spacing="-0.0042499941" fill="#3D1818">
                <tspan x="-71.389918" y="158.5">% GDP thiệt hại (so với </tspan>
                <tspan x="-40.5594336" y="179.5">kịch bản cơ sở)</tspan>
            </text>
            <text id="Nóng-lên-toàn-cầu-ở" font-family="LucidaGrande-Bold, Lucida Grande" font-size="16" font-weight="bold" letter-spacing="-0.00377777253" fill="#3D1818">
                <tspan x="305.391358" y="88">Nóng lên toàn cầu ở </tspan>
                <tspan x="324.237382" y="106">mức trung bình</tspan>
            </text>
            <text id="Nóng-lên-toàn-cầu-ở" font-family="LucidaGrande-Bold, Lucida Grande" font-size="16" font-weight="bold" letter-spacing="-0.00377777253" fill="#3D1818">
                <tspan x="522.391358" y="128">Nóng lên toàn cầu ở </tspan>
                <tspan x="552.895778" y="146">mức hạn chế</tspan>
            </text>
        </g>
    </g>
</svg>