<svg style='scaling-svg' viewBox="0 0 181 123" version="1.1" xmlns="http://www.w3.org/2000/svg" xmlns:xlink="http://www.w3.org/1999/xlink">
    <g id="Page-1" stroke="none" stroke-width="1" fill="none" fill-rule="evenodd">
        <g id="A2" transform="translate(-643.000000, -2443.000000)">
            <g id="energy-landscape" transform="translate(148.827900, 1419.009000)">
                <g id="landscape-6" transform="translate(494.172100, 1024.609700)">
                    <g id="Group-30" transform="translate(26.677000, 0.000000)">
                        <g id="Group-8" transform="translate(27.270461, 6.481119)">
                            <path d="M72.8125684,4.60947256 C65.2553167,1.18259506 56.982267,-0.372834776 48.6964635,0.0753873741 C40.4106599,0.523609524 32.3536617,2.96241876 25.2101884,7.18453002 C18.066715,11.4066696 12.0450413,17.2890409 7.65687577,24.3317279 C3.2687385,31.3744149 0.642023793,39.372112 0,47.6451617 L51.4858757,51.6406734 L72.8125684,4.60947256 Z" id="Fill-6" fill="#BB8888"></path>
                            <path d="M72.8125684,4.60947256 C65.2553167,1.18259506 56.982267,-0.372834776 48.6964635,0.0753873741 C40.4106599,0.523609524 32.3536617,2.96241876 25.2101884,7.18453002 C18.066715,11.4066696 12.0450413,17.2890409 7.65687577,24.3317279 C3.2687385,31.3744149 0.642023793,39.372112 0,47.6451617 L51.4858757,51.6406734 L72.8125684,4.60947256 Z" id="Stroke-7" stroke="#000000"></path>
                        </g>
                        <g id="Group-14" transform="translate(65.491958, 58.121792)">
                            <path d="M0,49.9080942 C11.8164933,53.0486327 24.3727369,51.8927596 35.41727,46.6477376 C46.4618031,41.4027155 55.292543,32.4019651 60.3260354,21.2594452 L13.2643781,0 L0,49.9080942 Z" id="Fill-12" fill="#33CCFF"></path>
                            <path d="M0,49.9080942 C11.8164933,53.0486327 24.3727369,51.8927596 35.41727,46.6477376 C46.4618031,41.4027155 55.292543,32.4019651 60.3260354,21.2594452 L13.2643781,0 L0,49.9080942 Z" id="Stroke-13" stroke="#000000"></path>
                        </g>
                        <g id="Group-17" transform="translate(44.974356, 58.121792)">
                            <path d="M-5.68434189e-14,39.0581347 C2.95410918,41.6132017 6.18860464,43.8248939 9.64135742,45.6507473 C13.0940819,47.4766007 16.7428647,48.9048571 20.5176022,49.9080942 L33.7819803,0 L-5.68434189e-14,39.0581347 Z" id="Fill-15" fill="#8888FF"></path>
                            <path d="M-5.68434189e-14,39.0581347 C2.95410918,41.6132017 6.18860464,43.8248939 9.64135742,45.6507473 C13.0940819,47.4766007 16.7428647,48.9048571 20.5176022,49.9080942 L33.7819803,0 L-5.68434189e-14,39.0581347 Z" id="Stroke-16" stroke="#000000"></path>
                        </g>
                        <g id="Group-20" transform="translate(32.484511, 58.121792)">
                            <path d="M0,22.92768 C1.52084462,25.9969978 3.34331305,28.9073594 5.44045542,31.6158089 C7.53759778,34.3242301 9.89903567,36.8173011 12.4898445,39.0581347 L46.2718248,0 L0,22.92768 Z" id="Fill-18" fill="#22FF22"></path>
                            <path d="M0,22.92768 C1.52084462,25.9969978 3.34331305,28.9073594 5.44045542,31.6158089 C7.53759778,34.3242301 9.89903567,36.8173011 12.4898445,39.0581347 L46.2718248,0 L0,22.92768 Z" id="Stroke-19" stroke="#000000"></path>
                        </g>
                        <g id="Group-23" transform="translate(27.725444, 58.121792)">
                            <path d="M0,7.91249248 C0.404013589,10.5181478 1.00700953,13.0890483 1.80368552,15.6025989 C2.60036151,18.1161778 3.58837321,20.5650261 4.75906725,22.92768 L51.0308921,0 L0,7.91249248 Z" id="Fill-21" fill="#FF44FF"></path>
                            <path d="M0,7.91249248 C0.404013589,10.5181478 1.00700953,13.0890483 1.80368552,15.6025989 C2.60036151,18.1161778 3.58837321,20.5650261 4.75906725,22.92768 L51.0308921,0 L0,7.91249248 Z" id="Stroke-22" stroke="#000000"></path>
                        </g>
                        <g id="Group-26" transform="translate(27.115661, 58.121792)">
                            <path d="M-5.68434189e-14,0.014874754 C-5.68434189e-14,1.3365221 0.0514988869,2.65766042 0.153241073,3.97537698 C0.254983259,5.29312182 0.407276986,6.60645514 0.609782905,7.91249248 L51.640675,0 L-5.68434189e-14,0.014874754 Z" id="Fill-24" fill="#DDDDFF"></path>
                            <path d="M-5.68434189e-14,0.014874754 C-5.68434189e-14,1.3365221 0.0514988869,2.65766042 0.153241073,3.97537698 C0.254983259,5.29312182 0.407276986,6.60645514 0.609782905,7.91249248 L51.640675,0 L-5.68434189e-14,0.014874754 Z" id="Stroke-25" stroke="#000000"></path>
                        </g>
                        <g id="Group-29" transform="translate(27.115659, 54.126281)">
                            <path d="M0.154801378,0 C0.103033841,0.667073331 0.0642350531,1.33510815 0.0384304656,2.00368027 C0.0126230502,2.67228066 0,3.34130525 0,4.01038638 L51.6406771,3.99551163 L0.154801378,0 Z" id="Fill-27" fill="#FFFF00"></path>
                            <path d="M0.154801378,0 C0.103033841,0.667073331 0.0642350531,1.33510815 0.0384304656,2.00368027 C0.0126230502,2.67228066 0,3.34130525 0,4.01038638 L51.6406771,3.99551163 L0.154801378,0 Z" id="Stroke-28" stroke="#000000"></path>
                        </g>
                        <g id="Group-11" transform="translate(78.756336, 11.090591)">
                            <path d="M47.0616573,68.290646 C52.6925718,55.8255173 53.146676,41.620099 48.3233249,28.8208256 C43.4999738,16.0215523 33.7837336,5.64875853 21.3266927,0 L0,47.0312008 L47.0616573,68.290646 Z" id="Fill-9" fill="#999999"></path>
                            <path d="M47.0616573,68.290646 C52.6925718,55.8255173 53.146676,41.620099 48.3233249,28.8208256 C43.4999738,16.0215523 33.7837336,5.64875853 21.3266927,0 L0,47.0312008 L47.0616573,68.290646 Z" id="Stroke-10" stroke="#000000"></path>
                        </g>
                    </g>
                    <g id="text" transform="translate(0.000000, 6.381300)" fill="#3D1818">
                        <text id="Dầu-mỏ" font-family="Helvetica" font-size="6" font-weight="normal">
                            <tspan x="53" y="6">Dầu mỏ</tspan>
                        </text>
                        <text id="Điện-mặt-trời" font-family="Helvetica" font-size="6" font-weight="normal">
                            <tspan x="0" y="52">Điện mặt trời</tspan>
                        </text>
                        <text id="Thuỷ-điện" font-family="Helvetica" font-size="6" font-weight="normal">
                            <tspan x="9" y="60">Thuỷ điện</tspan>
                        </text>
                        <text id="Hạt-nhân" font-family="Helvetica" font-size="6" font-weight="normal">
                            <tspan x="29" y="70">Hạt nhân</tspan>
                        </text>
                        <text id="Sinh-khối" font-family="Helvetica" font-size="6" font-weight="normal">
                            <tspan x="37" y="88">Sinh khối</tspan>
                        </text>
                        <text id="Thuỷ-điện" font-family="Helvetica" font-size="6" font-weight="normal">
                            <tspan x="51" y="102">Thuỷ điện</tspan>
                        </text>
                        <text id="Khí-tự-nhiên" font-family="Helvetica" font-size="6" font-weight="normal">
                            <tspan x="132" y="104">Khí tự nhiên</tspan>
                        </text>
                        <text id="Than-đá" font-family="Helvetica" font-size="6" font-weight="normal">
                            <tspan x="158" y="40">Than đá</tspan>
                        </text>
                        <text id="1,2%" font-family="Helvetica-Bold, Helvetica" font-size="7" font-weight="bold">
                            <tspan x="37" y="52">1,2%</tspan>
                        </text>
                        <text id="2,4%" font-family="Helvetica-Bold, Helvetica" font-size="7" font-weight="bold">
                            <tspan x="37" y="60">2,4%</tspan>
                        </text>
                    </g>
                    <g id="inner" transform="translate(57.000000, 16.381300)" fill="#3D1818" font-family="Helvetica-Bold, Helvetica" font-size="7" font-weight="bold">
                        <text id="30,5%">
                            <tspan x="20" y="6">30,5%</tspan>
                        </text>
                        <text id="25,0%">
                            <tspan x="76" y="31">25,0%</tspan>
                        </text>
                        <text id="4,9%">
                            <tspan x="0" y="57">4,9%</tspan>
                        </text>
                        <text id="6,3%">
                            <tspan x="7" y="70">6,3%</tspan>
                        </text>
                        <text id="7,2%">
                            <tspan x="20" y="83">7,2%</tspan>
                        </text>
                        <text id="22,4%">
                            <tspan x="57" y="83">22,4%</tspan>
                        </text>
                    </g>
                </g>
            </g>
        </g>
    </g>
</svg>