
<svg width="117px" height="121px" viewBox="0 0 117 121" version="1.1" xmlns="http://www.w3.org/2000/svg" xmlns:xlink="http://www.w3.org/1999/xlink">
    <g id="Page-1" stroke="none" stroke-width="1" fill="none" fill-rule="evenodd">
        <g id="perma-rules" transform="translate(-6.000000, -910.000000)">
            <g id="perma-rule-6" transform="translate(6.000000, 910.000000)">
                <path d="M0,61.1111111 C0,27.3601744 26.1935253,0 58.5,0 C90.8100328,0 117,27.3601744 117,61.1111111" id="Fill-48" fill="#B0ABD6"></path>
                <path d="M117,59.8888889 C117,93.6398256 90.8100328,121 58.5,121 C26.1935253,121 0,93.6398256 0,59.8888889" id="Fill-49" fill="#B0ABD6"></path>
                <path d="M81.0467955,60.0773303 C81.0467955,60.0773303 82.5447037,59.1174471 81.9669391,56.1231058 C81.3891746,53.1287644 80.8167596,51.4489689 79.6630137,51.2107626 L78.511051,50.9725563 C78.511051,50.9725563 76.7902399,43.8334254 79.9608121,33.936395 C83.3061403,23.5153107 83.2330282,21.0220848 79.7789233,20.782114 C76.321252,20.5439077 70.4312631,30.1762645 69.1776566,35.7573498 C67.1055503,44.9821091 70.677348,53.8451478 70.677348,53.8451478 C70.677348,53.8451478 70.1013667,54.9250163 70.4455289,56.7195038 C70.7896911,58.5192847 71.7151844,60.6737283 72.0575634,60.9154635 C72.4052921,61.1536698 72.8671471,61.2718907 72.8671471,61.2718907 C72.8671471,61.2718907 76.5530711,69.418546 76.783107,75.7671849 C77.0149261,82.1158238 75.167506,84.753738 71.0215102,85.3501359 C66.8737312,85.9518274 57.7703727,81.1594696 59.8442622,67.744044 C61.9181517,54.3250894 66.0694972,45.8202424 57.7703727,37.5553662 C49.9420194,29.7527867 40.0255107,33.8411125 36.1095509,37.0754246 C29.0283684,42.9247125 25.0018486,50.0214956 28.2152182,64.488558 C30.2891077,73.8333027 29.4260273,77.2070096 28.2740646,82.5975299 C27.2397947,87.4269419 26.6620301,94.4549099 30.57799,93.0186141 C34.4975164,91.5805539 37.3613741,81.8193893 38.6452954,74.57086 C39.9131676,67.3823233 34.3780404,55.883135 38.069314,48.8163482 C41.189956,42.832959 48.3210688,39.9515451 52.8183597,47.378288 C57.1408947,54.5227124 50.2380346,67.0876533 50.0079987,74.9961023 C49.7779628,82.9010223 53.4282223,89.3467082 62.8810927,93.6785338 C73.336135,98.4708916 84.338627,92.1469556 85.954228,83.7603295 C87.5662625,75.3737034 81.0467955,60.0773303 81.0467955,60.0773303 M71.8257443,52.5306019 C71.8257443,52.5306019 68.5981088,44.5021676 70.677348,36.7172329 C72.4052921,30.2468442 74.5933079,26.4143695 77.1272692,24.1364116 C79.1619278,22.3136923 80.930886,21.38557 80.0089592,24.8580884 C79.0888156,28.3323713 76.321252,35.8773352 76.0894328,41.1461055 C75.8665298,46.300184 77.1272692,50.9725563 77.1272692,50.9725563 C77.1272692,50.9725563 75.8593969,50.9725563 74.2491457,51.5707188 C72.635328,52.1688813 71.8257443,52.5306019 71.8257443,52.5306019 M73.4431284,59.5973887 C72.5176352,59.235668 72.0575634,55.7737365 72.2893825,54.5668246 C72.5176352,53.3669707 77.244962,52.4106165 78.7428701,52.7670437 C80.2372118,53.1287644 80.6990669,57.6811514 80.2407783,58.3992993 C79.7789233,59.1174471 74.3614888,59.9555804 73.4431284,59.5973887 M76.6671974,90.9823914 C66.6436953,95.7729847 55.5270769,90.2254248 52.9913324,78.7262364 C50.4573711,67.2252836 60.4612577,56.8836014 55.2346282,46.9001109 C50.9709396,38.7516911 43.0213271,38.873441 38.6452954,43.7822552 C34.8773431,48.0117403 34.1176897,53.4516663 36.1095509,65.5878359 C37.7215853,75.4072287 34.8434618,82.3557946 33.4578968,85.9518274 C32.0758982,89.5443312 28.6217933,95.2948076 29.3101178,88.5862126 C30.0020087,81.8776175 32.0758982,80.1995865 31.2698809,71.696504 C30.4656469,63.191657 27.3503546,54.6850455 32.1900245,44.6239174 C36.1773134,36.3308094 47.7468706,31.8048898 55.9265191,39.2333972 C64.1079508,46.6601401 58.6940828,61.6336114 57.6562464,68.7003982 C56.6201933,75.7671849 59.961955,84.8719589 67.2196767,87.3881231 C74.4791816,89.9042874 80.3549046,83.557413 78.511051,74.57086 C76.6671974,65.5878359 74.7110007,61.6336114 74.7110007,61.6336114 C74.7110007,61.6336114 76.4371615,61.1536698 77.3573051,61.0336844 C78.2810151,60.9154635 79.6630137,60.4337575 79.6630137,60.4337575 C79.6630137,60.4337575 81.1591387,63.5480842 82.3146678,69.0603543 C83.4630641,74.57086 86.6924827,86.1882692 76.6671974,90.9823914" id="Fill-50" fill="#241F21"></path>
            </g>
        </g>
    </g>
</svg>