<svg viewBox="0 0 197 127" style="width: 50%; padding-bottom: 92%; height: 1px; overflow: visible" version="1.1" xmlns="http://www.w3.org/2000/svg" xmlns:xlink="http://www.w3.org/1999/xlink">
    <g id="Page-1" stroke="none" stroke-width="1" fill="none" fill-rule="evenodd">
        <g id="A2" transform="translate(-1217.000000, -472.000000)">
            <g id="Group-39" transform="translate(1217.000000, 474.000000)">
                <g id="Group-25" transform="translate(28.000000, 0.000000)">
                    <line x1="7" y1="22.5" x2="30" y2="22.5" id="Stroke-22" stroke="#FF0000" stroke-width="1.5" stroke-dasharray="2,2"></line>
                    <line x1="146.5" y1="109" x2="146.5" y2="83" id="Stroke-24" stroke="#FF0000" stroke-width="1.5" stroke-dasharray="2"></line>
                    <path id="Line-2" d="M1.88635889,0.0516671284 C2.05579046,-0.301929182 2.46784472,-0.445252405 2.80670785,-0.26845425 C2.93946525,-0.199189519 3.04711214,-0.0868623335 3.11349084,0.0516671284 L3.11349084,0.0516671284 L8.17742809,10.619884 C8.34685966,10.9734803 8.20950823,11.40345 7.8706451,11.5802481 C7.775392,11.6299454 7.67035833,11.6558185 7.56386212,11.6558185 L7.56386212,11.6558185 L3.25,11.655 L3.25,108.677515 C3.25,109.091728 2.91421356,109.427515 2.5,109.427515 C2.12030423,109.427515 1.80650904,109.145361 1.75684662,108.779285 L1.75,108.677515 L1.75,11.655 L-2.56401239,11.6558185 C-2.91130118,11.6558185 -3.198314,11.3865259 -3.24373774,11.037137 L-3.25,10.9400054 C-3.25,10.8288789 -3.22520491,10.7192785 -3.17757836,10.619884 L-3.17757836,10.619884 Z" fill="#B99C9A" fill-rule="nonzero"></path>
                    <path id="Line-2-Copy" d="M156.373712,103.51622 C156.484838,103.51605 156.594476,103.540678 156.693943,103.588153 L156.693943,103.588153 L167.269881,108.635946 C167.623735,108.804837 167.767688,109.216672 167.591407,109.555805 C167.522345,109.688668 167.410183,109.796486 167.271755,109.863077 L167.271755,109.863077 L156.711283,114.943146 C156.357946,115.113117 155.927767,114.976422 155.750451,114.63783 C155.700609,114.542653 155.674575,114.437659 155.674413,114.331162 L155.674413,114.331162 L155.667,110.017 L3.28390389,110.249999 C2.86969081,110.250632 2.53339201,109.915358 2.5327595,109.501145 C2.53217969,109.12145 2.81385407,108.807224 3.17985337,108.757003 L3.28161335,108.750001 L155.665,108.517 L155.658947,104.2033 C155.658417,103.856011 155.927271,103.568588 156.27659,103.52263 Z" fill="#B99C9A" fill-rule="nonzero"></path>
                    <path d="M5,22.4999298 C5,23.8815993 3.8816307,25 2.5,25 C1.1183693,25 0,23.8815993 0,22.4999298 C0,21.1182602 1.1183693,20 2.5,20 C3.8816307,20 5,21.1182602 5,22.4999298" id="Fill-18" fill="#FF0000"></path>
                    <path d="M149,109.49993 C149,110.881599 147.881599,112 146.49993,112 C145.11826,112 144,110.881599 144,109.49993 C144,108.11826 145.11826,107 146.49993,107 C147.881599,107 149,108.11826 149,109.49993" id="Fill-20" fill="#FF0000"></path>
                    <line x1="3" y1="23" x2="147" y2="110" id="Stroke-16" stroke="#FF0000" stroke-width="1.5"></line>
                </g>
                <text id="Tốc-độ-tăng-trưởng" transform="translate(12.000000, 61.000000) rotate(-90.000000) translate(-12.000000, -61.000000) " font-family="LucidaGrande-Bold, Lucida Grande" font-size="10" font-weight="bold" letter-spacing="0.0179718202" fill="#B99C9A">
                    <tspan x="-5.51241155" y="59">Tốc độ </tspan>
                    <tspan x="-19.4684739" y="71">tăng trưởng</tspan>
                </text>
                <text id="Dân-số-(P)" font-family="LucidaGrande-Bold, Lucida Grande" font-size="10" font-weight="bold" letter-spacing="0.0179718202" fill="#B99C9A">
                    <tspan x="77" y="123">Dân số (P)</tspan>
                </text>
                <text id="r" font-family="LucidaGrande-Bold, Lucida Grande" font-size="10" font-weight="bold" letter-spacing="0.0179718202" fill="#FF0000">
                    <tspan x="61" y="25">r</tspan>
                </text>
                <text id="Q" font-family="LucidaGrande-Bold, Lucida Grande" font-size="10" font-weight="bold" letter-spacing="0.0179718202" fill="#FF0000">
                    <tspan x="170" y="77">Q</tspan>
                </text>
            </g>
        </g>
    </g>
</svg>