<svg style='scaling-svg' viewBox="0 0 728 227" version="1.1" xmlns="http://www.w3.org/2000/svg" xmlns:xlink="http://www.w3.org/1999/xlink">
    <g id="Page-1" stroke="none" stroke-width="1" fill="none" fill-rule="evenodd">
        <g id="A2" transform="translate(-2496.000000, -1702.000000)">
            <g id="thermal-energy" transform="translate(2496.000000, 1388.000000)">
                <g id="thermal-1" transform="translate(0.000000, 315.000000)">
                    <rect id="Rectangle" x="0" y="0" width="728" height="226"></rect>
                    <g id="Group-45" transform="translate(89.000000, 0.000000)">
                        <polygon id="Fill-4" fill="#E6E1C2" points="273.193241 48.4144602 513.182856 93.5082898 513.182856 22.9047395 273.193241 0.358374672"></polygon>
                        <polygon id="Stroke-6" stroke="#1A1919" points="273.193241 48.4144602 513.18301 93.5081818 513.18301 22.9047294 273.193241 0.35840061"></polygon>
                        <polygon id="Fill-7" fill="#00A3DA" points="478.329151 64.0282881 439.965906 58.047237 439.965906 30.9882993 478.329151 35.4381731"></polygon>
                        <polygon id="Stroke-8" stroke="#1A1919" points="478.329151 64.0282881 439.966082 58.047217 439.966082 30.9882175 478.329151 35.4381088"></polygon>
                        <polygon id="Fill-9" fill="#E6E1C2" points="273.193241 0 33.2034053 22.3780673 33.2034053 93.5082898 273.193241 48.4144602"></polygon>
                        <polygon id="Stroke-10" stroke="#1A1919" points="273.193241 0 33.2034721 22.3782076 33.2034721 93.5083688 273.193241 48.4146472"></polygon>
                        <polygon id="Fill-11" fill="#00A3DA" points="73.9183883 60.8361355 105.887612 55.9541881 105.887612 29.7125383 73.9183883 33.3578841"></polygon>
                        <polygon id="Stroke-12" stroke="#1A1919" points="73.9183883 60.8361355 105.887612 55.9542366 105.887612 29.7124338 73.9183883 33.3578971"></polygon>
                        <polygon id="Fill-13" fill="#F7F2CF" points="513.182856 22.9051795 273.193241 85.3109917 273.193241 218.316174 513.182856 93.5085098"></polygon>
                        <polygon id="Stroke-14" stroke="#1A1919" points="513.182856 22.9051795 273.193087 85.3111277 273.193087 218.316272 513.182856 93.5086319"></polygon>
                        <polygon id="Fill-15" fill="#F7F2CF" points="33.2034053 22.9051795 273.193241 85.3090117 273.193241 218.316174 33.2034053 93.5085098"></polygon>
                        <polygon id="Stroke-16" stroke="#1A1919" points="33.2034053 22.9051795 273.193174 85.3089996 273.193174 218.316272 33.2034053 93.5086319"></polygon>
                        <polygon id="Fill-17" fill="#ABDCEC" points="165.986475 86.8692285 213.314922 102.622534 213.314922 158.990976 165.986475 137.332078"></polygon>
                        <polygon id="Stroke-18" stroke="#1A1919" points="165.986475 86.8692285 213.314781 102.62261 213.314781 158.991092 165.986475 137.332188"></polygon>
                        <polygon id="Fill-19" fill="#ABDCEC" points="77.6815212 57.4776655 53.758968 49.5153238 53.758968 85.9698819 77.6815212 96.9180191"></polygon>
                        <polygon id="Stroke-20" stroke="#1A1919" points="77.6815212 57.4776655 53.7589507 49.5153181 53.7589507 85.9699514 77.6815212 96.918046"></polygon>
                        <polygon id="Fill-21" fill="#ABDCEC" points="380.399345 86.8692285 333.072 102.621434 333.072 158.990976 380.399345 137.332078"></polygon>
                        <polygon id="Stroke-22" stroke="#1A1919" points="380.399345 86.8692285 333.072106 102.621546 333.072106 158.991092 380.399345 137.332188"></polygon>
                        <polygon id="Fill-23" fill="#ABDCEC" points="468.704961 57.4776655 492.627514 49.5153238 492.627514 85.9698819 468.704961 96.9180191"></polygon>
                        <polygon id="Stroke-24" stroke="#1A1919" points="468.704961 57.4776655 492.627531 49.5153181 492.627531 85.9699514 468.704961 96.918046"></polygon>
                        <polygon id="Fill-25" fill="#00A3DA" points="217.379238 20.786391 243.888174 17.5856585 243.888174 40.087364 217.379238 44.39028"></polygon>
                        <polygon id="Stroke-26" stroke="#1A1919" points="217.379238 20.786391 243.888119 17.585704 243.888119 40.0873423 217.379238 44.3903936"></polygon>
                        <polygon id="Fill-27" fill="#00A3DA" points="329.593085 20.7665913 303.030831 17.5649789 303.030831 40.086704 329.593085 44.39512"></polygon>
                        <polygon id="Stroke-28" stroke="#1A1919" points="329.593085 20.7665913 303.030923 17.5648402 303.030923 40.0866956 329.593085 44.3950672"></polygon>
                        <line x1="135.919528" y1="158.991416" x2="250.663468" y2="222.364593" id="Stroke-29" stroke="#3D1818"></line>
                        <polygon id="Fill-30" fill="#3D1818" points="250.170931 222.091758 245.872191 224.66154 257.246635 226 250.066498 217.091892"></polygon>
                        <line x1="101.520572" y1="141.704513" x2="28.8097682" y2="101.179857" id="Stroke-31" stroke="#3D1818"></line>
                        <polygon id="Fill-32" fill="#3D1818" points="23.5532167 98.2507593 32.6486296 99.3562428 29.2023225 101.399132 29.2704026 105.399993"></polygon>
                        <line x1="409.334048" y1="158.991416" x2="294.439853" y2="222.257123" id="Stroke-33" stroke="#3D1818"></line>
                        <polygon id="Fill-34" fill="#3D1818" points="287.850952 225.884722 295.042986 216.984974 294.932164 221.98594 299.226718 224.559901"></polygon>
                        <line x1="441.841303" y1="142.841456" x2="516.740933" y2="101.218692" id="Stroke-35" stroke="#3D1818"></line>
                        <polygon id="Fill-36" fill="#3D1818" points="522.000441 98.2954186 516.274882 105.438272 516.347369 101.436532 512.904146 99.3903423"></polygon>
                        <line x1="284.2513" y1="205.051251" x2="284.2513" y2="160.51084" id="Stroke-37" stroke="#3D1818"></line>
                        <polygon id="Fill-38" fill="#3D1818" points="284.2513 212.56414 288.583089 201.977897 284.2513 204.49004 279.920612 201.977897"></polygon>
                        <line x1="284.2513" y1="91.5234793" x2="284.2513" y2="136.062827" id="Stroke-39" stroke="#3D1818"></line>
                        <polygon id="Fill-40" fill="#3D1818" points="284.2513 84.010591 279.91951 94.5968336 284.2513 92.084691 288.582207 94.5968336"></polygon>
                        <text id="12-m" font-family="LucidaGrande, Lucida Grande" font-size="15" font-weight="normal" fill="#3D1818">
                            <tspan x="413.320807" y="158.709794">12 m</tspan>
                        </text>
                        <text id="2.5-m" font-family="LucidaGrande, Lucida Grande" font-size="15" font-weight="normal" fill="#000000">
                            <tspan x="280.335241" y="152.372908">2.5 m</tspan>
                        </text>
                        <text id="2-m" font-family="LucidaGrande, Lucida Grande" font-size="15" font-weight="normal" fill="#1A1919">
                            <tspan x="341.873424" y="125.839768">2 m</tspan>
                        </text>
                        <text id="2" font-family="LucidaGrande, Lucida Grande" font-size="10" font-weight="normal" fill="#1A1919">
                            <tspan x="369.133912" y="117.191138">2</tspan>
                        </text>
                        <text id="12-m" font-family="LucidaGrande, Lucida Grande" font-size="15" font-weight="normal" fill="#3D1818">
                            <tspan x="98.087518" y="156.645736">12 m</tspan>
                        </text>
                        <text id="0" font-family="LucidaGrande, Lucida Grande" font-size="15" font-weight="normal" fill="#3D1818">
                            <tspan x="0" y="66.4772312">0</tspan>
                        </text>
                        <text id="°" font-family="LucidaGrande, Lucida Grande" font-size="15" font-weight="normal" fill="#3D1818">
                            <tspan x="8.65343226" y="66.4772312">°</tspan>
                        </text>
                        <text id="C" font-family="LucidaGrande, Lucida Grande" font-size="15" font-weight="normal" fill="#3D1818">
                            <tspan x="13.3976651" y="66.4772312">C</tspan>
                        </text>
                        <g id="Group-700" transform="translate(255.840720, 54.668566)" fill="#3D1818" font-family="LucidaGrande, Lucida Grande" font-size="15" font-weight="normal">
                            <text id="20">
                                <tspan x="0" y="15">20</tspan>
                            </text>
                            <text id="°">
                                <tspan x="18.3068645" y="15">°</tspan>
                            </text>
                            <text id="C">
                                <tspan x="23.0510974" y="15">C</tspan>
                            </text>
                        </g>
                        <g id="Group-2" transform="translate(82.961826, 64.630097)" fill="#AB2430" font-family="LucidaGrande, Lucida Grande" font-weight="normal">
                            <text id="0.15-W/m" font-size="15">
                                <tspan x="0" y="17.6484173">0.15</tspan>
                                <tspan x="33.2006836" y="17.6484173" letter-spacing="-0.54"> </tspan>
                                <tspan x="37.4067773" y="17.6484173">W/m</tspan>
                            </text>
                            <text id="2" font-size="10">
                                <tspan x="70.8493741" y="10">2</tspan>
                            </text>
                            <text id="/" font-size="15">
                                <tspan x="73.311745" y="17.6446931">/</tspan>
                            </text>
                            <text id="°" font-size="15">
                                <tspan x="80.4289521" y="17.6446931">°</tspan>
                            </text>
                            <text id="C" font-size="15">
                                <tspan x="85.173185" y="17.6446931">C</tspan>
                            </text>
                        </g>
                        <g id="Group-5" transform="translate(185.880008, 155.868708)" fill="#292D78" font-family="LucidaGrande, Lucida Grande" font-weight="normal">
                            <text id="0.8-W/m" font-size="15">
                                <tspan x="0" y="16.6494813">0.8</tspan>
                                <tspan x="23.7158203" y="16.6494813" letter-spacing="-0.54"> </tspan>
                                <tspan x="27.9219141" y="16.6494813">W/m</tspan>
                            </text>
                            <text id="2" font-size="10">
                                <tspan x="61.2015897" y="10">2</tspan>
                            </text>
                            <text id="/" font-size="15">
                                <tspan x="63.6639606" y="16.6446931">/</tspan>
                            </text>
                            <text id="°" font-size="15">
                                <tspan x="69.7811677" y="16.6446931">°</tspan>
                            </text>
                            <text id="C" font-size="15">
                                <tspan x="74.5254006" y="16.6446931">C</tspan>
                            </text>
                        </g>
                        <line x1="189.650589" y1="122.929772" x2="152.949919" y2="137.759551" id="Stroke-41" stroke="#292D78" stroke-width="2"></line>
                        <polygon id="Fill-42" fill="#292D78" points="143.18493 141.704513 154.669536 130.530879 153.6794 137.464296 159.218565 141.757752"></polygon>
                        <line x1="124.147179" y1="90.9186791" x2="113.119928" y2="95.3749547" id="Stroke-43" stroke="#AB2430" stroke-width="2"></line>
                        <polygon id="Fill-44" fill="#AB2430" points="103.354989 99.3199142 114.839594 88.1460603 113.849459 95.0794772 119.388623 99.3731534"></polygon>
                    </g>
                </g>
            </g>
        </g>
    </g>
</svg>