<svg viewBox="0 0 463 91" style="width: 100%; padding-bottom: 92%; height: 1px; overflow: visible" version="1.1" xmlns="http://www.w3.org/2000/svg" xmlns:xlink="http://www.w3.org/1999/xlink">
    <g id="Page-1" stroke="none" stroke-width="1" fill="none" fill-rule="evenodd">
        <g id="A2" transform="translate(-83.000000, -53.000000)">
            <g id="Group-300" transform="translate(83.197000, 53.161025)">
                <g id="Group-28" transform="translate(17.772670, 16.899275)" fill="#3AAB47">
                    <polygon id="Fill-7" points="404.99653 0 442.40973 0 442.40973 56.1198 438.66833 59.8611 408.73783 59.8611 404.99653 56.1198"></polygon>
                    <path d="M404.99653,56.1198 C404.99653,58.1878 406.66983,59.8611 408.73783,59.8611" id="Fill-9"></path>
                    <path d="M442.40973,56.1198 C442.40973,58.1878 440.73643,59.8611 438.66833,59.8611" id="Fill-10"></path>
                    <polygon id="Fill-11" points="358.23003 29.9305 395.64323 29.9305 395.64323 56.1198 391.90183 59.8611 361.97133 59.8611 358.23003 56.1198"></polygon>
                    <path d="M358.23003,56.1198 C358.23003,58.1878 359.90333,59.8611 361.97133,59.8611" id="Fill-12"></path>
                    <path d="M395.64323,56.1198 C395.64323,58.1878 393.96993,59.8611 391.90183,59.8611" id="Fill-13"></path>
                    <polygon id="Fill-14" points="311.46353 44.8958 348.87673 44.8958 348.87673 56.1198 345.13533 59.8611 315.20483 59.8611 311.46353 56.1198"></polygon>
                    <path d="M311.46353,56.1198 C311.46353,58.1878 313.13683,59.8611 315.20483,59.8611" id="Fill-15"></path>
                    <path d="M348.87673,56.1198 C348.87673,58.1878 347.20343,59.8611 345.13533,59.8611" id="Fill-16"></path>
                    <polygon id="Fill-17" points="264.69703 52.3784 302.11023 52.3784 302.11023 56.1198 298.36883 59.8611 268.43833 59.8611 264.69703 56.1198"></polygon>
                    <path d="M264.69703,56.1198 C264.69703,58.1878 266.37033,59.8611 268.43833,59.8611" id="Fill-18"></path>
                    <path d="M302.11023,56.1198 C302.11023,58.1878 300.43693,59.8611 298.36883,59.8611" id="Fill-19"></path>
                    <polygon id="Fill-20" points="217.93053 56.1198 255.34373 56.1198 251.60233 59.8611 221.67183 59.8611"></polygon>
                    <path d="M217.93053,56.1198 C217.93053,58.1878 219.60383,59.8611 221.67183,59.8611" id="Fill-21"></path>
                    <path d="M255.34373,56.1198 C255.34373,58.1878 253.67043,59.8611 251.60233,59.8611" id="Fill-22"></path>
                    <path d="M171.53993,57.7566 L208.20113,57.7566 C208.20113,57.7566 207.76053,58.5834 207.31253,58.9239 C206.86453,59.2643 204.83573,59.8611 204.83573,59.8611 L174.90523,59.8611 C174.90523,59.8611 173.62383,59.9387 172.83623,59.2372 C172.04873,58.5367 171.53993,57.7566 171.53993,57.7566" id="Fill-23"></path>
                    <path d="M125.21813,58.4581 L160.99073,58.4581 C160.99073,58.4581 160.71483,58.85 160.04703,59.2961 C159.37823,59.7432 158.06973,59.8611 158.06973,59.8611 L128.13923,59.8611 C128.13923,59.8611 126.81663,59.7021 126.36583,59.4149 C125.91493,59.1278 125.21813,58.4581 125.21813,58.4581" id="Fill-24"></path>
                    <path d="M86.13673,59.8026 C86.38553,59.7175 86.61183,59.6165 86.79143,59.4201 C86.95693,59.2377 87.05613,59.0057 87.24973,58.8476 C87.66033,58.5119 88.31693,58.5437 88.81833,58.5212 C89.56093,58.4885 90.28673,58.626 91.02563,58.6335 C91.73373,58.6409 92.41933,58.481 93.13293,58.5334 C93.79233,58.5811 94.42093,58.7167 95.08313,58.64 C96.02593,58.5315 96.95383,58.5352 97.90033,58.5895 C99.40993,58.6755 100.91393,58.3847 102.43203,58.437 C103.01193,58.4567 103.58343,58.5128 104.14183,58.6718 C104.70303,58.8317 105.44003,59.0263 105.78793,59.5342 C105.85623,59.6324 105.90583,59.7446 105.94983,59.8559 C105.48963,59.9635 105.11733,59.8578 104.66843,59.7633 C104.11563,59.6492 103.54223,59.6997 102.98203,59.6913 C101.61823,59.6698 100.24713,59.6558 98.88333,59.6932 C97.34473,59.7353 95.80053,59.797 94.26093,59.8017 C93.31443,59.8045 92.36783,59.7979 91.42133,59.8335 C90.75063,59.8587 90.07633,59.9411 89.40473,59.9261 C88.31603,59.9018 87.21143,59.5688 86.13673,59.8615" id="Fill-25"></path>
                    <path d="M44.31033,59.7442 C44.59003,59.4364 44.88083,59.153 45.26063,58.9716 C45.75633,58.734 46.31843,58.662 46.86003,58.6162 C48.24903,58.4983 49.67913,58.4646 51.07183,58.5058 C51.72563,58.5245 52.38033,58.5853 53.01543,58.7443 C53.38773,58.8378 54.01533,58.9744 54.25383,59.3158 C54.49703,59.6637 53.86103,59.776 53.64113,59.8152 C52.73573,59.9752 51.78453,59.9387 50.87073,59.9209 C48.86163,59.8835 46.85633,59.7545 44.84623,59.7451 C44.67413,59.7442 44.50203,59.7442 44.32993,59.7442" id="Fill-26"></path>
                    <path d="M0.07764,59.7844 C0.43119,59.0857 0.90914,58.7265 1.68266,58.5713 C2.43467,58.4197 3.2456,58.3786 3.99012,58.5872 C4.26791,58.6657 5.86639,59.2297 5.59608,59.7133 C5.45298,59.9724 4.79731,59.9107 4.56628,59.9107 C3.97516,59.9107 3.38496,59.8676 2.79477,59.8471 C1.86318,59.8134 0.93159,59.8452 -2.84217094e-14,59.804" id="Fill-27"></path>
                </g>
                <polygon id="Fill-29" fill-opacity="0.3" fill="#F6EB3D" points="1.87066 73.0190748 39.28386 73.0190748 39.28386 16.8992748 1.87066 16.8992748"></polygon>
                <polygon id="Fill-31" fill-opacity="0.3" fill="#F6EB3D" points="5.61198 76.7603748 35.54254 76.7603748 35.54254 73.0190548 5.61198 73.0190548"></polygon>
                <path d="M5.61198,76.7603748 C3.54397,76.7603748 1.87066,75.0870748 1.87066,73.0190748 L5.61198,73.0190748 L5.61198,76.7603748 Z" id="Fill-33" fill-opacity="0.3" fill="#F6EB3D"></path>
                <g id="Group-52" transform="translate(0.000000, 15.028615)">
                    <g id="Group-37" transform="translate(35.542500, 57.990460)" fill="#F6EB3D" fill-opacity="0.3">
                        <path d="M3.7414,0 C3.7414,2.068 2.0681,3.7413 0,3.7413 L0,0 L3.7414,0 Z" id="Fill-35"></path>
                    </g>
                    <line x1="1.87066" y1="1.87066" x2="1.87066" y2="57.99046" id="Stroke-38" stroke="#B99C9A"></line>
                    <line x1="39.2839" y1="1.87066" x2="39.2839" y2="57.99046" id="Stroke-40" stroke="#B99C9A"></line>
                    <path d="M5.61198,61.73176 C3.54396537,61.73176 1.87066,60.0584546 1.87066,57.99044" id="Stroke-42" stroke="#B99C9A"></path>
                    <path d="M39.2839,57.99046 C39.2839,60.0584746 37.6105946,61.73178 35.54258,61.73178" id="Stroke-44" stroke="#B99C9A"></path>
                    <path d="M1.87066,1.87066 C1.87066,0.83712035 1.03353965,0 0,0" id="Stroke-46" stroke="#B99C9A"></path>
                    <path d="M39.2839,1.87066 C39.2839,0.83712035 40.1210204,0 41.15456,0" id="Stroke-48" stroke="#B99C9A"></path>
                    <line x1="35.5425" y1="61.73176" x2="5.61194" y2="61.73176" id="Stroke-50" stroke="#B99C9A"></line>
                </g>
                <polygon id="Fill-53" fill-opacity="0.3" fill="#F6EB3D" points="48.6372 73.0190748 86.0504 73.0190748 86.0504 16.8992748 48.6372 16.8992748"></polygon>
                <polygon id="Fill-55" fill-opacity="0.3" fill="#F6EB3D" points="52.3785 76.7603748 82.30906 76.7603748 82.30906 73.0190548 52.3785 73.0190548"></polygon>
                <path d="M52.3785,76.7603748 C50.3105,76.7603748 48.6372,75.0870748 48.6372,73.0190748 L52.3785,73.0190748 L52.3785,76.7603748 Z" id="Fill-57" fill-opacity="0.3" fill="#F6EB3D"></path>
                <g id="Group-76" transform="translate(46.766540, 15.028615)">
                    <g id="Group-61" transform="translate(35.542460, 57.990460)" fill="#F6EB3D" fill-opacity="0.3">
                        <path d="M3.7414,0 C3.7414,2.068 2.0681,3.7413 0,3.7413 L0,0 L3.7414,0 Z" id="Fill-59"></path>
                    </g>
                    <line x1="1.87066" y1="1.87066" x2="1.87066" y2="57.99046" id="Stroke-62" stroke="#B99C9A"></line>
                    <line x1="39.28386" y1="1.87066" x2="39.28386" y2="57.99046" id="Stroke-64" stroke="#B99C9A"></line>
                    <path d="M5.61196,61.73176 C3.54394537,61.73176 1.87064,60.0584546 1.87064,57.99044" id="Stroke-66" stroke="#B99C9A"></path>
                    <path d="M39.28386,57.99046 C39.28386,60.0584746 37.6105546,61.73178 35.54254,61.73178" id="Stroke-68" stroke="#B99C9A"></path>
                    <path d="M1.87066,1.87066 C1.87066,0.83712035 1.03353965,0 0,0" id="Stroke-70" stroke="#B99C9A"></path>
                    <path d="M39.28386,1.87066 C39.28386,0.83712035 40.1209803,0 41.15452,0" id="Stroke-72" stroke="#B99C9A"></path>
                    <line x1="35.54246" y1="61.73176" x2="5.6119" y2="61.73176" id="Stroke-74" stroke="#B99C9A"></line>
                </g>
                <polygon id="Fill-77" fill-opacity="0.3" fill="#F6EB3D" points="95.4037 73.0190748 132.8169 73.0190748 132.8169 16.8992748 95.4037 16.8992748"></polygon>
                <polygon id="Fill-79" fill-opacity="0.3" fill="#F6EB3D" points="99.145 76.7603748 129.07556 76.7603748 129.07556 73.0190548 99.145 73.0190548"></polygon>
                <path d="M99.145,76.7603748 C97.077,76.7603748 95.4037,75.0870748 95.4037,73.0190748 L99.145,73.0190748 L99.145,76.7603748 Z" id="Fill-81" fill-opacity="0.3" fill="#F6EB3D"></path>
                <g id="Group-100" transform="translate(93.533040, 15.028615)">
                    <g id="Group-85" transform="translate(35.542460, 57.990460)" fill="#F6EB3D" fill-opacity="0.3">
                        <path d="M3.7414,0 C3.7414,2.068 2.0681,3.7413 0,3.7413 L0,0 L3.7414,0 Z" id="Fill-83"></path>
                    </g>
                    <line x1="1.87066" y1="1.87066" x2="1.87066" y2="57.99046" id="Stroke-86" stroke="#B99C9A"></line>
                    <line x1="39.28386" y1="1.87066" x2="39.28386" y2="57.99046" id="Stroke-88" stroke="#B99C9A"></line>
                    <path d="M5.61196,61.73176 C3.54394537,61.73176 1.87064,60.0584546 1.87064,57.99044" id="Stroke-90" stroke="#B99C9A"></path>
                    <path d="M39.28386,57.99046 C39.28386,60.0584746 37.6105546,61.73178 35.54254,61.73178" id="Stroke-92" stroke="#B99C9A"></path>
                    <path d="M1.87066,1.87066 C1.87066,0.83712035 1.03353965,0 0,0" id="Stroke-94" stroke="#B99C9A"></path>
                    <path d="M39.28386,1.87066 C39.28386,0.83712035 40.1209803,0 41.15452,0" id="Stroke-96" stroke="#B99C9A"></path>
                    <line x1="35.54246" y1="61.73176" x2="5.6119" y2="61.73176" id="Stroke-98" stroke="#B99C9A"></line>
                </g>
                <polygon id="Fill-101" fill-opacity="0.3" fill="#F6EB3D" points="142.1702 73.0190748 179.5834 73.0190748 179.5834 16.8992748 142.1702 16.8992748"></polygon>
                <polygon id="Fill-103" fill-opacity="0.3" fill="#F6EB3D" points="145.9115 76.7603748 175.84206 76.7603748 175.84206 73.0190548 145.9115 73.0190548"></polygon>
                <path d="M145.9115,76.7603748 C143.8435,76.7603748 142.1702,75.0870748 142.1702,73.0190748 L145.9115,73.0190748 L145.9115,76.7603748 Z" id="Fill-105" fill-opacity="0.3" fill="#F6EB3D"></path>
                <g id="Group-124" transform="translate(140.299540, 15.028615)">
                    <g id="Group-109" transform="translate(35.542460, 57.990460)" fill="#F6EB3D" fill-opacity="0.3">
                        <path d="M3.7414,0 C3.7414,2.068 2.0681,3.7413 0,3.7413 L0,0 L3.7414,0 Z" id="Fill-107"></path>
                    </g>
                    <line x1="1.87066" y1="1.87066" x2="1.87066" y2="57.99046" id="Stroke-110" stroke="#B99C9A"></line>
                    <line x1="39.28386" y1="1.87066" x2="39.28386" y2="57.99046" id="Stroke-112" stroke="#B99C9A"></line>
                    <path d="M5.61196,61.73176 C3.54394537,61.73176 1.87064,60.0584546 1.87064,57.99044" id="Stroke-114" stroke="#B99C9A"></path>
                    <path d="M39.28386,57.99046 C39.28386,60.0584746 37.6105546,61.73178 35.54254,61.73178" id="Stroke-116" stroke="#B99C9A"></path>
                    <path d="M1.87066,1.87066 C1.87066,0.83712035 1.03353965,0 0,0" id="Stroke-118" stroke="#B99C9A"></path>
                    <path d="M39.28386,1.87066 C39.28386,0.83712035 40.1209803,0 41.15452,0" id="Stroke-120" stroke="#B99C9A"></path>
                    <line x1="35.54246" y1="61.73176" x2="5.6119" y2="61.73176" id="Stroke-122" stroke="#B99C9A"></line>
                </g>
                <polygon id="Fill-125" fill-opacity="0.3" fill="#F6EB3D" points="188.9367 73.0190748 226.3499 73.0190748 226.3499 16.8992748 188.9367 16.8992748"></polygon>
                <polygon id="Fill-127" fill-opacity="0.3" fill="#F6EB3D" points="192.678 76.7603748 222.60856 76.7603748 222.60856 73.0190548 192.678 73.0190548"></polygon>
                <path d="M192.678,76.7603748 C190.61,76.7603748 188.9367,75.0870748 188.9367,73.0190748 L192.678,73.0190748 L192.678,76.7603748 Z" id="Fill-129" fill-opacity="0.3" fill="#F6EB3D"></path>
                <g id="Group-148" transform="translate(187.066040, 15.028615)">
                    <g id="Group-133" transform="translate(35.542460, 57.990460)" fill="#F6EB3D" fill-opacity="0.3">
                        <path d="M3.7414,0 C3.7414,2.068 2.0681,3.7413 0,3.7413 L0,0 L3.7414,0 Z" id="Fill-131"></path>
                    </g>
                    <line x1="1.87066" y1="1.87066" x2="1.87066" y2="57.99046" id="Stroke-134" stroke="#B99C9A"></line>
                    <line x1="39.28386" y1="1.87066" x2="39.28386" y2="57.99046" id="Stroke-136" stroke="#B99C9A"></line>
                    <path d="M5.61196,61.73176 C3.54394537,61.73176 1.87064,60.0584546 1.87064,57.99044" id="Stroke-138" stroke="#B99C9A"></path>
                    <path d="M39.28386,57.99046 C39.28386,60.0584746 37.6105546,61.73178 35.54254,61.73178" id="Stroke-140" stroke="#B99C9A"></path>
                    <path d="M1.87066,1.87066 C1.87066,0.83712035 1.03353965,0 -2.84217094e-14,0" id="Stroke-142" stroke="#B99C9A"></path>
                    <path d="M39.28386,1.87066 C39.28386,0.83712035 40.1209803,0 41.15452,0" id="Stroke-144" stroke="#B99C9A"></path>
                    <line x1="35.54246" y1="61.73176" x2="5.6119" y2="61.73176" id="Stroke-146" stroke="#B99C9A"></line>
                </g>
                <polygon id="Fill-149" fill-opacity="0.3" fill="#F6EB3D" points="235.7032 73.0190748 273.1164 73.0190748 273.1164 16.8992748 235.7032 16.8992748"></polygon>
                <polygon id="Fill-151" fill-opacity="0.3" fill="#F6EB3D" points="239.4445 76.7603748 269.37506 76.7603748 269.37506 73.0190548 239.4445 73.0190548"></polygon>
                <path d="M239.4445,76.7603748 C237.3765,76.7603748 235.7032,75.0870748 235.7032,73.0190748 L239.4445,73.0190748 L239.4445,76.7603748 Z" id="Fill-153" fill-opacity="0.3" fill="#F6EB3D"></path>
                <g id="Group-172" transform="translate(233.832540, 15.028615)">
                    <g id="Group-157" transform="translate(35.542460, 57.990460)" fill="#F6EB3D" fill-opacity="0.3">
                        <path d="M3.7414,0 C3.7414,2.068 2.0681,3.7413 0,3.7413 L0,0 L3.7414,0 Z" id="Fill-155"></path>
                    </g>
                    <line x1="1.87066" y1="1.87066" x2="1.87066" y2="57.99046" id="Stroke-158" stroke="#B99C9A"></line>
                    <line x1="39.28386" y1="1.87066" x2="39.28386" y2="57.99046" id="Stroke-160" stroke="#B99C9A"></line>
                    <path d="M5.61196,61.73176 C3.54394537,61.73176 1.87064,60.0584546 1.87064,57.99044" id="Stroke-162" stroke="#B99C9A"></path>
                    <path d="M39.28386,57.99046 C39.28386,60.0584746 37.6105546,61.73178 35.54254,61.73178" id="Stroke-164" stroke="#B99C9A"></path>
                    <path d="M1.87066,1.87066 C1.87066,0.83712035 1.03353965,0 0,0" id="Stroke-166" stroke="#B99C9A"></path>
                    <path d="M39.28386,1.87066 C39.28386,0.83712035 40.1209803,0 41.15452,0" id="Stroke-168" stroke="#B99C9A"></path>
                    <line x1="35.54246" y1="61.73176" x2="5.6119" y2="61.73176" id="Stroke-170" stroke="#B99C9A"></line>
                </g>
                <polygon id="Fill-173" fill-opacity="0.3" fill="#F6EB3D" points="282.4697 73.0190748 319.8829 73.0190748 319.8829 16.8992748 282.4697 16.8992748"></polygon>
                <polygon id="Fill-175" fill-opacity="0.3" fill="#F6EB3D" points="286.211 76.7603748 316.14156 76.7603748 316.14156 73.0190548 286.211 73.0190548"></polygon>
                <path d="M286.211,76.7603748 C284.143,76.7603748 282.4697,75.0870748 282.4697,73.0190748 L286.211,73.0190748 L286.211,76.7603748 Z" id="Fill-177" fill-opacity="0.3" fill="#F6EB3D"></path>
                <g id="Group-196" transform="translate(280.599040, 15.028615)">
                    <g id="Group-181" transform="translate(35.542460, 57.990460)" fill="#F6EB3D" fill-opacity="0.3">
                        <path d="M3.7414,0 C3.7414,2.068 2.0681,3.7413 0,3.7413 L0,0 L3.7414,0 Z" id="Fill-179"></path>
                    </g>
                    <line x1="1.87066" y1="1.87066" x2="1.87066" y2="57.99046" id="Stroke-182" stroke="#B99C9A"></line>
                    <line x1="39.28386" y1="1.87066" x2="39.28386" y2="57.99046" id="Stroke-184" stroke="#B99C9A"></line>
                    <path d="M5.61196,61.73176 C3.54394537,61.73176 1.87064,60.0584546 1.87064,57.99044" id="Stroke-186" stroke="#B99C9A"></path>
                    <path d="M39.28386,57.99046 C39.28386,60.0584746 37.6105546,61.73178 35.54254,61.73178" id="Stroke-188" stroke="#B99C9A"></path>
                    <path d="M1.87066,1.87066 C1.87066,0.83712035 1.03353965,0 5.68434189e-14,0" id="Stroke-190" stroke="#B99C9A"></path>
                    <path d="M39.28386,1.87066 C39.28386,0.83712035 40.1209804,0 41.15452,0" id="Stroke-192" stroke="#B99C9A"></path>
                    <line x1="35.54246" y1="61.73176" x2="5.6119" y2="61.73176" id="Stroke-194" stroke="#B99C9A"></line>
                </g>
                <polygon id="Fill-197" fill-opacity="0.3" fill="#F6EB3D" points="329.2362 73.0190748 366.6494 73.0190748 366.6494 16.8992748 329.2362 16.8992748"></polygon>
                <polygon id="Fill-199" fill-opacity="0.3" fill="#F6EB3D" points="332.9775 76.7603748 362.90806 76.7603748 362.90806 73.0190548 332.9775 73.0190548"></polygon>
                <path d="M332.9775,76.7603748 C330.9095,76.7603748 329.2362,75.0870748 329.2362,73.0190748 L332.9775,73.0190748 L332.9775,76.7603748 Z" id="Fill-201" fill-opacity="0.3" fill="#F6EB3D"></path>
                <g id="Group-220" transform="translate(327.365540, 15.028615)">
                    <g id="Group-205" transform="translate(35.542460, 57.990460)" fill="#F6EB3D" fill-opacity="0.3">
                        <path d="M3.7414,0 C3.7414,2.068 2.0681,3.7413 0,3.7413 L0,0 L3.7414,0 Z" id="Fill-203"></path>
                    </g>
                    <line x1="1.87066" y1="1.87066" x2="1.87066" y2="57.99046" id="Stroke-206" stroke="#B99C9A"></line>
                    <line x1="39.28386" y1="1.87066" x2="39.28386" y2="57.99046" id="Stroke-208" stroke="#B99C9A"></line>
                    <path d="M5.61196,61.73176 C3.54394537,61.73176 1.87064,60.0584546 1.87064,57.99044" id="Stroke-210" stroke="#B99C9A"></path>
                    <path d="M39.28386,57.99046 C39.28386,60.0584746 37.6105546,61.73178 35.54254,61.73178" id="Stroke-212" stroke="#B99C9A"></path>
                    <path d="M1.87066,1.87066 C1.87066,0.83712035 1.03353965,0 0,0" id="Stroke-214" stroke="#B99C9A"></path>
                    <path d="M39.28386,1.87066 C39.28386,0.83712035 40.1209804,0 41.15452,0" id="Stroke-216" stroke="#B99C9A"></path>
                    <line x1="35.54246" y1="61.73176" x2="5.6119" y2="61.73176" id="Stroke-218" stroke="#B99C9A"></line>
                </g>
                <polygon id="Fill-221" fill-opacity="0.3" fill="#F6EB3D" points="376.0027 73.0190748 413.4159 73.0190748 413.4159 16.8992748 376.0027 16.8992748"></polygon>
                <polygon id="Fill-223" fill-opacity="0.3" fill="#F6EB3D" points="379.744 76.7603748 409.67456 76.7603748 409.67456 73.0190548 379.744 73.0190548"></polygon>
                <path d="M379.744,76.7603748 C377.676,76.7603748 376.0027,75.0870748 376.0027,73.0190748 L379.744,73.0190748 L379.744,76.7603748 Z" id="Fill-225" fill-opacity="0.3" fill="#F6EB3D"></path>
                <g id="Group-244" transform="translate(374.132040, 15.028615)">
                    <g id="Group-229" transform="translate(35.542460, 57.990460)" fill="#F6EB3D" fill-opacity="0.3">
                        <path d="M3.7414,0 C3.7414,2.068 2.0681,3.7413 0,3.7413 L0,0 L3.7414,0 Z" id="Fill-227"></path>
                    </g>
                    <line x1="1.87066" y1="1.87066" x2="1.87066" y2="57.99046" id="Stroke-230" stroke="#B99C9A"></line>
                    <line x1="39.28386" y1="1.87066" x2="39.28386" y2="57.99046" id="Stroke-232" stroke="#B99C9A"></line>
                    <path d="M5.61196,61.73176 C3.54394537,61.73176 1.87064,60.0584546 1.87064,57.99044" id="Stroke-234" stroke="#B99C9A"></path>
                    <path d="M39.28386,57.99046 C39.28386,60.0584746 37.6105546,61.73178 35.54254,61.73178" id="Stroke-236" stroke="#B99C9A"></path>
                    <path d="M1.87066,1.87066 C1.87066,0.83712035 1.03353965,0 5.68434189e-14,0" id="Stroke-238" stroke="#B99C9A"></path>
                    <path d="M39.28386,1.87066 C39.28386,0.83712035 40.1209804,0 41.15452,0" id="Stroke-240" stroke="#B99C9A"></path>
                    <line x1="35.54246" y1="61.73176" x2="5.6119" y2="61.73176" id="Stroke-242" stroke="#B99C9A"></line>
                </g>
                <polygon id="Fill-245" fill-opacity="0.3" fill="#F6EB3D" points="422.7692 73.0190748 460.1824 73.0190748 460.1824 16.8992748 422.7692 16.8992748"></polygon>
                <polygon id="Fill-247" fill-opacity="0.3" fill="#F6EB3D" points="426.5105 76.7603748 456.44106 76.7603748 456.44106 73.0190548 426.5105 73.0190548"></polygon>
                <path d="M426.5105,76.7603748 C424.4425,76.7603748 422.7692,75.0870748 422.7692,73.0190748 L426.5105,73.0190748 L426.5105,76.7603748 Z" id="Fill-249" fill-opacity="0.3" fill="#F6EB3D"></path>
                <g id="Group-299" transform="translate(3.103177, 0.000000)">
                    <g id="Group-253" transform="translate(453.337823, 73.019075)" fill="#F6EB3D" fill-opacity="0.3">
                        <path d="M3.7414,0 C3.7414,2.068 2.0681,3.7413 0,3.7413 L0,0 L3.7414,0 Z" id="Fill-251"></path>
                    </g>
                    <line x1="419.666023" y1="16.8992748" x2="419.666023" y2="73.0190748" id="Stroke-254" stroke="#B99C9A"></line>
                    <line x1="457.079223" y1="16.8992748" x2="457.079223" y2="73.0190748" id="Stroke-256" stroke="#B99C9A"></line>
                    <path d="M423.407323,76.7603748 C421.339309,76.7603748 419.666003,75.0870695 419.666003,73.0190548" id="Stroke-258" stroke="#B99C9A"></path>
                    <path d="M457.079223,73.0190748 C457.079223,75.0870895 455.405918,76.7603948 453.337903,76.7603948" id="Stroke-260" stroke="#B99C9A"></path>
                    <path d="M419.666023,16.8992748 C419.666023,15.8657352 418.828903,15.0286148 417.795363,15.0286148" id="Stroke-262" stroke="#B99C9A"></path>
                    <g id="Group-266" transform="translate(457.079223, 15.028615)" stroke="#B99C9A">
                        <path d="M0,1.87066 C0,0.83712035 0.83712035,0 1.87066,0" id="Stroke-264"></path>
                    </g>
                    <line x1="453.337823" y1="76.7603748" x2="423.407263" y2="76.7603748" id="Stroke-267" stroke="#B99C9A"></line>
                    <text id="24:00" font-family="LucidaGrande, Lucida Grande" font-size="11.22396" font-weight="normal" fill="#B99C9A">
                        <tspan x="422.695401" y="88.8301413">24:00</tspan>
                    </text>
                    <text id="23:50" font-family="LucidaGrande, Lucida Grande" font-size="11.22396" font-weight="normal" fill="#B99C9A">
                        <tspan x="375.92516" y="88.8301413">23:50</tspan>
                    </text>
                    <text id="23:40" font-family="LucidaGrande, Lucida Grande" font-size="11.22396" font-weight="normal" fill="#B99C9A">
                        <tspan x="329.154919" y="88.8301413">23:40</tspan>
                    </text>
                    <text id="23:30" font-family="LucidaGrande, Lucida Grande" font-size="11.22396" font-weight="normal" fill="#B99C9A">
                        <tspan x="282.384677" y="88.8301413">23:30</tspan>
                    </text>
                    <text id="23:20" font-family="LucidaGrande, Lucida Grande" font-size="11.22396" font-weight="normal" fill="#B99C9A">
                        <tspan x="235.614436" y="88.8301413">23:20</tspan>
                    </text>
                    <text id="23:10" font-family="LucidaGrande, Lucida Grande" font-size="11.22396" font-weight="normal" fill="#B99C9A">
                        <tspan x="188.844195" y="88.8301413">23:10</tspan>
                    </text>
                    <text id="23:00" font-family="LucidaGrande, Lucida Grande" font-size="11.22396" font-weight="normal" fill="#B99C9A">
                        <tspan x="142.073953" y="88.8301413">23:00</tspan>
                    </text>
                    <text id="22:50" font-family="LucidaGrande, Lucida Grande" font-size="11.22396" font-weight="normal" fill="#B99C9A">
                        <tspan x="95.3037119" y="88.8301413">22:50</tspan>
                    </text>
                    <text id="22:40" font-family="LucidaGrande, Lucida Grande" font-size="11.22396" font-weight="normal" fill="#B99C9A">
                        <tspan x="48.5334706" y="88.8301413">22:40</tspan>
                    </text>
                    <text id="22:30" font-family="LucidaGrande, Lucida Grande" font-size="11.22396" font-weight="normal" fill="#B99C9A">
                        <tspan x="1.76322928" y="88.8301413">22:30</tspan>
                    </text>
                    <g id="Group-280" fill="#B99C9A" font-family="LucidaGrande, Lucida Grande" font-size="11.22396" font-weight="normal">
                        <text id="1/512">
                            <tspan x="0" y="11">1/512</tspan>
                        </text>
                    </g>
                    <g id="Group-282" transform="translate(46.770241, 0.000000)" fill="#B99C9A" font-family="LucidaGrande, Lucida Grande" font-size="11.22396" font-weight="normal">
                        <text id="1/256">
                            <tspan x="0" y="11">1/256</tspan>
                        </text>
                    </g>
                    <g id="Group-284" transform="translate(93.540483, 0.000000)" fill="#B99C9A" font-family="LucidaGrande, Lucida Grande" font-size="11.22396" font-weight="normal">
                        <text id="1/128">
                            <tspan x="0" y="11">1/128</tspan>
                        </text>
                    </g>
                    <g id="Group-286" transform="translate(144.184058, 0.000000)" fill="#B99C9A" font-family="LucidaGrande, Lucida Grande" font-size="11.22396" font-weight="normal">
                        <text id="1/64">
                            <tspan x="0" y="11">1/64</tspan>
                        </text>
                    </g>
                    <g id="Group-288" transform="translate(190.954299, 0.000000)" fill="#B99C9A" font-family="LucidaGrande, Lucida Grande" font-size="11.22396" font-weight="normal">
                        <text id="1/32">
                            <tspan x="0" y="11">1/32</tspan>
                        </text>
                    </g>
                    <g id="Group-290" transform="translate(237.724540, 0.000000)" fill="#B99C9A" font-family="LucidaGrande, Lucida Grande" font-size="11.22396" font-weight="normal">
                        <text id="1/16">
                            <tspan x="0" y="11">1/16</tspan>
                        </text>
                    </g>
                    <g id="Group-292" transform="translate(287.368115, 0.000000)" fill="#B99C9A" font-family="LucidaGrande, Lucida Grande" font-size="11.22396" font-weight="normal">
                        <text id="1/8">
                            <tspan x="0" y="11">1/8</tspan>
                        </text>
                    </g>
                    <g id="Group-294" transform="translate(334.138357, 0.000000)" fill="#B99C9A" font-family="LucidaGrande, Lucida Grande" font-size="11.22396" font-weight="normal">
                        <text id="1/4">
                            <tspan x="0" y="11">1/4</tspan>
                        </text>
                    </g>
                    <g id="Group-296" transform="translate(380.908598, 0.000000)" fill="#B99C9A" font-family="LucidaGrande, Lucida Grande" font-size="11.22396" font-weight="normal">
                        <text id="1/2">
                            <tspan x="0" y="11">1/2</tspan>
                        </text>
                    </g>
                    <g id="Group-298" transform="translate(432.482694, 0.000000)" fill="#B99C9A" font-family="LucidaGrande, Lucida Grande" font-size="11.22396" font-weight="normal">
                        <text id="1">
                            <tspan x="0" y="11">1</tspan>
                        </text>
                    </g>
                </g>
            </g>
        </g>
    </g>
</svg>