<svg style='scaling-svg' viewBox="0 0 464 120" version="1.1" xmlns="http://www.w3.org/2000/svg" xmlns:xlink="http://www.w3.org/1999/xlink">
    <g id="Page-1" stroke="none" stroke-width="1" fill="none" fill-rule="evenodd">
        <g id="Board" transform="translate(-3923.000000, -4502.000000)">
            <g id="climate" transform="translate(2302.653000, 3931.027840)">
                <g id="climate-15" transform="translate(1620.544000, 571.872460)">
                    <g id="mode" transform="translate(6.515500, 94.888514)" fill="#b99c9a" font-family="LucidaGrande, Lucida Grande" font-size="9" font-weight="normal">
                        <text id="Điều-chỉnh:-1-W/m2-m">
                            <tspan x="240.380371" y="9">Điều chỉnh: 1 W/m</tspan>
                            <tspan x="322.193359" y="9" font-size="7">²</tspan>
                            <tspan x="326.619629" y="9"> </tspan>
                            <tspan x="253.78418" y="22">mất cân bằng</tspan>
                        </text>
                        <text id="Cân-bằng-mới-sau-khi">
                            <tspan x="352.66333" y="11">Cân bằng mới sau khi </tspan>
                            <tspan x="379.06958" y="22">thêm CO</tspan>
                            <tspan x="417.50415" y="22" font-size="7">2</tspan>
                        </text>
                        <text id="Cân-bằng-thời-kì-tiề">
                            <tspan x="3.46948242" y="11">Cân bằng thời kì tiền </tspan>
                            <tspan x="12.9111328" y="22">công nghiệp hoá </tspan>
                        </text>
                        <text id="Thêm-CO2:-2-W/m2-mất">
                            <tspan x="124.166504" y="9">Thêm CO</tspan>
                            <tspan x="164.925781" y="9" font-size="7">2</tspan>
                            <tspan x="169.352051" y="9">: 2 W/m</tspan>
                            <tspan x="204.407227" y="9" font-size="7">²</tspan>
                            <tspan x="208.833496" y="9"> </tspan>
                            <tspan x="136.78418" y="22">mất cân bằng</tspan>
                        </text>
                    </g>
                    <g id="Group-40">
                        <polygon id="Fill-4" fill="#673232" points="0 94.7421 112.6027 94.7421 112.6027 75.32785 0 75.32785"></polygon>
                        <polygon id="Fill-6" fill="#FFE690" points="0 75.3279 112.6027 75.3279 112.6027 0.00061 0 0.00061"></polygon>
                        <line x1="14.75483" y1="0.0001" x2="14.75483" y2="68.3607805" id="Stroke-20" stroke="#D2DB2F" stroke-width="18"></line>
                        <polygon id="Fill-22" fill="#CFDA00" points="29.23965 66.2353 14.84437 75.3274 0.44676 66.2353 0.44676 66.1414 29.23965 66.1414"></polygon>
                        <line x1="46.9825" y1="75.3278" x2="46.9825" y2="54.6430815" id="Stroke-24" stroke="#AB2424" stroke-width="31"></line>
                        <polygon id="Fill-26" fill="#AB2430" points="25.40572 57.8091 46.8491 44.2649 68.2957 57.8091 68.2957 57.9489 25.40572 57.9489"></polygon>
                        <line x1="46.9825" y1="31.0629" x2="46.9825" y2="2.39504188" id="Stroke-36" stroke="#AB2424" stroke-width="7"></line>
                        <polygon id="Fill-38" fill="#AB2430" points="42.0034 3.1257 46.9517 0 51.9008 3.1257 51.9008 3.1583 42.0034 3.1583"></polygon>
                        <line x1="76.9825" y1="31.0629" x2="76.9825" y2="2.39504188" id="Stroke-36-Copy" stroke="#B44E57" stroke-width="9"></line>
                        <line x1="99.9825" y1="19.0629" x2="99.9825" y2="9.395042" id="Stroke-36-Copy-3" stroke="#E7979E" stroke-width="18"></line>
                        <line x1="99.9825" y1="30.0629" x2="99.9825" y2="20.395042" id="Stroke-36-Copy-4" stroke="#E7979E" stroke-width="18"></line>
                        <line x1="99.9825" y1="41.0629" x2="99.9825" y2="31.395042" id="Stroke-36-Copy-5" stroke="#E7979E" stroke-width="18"></line>
                        <line x1="99.9825" y1="52.0629" x2="99.9825" y2="42.395042" id="Stroke-36-Copy-6" stroke="#E7979E" stroke-width="18"></line>
                        <line x1="76.9825" y1="73.0629" x2="76.9825" y2="44.3950419" id="Stroke-36-Copy-2" stroke="#B44E57" stroke-width="9"></line>
                        <polygon id="Fill-38-Copy" fill="#B44E57" points="70.0034 3.1257 76.9515383 0 83.9008 3.1257 83.9008 3.1583 70.0034 3.1583"></polygon>
                        <polygon id="Fill-38-Copy-3" fill="#E7979E" points="88.0034 7.42258493 99.9511342 0 111.9008 7.42258493 111.9008 7.5 88.0034 7.5"></polygon>
                        <polygon id="Fill-38-Copy-2" fill="#B44E57" transform="translate(76.952100, 73.579150) rotate(-180.000000) translate(-76.952100, -73.579150) " points="70.0034 75.1257 76.9515383 72 83.9008 75.1257 83.9008 75.1583 70.0034 75.1583"></polygon>
                        <text id="240" font-family="LucidaGrande, Lucida Grande" font-size="8" font-weight="normal" fill="#3D1818">
                            <tspan x="7.36063028" y="41.7074454">240</tspan>
                        </text>
                        <text id="Mặt-trời" font-family="LucidaGrande-Bold, Lucida Grande" font-size="7" font-weight="bold" fill="#3D1818">
                            <tspan x="8.38461207" y="8.25636042">Mặt </tspan>
                            <tspan x="8.37777613" y="16.2563604">trời</tspan>
                        </text>
                        <text id="390" font-family="LucidaGrande, Lucida Grande" font-size="9" font-weight="normal" fill="#FFF9EA">
                            <tspan x="38.8117153" y="64.4174585">390</tspan>
                        </text>
                        <text id="288-K" font-family="LucidaGrande, Lucida Grande" font-size="9" font-weight="normal" fill="#FFF9EA">
                            <tspan x="45.6173526" y="88.3848485">288 K</tspan>
                        </text>
                        <text id="90" font-family="LucidaGrande, Lucida Grande" font-size="8" font-weight="normal" fill="#3D1818">
                            <tspan x="32.7666722" y="17.0497948">90</tspan>
                        </text>
                        <text id="150" font-family="LucidaGrande, Lucida Grande" font-size="8" font-weight="normal" fill="#3D1818">
                            <tspan x="56.386381" y="17.0497948">150</tspan>
                        </text>
                        <text id="240" font-family="LucidaGrande, Lucida Grande" font-size="8" font-weight="normal" fill="#3D1818">
                            <tspan x="92.386381" y="28.0497948">240</tspan>
                        </text>
                        <text id="150" font-family="LucidaGrande, Lucida Grande" font-size="8" font-weight="normal" fill="#3D1818">
                            <tspan x="81.9328721" y="64.4174585">150</tspan>
                        </text>
                    </g>
                    <path d="M84.288599,35.8848133 C83.994299,35.2962133 83.387799,34.9638133 82.750999,34.9001133 C82.757999,34.0102133 82.467499,33.1179133 81.940199,32.3079133 C81.903699,31.7869133 81.647499,31.2650133 81.110099,30.8938133 C80.639499,30.5684133 80.275299,30.4317133 79.718499,30.2927133 C79.020299,30.1188133 78.360999,30.3914133 77.919899,30.8565133 C77.679999,30.9660133 77.486599,31.1237133 77.334399,31.3100133 C77.005899,31.1159133 76.674299,30.9319133 76.357499,30.7680133 C75.686499,30.4209133 74.912299,30.3828133 74.240499,30.6096133 C73.915899,30.4139133 73.547799,30.2982133 73.213099,30.3106133 C71.866599,30.3626133 70.756799,30.0605133 69.414199,30.2508133 C68.924099,30.3207133 68.569999,30.6181133 68.347099,31.0064133 C68.231399,31.0103133 68.114999,31.0111133 68.004699,31.0313133 C67.207099,30.3448133 66.008099,30.3222133 65.083199,31.1112133 C63.595299,32.3802133 62.171099,33.2095133 60.196299,33.3982133 C57.826199,33.6242133 58.146099,32.3079133 56.489699,31.8800133 C55.602099,31.6517133 54.783599,31.3504133 53.925499,31.8350133 C53.728999,31.9290133 53.548099,32.0447133 53.373299,32.1705133 C52.589799,31.4102133 51.441999,31.0429133 50.388999,30.6818133 C48.451399,30.0178133 46.747599,31.3644133 44.882299,31.0887133 C44.102599,30.9730133 43.448799,30.7967133 42.813499,30.7501133 C42.457899,30.2702133 42.051699,29.8718133 41.669599,29.6412133 C40.642199,29.0199133 39.322799,28.9112133 38.255099,29.4300133 C37.733999,29.6839133 37.449799,30.1056133 37.296799,30.5863133 C35.999099,29.9479133 34.755099,30.5630133 33.999499,31.8684133 C32.688599,31.6991133 31.618499,32.3848133 31.046199,33.6297133 C28.410499,33.5784133 26.254699,34.6260133 26.927199,37.9443133 C27.141599,38.9973133 28.534699,39.5199133 29.415399,38.9562133 C29.724399,39.0074133 29.998599,39.1130133 30.248599,39.2567133 C30.316999,39.7164133 30.433399,40.1031133 30.571699,40.4604133 C30.312299,41.2804133 30.352699,42.0834133 30.650099,42.8980133 C30.511099,43.8571133 30.867499,44.8542133 31.901199,45.3807133 C32.524699,45.6983133 33.086199,45.9383133 33.802199,45.8529133 C34.271999,45.7970133 34.709999,45.6183133 35.089799,45.3652133 C36.034799,46.5370133 38.055499,46.4640133 38.915099,45.0740133 C39.028499,44.8884133 39.129499,44.7463133 39.227299,44.6251133 C39.454899,44.8099133 39.681599,45.0142133 39.984499,45.0600133 C40.506299,45.1384133 41.052299,45.0212133 41.369099,44.5708133 C41.483299,44.6282133 41.589599,44.6903133 41.717799,44.7400133 C44.249399,45.7084133 47.665499,45.4786133 50.525599,44.5948133 C51.462999,45.4242133 52.765999,45.4126133 53.830699,44.8208133 C56.230299,46.5029133 58.389999,46.7079133 61.368099,45.1998133 C61.710599,45.3473133 62.076299,45.4646133 62.535299,45.4646133 C63.106899,45.4537133 63.644199,45.3062133 64.143599,45.0243133 C64.371899,44.9280133 64.600999,44.8317133 64.829299,44.7346133 C65.625999,45.2417133 66.943099,45.2099133 67.704099,44.6857133 C67.748399,44.6546133 67.799699,44.6220133 67.853999,44.5886133 C69.204499,45.4483133 70.818199,45.5570133 72.316999,45.0398133 C75.535899,46.9735133 81.913799,45.9111133 81.465699,42.1129133 C81.582199,41.9281133 81.701799,41.7440133 81.798099,41.5577133 C83.001799,42.1688133 84.918399,41.5212133 84.954899,39.9036133 C85.399799,39.2800133 85.518699,38.4048133 85.121099,37.5995133 C84.839899,37.0295133 84.571999,36.4540133 84.288599,35.8848133 Z" id="Fill-136" fill="#BBAE92"></path>
                    <text id="GHG:-0.80" font-family="LucidaGrande, Lucida Grande" font-size="8" font-weight="normal" fill="#3D1818">
                        <tspan x="36.714253" y="40.5959912">GHG: 0.80</tspan>
                    </text>
                    <g id="Group-40-Copy" transform="translate(117.000000, 0.000000)">
                        <polygon id="Fill-4" fill="#673232" points="0 94.7421 112.6027 94.7421 112.6027 75.32785 0 75.32785"></polygon>
                        <polygon id="Fill-6" fill="#FFE690" points="0 75.3279 112.6027 75.3279 112.6027 0.00061 0 0.00061"></polygon>
                        <line x1="14.75483" y1="0.0001" x2="14.75483" y2="68.3607805" id="Stroke-20" stroke="#D2DB2F" stroke-width="18"></line>
                        <polygon id="Fill-22" fill="#CFDA00" points="29.23965 66.2353 14.84437 75.3274 0.44676 66.2353 0.44676 66.1414 29.23965 66.1414"></polygon>
                        <line x1="46.9825" y1="75.3278" x2="46.9825" y2="54.6430815" id="Stroke-24" stroke="#AB2424" stroke-width="31"></line>
                        <polygon id="Fill-26" fill="#AB2430" points="25.40572 57.8091 46.8491 44.2649 68.2957 57.8091 68.2957 57.9489 25.40572 57.9489"></polygon>
                        <line x1="46.9825" y1="31.0629" x2="46.9825" y2="2.39504188" id="Stroke-36" stroke="#AB2424" stroke-width="6.8"></line>
                        <polygon id="Fill-38" fill="#AB2430" points="42.0034 3.1257 46.9517 0 51.9008 3.1257 51.9008 3.1583 42.0034 3.1583"></polygon>
                        <line x1="76.9825" y1="31.0629" x2="76.9825" y2="2.39504188" id="Stroke-36-Copy" stroke="#B44E57" stroke-width="9.1"></line>
                        <line x1="99.9825" y1="19.0629" x2="99.9825" y2="9.395042" id="Stroke-36-Copy-3" stroke="#E7979E" stroke-width="18"></line>
                        <line x1="99.9825" y1="30.0629" x2="99.9825" y2="20.395042" id="Stroke-36-Copy-4" stroke="#E7979E" stroke-width="18"></line>
                        <line x1="99.9825" y1="41.0629" x2="99.9825" y2="31.395042" id="Stroke-36-Copy-5" stroke="#E7979E" stroke-width="18"></line>
                        <line x1="99.9825" y1="52.0629" x2="99.9825" y2="42.395042" id="Stroke-36-Copy-6" stroke="#E7979E" stroke-width="18"></line>
                        <line x1="76.9825" y1="73.0629" x2="76.9825" y2="44.3950419" id="Stroke-36-Copy-2" stroke="#B44E57" stroke-width="9.1"></line>
                        <polygon id="Fill-38-Copy" fill="#B44E57" points="70.0034 3.1257 76.9515383 0 83.9008 3.1257 83.9008 3.1583 70.0034 3.1583"></polygon>
                        <polygon id="Fill-38-Copy-3" fill="#E7979E" points="88.0034 7.42258493 99.9511342 0 111.9008 7.42258493 111.9008 7.5 88.0034 7.5"></polygon>
                        <polygon id="Fill-38-Copy-2" fill="#B44E57" transform="translate(76.952100, 73.579150) rotate(-180.000000) translate(-76.952100, -73.579150) " points="70.0034 75.1257 76.9515383 72 83.9008 75.1257 83.9008 75.1583 70.0034 75.1583"></polygon>
                        <text id="240" font-family="LucidaGrande, Lucida Grande" font-size="8" font-weight="normal" fill="#3D1818">
                            <tspan x="7.36063028" y="41.7074454">240</tspan>
                        </text>
                        <text id="Mặt-trời" font-family="LucidaGrande-Bold, Lucida Grande" font-size="7" font-weight="bold" fill="#3D1818">
                            <tspan x="8.38461207" y="8.25636042">Mặt </tspan>
                            <tspan x="8.37777613" y="16.2563604">trời</tspan>
                        </text>
                        <text id="390" font-family="LucidaGrande, Lucida Grande" font-size="9" font-weight="normal" fill="#FFF9EA">
                            <tspan x="38.8117153" y="64.4174585">390</tspan>
                        </text>
                        <text id="288-K" font-family="LucidaGrande, Lucida Grande" font-size="9" font-weight="normal" fill="#FFF9EA">
                            <tspan x="45.6173526" y="88.3848485">288 K</tspan>
                        </text>
                        <text id="86" font-family="LucidaGrande, Lucida Grande" font-size="8" font-weight="normal" fill="#3D1818">
                            <tspan x="32.7666722" y="17.0497948">86</tspan>
                        </text>
                        <text id="152" font-family="LucidaGrande, Lucida Grande" font-size="8" font-weight="normal" fill="#3D1818">
                            <tspan x="56.386381" y="17.0497948">152</tspan>
                        </text>
                        <text id="238" font-family="LucidaGrande, Lucida Grande" font-size="8" font-weight="normal" fill="#3D1818">
                            <tspan x="92.386381" y="28.0497948">238</tspan>
                        </text>
                        <text id="152" font-family="LucidaGrande, Lucida Grande" font-size="8" font-weight="normal" fill="#3D1818">
                            <tspan x="81.9328721" y="64.4174585">152</tspan>
                        </text>
                    </g>
                    <path d="M203.288599,35.8848133 C202.994299,35.2962133 202.387799,34.9638133 201.750999,34.9001133 C201.757999,34.0102133 201.467499,33.1179133 200.940199,32.3079133 C200.903699,31.7869133 200.647499,31.2650133 200.110099,30.8938133 C199.639499,30.5684133 199.275299,30.4317133 198.718499,30.2927133 C198.020299,30.1188133 197.360999,30.3914133 196.919899,30.8565133 C196.679999,30.9660133 196.486599,31.1237133 196.334399,31.3100133 C196.005899,31.1159133 195.674299,30.9319133 195.357499,30.7680133 C194.686499,30.4209133 193.912299,30.3828133 193.240499,30.6096133 C192.915899,30.4139133 192.547799,30.2982133 192.213099,30.3106133 C190.866599,30.3626133 189.756799,30.0605133 188.414199,30.2508133 C187.924099,30.3207133 187.569999,30.6181133 187.347099,31.0064133 C187.231399,31.0103133 187.114999,31.0111133 187.004699,31.0313133 C186.207099,30.3448133 185.008099,30.3222133 184.083199,31.1112133 C182.595299,32.3802133 181.171099,33.2095133 179.196299,33.3982133 C176.826199,33.6242133 177.146099,32.3079133 175.489699,31.8800133 C174.602099,31.6517133 173.783599,31.3504133 172.925499,31.8350133 C172.728999,31.9290133 172.548099,32.0447133 172.373299,32.1705133 C171.589799,31.4102133 170.441999,31.0429133 169.388999,30.6818133 C167.451399,30.0178133 165.747599,31.3644133 163.882299,31.0887133 C163.102599,30.9730133 162.448799,30.7967133 161.813499,30.7501133 C161.457899,30.2702133 161.051699,29.8718133 160.669599,29.6412133 C159.642199,29.0199133 158.322799,28.9112133 157.255099,29.4300133 C156.733999,29.6839133 156.449799,30.1056133 156.296799,30.5863133 C154.999099,29.9479133 153.755099,30.5630133 152.999499,31.8684133 C151.688599,31.6991133 150.618499,32.3848133 150.046199,33.6297133 C147.410499,33.5784133 145.254699,34.6260133 145.927199,37.9443133 C146.141599,38.9973133 147.534699,39.5199133 148.415399,38.9562133 C148.724399,39.0074133 148.998599,39.1130133 149.248599,39.2567133 C149.316999,39.7164133 149.433399,40.1031133 149.571699,40.4604133 C149.312299,41.2804133 149.352699,42.0834133 149.650099,42.8980133 C149.511099,43.8571133 149.867499,44.8542133 150.901199,45.3807133 C151.524699,45.6983133 152.086199,45.9383133 152.802199,45.8529133 C153.271999,45.7970133 153.709999,45.6183133 154.089799,45.3652133 C155.034799,46.5370133 157.055499,46.4640133 157.915099,45.0740133 C158.028499,44.8884133 158.129499,44.7463133 158.227299,44.6251133 C158.454899,44.8099133 158.681599,45.0142133 158.984499,45.0600133 C159.506299,45.1384133 160.052299,45.0212133 160.369099,44.5708133 C160.483299,44.6282133 160.589599,44.6903133 160.717799,44.7400133 C163.249399,45.7084133 166.665499,45.4786133 169.525599,44.5948133 C170.462999,45.4242133 171.765999,45.4126133 172.830699,44.8208133 C175.230299,46.5029133 177.389999,46.7079133 180.368099,45.1998133 C180.710599,45.3473133 181.076299,45.4646133 181.535299,45.4646133 C182.106899,45.4537133 182.644199,45.3062133 183.143599,45.0243133 C183.371899,44.9280133 183.600999,44.8317133 183.829299,44.7346133 C184.625999,45.2417133 185.943099,45.2099133 186.704099,44.6857133 C186.748399,44.6546133 186.799699,44.6220133 186.853999,44.5886133 C188.204499,45.4483133 189.818199,45.5570133 191.316999,45.0398133 C194.535899,46.9735133 200.913799,45.9111133 200.465699,42.1129133 C200.582199,41.9281133 200.701799,41.7440133 200.798099,41.5577133 C202.001799,42.1688133 203.918399,41.5212133 203.954899,39.9036133 C204.399799,39.2800133 204.518699,38.4048133 204.121099,37.5995133 C203.839899,37.0295133 203.571999,36.4540133 203.288599,35.8848133 Z" id="Fill-136-Copy" fill="#BBAE92"></path>
                    <text id="GHG:-0.78" font-family="LucidaGrande, Lucida Grande" font-size="8" font-weight="normal" fill="#3D1818">
                        <tspan x="155.714253" y="40.5959912">GHG: 0.78</tspan>
                    </text>
                    <g id="Group-40-Copy-2" transform="translate(234.000000, 0.000000)">
                        <polygon id="Fill-4" fill="#673232" points="0 94.7421 112.6027 94.7421 112.6027 75.32785 0 75.32785"></polygon>
                        <polygon id="Fill-6" fill="#FFE690" points="0 75.3279 112.6027 75.3279 112.6027 0.00061 0 0.00061"></polygon>
                        <line x1="14.75483" y1="0.0001" x2="14.75483" y2="68.3607805" id="Stroke-20" stroke="#D2DB2F" stroke-width="18"></line>
                        <polygon id="Fill-22" fill="#CFDA00" points="29.23965 66.2353 14.84437 75.3274 0.44676 66.2353 0.44676 66.1414 29.23965 66.1414"></polygon>
                        <line x1="46.9825" y1="75.3278" x2="46.9825" y2="54.6430815" id="Stroke-24" stroke="#AB2424" stroke-width="31.1"></line>
                        <polygon id="Fill-26" fill="#AB2430" points="25.40572 57.8091 46.8491 44.2649 68.2957 57.8091 68.2957 57.9489 25.40572 57.9489"></polygon>
                        <line x1="46.9825" y1="31.0629" x2="46.9825" y2="2.39504188" id="Stroke-36" stroke="#AB2424" stroke-width="6.7"></line>
                        <polygon id="Fill-38" fill="#AB2430" points="42.0034 3.1257 46.9517 0 51.9008 3.1257 51.9008 3.1583 42.0034 3.1583"></polygon>
                        <line x1="76.9825" y1="31.0629" x2="76.9825" y2="2.39504188" id="Stroke-36-Copy" stroke="#B44E57" stroke-width="9.2"></line>
                        <line x1="99.9825" y1="19.0629" x2="99.9825" y2="9.395042" id="Stroke-36-Copy-3" stroke="#E7979E" stroke-width="19"></line>
                        <line x1="99.9825" y1="30.0629" x2="99.9825" y2="20.395042" id="Stroke-36-Copy-4" stroke="#E7979E" stroke-width="19"></line>
                        <line x1="99.9825" y1="41.0629" x2="99.9825" y2="31.395042" id="Stroke-36-Copy-5" stroke="#E7979E" stroke-width="19"></line>
                        <line x1="99.9825" y1="52.0629" x2="99.9825" y2="42.395042" id="Stroke-36-Copy-6" stroke="#E7979E" stroke-width="19"></line>
                        <line x1="76.9825" y1="73.0629" x2="76.9825" y2="44.3950419" id="Stroke-36-Copy-2" stroke="#B44E57" stroke-width="9.2"></line>
                        <polygon id="Fill-38-Copy" fill="#B44E57" points="70.0034 3.1257 76.9515383 0 83.9008 3.1257 83.9008 3.1583 70.0034 3.1583"></polygon>
                        <polygon id="Fill-38-Copy-3" fill="#E7979E" points="88.0034 7.42258493 99.9511342 0 111.9008 7.42258493 111.9008 7.5 88.0034 7.5"></polygon>
                        <polygon id="Fill-38-Copy-2" fill="#B44E57" transform="translate(76.952100, 73.579150) rotate(-180.000000) translate(-76.952100, -73.579150) " points="70.0034 75.1257 76.9515383 72 83.9008 75.1257 83.9008 75.1583 70.0034 75.1583"></polygon>
                        <text id="240" font-family="LucidaGrande, Lucida Grande" font-size="8" font-weight="normal" fill="#3D1818">
                            <tspan x="7.36063028" y="41.7074454">240</tspan>
                        </text>
                        <text id="Mặt-trời" font-family="LucidaGrande-Bold, Lucida Grande" font-size="7" font-weight="bold" fill="#3D1818">
                            <tspan x="8.38461207" y="8.25636042">Mặt </tspan>
                            <tspan x="8.37777613" y="16.2563604">trời</tspan>
                        </text>
                        <text id="395" font-family="LucidaGrande, Lucida Grande" font-size="9" font-weight="normal" fill="#FFF9EA">
                            <tspan x="38.8117153" y="64.4174585">395</tspan>
                        </text>
                        <text id="289-K" font-family="LucidaGrande, Lucida Grande" font-size="9" font-weight="normal" fill="#FFF9EA">
                            <tspan x="45.6173526" y="88.3848485">289 K</tspan>
                        </text>
                        <text id="83" font-family="LucidaGrande, Lucida Grande" font-size="8" font-weight="normal" fill="#3D1818">
                            <tspan x="32.7666722" y="17.0497948">83</tspan>
                        </text>
                        <text id="156" font-family="LucidaGrande, Lucida Grande" font-size="8" font-weight="normal" fill="#3D1818">
                            <tspan x="56.386381" y="17.0497948">156</tspan>
                        </text>
                        <text id="239" font-family="LucidaGrande, Lucida Grande" font-size="8" font-weight="normal" fill="#3D1818">
                            <tspan x="92.386381" y="28.0497948">239</tspan>
                        </text>
                        <text id="156" font-family="LucidaGrande, Lucida Grande" font-size="8" font-weight="normal" fill="#3D1818">
                            <tspan x="81.9328721" y="64.4174585">156</tspan>
                        </text>
                    </g>
                    <path d="M323.288599,35.8848133 C322.994299,35.2962133 322.387799,34.9638133 321.750999,34.9001133 C321.757999,34.0102133 321.467499,33.1179133 320.940199,32.3079133 C320.903699,31.7869133 320.647499,31.2650133 320.110099,30.8938133 C319.639499,30.5684133 319.275299,30.4317133 318.718499,30.2927133 C318.020299,30.1188133 317.360999,30.3914133 316.919899,30.8565133 C316.679999,30.9660133 316.486599,31.1237133 316.334399,31.3100133 C316.005899,31.1159133 315.674299,30.9319133 315.357499,30.7680133 C314.686499,30.4209133 313.912299,30.3828133 313.240499,30.6096133 C312.915899,30.4139133 312.547799,30.2982133 312.213099,30.3106133 C310.866599,30.3626133 309.756799,30.0605133 308.414199,30.2508133 C307.924099,30.3207133 307.569999,30.6181133 307.347099,31.0064133 C307.231399,31.0103133 307.114999,31.0111133 307.004699,31.0313133 C306.207099,30.3448133 305.008099,30.3222133 304.083199,31.1112133 C302.595299,32.3802133 301.171099,33.2095133 299.196299,33.3982133 C296.826199,33.6242133 297.146099,32.3079133 295.489699,31.8800133 C294.602099,31.6517133 293.783599,31.3504133 292.925499,31.8350133 C292.728999,31.9290133 292.548099,32.0447133 292.373299,32.1705133 C291.589799,31.4102133 290.441999,31.0429133 289.388999,30.6818133 C287.451399,30.0178133 285.747599,31.3644133 283.882299,31.0887133 C283.102599,30.9730133 282.448799,30.7967133 281.813499,30.7501133 C281.457899,30.2702133 281.051699,29.8718133 280.669599,29.6412133 C279.642199,29.0199133 278.322799,28.9112133 277.255099,29.4300133 C276.733999,29.6839133 276.449799,30.1056133 276.296799,30.5863133 C274.999099,29.9479133 273.755099,30.5630133 272.999499,31.8684133 C271.688599,31.6991133 270.618499,32.3848133 270.046199,33.6297133 C267.410499,33.5784133 265.254699,34.6260133 265.927199,37.9443133 C266.141599,38.9973133 267.534699,39.5199133 268.415399,38.9562133 C268.724399,39.0074133 268.998599,39.1130133 269.248599,39.2567133 C269.316999,39.7164133 269.433399,40.1031133 269.571699,40.4604133 C269.312299,41.2804133 269.352699,42.0834133 269.650099,42.8980133 C269.511099,43.8571133 269.867499,44.8542133 270.901199,45.3807133 C271.524699,45.6983133 272.086199,45.9383133 272.802199,45.8529133 C273.271999,45.7970133 273.709999,45.6183133 274.089799,45.3652133 C275.034799,46.5370133 277.055499,46.4640133 277.915099,45.0740133 C278.028499,44.8884133 278.129499,44.7463133 278.227299,44.6251133 C278.454899,44.8099133 278.681599,45.0142133 278.984499,45.0600133 C279.506299,45.1384133 280.052299,45.0212133 280.369099,44.5708133 C280.483299,44.6282133 280.589599,44.6903133 280.717799,44.7400133 C283.249399,45.7084133 286.665499,45.4786133 289.525599,44.5948133 C290.462999,45.4242133 291.765999,45.4126133 292.830699,44.8208133 C295.230299,46.5029133 297.389999,46.7079133 300.368099,45.1998133 C300.710599,45.3473133 301.076299,45.4646133 301.535299,45.4646133 C302.106899,45.4537133 302.644199,45.3062133 303.143599,45.0243133 C303.371899,44.9280133 303.600999,44.8317133 303.829299,44.7346133 C304.625999,45.2417133 305.943099,45.2099133 306.704099,44.6857133 C306.748399,44.6546133 306.799699,44.6220133 306.853999,44.5886133 C308.204499,45.4483133 309.818199,45.5570133 311.316999,45.0398133 C314.535899,46.9735133 320.913799,45.9111133 320.465699,42.1129133 C320.582199,41.9281133 320.701799,41.7440133 320.798099,41.5577133 C322.001799,42.1688133 323.918399,41.5212133 323.954899,39.9036133 C324.399799,39.2800133 324.518699,38.4048133 324.121099,37.5995133 C323.839899,37.0295133 323.571999,36.4540133 323.288599,35.8848133 Z" id="Fill-136-Copy-2" fill="#BBAE92"></path>
                    <text id="GHG:-0.79" font-family="LucidaGrande, Lucida Grande" font-size="8" font-weight="normal" fill="#3D1818">
                        <tspan x="275.714253" y="40.5959912">GHG: 0.79</tspan>
                    </text>
                    <g id="Group-40-Copy-3" transform="translate(351.000000, 0.000000)">
                        <polygon id="Fill-4" fill="#673232" points="0 94.7421 112.6027 94.7421 112.6027 75.32785 0 75.32785"></polygon>
                        <polygon id="Fill-6" fill="#FFE690" points="0 75.3279 112.6027 75.3279 112.6027 0.00061 0 0.00061"></polygon>
                        <line x1="14.75483" y1="0.0001" x2="14.75483" y2="68.3607805" id="Stroke-20" stroke="#D2DB2F" stroke-width="18"></line>
                        <polygon id="Fill-22" fill="#CFDA00" points="29.23965 66.2353 14.84437 75.3274 0.44676 66.2353 0.44676 66.1414 29.23965 66.1414"></polygon>
                        <line x1="46.9825" y1="75.3278" x2="46.9825" y2="54.6430815" id="Stroke-24" stroke="#AB2424" stroke-width="31.2"></line>
                        <polygon id="Fill-26" fill="#AB2430" points="25.40572 57.8091 46.8491 44.2649 68.2957 57.8091 68.2957 57.9489 25.40572 57.9489"></polygon>
                        <line x1="46.9825" y1="31.0629" x2="46.9825" y2="2.39504188" id="Stroke-36" stroke="#AB2424" stroke-width="6.6"></line>
                        <polygon id="Fill-38" fill="#AB2430" points="42.0034 3.1257 46.9517 0 51.9008 3.1257 51.9008 3.1583 42.0034 3.1583"></polygon>
                        <line x1="76.9825" y1="31.0629" x2="76.9825" y2="2.39504188" id="Stroke-36-Copy" stroke="#B44E57" stroke-width="9"></line>
                        <line x1="99.9825" y1="19.0629" x2="99.9825" y2="9.395042" id="Stroke-36-Copy-3" stroke="#E7979E" stroke-width="19"></line>
                        <line x1="99.9825" y1="30.0629" x2="99.9825" y2="20.395042" id="Stroke-36-Copy-4" stroke="#E7979E" stroke-width="19"></line>
                        <line x1="99.9825" y1="41.0629" x2="99.9825" y2="31.395042" id="Stroke-36-Copy-5" stroke="#E7979E" stroke-width="19"></line>
                        <line x1="99.9825" y1="52.0629" x2="99.9825" y2="42.395042" id="Stroke-36-Copy-6" stroke="#E7979E" stroke-width="19"></line>
                        <line x1="76.9825" y1="73.0629" x2="76.9825" y2="44.3950419" id="Stroke-36-Copy-2" stroke="#B44E57" stroke-width="9"></line>
                        <polygon id="Fill-38-Copy" fill="#B44E57" points="70.0034 3.1257 76.9515383 0 83.9008 3.1257 83.9008 3.1583 70.0034 3.1583"></polygon>
                        <polygon id="Fill-38-Copy-3" fill="#E7979E" points="88.0034 7.42258493 99.9511342 0 111.9008 7.42258493 111.9008 7.5 88.0034 7.5"></polygon>
                        <polygon id="Fill-38-Copy-2" fill="#B44E57" transform="translate(76.952100, 73.579150) rotate(-180.000000) translate(-76.952100, -73.579150) " points="70.0034 75.1257 76.9515383 72 83.9008 75.1257 83.9008 75.1583 70.0034 75.1583"></polygon>
                        <text id="240" font-family="LucidaGrande, Lucida Grande" font-size="8" font-weight="normal" fill="#3D1818">
                            <tspan x="7.36063028" y="41.7074454">240</tspan>
                        </text>
                        <text id="Mặt-trời" font-family="LucidaGrande-Bold, Lucida Grande" font-size="7" font-weight="bold" fill="#3D1818">
                            <tspan x="8.38461207" y="8.25636042">Mặt </tspan>
                            <tspan x="8.37777613" y="16.2563604">trời</tspan>
                        </text>
                        <text id="400" font-family="LucidaGrande, Lucida Grande" font-size="9" font-weight="normal" fill="#FFF9EA">
                            <tspan x="38.8117153" y="64.4174585">400</tspan>
                        </text>
                        <text id="288-K" font-family="LucidaGrande, Lucida Grande" font-size="9" font-weight="normal" fill="#FFF9EA">
                            <tspan x="45.6173526" y="88.3848485">288 K</tspan>
                        </text>
                        <text id="80" font-family="LucidaGrande, Lucida Grande" font-size="8" font-weight="normal" fill="#3D1818">
                            <tspan x="32.7666722" y="17.0497948">80	</tspan>
                        </text>
                        <text id="160" font-family="LucidaGrande, Lucida Grande" font-size="8" font-weight="normal" fill="#3D1818">
                            <tspan x="56.386381" y="17.0497948">160</tspan>
                        </text>
                        <text id="240" font-family="LucidaGrande, Lucida Grande" font-size="8" font-weight="normal" fill="#3D1818">
                            <tspan x="92.386381" y="28.0497948">240</tspan>
                        </text>
                        <text id="160" font-family="LucidaGrande, Lucida Grande" font-size="8" font-weight="normal" fill="#3D1818">
                            <tspan x="81.9328721" y="64.4174585">160</tspan>
                        </text>
                    </g>
                    <path d="M439.288599,35.8848133 C438.994299,35.2962133 438.387799,34.9638133 437.750999,34.9001133 C437.757999,34.0102133 437.467499,33.1179133 436.940199,32.3079133 C436.903699,31.7869133 436.647499,31.2650133 436.110099,30.8938133 C435.639499,30.5684133 435.275299,30.4317133 434.718499,30.2927133 C434.020299,30.1188133 433.360999,30.3914133 432.919899,30.8565133 C432.679999,30.9660133 432.486599,31.1237133 432.334399,31.3100133 C432.005899,31.1159133 431.674299,30.9319133 431.357499,30.7680133 C430.686499,30.4209133 429.912299,30.3828133 429.240499,30.6096133 C428.915899,30.4139133 428.547799,30.2982133 428.213099,30.3106133 C426.866599,30.3626133 425.756799,30.0605133 424.414199,30.2508133 C423.924099,30.3207133 423.569999,30.6181133 423.347099,31.0064133 C423.231399,31.0103133 423.114999,31.0111133 423.004699,31.0313133 C422.207099,30.3448133 421.008099,30.3222133 420.083199,31.1112133 C418.595299,32.3802133 417.171099,33.2095133 415.196299,33.3982133 C412.826199,33.6242133 413.146099,32.3079133 411.489699,31.8800133 C410.602099,31.6517133 409.783599,31.3504133 408.925499,31.8350133 C408.728999,31.9290133 408.548099,32.0447133 408.373299,32.1705133 C407.589799,31.4102133 406.441999,31.0429133 405.388999,30.6818133 C403.451399,30.0178133 401.747599,31.3644133 399.882299,31.0887133 C399.102599,30.9730133 398.448799,30.7967133 397.813499,30.7501133 C397.457899,30.2702133 397.051699,29.8718133 396.669599,29.6412133 C395.642199,29.0199133 394.322799,28.9112133 393.255099,29.4300133 C392.733999,29.6839133 392.449799,30.1056133 392.296799,30.5863133 C390.999099,29.9479133 389.755099,30.5630133 388.999499,31.8684133 C387.688599,31.6991133 386.618499,32.3848133 386.046199,33.6297133 C383.410499,33.5784133 381.254699,34.6260133 381.927199,37.9443133 C382.141599,38.9973133 383.534699,39.5199133 384.415399,38.9562133 C384.724399,39.0074133 384.998599,39.1130133 385.248599,39.2567133 C385.316999,39.7164133 385.433399,40.1031133 385.571699,40.4604133 C385.312299,41.2804133 385.352699,42.0834133 385.650099,42.8980133 C385.511099,43.8571133 385.867499,44.8542133 386.901199,45.3807133 C387.524699,45.6983133 388.086199,45.9383133 388.802199,45.8529133 C389.271999,45.7970133 389.709999,45.6183133 390.089799,45.3652133 C391.034799,46.5370133 393.055499,46.4640133 393.915099,45.0740133 C394.028499,44.8884133 394.129499,44.7463133 394.227299,44.6251133 C394.454899,44.8099133 394.681599,45.0142133 394.984499,45.0600133 C395.506299,45.1384133 396.052299,45.0212133 396.369099,44.5708133 C396.483299,44.6282133 396.589599,44.6903133 396.717799,44.7400133 C399.249399,45.7084133 402.665499,45.4786133 405.525599,44.5948133 C406.462999,45.4242133 407.765999,45.4126133 408.830699,44.8208133 C411.230299,46.5029133 413.389999,46.7079133 416.368099,45.1998133 C416.710599,45.3473133 417.076299,45.4646133 417.535299,45.4646133 C418.106899,45.4537133 418.644199,45.3062133 419.143599,45.0243133 C419.371899,44.9280133 419.600999,44.8317133 419.829299,44.7346133 C420.625999,45.2417133 421.943099,45.2099133 422.704099,44.6857133 C422.748399,44.6546133 422.799699,44.6220133 422.853999,44.5886133 C424.204499,45.4483133 425.818199,45.5570133 427.316999,45.0398133 C430.535899,46.9735133 436.913799,45.9111133 436.465699,42.1129133 C436.582199,41.9281133 436.701799,41.7440133 436.798099,41.5577133 C438.001799,42.1688133 439.918399,41.5212133 439.954899,39.9036133 C440.399799,39.2800133 440.518699,38.4048133 440.121099,37.5995133 C439.839899,37.0295133 439.571999,36.4540133 439.288599,35.8848133 Z" id="Fill-136-Copy-3" fill="#BBAE92"></path>
                    <text id="GHG:-0.80-Copy-3" font-family="LucidaGrande, Lucida Grande" font-size="8" font-weight="normal" fill="#3D1818">
                        <tspan x="391.714253" y="40.5959912">GHG: 0.80</tspan>
                    </text>
                </g>
            </g>
        </g>
    </g>
</svg>