<svg style='scaling-svg' viewBox="0 0 592 345" version="1.1" xmlns="http://www.w3.org/2000/svg" xmlns:xlink="http://www.w3.org/1999/xlink">
    <g id="Page-1" stroke="none" stroke-width="1" fill="none" fill-rule="evenodd">
        <g id="graph" transform="translate(0.000000, -3.000000)">
            <text id="0" font-family="LucidaGrande, Lucida Grande" font-size="15" font-weight="normal" fill="#B99C9A">
                <tspan x="16" y="322">0</tspan>
            </text>
            <text id="0,5" font-family="LucidaGrande, Lucida Grande" font-size="15" font-weight="normal" fill="#B99C9A">
                <tspan x="0" y="278">0,5</tspan>
            </text>
            <text id="1,0" font-family="LucidaGrande, Lucida Grande" font-size="15" font-weight="normal" fill="#B99C9A">
                <tspan x="0" y="234">1,0</tspan>
            </text>
            <text id="1,5" font-family="LucidaGrande, Lucida Grande" font-size="15" font-weight="normal" fill="#B99C9A">
                <tspan x="0" y="190">1,5</tspan>
            </text>
            <text id="2,0" font-family="LucidaGrande, Lucida Grande" font-size="15" font-weight="normal" fill="#B99C9A">
                <tspan x="0" y="146">2,0</tspan>
            </text>
            <text id="2,5" font-family="LucidaGrande, Lucida Grande" font-size="15" font-weight="normal" fill="#B99C9A">
                <tspan x="0" y="103">2,5</tspan>
            </text>
            <text id="3,0" font-family="LucidaGrande, Lucida Grande" font-size="15" font-weight="normal" fill="#B99C9A">
                <tspan x="0" y="57">3,0</tspan>
            </text>
            <text id="3,5" font-family="LucidaGrande, Lucida Grande" font-size="15" font-weight="normal" fill="#B99C9A">
                <tspan x="0" y="15">3,5</tspan>
            </text>
            <text id="1961" font-family="LucidaGrande, Lucida Grande" font-size="15" font-weight="normal" fill="#B99C9A">
                <tspan x="26" y="347">1961</tspan>
            </text>
            <text id="1970" font-family="LucidaGrande, Lucida Grande" font-size="15" font-weight="normal" fill="#B99C9A">
                <tspan x="106" y="347">1970</tspan>
            </text>
            <text id="1980" font-family="LucidaGrande, Lucida Grande" font-size="15" font-weight="normal" fill="#B99C9A">
                <tspan x="195" y="347">1980</tspan>
            </text>
            <text id="1990" font-family="LucidaGrande, Lucida Grande" font-size="15" font-weight="normal" fill="#B99C9A">
                <tspan x="284" y="347">1990</tspan>
            </text>
            <text id="2000" font-family="LucidaGrande, Lucida Grande" font-size="15" font-weight="normal" fill="#B99C9A">
                <tspan x="373" y="347">2000</tspan>
            </text>
            <text id="2010" font-family="LucidaGrande, Lucida Grande" font-size="15" font-weight="normal" fill="#B99C9A">
                <tspan x="462" y="347">2010</tspan>
            </text>
            <text id="2020" font-family="LucidaGrande, Lucida Grande" font-size="15" font-weight="normal" fill="#B99C9A">
                <tspan x="549" y="347">2020</tspan>
            </text>
            <g id="stroke" transform="translate(29.000000, 8.000000)" stroke="#B99C9A" stroke-width="1.25">
                <line x1="7" y1="309.5" x2="559" y2="309.5" id="Stroke-2"></line>
                <line x1="6.5" y1="310" x2="6.5" y2="2" id="Stroke-3"></line>
                <line x1="0" y1="221.5" x2="7" y2="221.5" id="Stroke-4"></line>
                <line x1="0" y1="90.5" x2="7" y2="90.5" id="Stroke-5"></line>
                <line x1="0" y1="176.5" x2="7" y2="176.5" id="Stroke-6"></line>
                <line x1="0" y1="265.5" x2="7" y2="265.5" id="Stroke-7"></line>
                <line x1="0" y1="45.5" x2="7" y2="45.5" id="Stroke-8"></line>
                <line x1="0" y1="1.5" x2="7" y2="1.5" id="Stroke-9"></line>
                <line x1="17.5" y1="323" x2="17.5" y2="310" id="Stroke-10"></line>
                <line x1="26.5" y1="316" x2="26.5" y2="309" id="Stroke-11"></line>
                <line x1="34.5" y1="316" x2="34.5" y2="309" id="Stroke-12"></line>
                <line x1="43.5" y1="316" x2="43.5" y2="309" id="Stroke-13"></line>
                <line x1="53.5" y1="316" x2="53.5" y2="309" id="Stroke-14"></line>
                <line x1="61.5" y1="316" x2="61.5" y2="309" id="Stroke-15"></line>
                <line x1="70.5" y1="316" x2="70.5" y2="309" id="Stroke-16"></line>
                <line x1="79.5" y1="316" x2="79.5" y2="309" id="Stroke-17"></line>
                <line x1="89.5" y1="316" x2="89.5" y2="309" id="Stroke-18"></line>
                <line x1="97.5" y1="323" x2="97.5" y2="310" id="Stroke-19"></line>
                <line x1="106.5" y1="316" x2="106.5" y2="309" id="Stroke-20"></line>
                <line x1="115.5" y1="316" x2="115.5" y2="309" id="Stroke-21"></line>
                <line x1="123.5" y1="316" x2="123.5" y2="309" id="Stroke-22"></line>
                <line x1="132.5" y1="316" x2="132.5" y2="309" id="Stroke-23"></line>
                <line x1="142.5" y1="316" x2="142.5" y2="309" id="Stroke-24"></line>
                <line x1="150.5" y1="316" x2="150.5" y2="309" id="Stroke-25"></line>
                <line x1="159.5" y1="316" x2="159.5" y2="309" id="Stroke-26"></line>
                <line x1="168.5" y1="316" x2="168.5" y2="309" id="Stroke-27"></line>
                <line x1="176.5" y1="316" x2="176.5" y2="309" id="Stroke-28"></line>
                <line x1="185.5" y1="323" x2="185.5" y2="310" id="Stroke-29"></line>
                <line x1="195.5" y1="316" x2="195.5" y2="309" id="Stroke-30"></line>
                <line x1="204.5" y1="316" x2="204.5" y2="309" id="Stroke-31"></line>
                <line x1="212.5" y1="316" x2="212.5" y2="309" id="Stroke-32"></line>
                <line x1="221.5" y1="316" x2="221.5" y2="309" id="Stroke-33"></line>
                <line x1="231.5" y1="316" x2="231.5" y2="309" id="Stroke-34"></line>
                <line x1="239.5" y1="316" x2="239.5" y2="309" id="Stroke-35"></line>
                <line x1="248.5" y1="316" x2="248.5" y2="309" id="Stroke-36"></line>
                <line x1="257.5" y1="316" x2="257.5" y2="309" id="Stroke-37"></line>
                <line x1="265.5" y1="316" x2="265.5" y2="309" id="Stroke-38"></line>
                <line x1="274.5" y1="323" x2="274.5" y2="310" id="Stroke-39"></line>
                <line x1="284.5" y1="316" x2="284.5" y2="309" id="Stroke-40"></line>
                <line x1="292.5" y1="316" x2="292.5" y2="309" id="Stroke-41"></line>
                <line x1="301.5" y1="316" x2="301.5" y2="309" id="Stroke-42"></line>
                <line x1="310.5" y1="316" x2="310.5" y2="309" id="Stroke-43"></line>
                <line x1="319.5" y1="316" x2="319.5" y2="309" id="Stroke-44"></line>
                <line x1="327.5" y1="316" x2="327.5" y2="309" id="Stroke-45"></line>
                <line x1="337.5" y1="316" x2="337.5" y2="309" id="Stroke-46"></line>
                <line x1="346.5" y1="316" x2="346.5" y2="309" id="Stroke-47"></line>
                <line x1="354.5" y1="316" x2="354.5" y2="309" id="Stroke-48"></line>
                <line x1="363.5" y1="323" x2="363.5" y2="310" id="Stroke-49"></line>
                <line x1="373.5" y1="316" x2="373.5" y2="309" id="Stroke-50"></line>
                <line x1="381.5" y1="316" x2="381.5" y2="309" id="Stroke-51"></line>
                <line x1="390.5" y1="316" x2="390.5" y2="309" id="Stroke-52"></line>
                <line x1="399.5" y1="316" x2="399.5" y2="309" id="Stroke-53"></line>
                <line x1="407.5" y1="316" x2="407.5" y2="309" id="Stroke-54"></line>
                <line x1="416.5" y1="316" x2="416.5" y2="309" id="Stroke-55"></line>
                <line x1="426.5" y1="316" x2="426.5" y2="309" id="Stroke-56"></line>
                <line x1="435.5" y1="316" x2="435.5" y2="309" id="Stroke-57"></line>
                <line x1="443.5" y1="316" x2="443.5" y2="309" id="Stroke-58"></line>
                <line x1="452.5" y1="323" x2="452.5" y2="310" id="Stroke-59"></line>
                <line x1="461.5" y1="316" x2="461.5" y2="309" id="Stroke-60"></line>
                <line x1="469.5" y1="316" x2="469.5" y2="309" id="Stroke-61"></line>
                <line x1="479.5" y1="316" x2="479.5" y2="309" id="Stroke-62"></line>
                <line x1="488.5" y1="316" x2="488.5" y2="309" id="Stroke-63"></line>
                <line x1="496.5" y1="316" x2="496.5" y2="309" id="Stroke-64"></line>
                <line x1="505.5" y1="316" x2="505.5" y2="309" id="Stroke-65"></line>
                <line x1="515.5" y1="316" x2="515.5" y2="309" id="Stroke-66"></line>
                <line x1="523.5" y1="316" x2="523.5" y2="309" id="Stroke-67"></line>
                <line x1="532.5" y1="316" x2="532.5" y2="309" id="Stroke-68"></line>
                <line x1="541.5" y1="323" x2="541.5" y2="310" id="Stroke-69"></line>
                <line x1="550.5" y1="316" x2="550.5" y2="309" id="Stroke-70"></line>
                <line x1="558.5" y1="323" x2="558.5" y2="310" id="Stroke-71"></line>
            </g>
            <line x1="37" y1="9.5" x2="586" y2="9.5" id="Stroke-73" stroke="#B99C9A" stroke-width="0.25" stroke-dasharray="2.23,2"></line>
            <line x1="37" y1="273.5" x2="351.5" y2="273.5" id="Stroke-76" stroke="#B99C9A" stroke-width="0.25" stroke-dasharray="2.23,2"></line>
            <line x1="37" y1="229.5" x2="351.5" y2="230.5" id="Stroke-79" stroke="#B99C9A" stroke-width="0.25" stroke-dasharray="2.23,2"></line>
            <line x1="37" y1="184.5" x2="586" y2="184.5" id="Stroke-82" stroke="#B99C9A" stroke-width="0.25" stroke-dasharray="2.23,2"></line>
            <line x1="37" y1="140.5" x2="586" y2="140.5" id="Stroke-85" stroke="#B99C9A" stroke-width="0.25" stroke-dasharray="2.23,2"></line>
            <line x1="37" y1="98.5" x2="586" y2="98.5" id="Stroke-88" stroke="#B99C9A" stroke-width="0.25" stroke-dasharray="2.23,2"></line>
            <line x1="37" y1="53.5" x2="586" y2="53.5" id="Stroke-91" stroke="#B99C9A" stroke-width="0.25" stroke-dasharray="2.23,2"></line>
            <polyline id="Stroke-93" stroke="#91D1D9" stroke-width="4.5" stroke-linecap="round" stroke-linejoin="round" points="562 76 571 89 580 80.7266928 589 79.5444881"></polyline>
            <polyline id="Stroke-94" stroke="#94B68F" stroke-width="4.5" stroke-linecap="round" stroke-linejoin="round" points="562 178 571 179.5 580 181 589 181"></polyline>
            <polyline id="Stroke-95" stroke="#E0CAD9" stroke-width="4.5" stroke-linecap="round" stroke-linejoin="round" points="562 171 571 183 580 174.599136 589 174.599136"></polyline>
            <polyline id="Stroke-96" stroke="#00A1BA" stroke-width="4.5" stroke-linecap="round" stroke-linejoin="round" points="47 117 55.7326973 115.743126 64.4653945 110.717891 73.1958509 106.949529 81.9285482 103.178908 91.4545158 99.4105462 100.187213 98.1536723 108.91991 93.128437 117.652608 89.3600757 127.178575 80.5642185 135.911273 76.7958572 144.64397 75.5389832 153.376667 68 162.107123 74.2821092 171.633091 80.5642185 180.365788 73.0252353 189.098486 73.0252353 197.831183 71.7706219 206.56388 69.256874 216.089848 78.0504706 224.822545 85.5894538 233.555242 90.6146891 242.285699 94.3853109 251.018396 90.6146891 260.544364 90.6146891 269.277061 90.6146891 278.009758 88.1032017 286.742455 88.1032017 295.475153 86.8463277 305.00112 86.8463277 313.733818 90.6146891 322.464274 93.128437 331.196971 96.8967983 340.722939 96.8967983 349.455636 96.8967983 358.188334 94.3853109 366.921031 94.3853109 375.653728 96.8967983 385.179696 98.1536723 393.912393 96.8967983 402.642849 96.8967983 411.375547 96.8967983 420.108244 91.871563 429.634212 83.0779664 438.366909 80.5642185 447.099606 76.7958572 455.832303 73.0252353 464.56276 73.0252353 474.090968 80.5642185 482.821425 70.5137479 491.554122 68 500.286819 73.0252353 509.019516 70.5137479 518.545484 73.0252353 527.278181 78.0504706 536.010879 80.5642185 544.741335 74.2821092 554.269544 73.0252353 563 75.5389832"></polyline>
            <polyline id="Stroke-97" stroke="#086D31" stroke-width="4.5" stroke-linecap="round" stroke-linejoin="round" points="47 40 55.7326973 43.7288833 64.4653945 48.7037103 73.1958509 52.4325936 81.9285482 57.4051837 91.4545158 59.8925972 100.187213 64.8651873 108.91991 68.5940706 117.652608 73.5666607 127.178575 77.2977809 135.911273 81.0266643 144.64397 85.9992544 153.376667 88.4866679 162.107123 93.4592579 171.633091 97.1881413 180.365788 99.6755548 189.098486 103.404438 197.831183 104.648145 206.56388 109.620735 216.089848 112.108148 224.822545 114.595562 233.555242 115.837032 242.285699 120.809622 251.018396 120.809622 260.544364 123.297035 269.277061 125.784449 278.009758 129.513332 286.742455 133.242215 295.475153 134.485922 305.00112 135.729629 313.733818 139.458512 322.464274 139.458512 331.196971 143.189633 340.722939 144.433339 349.455636 146.918516 358.188334 148.162223 366.921031 149.405929 375.653728 150.647399 385.179696 151.891106 393.912393 154.378519 402.642849 155.622226 411.375547 156.863696 420.108244 159.35111 429.634212 159.35111 438.366909 161.838523 447.099606 163.079993 455.832303 164.3237 464.56276 164.3237 474.090968 166.811113 482.821425 168.05482 491.554122 169.29629 500.286819 171.783703 509.019516 171.783703 518.545484 173.02741 527.278181 174.26888 536.010879 175.512587 544.741335 175.512587 554.269544 178 563 178"></polyline>
            <polyline id="Stroke-98" stroke="#BD85AF" stroke-width="4.5" stroke-linecap="round" stroke-linejoin="round" points="47 230 55.7326973 227.480558 64.4653945 223.703662 73.1958509 218.667044 81.9285482 216.147603 91.4545158 212.370706 100.187213 211.110985 108.91991 207.334089 117.652608 202.297471 127.178575 192.22197 135.911273 189.704795 144.64397 185.925632 153.376667 179.629294 162.107123 184.668177 171.633091 188.445074 180.365788 182.148736 189.098486 179.629294 197.831183 179.629294 206.56388 177.112118 216.089848 183.408456 224.822545 190.96225 233.555242 197.258588 242.285699 199.77803 251.018396 197.258588 260.544364 197.258588 269.277061 197.258588 278.009758 194.741412 286.742455 192.22197 295.475153 190.96225 305.00112 190.96225 313.733818 192.22197 322.464274 193.481691 331.196971 194.741412 340.722939 194.741412 349.455636 193.481691 358.188334 192.22197 366.921031 192.22197 375.653728 193.481691 385.179696 196.001133 393.912393 193.481691 402.642849 192.22197 411.375547 192.22197 420.108244 185.925632 429.634212 180.889015 438.366909 175.852397 447.099606 172.075501 455.832303 168.296338 464.56276 168.296338 474.090968 172.075501 482.821425 163.259721 491.554122 162 500.286819 165.779162 509.019516 164.519442 518.545484 168.296338 527.278181 172.075501 536.010879 174.592677 544.741335 169.556059 554.269544 168.296338 563 170.81578"></polyline>
            <rect id="Rectangle" stroke="#979797" x="351.5" y="210.5" width="238" height="94"></rect>
            <polygon id="Fill-106" fill="#00A1BA" points="361 238 402 238 402 218 361 218"></polygon>
            <polygon id="Fill-107" fill="#086D31" points="361 267 402 267 402 247 361 247"></polygon>
            <polygon id="Fill-109" fill="#BD85AF" points="361 296 402 296 402 276 361 276"></polygon>
            <text id="Dấu-chân-sinh-thái-N" font-family="LucidaGrande-Bold, Lucida Grande" font-size="17" font-weight="bold" line-spacing="29" letter-spacing="0.0305520943" fill="#B99C9A">
                <tspan x="410" y="233">Dấu chân sinh thái</tspan>
                <tspan x="410" y="262">Năng lực sinh học</tspan>
                <tspan x="410" y="291">Dấu chân carbon</tspan>
            </text>
        </g>
    </g>
</svg>