<svg style='scaling-svg' viewBox="0 0 498 334" version="1.1" xmlns="http://www.w3.org/2000/svg" xmlns:xlink="http://www.w3.org/1999/xlink">
    <g id="Page-1" stroke="none" stroke-width="1" fill="none" fill-rule="evenodd">
        <g id="food-production" transform="translate(0.000000, 0.676109)">
            <g id="Group-53">
                <path d="M0,36.3238906 L170,36.3238906 L170,79.3238906 L0,79.3238906 L0,36.3238906 Z M170,36.3238906 L333,36.3238906 L333,79.3238906 L170,79.3238906 L170,36.3238906 Z M333,36.3238906 L346,36.3238906 L346,79.3238906 L333,79.3238906 L333,36.3238906 Z M346,36.3238906 L495,36.3238906 L495,79.3238906 L346,79.3238906 L346,36.3238906 Z M0,1.32389063 L170,1.32389063 L170,36.3238906 L0,36.3238906 L0,1.32389063 Z M170,1.32389063 L333,1.32389063 L333,36.3238906 L170,36.3238906 L170,1.32389063 Z M333,1.32389063 L346,1.32389063 L346,36.3238906 L333,36.3238906 L333,1.32389063 Z M346,1.32389063 L495,1.32389063 L495,36.3238906 L346,36.3238906 L346,1.32389063 Z M0,79.3238906 L170,79.3238906 L170,123.323891 L0,123.323891 L0,79.3238906 Z M170,79.3238906 L333,79.3238906 L333,123.323891 L170,123.323891 L170,79.3238906 Z M333,79.3238906 L346,79.3238906 L346,123.323891 L333,123.323891 L333,79.3238906 Z M346,79.3238906 L495,79.3238906 L495,123.323891 L346,123.323891 L346,79.3238906 Z M0,123.323891 L170,123.323891 L170,166.323891 L0,166.323891 L0,123.323891 Z M170,123.323891 L333,123.323891 L333,166.323891 L170,166.323891 L170,123.323891 Z M333,123.323891 L346,123.323891 L346,166.323891 L333,166.323891 L333,123.323891 Z M346,123.323891 L495,123.323891 L495,166.323891 L346,166.323891 L346,123.323891 Z M0,166.323891 L170,166.323891 L170,223.323891 L0,223.323891 L0,166.323891 Z M170,166.323891 L333,166.323891 L333,223.323891 L170,223.323891 L170,166.323891 Z M333,166.323891 L346,166.323891 L346,223.323891 L333,223.323891 L333,166.323891 Z M346,166.323891 L495,166.323891 L495,223.323891 L346,223.323891 L346,166.323891 Z M0,223.323891 L170,223.323891 L170,289.323891 L0,289.323891 L0,223.323891 Z M170,223.323891 L333,223.323891 L333,289.323891 L170,289.323891 L170,223.323891 Z M333,223.323891 L346,223.323891 L346,289.323891 L333,289.323891 L333,223.323891 Z M346,223.323891 L495,223.323891 L495,289.323891 L346,289.323891 L346,223.323891 Z M0,289.323891 L170,289.323891 L170,332.323891 L0,332.323891 L0,289.323891 Z M170,289.323891 L333,289.323891 L333,332.323891 L170,332.323891 L170,289.323891 Z M333,289.323891 L346,289.323891 L346,332.323891 L333,332.323891 L333,289.323891 Z M346,289.323891 L495,289.323891 L495,332.323891 L346,332.323891 L346,289.323891 Z" id="Fill-5" fill="#2F2322"></path>
                <line x1="0.5335" y1="78.6767" x2="170.1125" y2="78.6767" id="Stroke-6" stroke="#A5A5A5"></line>
                <line x1="170.1122" y1="78.6767" x2="333.1042" y2="78.6767" id="Stroke-7" stroke="#A5A5A5"></line>
                <line x1="333.1043" y1="78.6767" x2="345.8603" y2="78.6767" id="Stroke-8" stroke="#A5A5A5"></line>
                <line x1="345.8602" y1="78.6767" x2="495.0962" y2="78.6767" id="Stroke-9" stroke="#A5A5A5"></line>
                <line x1="0.5335" y1="123.1964" x2="170.1125" y2="123.1964" id="Stroke-10" stroke="#A5A5A5"></line>
                <line x1="170.1122" y1="123.1964" x2="333.1042" y2="123.1964" id="Stroke-11" stroke="#A5A5A5"></line>
                <line x1="333.1043" y1="123.1964" x2="345.8603" y2="123.1964" id="Stroke-12" stroke="#A5A5A5"></line>
                <line x1="345.8602" y1="123.1964" x2="495.0962" y2="123.1964" id="Stroke-13" stroke="#A5A5A5"></line>
                <line x1="0.5335" y1="163.716" x2="170.1125" y2="163.716" id="Stroke-14" stroke="#A5A5A5"></line>
                <line x1="170.1122" y1="163.716" x2="333.1042" y2="163.716" id="Stroke-15" stroke="#A5A5A5"></line>
                <line x1="333.1043" y1="163.716" x2="345.8603" y2="163.716" id="Stroke-16" stroke="#A5A5A5"></line>
                <line x1="345.8602" y1="163.716" x2="495.0962" y2="163.716" id="Stroke-17" stroke="#A5A5A5"></line>
                <line x1="0.5335" y1="219.7239" x2="170.1125" y2="219.7239" id="Stroke-18" stroke="#A5A5A5"></line>
                <line x1="170.1122" y1="219.7239" x2="333.1042" y2="219.7239" id="Stroke-19" stroke="#A5A5A5"></line>
                <line x1="333.1043" y1="219.7239" x2="345.8603" y2="219.7239" id="Stroke-20" stroke="#A5A5A5"></line>
                <line x1="345.8602" y1="219.7239" x2="495.0962" y2="219.7239" id="Stroke-21" stroke="#A5A5A5"></line>
                <line x1="0.5335" y1="284.2458" x2="170.1125" y2="284.2458" id="Stroke-22" stroke="#A5A5A5"></line>
                <line x1="170.1122" y1="284.2458" x2="333.1042" y2="284.2458" id="Stroke-23" stroke="#A5A5A5"></line>
                <line x1="333.1043" y1="284.2458" x2="345.8603" y2="284.2458" id="Stroke-24" stroke="#A5A5A5"></line>
                <line x1="345.8602" y1="284.2458" x2="495.0962" y2="284.2458" id="Stroke-25" stroke="#A5A5A5"></line>
                <line x1="0.5335" y1="36.657" x2="170.1125" y2="36.657" id="Stroke-26" stroke="#A5A5A5"></line>
                <line x1="170.1122" y1="36.657" x2="333.1042" y2="36.657" id="Stroke-27" stroke="#A5A5A5"></line>
                <line x1="333.1043" y1="36.657" x2="345.8603" y2="36.657" id="Stroke-28" stroke="#A5A5A5"></line>
                <line x1="345.8602" y1="36.657" x2="495.0962" y2="36.657" id="Stroke-29" stroke="#A5A5A5"></line>
                <line x1="170.1122" y1="36.157" x2="170.1122" y2="0" id="Stroke-30" stroke="#A5A5A5"></line>
                <line x1="345.8602" y1="36.157" x2="345.8602" y2="0" id="Stroke-31" stroke="#A5A5A5"></line>
                <line x1="170.1122" y1="78.1767" x2="170.1122" y2="37.1567" id="Stroke-32" stroke="#A5A5A5"></line>
                <line x1="345.8602" y1="78.1767" x2="345.8602" y2="37.1567" id="Stroke-33" stroke="#A5A5A5"></line>
                <line x1="170.1122" y1="121.6964" x2="170.1122" y2="79.1764" id="Stroke-34" stroke="#A5A5A5"></line>
                <line x1="345.8602" y1="121.6964" x2="345.8602" y2="79.1764" id="Stroke-35" stroke="#A5A5A5"></line>
                <line x1="170.1122" y1="163.216" x2="170.1122" y2="121.696" id="Stroke-36" stroke="#A5A5A5"></line>
                <line x1="345.8602" y1="163.216" x2="345.8602" y2="121.696" id="Stroke-37" stroke="#A5A5A5"></line>
                <line x1="170.1122" y1="219.2239" x2="170.1122" y2="164.2159" id="Stroke-38" stroke="#A5A5A5"></line>
                <line x1="345.8602" y1="219.2239" x2="345.8602" y2="164.2159" id="Stroke-39" stroke="#A5A5A5"></line>
                <line x1="170.1122" y1="283.7458" x2="170.1122" y2="220.2238" id="Stroke-40" stroke="#A5A5A5"></line>
                <line x1="345.8602" y1="283.7458" x2="345.8602" y2="220.2238" id="Stroke-41" stroke="#A5A5A5"></line>
                <line x1="170.1122" y1="333.2655" x2="170.1122" y2="284.7455" id="Stroke-42" stroke="#A5A5A5"></line>
                <line x1="345.8602" y1="332.2655" x2="345.8602" y2="284.7455" id="Stroke-43" stroke="#A5A5A5"></line>
                <line x1="0.5335" y1="332.7655" x2="170.1125" y2="332.7655" id="Stroke-44" stroke="#A5A5A5"></line>
                <line x1="170.1122" y1="332.7655" x2="333.1042" y2="332.7655" id="Stroke-45" stroke="#A5A5A5"></line>
                <line x1="333.1043" y1="332.7655" x2="345.8603" y2="332.7655" id="Stroke-46" stroke="#A5A5A5"></line>
                <line x1="345.8602" y1="332.7655" x2="495.0962" y2="332.7655" id="Stroke-47" stroke="#A5A5A5"></line>
                <text id="Các-chu-trình-trong" font-family="LucidaGrande-Bold, Lucida Grande" font-size="11" font-weight="bold" letter-spacing="0.011" fill="#B99C9A">
                    <tspan x="18.2027" y="15.9814563">Các chu trình trong </tspan>
                    <tspan x="18.2027" y="28.9814563">hệ thống trái đất</tspan>
                </text>
                <text id="Biến-số-điều-khiển" font-family="LucidaGrande-Bold, Lucida Grande" font-size="11" font-weight="bold" letter-spacing="0.011" fill="#B99C9A">
                    <tspan x="198.2027" y="21.9814563">Biến số điều khiển</tspan>
                </text>
                <text id="Biến-số-điều-khiển-Copy" font-family="LucidaGrande-Bold, Lucida Grande" font-size="11" font-weight="bold" letter-spacing="0.011" fill="#B99C9A">
                    <tspan x="198.2027" y="21.9814563">Biến số điều khiển</tspan>
                </text>
                <text id="Giới-hạn-(phạm-vi-kh" font-family="LucidaGrande-Bold, Lucida Grande" font-size="11" font-weight="bold" letter-spacing="0.011" fill="#B99C9A">
                    <tspan x="370.2027" y="15.9814563">Giới hạn</tspan>
                    <tspan x="418.082692" y="15.9814563" font-family="LucidaGrande, Lucida Grande" font-weight="normal"> (phạm vi </tspan>
                    <tspan x="370.2027" y="28.9814563" font-family="LucidaGrande, Lucida Grande" font-weight="normal">không chắc chắn)</tspan>
                </text>
                <text id="5-tỉ-tấn-CO2/năm-(4," font-family="LucidaGrande-Bold, Lucida Grande" font-size="11" font-weight="bold" letter-spacing="0.011" fill="#B99C9A">
                    <tspan x="353.2027" y="55.9814563">5 tỉ tấn CO2/năm</tspan>
                    <tspan x="452.421669" y="55.9814563" font-family="LucidaGrande, Lucida Grande" font-weight="normal"> </tspan>
                    <tspan x="353.2027" y="68.9814563" font-family="LucidaGrande, Lucida Grande" font-weight="normal">(4,7-5,4 Gt CO2eq/năm )</tspan>
                </text>
                <text id="13-triệu-km2-(11-15" font-family="LucidaGrande-Bold, Lucida Grande" font-size="11" font-weight="bold" letter-spacing="0.011" fill="#B99C9A">
                    <tspan x="352.2027" y="97.9814563">13 triệu km2</tspan>
                    <tspan x="425.687727" y="97.9814563" font-family="LucidaGrande, Lucida Grande" font-weight="normal"> </tspan>
                    <tspan x="352.2027" y="110.981456" font-family="LucidaGrande, Lucida Grande" font-weight="normal">(11-15 M km2 )</tspan>
                </text>
                <text id="2.500-km3/năm-(1000-" font-family="LucidaGrande-Bold, Lucida Grande" font-size="11" font-weight="bold" letter-spacing="0.011" fill="#B99C9A">
                    <tspan x="352.2027" y="138.981456">2.500 km3/năm</tspan>
                    <tspan x="443.176266" y="138.981456" font-family="LucidaGrande, Lucida Grande" font-weight="normal"> </tspan>
                    <tspan x="352.2027" y="151.981456" font-family="LucidaGrande, Lucida Grande" font-weight="normal">(1000-4000 km3/năm )</tspan>
                </text>
                <text id="90-tỉ-gram-N/năm-(65" font-family="LucidaGrande-Bold, Lucida Grande" font-size="11" font-weight="bold" letter-spacing="0.011" fill="#B99C9A">
                    <tspan x="353.2027" y="182.981456">90 tỉ gram N/năm</tspan>
                    <tspan x="455.22538" y="182.981456" font-family="LucidaGrande, Lucida Grande" font-weight="normal"> </tspan>
                    <tspan x="353.2027" y="195.981456" font-family="LucidaGrande, Lucida Grande" font-weight="normal">(65-90 tỉ gram N/năm)*</tspan>
                    <tspan x="353.2027" y="208.981456" font-family="LucidaGrande, Lucida Grande" font-weight="normal">(90-130 tỉ gram N/năm)**</tspan>
                </text>
                <text id="8-tỉ-gram-P/năm-(6-1" font-family="LucidaGrande-Bold, Lucida Grande" font-size="11" font-weight="bold" letter-spacing="0.011" fill="#B99C9A">
                    <tspan x="353.2027" y="242.981456">8 tỉ gram P/năm</tspan>
                    <tspan x="446.250024" y="242.981456" font-family="LucidaGrande, Lucida Grande" font-weight="normal"> </tspan>
                    <tspan x="353.2027" y="255.981456" font-family="LucidaGrande, Lucida Grande" font-weight="normal">(6-12 tỉ gram P/năm)*</tspan>
                    <tspan x="353.2027" y="268.981456" font-family="LucidaGrande, Lucida Grande" font-weight="normal">(8-16 tỉ gram P/năm)**</tspan>
                </text>
                <text id="10-E/triệu-loài-năm" font-family="LucidaGrande-Bold, Lucida Grande" font-size="11" font-weight="bold" letter-spacing="0.011" fill="#B99C9A">
                    <tspan x="353.2027" y="302.981456">10 E/triệu loài năm</tspan>
                    <tspan x="463.336505" y="302.981456" font-family="LucidaGrande, Lucida Grande" font-weight="normal"> </tspan>
                    <tspan x="353.2027" y="315.981456" font-family="LucidaGrande, Lucida Grande" font-weight="normal">(1-80 E/triệu loài năm)</tspan>
                </text>
                <text id="Biến-đổi-khí-hậu" font-family="LucidaGrande-Bold, Lucida Grande" font-size="11" font-weight="bold" letter-spacing="0.011" fill="#B99C9A">
                    <tspan x="19.2027" y="61.9814563">Biến đổi khí hậu</tspan>
                </text>
                <text id="Biến-đổi-khí-hậu-Copy" font-family="LucidaGrande-Bold, Lucida Grande" font-size="11" font-weight="bold" letter-spacing="0.011" fill="#B99C9A">
                    <tspan x="19.2027" y="61.9814563">Biến đổi khí hậu</tspan>
                </text>
                <text id="Khí-nhà-kính" font-family="LucidaGrande-Bold, Lucida Grande" font-size="11" font-weight="bold" letter-spacing="0.011" fill="#B99C9A">
                    <tspan x="214.2027" y="61.9814563">Khí nhà kính</tspan>
                </text>
                <text id="Sử-dụng-đất-trồng" font-family="LucidaGrande-Bold, Lucida Grande" font-size="11" font-weight="bold" letter-spacing="0.011" fill="#B99C9A">
                    <tspan x="214.2027" y="103.981456">Sử dụng đất trồng</tspan>
                </text>
                <text id="Sử-dụng-nước" font-family="LucidaGrande-Bold, Lucida Grande" font-size="11" font-weight="bold" letter-spacing="0.011" fill="#B99C9A">
                    <tspan x="214.2027" y="146.981456">Sử dụng nước</tspan>
                </text>
                <text id="Sử-dụng-Nitơ-(N)" font-family="LucidaGrande-Bold, Lucida Grande" font-size="11" font-weight="bold" letter-spacing="0.011" fill="#B99C9A">
                    <tspan x="214.2027" y="196.981456">Sử dụng Nitơ (N)</tspan>
                </text>
                <text id="Sử-dụng-Phốt-pho-(P)" font-family="LucidaGrande-Bold, Lucida Grande" font-size="11" font-weight="bold" letter-spacing="0.011" fill="#B99C9A">
                    <tspan x="214.2027" y="255.981456">Sử dụng Phốt-pho (P)</tspan>
                </text>
                <text id="Tốc-độ-tuyệt-chủng-S" font-family="LucidaGrande-Bold, Lucida Grande" font-size="11" font-weight="bold" letter-spacing="0.011" fill="#B99C9A">
                    <tspan x="213.2027" y="299.981456">Tốc độ tuyệt chủng </tspan>
                    <tspan x="213.2027" y="312.981456" font-family="LucidaGrande, Lucida Grande" font-weight="normal">Số tuyệt chủng (E)/</tspan>
                    <tspan x="213.2027" y="325.981456" font-family="LucidaGrande, Lucida Grande" font-weight="normal">triệu loài năm</tspan>
                </text>
                <text id="Thay-đổi-trong-sử-dụ" font-family="LucidaGrande-Bold, Lucida Grande" font-size="11" font-weight="bold" letter-spacing="0.011" fill="#B99C9A">
                    <tspan x="19.2027" y="95.9814563">Thay đổi trong </tspan>
                    <tspan x="19.2027" y="108.981456">sử dụng đất</tspan>
                </text>
                <text id="Sử-dụng-nước-ngọt" font-family="LucidaGrande-Bold, Lucida Grande" font-size="11" font-weight="bold" letter-spacing="0.011" fill="#B99C9A">
                    <tspan x="19.2027" y="144.981456">Sử dụng nước ngọt</tspan>
                </text>
                <text id="Chu-trình-Nitơ" font-family="LucidaGrande-Bold, Lucida Grande" font-size="11" font-weight="bold" letter-spacing="0.011" fill="#B99C9A">
                    <tspan x="19.2027" y="194.981456">Chu trình Nitơ</tspan>
                </text>
                <text id="Chu-trình-Phốt-pho" font-family="LucidaGrande-Bold, Lucida Grande" font-size="11" font-weight="bold" letter-spacing="0.011" fill="#B99C9A">
                    <tspan x="19.2027" y="254.981456">Chu trình Phốt-pho</tspan>
                </text>
                <text id="Mất-đa-dạng-sinh-thá" font-family="LucidaGrande-Bold, Lucida Grande" font-size="11" font-weight="bold" letter-spacing="0.011" fill="#B99C9A">
                    <tspan x="19.2027" y="309.981456">Mất đa dạng sinh thái</tspan>
                </text>
            </g>
            <g id="Group-56" transform="translate(177.049567, 86.589727)" fill="#0084BE">
                <path d="M28.3380334,14.643973 C28.0780334,22.466973 21.5250334,28.600973 13.7010334,28.339973 C5.87803337,28.079973 -0.252966626,21.525973 0.00803337427,13.701973 C0.269033374,5.87897303 6.82003337,-0.25202697 14.6450334,0.0079730296 C22.4660334,0.26797303 28.5980334,6.82097303 28.3380334,14.643973" id="Fill-54"></path>
            </g>
            <g id="Group-163" transform="translate(180.130600, 91.782100)">
                <polygon id="Fill-57" fill="#FFEE76" points="20.2579 5.9819 20.5299 6.3949 20.8219 5.9949 21.1009 5.6109 21.1119 5.6109 21.1119 5.5989 21.1129 5.5949 21.1119 5.5949 21.1319 4.5929 21.1359 4.5929 21.1319 4.5899 21.1319 4.5819 21.1259 4.5819 20.8619 4.1799 20.5859 3.7699 20.2959 4.1689 20.0149 4.5589 20.0059 4.5579 19.9839 5.5869 19.9929 5.5869"></polygon>
                <polygon id="Fill-59" fill="#FFEE76" points="20.6788 6.9497 20.6788 7.4237 20.6778 7.9167 21.1398 7.7457 21.5868 7.5817 21.5938 7.5877 21.6008 7.5767 21.6048 7.5747 21.6028 7.5747 22.1758 6.7537 22.1778 6.7547 22.1778 6.7517 22.1818 6.7447 22.1778 6.7417 22.1788 6.2607 22.1798 5.7647 21.7168 5.9377 21.2648 6.1037 21.2608 6.0997 20.6718 6.9437"></polygon>
                <polygon id="Fill-60" fill="#FFCF21" points="18.9181 6.7514 18.9181 6.7544 18.9191 6.7534 19.4921 7.5744 19.4891 7.5744 19.4941 7.5764 19.5001 7.5874 19.5081 7.5814 19.9551 7.7464 20.4171 7.9174 20.4141 7.4234 20.4141 6.9494 20.4251 6.9434 19.8351 6.0994 19.8301 6.1044 19.3781 5.9374 18.9151 5.7654 18.9171 6.2604 18.9181 6.7414 18.9121 6.7454"></polygon>
                <polygon id="Fill-61" fill="#FFEE76" points="22.1788 8.3203 22.1798 7.8283 21.7168 7.9993 21.2648 8.1653 21.2608 8.1623 20.6718 9.0033 20.6808 9.0103 20.6788 9.4853 20.6778 9.9773 21.1418 9.8083 21.5868 9.6433 21.5948 9.6493 21.6008 9.6363 21.6048 9.6363 22.1758 8.8143 22.1778 8.8153 22.1778 8.8113 22.1818 8.8053 22.1778 8.8033"></polygon>
                <polygon id="Fill-62" fill="#FFCF21" points="19.8351 8.1621 19.8301 8.1651 19.3781 7.9991 18.9171 7.8281 18.9171 8.3201 18.9181 8.8031 18.9121 8.8061 18.9181 8.8111 18.9181 8.8151 18.9191 8.8141 19.4921 9.6361 19.4901 9.6361 19.4941 9.6361 19.5001 9.6491 19.5081 9.6431 19.9551 9.8081 20.4171 9.9771 20.4161 9.4851 20.4141 9.0101 20.4251 9.0031"></polygon>
                <polygon id="Fill-63" fill="#FFEE76" points="22.1788 10.3818 22.1798 9.8888 21.7168 10.0588 21.2648 10.2258 21.2608 10.2208 20.6718 11.0668 20.6808 11.0708 20.6788 11.5458 20.6778 12.0398 21.1418 11.8678 21.5868 11.7048 21.5948 11.7088 21.6008 11.6978 21.6048 11.6978 22.1758 10.8758 22.1778 10.8758 22.1778 10.8728 22.1818 10.8668 22.1778 10.8628"></polygon>
                <polygon id="Fill-64" fill="#FFCF21" points="19.8351 10.2211 19.8301 10.2251 19.3781 10.0591 18.9171 9.8891 18.9171 10.3821 18.9181 10.8631 18.9121 10.8671 18.9181 10.8731 18.9181 10.8751 18.9191 10.8751 19.4921 11.6981 19.4901 11.6981 19.4941 11.6981 19.5001 11.7091 19.5081 11.7041 19.9551 11.8671 20.4171 12.0401 20.4161 11.5451 20.4141 11.0711 20.4251 11.0671"></polygon>
                <polygon id="Fill-65" fill="#FFEE76" points="22.1788 12.4433 22.1798 11.9493 21.7168 12.1213 21.2648 12.2873 21.2608 12.2823 20.6718 13.1273 20.6808 13.1313 20.6788 13.6073 20.6778 14.1013 21.1418 13.9293 21.5868 13.7653 21.5948 13.7713 21.6008 13.7603 21.6048 13.7583 22.1758 12.9353 22.1778 12.9363 22.1778 12.9333 22.1818 12.9263 22.1778 12.9263"></polygon>
                <polygon id="Fill-66" fill="#FFCF21" points="19.8351 12.2827 19.8301 12.2867 19.3781 12.1207 18.9171 11.9497 18.9171 12.4437 18.9181 12.9267 18.9121 12.9267 18.9181 12.9327 18.9181 12.9367 18.9191 12.9357 19.4921 13.7587 19.4901 13.7587 19.4941 13.7607 19.5001 13.7717 19.5081 13.7657 19.9551 13.9287 20.4171 14.1007 20.4161 13.6077 20.4141 13.1317 20.4251 13.1267"></polygon>
                <polygon id="Fill-67" fill="#FFEE76" points="22.1788 14.5048 22.1798 14.0118 21.7168 14.1818 21.2648 14.3488 21.2608 14.3438 20.6718 15.1888 20.6808 15.1928 20.6788 15.6668 20.6778 16.1638 21.1418 15.9918 21.5868 15.8278 21.5948 15.8328 21.6008 15.8228 21.6048 15.8208 22.1758 14.9978 22.1778 14.9978 22.1778 14.9958 22.1818 14.9898 22.1778 14.9858"></polygon>
                <polygon id="Fill-68" fill="#FFCF21" points="19.8351 14.3442 19.8301 14.3492 19.3781 14.1822 18.9171 14.0122 18.9171 14.5052 18.9181 14.9862 18.9121 14.9902 18.9181 14.9962 18.9181 14.9982 18.9191 14.9982 19.4921 15.8212 19.4901 15.8212 19.4941 15.8232 19.5001 15.8332 19.5081 15.8272 19.9551 15.9912 20.4171 16.1642 20.4161 15.6672 20.4141 15.1932 20.4251 15.1882"></polygon>
                <polygon id="Fill-69" fill="#FFEE76" points="22.1788 16.5669 22.1798 16.0729 21.7168 16.2439 21.2648 16.4099 21.2608 16.4059 20.6718 17.2499 20.6788 17.2559 20.6788 17.7299 20.6778 18.2249 21.1398 18.0519 21.5868 17.8889 21.5938 17.8949 21.6008 17.8829 21.6048 17.8829 21.6028 17.8819 22.1758 17.0609 22.1778 17.0619 22.1778 17.0589 22.1818 17.0499 22.1778 17.0479"></polygon>
                <polygon id="Fill-70" fill="#FFCF21" points="20.4142 17.2563 20.4252 17.2493 19.8352 16.4053 19.8302 16.4093 19.3782 16.2433 18.9152 16.0723 18.9172 16.5673 18.9182 17.0483 18.9122 17.0503 18.9182 17.0593 18.9182 17.0623 18.9192 17.0613 19.4922 17.8823 19.4892 17.8833 19.4942 17.8833 19.5002 17.8953 19.5082 17.8893 19.9552 18.0523 20.4172 18.2253 20.4142 17.7303"></polygon>
                <polygon id="Fill-71" fill="#FFCF21" points="18.9181 6.7514 18.9181 6.7544 18.9191 6.7534 19.4921 7.5744 19.4891 7.5744 19.4941 7.5764 19.5001 7.5874 19.5081 7.5814 19.9551 7.7464 20.4171 7.9174 20.4141 7.4234 20.4141 6.9494 20.4251 6.9434 19.8351 6.0994 19.8301 6.1044 19.3781 5.9374 18.9151 5.7654 18.9171 6.2604 18.9181 6.7414 18.9121 6.7454"></polygon>
                <polygon id="Fill-72" fill="#FFCF21" points="19.8351 8.1621 19.8301 8.1651 19.3781 7.9991 18.9171 7.8281 18.9171 8.3201 18.9181 8.8031 18.9121 8.8061 18.9181 8.8111 18.9181 8.8151 18.9191 8.8141 19.4921 9.6361 19.4901 9.6361 19.4941 9.6361 19.5001 9.6491 19.5081 9.6431 19.9551 9.8081 20.4171 9.9771 20.4161 9.4851 20.4141 9.0101 20.4251 9.0031"></polygon>
                <polygon id="Fill-73" fill="#FFCF21" points="19.8351 10.2211 19.8301 10.2251 19.3781 10.0591 18.9171 9.8891 18.9171 10.3821 18.9181 10.8631 18.9121 10.8671 18.9181 10.8731 18.9181 10.8751 18.9191 10.8751 19.4921 11.6981 19.4901 11.6981 19.4941 11.6981 19.5001 11.7091 19.5081 11.7041 19.9551 11.8671 20.4171 12.0401 20.4161 11.5451 20.4141 11.0711 20.4251 11.0671"></polygon>
                <polygon id="Fill-74" fill="#FFCF21" points="19.8351 12.2827 19.8301 12.2867 19.3781 12.1207 18.9171 11.9497 18.9171 12.4437 18.9181 12.9267 18.9121 12.9267 18.9181 12.9327 18.9181 12.9367 18.9191 12.9357 19.4921 13.7587 19.4901 13.7587 19.4941 13.7607 19.5001 13.7717 19.5081 13.7657 19.9551 13.9287 20.4171 14.1007 20.4161 13.6077 20.4141 13.1317 20.4251 13.1267"></polygon>
                <polygon id="Fill-75" fill="#FFCF21" points="19.8351 14.3442 19.8301 14.3492 19.3781 14.1822 18.9171 14.0122 18.9171 14.5052 18.9181 14.9862 18.9121 14.9902 18.9181 14.9962 18.9181 14.9982 18.9191 14.9982 19.4921 15.8212 19.4901 15.8212 19.4941 15.8232 19.5001 15.8332 19.5081 15.8272 19.9551 15.9912 20.4171 16.1642 20.4161 15.6672 20.4141 15.1932 20.4251 15.1882"></polygon>
                <polygon id="Fill-76" fill="#FFCF21" points="20.4142 17.2563 20.4252 17.2493 19.8352 16.4053 19.8302 16.4093 19.3782 16.2433 18.9152 16.0723 18.9172 16.5673 18.9182 17.0483 18.9122 17.0503 18.9182 17.0593 18.9182 17.0623 18.9192 17.0613 19.4922 17.8823 19.4892 17.8833 19.4942 17.8833 19.5002 17.8953 19.5082 17.8893 19.9552 18.0523 20.4172 18.2253 20.4142 17.7303"></polygon>
                <polygon id="Fill-77" fill="#FFEE76" points="20.4242 23.1046 20.6712 23.1046 20.6712 18.4826 20.4242 18.4826"></polygon>
                <polygon id="Fill-78" fill="#FFCF21" points="20.547 3.8237 20.296 4.1687 20.015 4.5587 20.006 4.5577 19.984 5.5867 19.993 5.5867 20.258 5.9817 20.53 6.3947 20.547 6.3687"></polygon>
                <polygon id="Fill-79" fill="#FFEE76" points="1.3468 5.9819 1.6188 6.3949 1.9088 5.9949 2.1898 5.6109 2.2008 5.6109 2.2008 5.5989 2.2008 5.5949 2.2218 4.5929 2.2238 4.5929 2.2218 4.5899 2.2218 4.5819 2.2138 4.5819 1.9508 4.1799 1.6758 3.7699 1.3868 4.1689 1.1018 4.5589 1.0948 4.5579 1.0728 5.5869 1.0828 5.5869"></polygon>
                <polygon id="Fill-80" fill="#FFEE76" points="1.7667 6.9497 1.7667 7.4237 1.7657 7.9167 2.2297 7.7457 2.6737 7.5817 2.6827 7.5877 2.6897 7.5767 2.6937 7.5747 2.6897 7.5747 3.2657 6.7537 3.2657 6.7547 3.2657 6.7517 3.2717 6.7447 3.2657 6.7417 3.2687 6.2607 3.2707 5.7647 2.8037 5.9377 2.3557 6.1037 2.3487 6.0997 1.7587 6.9437"></polygon>
                <polygon id="Fill-81" fill="#FFCF21" points="0.007 6.7514 0.007 6.7544 0.007 6.7534 0.581 7.5744 0.579 7.5744 0.582 7.5764 0.59 7.5874 0.597 7.5814 1.042 7.7464 1.505 7.9174 1.504 7.4234 1.504 6.9494 1.514 6.9434 0.922 6.0994 0.917 6.1044 0.467 5.9374 0.004 5.7654 0.004 6.2604 0.007 6.7414 0 6.7454"></polygon>
                <polygon id="Fill-82" fill="#FFEE76" points="3.2687 8.3203 3.2707 7.8283 2.8037 7.9993 2.3557 8.1653 2.3487 8.1623 1.7587 9.0033 1.7687 9.0103 1.7667 9.4853 1.7657 9.9773 2.2297 9.8083 2.6737 9.6433 2.6837 9.6493 2.6897 9.6363 2.6937 9.6363 2.6917 9.6363 3.2657 8.8143 3.2657 8.8153 3.2657 8.8113 3.2717 8.8053 3.2657 8.8033"></polygon>
                <polygon id="Fill-83" fill="#FFCF21" points="0.924 8.1621 0.917 8.1651 0.468 7.9991 0.004 7.8281 0.004 8.3201 0.007 8.8031 0 8.8061 0.007 8.8111 0.007 8.8151 0.007 8.8141 0.582 9.6361 0.579 9.6361 0.582 9.6361 0.59 9.6491 0.597 9.6431 1.042 9.8081 1.505 9.9771 1.504 9.4851 1.504 9.0101 1.514 9.0031"></polygon>
                <polygon id="Fill-84" fill="#FFEE76" points="3.2687 10.3818 3.2707 9.8888 2.8037 10.0588 2.3557 10.2258 2.3487 10.2208 1.7587 11.0668 1.7687 11.0708 1.7667 11.5458 1.7657 12.0398 2.2297 11.8678 2.6737 11.7048 2.6837 11.7088 2.6897 11.6978 2.6937 11.6978 2.6917 11.6978 3.2657 10.8758 3.2657 10.8728 3.2717 10.8668 3.2657 10.8628"></polygon>
                <polygon id="Fill-85" fill="#FFCF21" points="0.924 10.2211 0.917 10.2251 0.468 10.0591 0.004 9.8891 0.004 10.3821 0.007 10.8631 0 10.8671 0.007 10.8731 0.007 10.8751 0.582 11.6981 0.579 11.6981 0.582 11.6981 0.59 11.7091 0.597 11.7041 1.042 11.8671 1.505 12.0401 1.504 11.5451 1.504 11.0711 1.514 11.0671"></polygon>
                <polygon id="Fill-86" fill="#FFEE76" points="3.2687 12.4433 3.2707 11.9493 2.8037 12.1213 2.3557 12.2873 2.3487 12.2823 1.7587 13.1273 1.7687 13.1313 1.7667 13.6073 1.7657 14.1013 2.2297 13.9293 2.6737 13.7653 2.6837 13.7713 2.6897 13.7603 2.6937 13.7583 2.6917 13.7583 3.2657 12.9353 3.2657 12.9363 3.2657 12.9333 3.2717 12.9263 3.2657 12.9263"></polygon>
                <polygon id="Fill-87" fill="#FFCF21" points="0.924 12.2827 0.917 12.2867 0.468 12.1207 0.004 11.9497 0.004 12.4437 0.007 12.9267 0 12.9267 0.007 12.9327 0.007 12.9367 0.007 12.9357 0.582 13.7587 0.579 13.7587 0.582 13.7607 0.59 13.7717 0.597 13.7657 1.042 13.9287 1.505 14.1007 1.504 13.6077 1.504 13.1317 1.514 13.1267"></polygon>
                <polygon id="Fill-88" fill="#FFEE76" points="3.2687 14.5048 3.2707 14.0118 2.8037 14.1818 2.3557 14.3488 2.3487 14.3438 1.7587 15.1888 1.7687 15.1928 1.7667 15.6668 1.7657 16.1638 2.2297 15.9918 2.6737 15.8278 2.6837 15.8328 2.6897 15.8228 2.6937 15.8208 2.6917 15.8208 3.2657 14.9978 3.2657 14.9958 3.2717 14.9898 3.2657 14.9858"></polygon>
                <polygon id="Fill-89" fill="#FFCF21" points="0.924 14.3442 0.917 14.3492 0.468 14.1822 0.004 14.0122 0.004 14.5052 0.007 14.9862 0 14.9902 0.007 14.9962 0.007 14.9982 0.582 15.8212 0.579 15.8212 0.582 15.8232 0.59 15.8332 0.597 15.8272 1.042 15.9912 1.505 16.1642 1.504 15.6672 1.504 15.1932 1.514 15.1882"></polygon>
                <polygon id="Fill-90" fill="#FFEE76" points="3.2687 16.5669 3.2707 16.0729 2.8037 16.2439 2.3557 16.4099 2.3487 16.4059 1.7587 17.2499 1.7667 17.2559 1.7667 17.7299 1.7657 18.2249 2.2297 18.0519 2.6737 17.8889 2.6827 17.8949 2.6897 17.8829 2.6937 17.8829 2.6897 17.8819 3.2657 17.0609 3.2657 17.0619 3.2657 17.0589 3.2717 17.0499 3.2657 17.0479"></polygon>
                <polygon id="Fill-91" fill="#FFCF21" points="1.504 17.2563 1.514 17.2493 0.922 16.4053 0.917 16.4093 0.467 16.2433 0.004 16.0723 0.004 16.5673 0.007 17.0483 0 17.0503 0.007 17.0593 0.007 17.0623 0.007 17.0613 0.581 17.8823 0.579 17.8833 0.582 17.8833 0.59 17.8953 0.597 17.8893 1.042 18.0523 1.505 18.2253 1.504 17.7303"></polygon>
                <polygon id="Fill-92" fill="#FFCF21" points="0.007 6.7514 0.007 6.7544 0.007 6.7534 0.581 7.5744 0.579 7.5744 0.582 7.5764 0.59 7.5874 0.597 7.5814 1.042 7.7464 1.505 7.9174 1.504 7.4234 1.504 6.9494 1.514 6.9434 0.922 6.0994 0.917 6.1044 0.467 5.9374 0.004 5.7654 0.004 6.2604 0.007 6.7414 0 6.7454"></polygon>
                <polygon id="Fill-93" fill="#FFCF21" points="0.924 8.1621 0.917 8.1651 0.468 7.9991 0.004 7.8281 0.004 8.3201 0.007 8.8031 0 8.8061 0.007 8.8111 0.007 8.8151 0.007 8.8141 0.582 9.6361 0.579 9.6361 0.582 9.6361 0.59 9.6491 0.597 9.6431 1.042 9.8081 1.505 9.9771 1.504 9.4851 1.504 9.0101 1.514 9.0031"></polygon>
                <polygon id="Fill-94" fill="#FFCF21" points="0.924 10.2211 0.917 10.2251 0.468 10.0591 0.004 9.8891 0.004 10.3821 0.007 10.8631 0 10.8671 0.007 10.8731 0.007 10.8751 0.582 11.6981 0.579 11.6981 0.582 11.6981 0.59 11.7091 0.597 11.7041 1.042 11.8671 1.505 12.0401 1.504 11.5451 1.504 11.0711 1.514 11.0671"></polygon>
                <polygon id="Fill-95" fill="#FFCF21" points="0.924 12.2827 0.917 12.2867 0.468 12.1207 0.004 11.9497 0.004 12.4437 0.007 12.9267 0 12.9267 0.007 12.9327 0.007 12.9367 0.007 12.9357 0.582 13.7587 0.579 13.7587 0.582 13.7607 0.59 13.7717 0.597 13.7657 1.042 13.9287 1.505 14.1007 1.504 13.6077 1.504 13.1317 1.514 13.1267"></polygon>
                <polygon id="Fill-96" fill="#FFCF21" points="0.924 14.3442 0.917 14.3492 0.468 14.1822 0.004 14.0122 0.004 14.5052 0.007 14.9862 0 14.9902 0.007 14.9962 0.007 14.9982 0.582 15.8212 0.579 15.8212 0.582 15.8232 0.59 15.8332 0.597 15.8272 1.042 15.9912 1.505 16.1642 1.504 15.6672 1.504 15.1932 1.514 15.1882"></polygon>
                <polygon id="Fill-97" fill="#FFCF21" points="1.504 17.2563 1.514 17.2493 0.922 16.4053 0.917 16.4093 0.467 16.2433 0.004 16.0723 0.004 16.5673 0.007 17.0483 0 17.0503 0.007 17.0593 0.007 17.0623 0.007 17.0613 0.581 17.8823 0.579 17.8833 0.582 17.8833 0.59 17.8953 0.597 17.8893 1.042 18.0523 1.505 18.2253 1.504 17.7303"></polygon>
                <polygon id="Fill-98" fill="#FFEE76" points="1.5132 23.1046 1.7602 23.1046 1.7602 18.4826 1.5132 18.4826"></polygon>
                <polygon id="Fill-99" fill="#FFCF21" points="1.6368 3.8237 1.3868 4.1687 1.1018 4.5587 1.0948 4.5577 1.0728 5.5867 1.0828 5.5867 1.3468 5.9817 1.6188 6.3947 1.6368 6.3687"></polygon>
                <polygon id="Fill-100" fill="#FFEE76" points="15.8468 4.0258 16.1648 4.5058 16.5038 4.0408 16.8298 3.5938 16.8428 3.5938 16.8428 3.5788 16.8428 3.5758 16.8678 2.4088 16.8678 2.4068 16.8678 2.3968 16.8598 2.3968 16.5508 1.9288 16.2308 1.4508 15.8948 1.9158 15.5648 2.3688 15.5548 2.3678 15.5298 3.5668 15.5398 3.5668"></polygon>
                <polygon id="Fill-101" fill="#FFEE76" points="16.338 5.1523 16.338 5.7033 16.337 6.2783 16.876 6.0803 17.394 5.8883 17.403 5.8963 17.413 5.8823 17.416 5.8803 17.413 5.8793 18.082 4.9233 18.082 4.9263 18.082 4.9213 18.089 4.9153 18.082 4.9103 18.086 4.3503 18.087 3.7743 17.547 3.9743 17.021 4.1683 17.014 4.1623 16.329 5.1453"></polygon>
                <polygon id="Fill-102" fill="#FFCF21" points="14.2872 4.9213 14.2872 4.9263 14.2892 4.9233 14.9562 5.8793 14.9542 5.8803 14.9592 5.8823 14.9672 5.8963 14.9752 5.8883 15.4952 6.0803 16.0332 6.2783 16.0302 5.7033 16.0302 5.1523 16.0432 5.1453 15.3552 4.1623 15.3492 4.1683 14.8242 3.9743 14.2852 3.7743 14.2852 4.3503 14.2872 4.9103 14.2812 4.9153"></polygon>
                <polygon id="Fill-103" fill="#FFEE76" points="18.0861 6.75 18.0871 6.176 17.5471 6.375 17.0211 6.568 17.0141 6.563 16.3291 7.543 16.3401 7.552 16.3381 8.104 16.3371 8.678 16.8761 8.48 17.3941 8.289 17.4051 8.295 17.4131 8.281 17.4161 8.281 17.4151 8.281 18.0821 7.323 18.0821 7.325 18.0821 7.321 18.0891 7.314 18.0821 7.311"></polygon>
                <polygon id="Fill-104" fill="#FFCF21" points="15.3556 6.5634 15.3486 6.5684 14.8246 6.3744 14.2856 6.1754 14.2856 6.7504 14.2876 7.3104 14.2816 7.3134 14.2876 7.3204 14.2876 7.3244 14.2896 7.3234 14.9576 8.2814 14.9566 8.2814 14.9596 8.2814 14.9666 8.2954 14.9756 8.2894 15.4956 8.4804 16.0336 8.6784 16.0316 8.1044 16.0306 7.5514 16.0426 7.5434"></polygon>
                <polygon id="Fill-105" fill="#FFEE76" points="18.0861 9.1494 18.0871 8.5754 17.5471 8.7734 17.0211 8.9674 17.0141 8.9614 16.3291 9.9454 16.3401 9.9504 16.3381 10.5034 16.3371 11.0794 16.8761 10.8784 17.3941 10.6884 17.4051 10.6934 17.4131 10.6804 17.4161 10.6804 17.4151 10.6804 18.0821 9.7234 18.0821 9.7204 18.0891 9.7124 18.0821 9.7084"></polygon>
                <polygon id="Fill-106" fill="#FFCF21" points="15.3556 8.9614 15.3486 8.9674 14.8246 8.7734 14.2856 8.5754 14.2856 9.1494 14.2876 9.7084 14.2816 9.7124 14.2876 9.7204 14.2876 9.7234 14.2896 9.7234 14.9576 10.6804 14.9566 10.6804 14.9596 10.6804 14.9666 10.6934 14.9756 10.6884 15.4956 10.8784 16.0336 11.0794 16.0316 10.5034 16.0306 9.9504 16.0426 9.9454"></polygon>
                <polygon id="Fill-107" fill="#FFEE76" points="18.0861 11.5498 18.0871 10.9728 17.5471 11.1738 17.0211 11.3668 17.0141 11.3608 16.3291 12.3438 16.3401 12.3498 16.3381 12.9038 16.3371 13.4778 16.8761 13.2788 17.3941 13.0878 17.4051 13.0948 17.4131 13.0818 17.4161 13.0808 17.4151 13.0798 18.0821 12.1218 18.0821 12.1228 18.0821 12.1188 18.0891 12.1118 18.0821 12.1108"></polygon>
                <polygon id="Fill-108" fill="#FFCF21" points="15.3556 11.3608 15.3486 11.3668 14.8246 11.1738 14.2856 10.9728 14.2856 11.5498 14.2876 12.1108 14.2816 12.1108 14.2876 12.1188 14.2876 12.1228 14.2896 12.1218 14.9576 13.0798 14.9566 13.0808 14.9596 13.0818 14.9666 13.0948 14.9756 13.0878 15.4956 13.2778 16.0336 13.4778 16.0316 12.9038 16.0306 12.3498 16.0426 12.3438"></polygon>
                <polygon id="Fill-109" fill="#FFEE76" points="18.0861 13.9492 18.0871 13.3762 17.5471 13.5732 17.0211 13.7672 17.0141 13.7612 16.3291 14.7432 16.3401 14.7492 16.3381 15.3032 16.3371 15.8792 16.8761 15.6802 17.3941 15.4892 17.4051 15.4952 17.4131 15.4822 17.4161 15.4812 17.4151 15.4812 18.0821 14.5232 18.0821 14.5242 18.0821 14.5212 18.0891 14.5122 18.0821 14.5082"></polygon>
                <polygon id="Fill-110" fill="#FFCF21" points="15.3556 13.7612 15.3486 13.7672 14.8246 13.5732 14.2856 13.3762 14.2856 13.9492 14.2876 14.5082 14.2816 14.5122 14.2876 14.5212 14.2876 14.5242 14.2896 14.5232 14.9576 15.4812 14.9566 15.4812 14.9596 15.4822 14.9666 15.4952 14.9756 15.4892 15.4956 15.6802 16.0336 15.8792 16.0316 15.3032 16.0306 14.7492 16.0426 14.7432"></polygon>
                <polygon id="Fill-111" fill="#FFEE76" points="18.0861 16.3501 18.0871 15.7751 17.5471 15.9731 17.0211 16.1671 17.0141 16.1621 16.3291 17.1451 16.3381 17.1521 16.3381 17.7041 16.3371 18.2791 16.8761 18.0791 17.3941 17.8881 17.4031 17.8951 17.4131 17.8821 17.4161 17.8821 17.4131 17.8811 18.0821 16.9241 18.0821 16.9251 18.0821 16.9211 18.0891 16.9121 18.0821 16.9101"></polygon>
                <polygon id="Fill-112" fill="#FFCF21" points="16.0304 17.1518 16.0434 17.1448 15.3554 16.1618 15.3484 16.1678 14.8244 15.9728 14.2854 15.7748 14.2854 16.3498 14.2874 16.9098 14.2814 16.9128 14.2874 16.9218 14.2874 16.9248 14.2894 16.9238 14.9564 17.8808 14.9544 17.8818 14.9594 17.8818 14.9674 17.8948 14.9754 17.8878 15.4954 18.0798 16.0334 18.2788 16.0304 17.7048"></polygon>
                <polygon id="Fill-113" fill="#FFCF21" points="14.2872 4.9213 14.2872 4.9263 14.2892 4.9233 14.9562 5.8793 14.9542 5.8803 14.9592 5.8823 14.9672 5.8963 14.9752 5.8883 15.4952 6.0803 16.0332 6.2783 16.0302 5.7033 16.0302 5.1523 16.0432 5.1453 15.3552 4.1623 15.3492 4.1683 14.8242 3.9743 14.2852 3.7743 14.2852 4.3503 14.2872 4.9103 14.2812 4.9153"></polygon>
                <polygon id="Fill-114" fill="#FFCF21" points="15.3556 6.5634 15.3486 6.5684 14.8246 6.3744 14.2856 6.1754 14.2856 6.7504 14.2876 7.3104 14.2816 7.3134 14.2876 7.3204 14.2876 7.3244 14.2896 7.3234 14.9576 8.2814 14.9566 8.2814 14.9596 8.2814 14.9666 8.2954 14.9756 8.2894 15.4956 8.4804 16.0336 8.6784 16.0316 8.1044 16.0306 7.5514 16.0426 7.5434"></polygon>
                <polygon id="Fill-115" fill="#FFCF21" points="15.3556 8.9614 15.3486 8.9674 14.8246 8.7734 14.2856 8.5754 14.2856 9.1494 14.2876 9.7084 14.2816 9.7124 14.2876 9.7204 14.2876 9.7234 14.2896 9.7234 14.9576 10.6804 14.9566 10.6804 14.9596 10.6804 14.9666 10.6934 14.9756 10.6884 15.4956 10.8784 16.0336 11.0794 16.0316 10.5034 16.0306 9.9504 16.0426 9.9454"></polygon>
                <polygon id="Fill-116" fill="#FFCF21" points="15.3556 11.3608 15.3486 11.3668 14.8246 11.1738 14.2856 10.9728 14.2856 11.5498 14.2876 12.1108 14.2816 12.1108 14.2876 12.1188 14.2876 12.1228 14.2896 12.1218 14.9576 13.0798 14.9566 13.0808 14.9596 13.0818 14.9666 13.0948 14.9756 13.0878 15.4956 13.2778 16.0336 13.4778 16.0316 12.9038 16.0306 12.3498 16.0426 12.3438"></polygon>
                <polygon id="Fill-117" fill="#FFCF21" points="15.3556 13.7612 15.3486 13.7672 14.8246 13.5732 14.2856 13.3762 14.2856 13.9492 14.2876 14.5082 14.2816 14.5122 14.2876 14.5212 14.2876 14.5242 14.2896 14.5232 14.9576 15.4812 14.9566 15.4812 14.9596 15.4822 14.9666 15.4952 14.9756 15.4892 15.4956 15.6802 16.0336 15.8792 16.0316 15.3032 16.0306 14.7492 16.0426 14.7432"></polygon>
                <polygon id="Fill-118" fill="#FFCF21" points="16.0304 17.1518 16.0434 17.1448 15.3554 16.1618 15.3484 16.1678 14.8244 15.9728 14.2854 15.7748 14.2854 16.3498 14.2874 16.9098 14.2814 16.9128 14.2874 16.9218 14.2874 16.9248 14.2894 16.9238 14.9564 17.8808 14.9544 17.8818 14.9594 17.8818 14.9674 17.8948 14.9754 17.8878 15.4954 18.0798 16.0334 18.2788 16.0304 17.7048"></polygon>
                <polygon id="Fill-119" fill="#FFEE76" points="16.0422 23.9606 16.3292 23.9606 16.3292 18.5786 16.0422 18.5786"></polygon>
                <polygon id="Fill-120" fill="#FFCF21" points="16.1867 1.5136 15.8947 1.9156 15.5647 2.3686 15.5547 2.3676 15.5297 3.5666 15.5407 3.5666 15.8467 4.0256 16.1657 4.5066 16.1867 4.4766"></polygon>
                <polygon id="Fill-121" fill="#FFEE76" points="5.7267 4.0258 6.0427 4.5058 6.3837 4.0408 6.7077 3.5938 6.7207 3.5938 6.7207 3.5788 6.7227 3.5758 6.7207 3.5758 6.7457 2.4088 6.7477 2.4088 6.7457 2.4068 6.7457 2.3968 6.7387 2.3968 6.4297 1.9288 6.1097 1.4508 5.7737 1.9158 5.4427 2.3688 5.4347 2.3678 5.4077 3.5668 5.4197 3.5668"></polygon>
                <polygon id="Fill-122" fill="#FFEE76" points="6.2169 5.1523 6.2169 5.7033 6.2149 6.2783 6.7539 6.0803 7.2739 5.8883 7.2829 5.8963 7.2909 5.8823 7.2959 5.8803 7.2919 5.8793 7.9609 4.9233 7.9629 4.9263 7.9629 4.9213 7.9689 4.9153 7.9629 4.9103 7.9629 4.3503 7.9649 3.7743 7.4259 3.9743 6.9009 4.1683 6.8949 4.1623 6.2059 5.1453"></polygon>
                <polygon id="Fill-123" fill="#FFCF21" points="4.1681 4.9213 4.1681 4.9263 4.1701 4.9233 4.8361 5.8793 4.8321 5.8803 4.8381 5.8823 4.8461 5.8963 4.8551 5.8883 5.3761 6.0803 5.9121 6.2783 5.9101 5.7033 5.9101 5.1523 5.9221 5.1453 5.2341 4.1623 5.2301 4.1683 4.7011 3.9743 4.1631 3.7743 4.1651 4.3503 4.1681 4.9103 4.1611 4.9153"></polygon>
                <polygon id="Fill-124" fill="#FFEE76" points="7.963 6.75 7.965 6.176 7.426 6.375 6.901 6.568 6.895 6.563 6.206 7.543 6.22 7.552 6.217 8.104 6.215 8.678 6.756 8.48 7.274 8.289 7.283 8.295 7.291 8.281 7.296 8.281 7.294 8.281 7.961 7.323 7.963 7.325 7.963 7.321 7.969 7.314 7.963 7.311"></polygon>
                <polygon id="Fill-125" fill="#FFCF21" points="5.2355 6.5634 5.2295 6.5684 4.7045 6.3744 4.1655 6.1754 4.1655 6.7504 4.1685 7.3104 4.1615 7.3134 4.1685 7.3204 4.1685 7.3244 4.1705 7.3234 4.8385 8.2814 4.8345 8.2814 4.8385 8.2814 4.8455 8.2954 4.8545 8.2894 5.3765 8.4804 5.9125 8.6784 5.9115 8.1044 5.9105 7.5514 5.9225 7.5434"></polygon>
                <polygon id="Fill-126" fill="#FFEE76" points="7.963 9.1494 7.965 8.5754 7.426 8.7734 6.901 8.9674 6.895 8.9614 6.206 9.9454 6.22 9.9504 6.217 10.5034 6.215 11.0794 6.756 10.8784 7.274 10.6884 7.283 10.6934 7.291 10.6804 7.296 10.6804 7.294 10.6804 7.961 9.7234 7.963 9.7234 7.963 9.7204 7.969 9.7124 7.963 9.7084"></polygon>
                <polygon id="Fill-127" fill="#FFCF21" points="5.2355 8.9614 5.2295 8.9674 4.7045 8.7734 4.1655 8.5754 4.1655 9.1494 4.1685 9.7084 4.1615 9.7124 4.1685 9.7204 4.1685 9.7234 4.1705 9.7234 4.8385 10.6804 4.8345 10.6804 4.8385 10.6804 4.8455 10.6934 4.8545 10.6884 5.3765 10.8784 5.9125 11.0794 5.9115 10.5034 5.9105 9.9504 5.9225 9.9454"></polygon>
                <polygon id="Fill-128" fill="#FFEE76" points="7.963 11.5498 7.965 10.9728 7.426 11.1738 6.901 11.3668 6.895 11.3608 6.206 12.3438 6.22 12.3498 6.217 12.9038 6.215 13.4778 6.756 13.2788 7.274 13.0878 7.283 13.0948 7.291 13.0818 7.296 13.0808 7.294 13.0798 7.961 12.1218 7.963 12.1228 7.963 12.1188 7.969 12.1118 7.963 12.1108"></polygon>
                <polygon id="Fill-129" fill="#FFCF21" points="5.2355 11.3608 5.2295 11.3668 4.7045 11.1738 4.1655 10.9728 4.1655 11.5498 4.1685 12.1108 4.1615 12.1108 4.1685 12.1188 4.1685 12.1228 4.1705 12.1218 4.8385 13.0798 4.8345 13.0808 4.8385 13.0818 4.8455 13.0948 4.8545 13.0878 5.3765 13.2778 5.9125 13.4778 5.9115 12.9038 5.9105 12.3498 5.9225 12.3438"></polygon>
                <polygon id="Fill-130" fill="#FFEE76" points="7.963 13.9492 7.965 13.3762 7.426 13.5732 6.901 13.7672 6.895 13.7612 6.206 14.7432 6.22 14.7492 6.217 15.3032 6.215 15.8792 6.756 15.6802 7.274 15.4892 7.283 15.4952 7.291 15.4822 7.296 15.4812 7.294 15.4812 7.961 14.5232 7.963 14.5242 7.963 14.5212 7.969 14.5122 7.963 14.5082"></polygon>
                <polygon id="Fill-131" fill="#FFCF21" points="5.2355 13.7612 5.2295 13.7672 4.7045 13.5732 4.1655 13.3762 4.1655 13.9492 4.1685 14.5082 4.1615 14.5122 4.1685 14.5212 4.1685 14.5242 4.1705 14.5232 4.8385 15.4812 4.8345 15.4812 4.8385 15.4822 4.8455 15.4952 4.8545 15.4892 5.3765 15.6802 5.9125 15.8792 5.9115 15.3032 5.9105 14.7492 5.9225 14.7432"></polygon>
                <polygon id="Fill-132" fill="#FFEE76" points="7.963 16.3501 7.965 15.7751 7.426 15.9731 6.901 16.1671 6.895 16.1621 6.206 17.1451 6.217 17.1521 6.217 17.7041 6.215 18.2791 6.754 18.0791 7.274 17.8881 7.283 17.8951 7.291 17.8821 7.296 17.8821 7.292 17.8811 7.961 16.9241 7.963 16.9251 7.963 16.9211 7.969 16.9121 7.963 16.9101"></polygon>
                <polygon id="Fill-133" fill="#FFCF21" points="5.9103 17.1518 5.9223 17.1448 5.2343 16.1618 5.2293 16.1678 4.7013 15.9728 4.1633 15.7748 4.1653 16.3498 4.1683 16.9098 4.1613 16.9128 4.1683 16.9218 4.1683 16.9248 4.1703 16.9238 4.8363 17.8808 4.8323 17.8818 4.8383 17.8818 4.8463 17.8948 4.8543 17.8878 5.3763 18.0798 5.9123 18.2788 5.9103 17.7048"></polygon>
                <polygon id="Fill-134" fill="#FFCF21" points="4.1681 4.9213 4.1681 4.9263 4.1701 4.9233 4.8361 5.8793 4.8321 5.8803 4.8381 5.8823 4.8461 5.8963 4.8551 5.8883 5.3761 6.0803 5.9121 6.2783 5.9101 5.7033 5.9101 5.1523 5.9221 5.1453 5.2341 4.1623 5.2301 4.1683 4.7011 3.9743 4.1631 3.7743 4.1651 4.3503 4.1681 4.9103 4.1611 4.9153"></polygon>
                <polygon id="Fill-135" fill="#FFCF21" points="5.2355 6.5634 5.2295 6.5684 4.7045 6.3744 4.1655 6.1754 4.1655 6.7504 4.1685 7.3104 4.1615 7.3134 4.1685 7.3204 4.1685 7.3244 4.1705 7.3234 4.8385 8.2814 4.8345 8.2814 4.8385 8.2814 4.8455 8.2954 4.8545 8.2894 5.3765 8.4804 5.9125 8.6784 5.9115 8.1044 5.9105 7.5514 5.9225 7.5434"></polygon>
                <polygon id="Fill-136" fill="#FFCF21" points="5.2355 8.9614 5.2295 8.9674 4.7045 8.7734 4.1655 8.5754 4.1655 9.1494 4.1685 9.7084 4.1615 9.7124 4.1685 9.7204 4.1685 9.7234 4.1705 9.7234 4.8385 10.6804 4.8345 10.6804 4.8385 10.6804 4.8455 10.6934 4.8545 10.6884 5.3765 10.8784 5.9125 11.0794 5.9115 10.5034 5.9105 9.9504 5.9225 9.9454"></polygon>
                <polygon id="Fill-137" fill="#FFCF21" points="5.2355 11.3608 5.2295 11.3668 4.7045 11.1738 4.1655 10.9728 4.1655 11.5498 4.1685 12.1108 4.1615 12.1108 4.1685 12.1188 4.1685 12.1228 4.1705 12.1218 4.8385 13.0798 4.8345 13.0808 4.8385 13.0818 4.8455 13.0948 4.8545 13.0878 5.3765 13.2778 5.9125 13.4778 5.9115 12.9038 5.9105 12.3498 5.9225 12.3438"></polygon>
                <polygon id="Fill-138" fill="#FFCF21" points="5.2355 13.7612 5.2295 13.7672 4.7045 13.5732 4.1655 13.3762 4.1655 13.9492 4.1685 14.5082 4.1615 14.5122 4.1685 14.5212 4.1685 14.5242 4.1705 14.5232 4.8385 15.4812 4.8345 15.4812 4.8385 15.4822 4.8455 15.4952 4.8545 15.4892 5.3765 15.6802 5.9125 15.8792 5.9115 15.3032 5.9105 14.7492 5.9225 14.7432"></polygon>
                <polygon id="Fill-139" fill="#FFCF21" points="5.9103 17.1518 5.9223 17.1448 5.2343 16.1618 5.2293 16.1678 4.7013 15.9728 4.1633 15.7748 4.1653 16.3498 4.1683 16.9098 4.1613 16.9128 4.1683 16.9218 4.1683 16.9248 4.1703 16.9238 4.8363 17.8808 4.8323 17.8818 4.8383 17.8818 4.8463 17.8948 4.8543 17.8878 5.3763 18.0798 5.9123 18.2788 5.9103 17.7048"></polygon>
                <polygon id="Fill-140" fill="#FFEE76" points="5.9212 23.9606 6.2072 23.9606 6.2072 18.5786 5.9212 18.5786"></polygon>
                <polygon id="Fill-141" fill="#FFCF21" points="6.0646 1.5136 5.7736 1.9156 5.4426 2.3686 5.4346 2.3676 5.4076 3.5666 5.4196 3.5666 5.7266 4.0256 6.0436 4.5066 6.0646 4.4766"></polygon>
                <polygon id="Fill-142" fill="#FFEE76" points="10.7404 3.206 11.1354 3.804 11.5574 3.224 11.9624 2.668 11.9774 2.668 11.9774 2.649 11.9794 2.645 11.9774 2.645 12.0104 1.193 12.0124 1.193 12.0104 1.19 12.0104 1.178 12.0004 1.178 11.6154 0.595 11.2184 0 10.7994 0.579 10.3864 1.142 10.3764 1.141 10.3444 2.634 10.3584 2.634"></polygon>
                <polygon id="Fill-143" fill="#FFEE76" points="11.3507 4.6074 11.3507 5.2954 11.3497 6.0104 12.0207 5.7634 12.6657 5.5244 12.6767 5.5344 12.6887 5.5174 12.6927 5.5154 12.6897 5.5134 13.5217 4.3244 13.5237 4.3264 13.5237 4.3204 13.5327 4.3124 13.5237 4.3074 13.5277 3.6104 13.5287 2.8924 12.8567 3.1404 12.2017 3.3834 12.1947 3.3764 11.3397 4.5984"></polygon>
                <polygon id="Fill-144" fill="#FFCF21" points="8.799 4.3208 8.799 4.3268 8.801 4.3238 9.632 5.5128 9.628 5.5148 9.634 5.5178 9.644 5.5338 9.654 5.5248 10.303 5.7638 10.972 6.0098 10.969 5.2958 10.969 4.6078 10.984 4.5988 10.127 3.3758 10.121 3.3838 9.465 3.1408 8.794 2.8918 8.796 3.6108 8.799 4.3078 8.791 4.3128"></polygon>
                <polygon id="Fill-145" fill="#FFEE76" points="13.5275 6.5966 13.5285 5.8816 12.8565 6.1296 12.2015 6.3706 12.1945 6.3656 11.3395 7.5846 11.3545 7.5946 11.3505 8.2836 11.3495 8.9976 12.0215 8.7506 12.6665 8.5126 12.6785 8.5216 12.6885 8.5036 12.6925 8.5036 12.6915 8.5036 13.5215 7.3116 13.5235 7.3126 13.5235 7.3076 13.5325 7.2996 13.5235 7.2946"></polygon>
                <polygon id="Fill-146" fill="#FFCF21" points="10.1281 6.3657 10.1211 6.3707 9.4671 6.1297 8.7961 5.8817 8.7961 6.5967 8.7991 7.2947 8.7911 7.2997 8.7991 7.3077 8.7991 7.3127 8.8011 7.3117 9.6321 8.5037 9.6301 8.5037 9.6341 8.5037 9.6441 8.5217 9.6541 8.5127 10.3031 8.7507 10.9721 8.9977 10.9701 8.2827 10.9691 7.5947 10.9831 7.5847"></polygon>
                <polygon id="Fill-147" fill="#FFEE76" points="13.5275 9.5835 13.5285 8.8685 12.8565 9.1155 12.2015 9.3565 12.1945 9.3505 11.3395 10.5755 11.3545 10.5825 11.3505 11.2695 11.3495 11.9865 12.0215 11.7375 12.6665 11.5005 12.6785 11.5065 12.6885 11.4915 12.6925 11.4915 12.6915 11.4915 13.5215 10.2995 13.5235 10.2995 13.5235 10.2955 13.5325 10.2865 13.5235 10.2805"></polygon>
                <polygon id="Fill-148" fill="#FFCF21" points="10.1281 9.3505 10.1211 9.3565 9.4671 9.1155 8.7961 8.8685 8.7961 9.5835 8.7991 10.2805 8.7911 10.2865 8.7991 10.2955 8.7991 10.2995 8.8011 10.2995 9.6321 11.4915 9.6301 11.4915 9.6341 11.4915 9.6441 11.5065 9.6541 11.5005 10.3031 11.7375 10.9721 11.9865 10.9701 11.2685 10.9691 10.5825 10.9831 10.5755"></polygon>
                <polygon id="Fill-149" fill="#FFEE76" points="13.5275 12.5717 13.5285 11.8557 12.8565 12.1047 12.2015 12.3447 12.1945 12.3387 11.3395 13.5617 11.3545 13.5687 11.3505 14.2587 11.3495 14.9737 12.0215 14.7257 12.6665 14.4877 12.6785 14.4957 12.6885 14.4797 12.6925 14.4787 12.6915 14.4777 13.5215 13.2847 13.5235 13.2857 13.5235 13.2807 13.5325 13.2727 13.5235 13.2707"></polygon>
                <polygon id="Fill-150" fill="#FFCF21" points="10.1281 12.3383 10.1211 12.3443 9.4671 12.1043 8.7961 11.8553 8.7961 12.5713 8.7991 13.2713 8.7911 13.2723 8.7991 13.2803 8.7991 13.2853 8.8011 13.2853 9.6321 14.4773 9.6301 14.4783 9.6341 14.4803 9.6441 14.4963 9.6541 14.4873 10.3031 14.7253 10.9721 14.9733 10.9701 14.2583 10.9691 13.5683 10.9831 13.5613"></polygon>
                <polygon id="Fill-151" fill="#FFEE76" points="13.5275 15.56 13.5285 14.846 12.8565 15.092 12.2015 15.334 12.1945 15.327 11.3395 16.55 11.3545 16.557 11.3505 17.245 11.3495 17.963 12.0215 17.714 12.6665 17.477 12.6785 17.485 12.6885 17.469 12.6925 17.468 12.6915 17.467 13.5215 16.274 13.5235 16.275 13.5235 16.272 13.5325 16.262 13.5235 16.257"></polygon>
                <polygon id="Fill-152" fill="#FFCF21" points="10.1281 15.3266 10.1211 15.3336 9.4671 15.0926 8.7961 14.8456 8.7961 15.5596 8.7991 16.2566 8.7911 16.2616 8.7991 16.2716 8.7991 16.2746 8.8011 16.2736 9.6321 17.4676 9.6301 17.4686 9.6341 17.4696 9.6441 17.4846 9.6541 17.4766 10.3031 17.7146 10.9721 17.9636 10.9701 17.2446 10.9691 16.5566 10.9831 16.5506"></polygon>
                <polygon id="Fill-153" fill="#FFEE76" points="13.5275 18.5483 13.5285 17.8333 12.8565 18.0793 12.2015 18.3213 12.1945 18.3153 11.3395 19.5383 11.3505 19.5463 11.3505 20.2343 11.3495 20.9493 12.0205 20.7023 12.6665 20.4633 12.6765 20.4743 12.6885 20.4573 12.6925 20.4573 12.6895 20.4533 13.5215 19.2643 13.5235 19.2663 13.5235 19.2613 13.5325 19.2493 13.5235 19.2453"></polygon>
                <polygon id="Fill-154" fill="#FFCF21" points="10.9689 19.5464 10.9839 19.5384 10.1269 18.3154 10.1209 18.3214 9.4649 18.0794 8.7939 17.8334 8.7959 18.5484 8.7989 19.2454 8.7909 19.2494 8.7989 19.2614 8.7989 19.2664 8.8009 19.2644 9.6319 20.4534 9.6279 20.4574 9.6339 20.4574 9.6439 20.4744 9.6549 20.4634 10.3029 20.7024 10.9719 20.9494 10.9689 20.2334"></polygon>
                <polygon id="Fill-155" fill="#FFCF21" points="8.799 4.3208 8.799 4.3268 8.801 4.3238 9.632 5.5128 9.628 5.5148 9.634 5.5178 9.644 5.5338 9.654 5.5248 10.303 5.7638 10.972 6.0098 10.969 5.2958 10.969 4.6078 10.984 4.5988 10.127 3.3758 10.121 3.3838 9.465 3.1408 8.794 2.8918 8.796 3.6108 8.799 4.3078 8.791 4.3128"></polygon>
                <polygon id="Fill-156" fill="#FFCF21" points="10.1281 6.3657 10.1211 6.3707 9.4671 6.1297 8.7961 5.8817 8.7961 6.5967 8.7991 7.2947 8.7911 7.2997 8.7991 7.3077 8.7991 7.3127 8.8011 7.3117 9.6321 8.5037 9.6301 8.5037 9.6341 8.5037 9.6441 8.5217 9.6541 8.5127 10.3031 8.7507 10.9721 8.9977 10.9701 8.2827 10.9691 7.5947 10.9831 7.5847"></polygon>
                <polygon id="Fill-157" fill="#FFCF21" points="10.1281 9.3505 10.1211 9.3565 9.4671 9.1155 8.7961 8.8685 8.7961 9.5835 8.7991 10.2805 8.7911 10.2865 8.7991 10.2955 8.7991 10.2995 8.8011 10.2995 9.6321 11.4915 9.6301 11.4915 9.6341 11.4915 9.6441 11.5065 9.6541 11.5005 10.3031 11.7375 10.9721 11.9865 10.9701 11.2685 10.9691 10.5825 10.9831 10.5755"></polygon>
                <polygon id="Fill-158" fill="#FFCF21" points="10.1281 12.3383 10.1211 12.3443 9.4671 12.1043 8.7961 11.8553 8.7961 12.5713 8.7991 13.2713 8.7911 13.2723 8.7991 13.2803 8.7991 13.2853 8.8011 13.2853 9.6321 14.4773 9.6301 14.4783 9.6341 14.4803 9.6441 14.4963 9.6541 14.4873 10.3031 14.7253 10.9721 14.9733 10.9701 14.2583 10.9691 13.5683 10.9831 13.5613"></polygon>
                <polygon id="Fill-159" fill="#FFCF21" points="10.1281 15.3266 10.1211 15.3336 9.4671 15.0926 8.7961 14.8456 8.7961 15.5596 8.7991 16.2566 8.7911 16.2616 8.7991 16.2716 8.7991 16.2746 8.8011 16.2736 9.6321 17.4676 9.6301 17.4686 9.6341 17.4696 9.6441 17.4846 9.6541 17.4766 10.3031 17.7146 10.9721 17.9636 10.9701 17.2446 10.9691 16.5566 10.9831 16.5506"></polygon>
                <polygon id="Fill-160" fill="#FFCF21" points="10.9689 19.5464 10.9839 19.5384 10.1269 18.3154 10.1209 18.3214 9.4649 18.0794 8.7939 17.8334 8.7959 18.5484 8.7989 19.2454 8.7909 19.2494 8.7989 19.2614 8.7989 19.2664 8.8009 19.2644 9.6319 20.4534 9.6279 20.4574 9.6339 20.4574 9.6439 20.4744 9.6549 20.4634 10.3029 20.7024 10.9719 20.9494 10.9689 20.2334"></polygon>
                <polygon id="Fill-161" fill="#FFEE76" points="10.9832 28.0246 11.3402 28.0246 11.3402 21.3246 10.9832 21.3246"></polygon>
                <polygon id="Fill-162" fill="#FFCF21" points="11.1613 0.0786 10.7993 0.5786 10.3873 1.1416 10.3763 1.1406 10.3443 2.6336 10.3583 2.6336 10.7403 3.2056 11.1353 3.8046 11.1613 3.7676"></polygon>
            </g>
            <g id="Group-166" transform="translate(177.049300, 43.974700)" fill="#EFEEEF">
                <path d="M28.346,14.174 C28.346,22.002 22.001,28.348 14.173,28.348 C6.345,28.348 0,22.002 0,14.174 C0,6.346 6.345,0 14.173,0 C22.001,0 28.346,6.346 28.346,14.174" id="Fill-164"></path>
            </g>
            <g id="Group-182" transform="translate(173.907200, 38.247900)">
                <path d="M16.1453,9.7153 C16.1453,13.5333 13.0493,16.6303 9.2333,16.6303 C5.4153,16.6303 2.3193,13.5333 2.3193,9.7153 C2.3193,5.8963 5.4153,2.8013 9.2333,2.8013 C13.0493,2.8013 16.1453,5.8963 16.1453,9.7153" id="Fill-167" fill="#65B32E"></path>
                <path d="M25.743,26.2411 C25.743,33.3481 19.98,39.1121 12.872,39.1121 C5.763,39.1121 0,33.3481 0,26.2411 C0,19.1321 5.763,13.3681 12.872,13.3681 C19.98,13.3681 25.743,19.1321 25.743,26.2411" id="Fill-169" fill="#5C9424"></path>
                <path d="M13.9022,27.5614 C13.9022,30.6214 11.4202,33.1034 8.3622,33.1034 C5.3022,33.1034 2.8212,30.6214 2.8212,27.5614 C2.8212,24.5004 5.3022,22.0204 8.3622,22.0204 C11.4202,22.0204 13.9022,24.5004 13.9022,27.5614" id="Fill-170" fill="#65B32E"></path>
                <path d="M39.3817,11.4438 C39.3817,15.8018 35.8477,19.3358 31.4887,19.3358 C27.1307,19.3358 23.5957,15.8018 23.5957,11.4438 C23.5957,7.0848 27.1307,3.5508 31.4887,3.5508 C35.8477,3.5508 39.3817,7.0848 39.3817,11.4438" id="Fill-171" fill="#5C9424"></path>
                <path d="M35.1033,22.7504 C35.1033,26.2884 32.2353,29.1554 28.6983,29.1554 C25.1603,29.1554 22.2923,26.2884 22.2923,22.7504 C22.2923,19.2124 25.1603,16.3444 28.6983,16.3444 C32.2353,16.3444 35.1033,19.2124 35.1033,22.7504" id="Fill-172" fill="#D1E2A8"></path>
                <path d="M17.9344,21.1503 C17.9344,22.0343 17.2194,22.7503 16.3364,22.7503 C15.4534,22.7503 14.7374,22.0343 14.7374,21.1503 C14.7374,20.2673 15.4534,19.5513 16.3364,19.5513 C17.2194,19.5513 17.9344,20.2673 17.9344,21.1503" id="Fill-173" fill="#FFFFFF"></path>
                <path d="M12.9373,7.6152 C12.9373,8.0692 12.5693,8.4372 12.1163,8.4372 C11.6633,8.4372 11.2933,8.0692 11.2933,7.6152 C11.2933,7.1612 11.6633,6.7932 12.1163,6.7932 C12.5693,6.7932 12.9373,7.1612 12.9373,7.6152" id="Fill-174" fill="#FFFFFF"></path>
                <path d="M29.5877,19.0107 C29.5877,19.3507 29.3117,19.6267 28.9727,19.6267 C28.6317,19.6267 28.3567,19.3507 28.3567,19.0107 C28.3567,18.6707 28.6317,18.3947 28.9727,18.3947 C29.3117,18.3947 29.5877,18.6707 29.5877,19.0107" id="Fill-175" fill="#5C9424"></path>
                <path d="M10.0594,25.3837 C10.0594,25.7237 9.7834,25.9997 9.4444,25.9997 C9.1034,25.9997 8.8274,25.7237 8.8274,25.3837 C8.8274,25.0437 9.1034,24.7677 9.4444,24.7677 C9.7834,24.7677 10.0594,25.0437 10.0594,25.3837" id="Fill-176" fill="#5C9424"></path>
                <path d="M23.6277,6.1996 C23.6277,6.5396 23.3517,6.8156 23.0117,6.8156 C22.6707,6.8156 22.3957,6.5396 22.3957,6.1996 C22.3957,5.8586 22.6707,5.5836 23.0117,5.5836 C23.3517,5.5836 23.6277,5.8586 23.6277,6.1996" id="Fill-177" fill="#5C9424"></path>
                <path d="M25.2957,13.4159 C25.2957,14.2989 24.5797,15.0149 23.6967,15.0149 C22.8147,15.0149 22.0977,14.2989 22.0977,13.4159 C22.0977,12.5329 22.8147,11.8169 23.6967,11.8169 C24.5797,11.8169 25.2957,12.5329 25.2957,13.4159" id="Fill-178" fill="#D1E2A8"></path>
                <path d="M20.6658,2.727 C20.6658,4.233 19.4448,5.455 17.9398,5.455 C16.4338,5.455 15.2118,4.233 15.2118,2.727 C15.2118,1.221 16.4338,0 17.9398,0 C19.4448,0 20.6658,1.221 20.6658,2.727" id="Fill-179" fill="#5C9424"></path>
                <path d="M22.6082,9.3153 C22.6082,10.6833 21.5002,11.7913 20.1332,11.7913 C18.7662,11.7913 17.6582,10.6833 17.6582,9.3153 C17.6582,7.9483 18.7662,6.8403 20.1332,6.8403 C21.5002,6.8403 22.6082,7.9483 22.6082,9.3153" id="Fill-180" fill="#D1E2A8"></path>
                <path d="M21.9188,15.8246 C21.9188,17.4756 20.5798,18.8136 18.9308,18.8136 C17.2788,18.8136 15.9398,17.4756 15.9398,15.8246 C15.9398,14.1736 17.2788,12.8346 18.9308,12.8346 C20.5798,12.8346 21.9188,14.1736 21.9188,15.8246" id="Fill-181" fill="#65B32E"></path>
            </g>
            <g id="Group-188" transform="translate(177.048900, 177.784700)">
                <path d="M28.347,14.173 C28.347,22 22.002,28.346 14.174,28.346 C6.347,28.346 0,22 0,14.173 C0,6.345 6.347,0 14.174,0 C22.002,0 28.347,6.345 28.347,14.173" id="Fill-183" fill="#1DB1E0"></path>
                <path d="M2.9015,15.6159 C2.9015,16.5209 3.6425,17.2609 4.5465,17.2609 L7.9365,17.2609 C8.8405,17.2609 9.5825,16.5209 9.5825,15.6159 L9.5825,11.1659 C9.5825,10.2619 8.8405,9.5209 7.9365,9.5209 L4.5465,9.5209 C3.6425,9.5209 2.9015,10.2619 2.9015,11.1659 L2.9015,15.6159 Z" id="Fill-185" fill="#FFFFFF"></path>
                <polygon id="Fill-186" fill="#E1E0E0" points="10.6083 22.0322 10.6083 18.0092 17.7103 19.5902 17.7103 22.0322"></polygon>
                <polygon id="Fill-187" fill="#878482" points="4.9482 22.0322 4.9482 18.0092 6.1702 15.2372 9.5822 15.2372 10.6082 18.0092 10.6082 22.0322"></polygon>
            </g>
            <g id="Group-220" transform="translate(178.695800, 179.530446)">
                <g id="Group-191" transform="translate(3.301000, 18.011254)" fill="#CBC9C8">
                    <polygon id="Fill-189" points="0 2.275 12.762 2.275 12.762 0 0 0"></polygon>
                </g>
                <polygon id="Fill-192" fill="#E1E0E0" points="17.9738 11.0063543 24.9378 11.0063543 24.9378 17.6693543 19.7578 17.6693543"></polygon>
                <polygon id="Fill-194" fill="#878482" points="24.9375 14.3364543 18.9185 14.3364543 17.8875 11.0064543 24.9375 11.0064543"></polygon>
                <polygon id="Fill-195" fill="#35312F" points="8.6831 7.7751543 7.9351 7.7751543 7.9351 13.4911543 8.6831 15.5151543"></polygon>
                <polygon id="Fill-196" fill="#35312F" points="9.7093 8.3995543 8.9613 8.3995543 8.9613 13.6795543 9.7093 15.5145543"></polygon>
                <polygon id="Fill-197" fill="#4F4B49" points="8.6831 13.4912543 13.8161 13.4912543 16.0631 17.8442543 8.9611 16.2632543 8.6111 15.3172543"></polygon>
                <polygon id="Fill-198" fill="#4F4B49" points="4.216 13.4912543 7.935 13.4912543 7.935 13.0192543 4.216 13.0192543"></polygon>
                <path d="M15.2454,16.2630543 L17.9754,14.7380543 L18.2254,15.8470543 C18.2254,15.8470543 16.3664,16.2920543 16.0624,17.8440543 L15.2454,16.2630543 Z" id="Fill-199" fill="#878482"></path>
                <polyline id="Stroke-200" stroke="#4F4B49" stroke-width="2" points="7.935 7.4430543 15.924 7.4430543 18.532 15.8480543"></polyline>
                <polygon id="Fill-201" fill="#CBC9C8" points="17.9748 14.8055543 16.6118 13.8365543 15.8688 12.1735543 17.2798 12.1735543"></polygon>
                <path d="M18.9201,15.7381543 C17.1341,15.7381543 15.6881,17.1831543 15.6881,18.9691543 L15.6881,20.2861543" id="Stroke-202" stroke="#35312F" stroke-width="2.3"></path>
                <path d="M23.4316,17.6693543 C23.4316,19.8803543 21.6386,21.6723543 19.4276,21.6723543 C17.2166,21.6723543 15.4246,19.8803543 15.4246,17.6693543 C15.4246,15.4583543 17.2166,13.6653543 19.4276,13.6653543 C21.6386,13.6653543 23.4316,15.4583543 23.4316,17.6693543" id="Fill-203" fill="#35312F"></path>
                <path d="M21.8536,17.6693543 C21.8536,19.0093543 20.7656,20.0963543 19.4276,20.0963543 C18.0876,20.0963543 17.0006,19.0093543 17.0006,17.6693543 C17.0006,16.3293543 18.0876,15.2423543 19.4276,15.2423543 C20.7656,15.2423543 21.8536,16.3293543 21.8536,17.6693543" id="Fill-204" fill="#1C1A16"></path>
                <path d="M20.2169,17.6693543 C20.2169,18.1063543 19.8629,18.4583543 19.4279,18.4583543 C18.9919,18.4583543 18.6379,18.1063543 18.6379,17.6693543 C18.6379,17.2343543 18.9919,16.8803543 19.4279,16.8803543 C19.8629,16.8803543 20.2169,17.2343543 20.2169,17.6693543" id="Fill-205" fill="#A4A19F"></path>
                <path d="M8.9145,17.5668543 C8.9145,19.8348543 7.0745,21.6718543 4.8085,21.6718543 C2.5405,21.6718543 0.7015,19.8348543 0.7015,17.5668543 C0.7015,15.2968543 2.5405,13.4598543 4.8085,13.4598543 C7.0745,13.4598543 8.9145,15.2968543 8.9145,17.5668543" id="Fill-206" fill="#35312F"></path>
                <path d="M7.2954,17.5668543 C7.2954,18.9408543 6.1804,20.0548543 4.8084,20.0548543 C3.4354,20.0548543 2.3164,18.9408543 2.3164,17.5668543 C2.3164,16.1918543 3.4354,15.0778543 4.8084,15.0778543 C6.1804,15.0778543 7.2954,16.1918543 7.2954,17.5668543" id="Fill-207" fill="#1C1A16"></path>
                <path d="M5.6177,17.5668543 C5.6177,18.0138543 5.2547,18.3748543 4.8077,18.3748543 C4.3617,18.3748543 3.9977,18.0138543 3.9977,17.5668543 C3.9977,17.1208543 4.3617,16.7568543 4.8077,16.7568543 C5.2547,16.7568543 5.6177,17.1208543 5.6177,17.5668543" id="Fill-208" fill="#A4A19F"></path>
                <polygon id="Fill-209" fill="#1C1A16" points="8.9614 8.3995543 15.8264 8.3995543 15.6604 7.7745543 8.6834 7.7745543"></polygon>
                <polygon id="Fill-210" fill="#878482" points="8.6831 13.4912543 8.9611 13.4912543 8.9611 8.3992543 8.6831 7.7752543"></polygon>
                <path d="M11.1654,13.1035543 C11.1654,13.3165543 10.9904,13.4915543 10.7784,13.4915543 L10.7624,13.4915543 C10.5494,13.4915543 10.3744,13.3165543 10.3744,13.1035543 L10.3744,10.2285543 C10.3744,10.0145543 10.5494,9.8415543 10.7624,9.8415543 L10.7784,9.8415543 C10.9904,9.8415543 11.1654,10.0145543 11.1654,10.2285543 L11.1654,13.1035543 Z" id="Fill-211" fill="#CBC9C8"></path>
                <path d="M13.637,12.7133543 C13.849,12.7133543 14.024,12.8873543 14.024,13.1003543 L14.024,13.1163543 C14.024,13.3293543 13.849,13.5033543 13.637,13.5033543 L10.762,13.5033543 C10.549,13.5033543 10.374,13.3293543 10.374,13.1163543 L10.374,13.1003543 C10.374,12.8873543 10.549,12.7133543 10.762,12.7133543 L13.637,12.7133543 Z" id="Fill-212" fill="#878482"></path>
                <polygon id="Fill-213" fill="#878482" points="15.8684 12.1733543 15.0564 11.0063543 16.4304 11.0063543 17.2794 12.1733543"></polygon>
                <polygon id="Fill-214" fill="#CBC9C8" points="15.0686 10.4107543 15.0686 11.0067543 15.8686 11.0067543"></polygon>
                <line x1="14.5715" y1="10.6954543" x2="16.0625" y2="9.8414543" id="Stroke-215" stroke="#4F4B49" stroke-linecap="round" stroke-linejoin="round"></line>
                <polygon id="Fill-216" fill="#FFD024" points="24.938 13.6652543 25.318 13.6652543 25.318 11.0062543 24.938 11.0062543"></polygon>
                <polygon id="Fill-217" fill="#65B331" points="0 33.7802543 29.988 33.7802543 29.988 21.6732543 0 21.6732543"></polygon>
                <path d="M15.1838,2.7234543 C15.1838,4.1914543 13.9948,5.3804543 12.5288,5.3804543 C11.0598,5.3804543 9.8708,4.1914543 9.8708,2.7234543 C9.8708,1.2564543 11.0598,0.0674542969 12.5288,0.0674542969 C13.9948,0.0674542969 15.1838,1.2564543 15.1838,2.7234543" id="Fill-218" fill="#FFFFFF"></path>
                <text id="N" font-family="LucidaGrande, Lucida Grande" font-size="4.5858" font-weight="normal" fill="#B99C9A">
                    <tspan x="10.7895" y="4">N</tspan>
                </text>
                <path d="M6.2895,7.7751543 L2.8985,7.7751543 C1.9955,7.7751543 1.2545,8.5161543 1.2545,9.4201543 L1.2545,10.2681543 L7.9355,10.2681543 L7.9355,9.4201543 C7.9355,8.5161543 7.1935,7.7751543 6.2895,7.7751543" id="Fill-219" fill="#E1E0E0"></path>
            </g>
            <g id="Group-229" transform="translate(177.048400, 128.542500)">
                <path d="M28.347,14.172 C28.347,22.001 22.001,28.344 14.174,28.344 C6.346,28.344 0,22.001 0,14.172 C0,6.345 6.346,0 14.174,0 C22.001,0 28.347,6.345 28.347,14.172" id="Fill-221" fill="#A5DAEC"></path>
                <path d="M17.724,14.4015 C17.579,14.0375 17.399,13.6825 17.164,13.3715 L13.699,6.9965 L10.235,13.3715 C10.008,13.6825 9.81,14.0375 9.672,14.4015 C9.492,14.8795 9.395,15.3955 9.395,15.9185 C9.395,18.2995 11.319,20.2325 13.699,20.2325 C16.079,20.2325 18.005,18.2995 18.005,15.9185 C18.005,15.3955 17.899,14.8795 17.724,14.4015" id="Fill-223" fill="#0084BE"></path>
                <path d="M13.6996,6.9977 L13.6986,6.9967 L10.2346,13.3717 C10.0086,13.6827 9.8096,14.0377 9.6726,14.4017 C9.4916,14.8797 9.3946,15.3957 9.3946,15.9177 C9.3946,18.2997 11.3186,20.2327 13.6986,20.2327 L13.6996,20.2327 L13.6996,6.9977 Z" id="Fill-224" fill="#00AADB"></path>
                <path d="M9.8998,9.1505 C9.8378,8.9935 9.7588,8.8425 9.6588,8.7075 L8.1678,5.9665 L6.6768,8.7075 C6.5798,8.8425 6.4958,8.9935 6.4358,9.1505 C6.3568,9.3565 6.3168,9.5795 6.3168,9.8045 C6.3168,10.8275 7.1428,11.6585 8.1678,11.6585 C9.1908,11.6585 10.0198,10.8275 10.0198,9.8045 C10.0198,9.5795 9.9738,9.3565 9.8998,9.1505" id="Fill-225" fill="#0084BE"></path>
                <path d="M8.1673,5.9665 L8.1673,5.9665 L6.6773,8.7075 C6.5793,8.8425 6.4953,8.9935 6.4363,9.1505 C6.3563,9.3565 6.3163,9.5795 6.3163,9.8045 C6.3163,10.8275 7.1433,11.6585 8.1673,11.6585 L8.1673,5.9665 Z" id="Fill-226" fill="#00AADB"></path>
                <path d="M21.9115,19.8717 C21.8495,19.7137 21.7705,19.5617 21.6715,19.4257 L20.1815,16.6847 L18.6895,19.4257 C18.5935,19.5617 18.5075,19.7137 18.4475,19.8717 C18.3705,20.0767 18.3285,20.2987 18.3285,20.5227 C18.3285,21.5477 19.1555,22.3797 20.1815,22.3797 C21.2035,22.3797 22.0325,21.5477 22.0325,20.5227 C22.0325,20.2987 21.9855,20.0767 21.9115,19.8717" id="Fill-227" fill="#0084BE"></path>
                <path d="M20.181,16.6852 L20.181,16.6852 L18.69,19.4262 C18.593,19.5612 18.507,19.7142 18.448,19.8722 C18.37,20.0772 18.328,20.2992 18.328,20.5222 C18.328,21.5472 19.156,22.3792 20.181,22.3792 L20.181,16.6852 Z" id="Fill-228" fill="#00AADB"></path>
            </g>
            <g id="Group-235" transform="translate(177.049200, 237.959700)">
                <path d="M28.347,14.174 C28.347,22.001 22.001,28.346 14.174,28.346 C6.346,28.346 0,22.001 0,14.174 C0,6.346 6.346,0 14.174,0 C22.001,0 28.347,6.346 28.347,14.174" id="Fill-230" fill="#1DB1E0"></path>
                <path d="M2.9002,15.6159 C2.9002,16.5209 3.6412,17.2609 4.5462,17.2609 L7.9352,17.2609 C8.8392,17.2609 9.5802,16.5209 9.5802,15.6159 L9.5802,11.1659 C9.5802,10.2619 8.8392,9.5209 7.9352,9.5209 L4.5462,9.5209 C3.6412,9.5209 2.9002,10.2619 2.9002,11.1659 L2.9002,15.6159 Z" id="Fill-232" fill="#FFFFFF"></path>
                <polygon id="Fill-233" fill="#E1E0E0" points="10.6064 22.033 10.6064 18.01 17.7084 19.591 17.7084 22.033"></polygon>
                <polygon id="Fill-234" fill="#878482" points="4.9481 22.033 4.9481 18.01 6.1691 15.237 9.5801 15.237 10.6061 18.01 10.6061 22.033"></polygon>
            </g>
            <g id="Group-266" transform="translate(178.695800, 239.705328)">
                <polygon id="Fill-236" fill="#CBC9C8" points="3.302 18.0133721 16.062 18.0133721 16.062 20.2873721 3.302 20.2873721"></polygon>
                <polygon id="Fill-238" fill="#E1E0E0" points="17.9746 11.0063721 24.9366 11.0063721 24.9366 17.6703721 19.7576 17.6703721"></polygon>
                <polygon id="Fill-240" fill="#878482" points="24.9366 14.3375721 18.9186 14.3375721 17.8876 11.0065721 24.9366 11.0065721"></polygon>
                <polygon id="Fill-241" fill="#35312F" points="8.6824 7.77497207 7.9334 7.77497207 7.9334 13.4909721 8.6824 15.5149721"></polygon>
                <polygon id="Fill-242" fill="#35312F" points="9.7089 8.39947207 8.9599 8.39947207 8.9599 13.6794721 9.7089 15.5144721"></polygon>
                <polygon id="Fill-243" fill="#4F4B49" points="8.6824 13.4913721 13.8144 13.4913721 16.0614 17.8453721 8.9594 16.2643721 8.6104 15.3173721"></polygon>
                <polygon id="Fill-244" fill="#4F4B49" points="4.217 13.4903721 7.934 13.4903721 7.934 13.0173721 4.217 13.0173721"></polygon>
                <path d="M15.2461,16.2642721 L17.9761,14.7382721 L18.2251,15.8482721 C18.2251,15.8482721 16.3661,16.2922721 16.0611,17.8452721 L15.2461,16.2642721 Z" id="Fill-245" fill="#878482"></path>
                <polyline id="Stroke-246" stroke="#4F4B49" stroke-width="2" points="7.9334 7.44387207 15.9234 7.44387207 18.5314 15.8478721"></polyline>
                <polygon id="Fill-247" fill="#CBC9C8" points="17.9756 14.8062721 16.6116 13.8372721 15.8686 12.1732721 17.2796 12.1732721"></polygon>
                <path d="M18.9199,15.7384721 C17.1349,15.7384721 15.6889,17.1844721 15.6889,18.9694721 L15.6889,20.2874721" id="Stroke-248" stroke="#35312F" stroke-width="2.3"></path>
                <path d="M23.4308,17.6706721 C23.4308,19.8796721 21.6378,21.6736721 19.4278,21.6736721 C17.2168,21.6736721 15.4238,19.8796721 15.4238,17.6706721 C15.4238,15.4596721 17.2168,13.6666721 19.4278,13.6666721 C21.6378,13.6666721 23.4308,15.4596721 23.4308,17.6706721" id="Fill-249" fill="#35312F"></path>
                <path d="M21.8536,17.6706721 C21.8536,19.0106721 20.7656,20.0976721 19.4276,20.0976721 C18.0876,20.0976721 16.9996,19.0106721 16.9996,17.6706721 C16.9996,16.3306721 18.0876,15.2436721 19.4276,15.2436721 C20.7656,15.2436721 21.8536,16.3306721 21.8536,17.6706721" id="Fill-250" fill="#1C1A16"></path>
                <path d="M20.2168,17.6706721 C20.2168,18.1076721 19.8628,18.4586721 19.4278,18.4586721 C18.9918,18.4586721 18.6378,18.1076721 18.6378,17.6706721 C18.6378,17.2356721 18.9918,16.8806721 19.4278,16.8806721 C19.8628,16.8806721 20.2168,17.2356721 20.2168,17.6706721" id="Fill-251" fill="#A4A19F"></path>
                <path d="M8.9139,17.5671721 C8.9139,19.8341721 7.0739,21.6741721 4.8089,21.6741721 C2.5399,21.6741721 0.7009,19.8341721 0.7009,17.5671721 C0.7009,15.2981721 2.5399,13.4611721 4.8089,13.4611721 C7.0739,13.4611721 8.9139,15.2981721 8.9139,17.5671721" id="Fill-252" fill="#35312F"></path>
                <path d="M7.2957,17.5671721 C7.2957,18.9421721 6.1807,20.0551721 4.8087,20.0551721 C3.4347,20.0551721 2.3167,18.9421721 2.3167,17.5671721 C2.3167,16.1921721 3.4347,15.0781721 4.8087,15.0781721 C6.1807,15.0781721 7.2957,16.1921721 7.2957,17.5671721" id="Fill-253" fill="#1C1A16"></path>
                <path d="M5.617,17.5671721 C5.617,18.0151721 5.254,18.3751721 4.808,18.3751721 C4.361,18.3751721 3.997,18.0151721 3.997,17.5671721 C3.997,17.1211721 4.361,16.7581721 4.808,16.7581721 C5.254,16.7581721 5.617,17.1211721 5.617,17.5671721" id="Fill-254" fill="#A4A19F"></path>
                <polygon id="Fill-255" fill="#1C1A16" points="8.9598 8.39947207 15.8248 8.39947207 15.6598 7.77447207 8.6828 7.77447207"></polygon>
                <polygon id="Fill-256" fill="#878482" points="8.6824 13.4913721 8.9594 13.4913721 8.9594 8.39937207 8.6824 7.77537207"></polygon>
                <path d="M11.1659,13.1041721 C11.1659,13.3161721 10.9899,13.4911721 10.7779,13.4911721 L10.7619,13.4911721 C10.5489,13.4911721 10.3749,13.3161721 10.3749,13.1041721 L10.3749,10.2301721 C10.3749,10.0161721 10.5489,9.84217207 10.7619,9.84217207 L10.7779,9.84217207 C10.9899,9.84217207 11.1659,10.0161721 11.1659,10.2301721 L11.1659,13.1041721 Z" id="Fill-257" fill="#CBC9C8"></path>
                <path d="M13.6356,12.7135721 C13.8486,12.7135721 14.0236,12.8875721 14.0236,13.1015721 L14.0236,13.1175721 C14.0236,13.3305721 13.8486,13.5035721 13.6356,13.5035721 L10.7616,13.5035721 C10.5486,13.5035721 10.3746,13.3305721 10.3746,13.1175721 L10.3746,13.1015721 C10.3746,12.8875721 10.5486,12.7135721 10.7616,12.7135721 L13.6356,12.7135721 Z" id="Fill-258" fill="#878482"></path>
                <polygon id="Fill-259" fill="#878482" points="15.8682 12.1734721 15.0562 11.0064721 16.4302 11.0064721 17.2792 12.1734721"></polygon>
                <polygon id="Fill-260" fill="#CBC9C8" points="15.0693 10.4106721 15.0693 11.0066721 15.8683 11.0066721"></polygon>
                <line x1="14.5713" y1="10.6958721" x2="16.0613" y2="9.84187207" id="Stroke-261" stroke="#4F4B49" stroke-linecap="round" stroke-linejoin="round"></line>
                <polygon id="Fill-262" fill="#FFD024" points="24.937 13.6663721 25.318 13.6663721 25.318 11.0063721 24.937 11.0063721"></polygon>
                <polygon id="Fill-263" fill="#65B331" points="0 33.7813721 29.988 33.7813721 29.988 21.6753721 0 21.6753721"></polygon>
                <path d="M15.1836,2.72457207 C15.1836,4.19157207 13.9936,5.38157207 12.5276,5.38157207 C11.0596,5.38157207 9.8706,4.19157207 9.8706,2.72457207 C9.8706,1.25757207 11.0596,0.0685720703 12.5276,0.0685720703 C13.9936,0.0685720703 15.1836,1.25757207 15.1836,2.72457207" id="Fill-264" fill="#FFFFFF"></path>
                <text id="P" font-family="LucidaGrande, Lucida Grande" font-size="4.5859" font-weight="normal" fill="#B99C9A">
                    <tspan x="11.0929" y="4">P</tspan>
                </text>
                <path d="M6.2888,7.77497207 L2.8988,7.77497207 C1.9948,7.77497207 1.2538,8.51597207 1.2538,9.41997207 L1.2538,10.2679721 L7.9338,10.2679721 L7.9338,9.41997207 C7.9338,8.51597207 7.1928,7.77497207 6.2888,7.77497207" id="Fill-265" fill="#E1E0E0"></path>
            </g>
            <g id="Group" transform="translate(175.204600, 291.615300)">
                <g id="Group-270" transform="translate(1.507200, 0.000000)">
                    <path d="M28.684,14.173 C28.684,22.001 22.338,28.346 14.51,28.346 C6.683,28.346 0.337,22.001 0.337,14.173 C0.337,6.345 6.683,0 14.51,0 C22.338,0 28.684,6.345 28.684,14.173" id="Fill-267" fill="#65B331"></path>
                    <path d="M29.019,21.82 C29.019,26.889 24.911,30.999 19.84,30.999 L9.179,30.999 C4.11,30.999 0,26.889 0,21.82 L0,19.334 C0,14.264 4.11,7.859 9.179,7.859 L19.84,7.859 C24.911,7.859 29.019,14.264 29.019,19.334 L29.019,21.82 Z" id="Fill-269" fill="#94460C"></path>
                </g>
                <path d="M30.5262,21.82 C30.5262,26.889 26.4182,30.999 21.3472,30.999 L10.6862,30.999 C5.6172,30.999 1.5072,26.889 1.5072,21.82 L1.5072,19.334 C1.5072,14.264 5.6172,7.859 10.6862,7.859 L21.3472,7.859 C26.4182,7.859 30.5262,14.264 30.5262,19.334 L30.5262,21.82 Z" id="Fill-271" fill-opacity="0.6" fill="#6D3828"></path>
                <path d="M32.035,30.6715 C32.035,36.2675 27.499,40.8045 21.902,40.8045 L10.133,40.8045 C4.536,40.8045 0,36.2675 0,30.6715 L0,27.9265 C0,22.3295 4.536,15.2585 10.133,15.2585 L21.902,15.2585 C27.499,15.2585 32.035,22.3295 32.035,27.9265 L32.035,30.6715 Z" id="Fill-274" fill="#BA4700"></path>
                <path d="M9.117,18.3044 L15.388,18.3044 C15.736,18.3044 16.017,18.0234 16.017,17.6764 L16.017,3.7204 L15.096,3.7204 C10.925,3.7204 7.543,7.1024 7.543,11.2744 L7.543,16.7304 C7.543,17.5994 8.248,18.3044 9.117,18.3044" id="Fill-280" fill="#94460C"></path>
                <path d="M9.118,18.3044 L15.389,18.3044 C15.737,18.3044 16.018,18.0234 16.018,17.6764 L16.018,3.7204 L15.097,3.7204 C10.926,3.7204 7.544,7.1024 7.544,11.2744 L7.544,16.7304 C7.544,17.5994 8.249,18.3044 9.118,18.3044" id="Fill-283" fill-opacity="0.2" fill="#6D3828"></path>
                <path d="M22.9188,18.3044 L16.6478,18.3044 C16.3008,18.3044 16.0198,18.0234 16.0198,17.6764 L16.0198,3.7204 L16.9398,3.7204 C21.1108,3.7204 24.4928,7.1024 24.4928,11.2744 L24.4928,16.7304 C24.4928,17.5994 23.7888,18.3044 22.9188,18.3044" id="Fill-286" fill="#94460C"></path>
                <g id="Group-298" transform="translate(12.363007, 9.537700)">
                    <g id="Group-291" transform="translate(0.261193, 0.000000)">
                        <mask id="mask-2" fill="white">
                            <use xlink:href="#path-1"></use>
                        </mask>
                        <g id="Clip-290"></g>
                        <path d="M5.4596,0 C5.0926,0 4.7606,0.149 4.5206,0.39 C3.7236,1.186 3.0636,1.186 2.2666,0.39 C2.0256,0.149 1.6946,0 1.3266,0 C0.5946,0 -0.0004,0.594 -0.0004,1.327 C-0.0004,2.061 0.5946,2.18 1.3266,2.18 C1.6946,2.18 2.0256,2.031 2.2666,1.79 C3.0636,0.993 3.7236,0.993 4.5206,1.79 C4.7606,2.031 5.0926,2.18 5.4596,2.18 C6.1916,2.18 6.7866,2.061 6.7866,1.327 C6.7866,0.594 6.1916,0 5.4596,0" id="Fill-289" fill-opacity="0.4" fill="#6D3828" mask="url(#mask-2)"></path>
                    </g>
                    <path d="M2.07139287,1.1377 C2.07139287,1.4047 1.85539287,1.6207 1.58839287,1.6207 C1.32139287,1.6207 1.10439287,1.4047 1.10439287,1.1377 C1.10439287,0.8707 1.32139287,0.6547 1.58839287,0.6547 C1.85539287,0.6547 2.07139287,0.8707 2.07139287,1.1377" id="Fill-292" fill="#13120D"></path>
                    <path d="M1.95619287,1.0035 C1.95619287,1.1155 1.86619287,1.2075 1.75319287,1.2075 C1.64119287,1.2075 1.55019287,1.1155 1.55019287,1.0035 C1.55019287,0.8915 1.64119287,0.8005 1.75319287,0.8005 C1.86619287,0.8005 1.95619287,0.8915 1.95619287,1.0035" id="Fill-294" fill="#FEFEFE"></path>
                    <path d="M6.20419287,1.1377 C6.20419287,1.4047 5.98619287,1.6207 5.72119287,1.6207 C5.45419287,1.6207 5.23719287,1.4047 5.23719287,1.1377 C5.23719287,0.8707 5.45419287,0.6547 5.72119287,0.6547 C5.98619287,0.6547 6.20419287,0.8707 6.20419287,1.1377" id="Fill-295" fill="#13120D"></path>
                    <path d="M6.08899287,1.0035 C6.08899287,1.1155 5.99799287,1.2075 5.88499287,1.2075 C5.77399287,1.2075 5.68299287,1.1155 5.68299287,1.0035 C5.68299287,0.8915 5.77399287,0.8005 5.88499287,0.8005 C5.99799287,0.8005 6.08899287,0.8915 6.08899287,1.0035" id="Fill-296" fill="#FEFEFE"></path>
                    <path d="M5.56749287,3.7437 C5.56749287,3.7437 4.80449287,2.4847 3.65549287,3.5667 C2.50449287,2.4847 1.74149287,3.7437 1.74149287,3.7437 C-0.15950713,6.7317 0.00349286958,8.7537 0.00349286958,8.7537 L3.65449287,8.7537 L3.65549287,8.7537 L7.30649287,8.7537 C7.30649287,8.7537 7.46849287,6.7317 5.56749287,3.7437" id="Fill-297" fill="#BA4700"></path>
                </g>
                <g id="Group-301" transform="translate(14.778115, 13.555825)" fill="#6D3828">
                    <path d="M1.08208485,0.755875 C1.08208485,0.755875 0.547084847,-0.312125 0.0890848473,0.399875 C-0.367915153,1.111875 1.08208485,0.755875 1.08208485,0.755875" id="Fill-299"></path>
                </g>
                <g id="Group-307" transform="translate(12.365700, 13.555825)">
                    <g id="Group-304" transform="translate(3.887100, 0.000000)" fill="#6D3828">
                        <path d="M0,0.755875 C0,0.755875 0.535,-0.312125 0.992,0.399875 C1.45,1.111875 0,0.755875 0,0.755875" id="Fill-302"></path>
                    </g>
                    <path d="M7.307,4.735875 C7.307,6.753875 5.672,8.389875 3.654,8.389875 C1.637,8.389875 0,6.753875 0,4.735875 L7.307,4.735875 Z" id="Fill-305" fill="#94460C"></path>
                </g>
                <g id="Group-310" transform="translate(12.365700, 18.291700)" fill="#6D3828" fill-opacity="0.2">
                    <path d="M7.307,0 C7.307,2.018 5.672,3.654 3.654,3.654 C1.637,3.654 0,2.018 0,0 L7.307,0 Z" id="Fill-308"></path>
                </g>
                <g id="Group-313" transform="translate(12.366000, 18.061200)" fill="#6D3828" fill-opacity="0.2">
                    <path d="M7.253,0.7695 C7.279,0.5925 7.307,0.4155 7.307,0.2305 L0,0.2305 C0,0.4155 0.028,0.5925 0.055,0.7695 L7.253,0.7695 Z" id="Fill-311"></path>
                </g>
            </g>
            <g id="Group-276" transform="translate(175.204600, 299.474300)">
                <g id="Group-273" transform="translate(1.507200, 0.000000)"></g>
            </g>
            <g id="Group-282" transform="translate(182.747600, 295.335700)"></g>
            <g id="Group-285" transform="translate(182.748600, 295.335700)"></g>
            <rect id="Rectangle" stroke="#979797" x="0.5" y="0.823890625" width="494" height="332"></rect>
            <path d="M209,237.323891 L209,281.323891 L175,281.323891 L175,237.323891 L209,237.323891 Z M191,238.323891 C183.268014,238.323891 177,244.591904 177,252.323891 C177,260.055877 183.268014,266.323891 191,266.323891 C198.731986,266.323891 205,260.055877 205,252.323891 C205,244.591904 198.731986,238.323891 191,238.323891 Z" id="Combined-Shape" fill="#2F2322"></path>
            <path d="M209,177.323891 L209,216.323891 L175,216.323891 L175,177.323891 L209,177.323891 Z M191,178.323891 C183.268014,178.323891 177,184.591904 177,192.323891 C177,200.055877 183.268014,206.323891 191,206.323891 C198.731986,206.323891 205,200.055877 205,192.323891 C205,184.591904 198.731986,178.323891 191,178.323891 Z" id="Combined-Shape-Copy-2" fill="#2F2322"></path>
            <path d="M214,37.3238906 L214,77.3238906 L172,77.3238906 L172,37.3238906 L214,37.3238906 Z M192,41.3238906 C184.268014,41.3238906 178,47.5919041 178,55.3238906 C178,63.0558771 184.268014,69.3238906 192,69.3238906 C199.731986,69.3238906 206,63.0558771 206,55.3238906 C206,47.5919041 199.731986,41.3238906 192,41.3238906 Z" id="Combined-Shape-Copy-3" fill="#2F2322"></path>
            <path d="M209,290.323891 L209,332.323891 L175,332.323891 L175,290.323891 L209,290.323891 Z M191,291.323891 C183.268014,291.323891 177,297.591904 177,305.323891 C177,313.055877 183.268014,319.323891 191,319.323891 C198.731986,319.323891 205,313.055877 205,305.323891 C205,297.591904 198.731986,291.323891 191,291.323891 Z" id="Combined-Shape-Copy" fill="#2F2322"></path>
        </g>
    </g>
</svg>