<svg style='scaling-svg' viewBox="0 0 274 123" version="1.1" xmlns="http://www.w3.org/2000/svg" xmlns:xlink="http://www.w3.org/1999/xlink">
    <g id="Page-1" stroke="none" stroke-width="1" fill="none" fill-rule="evenodd">
        <g id="Board" transform="translate(-3646.000000, -2138.000000)">
            <g id="fossil-fuel" transform="translate(3460.416946, 1684.003000)">
                <g id="fossil-2" transform="translate(186.519704, 454.983611)">
                    <rect id="Rectangle" x="0" y="0" width="273" height="122"></rect>
                    <g id="Group-144" transform="translate(39.846234, 11.000115)">
                        <g id="Group-14" transform="translate(96.275916, 8.316474)">
                            <polygon id="Fill-8" fill="#777777" points="0 78.16 0.0639 78.1594 0.1277 78.1588 0.1916 78.1581 0.2554 78.1574 0.3193 78.1566 0.3831 78.1557 0.447 78.1547 0.5108 78.1536 0.5747 78.1523 0.6385 78.151 0.7024 78.1495 0.7662 78.1479 0.8301 78.146 0.8939 78.144 0.9578 78.1418 1.0216 78.1393 1.0855 78.1366 1.1493 78.1336 1.2132 78.1303 1.277 78.1266 1.3409 78.1226 1.4047 78.1181 1.4686 78.1131 1.5324 78.1076 1.5963 78.1016 1.6601 78.0949 1.724 78.0875 1.7878 78.0794 1.8517 78.0703 1.9155 78.0604 1.9794 78.0494 2.0432 78.0372 2.1071 78.0237 2.1709 78.0089 2.2348 77.9925 2.2987 77.9743 2.3625 77.9543 2.4264 77.9321 2.4902 77.9076 2.5541 77.8806 2.6179 77.8507 2.6818 77.8177 2.7456 77.7813 2.8095 77.741 2.8733 77.6965 2.9372 77.6474 3.001 77.5932 3.0649 77.5332 3.1287 77.4671 3.1926 77.394 3.2564 77.3133 3.3203 77.2243 3.3841 77.126 3.448 77.0175 3.5118 76.8978 3.5757 76.7657 3.6395 76.62 3.7034 76.4592 3.7672 76.282 3.8311 76.0866 3.8949 75.8712 3.9588 75.6339 4.0226 75.3725 4.0865 75.0846 4.1503 74.7677 4.2142 74.4191 4.278 74.0357 4.3419 73.6142 4.4057 73.1511 4.4696 72.6428 4.5334 72.085 4.5973 71.4735 4.6611 70.8036 4.725 70.0705 4.7888 69.269 4.8527 68.3938 4.9165 67.4391 4.9804 66.3992 5.0442 65.2682 5.1081 64.0402 5.1719 62.7093 5.2358 61.2696 5.2996 59.7158 5.3635 58.0429 5.4273 56.2465 5.4912 54.3233 5.555 52.2708 5.6189 50.0882 5.6827 47.7762 5.7466 45.3378 5.8104 42.7782 5.8743 40.1052 5.9381 37.3299 6.002 34.4666 6.0658 31.533 6.1297 28.5507 6.1935 25.5449 6.2574 22.5446 6.3212 19.582 6.3851 16.6924 6.4489 13.9133 6.5128 11.2841 6.5766 8.8443 6.6405 6.6334 6.7043 4.6888 6.7682 3.0451 6.832 1.7327 6.8959 0.7765 6.9597 0.1951 7.0236 -1.13686838e-13 7.0874 0.1951 7.1513 0.7765 7.2151 1.7327 7.279 3.0451 7.3429 4.6888 7.4067 6.6334 7.4706 8.8443 7.5344 11.2841 7.5983 13.9133 7.6621 16.6924 7.726 19.582 7.7898 22.5446 7.8537 25.5449 7.9175 28.5507 7.9814 31.533 8.0452 34.4666 8.1091 37.3299 8.1729 40.1052 8.2368 42.7782 8.3006 45.3378 8.3645 47.7762 8.4283 50.0882 8.4922 52.2708 8.556 54.3233 8.6199 56.2465 8.6837 58.0429 8.7476 59.7158 8.8114 61.2696 8.8753 62.7093 8.9391 64.0402 9.003 65.2682 9.0668 66.3992 9.1307 67.4391 9.1945 68.3938 9.2584 69.269 9.3222 70.0705 9.3861 70.8036 9.4499 71.4735 9.5138 72.085 9.5776 72.6428 9.6415 73.1511 9.7053 73.6142 9.7692 74.0357 9.833 74.4191 9.8969 74.7677 9.9607 75.0846 10.0246 75.3725 10.0884 75.6339 10.1523 75.8712 10.2161 76.0866 10.28 76.282 10.3438 76.4592 10.4077 76.62 10.4715 76.7657 10.5354 76.8978 10.5992 77.0175 10.6631 77.126 10.7269 77.2243 10.7908 77.3133 10.8546 77.394 10.9185 77.4671 10.9823 77.5332 11.0462 77.5932 11.11 77.6474 11.1739 77.6965 11.2377 77.741 11.3016 77.7813 11.3654 77.8177 11.4293 77.8507 11.4931 77.8806 11.557 77.9076 11.6208 77.9321 11.6847 77.9543 11.7485 77.9743 11.8124 77.9925 11.8762 78.0089 11.9401 78.0237 12.0039 78.0372 12.0678 78.0494 12.1316 78.0604 12.1955 78.0703 12.2593 78.0794 12.3232 78.0875 12.3871 78.0949 12.4509 78.1016 12.5148 78.1076 12.5786 78.1131 12.6425 78.1181 12.7063 78.1226"></polygon>
                            <polyline id="Stroke-10" stroke="#3D1818" stroke-linecap="square" stroke-linejoin="round" points="5.3744e-05 78.1599644 1.66015727 78.0949131 2.29865072 77.9743077 2.74561155 77.7812753 3.06488395 77.5332331 3.384105 77.1260015 3.6395332 76.6199784 3.89491003 75.871224 4.15033823 74.7677464 4.40571507 73.1511371 4.66114327 70.803622 4.9165201 67.4390887 5.1719483 62.70926 5.49116935 54.3232538 5.81044176 42.7781869 6.83205183 1.73272951 6.95974024 0.19512674 7.02358445 5.0066e-05 7.08742866 0.19512674 7.21516844 1.73272951 7.40670107 6.63337606 7.72597348 19.5819884 8.42831114 50.0881639 8.81142776 61.2696014 9.1306488 67.4390887 9.44992121 71.4734777 9.76919362 74.0356593 10.0884147 75.6339064 10.4076871 76.6199784 10.7269595 77.2242949 11.0461805 77.5931531 11.4292971 77.8507283 11.876258 78.008875 12.5147514 78.107646 12.706284 78.1225567 12.706284 78.1225567"></polyline>
                            <g id="Group-13" transform="translate(4.070315, 8.715889)">
                                <polygon id="Fill-11" fill="#BFBF00" points="2.44246474 0 1.86591506 1.77454029 2.84217094e-14 1.77454029 1.50955857 2.87129443 0.932957532 4.64583471 2.44246474 3.54913194 3.95202331 4.64583471 3.37542227 2.87129443 4.88492948 1.77454029 3.01906578 1.77454029"></polygon>
                                <polygon id="Stroke-12" stroke="#3D1818" stroke-width="0.5" stroke-linejoin="bevel" points="2.44246474 0 1.86591506 1.77454029 2.84217094e-14 1.77454029 1.50955857 2.87129443 0.932957532 4.64583471 2.44246474 3.54913194 3.95202331 4.64583471 3.37542227 2.87129443 4.88492948 1.77454029 3.01906578 1.77454029"></polygon>
                            </g>
                        </g>
                        <g id="Group-143">
                            <line x1="0.5" y1="0.5" x2="204.822014" y2="0.5" id="Stroke-15" stroke="#3D1818" stroke-linecap="square"></line>
                            <line x1="204.822014" y1="86.481662" x2="204.822014" y2="0.5" id="Stroke-17" stroke="#3D1818" stroke-linecap="square"></line>
                            <line x1="0.5" y1="86.481662" x2="204.822014" y2="86.481662" id="Stroke-19" stroke="#3D1818" stroke-linecap="square"></line>
                            <line x1="0.5" y1="86.481662" x2="0.5" y2="0.5" id="Stroke-21" stroke="#3D1818" stroke-linecap="square"></line>
                            <g id="Group-26" transform="translate(0.000000, 84.427142)">
                                <line x1="0.5" y1="2.05452" x2="0.5" y2="1.13686838e-13" id="Fill-23" fill="#3D1818"></line>
                                <line x1="0.5" y1="2.05452" x2="0.5" y2="1.13686838e-13" id="Stroke-25" stroke="#3D1818" stroke-width="0.5" stroke-linejoin="round"></line>
                            </g>
                            <g id="Group-30" transform="translate(0.000000, 0.500000)">
                                <line x1="0.5" y1="1.13686838e-13" x2="0.5" y2="2.05452" id="Fill-27" fill="#3D1818"></line>
                                <line x1="0.5" y1="1.13686838e-13" x2="0.5" y2="2.05452" id="Stroke-29" stroke="#3D1818" stroke-width="0.5" stroke-linejoin="round"></line>
                            </g>
                            <g id="Group-34" transform="translate(25.540252, 84.427142)">
                                <line x1="0.5" y1="2.05452" x2="0.5" y2="1.13686838e-13" id="Fill-31" fill="#3D1818"></line>
                                <line x1="0.5" y1="2.05452" x2="0.5" y2="1.13686838e-13" id="Stroke-33" stroke="#3D1818" stroke-width="0.5" stroke-linejoin="round"></line>
                            </g>
                            <g id="Group-38" transform="translate(25.540252, 0.500000)">
                                <line x1="0.5" y1="1.13686838e-13" x2="0.5" y2="2.05452" id="Fill-35" fill="#3D1818"></line>
                                <line x1="0.5" y1="1.13686838e-13" x2="0.5" y2="2.05452" id="Stroke-37" stroke="#3D1818" stroke-width="0.5" stroke-linejoin="round"></line>
                            </g>
                            <g id="Group-42" transform="translate(51.080504, 84.427142)">
                                <line x1="0.5" y1="2.05452" x2="0.5" y2="1.13686838e-13" id="Fill-39" fill="#3D1818"></line>
                                <line x1="0.5" y1="2.05452" x2="0.5" y2="1.13686838e-13" id="Stroke-41" stroke="#3D1818" stroke-width="0.5" stroke-linejoin="round"></line>
                            </g>
                            <g id="Group-46" transform="translate(51.080504, 0.500000)">
                                <line x1="0.5" y1="1.13686838e-13" x2="0.5" y2="2.05452" id="Fill-43" fill="#3D1818"></line>
                                <line x1="0.5" y1="1.13686838e-13" x2="0.5" y2="2.05452" id="Stroke-45" stroke="#3D1818" stroke-width="0.5" stroke-linejoin="round"></line>
                            </g>
                            <g id="Group-50" transform="translate(76.620755, 84.427142)">
                                <line x1="0.5" y1="2.05452" x2="0.5" y2="1.13686838e-13" id="Fill-47" fill="#3D1818"></line>
                                <line x1="0.5" y1="2.05452" x2="0.5" y2="1.13686838e-13" id="Stroke-49" stroke="#3D1818" stroke-width="0.5" stroke-linejoin="round"></line>
                            </g>
                            <g id="Group-54" transform="translate(76.620755, 0.500000)">
                                <line x1="0.5" y1="1.13686838e-13" x2="0.5" y2="2.05452" id="Fill-51" fill="#3D1818"></line>
                                <line x1="0.5" y1="1.13686838e-13" x2="0.5" y2="2.05452" id="Stroke-53" stroke="#3D1818" stroke-width="0.5" stroke-linejoin="round"></line>
                            </g>
                            <g id="Group-58" transform="translate(102.161007, 84.427142)">
                                <line x1="0.5" y1="2.05452" x2="0.5" y2="1.13686838e-13" id="Fill-55" fill="#3D1818"></line>
                                <line x1="0.5" y1="2.05452" x2="0.5" y2="1.13686838e-13" id="Stroke-57" stroke="#3D1818" stroke-width="0.5" stroke-linejoin="round"></line>
                            </g>
                            <g id="Group-62" transform="translate(102.161007, 0.500000)">
                                <line x1="0.5" y1="1.13686838e-13" x2="0.5" y2="2.05452" id="Fill-59" fill="#3D1818"></line>
                                <line x1="0.5" y1="1.13686838e-13" x2="0.5" y2="2.05452" id="Stroke-61" stroke="#3D1818" stroke-width="0.5" stroke-linejoin="round"></line>
                            </g>
                            <g id="Group-66" transform="translate(127.701259, 84.427142)">
                                <line x1="0.5" y1="2.05452" x2="0.5" y2="1.13686838e-13" id="Fill-63" fill="#3D1818"></line>
                                <line x1="0.5" y1="2.05452" x2="0.5" y2="1.13686838e-13" id="Stroke-65" stroke="#3D1818" stroke-width="0.5" stroke-linejoin="round"></line>
                            </g>
                            <g id="Group-70" transform="translate(127.701259, 0.500000)">
                                <line x1="0.5" y1="1.13686838e-13" x2="0.5" y2="2.05452" id="Fill-67" fill="#3D1818"></line>
                                <line x1="0.5" y1="1.13686838e-13" x2="0.5" y2="2.05452" id="Stroke-69" stroke="#3D1818" stroke-width="0.5" stroke-linejoin="round"></line>
                            </g>
                            <g id="Group-74" transform="translate(153.241511, 84.427142)">
                                <line x1="0.5" y1="2.05452" x2="0.5" y2="1.13686838e-13" id="Fill-71" fill="#3D1818"></line>
                                <line x1="0.5" y1="2.05452" x2="0.5" y2="1.13686838e-13" id="Stroke-73" stroke="#3D1818" stroke-width="0.5" stroke-linejoin="round"></line>
                            </g>
                            <g id="Group-78" transform="translate(153.241511, 0.500000)">
                                <line x1="0.5" y1="1.13686838e-13" x2="0.5" y2="2.05452" id="Fill-75" fill="#3D1818"></line>
                                <line x1="0.5" y1="1.13686838e-13" x2="0.5" y2="2.05452" id="Stroke-77" stroke="#3D1818" stroke-width="0.5" stroke-linejoin="round"></line>
                            </g>
                            <g id="Group-82" transform="translate(178.781762, 84.427142)">
                                <line x1="0.5" y1="2.05452" x2="0.5" y2="1.13686838e-13" id="Fill-79" fill="#3D1818"></line>
                                <line x1="0.5" y1="2.05452" x2="0.5" y2="1.13686838e-13" id="Stroke-81" stroke="#3D1818" stroke-width="0.5" stroke-linejoin="round"></line>
                            </g>
                            <g id="Group-86" transform="translate(178.781762, 0.500000)">
                                <line x1="0.5" y1="1.13686838e-13" x2="0.5" y2="2.05452" id="Fill-83" fill="#3D1818"></line>
                                <line x1="0.5" y1="1.13686838e-13" x2="0.5" y2="2.05452" id="Stroke-85" stroke="#3D1818" stroke-width="0.5" stroke-linejoin="round"></line>
                            </g>
                            <g id="Group-90" transform="translate(204.322014, 84.427142)">
                                <line x1="0.5" y1="2.05452" x2="0.5" y2="1.13686838e-13" id="Fill-87" fill="#3D1818"></line>
                                <line x1="0.5" y1="2.05452" x2="0.5" y2="1.13686838e-13" id="Stroke-89" stroke="#3D1818" stroke-width="0.5" stroke-linejoin="round"></line>
                            </g>
                            <g id="Group-94" transform="translate(204.322014, 0.500000)">
                                <line x1="0.5" y1="1.13686838e-13" x2="0.5" y2="2.05452" id="Fill-91" fill="#3D1818"></line>
                                <line x1="0.5" y1="1.13686838e-13" x2="0.5" y2="2.05452" id="Stroke-93" stroke="#3D1818" stroke-width="0.5" stroke-linejoin="round"></line>
                            </g>
                            <g id="Group-98" transform="translate(0.500000, 85.981662)">
                                <line x1="0" y1="0.5" x2="2.05452" y2="0.5" id="Fill-95" fill="#3D1818"></line>
                                <line x1="0" y1="0.5" x2="2.05452" y2="0.5" id="Stroke-97" stroke="#3D1818" stroke-width="0.5" stroke-linejoin="round"></line>
                            </g>
                            <g id="Group-102" transform="translate(202.767494, 85.981662)">
                                <line x1="2.05452" y1="0.5" x2="0" y2="0.5" id="Fill-99" fill="#3D1818"></line>
                                <line x1="2.05452" y1="0.5" x2="0" y2="0.5" id="Stroke-101" stroke="#3D1818" stroke-width="0.5" stroke-linejoin="round"></line>
                            </g>
                            <g id="Group-106" transform="translate(0.500000, 70.348634)">
                                <line x1="0" y1="0.5" x2="2.05452" y2="0.5" id="Fill-103" fill="#3D1818"></line>
                                <line x1="0" y1="0.5" x2="2.05452" y2="0.5" id="Stroke-105" stroke="#3D1818" stroke-width="0.5" stroke-linejoin="round"></line>
                            </g>
                            <g id="Group-110" transform="translate(202.767494, 70.348634)">
                                <line x1="2.05452" y1="0.5" x2="0" y2="0.5" id="Fill-107" fill="#3D1818"></line>
                                <line x1="2.05452" y1="0.5" x2="0" y2="0.5" id="Stroke-109" stroke="#3D1818" stroke-width="0.5" stroke-linejoin="round"></line>
                            </g>
                            <g id="Group-114" transform="translate(0.500000, 54.715602)">
                                <line x1="0" y1="0.5" x2="2.05452" y2="0.5" id="Fill-111" fill="#3D1818"></line>
                                <line x1="0" y1="0.5" x2="2.05452" y2="0.5" id="Stroke-113" stroke="#3D1818" stroke-width="0.5" stroke-linejoin="round"></line>
                            </g>
                            <g id="Group-118" transform="translate(202.767494, 54.715602)">
                                <line x1="2.05452" y1="0.5" x2="0" y2="0.5" id="Fill-115" fill="#3D1818"></line>
                                <line x1="2.05452" y1="0.5" x2="0" y2="0.5" id="Stroke-117" stroke="#3D1818" stroke-width="0.5" stroke-linejoin="round"></line>
                            </g>
                            <g id="Group-122" transform="translate(0.500000, 39.082569)">
                                <line x1="0" y1="0.5" x2="2.05452" y2="0.5" id="Fill-119" fill="#3D1818"></line>
                                <line x1="0" y1="0.5" x2="2.05452" y2="0.5" id="Stroke-121" stroke="#3D1818" stroke-width="0.5" stroke-linejoin="round"></line>
                            </g>
                            <g id="Group-126" transform="translate(202.767494, 39.082569)">
                                <line x1="2.05452" y1="0.5" x2="0" y2="0.5" id="Fill-123" fill="#3D1818"></line>
                                <line x1="2.05452" y1="0.5" x2="0" y2="0.5" id="Stroke-125" stroke="#3D1818" stroke-width="0.5" stroke-linejoin="round"></line>
                            </g>
                            <g id="Group-130" transform="translate(0.500000, 23.449521)">
                                <line x1="0" y1="0.5" x2="2.05452" y2="0.5" id="Fill-127" fill="#3D1818"></line>
                                <line x1="0" y1="0.5" x2="2.05452" y2="0.5" id="Stroke-129" stroke="#3D1818" stroke-width="0.5" stroke-linejoin="round"></line>
                            </g>
                            <g id="Group-134" transform="translate(202.767494, 23.449521)">
                                <line x1="2.05452" y1="0.5" x2="0" y2="0.5" id="Fill-131" fill="#3D1818"></line>
                                <line x1="2.05452" y1="0.5" x2="0" y2="0.5" id="Stroke-133" stroke="#3D1818" stroke-width="0.5" stroke-linejoin="round"></line>
                            </g>
                            <g id="Group-138" transform="translate(0.500000, 7.816524)">
                                <line x1="0" y1="0.5" x2="2.05452" y2="0.5" id="Fill-135" fill="#3D1818"></line>
                                <line x1="0" y1="0.5" x2="2.05452" y2="0.5" id="Stroke-137" stroke="#3D1818" stroke-width="0.5" stroke-linejoin="round"></line>
                            </g>
                            <g id="Group-142" transform="translate(202.767494, 7.816524)">
                                <line x1="2.05452" y1="0.5" x2="0" y2="0.5" id="Fill-139" fill="#3D1818"></line>
                                <line x1="2.05452" y1="0.5" x2="0" y2="0.5" id="Stroke-141" stroke="#3D1818" stroke-width="0.5" stroke-linejoin="round"></line>
                            </g>
                        </g>
                    </g>
                    <g id="Group-704" transform="translate(14.063350, 14.013389)" fill="#1A1919">
                        <text id="2000" font-family="Helvetica" font-size="8" font-weight="normal">
                            <tspan x="119" y="92">2000</tspan>
                        </text>
                        <text id="4000" font-family="Helvetica" font-size="8" font-weight="normal">
                            <tspan x="146" y="92">4000</tspan>
                        </text>
                        <text id="6000" font-family="Helvetica" font-size="8" font-weight="normal">
                            <tspan x="171" y="92">6000</tspan>
                        </text>
                        <text id="8000" font-family="Helvetica" font-size="8" font-weight="normal">
                            <tspan x="196" y="92">8000</tspan>
                        </text>
                        <text id="10000" font-family="Helvetica" font-size="8" font-weight="normal">
                            <tspan x="219" y="92">10000</tspan>
                        </text>
                        <text id="0" font-family="Helvetica" font-size="8" font-weight="normal">
                            <tspan x="101" y="92">0</tspan>
                        </text>
                        <text id="-2000" font-family="Helvetica" font-size="8" font-weight="normal">
                            <tspan x="67" y="92">-2000</tspan>
                        </text>
                        <text id="-4000" font-family="Helvetica" font-size="8" font-weight="normal">
                            <tspan x="41" y="92">-4000</tspan>
                        </text>
                        <text id="-6000" font-family="Helvetica" font-size="8" font-weight="normal">
                            <tspan x="15" y="92">-6000</tspan>
                        </text>
                        <text id="0.0" font-family="Helvetica" font-size="8" font-weight="normal">
                            <tspan x="13" y="85">0.0</tspan>
                        </text>
                        <text id="0.2" font-family="Helvetica" font-size="8" font-weight="normal">
                            <tspan x="13" y="70">0.2</tspan>
                        </text>
                        <text id="0.4" font-family="Helvetica" font-size="8" font-weight="normal">
                            <tspan x="13" y="55">0.4</tspan>
                        </text>
                        <text id="0.6" font-family="Helvetica" font-size="8" font-weight="normal">
                            <tspan x="13" y="40">0.6</tspan>
                        </text>
                        <text id="0.8" font-family="Helvetica" font-size="8" font-weight="normal">
                            <tspan x="13" y="24">0.8</tspan>
                        </text>
                        <text id="Qui-mô-năng-lượng" transform="translate(5.000000, 43.000000) rotate(-90.000000) translate(-5.000000, -43.000000) " font-family="Helvetica-Bold, Helvetica" font-size="8" font-weight="bold">
                            <tspan x="-33" y="46">Qui mô năng lượng</tspan>
                        </text>
                        <text id="Năm" font-family="Helvetica-Bold, Helvetica" font-size="8" font-weight="bold">
                            <tspan x="119" y="103">Năm</tspan>
                        </text>
                        <text id="Nhiên-liệu-hóa-thạch" font-family="Helvetica-Bold, Helvetica" font-size="8" font-weight="bold">
                            <tspan x="132" y="25">Nhiên liệu </tspan>
                            <tspan x="132" y="35">hóa thạch</tspan>
                        </text>
                        <text id="?" font-family="Helvetica-Bold, Helvetica" font-size="20" font-weight="bold">
                            <tspan x="173" y="62">?</tspan>
                        </text>
                        <text id="“Củi-và-cơ-bắp”" font-family="Helvetica-Bold, Helvetica" font-size="8" font-weight="bold">
                            <tspan x="46" y="76">“Củi và cơ bắp”</tspan>
                        </text>
                        <text id="1.0" font-family="Helvetica" font-size="8" font-weight="normal">
                            <tspan x="13" y="8">1.0</tspan>
                        </text>
                    </g>
                </g>
            </g>
        </g>
    </g>
</svg>