<svg style='scaling-svg' viewBox="0 0 194 144" version="1.1" xmlns="http://www.w3.org/2000/svg" xmlns:xlink="http://www.w3.org/1999/xlink">
    <g id="Page-1" stroke="none" stroke-width="1" fill="none" fill-rule="evenodd">
        <g id="Board" transform="translate(-3400.000000, -3246.000000)">
            <g id="fossil-fuel-II" transform="translate(3375.000000, 3013.055047)">
                <g id="fossil-11a" transform="translate(25.678449, 234.181869)">
                    <g id="Group-8" transform="translate(51.539513, 0.014654)">
                        <path d="M58.4208455,0 C46.2357267,0.255190784 34.3493754,3.83823061 24.0532127,10.3598226 C13.7570499,16.8814491 5.43803018,26.0965302 0,37.0038694 L59.8203988,66.8282244 L58.4208455,0 Z" id="Fill-6" fill="#8888FF"></path>
                        <path d="M58.4208455,0 C46.2357267,0.255190784 34.3493754,3.83823061 24.0532127,10.3598226 C13.7570499,16.8814491 5.43803018,26.0965302 0,37.0038694 L59.8203988,66.8282244 L58.4208455,0 Z" id="Stroke-7" stroke="#3D1818"></path>
                    </g>
                    <g id="Group-11" transform="translate(109.960358, 0.000000)">
                        <path d="M59.5440225,33.8702516 C53.5961964,23.3818001 44.9198131,14.6955647 34.4381134,8.73585401 C23.9564138,2.77617777 12.0549054,-0.237815545 0,0.0146538471 L1.39955334,66.8428782 L59.5440225,33.8702516 Z" id="Fill-9" fill="#55FF55"></path>
                        <path d="M59.5440225,33.8702516 C53.5961964,23.3818001 44.9198131,14.6955647 34.4381134,8.73585401 C23.9564138,2.77617777 12.0549054,-0.237815545 0,0.0146538471 L1.39955334,66.8428782 L59.5440225,33.8702516 Z" id="Stroke-10" stroke="#3D1818"></path>
                    </g>
                    <g id="Group-14" transform="translate(111.359912, 33.870252)">
                        <path d="M64.7839078,49.4352569 C66.8884739,41.1533721 67.3855241,32.5441968 66.2480511,24.0751216 C65.1106126,15.6060463 62.3596298,7.43312054 58.1444692,0 L0,32.9726266 L64.7839078,49.4352569 Z" id="Fill-12" fill="#FF7777"></path>
                        <path d="M64.7839078,49.4352569 C66.8884739,41.1533721 67.3855241,32.5441968 66.2480511,24.0751216 C65.1106126,15.6060463 62.3596298,7.43312054 58.1444692,0 L0,32.9726266 L64.7839078,49.4352569 Z" id="Stroke-13" stroke="#3D1818"></path>
                    </g>
                    <g id="Group-17" transform="translate(111.359912, 66.842878)">
                        <path d="M43.5008311,50.7508536 C48.6987242,46.2955077 53.1814425,41.0679411 56.7918684,35.2513274 C60.4022944,29.4347137 63.0977815,23.0977974 64.7839078,16.4626303 L0,5.68434189e-14 L43.5008311,50.7508536 Z" id="Fill-15" fill="#00CCCC"></path>
                        <path d="M43.5008311,50.7508536 C48.6987242,46.2955077 53.1814425,41.0679411 56.7918684,35.2513274 C60.4022944,29.4347137 63.0977815,23.0977974 64.7839078,16.4626303 L0,5.68434189e-14 L43.5008311,50.7508536 Z" id="Stroke-16" stroke="#3D1818"></path>
                    </g>
                    <g id="Group-20" transform="translate(111.359912, 66.842878)">
                        <path d="M12.8619531,65.5937562 C18.4998506,64.4882509 23.9717431,62.6604676 29.1422157,60.1556502 C34.3126883,57.6508293 39.1387153,54.4898154 43.5008311,50.7508536 L0,5.68434189e-14 L12.8619531,65.5937562 Z" id="Fill-18" fill="#CC66CC"></path>
                        <path d="M12.8619531,65.5937562 C18.4998506,64.4882509 23.9717431,62.6604676 29.1422157,60.1556502 C34.3126883,57.6508293 39.1387153,54.4898154 43.5008311,50.7508536 L0,5.68434189e-14 L12.8619531,65.5937562 Z" id="Stroke-19" stroke="#3D1818"></path>
                    </g>
                    <g id="Group-23" transform="translate(98.819600, 66.842878)">
                        <path d="M0,65.6560071 C4.1871544,66.4557588 8.44127571,66.8531303 12.7041124,66.8428863 C16.9669835,66.8322375 21.2190724,66.4140216 25.4022652,65.5937562 L12.5403121,5.68434189e-14 L0,65.6560071 Z" id="Fill-21" fill="#CCCC00"></path>
                        <path d="M0,65.6560071 C4.1871544,66.4557588 8.44127571,66.8531303 12.7041124,66.8428863 C16.9669835,66.8322375 21.2190724,66.4140216 25.4022652,65.5937562 L12.5403121,5.68434189e-14 L0,65.6560071 Z" id="Stroke-22" stroke="#3D1818"></path>
                    </g>
                    <g id="Group-26" transform="translate(76.106655, 66.842878)">
                        <path d="M2.84217094e-14,56.790649 C3.47435638,58.9474038 7.139348,60.7807746 10.9488145,62.2676915 C14.7582811,63.7546084 18.6961697,64.8888054 22.7129443,65.6560071 L35.2532564,0 L2.84217094e-14,56.790649 Z" id="Fill-24" fill="#AAAAAA"></path>
                        <path d="M2.84217094e-14,56.790649 C3.47435638,58.9474038 7.139348,60.7807746 10.9488145,62.2676915 C14.7582811,63.7546084 18.6961697,64.8888054 22.7129443,65.6560071 L35.2532564,0 L2.84217094e-14,56.790649 Z" id="Stroke-25" stroke="#3D1818"></path>
                    </g>
                    <g id="Group-29" transform="translate(61.378482, 66.842878)">
                        <path d="M0,44.3827412 C2.13956528,46.7921962 4.45054381,49.0437864 6.91488483,51.119895 C9.37922586,53.1960002 11.9904532,55.0911982 14.7281735,56.790649 L49.98143,5.68434189e-14 L0,44.3827412 Z" id="Fill-27" fill="#FFFFFF"></path>
                        <path d="M0,44.3827412 C2.13956528,46.7921962 4.45054381,49.0437864 6.91488483,51.119895 C9.37922586,53.1960002 11.9904532,55.0911982 14.7281735,56.790649 L49.98143,5.68434189e-14 L0,44.3827412 Z" id="Stroke-28" stroke="#3D1818"></path>
                    </g>
                    <g id="Group-32" transform="translate(54.468110, 66.842878)">
                        <path d="M0,35.0898007 C1.01466584,36.7348994 2.10019122,38.3351812 3.2535447,39.8862024 C4.40689819,41.4372236 5.6270119,42.9374719 6.91037214,44.3827412 L56.8918021,-5.68434189e-14 L0,35.0898007 Z" id="Fill-30" fill="#8888FF"></path>
                        <path d="M0,35.0898007 C1.01466584,36.7348994 2.10019122,38.3351812 3.2535447,39.8862024 C4.40689819,41.4372236 5.6270119,42.9374719 6.91037214,44.3827412 L56.8918021,-5.68434189e-14 L0,35.0898007 Z" id="Stroke-31" stroke="#3D1818"></path>
                    </g>
                    <g id="Group-35" transform="translate(50.291772, 66.842878)">
                        <path d="M2.84217094e-14,27.178163 C0.606767072,28.5415459 1.2590055,29.8842256 1.95564741,31.2039285 C2.65228931,32.5236314 3.39295576,33.8196685 4.17633773,35.0898007 L61.0681398,-5.68434189e-14 L2.84217094e-14,27.178163 Z" id="Fill-33" fill="#55FF55"></path>
                        <path d="M2.84217094e-14,27.178163 C0.606767072,28.5415459 1.2590055,29.8842256 1.95564741,31.2039285 C2.65228931,32.5236314 3.39295576,33.8196685 4.17633773,35.0898007 L61.0681398,-5.68434189e-14 L2.84217094e-14,27.178163 Z" id="Stroke-34" stroke="#3D1818"></path>
                    </g>
                    <g id="Group-38" transform="translate(47.351084, 66.842878)">
                        <path d="M0,19.2572243 C0.406004128,20.6067247 0.854585984,21.943066 1.34505661,23.2642157 C1.83552723,24.5853654 2.36767994,25.890669 2.94068797,27.178163 L64.0088278,5.68434189e-14 L0,19.2572243 Z" id="Fill-36" fill="#FF7777"></path>
                        <path d="M0,19.2572243 C0.406004128,20.6067247 0.854585984,21.943066 1.34505661,23.2642157 C1.83552723,24.5853654 2.36767994,25.890669 2.94068797,27.178163 L64.0088278,5.68434189e-14 L0,19.2572243 Z" id="Stroke-37" stroke="#3D1818"></path>
                    </g>
                    <g id="Group-41" transform="translate(45.643152, 66.842878)">
                        <path d="M0,12.2180166 C0.22081168,13.405577 0.473728896,14.5869023 0.75854496,15.7607523 C1.04336102,16.9346024 1.35993814,18.1005294 1.70793184,19.2572243 L65.7167596,0 L0,12.2180166 Z" id="Fill-39" fill="#00CCCC"></path>
                        <path d="M0,12.2180166 C0.22081168,13.405577 0.473728896,14.5869023 0.75854496,15.7607523 C1.04336102,16.9346024 1.35993814,18.1005294 1.70793184,19.2572243 L65.7167596,0 L0,12.2180166 Z" id="Stroke-40" stroke="#3D1818"></path>
                    </g>
                    <g id="Group-44" transform="translate(44.795008, 66.842878)">
                        <path d="M-1.42108547e-14,6.08968299 C0.093974144,7.11692235 0.211717408,8.1418537 0.353126448,9.16365027 C0.494535488,10.1854468 0.659610304,11.2038331 0.848144208,12.2180166 L66.5649038,5.68434189e-14 L-1.42108547e-14,6.08968299 Z" id="Fill-42" fill="#CC66CC"></path>
                        <path d="M-1.42108547e-14,6.08968299 C0.093974144,7.11692235 0.211717408,8.1418537 0.353126448,9.16365027 C0.494535488,10.1854468 0.659610304,11.2038331 0.848144208,12.2180166 L66.5649038,5.68434189e-14 L-1.42108547e-14,6.08968299 Z" id="Stroke-43" stroke="#3D1818"></path>
                    </g>
                    <g id="Group-47" transform="translate(44.517013, 66.842878)">
                        <path d="M0,0 C0,1.01642269 0.023183504,2.03267314 0.069550512,3.04802794 C0.115883072,4.06338274 0.185399136,5.07753186 0.27799536,6.08968299 L66.8428992,0 L0,0 Z" id="Fill-45" fill="#CCCC00"></path>
                        <path d="M0,0 C0,1.01642269 0.023183504,2.03267314 0.069550512,3.04802794 C0.115883072,4.06338274 0.185399136,5.07753186 0.27799536,6.08968299 L66.8428992,0 L0,0 Z" id="Stroke-46" stroke="#3D1818"></path>
                    </g>
                    <g id="Group-50" transform="translate(44.517013, 37.018558)">
                        <path d="M7.02250038,5.68434189e-14 C4.72099506,4.61627314 2.96152901,9.4834655 1.7793081,14.5043648 C0.597087184,19.5252642 0,24.6661459 0,29.824355 L66.8428992,29.824355 L7.02250038,5.68434189e-14 Z" id="Fill-48" fill="#AAAAAA"></path>
                        <path d="M7.02250038,5.68434189e-14 C4.72099506,4.61627314 2.96152901,9.4834655 1.7793081,14.5043648 C0.597087184,19.5252642 0,24.6661459 0,29.824355 L66.8428992,29.824355 L7.02250038,5.68434189e-14 Z" id="Stroke-49" stroke="#3D1818"></path>
                    </g>
                    <text id="17.3%" font-family="LucidaGrande, Lucida Grande" font-size="4.82272" font-weight="normal" letter-spacing="0.0155" fill="#3D1818">
                        <tspan x="72.2984888" y="18.4970129">17</tspan>
                        <tspan x="78.4285341" y="18.4970129" letter-spacing="-0.02308176">.</tspan>
                        <tspan x="79.9313911" y="18.4970129">3%</tspan>
                    </text>
                    <text id="17.1%" font-family="LucidaGrande, Lucida Grande" font-size="4.82272" font-weight="normal" letter-spacing="0.0155" fill="#3D1818">
                        <tspan x="133.783408" y="17.1042113">17</tspan>
                        <tspan x="139.913453" y="17.1042113" letter-spacing="-0.02308176">.</tspan>
                        <tspan x="141.41631" y="17.1042113">1%</tspan>
                    </text>
                    <text id="12.2%" font-family="LucidaGrande, Lucida Grande" font-size="4.82272" font-weight="normal" letter-spacing="0.0155" fill="#3D1818">
                        <tspan x="161.011477" y="59.932282">12</tspan>
                        <tspan x="167.141522" y="59.932282" letter-spacing="-0.02308176">.</tspan>
                        <tspan x="168.644379" y="59.932282">2%</tspan>
                    </text>
                    <text id="9.8%" font-family="LucidaGrande, Lucida Grande" font-size="4.82272" font-weight="normal" letter-spacing="0.0155" fill="#3D1818">
                        <tspan x="155.507694" y="99.4587964">9</tspan>
                        <tspan x="158.572717" y="99.4587964" letter-spacing="-0.02308176">.</tspan>
                        <tspan x="160.075574" y="99.4587964">8%</tspan>
                    </text>
                    <text id="8.2%" font-family="LucidaGrande, Lucida Grande" font-size="4.82272" font-weight="normal" letter-spacing="0.0155" fill="#3D1818">
                        <tspan x="132.005512" y="123.627464">8</tspan>
                        <tspan x="135.070534" y="123.627464" letter-spacing="-0.02308176">.</tspan>
                        <tspan x="136.573391" y="123.627464">2%</tspan>
                    </text>
                    <text id="6.1%" font-family="LucidaGrande, Lucida Grande" font-size="4.82272" font-weight="normal" letter-spacing="0.0155" fill="#3D1818">
                        <tspan x="106.373848" y="130.311446">6</tspan>
                        <tspan x="109.438871" y="130.311446" letter-spacing="-0.02308176">.</tspan>
                        <tspan x="110.941728" y="130.311446">1%</tspan>
                    </text>
                    <text id="5.8%" font-family="LucidaGrande, Lucida Grande" font-size="4.82272" font-weight="normal" letter-spacing="0.0155" fill="#3D1818">
                        <tspan x="84.5758684" y="125.422701">5</tspan>
                        <tspan x="87.640891" y="125.422701" letter-spacing="-0.02308176">.</tspan>
                        <tspan x="89.143748" y="125.422701">8%</tspan>
                    </text>
                    <text id="4.6%" font-family="LucidaGrande, Lucida Grande" font-size="4.82272" font-weight="normal" letter-spacing="0.0155" fill="#3D1818">
                        <tspan x="66.6280634" y="114.947073">4</tspan>
                        <tspan x="69.6930861" y="114.947073" letter-spacing="-0.02308176">.</tspan>
                        <tspan x="71.1959431" y="114.947073">6%</tspan>
                    </text>
                    <text id="2.8%" font-family="LucidaGrande, Lucida Grande" font-size="4.82272" font-weight="normal" letter-spacing="0.0155" fill="#3D1818">
                        <tspan x="57.6421304" y="104.398442">2</tspan>
                        <tspan x="60.707153" y="104.398442" letter-spacing="-0.02308176">.</tspan>
                        <tspan x="62.21001" y="104.398442">8%</tspan>
                    </text>
                    <text id="2.1%" font-family="LucidaGrande, Lucida Grande" font-size="4.82272" font-weight="normal" letter-spacing="0.0155" fill="#3D1818">
                        <tspan x="52.9890323" y="96.0185091">2</tspan>
                        <tspan x="56.054055" y="96.0185091" letter-spacing="-0.02308176">.</tspan>
                        <tspan x="57.556912" y="96.0185091">1%</tspan>
                    </text>
                    <text id="2.0%" font-family="LucidaGrande, Lucida Grande" font-size="4.82272" font-weight="normal" letter-spacing="0.0155" fill="#3D1818">
                        <tspan x="49.970423" y="89.2697325">2</tspan>
                        <tspan x="53.0354456" y="89.2697325" letter-spacing="-0.02308176">.</tspan>
                        <tspan x="54.5383026" y="89.2697325">0%</tspan>
                    </text>
                    <text id="1.7%" font-family="LucidaGrande, Lucida Grande" font-size="4.82272" font-weight="normal" letter-spacing="0.0155" fill="#3D1818">
                        <tspan x="47.0201495" y="82.8918231">1</tspan>
                        <tspan x="50.0851721" y="82.8918231" letter-spacing="-0.02308176">.</tspan>
                        <tspan x="51.5880291" y="82.8918231">7%</tspan>
                    </text>
                    <text id="1.5%" font-family="LucidaGrande, Lucida Grande" font-size="4.82272" font-weight="normal" letter-spacing="0.0155" fill="#3D1818">
                        <tspan x="45.9546384" y="76.2842743">1</tspan>
                        <tspan x="49.019661" y="76.2842743" letter-spacing="-0.02308176">.</tspan>
                        <tspan x="50.522518" y="76.2842743">5%</tspan>
                    </text>
                    <text id="1.5%" font-family="LucidaGrande, Lucida Grande" font-size="4.82272" font-weight="normal" letter-spacing="0.0155" fill="#3D1818">
                        <tspan x="45.4772924" y="71.0860022">1</tspan>
                        <tspan x="48.5423151" y="71.0860022" letter-spacing="-0.02308176">.</tspan>
                        <tspan x="50.0451721" y="71.0860022">5%</tspan>
                    </text>
                    <text id="7.4%" font-family="LucidaGrande, Lucida Grande" font-size="4.82272" font-weight="normal" letter-spacing="0.0155" fill="#3D1818">
                        <tspan x="48.9305847" y="54.4732041">7</tspan>
                        <tspan x="51.9956073" y="54.4732041" letter-spacing="-0.02308176">.</tspan>
                        <tspan x="53.4984643" y="54.4732041">4%</tspan>
                    </text>
                    <g id="text" transform="translate(0.000000, 3.331389)" fill="#3D1818" font-family="LucidaGrande, Lucida Grande" font-size="6.20064" font-weight="normal">
                        <text id="Venezuela" letter-spacing="0.0165">
                            <tspan x="38.6940859" y="7.8024916">V</tspan>
                            <tspan x="42.7646176" y="7.8024916" letter-spacing="0.00409872">ene</tspan>
                            <tspan x="53.5341764" y="7.8024916" letter-spacing="-0.00830256">z</tspan>
                            <tspan x="57.0803423" y="7.8024916" letter-spacing="0.00409872">ue</tspan>
                            <tspan x="64.3912466" y="7.8024916" letter-spacing="-0.0455064">l</tspan>
                            <tspan x="66.1381127" y="7.8024916">a</tspan>
                        </text>
                        <text id="Arập-Xêút" letter-spacing="0.015">
                            <tspan x="148.702345" y="6">Arập-Xêút</tspan>
                        </text>
                        <text id="Iran" letter-spacing="0.007">
                            <tspan x="180.232796" y="55.1304849">I</tspan>
                            <tspan x="182.026113" y="55.1304849" letter-spacing="0.02560192">r</tspan>
                            <tspan x="184.588891" y="55.1304849" letter-spacing="0.05660512">a</tspan>
                            <tspan x="188.069775" y="55.1304849">n</tspan>
                        </text>
                        <text id="Canada" letter-spacing="0.017">
                            <tspan x="169.830946" y="102.694173">C</tspan>
                            <tspan x="174.138135" y="102.694173" letter-spacing="-0.00160192">a</tspan>
                            <tspan x="177.560813" y="102.694173" letter-spacing="0.00459872">n</tspan>
                            <tspan x="181.413562" y="102.694173" letter-spacing="-0.00160192">a</tspan>
                            <tspan x="184.83624" y="102.694173" letter-spacing="0.00459872">d</tspan>
                            <tspan x="188.743487" y="102.694173">a</tspan>
                        </text>
                        <text id="Iraq" letter-spacing="0.007">
                            <tspan x="141.416359" y="130.088938">I</tspan>
                            <tspan x="143.209677" y="130.088938" letter-spacing="0.02560192">r</tspan>
                            <tspan x="145.772454" y="130.088938" letter-spacing="0.05660512">a</tspan>
                            <tspan x="149.253339" y="130.088938">q</tspan>
                        </text>
                        <text id="UAE" letter-spacing="0.0175">
                            <tspan x="106.540109" y="137.444678">U</tspan>
                            <tspan x="110.853853" y="137.444678" letter-spacing="0.01129936">A</tspan>
                            <tspan x="115.143231" y="137.444678">E</tspan>
                        </text>
                        <text id="Kuwait" letter-spacing="0.0155">
                            <tspan x="65.6009979" y="131.412187">K</tspan>
                            <tspan x="69.6644743" y="131.412187" letter-spacing="0.00929936">u</tspan>
                            <tspan x="73.5219247" y="131.412187" letter-spacing="0.04030256">w</tspan>
                            <tspan x="78.3398689" y="131.412187" letter-spacing="0.00929936">a</tspan>
                            <tspan x="81.7734474" y="131.412187" letter-spacing="-0.04030576">i</tspan>
                            <tspan x="83.5255142" y="131.412187">t</tspan>
                        </text>
                        <text id="Nga" letter-spacing="0.0165">
                            <tspan x="53.7646682" y="119.149608">Nga</tspan>
                        </text>
                        <text id="Libya" letter-spacing="0.0135">
                            <tspan x="40.7743513" y="106.792553">L</tspan>
                            <tspan x="44.0940519" y="106.792553" letter-spacing="-0.02990448">i</tspan>
                            <tspan x="45.85652" y="106.792553" letter-spacing="0.02590128">b</tspan>
                            <tspan x="49.7850701" y="106.792553" letter-spacing="0.01970064">y</tspan>
                            <tspan x="53.044363" y="106.792553">a</tspan>
                        </text>
                        <text id="Nigeria" letter-spacing="0.018">
                            <tspan x="29.1495154" y="98.2420445">N</tspan>
                            <tspan x="33.7483594" y="98.2420445" letter-spacing="-0.05640768">i</tspan>
                            <tspan x="35.4843242" y="98.2420445" letter-spacing="-0.00060192">ge</tspan>
                            <tspan x="42.8039931" y="98.2420445" letter-spacing="-0.03160512">r</tspan>
                            <tspan x="45.309564" y="98.2420445" letter-spacing="-0.05640768">i</tspan>
                            <tspan x="47.0455288" y="98.2420445">a</tspan>
                        </text>
                        <text id="Hoa-Kì" letter-spacing="0.0175">
                            <tspan x="25.4408861" y="89.5083742">Hoa Kì</tspan>
                        </text>
                        <text id="Kazakhstan" letter-spacing="0.0155">
                            <tspan x="9.06919408" y="82.2545645">K</tspan>
                            <tspan x="13.1326705" y="82.2545645" letter-spacing="0.00929936">a</tspan>
                            <tspan x="16.5662491" y="82.2545645" letter-spacing="-0.00310192">z</tspan>
                            <tspan x="20.1176156" y="82.2545645" letter-spacing="0.00929936">a</tspan>
                            <tspan x="23.5511942" y="82.2545645" letter-spacing="0.00309872">k</tspan>
                            <tspan x="27.1783974" y="82.2545645" letter-spacing="0.00929936">h</tspan>
                            <tspan x="31.0358479" y="82.2545645" letter-spacing="-0.00310192">s</tspan>
                            <tspan x="34.1936191" y="82.2545645" letter-spacing="-0.02170384">t</tspan>
                            <tspan x="36.4910999" y="82.2545645" letter-spacing="0.00929936">a</tspan>
                            <tspan x="39.9246785" y="82.2545645">n</tspan>
                        </text>
                        <text id="Trung-Quốc" letter-spacing="0.017">
                            <tspan x="6.81853853" y="74.9977488">Trung Quốc</tspan>
                        </text>
                        <text id="Qatar" letter-spacing="0.019">
                            <tspan x="25.4430105" y="67.2705711">Q</tspan>
                            <tspan x="30.2790116" y="67.2705711" letter-spacing="-0.0120032">a</tspan>
                            <tspan x="33.6912877" y="67.2705711" letter-spacing="-0.0430064">t</tspan>
                            <tspan x="35.9674659" y="67.2705711" letter-spacing="-0.0120032">a</tspan>
                            <tspan x="39.379742" y="67.2705711">r</tspan>
                        </text>
                        <text id="Các-nước-khác" letter-spacing="0.0165">
                            <tspan x="0" y="47.0657857">Các nước khác</tspan>
                        </text>
                    </g>
                </g>
            </g>
        </g>
    </g>
</svg>