<svg style='scaling-svg' viewBox="0 0 454 112" version="1.1" xmlns="http://www.w3.org/2000/svg" xmlns:xlink="http://www.w3.org/1999/xlink">
    <g id="Page-1" stroke="none" stroke-width="1" fill="none" fill-rule="evenodd">
        <g id="Board" transform="translate(-3314.000000, -3085.000000)">
            <g id="fossil-fuel-II" transform="translate(3314.000000, 2866.973125)">
                <g id="fossil-6" transform="translate(0.000000, 218.099865)">
                    <g id="Group-6" transform="translate(49.998433, 49.927011)" fill="#286AA6" fill-opacity="0.25">
                        <polygon id="Fill-4" points="0 39.0015512 52.0015675 39.0015512 52.0015675 0 0 0"></polygon>
                    </g>
                    <g id="Group-9" transform="translate(211.000000, 12.926538)" fill="#286AA6" fill-opacity="0.25">
                        <polyline id="Fill-7" points="0 36.3911089 21.0006141 0 21.0006141 76.0004726 0 76.0004726 0 37.9986609"></polyline>
                    </g>
                    <g id="Group-15" transform="translate(0.000000, 44.925738)">
                        <g id="Group-12" transform="translate(372.923188, 0.000000)" fill="#286AA6" fill-opacity="0.25">
                            <path d="M59.4584825,41.1295267 C59.5275345,41.1295267 60.1854118,41.1922761 60.0601766,41.1427703 C54.3194442,38.658653 48.8313793,35.553664 43.7381663,31.9101028 C34.5642939,25.3400256 27.1038527,16.4737638 19.5181763,8.18580507 C16.7363223,5.14356545 14.2112161,1.41423627 10.0615046,0.181952644 C6.17481842,-0.9708695 1.31857938,3.68677161 0.223477391,4.82635017 C0.0853733853,4.97171423 0.00659132754,5.0577975 0,5.06757253 L0,44.4262323 L60.0768118,44.4262323" id="Fill-10"></path>
                        </g>
                        <line x1="0" y1="44.4246557" x2="119.916987" y2="44.4246557" id="Stroke-13" stroke="#1A1919"></line>
                    </g>
                    <polygon id="Fill-16" fill="#1A1919" points="131 89.4253316 115 95.9270106 118.79815 89.4253316 115 82.9270106"></polygon>
                    <g id="Group-39" transform="translate(2.742201, 0.000000)">
                        <path d="M0,85.4290463 C11.4059291,85.4454594 17.9198431,78.8186672 26.3056848,72.057037 C34.1914685,65.6999207 42.7220639,58.211481 47.7029052,49.2529787" id="Stroke-18" stroke="#286AA6"></path>
                        <line x1="158.460689" y1="88.7177778" x2="278.44172" y2="88.7177778" id="Stroke-20" stroke="#1A1919"></line>
                        <polygon id="Fill-22" fill="#1A1919" points="290.05491 88.7177778 273.687754 95.4039227 277.573375 88.7177778 273.687754 82.0350862"></polygon>
                        <path d="M161.202889,85.4290463 C172.608819,85.4454594 179.122733,78.8186672 187.508574,72.057037 C195.394358,65.6999207 203.924953,58.211481 208.905795,49.2529787" id="Stroke-24" stroke="#286AA6"></path>
                        <line x1="319.663578" y1="88.7177778" x2="439.644609" y2="88.7177778" id="Stroke-25" stroke="#1A1919"></line>
                        <polygon id="Fill-26" fill="#1A1919" points="451.257799 88.7177778 434.890957 95.4039227 438.776265 88.7177778 434.890957 82.0350862"></polygon>
                        <path d="M322.405779,85.4290463 C333.811708,85.4454594 340.325622,78.8186672 348.711464,72.057037 C356.597247,65.6999207 365.127843,58.211481 370.108684,49.2529787" id="Stroke-27" stroke="#286AA6"></path>
                        <line x1="47.7027324" y1="49.2529473" x2="99.7943049" y2="49.2529473" id="Stroke-28" stroke="#286AA6" stroke-linecap="round"></line>
                        <line x1="99.7944931" y1="49.2529473" x2="99.7944931" y2="85.4289844" id="Stroke-29" stroke="#286AA6" stroke-linecap="round"></line>
                        <line x1="229.63103" y1="12.9952563" x2="208.90494" y2="49.2535116" id="Stroke-30" stroke="#286AA6" stroke-linecap="round"></line>
                        <line x1="229.63103" y1="12.9952563" x2="229.63103" y2="85.4295487" id="Stroke-31" stroke="#286AA6" stroke-linecap="round"></line>
                        <path d="M50.9926194,49.2529473 C50.9926194,51.0684218 49.5188279,52.5417094 47.7027324,52.5417094 C45.886951,52.5417094 44.4128455,51.0684218 44.4128455,49.2529473 C44.4128455,47.4377867 45.886951,45.9641853 47.7027324,45.9641853 C49.5188279,45.9641853 50.9926194,47.4377867 50.9926194,49.2529473" id="Fill-32" fill="#D8232A"></path>
                        <path d="M212.195509,49.2529473 C212.195509,51.0684218 210.721717,52.5417094 208.905622,52.5417094 C207.08984,52.5417094 205.615735,51.0684218 205.615735,49.2529473 C205.615735,47.4377867 207.08984,45.9641853 208.905622,45.9641853 C210.721717,45.9641853 212.195509,47.4377867 212.195509,49.2529473" id="Fill-33" fill="#D8232A"></path>
                        <text id="Đều-đều" font-family="Helvetica-Bold, Helvetica" font-size="12.57108" font-weight="bold" fill="#1A1919">
                            <tspan x="29.4440438" y="108.581805">Đều đều</tspan>
                        </text>
                        <text id="Tăng-trưởng" font-family="Helvetica-Bold, Helvetica" font-size="12.57108" font-weight="bold" letter-spacing="-0.07542648" fill="#1A1919">
                            <tspan x="178.422674" y="108.581805">Tăng trưởng</tspan>
                        </text>
                        <text id="Đạt-đỉnh-sớm" font-family="Helvetica-Bold, Helvetica" font-size="12.57108" font-weight="bold" fill="#1A1919">
                            <tspan x="340.627917" y="108.581805">Đạt đỉnh sớm</tspan>
                        </text>
                        <path d="M370.380156,49.5358009 C372.643577,45.8787325 375.940012,43.3431211 380.447114,44.6717683 C384.598912,45.8951761 387.125521,49.6114417 389.908739,52.6403627 C397.498435,60.8884991 404.963118,69.7187409 414.141814,76.2567374 C419.237801,79.8874961 424.731859,82.9756141 430.472657,85.4520283 C430.597672,85.4980705 429.939701,85.4388734 429.870614,85.4388734" id="Stroke-34" stroke="#286AA6"></path>
                        <path d="M373.398398,49.2529473 C373.398398,51.0684218 371.924607,52.5417094 370.108511,52.5417094 C368.29273,52.5417094 366.818938,51.0684218 366.818938,49.2529473 C366.818938,47.4377867 368.29273,45.9641853 370.108511,45.9641853 C371.924607,45.9641853 373.398398,47.4377867 373.398398,49.2529473" id="Fill-35" fill="#D8232A"></path>
                        <line x1="47.7027324" y1="1.56966497" x2="99.7943049" y2="1.56966497" id="Stroke-36" stroke="#D8232A" stroke-width="2"></line>
                        <line x1="208.905622" y1="1.56966497" x2="229.631712" y2="1.56966497" id="Stroke-37" stroke="#D8232A" stroke-width="2"></line>
                        <line x1="370.108511" y1="1.56966497" x2="380.527484" y2="1.56966497" id="Stroke-38" stroke="#D8232A" stroke-width="2"></line>
                    </g>
                </g>
            </g>
        </g>
    </g>
</svg>