<svg style='scaling-svg' viewBox="0 0 181 144" version="1.1" xmlns="http://www.w3.org/2000/svg" xmlns:xlink="http://www.w3.org/1999/xlink">
    <g id="Page-1" stroke="none" stroke-width="1" fill="none" fill-rule="evenodd">
        <g id="Board" transform="translate(-3652.000000, -3247.000000)">
            <g id="fossil-fuel-II" transform="translate(3375.000000, 3013.055047)">
                <g id="fossil-11b" transform="translate(277.495292, 235.044666)">
                    <g id="Group-56" transform="translate(91.403152, 27.100001)">
                        <path d="M53.3903351,78.7469912 C61.8101497,67.3543487 66.3664145,53.5604049 66.3890274,39.3940783 C66.4114724,25.2277172 61.8990945,11.4193742 53.5155536,-5.68434189e-14 L0,39.2884952 L53.3903351,78.7469912 Z" id="Fill-54" fill="#FF7777"></path>
                        <path d="M53.3903351,78.7469912 C61.8101497,67.3543487 66.3664145,53.5604049 66.3890274,39.3940783 C66.4114724,25.2277172 61.8990945,11.4193742 53.5155536,-5.68434189e-14 L0,39.2884952 L53.3903351,78.7469912 Z" id="Stroke-55" stroke="#3D1818"></path>
                    </g>
                    <g id="Group-59" transform="translate(91.403152, 66.388496)">
                        <path d="M4.71558672,66.2213195 C14.2799361,65.5402481 23.5842031,62.7951111 31.9864837,58.1752898 C40.3887643,53.5554685 47.6913269,47.1696946 53.3903351,39.458496 L0,0 L4.71558672,66.2213195 Z" id="Fill-57" fill="#CC66CC"></path>
                        <path d="M4.71558672,66.2213195 C14.2799361,65.5402481 23.5842031,62.7951111 31.9864837,58.1752898 C40.3887643,53.5554685 47.6913269,47.1696946 53.3903351,39.458496 L0,0 L4.71558672,66.2213195 Z" id="Stroke-58" stroke="#3D1818"></path>
                    </g>
                    <g id="Group-62" transform="translate(77.888753, 66.388496)">
                        <path d="M5.68434189e-14,64.9989253 C2.99204994,65.6210286 6.02350838,66.0357894 9.072742,66.2402521 C12.1219412,66.4447148 15.181647,66.4383867 18.2299849,66.2213195 L13.5143982,0 L5.68434189e-14,64.9989253 Z" id="Fill-60" fill="#8888FF"></path>
                        <path d="M5.68434189e-14,64.9989253 C2.99204994,65.6210286 6.02350838,66.0357894 9.072742,66.2402521 C12.1219412,66.4447148 15.181647,66.4383867 18.2299849,66.2213195 L13.5143982,0 L5.68434189e-14,64.9989253 Z" id="Stroke-61" stroke="#3D1818"></path>
                    </g>
                    <g id="Group-65" transform="translate(62.265586, 66.388496)">
                        <path d="M0,59.6531676 C2.48004931,60.864559 5.03326618,61.9201078 7.64473461,62.8136682 C10.256203,63.7072287 12.9208247,64.4370647 15.623167,64.9989253 L29.1375652,0 L0,59.6531676 Z" id="Fill-63" fill="#00CCCC"></path>
                        <path d="M0,59.6531676 C2.48004931,60.864559 5.03326618,61.9201078 7.64473461,62.8136682 C10.256203,63.7072287 12.9208247,64.4370647 15.623167,64.9989253 L29.1375652,0 L0,59.6531676 Z" id="Stroke-64" stroke="#3D1818"></path>
                    </g>
                    <g id="Group-68" transform="translate(49.190090, 66.388496)">
                        <path d="M-5.68434189e-14,51.2401909 C2.00525253,52.8921585 4.10571933,54.4249946 6.29061818,55.830783 C8.47548258,57.2365749 10.7410242,58.5128974 13.0754963,59.6531676 L42.2130615,0 L-5.68434189e-14,51.2401909 Z" id="Fill-66" fill="#FFFFFF"></path>
                        <path d="M-5.68434189e-14,51.2401909 C2.00525253,52.8921585 4.10571933,54.4249946 6.29061818,55.830783 C8.47548258,57.2365749 10.7410242,58.5128974 13.0754963,59.6531676 L42.2130615,0 L-5.68434189e-14,51.2401909 Z" id="Stroke-67" stroke="#3D1818"></path>
                    </g>
                    <g id="Group-71" transform="translate(39.360216, 66.388496)">
                        <path d="M5.68434189e-14,41.2193056 C1.45563469,43.0571546 3.00758598,44.8166138 4.64934322,46.4902802 C6.29110045,48.1639466 8.02039005,49.7494709 9.82987459,51.2401909 L52.0429361,0 L5.68434189e-14,41.2193056 Z" id="Fill-69" fill="#55FF55"></path>
                        <path d="M5.68434189e-14,41.2193056 C1.45563469,43.0571546 3.00758598,44.8166138 4.64934322,46.4902802 C6.29110045,48.1639466 8.02039005,49.7494709 9.82987459,51.2401909 L52.0429361,0 L5.68434189e-14,41.2193056 Z" id="Stroke-70" stroke="#3D1818"></path>
                    </g>
                    <g id="Group-74" transform="translate(32.428038, 66.388496)">
                        <path d="M0,30.4866178 C0.979563328,32.3815678 2.04989714,34.2282218 3.20728104,36.0201034 C4.36466494,37.8120194 5.60772102,39.5470963 6.93217773,41.2193056 L58.9751138,0 L0,30.4866178 Z" id="Fill-72" fill="#CCCC00"></path>
                        <path d="M0,30.4866178 C0.979563328,32.3815678 2.04989714,34.2282218 3.20728104,36.0201034 C4.36466494,37.8120194 5.60772102,39.5470963 6.93217773,41.2193056 L58.9751138,0 L0,30.4866178 Z" id="Stroke-73" stroke="#3D1818"></path>
                    </g>
                    <g id="Group-77" transform="translate(28.174674, 66.388496)">
                        <path d="M0,20.2400257 C0.564464928,22.00335 1.20244189,23.7423195 1.91227738,25.4523182 C2.62207842,27.1623169 3.40311792,28.841898 4.25336346,30.4866178 L63.2284772,0 L0,20.2400257 Z" id="Fill-75" fill="#FF7777"></path>
                        <path d="M0,20.2400257 C0.564464928,22.00335 1.20244189,23.7423195 1.91227738,25.4523182 C2.62207842,27.1623169 3.40311792,28.841898 4.25336346,30.4866178 L63.2284772,0 L0,20.2400257 Z" id="Stroke-76" stroke="#3D1818"></path>
                    </g>
                    <g id="Group-80" transform="translate(25.799313, 66.388496)">
                        <path d="M0,10.180073 C0.264457296,11.8843878 0.59526144,13.5777825 0.99158568,15.2563302 C1.38794437,16.9349124 1.84954757,18.5974073 2.37536184,20.2400257 L65.6038391,0 L0,10.180073 Z" id="Fill-78" fill="#FFFFFF"></path>
                        <path d="M0,10.180073 C0.264457296,11.8843878 0.59526144,13.5777825 0.99158568,15.2563302 C1.38794437,16.9349124 1.84954757,18.5974073 2.37536184,20.2400257 L65.6038391,0 L0,10.180073 Z" id="Stroke-79" stroke="#3D1818"></path>
                    </g>
                    <g id="Group-83" transform="translate(25.014174, 66.388496)">
                        <path d="M5.68434189e-14,0 C5.68434189e-14,1.70362584 0.065554544,3.40659717 0.196560288,5.10515915 C0.327566032,6.80372114 0.523919632,8.4965992 0.785138816,10.180073 L66.3889779,0 L5.68434189e-14,0 Z" id="Fill-81" fill="#00CCCC"></path>
                        <path d="M5.68434189e-14,0 C5.68434189e-14,1.70362584 0.065554544,3.40659717 0.196560288,5.10515915 C0.327566032,6.80372114 0.523919632,8.4965992 0.785138816,10.180073 L66.3889779,0 L5.68434189e-14,0 Z" id="Stroke-82" stroke="#3D1818"></path>
                    </g>
                    <g id="Group-86" transform="translate(25.014174, 0.000000)">
                        <path d="M119.904532,27.0999668 C111.62554,15.8230351 99.9901772,7.44638384 86.66917,3.17290275 C73.3481973,-1.10061278 59.0112842,-1.05614041 45.7170431,3.29991253 C32.4228365,7.65596547 20.8396621,16.1046131 12.6307726,27.4327001 C4.42188307,38.7607871 5.68434189e-14,52.3988192 5.68434189e-14,66.3885309 L66.3889779,66.3885309 L119.904532,27.0999668 Z" id="Fill-84" fill="#AAAAAA"></path>
                        <path d="M119.904532,27.0999668 C111.62554,15.8230351 99.9901772,7.44638384 86.66917,3.17290275 C73.3481973,-1.10061278 59.0112842,-1.05614041 45.7170431,3.29991253 C32.4228365,7.65596547 20.8396621,16.1046131 12.6307726,27.4327001 C4.42188307,38.7607871 5.68434189e-14,52.3988192 5.68434189e-14,66.3885309 L66.3889779,66.3885309 L119.904532,27.0999668 Z" id="Stroke-85" stroke="#3D1818"></path>
                    </g>
                    <g id="text" transform="translate(0.000000, 2.397295)" fill="#b99c9a" font-family="LucidaGrande, Lucida Grande" font-size="6.20064" font-weight="normal">
                        <text id="Hoa-Kì" letter-spacing="0.0175">
                            <tspan x="160.430983" y="65.5135837">Hoa Kì</tspan>
                        </text>
                        <text id="Trung-Quốc" letter-spacing="0.017">
                            <tspan x="125.588304" y="128.390255">Trung Quốc</tspan>
                        </text>
                        <text id="Ấn-Độ" letter-spacing="0.007">
                            <tspan x="76.3009869" y="138.261716">Ấn Độ</tspan>
                        </text>
                        <text id="Nhật-Bản" letter-spacing="0.007">
                            <tspan x="43.4670432" y="132.492473">Nhật Bản</tspan>
                        </text>
                        <text id="Nga" letter-spacing="0.0165">
                            <tspan x="41.6663926" y="123.811299">Nga</tspan>
                        </text>
                        <text id="Arập-Xêút" letter-spacing="0.015">
                            <tspan x="10.9295088" y="114.536745">Arập-Xêút</tspan>
                        </text>
                        <text id="Brazil" letter-spacing="0.0165">
                            <tspan x="15.7538068" y="103.019549">B</tspan>
                            <tspan x="19.3368859" y="103.019549" letter-spacing="-0.02690448">r</tspan>
                            <tspan x="21.8471573" y="103.019549" letter-spacing="0.00409872">a</tspan>
                            <tspan x="25.2755353" y="103.019549" letter-spacing="-0.00830256">z</tspan>
                            <tspan x="28.8217011" y="103.019549" letter-spacing="-0.0455064">i</tspan>
                            <tspan x="30.5685672" y="103.019549">l</tspan>
                        </text>
                        <text id="Nam-Hàn" letter-spacing="0.015">
                            <tspan x="0.0493438496" y="92.3949682">Nam Hàn</tspan>
                        </text>
                        <text id="Đức" letter-spacing="0.0185">
                            <tspan x="11.7163099" y="82.1794228">Đức</tspan>
                        </text>
                        <text id="Canada" letter-spacing="0.017">
                            <tspan x="0" y="71.0131036">C</tspan>
                            <tspan x="4.30718891" y="71.0131036" letter-spacing="-0.00160192">a</tspan>
                            <tspan x="7.72986621" y="71.0131036" letter-spacing="0.00459872">n</tspan>
                            <tspan x="11.582616" y="71.0131036" letter-spacing="-0.00160192">a</tspan>
                            <tspan x="15.0052933" y="71.0131036" letter-spacing="0.00459872">d</tspan>
                            <tspan x="18.9125409" y="71.0131036">a</tspan>
                        </text>
                        <text id="Các-nước-khác" letter-spacing="0.0145">
                            <tspan x="8.91026913" y="6">Các nước khác</tspan>
                        </text>
                    </g>
                    <text id="20.2%" font-family="LucidaGrande, Lucida Grande" font-size="4.82272" font-weight="normal" letter-spacing="0.0155" fill="#3D1818">
                        <tspan x="140.174458" y="67.1305234">20</tspan>
                        <tspan x="146.304503" y="67.1305234" letter-spacing="-0.02308176">.</tspan>
                        <tspan x="147.80736" y="67.1305234">2%</tspan>
                    </text>
                    <text id="13.7%" font-family="LucidaGrande, Lucida Grande" font-size="4.82272" font-weight="normal" letter-spacing="0.0155" fill="#3D1818">
                        <tspan x="111.932377" y="120.489778">13</tspan>
                        <tspan x="118.062423" y="120.489778" letter-spacing="-0.02308176">.</tspan>
                        <tspan x="119.56528" y="120.489778">7%</tspan>
                    </text>
                    <text id="4.4%" font-family="LucidaGrande, Lucida Grande" font-size="4.82272" font-weight="normal" letter-spacing="0.0155" fill="#3D1818">
                        <tspan x="81.502452" y="129.344999">4</tspan>
                        <tspan x="84.5674747" y="129.344999" letter-spacing="-0.02308176">.</tspan>
                        <tspan x="86.0703317" y="129.344999">4%</tspan>
                    </text>
                    <text id="4.0%" font-family="LucidaGrande, Lucida Grande" font-size="4.82272" font-weight="normal" letter-spacing="0.0155" fill="#3D1818">
                        <tspan x="66.0089383" y="126.4324">4</tspan>
                        <tspan x="69.073961" y="126.4324" letter-spacing="-0.02308176">.</tspan>
                        <tspan x="70.5768179" y="126.4324">0%</tspan>
                    </text>
                    <text id="3.7%" font-family="LucidaGrande, Lucida Grande" font-size="4.82272" font-weight="normal" letter-spacing="0.0155" fill="#3D1818">
                        <tspan x="53.7437968" y="118.496947">3</tspan>
                        <tspan x="56.8088195" y="118.496947" letter-spacing="-0.02308176">.</tspan>
                        <tspan x="58.3116764" y="118.496947">7%</tspan>
                    </text>
                    <text id="3.4%" font-family="LucidaGrande, Lucida Grande" font-size="4.82272" font-weight="normal" letter-spacing="0.0155" fill="#3D1818">
                        <tspan x="42.9933248" y="110.557534">3</tspan>
                        <tspan x="46.0583475" y="110.557534" letter-spacing="-0.02308176">.</tspan>
                        <tspan x="47.5612045" y="110.557534">4%</tspan>
                    </text>
                    <text id="3.1%" font-family="LucidaGrande, Lucida Grande" font-size="4.82272" font-weight="normal" letter-spacing="0.0155" fill="#3D1818">
                        <tspan x="35.8752313" y="100.657859">3</tspan>
                        <tspan x="38.9402539" y="100.657859" letter-spacing="-0.02308176">.</tspan>
                        <tspan x="40.4431109" y="100.657859">1%</tspan>
                    </text>
                    <text id="2.7%" font-family="LucidaGrande, Lucida Grande" font-size="4.82272" font-weight="normal" letter-spacing="0.0155" fill="#3D1818">
                        <tspan x="31.1590934" y="90.6752672">2</tspan>
                        <tspan x="34.224116" y="90.6752672" letter-spacing="-0.02308176">.</tspan>
                        <tspan x="35.726973" y="90.6752672">7%</tspan>
                    </text>
                    <text id="2.5%" font-family="LucidaGrande, Lucida Grande" font-size="4.82272" font-weight="normal" letter-spacing="0.0155" fill="#3D1818">
                        <tspan x="28.357472" y="82.0086671">2</tspan>
                        <tspan x="31.4224946" y="82.0086671" letter-spacing="-0.02308176">.</tspan>
                        <tspan x="32.9253516" y="82.0086671">5%</tspan>
                    </text>
                    <text id="2.5%" font-family="LucidaGrande, Lucida Grande" font-size="4.82272" font-weight="normal" letter-spacing="0.0155" fill="#3D1818">
                        <tspan x="27.01431" y="72.3801665">2</tspan>
                        <tspan x="30.0793327" y="72.3801665" letter-spacing="-0.02308176">.</tspan>
                        <tspan x="31.5821897" y="72.3801665">5%</tspan>
                    </text>
                    <text id="39.9%" font-family="LucidaGrande, Lucida Grande" font-size="4.82272" font-weight="normal" letter-spacing="0.0155" fill="#3D1818">
                        <tspan x="58.1727131" y="15.4154814">39</tspan>
                        <tspan x="64.3027584" y="15.4154814" letter-spacing="-0.02308176">.</tspan>
                        <tspan x="65.8056154" y="15.4154814">9%</tspan>
                    </text>
                </g>
            </g>
        </g>
    </g>
</svg>