<svg style='scaling-svg' viewBox="0 0 495 253" version="1.1" xmlns="http://www.w3.org/2000/svg" xmlns:xlink="http://www.w3.org/1999/xlink">
    <g id="Page-1" stroke="none" stroke-width="1" fill="none" fill-rule="evenodd">
        <g id="Group-69" transform="translate(0.931700, 0.125195)">
            <text id="0%" font-family="LucidaGrande, Lucida Grande" font-size="7.1132" font-weight="normal" letter-spacing="-0.003" fill="#000000">
                <tspan x="11.6084" y="141.502545">0%</tspan>
            </text>
            <text id="–50%" font-family="LucidaGrande, Lucida Grande" font-size="7.1132" font-weight="normal" fill="#000000">
                <tspan x="3.56337" y="163.012845">–</tspan>
                <tspan x="7.11997" y="163.012845" letter-spacing="-0.035566">5</tspan>
                <tspan x="11.5822526" y="163.012845" letter-spacing="-0.0213396">0</tspan>
                <tspan x="16.0587617" y="163.012845">%</tspan>
            </text>
            <polygon id="Fill-4" fill="#F8EAC5" points="27.6473 183.744805 64.2513 183.744805 64.2513 33.1918051 27.6473 33.1918051"></polygon>
            <polygon id="Fill-5" fill="#F8EAC5" points="69.6913 183.744805 106.2953 183.744805 106.2953 33.1918051 69.6913 33.1918051"></polygon>
            <polygon id="Fill-6" fill="#F8EAC5" points="111.7343 183.744805 148.3383 183.744805 148.3383 33.1918051 111.7343 33.1918051"></polygon>
            <polygon id="Fill-7" fill="#F8EAC5" points="153.7773 183.744805 190.3813 183.744805 190.3813 33.1918051 153.7773 33.1918051"></polygon>
            <polygon id="Fill-8" fill="#F8EAC5" points="195.8213 183.744805 232.4243 183.744805 232.4243 33.1918051 195.8213 33.1918051"></polygon>
            <polygon id="Fill-9" fill="#F8EAC5" points="237.8643 183.744805 274.4683 183.744805 274.4683 33.1918051 237.8643 33.1918051"></polygon>
            <polygon id="Fill-10" fill="#F8EAC5" points="279.9083 183.744805 316.5113 183.744805 316.5113 33.1918051 279.9083 33.1918051"></polygon>
            <polygon id="Fill-11" fill="#F8EAC5" points="321.9503 183.744805 358.5543 183.744805 358.5543 33.1918051 321.9503 33.1918051"></polygon>
            <polygon id="Fill-12" fill="#F8EAC5" points="363.9943 183.744805 400.5983 183.744805 400.5983 33.1918051 363.9943 33.1918051"></polygon>
            <polygon id="Fill-13" fill="#F8EAC5" points="406.0373 183.744805 442.6413 183.744805 442.6413 33.1918051 406.0373 33.1918051"></polygon>
            <polygon id="Fill-14" fill="#F8EAC5" points="448.0813 183.744805 484.6853 183.744805 484.6853 33.1918051 448.0813 33.1918051"></polygon>
            <text id="Ngũ-cốc-nguyên-hạt" font-family="LucidaGrande-Bold, Lucida Grande" font-size="6.639" font-weight="bold" line-spacing="9" letter-spacing="0.015" fill="#000000">
                <tspan x="31.9771752" y="193.958327">Ngũ cốc </tspan>
                <tspan x="33.04309" y="202.958327">nguyên </tspan>
                <tspan x="40.1989492" y="211.958327">hạt</tspan>
            </text>
            <text id="Rau-có-tinh-bột" font-family="LucidaGrande-Bold, Lucida Grande" font-size="6.639" font-weight="bold" line-spacing="9" letter-spacing="0.0185" fill="#000000">
                <tspan x="118.095423" y="193.957927">Rau có </tspan>
                <tspan x="115.935781" y="202.957927">tinh bột</tspan>
            </text>
            <text id="Hoa-quả" font-family="LucidaGrande-Bold, Lucida Grande" font-size="6.639" font-weight="bold" line-spacing="9" letter-spacing="0.0185" fill="#000000">
                <tspan x="157.402046" y="193.957927">Hoa quả</tspan>
            </text>
            <text id="Sản-phẩm-từ-sữa" font-family="LucidaGrande-Bold, Lucida Grande" font-size="6.639" font-weight="bold" line-spacing="9" letter-spacing="0.0185" fill="#000000">
                <tspan x="208.49791" y="193.957927">Sản </tspan>
                <tspan x="200.040597" y="202.957927">phẩm từ </tspan>
                <tspan x="208.238574" y="211.957927">sữa</tspan>
            </text>
            <text id="Thịt-đỏ" font-family="LucidaGrande-Bold, Lucida Grande" font-size="6.639" font-weight="bold" line-spacing="9" letter-spacing="0.0185" fill="#000000">
                <tspan x="245.180118" y="193.957927">Thịt đỏ</tspan>
            </text>
            <text id="Gia-cầm" font-family="LucidaGrande-Bold, Lucida Grande" font-size="6.639" font-weight="bold" line-spacing="9" letter-spacing="0.0185" fill="#000000">
                <tspan x="284.951514" y="193.957927">Gia cầm</tspan>
            </text>
            <text id="Trứng" font-family="LucidaGrande-Bold, Lucida Grande" font-size="6.639" font-weight="bold" line-spacing="9" letter-spacing="0.0185" fill="#000000">
                <tspan x="329.879439" y="193.957927">Trứng</tspan>
            </text>
            <text id="Các-loại-đậu-nành,-đ" font-family="LucidaGrande-Bold, Lucida Grande" font-size="6.639" font-weight="bold" line-spacing="9" letter-spacing="0.0185" fill="#000000">
                <tspan x="410.071932" y="193.957927">Các loại </tspan>
                <tspan x="406.733457" y="202.957927">đậu nành, </tspan>
                <tspan x="407.824289" y="211.957927">đậu lăng, </tspan>
                <tspan x="409.663003" y="220.957927">đậu khô</tspan>
            </text>
            <text id="Các-nguồn-đạm" font-family="LucidaGrande-Bold, Lucida Grande" font-size="6.639" font-weight="bold" line-spacing="9" letter-spacing="0.0185" fill="#000000">
                <tspan x="333.442184" y="248.957927">Các nguồn đạm</tspan>
            </text>
            <text id="Quả-hạch" font-family="LucidaGrande-Bold, Lucida Grande" font-size="6.639" font-weight="bold" line-spacing="9" letter-spacing="0.0185" fill="#000000">
                <tspan x="450.441293" y="193.957927">Quả hạch</tspan>
            </text>
            <text id="Cá" font-family="LucidaGrande-Bold, Lucida Grande" font-size="6.639" font-weight="bold" line-spacing="9" letter-spacing="0.0185" fill="#000000">
                <tspan x="378.218777" y="193.957927">Cá</tspan>
            </text>
            <text id="Các-loại-rau" font-family="LucidaGrande-Bold, Lucida Grande" font-size="6.639" font-weight="bold" line-spacing="9" letter-spacing="-0.024" fill="#000000">
                <tspan x="75.428032" y="193.958327">Các loại </tspan>
                <tspan x="83.1351434" y="202.958327">rau</tspan>
            </text>
            <text id="–100%" font-family="LucidaGrande, Lucida Grande" font-size="7.1132" font-weight="normal" letter-spacing="-0.142264" fill="#000000">
                <tspan x="0" y="184.518345">–</tspan>
                <tspan x="3.414336" y="184.518345">10</tspan>
                <tspan x="12.4100333" y="184.518345" letter-spacing="-0.0213396">0</tspan>
                <tspan x="16.8865423" y="184.518345">%</tspan>
            </text>
            <text id="150%" font-family="LucidaGrande, Lucida Grande" font-size="7.1132" font-weight="normal" fill="#000000">
                <tspan x="4.3675" y="76.9809449">1</tspan>
                <tspan x="8.86534863" y="76.9809449" letter-spacing="-0.035566">5</tspan>
                <tspan x="13.3276313" y="76.9809449" letter-spacing="-0.0213396">0</tspan>
                <tspan x="17.8041403" y="76.9809449">%</tspan>
            </text>
            <text id="200%" font-family="LucidaGrande, Lucida Grande" font-size="7.1132" font-weight="normal" letter-spacing="-0.035566" fill="#000000">
                <tspan x="2.54653" y="55.4706449">2</tspan>
                <tspan x="7.00881263" y="55.4706449">0</tspan>
                <tspan x="11.5066613" y="55.4706449" letter-spacing="-0.0213396">0</tspan>
                <tspan x="15.9831703" y="55.4706449">%</tspan>
            </text>
            <text id="250%" font-family="LucidaGrande, Lucida Grande" font-size="7.1132" font-weight="normal" fill="#000000">
                <tspan x="3.23651" y="33.9603449">2</tspan>
                <tspan x="7.73435863" y="33.9603449" letter-spacing="-0.035566">5</tspan>
                <tspan x="12.1966413" y="33.9603449" letter-spacing="-0.0213396">0</tspan>
                <tspan x="16.6731503" y="33.9603449">%</tspan>
            </text>
            <text id="100%" font-family="LucidaGrande, Lucida Grande" font-size="7.1132" font-weight="normal" fill="#000000">
                <tspan x="3.64196" y="98.4841449">10</tspan>
                <tspan x="12.6376573" y="98.4841449" letter-spacing="-0.0213396">0</tspan>
                <tspan x="17.1141663" y="98.4841449">%</tspan>
            </text>
            <text id="50%" font-family="LucidaGrande, Lucida Grande" font-size="7.1132" font-weight="normal" letter-spacing="-0.005" fill="#000000">
                <tspan x="7.34794" y="119.994545">5</tspan>
                <tspan x="11.8407886" y="119.994545" letter-spacing="0.0092264">0</tspan>
                <tspan x="16.3478637" y="119.994545">%</tspan>
            </text>
            <path d="M27.6478,33.1912051 L484.6848,33.1912051 L27.6478,33.1912051 Z" id="Fill-15" fill="#F6F6F6"></path>
            <line x1="27.648" y1="33.1912051" x2="484.685" y2="33.1912051" id="Stroke-16" stroke="#C6C6C6" stroke-width="0.474"></line>
            <path d="M27.6478,54.6976051 L484.6848,54.6976051 L27.6478,54.6976051 Z" id="Fill-17" fill="#F6F6F6"></path>
            <line x1="27.648" y1="54.6984051" x2="484.685" y2="54.6984051" id="Stroke-18" stroke="#C6C6C6" stroke-width="0.474"></line>
            <path d="M27.6478,76.2058051 L484.6848,76.2058051 L27.6478,76.2058051 Z" id="Fill-19" fill="#F6F6F6"></path>
            <line x1="27.648" y1="76.2060051" x2="484.685" y2="76.2060051" id="Stroke-20" stroke="#C6C6C6" stroke-width="0.474"></line>
            <path d="M27.6478,97.7131051 L484.6848,97.7131051 L27.6478,97.7131051 Z" id="Fill-21" fill="#F6F6F6"></path>
            <line x1="27.648" y1="97.7137051" x2="484.685" y2="97.7137051" id="Stroke-22" stroke="#C6C6C6" stroke-width="0.474"></line>
            <path d="M27.6478,119.221305 L484.6848,119.221305 L27.6478,119.221305 Z" id="Fill-23" fill="#F6F6F6"></path>
            <line x1="27.648" y1="119.221405" x2="484.685" y2="119.221405" id="Stroke-24" stroke="#C6C6C6" stroke-width="0.474"></line>
            <path d="M27.6478,140.728605 L484.6848,140.728605 L27.6478,140.728605 Z" id="Fill-25" fill="#F6F6F6"></path>
            <line x1="27.648" y1="140.729105" x2="484.685" y2="140.729105" id="Stroke-26" stroke="#C6C6C6" stroke-width="0.474"></line>
            <path d="M27.6478,162.236805 L484.6848,162.236805 L27.6478,162.236805 Z" id="Fill-27" fill="#F6F6F6"></path>
            <line x1="27.648" y1="162.236205" x2="484.685" y2="162.236205" id="Stroke-28" stroke="#C6C6C6" stroke-width="0.474"></line>
            <path d="M27.6478,183.744105 L484.6848,183.744105 L27.6478,183.744105 Z" id="Fill-29" fill="#F6F6F6"></path>
            <line x1="27.648" y1="183.744405" x2="484.685" y2="183.744405" id="Stroke-30" stroke="#C6C6C6" stroke-width="0.474"></line>
            <polyline id="Stroke-31" stroke="#C6C6C6" stroke-width="0.474" points="257.1665 200.221305 257.1665 228.221305 466.1665 228.221305 466.1665 200.221305"></polyline>
            <line x1="361.2751" y1="227.853005" x2="361.2751" y2="241.295005" id="Stroke-32" stroke="#C6C6C6" stroke-width="0.474"></line>
            <text id="2050-BAU-+-Lãng-phí" font-family="LucidaGrande-Bold, Lucida Grande" font-size="8.5358" font-weight="bold" letter-spacing="-0.042679" fill="#000000">
                <tspan x="12.4316" y="8">2</tspan>
                <tspan x="18.0197148" y="8" letter-spacing="-0.0085358">0</tspan>
                <tspan x="23.6419729" y="8">5</tspan>
                <tspan x="29.2300877" y="8">0 </tspan>
                <tspan x="37.6741946" y="8" letter-spacing="-0.085358">B</tspan>
                <tspan x="42.9653903" y="8" letter-spacing="-0.256074">A</tspan>
                <tspan x="48.9944659" y="8">U + Lãng phí thực </tspan>
                <tspan x="12.4316" y="18">phẩm như hiện tại (100%)</tspan>
            </text>
            <polygon id="Fill-33" fill="#FBBA00" points="27.6473 140.728805 39.8483 140.728805 39.8483 118.360805 27.6473 118.360805"></polygon>
            <polygon id="Fill-34" fill="#FBBA00" points="1.9893 8.59080508 10.0543 8.59080508 10.0543 0.525805078 1.9893 0.525805078"></polygon>
            <text id="2050-chế-độ-ăn-lành" font-family="LucidaGrande-Bold, Lucida Grande" font-size="8.5358" font-weight="bold" letter-spacing="-0.042679" fill="#000000">
                <tspan x="144.1308" y="8">2</tspan>
                <tspan x="149.718915" y="8" letter-spacing="-0.0085358">0</tspan>
                <tspan x="155.341173" y="8">5</tspan>
                <tspan x="160.929288" y="8">0 chế độ ăn lành mạnh cho hành tinh </tspan>
                <tspan x="144.1308" y="18">+ Lãng phí thực phẩm như hiện tại (100%)</tspan>
            </text>
            <polygon id="Fill-35" fill="#0084BE" points="133.6893 9.59080508 141.7543 9.59080508 141.7543 1.52580508 133.6893 1.52580508"></polygon>
            <text id="2050-chế-độ-lành-mạn" font-family="LucidaGrande-Bold, Lucida Grande" font-size="8.5358" font-weight="bold" letter-spacing="-0.042679" fill="#000000">
                <tspan x="343.9272" y="8">2</tspan>
                <tspan x="349.515315" y="8" letter-spacing="-0.0085358">0</tspan>
                <tspan x="355.137573" y="8">5</tspan>
                <tspan x="360.725688" y="8">0 chế độ lành mạnh cho hành </tspan>
                <tspan x="343.9272" y="18">tinh + Lãng phí 50% thực phẩm</tspan>
            </text>
            <polygon id="Fill-36" fill="#7AB729" points="333.4853 9.59080508 341.5503 9.59080508 341.5503 1.52580508 333.4853 1.52580508"></polygon>
            <polygon id="Fill-37" fill="#0084BE" points="39.8493 140.728805 52.0493 140.728805 52.0493 132.985805 39.8493 132.985805"></polygon>
            <polygon id="Fill-38" fill="#7AB729" points="52.0493 140.728805 64.2503 140.728805 64.2503 140.298805 52.0493 140.298805"></polygon>
            <polygon id="Fill-39" fill="#FBBA00" points="69.6913 140.729805 81.8923 140.729805 81.8923 104.596805 69.6913 104.596805"></polygon>
            <polygon id="Fill-40" fill="#0084BE" points="81.8923 140.728805 94.0933 140.728805 94.0933 88.6798051 81.8923 88.6798051"></polygon>
            <polygon id="Fill-41" fill="#7AB729" points="94.0933 140.728805 106.2943 140.728805 106.2943 106.746805 94.0933 106.746805"></polygon>
            <polygon id="Fill-42" fill="#FBBA00" points="111.7343 140.728805 123.9353 140.728805 123.9353 117.930805 111.7343 117.930805"></polygon>
            <polygon id="Fill-43" fill="#0084BE" points="123.9363 140.728805 136.1373 140.728805 136.1373 120.941805 123.9363 120.941805"></polygon>
            <polygon id="Fill-44" fill="#7AB729" points="136.1373 140.728805 148.3373 140.728805 148.3373 132.125805 136.1373 132.125805"></polygon>
            <polygon id="Fill-45" fill="#FBBA00" points="153.7773 140.728805 165.9783 140.728805 165.9783 102.874805 153.7773 102.874805"></polygon>
            <polygon id="Fill-46" fill="#0084BE" points="165.9793 140.728805 178.1803 140.728805 178.1803 92.5518051 165.9793 92.5518051"></polygon>
            <polygon id="Fill-47" fill="#7AB729" points="178.1793 140.728805 190.3803 140.728805 190.3803 112.768805 178.1793 112.768805"></polygon>
            <polygon id="Fill-48" fill="#FBBA00" points="195.8223 140.728805 208.0223 140.728805 208.0223 114.918805 195.8223 114.918805"></polygon>
            <polygon id="Fill-49" fill="#0084BE" points="208.0233 140.728805 220.2243 140.728805 220.2243 132.985805 208.0233 132.985805"></polygon>
            <polygon id="Fill-50" fill="#7AB729" points="220.2233 140.729805 232.4243 140.729805 232.4243 136.427805 220.2233 136.427805"></polygon>
            <polygon id="Fill-51" fill="#FBBA00" points="237.8653 140.728805 250.0663 140.728805 250.0663 118.790805 237.8653 118.790805"></polygon>
            <polygon id="Fill-52" fill="#0084BE" points="250.0663 172.129805 262.2663 172.129805 262.2663 140.729805 250.0663 140.729805"></polygon>
            <polygon id="Fill-53" fill="#7AB729" points="262.2663 172.560805 274.4673 172.560805 274.4673 140.728805 262.2663 140.728805"></polygon>
            <polygon id="Fill-54" fill="#FBBA00" points="279.9083 140.728805 292.1083 140.728805 292.1083 96.4228051 279.9083 96.4228051"></polygon>
            <polygon id="Fill-55" fill="#0084BE" points="292.1093 140.728805 304.3103 140.728805 304.3103 138.577805 292.1093 138.577805"></polygon>
            <polygon id="Fill-56" fill="#7AB729" points="304.3103 140.728805 316.5103 140.728805 316.5103 140.298805 304.3103 140.298805"></polygon>
            <polygon id="Fill-57" fill="#FBBA00" points="321.9513 140.728805 334.1523 140.728805 334.1523 121.372805 321.9513 121.372805"></polygon>
            <polygon id="Fill-58" fill="#0084BE" points="334.1533 149.331805 346.3533 149.331805 346.3533 140.728805 334.1533 140.728805"></polygon>
            <polygon id="Fill-59" fill="#7AB729" points="346.3523 151.912805 358.5533 151.912805 358.5533 140.728805 346.3523 140.728805"></polygon>
            <polygon id="Fill-60" fill="#FBBA00" points="363.9953 140.729805 376.1963 140.729805 376.1963 120.081805 363.9953 120.081805"></polygon>
            <polygon id="Fill-61" fill="#0084BE" points="376.1953 140.728805 388.3963 140.728805 388.3963 89.9708051 376.1953 89.9708051"></polygon>
            <polygon id="Fill-62" fill="#7AB729" points="388.3963 140.728805 400.5973 140.728805 400.5973 114.918805 388.3963 114.918805"></polygon>
            <polygon id="Fill-63" fill="#FBBA00" points="406.0383 140.728805 418.2393 140.728805 418.2393 113.198805 406.0383 113.198805"></polygon>
            <polygon id="Fill-64" fill="#0084BE" points="418.2393 140.729805 430.4403 140.729805 430.4403 99.0048051 418.2393 99.0048051"></polygon>
            <polygon id="Fill-65" fill="#7AB729" points="430.4413 140.728805 442.6413 140.728805 442.6413 105.025805 430.4413 105.025805"></polygon>
            <polygon id="Fill-66" fill="#FBBA00" points="448.0813 140.728805 460.2823 140.728805 460.2823 120.941805 448.0813 120.941805"></polygon>
            <polygon id="Fill-67" fill="#0084BE" points="460.2833 140.729805 472.4843 140.729805 472.4843 59.4308051 460.2833 59.4308051"></polygon>
            <polygon id="Fill-68" fill="#7AB729" points="472.4853 140.728805 484.6843 140.728805 484.6843 68.4638051 472.4853 68.4638051"></polygon>
        </g>
    </g>
</svg>