<svg style='scaling-svg' viewBox="0 0 489 504" version="1.1" xmlns="http://www.w3.org/2000/svg" xmlns:xlink="http://www.w3.org/1999/xlink">
    <g id="Page-1" stroke="none" stroke-width="1" fill="none" fill-rule="evenodd">
        <g id="nutrition-table" transform="translate(0.000000, 0.920412)">
            <path d="M487.1263,1 L487.1263,502 L1.0003,502 L1.0003,1 L487.1263,1 Z" id="Fill-2" stroke="#A5A5A5" stroke-width="2" fill="#FFF8E4"></path>
            <g id="Group-197" transform="translate(0.000000, 82.790900)">
                <g id="Group-52" stroke="#A5A5A5" stroke-width="2">
                    <line x1="41.3859" y1="0.5" x2="240.9449" y2="0.5" id="Stroke-3"></line>
                    <line x1="240.9449" y1="0.5" x2="248.0319" y2="0.5" id="Stroke-4"></line>
                    <line x1="248.0315" y1="0.5" x2="374.8815" y2="0.5" id="Stroke-5"></line>
                    <line x1="374.8819" y1="0.5" x2="381.9689" y2="0.5" id="Stroke-6"></line>
                    <line x1="381.9685" y1="0.5" x2="488.9765" y2="0.5" id="Stroke-7"></line>
                    <line x1="41.3859" y1="42.4324" x2="240.9449" y2="42.4324" id="Stroke-8"></line>
                    <line x1="240.9449" y1="42.4324" x2="248.0319" y2="42.4324" id="Stroke-9"></line>
                    <line x1="248.0315" y1="42.4324" x2="374.8815" y2="42.4324" id="Stroke-10"></line>
                    <line x1="374.8819" y1="42.4324" x2="381.9689" y2="42.4324" id="Stroke-11"></line>
                    <line x1="381.9685" y1="42.4324" x2="488.9765" y2="42.4324" id="Stroke-12"></line>
                    <line x1="41.3859" y1="84.3648" x2="240.9449" y2="84.3648" id="Stroke-13"></line>
                    <line x1="240.9449" y1="84.3648" x2="248.0319" y2="84.3648" id="Stroke-14"></line>
                    <line x1="248.0315" y1="84.3648" x2="374.8815" y2="84.3648" id="Stroke-15"></line>
                    <line x1="374.8819" y1="84.3648" x2="381.9689" y2="84.3648" id="Stroke-16"></line>
                    <line x1="381.9685" y1="84.3648" x2="488.9765" y2="84.3648" id="Stroke-17"></line>
                    <line x1="41.3859" y1="126.2972" x2="240.9449" y2="126.2972" id="Stroke-18"></line>
                    <line x1="240.9449" y1="126.2972" x2="248.0319" y2="126.2972" id="Stroke-19"></line>
                    <line x1="248.0315" y1="126.2972" x2="374.8815" y2="126.2972" id="Stroke-20"></line>
                    <line x1="374.8819" y1="126.2972" x2="381.9689" y2="126.2972" id="Stroke-21"></line>
                    <line x1="381.9685" y1="126.2972" x2="488.9765" y2="126.2972" id="Stroke-22"></line>
                    <line x1="41.3859" y1="168.2296" x2="240.9449" y2="168.2296" id="Stroke-23"></line>
                    <line x1="240.9449" y1="168.2296" x2="248.0319" y2="168.2296" id="Stroke-24"></line>
                    <line x1="248.0315" y1="168.2296" x2="374.8815" y2="168.2296" id="Stroke-25"></line>
                    <line x1="374.8819" y1="168.2296" x2="381.9689" y2="168.2296" id="Stroke-26"></line>
                    <line x1="381.9685" y1="168.2296" x2="488.9765" y2="168.2296" id="Stroke-27"></line>
                    <line x1="41.3859" y1="210.1621" x2="240.9449" y2="210.1621" id="Stroke-28"></line>
                    <line x1="240.9449" y1="210.1621" x2="248.0319" y2="210.1621" id="Stroke-29"></line>
                    <line x1="248.0315" y1="210.1621" x2="374.8815" y2="210.1621" id="Stroke-30"></line>
                    <line x1="374.8819" y1="210.1621" x2="381.9689" y2="210.1621" id="Stroke-31"></line>
                    <line x1="381.9685" y1="210.1621" x2="488.9765" y2="210.1621" id="Stroke-32"></line>
                    <line x1="41.3859" y1="322.0945" x2="240.9449" y2="322.0945" id="Stroke-33"></line>
                    <line x1="240.9449" y1="322.0945" x2="248.0319" y2="322.0945" id="Stroke-34"></line>
                    <line x1="248.0315" y1="322.0945" x2="374.8815" y2="322.0945" id="Stroke-35"></line>
                    <line x1="374.8819" y1="322.0945" x2="381.9689" y2="322.0945" id="Stroke-36"></line>
                    <line x1="381.9685" y1="322.0945" x2="488.9765" y2="322.0945" id="Stroke-37"></line>
                    <line x1="41.3859" y1="378.0269" x2="240.9449" y2="378.0269" id="Stroke-38"></line>
                    <line x1="240.9449" y1="378.0269" x2="248.0319" y2="378.0269" id="Stroke-39"></line>
                    <line x1="248.0315" y1="378.0269" x2="374.8815" y2="378.0269" id="Stroke-40"></line>
                    <line x1="374.8819" y1="378.0269" x2="381.9689" y2="378.0269" id="Stroke-41"></line>
                    <line x1="381.9685" y1="378.0269" x2="488.9765" y2="378.0269" id="Stroke-42"></line>
                    <line x1="0" y1="0.5" x2="41.386" y2="0.5" id="Stroke-43"></line>
                    <line x1="0" y1="42.4324" x2="41.386" y2="42.4324" id="Stroke-44"></line>
                    <line x1="0" y1="84.3648" x2="41.386" y2="84.3648" id="Stroke-45"></line>
                    <line x1="0" y1="126.2972" x2="41.386" y2="126.2972" id="Stroke-46"></line>
                    <line x1="0" y1="168.2296" x2="41.386" y2="168.2296" id="Stroke-47"></line>
                    <line x1="0" y1="210.1621" x2="41.386" y2="210.1621" id="Stroke-48"></line>
                    <line x1="0" y1="322.0945" x2="41.386" y2="322.0945" id="Stroke-49"></line>
                    <line x1="0" y1="378.0269" x2="41.386" y2="378.0269" id="Stroke-50"></line>
                </g>
                <path d="M33.7406,21.5462 C33.7406,29.3752 27.3926,35.7232 19.5626,35.7232 C11.7326,35.7232 5.3856,29.3752 5.3856,21.5462 C5.3856,13.7202 11.7326,7.3732 19.5626,7.3732 C27.3926,7.3732 33.7406,13.7202 33.7406,21.5462" id="Fill-51" fill="#EDEDED"></path>
                <g id="Group-76" transform="translate(5.386300, 7.372100)">
                    <mask id="mask-2" fill="white">
                        <use xlink:href="#path-1"></use>
                    </mask>
                    <g id="Clip-54"></g>
                    <polygon id="Fill-53" fill="#FBBA00" mask="url(#mask-2)" points="13.6841 5.6075 14.1461 6.3065 14.6401 5.6285 15.1131 4.9775 15.1321 4.9775 15.1321 4.9555 15.1341 4.9515 15.1321 4.9515 15.1681 3.2525 15.1711 3.2525 15.1681 3.2475 15.1681 3.2335 15.1571 3.2335 14.7071 2.5535 14.2431 1.8565 13.7511 2.5335 13.2711 3.1925 13.2571 3.1925 13.2201 4.9385 13.2381 4.9385"></polygon>
                    <polygon id="Fill-55" fill="#FBBA00" mask="url(#mask-2)" points="14.3988 7.2473 14.3978 8.0503 14.3958 8.8883 15.1808 8.5993 15.9378 8.3203 15.9488 8.3293 15.9628 8.3103 15.9678 8.3083 15.9638 8.3063 16.9378 6.9153 16.9398 6.9173 16.9398 6.9113 16.9478 6.9013 16.9398 6.8953 16.9438 6.0793 16.9448 5.2403 16.1588 5.5313 15.3938 5.8143 15.3838 5.8063 14.3858 7.2373"></polygon>
                    <polygon id="Fill-56" fill="#FBBA00" mask="url(#mask-2)" points="11.4119 6.911 11.4119 6.917 11.4159 6.915 12.3869 8.306 12.3819 8.308 12.3899 8.31 12.4009 8.329 12.4139 8.321 13.1699 8.599 13.9549 8.888 13.9509 8.05 13.9509 7.247 13.9669 7.238 12.9669 5.806 12.9589 5.815 12.1919 5.532 11.4079 5.24 11.4099 6.079 11.4119 6.895 11.4029 6.901"></polygon>
                    <polygon id="Fill-57" fill="#FBBA00" mask="url(#mask-2)" points="16.9439 9.5728 16.9449 8.7368 16.1589 9.0268 15.3939 9.3088 15.3839 9.3018 14.3849 10.7298 14.4009 10.7408 14.3979 11.5448 14.3959 12.3818 15.1829 12.0938 15.9369 11.8138 15.9509 11.8238 15.9629 11.8038 15.9679 11.8038 15.9659 11.8038 16.9379 10.4078 16.9399 10.4108 16.9399 10.4058 16.9499 10.3958 16.9399 10.3898"></polygon>
                    <polygon id="Fill-58" fill="#FBBA00" mask="url(#mask-2)" points="12.9687 9.3023 12.9587 9.3083 12.1947 9.0273 11.4097 8.7363 11.4097 9.5733 11.4117 10.3903 11.4037 10.3953 11.4117 10.4063 11.4117 10.4103 11.4167 10.4083 12.3887 11.8043 12.3847 11.8043 12.3897 11.8043 12.4017 11.8243 12.4137 11.8133 13.1707 12.0943 13.9547 12.3813 13.9537 11.5453 13.9507 10.7413 13.9677 10.7303"></polygon>
                    <polygon id="Fill-59" fill="#FBBA00" mask="url(#mask-2)" points="16.9439 13.0675 16.9449 12.2315 16.1589 12.5205 15.3939 12.8035 15.3839 12.7945 14.3849 14.2275 14.4009 14.2355 14.3979 15.0395 14.3959 15.8775 15.1829 15.5865 15.9369 15.3105 15.9509 15.3175 15.9629 15.2985 15.9679 15.2985 15.9659 15.2985 16.9379 13.9045 16.9399 13.9065 16.9399 13.8995 16.9499 13.8895 16.9399 13.8835"></polygon>
                    <polygon id="Fill-60" fill="#FBBA00" mask="url(#mask-2)" points="12.9687 12.7946 12.9587 12.8036 12.1947 12.5206 11.4097 12.2316 11.4097 13.0676 11.4117 13.8826 11.4037 13.8896 11.4117 13.8996 11.4117 13.9056 11.4167 13.9046 12.3887 15.2986 12.3847 15.2986 12.3897 15.2986 12.4017 15.3176 12.4137 15.3096 13.1707 15.5866 13.9547 15.8776 13.9537 15.0396 13.9507 14.2356 13.9677 14.2276"></polygon>
                    <polygon id="Fill-61" fill="#FBBA00" mask="url(#mask-2)" points="16.9439 16.5631 16.9449 15.7251 16.1589 16.0161 15.3939 16.2971 15.3839 16.2891 14.3849 17.7201 14.4009 17.7291 14.3979 18.5371 14.3959 19.3731 15.1829 19.0821 15.9369 18.8041 15.9509 18.8141 15.9629 18.7951 15.9679 18.7931 15.9659 18.7921 16.9379 17.3971 16.9399 17.3981 16.9399 17.3931 16.9499 17.3831 16.9399 17.3811"></polygon>
                    <polygon id="Fill-62" fill="#FBBA00" mask="url(#mask-2)" points="12.9687 16.2894 12.9587 16.2974 12.1947 16.0164 11.4097 15.7254 11.4097 16.5634 11.4117 17.3804 11.4037 17.3834 11.4117 17.3924 11.4117 17.3984 11.4167 17.3974 12.3887 18.7924 12.3847 18.7934 12.3897 18.7954 12.4017 18.8144 12.4137 18.8044 13.1707 19.0814 13.9547 19.3724 13.9537 18.5364 13.9507 17.7294 13.9677 17.7204"></polygon>
                    <polygon id="Fill-63" fill="#FBBA00" mask="url(#mask-2)" points="16.9439 20.0585 16.9449 19.2225 16.1589 19.5115 15.3939 19.7945 15.3839 19.7855 14.3849 21.2165 14.4009 21.2255 14.3979 22.0305 14.3959 22.8705 15.1829 22.5785 15.9369 22.3005 15.9509 22.3095 15.9629 22.2925 15.9679 22.2905 15.9659 22.2895 16.9379 20.8935 16.9399 20.8945 16.9399 20.8925 16.9499 20.8795 16.9399 20.8735"></polygon>
                    <polygon id="Fill-64" fill="#FBBA00" mask="url(#mask-2)" points="12.9687 19.7857 12.9587 19.7947 12.1947 19.5107 11.4097 19.2227 11.4097 20.0587 11.4117 20.8737 11.4037 20.8797 11.4117 20.8927 11.4117 20.8947 11.4167 20.8937 12.3887 22.2887 12.3847 22.2907 12.3897 22.2927 12.4017 22.3097 12.4137 22.3007 13.1707 22.5787 13.9547 22.8707 13.9537 22.0307 13.9507 21.2257 13.9677 21.2167"></polygon>
                    <polygon id="Fill-65" fill="#FBBA00" mask="url(#mask-2)" points="16.9439 23.5548 16.9449 22.7168 16.1589 23.0068 15.3939 23.2888 15.3839 23.2808 14.3849 24.7128 14.3989 24.7228 14.3979 25.5278 14.3959 26.3648 15.1809 26.0738 15.9369 25.7958 15.9489 25.8068 15.9629 25.7868 15.9679 25.7868 15.9639 25.7848 16.9379 24.3928 16.9399 24.3938 16.9399 24.3888 16.9479 24.3748 16.9399 24.3698"></polygon>
                    <polygon id="Fill-66" fill="#FBBA00" mask="url(#mask-2)" points="13.9511 24.7232 13.9661 24.7132 12.9671 23.2812 12.9591 23.2892 12.1921 23.0072 11.4081 22.7172 11.4101 23.5552 11.4121 24.3692 11.4031 24.3752 11.4121 24.3882 11.4121 24.3942 11.4161 24.3922 12.3861 25.7842 12.3821 25.7872 12.3901 25.7872 12.4011 25.8072 12.4141 25.7962 13.1701 26.0742 13.9551 26.3642 13.9511 25.5272"></polygon>
                    <polygon id="Fill-67" fill="#F18E00" mask="url(#mask-2)" points="11.408 5.2403 11.41 6.0793 11.412 6.8953 11.403 6.9013 11.412 6.9113 11.412 6.9173 11.416 6.9153 12.386 8.3063 12.382 8.3083 12.39 8.3103 12.401 8.3293 12.414 8.3203 13.17 8.5993 13.955 8.8883 13.951 8.0503 13.951 7.2473 13.967 7.2373 12.967 5.8063 12.959 5.8143 12.192 5.5313"></polygon>
                    <polygon id="Fill-68" fill="#F18E00" mask="url(#mask-2)" points="11.41 8.7367 11.41 9.5727 11.412 10.3897 11.404 10.3957 11.412 10.4057 11.412 10.4107 11.416 10.4077 12.389 11.8047 12.39 11.8047 12.401 11.8237 12.414 11.8137 13.17 12.0937 13.955 12.3817 13.954 11.5447 13.951 10.7407 13.967 10.7297 12.969 9.3027 12.959 9.3087 12.195 9.0267"></polygon>
                    <polygon id="Fill-69" fill="#F18E00" mask="url(#mask-2)" points="11.41 12.2314 11.41 13.0674 11.412 13.8834 11.404 13.8894 11.412 13.8994 11.412 13.9064 11.416 13.9044 12.389 15.2984 12.385 15.2994 12.39 15.2994 12.401 15.3174 12.414 15.3104 13.17 15.5874 13.955 15.8784 13.954 15.0394 13.951 14.2354 13.967 14.2274 12.969 12.7944 12.959 12.8034 12.195 12.5204"></polygon>
                    <polygon id="Fill-70" fill="#F18E00" mask="url(#mask-2)" points="11.41 15.7253 11.41 16.5633 11.412 17.3813 11.404 17.3833 11.412 17.3923 11.412 17.3983 11.416 17.3973 12.389 18.7923 12.385 18.7933 12.39 18.7953 12.401 18.8143 12.414 18.8043 13.17 19.0813 13.955 19.3723 13.954 18.5363 13.951 17.7293 13.967 17.7203 12.969 16.2893 12.959 16.2973 12.195 16.0163"></polygon>
                    <polygon id="Fill-71" fill="#F18E00" mask="url(#mask-2)" points="11.41 19.2224 11.41 20.0584 11.412 20.8734 11.404 20.8794 11.412 20.8924 11.412 20.8944 11.416 20.8934 12.389 22.2894 12.385 22.2904 12.39 22.2924 12.401 22.3094 12.414 22.3014 13.17 22.5784 13.955 22.8704 13.954 22.0304 13.951 21.2254 13.967 21.2164 12.969 19.7854 12.959 19.7944 12.195 19.5114"></polygon>
                    <polygon id="Fill-72" fill="#F18E00" mask="url(#mask-2)" points="11.408 22.7171 11.41 23.5551 11.412 24.3691 11.403 24.3751 11.412 24.3891 11.412 24.3941 11.416 24.3921 12.386 25.7851 12.382 25.7871 12.39 25.7871 12.401 25.8071 12.414 25.7961 13.17 26.0741 13.955 26.3641 13.951 25.5271 13.951 24.7231 13.967 24.7131 12.967 23.2811 12.959 23.2891 12.192 23.0071"></polygon>
                    <polygon id="Fill-73" fill="#E8AB00" mask="url(#mask-2)" points="14.1765 1.9475 13.7515 2.5335 13.2715 3.1925 13.2575 3.1925 13.2205 4.9385 13.2575 3.1925 13.2715 3.1925 13.7515 2.5335"></polygon>
                    <polygon id="Fill-74" fill="#F18E00" mask="url(#mask-2)" points="14.1765 1.9476 13.7515 2.5336 13.2715 3.1926 13.2575 3.1926 13.2205 4.9386 13.2385 4.9386 13.6845 5.6076 14.1465 6.3066 14.1765 6.2636"></polygon>
                    <polygon id="Fill-75" fill="#FBBA00" mask="url(#mask-2)" points="13.967 34.64 14.387 34.64 14.387 26.801 13.967 26.801"></polygon>
                </g>
                <g id="Group-93" transform="translate(5.346200, 50.394400)">
                    <path d="M28.3861,14.172 C28.3861,22 22.0411,28.345 14.2131,28.345 C6.3861,28.345 0.0401,22 0.0401,14.172 C0.0401,6.345 6.3861,0 14.2131,0 C22.0411,0 28.3861,6.345 28.3861,14.172" id="Fill-77" fill="#EEEEF2"></path>
                    <path d="M18.7829,7.0328 C18.7119,6.9258 18.6399,6.8218 18.5649,6.7208 C16.6499,4.1388 13.2489,3.5938 10.2939,5.3938 C7.8589,6.8778 7.8029,9.1598 7.7549,11.1728 C7.7429,11.6678 7.7329,12.1348 7.6899,12.5928 C7.6339,13.2028 7.5559,13.7928 7.4799,14.3638 C7.3819,15.1018 7.2799,15.8638 7.2269,16.6728 C7.1249,18.2238 7.4459,19.5148 8.2669,20.8598 C10.4329,24.4078 14.6999,24.7168 17.5729,22.9658 C18.5889,22.3478 19.4299,21.4798 20.0069,20.4578 C20.4449,19.6808 20.7819,18.7508 20.9809,17.7678 C21.6759,14.3398 20.8129,10.1268 18.7829,7.0328" id="Fill-79" fill="#FBBA00"></path>
                    <path d="M11.2476,4.8998 C10.9266,5.0388 10.6076,5.2028 10.2946,5.3938 C7.8586,6.8778 7.8026,9.1598 7.7556,11.1728 C7.7426,11.6678 7.7326,12.1338 7.6906,12.5928 C7.6346,13.2028 7.5556,13.7928 7.4796,14.3638 C7.3816,15.1008 7.2796,15.8638 7.2266,16.6728 C7.2136,16.8608 7.2076,17.0448 7.2086,17.2258 C7.2076,17.0448 7.2136,16.8608 7.2266,16.6728 C7.2796,15.8638 7.3816,15.1008 7.4796,14.3638 C7.5556,13.7928 7.6346,13.2028 7.6906,12.5928 C7.7326,12.1338 7.7426,11.6678 7.7556,11.1728 C7.8026,9.1598 7.8586,6.8778 10.2946,5.3938 C10.6076,5.2028 10.9266,5.0388 11.2476,4.8998" id="Fill-80" fill="#E9AB00"></path>
                    <path d="M13.8716,4.3411 C13.0076,4.3411 12.1176,4.5251 11.2476,4.9001 C10.9266,5.0381 10.6076,5.2031 10.2946,5.3941 C7.8586,6.8781 7.8026,9.1601 7.7556,11.1731 C7.7426,11.6681 7.7326,12.1341 7.6906,12.5931 C7.6346,13.2031 7.5556,13.7931 7.4796,14.3631 C7.3816,15.1011 7.2796,15.8641 7.2266,16.6731 C7.2136,16.8611 7.2076,17.0441 7.2086,17.2251 C7.2096,18.5371 7.5446,19.6781 8.2666,20.8601 C9.6026,23.0471 11.7356,24.0011 13.8486,24.0011 C14.5766,24.0011 15.3016,23.8881 15.9916,23.6731 C14.6266,23.2291 13.3736,22.3241 12.4786,20.8601 C11.6576,19.5151 11.3366,18.2241 11.4386,16.6731 C11.4916,15.8641 11.5936,15.1011 11.6916,14.3631 C11.7676,13.7931 11.8466,13.2031 11.9026,12.5931 C11.9446,12.1341 11.9546,11.6681 11.9676,11.1731 C12.0156,9.1601 12.0706,6.8781 14.5066,5.3941 C14.9776,5.1071 15.4606,4.8861 15.9456,4.7171 C15.2896,4.4681 14.5896,4.3411 13.8716,4.3411" id="Fill-81" fill="#F18E00"></path>
                    <path d="M15.9917,17.714 C15.5607,17.714 15.2107,18.064 15.2107,18.495 C15.2107,18.925 15.5607,19.275 15.9917,19.275 C16.4227,19.275 16.7717,18.925 16.7717,18.495 C16.7717,18.064 16.4227,17.714 15.9917,17.714" id="Fill-82" fill="#F18E00"></path>
                    <path d="M9.9024,18.495 C9.9024,18.78 9.6724,19.011 9.3864,19.011 C9.1004,19.011 8.8694,18.78 8.8694,18.495 C8.8694,18.209 9.1004,17.978 9.3864,17.978 C9.6724,17.978 9.9024,18.209 9.9024,18.495" id="Fill-83" fill="#FBBA00"></path>
                    <path d="M18.0655,12.4309 C17.7795,12.4309 17.5485,12.6619 17.5485,12.9479 C17.5485,13.2329 17.7795,13.4649 18.0655,13.4649 C18.3505,13.4649 18.5815,13.2329 18.5815,12.9479 C18.5815,12.6619 18.3505,12.4309 18.0655,12.4309" id="Fill-84" fill="#F18E00"></path>
                    <path d="M14.1901,14.6517 C14.0401,14.6517 13.9181,14.7737 13.9181,14.9247 C13.9181,15.0757 14.0401,15.1977 14.1901,15.1977 C14.3411,15.1977 14.4631,15.0757 14.4631,14.9247 C14.4631,14.7737 14.3411,14.6517 14.1901,14.6517" id="Fill-85" fill="#F18E00"></path>
                    <path d="M15.9917,8.9764 C15.8407,8.9764 15.7187,9.0984 15.7187,9.2484 C15.7187,9.3994 15.8407,9.5214 15.9917,9.5214 C16.1427,9.5214 16.2647,9.3994 16.2647,9.2484 C16.2647,9.0984 16.1427,8.9764 15.9917,8.9764" id="Fill-86" fill="#F18E00"></path>
                    <path d="M9.932,12.1576 C9.932,12.3086 9.81,12.4306 9.659,12.4306 C9.508,12.4306 9.386,12.3086 9.386,12.1576 C9.386,12.0066 9.508,11.8846 9.659,11.8846 C9.81,11.8846 9.932,12.0066 9.932,12.1576" id="Fill-87" fill="#FBBA00"></path>
                    <path d="M11.2583,7.7666 C11.2583,7.9176 11.1363,8.0396 10.9843,8.0396 C10.8343,8.0396 10.7123,7.9176 10.7123,7.7666 C10.7123,7.6156 10.8343,7.4936 10.9843,7.4936 C11.1363,7.4936 11.2583,7.6156 11.2583,7.7666" id="Fill-88" fill="#FBBA00"></path>
                    <path d="M28.346,55.8424 C28.346,63.6704 22.001,70.0154 14.173,70.0154 C6.346,70.0154 0,63.6704 0,55.8424 C0,48.0154 6.346,41.6694 14.173,41.6694 C22.001,41.6694 28.346,48.0154 28.346,55.8424" id="Fill-89" fill="#EDEDED"></path>
                    <path d="M13.719,49.6723 C12.811,49.7973 11.979,50.2523 11.399,50.9583 C10.919,51.5393 10.73,52.2823 10.856,53.0153 L13.467,66.5243 C13.543,66.9023 13.858,67.1673 14.25,67.1803 C14.476,67.1803 14.666,67.0923 14.804,66.9523 C14.918,66.8393 14.981,66.7013 15.018,66.5373 L17.617,53.0403 C17.769,52.3083 17.567,51.5513 17.075,50.9833 C16.47,50.2773 15.58,49.7913 14.754,49.6973 C14.226,49.6173 13.719,49.6723 13.719,49.6723" id="Fill-90" fill="#EE7203"></path>
                    <polyline id="Fill-91" fill="#DA5D07" points="15.332 64.909 15.018 66.538 15.332 64.909"></polyline>
                    <path d="M14.2996,49.6567 C14.2996,49.6757 14.2996,49.6957 14.2996,49.7147 C14.3426,49.6987 14.3836,49.6807 14.4246,49.6627 C14.3916,49.6607 14.3596,49.6587 14.3286,49.6577 C14.3186,49.6577 14.3096,49.6567 14.2996,49.6567 M14.1616,49.6547 C13.9116,49.6547 13.7186,49.6727 13.7186,49.6727 C12.8116,49.7977 11.9786,50.2517 11.3986,50.9587 C11.0166,51.4217 10.8186,51.9877 10.8176,52.5687 C10.8176,52.7167 10.8306,52.8667 10.8556,53.0147 L13.4666,66.5237 C13.5426,66.9027 13.8586,67.1677 14.2496,67.1807 C14.4766,67.1807 14.6656,67.0927 14.8046,66.9527 C14.9176,66.8397 14.9806,66.7007 15.0186,66.5377 L15.3316,64.9087 L15.3326,64.9087 L15.2496,65.3387 L13.2376,65.3387 L12.8806,63.4917 L15.0586,63.4917 L14.7416,61.8537 L12.5646,61.8537 L12.2076,60.0077 L14.3846,60.0077 L14.0676,58.3687 L11.8906,58.3687 L11.5336,56.5227 L13.7116,56.5227 L13.3946,54.8837 L11.2176,54.8837 L10.8606,53.0387 L13.0376,53.0387 L13.0336,53.0147 C12.9076,52.2827 13.0966,51.5397 13.5756,50.9587 C14.0196,50.4187 14.6296,50.0237 15.2896,49.8127 C15.1406,49.7687 14.9586,49.7327 14.8116,49.7067 C14.6226,49.7747 14.4246,49.8307 14.2166,49.8757 L14.2056,49.7507 C14.2056,49.7507 14.2056,49.7507 14.2066,49.7507 C14.2026,49.7177 14.1986,49.6867 14.1936,49.6547 C14.1826,49.6547 14.1716,49.6547 14.1616,49.6547" id="Fill-92" fill="#E63312"></path>
                </g>
                <g id="Group-103" transform="translate(16.164298, 95.904100)">
                    <mask id="mask-4" fill="white">
                        <use xlink:href="#path-3"></use>
                    </mask>
                    <g id="Clip-95"></g>
                    <path d="M6.84930242,7.5207 L2.25630242,7.5207 L2.61430242,9.3707 L6.49330242,9.3707 L6.84930242,7.5227 C6.84930242,7.5217 6.84930242,7.5217 6.84930242,7.5207" id="Fill-94" fill="#E9530E" mask="url(#mask-4)"></path>
                    <polygon id="Fill-96" fill="#E52713" mask="url(#mask-4)" points="2.25670242 7.5207 0.0737024195 7.5207 0.430702419 9.3707 2.61470242 9.3707"></polygon>
                    <polygon id="Fill-97" fill="#E9530E" mask="url(#mask-4)" points="6.17660242 11.0148 2.93160242 11.0148 3.28960242 12.8658 5.82060242 12.8658"></polygon>
                    <polygon id="Fill-98" fill="#E52713" mask="url(#mask-4)" points="2.93190242 11.0148 0.748902419 11.0148 1.10590242 12.8658 3.28990242 12.8658"></polygon>
                    <polygon id="Fill-99" fill="#E9530E" mask="url(#mask-4)" points="5.50360242 14.5097 3.60760242 14.5097 3.96460242 16.3607 5.14760242 16.3607"></polygon>
                    <polygon id="Fill-100" fill="#E52713" mask="url(#mask-4)" points="3.60730242 14.5097 1.42330242 14.5097 1.78130242 16.3607 3.96530242 16.3607"></polygon>
                    <polygon id="Fill-101" fill="#E9530E" mask="url(#mask-4)" points="4.83080242 18.0041 4.28280242 18.0041 4.55680242 19.4251"></polygon>
                    <polygon id="Fill-102" fill="#E52713" mask="url(#mask-4)" points="4.28270242 18.0041 2.09970242 18.0041 2.45670242 19.8561 4.47470242 19.8561 4.55770242 19.4251"></polygon>
                </g>
                <g id="Group-137" transform="translate(5.274600, 94.810300)">
                    <path d="M14.2877,5.4598 L14.2767,5.3348 C14.8717,5.1188 15.3017,4.7878 15.5607,4.3418 C15.8197,3.8978 15.9397,3.4138 15.9177,2.8918 C15.7637,3.1258 15.5417,3.2588 15.2507,3.2888 C14.8147,3.3318 14.4427,3.2228 14.1337,2.9588 C13.8237,2.6958 13.6487,2.3578 13.6077,1.9428 C13.5597,1.4658 13.6807,1.0498 13.9697,0.6968 C14.2587,0.3418 14.6337,0.1418 15.0907,0.0978 C15.5867,0.0478 16.0407,0.1978 16.4477,0.5448 C16.8537,0.8908 17.0807,1.3198 17.1327,1.8268 C17.2297,2.8028 17.0067,3.6028 16.4597,4.2288 C15.9157,4.8538 15.1917,5.2658 14.2877,5.4598" id="Fill-104" fill="#65B32E"></path>
                    <path d="M15.3056,0.0885 C15.3006,0.0885 15.2956,0.0885 15.2906,0.0885 C15.7096,0.0925 16.0956,0.2445 16.4476,0.5445 C16.5766,0.6535 16.6866,0.7715 16.7796,0.8975 C16.7896,0.9025 16.8006,0.9065 16.8106,0.9115 C16.7166,0.7815 16.6106,0.6565 16.4786,0.5445 C16.1216,0.2405 15.7306,0.0885 15.3056,0.0885" id="Fill-106" fill="#5EA72B"></path>
                    <path d="M15.2904,0.0886 C15.2344,0.0896 15.1784,0.0926 15.1214,0.0976 C14.6654,0.1426 14.2894,0.3416 14.0014,0.6966 C13.7104,1.0496 13.5904,1.4666 13.6384,1.9426 C13.6794,2.3576 13.8544,2.6956 14.1644,2.9586 C14.3114,3.0846 14.4724,3.1726 14.6484,3.2286 C14.5424,3.0426 14.4734,2.8386 14.4514,2.6076 C14.4024,2.1306 14.5224,1.7146 14.8144,1.3606 C15.1014,1.0076 15.4764,0.8086 15.9334,0.7626 C15.9894,0.7566 16.0464,0.7546 16.1014,0.7546 C16.3384,0.7546 16.5634,0.8046 16.7794,0.8976 C16.6864,0.7716 16.5764,0.6536 16.4474,0.5446 C16.0954,0.2446 15.7094,0.0926 15.2904,0.0886" id="Fill-107" fill="#009F3C"></path>
                    <path d="M14.3699,5.3695 L14.2809,5.3565 C14.2299,4.9045 14.0709,4.5475 13.8049,4.2905 C13.5399,4.0345 13.2209,3.8695 12.8539,3.7945 C12.9929,3.9435 13.0459,4.1205 13.0179,4.3285 C12.9749,4.6415 12.8339,4.8815 12.5989,5.0525 C12.3629,5.2245 12.0959,5.2895 11.7989,5.2475 C11.4579,5.2005 11.1879,5.0465 10.9909,4.7835 C10.7939,4.5215 10.7179,4.2265 10.7629,3.9005 C10.8129,3.5445 10.9939,3.2535 11.3049,3.0285 C11.6159,2.8035 11.9529,2.7165 12.3169,2.7675 C13.0139,2.8645 13.5359,3.1565 13.8789,3.6445 C14.2229,4.1295 14.3879,4.7055 14.3699,5.3695" id="Fill-108" fill="#65B32E"></path>
                    <path d="M11.3106,3.0243 C11.3086,3.0253 11.3066,3.0273 11.3056,3.0283 C10.9946,3.2533 10.8126,3.5443 10.7636,3.9003 C10.7546,3.9613 10.7506,4.0213 10.7506,4.0803 C10.7506,4.0213 10.7546,3.9613 10.7636,3.9003 C10.8126,3.5443 10.9946,3.2533 11.3056,3.0283 C11.3066,3.0273 11.3086,3.0253 11.3106,3.0243 M12.1146,2.7533 C11.8406,2.7533 11.5826,2.8373 11.3406,3.0033 C11.5826,2.8373 11.8406,2.7533 12.1146,2.7533" id="Fill-109" fill="#5EA72B"></path>
                    <path d="M12.1164,2.7535 L12.1144,2.7535 C11.8404,2.7535 11.5834,2.8375 11.3414,3.0035 C11.3404,3.0035 11.3404,3.0035 11.3404,3.0035 C11.3304,3.0095 11.3214,3.0165 11.3114,3.0235 C11.3114,3.0235 11.3104,3.0245 11.3104,3.0245 C11.3084,3.0255 11.3074,3.0265 11.3054,3.0285 C10.9944,3.2535 10.8134,3.5445 10.7634,3.9005 C10.7544,3.9615 10.7504,4.0215 10.7504,4.0805 C10.7504,4.3355 10.8304,4.5705 10.9904,4.7835 C11.1374,4.9765 11.3224,5.1105 11.5474,5.1875 C11.4114,4.9585 11.3444,4.7115 11.3824,4.4345 C11.4324,4.0795 11.6144,3.7885 11.9254,3.5625 C12.1784,3.3805 12.4484,3.2885 12.7374,3.2875 C12.8034,3.2875 12.8694,3.2925 12.9374,3.3025 C13.2744,3.3495 13.5704,3.4445 13.8254,3.5835 C13.4824,3.1355 12.9824,2.8605 12.3174,2.7675 C12.3144,2.7675 12.3124,2.7675 12.3094,2.7665 C12.2444,2.7575 12.1804,2.7535 12.1164,2.7535 L12.1164,2.7535" id="Fill-110" fill="#009F3C"></path>
                    <path d="M28.4176,53.2389 C28.4176,61.0669 22.0736,67.4119 14.2446,67.4119 C6.4176,67.4119 0.0716,61.0669 0.0716,53.2389 C0.0716,45.4119 6.4176,39.0669 14.2446,39.0669 C22.0736,39.0669 28.4176,45.4119 28.4176,53.2389" id="Fill-111" fill="#EDEDED"></path>
                    <path d="M18.6771,54.1053 C18.3721,52.5463 18.9561,47.7063 17.1111,46.5903 C17.2121,45.7093 18.0561,44.4153 18.3861,43.9603 C18.7301,43.4883 19.0761,42.9333 18.8371,42.8513 C18.5951,42.7703 18.4811,42.7113 18.4811,42.7113 C18.0711,42.7343 17.9981,42.9503 17.7961,43.2313 C17.5971,43.5143 16.4241,45.5873 16.2891,45.9963 C16.2361,46.1473 16.1761,46.2723 16.1101,46.3813 C14.0541,46.6163 11.8211,50.4423 10.7111,51.4553 C9.4721,52.5783 7.5881,53.5473 6.9611,55.4343 C5.8261,58.8423 7.7511,62.2753 11.1581,63.4063 C14.5611,64.5383 18.1601,62.9443 19.2951,59.5383 C19.9221,57.6493 18.9921,55.7483 18.6771,54.1053" id="Fill-112" fill="#65B32E"></path>
                    <path d="M17.1111,46.5902 C17.2121,45.7092 18.0561,44.4152 18.3861,43.9602 C18.7301,43.4882 19.0761,42.9332 18.8381,42.8512 C18.5951,42.7702 18.4811,42.7112 18.4811,42.7112 C18.0711,42.7342 17.9981,42.9502 17.7961,43.2312 C17.5971,43.5142 16.4241,45.5872 16.2891,45.9962 C16.2361,46.1472 16.1761,46.2722 16.1101,46.3812 L17.1111,46.5902 Z" id="Fill-113" fill="#F9B14A"></path>
                    <path d="M16.1097,46.3815 C14.0537,46.6165 11.8217,50.4425 10.7107,51.4555 C9.4727,52.5785 7.5877,53.5465 6.9607,55.4345 C5.8257,58.8425 7.7507,62.2755 11.1577,63.4065 C14.5607,64.5385 18.1597,62.9435 19.2947,59.5385 C19.9217,57.6495 18.9927,55.7485 18.6767,54.1055 C18.3727,52.5465 18.9557,47.7065 17.1107,46.5905 L16.1097,46.3815 Z" id="Fill-114" fill="#65B32E"></path>
                    <path d="M16.1097,46.3815 C14.0537,46.6165 11.8217,50.4425 10.7107,51.4555 C9.4727,52.5785 7.5877,53.5465 6.9607,55.4345 C6.7387,56.0995 6.6337,56.7665 6.6337,57.4165 C6.6347,60.0955 8.4157,62.4965 11.1577,63.4065 C11.8897,63.6495 12.6317,63.7665 13.3547,63.7665 C13.9087,63.7665 14.4527,63.6975 14.9727,63.5645 C14.7867,63.5185 14.5977,63.4685 14.4107,63.4065 C11.0017,62.2755 9.0787,58.8425 10.2137,55.4345 C10.8387,53.5465 12.7237,52.5785 13.9627,51.4555 C14.7787,50.7105 16.2027,48.4495 17.7157,47.2075 C17.5517,46.9505 17.3527,46.7375 17.1107,46.5905 L16.1097,46.3815 Z" id="Fill-115" fill="#009F3C"></path>
                    <path d="M19.3398,47.3882 C20.6358,46.9762 21.8528,45.0712 21.8528,45.0712 C21.8528,45.0712 19.7538,44.2222 18.4558,44.6392 C17.1628,45.0512 17.1588,46.5672 17.1588,46.5672 C17.1588,46.5672 18.0418,47.8042 19.3398,47.3882" id="Fill-116" fill="#65B32E"></path>
                    <path d="M18.4555,44.6395 C17.1625,45.0505 17.1595,46.5675 17.1595,46.5675 L21.8445,45.0665 C21.7565,45.0315 19.7245,44.2315 18.4555,44.6395" id="Fill-117" fill="#65B32E"></path>
                    <path d="M28.4176,94.7175 C28.4176,102.5445 22.0736,108.8905 14.2456,108.8905 C6.4176,108.8905 0.0716,102.5445 0.0716,94.7175 C0.0716,86.8895 6.4176,80.5455 14.2456,80.5455 C22.0736,80.5455 28.4176,86.8895 28.4176,94.7175" id="Fill-118" fill="#EEEEF2"></path>
                    <polygon id="Fill-119" fill="#FFFFFF" points="13.9797 86.6548 14.4877 86.6548 14.4877 85.0118 13.9797 85.0118"></polygon>
                    <polygon id="Fill-120" fill="#FFFFFF" points="9.2217 103.1368 19.2917 103.1368 19.2917 88.8648 9.2217 88.8648"></polygon>
                    <polygon id="Fill-121" fill="#FFFFFF" points="9.2212 88.8647 14.2332 86.3527 19.2912 88.8647"></polygon>
                    <polygon id="Fill-122" fill="#D2CDC8" points="14.233 86.3527 14.237 88.8647 19.291 88.8647"></polygon>
                    <polygon id="Fill-123" fill="#A5DAEC" points="9.2217 97.4248 19.2917 97.4248 19.2917 94.5778 9.2217 94.5778"></polygon>
                    <path d="M17.0923,96.0009 C17.0923,97.5669 15.8233,98.8359 14.2563,98.8359 C12.6903,98.8359 11.4213,97.5669 11.4213,96.0009 C11.4213,94.4339 12.6903,93.1649 14.2563,93.1649 C15.8233,93.1649 17.0923,94.4339 17.0923,96.0009" id="Fill-124" fill="#00AADB"></path>
                    <polygon id="Fill-125" fill="#CCCED0" points="13.9798 86.479 9.1978 88.865 9.2158 88.865"></polygon>
                    <polygon id="Fill-126" fill="#DBDBDB" points="13.9794 86.479 13.9794 86.48 14.2334 86.353"></polygon>
                    <path d="M14.2365,88.8647 L9.2215,88.8647 L9.2215,93.1807 L9.2215,94.5767 L11.8035,94.5767 C12.2925,93.7357 13.2005,93.1697 14.2425,93.1647 L14.2365,88.8647 Z" id="Fill-127" fill="#DBDBDB"></path>
                    <polygon id="Fill-128" fill="#A9A8A2" points="13.9798 86.4795 9.2158 88.8645 9.2208 88.8645"></polygon>
                    <path d="M13.9794,86.4799 L14.2334,86.3529 L13.9794,86.4799 Z" id="Fill-129" fill="#B4B0AC"></path>
                    <polygon id="Fill-130" fill="#B4B0AC" points="14.233 86.3527 13.98 86.4797 9.221 88.8647 14.237 88.8647"></polygon>
                    <path d="M11.8037,97.4245 L9.2217,97.4245 L9.2217,103.1365 L14.2567,103.1365 L14.2507,98.8355 C13.2057,98.8335 12.2937,98.2665 11.8037,97.4245" id="Fill-131" fill="#DBDBDB"></path>
                    <path d="M11.8035,94.577 L9.2215,94.577 L9.2215,96.029 L9.2215,97.424 L11.8035,97.424 C11.5605,97.006 11.4205,96.52 11.4205,96.001 C11.4205,95.482 11.5605,94.995 11.8035,94.577" id="Fill-132" fill="#8EBECB"></path>
                    <path d="M14.2426,93.1649 C13.2006,93.1699 12.2926,93.7359 11.8036,94.5769 C11.5606,94.9949 11.4206,95.4819 11.4206,96.0009 C11.4206,96.5199 11.5606,97.0059 11.8036,97.4249 C12.2936,98.2669 13.2056,98.8339 14.2506,98.8359 L14.2426,93.1649 Z" id="Fill-133" fill="#009BBF"></path>
                    <path d="M15.1416,96.174 C15.1116,96.093 15.0696,96.015 15.0176,95.948 L14.2566,94.544 L13.4926,95.948 C13.4426,96.015 13.4006,96.093 13.3706,96.174 C13.3306,96.278 13.3086,96.392 13.3086,96.508 C13.3086,97.032 13.7316,97.457 14.2566,97.457 C14.7796,97.457 15.2046,97.032 15.2046,96.508 C15.2046,96.392 15.1806,96.278 15.1416,96.174" id="Fill-134" fill="#FFFFFF"></path>
                    <polygon id="Fill-135" fill="#E8E5E2" points="14.2332 85.0111 14.2332 86.3531 14.4872 86.4781 14.4872 85.0111"></polygon>
                    <path d="M28.346,152.52 C28.346,160.346 22.002,166.691 14.173,166.691 C6.346,166.691 0,160.346 0,152.52 C0,144.693 6.346,138.349 14.173,138.349 C22.002,138.349 28.346,144.693 28.346,152.52" id="Fill-136" fill="#EEEEF2"></path>
                </g>
                <g id="Group-140" transform="translate(5.274300, 233.159100)">
                    <mask id="mask-6" fill="white">
                        <use xlink:href="#path-5"></use>
                    </mask>
                    <g id="Clip-139"></g>
                    <path d="M20.0653,10.6196 L34.2233,10.6196 L30.3153,23.8816 L16.6833,32.7536 C16.6833,32.7536 21.6913,42.8536 19.0303,36.1446 C16.3693,29.4336 10.9963,31.6446 10.9963,16.9036 L20.0653,10.6196 Z" id="Fill-138" fill="#3F3C3A" mask="url(#mask-6)"></path>
                </g>
                <g id="Group-196" transform="translate(5.274100, 237.961200)">
                    <path d="M25.7732,2.7059 C23.7992,1.9129 21.6812,1.7429 19.8512,2.9239 C19.4902,3.1629 19.2732,3.0899 19.0322,2.7309 C18.1412,1.4059 16.9862,0.4929 15.3962,0.1779 C15.1292,0.1849 14.8612,0.1799 14.5912,0.1749 C13.9122,0.1619 13.2282,0.1499 12.5572,0.3229 C11.4022,0.6599 10.4852,1.3579 9.8602,2.3199 C9.3542,3.0669 8.9212,3.1629 8.1992,2.6829 C6.6812,1.6459 5.0442,1.9129 3.4312,2.3929 C2.5662,2.6579 2.3222,3.1859 2.6862,4.0049 C3.0232,4.7519 3.5052,5.4019 3.9862,6.0729 C4.7562,7.1829 5.6952,7.7849 7.1632,7.6399 C8.7512,7.4709 8.7512,7.5659 8.9682,9.1569 C9.2832,11.4169 9.5212,13.6799 9.5712,15.9659 C9.5952,17.2189 10.1252,17.9639 11.2082,18.2059 C11.9302,18.2759 12.4832,18.2299 12.9182,18.0859 C13.6152,18.6149 14.9392,18.5909 15.7102,18.1089 C16.1922,18.1809 16.9372,18.2059 17.4202,18.1339 C17.9262,18.0369 19.4902,17.5309 19.3212,16.4729 L19.2502,14.4009 C19.2972,12.3559 19.6342,10.3339 19.8752,8.2879 C19.9232,7.8059 19.8512,6.6509 20.2852,6.7489 C22.6422,7.2289 24.2092,6.0729 24.7132,5.6419 C25.3402,5.1119 26.0142,2.8019 25.7732,2.7059 M18.1182,16.4959 C17.9262,16.8329 17.5872,16.9779 17.2282,17.0979 C17.0832,17.1449 16.9612,17.0729 16.9862,16.9059 C16.1142,16.2769 16.1192,16.4569 16.0292,16.6379 C15.9842,16.7269 15.9172,16.8159 15.7102,16.8079 C15.5412,16.8079 14.9872,16.8319 14.8672,16.8319 L14.4342,16.8559 C13.9282,16.8559 13.1832,16.8319 12.6772,16.8319 C12.2912,16.8319 11.8822,16.9039 11.9302,17.4099 C12.0032,18.0849 11.6412,17.1449 11.2332,17.0249 C10.4372,16.3519 10.4372,16.2069 11.1582,15.2439 C11.4242,15.0279 11.8112,14.9319 11.8822,14.5699 C12.0982,13.6069 13.0612,10.8399 13.2772,10.4779 C13.3262,10.3099 13.3502,10.1169 13.3762,9.9509 C13.4242,9.5639 13.4722,9.1779 13.4942,8.7939 C13.4942,8.1689 13.4722,7.5429 13.4722,7.0129 C13.3032,5.9789 12.7972,5.0639 11.5922,4.3669 L11.4742,4.3179 C10.5822,3.1859 10.7492,2.1519 12.0032,1.4529 C13.5442,0.6109 15.1322,0.5869 16.6492,1.4529 C18.1412,2.3199 18.1662,3.8609 16.6242,4.6309 C15.8522,5.0169 15.5892,5.5689 15.4212,6.2899 C15.2292,7.0859 15.1322,7.8799 15.1322,8.6729 C15.1322,8.8649 15.1322,9.0589 15.1562,9.2759 C15.1562,9.3729 15.1792,9.4679 15.1792,9.5639 C15.2292,10.0439 15.3242,10.5499 15.4452,11.0319 C15.9742,11.9709 16.1442,13.0539 16.5522,14.0409 C16.6962,14.3779 16.8182,14.6909 17.1792,14.8829 C17.4922,15.0519 17.7812,15.3169 17.9722,15.6289 C18.1182,15.8949 18.2862,16.1579 18.1182,16.4959" id="Fill-141" fill="#5C5957"></path>
                    <path d="M17.9118,2.9472 C17.9118,4.5422 16.2768,5.8362 14.2578,5.8362 C12.2388,5.8362 10.6028,4.5422 10.6028,2.9472 C10.6028,1.3492 12.2388,0.0562 14.2578,0.0562 C16.2768,0.0562 17.9118,1.3492 17.9118,2.9472" id="Fill-143" fill="#5C5957"></path>
                    <path d="M19.3803,16.5647 C19.3803,15.9007 19.0183,15.3247 18.4853,15.0107 L18.4893,15.0107 C18.4893,15.0107 15.1583,10.6347 16.9643,7.0367 C18.7693,3.4367 14.4823,0.0577 14.4823,0.0577 C14.4823,0.0577 10.2013,3.4367 12.0053,7.0367 C13.8103,10.6347 10.4113,15.1257 10.4113,15.1257 L10.4113,15.1257 C9.9753,15.4577 9.6893,15.9747 9.6893,16.5647 C9.6893,17.5647 10.5003,18.3767 11.5003,18.3767 L17.6813,18.3767 L17.6813,18.3667 C18.6273,18.3067 19.3803,17.5267 19.3803,16.5647" id="Fill-144" fill="#FFFFFF"></path>
                    <path d="M13.2104,16.0579 C13.2104,16.7779 12.6264,17.3619 11.9084,17.3619 C11.1864,17.3619 10.6034,16.7779 10.6034,16.0579 C10.6034,15.3369 11.1864,14.7539 11.9084,14.7539 C12.6264,14.7539 13.2104,15.3369 13.2104,16.0579" id="Fill-145" fill="#FFFFFF"></path>
                    <path d="M17.0617,17.4727 C17.0617,18.0187 16.4137,18.4627 15.6197,18.4627 L13.1917,18.4627 C12.3987,18.4627 11.7487,18.0187 11.7487,17.4727 L11.7487,17.0047 C11.7487,16.4607 12.3987,16.0147 13.1917,16.0147 L15.6197,16.0147 C16.4137,16.0147 17.0617,16.4607 17.0617,17.0047 L17.0617,17.4727 Z" id="Fill-146" fill="#F6B5C0"></path>
                    <path d="M17.0054,17.3619 C17.0054,17.6409 16.7774,17.8659 16.5004,17.8659 C16.2214,17.8659 15.9964,17.6409 15.9964,17.3619 C15.9964,17.0829 16.2214,16.8579 16.5004,16.8579 C16.7774,16.8579 17.0054,17.0829 17.0054,17.3619" id="Fill-147" fill="#474442"></path>
                    <path d="M16.5002,16.8582 C16.2222,16.8582 15.9962,17.0832 15.9962,17.3622 C15.9962,17.6412 16.2222,17.8662 16.5002,17.8662 L16.6742,17.8352 C16.4822,17.7632 16.3432,17.5812 16.3432,17.3622 C16.3432,17.1452 16.4822,16.9622 16.6742,16.8912 L16.5002,16.8582 Z" id="Fill-148" fill="#393633"></path>
                    <path d="M12.8142,17.3619 C12.8142,17.6409 12.5892,17.8659 12.3092,17.8659 C12.0302,17.8659 11.8052,17.6409 11.8052,17.3619 C11.8052,17.0829 12.0302,16.8579 12.3092,16.8579 C12.5892,16.8579 12.8142,17.0829 12.8142,17.3619" id="Fill-149" fill="#474442"></path>
                    <path d="M10.94,9.0442 C10.94,9.4892 10.578,9.8502 10.133,9.8502 C9.687,9.8502 9.327,9.4892 9.327,9.0442 C9.327,8.5982 9.687,8.2372 10.133,8.2372 C10.578,8.2372 10.94,8.5982 10.94,9.0442" id="Fill-150" fill="#474442"></path>
                    <path d="M10.1326,9.0442 C10.1326,9.1662 10.0346,9.2652 9.9106,9.2652 C9.7896,9.2652 9.6886,9.1662 9.6886,9.0442 C9.6886,8.9212 9.7896,8.8232 9.9106,8.8232 C10.0346,8.8232 10.1326,8.9212 10.1326,9.0442" id="Fill-151" fill="#FFFFFF"></path>
                    <path d="M19.2957,9.0442 C19.2957,9.4892 18.9327,9.8502 18.4887,9.8502 C18.0417,9.8502 17.6817,9.4892 17.6817,9.0442 C17.6817,8.5982 18.0417,8.2372 18.4887,8.2372 C18.9327,8.2372 19.2957,8.5982 19.2957,9.0442" id="Fill-152" fill="#474442"></path>
                    <path d="M18.4891,8.599 C18.2421,8.599 18.0431,8.798 18.0431,9.044 C18.0431,9.288 18.2421,9.489 18.4891,9.489 C18.7321,9.489 18.9321,9.288 18.9321,9.044 C18.9321,8.798 18.7321,8.599 18.4891,8.599" id="Fill-153" fill="#1B1A13"></path>
                    <path d="M18.4891,9.0442 C18.4891,9.1662 18.3881,9.2652 18.2641,9.2652 C18.1431,9.2652 18.0431,9.1662 18.0431,9.0442 C18.0431,8.9212 18.1431,8.8232 18.2641,8.8232 C18.3881,8.8232 18.4891,8.9212 18.4891,9.0442" id="Fill-154" fill="#FFFFFF"></path>
                    <path d="M13.5583,0.9447 C13.5583,0.9447 14.4033,0.0967 15.4303,0.9687 C16.4573,1.8397 15.5633,0.2017 15.5633,0.2017 C15.5633,0.2017 14.4413,-0.0963 13.2273,0.1577 C12.0163,0.4127 13.5583,0.9447 13.5583,0.9447" id="Fill-155" fill="#5C5957"></path>
                    <path d="M9.5711,15.9661 C9.5711,17.0881 9.9851,17.9341 10.8401,18.2531 C10.2871,18.0361 9.8661,17.5541 9.7331,16.9631 C9.6321,16.6771 9.5781,16.3451 9.5711,15.9661 M14.2521,0.0181 C13.9371,0.0181 13.5881,0.0451 13.2271,0.1221 L13.2261,0.1221 C11.0881,0.4041 9.4181,1.5351 9.0551,2.9661 C9.02309752,2.9701 8.9891,2.9731 8.9551,2.9731 C8.7341,2.9731 8.4901,2.8761 8.1991,2.6831 C7.4341,2.1601 6.6391,1.9691 5.8321,1.9691 C5.0371,1.9691 4.2311,2.1541 3.4311,2.3931 C2.8231,2.5791 2.5221,2.8951 2.52309752,3.3521 C2.5221,2.8951 2.8231,2.5791 3.4311,2.3931 C4.2311,2.1541 5.0371,1.9691 5.8321,1.9691 C6.6391,1.9691 7.4341,2.1601 8.1991,2.6831 C8.4921,2.8781 8.7381,2.9781 8.9591,2.9781 C9.2851,2.9781 9.5591,2.7631 9.8601,2.3201 C10.4851,1.3581 11.4021,0.6601 12.5571,0.3231 C12.6831,0.2901 12.8101,0.2641 12.9371,0.2441 C13.0081,0.2131 13.1031,0.1841 13.2271,0.1581 C13.5901,0.0821 13.9451,0.0551 14.2641,0.0551 C14.2911,0.0551 14.3181,0.0551 14.3441,0.0561 L14.3441,0.0191 C14.3141,0.0181 14.2831,0.0181 14.2521,0.0181" id="Fill-156" fill="#D9DBDE"></path>
                    <path d="M12.2503,18.3772 L11.5023,18.3772 C11.6443,18.3872 11.7793,18.3922 11.9073,18.3922 C12.0263,18.3922 12.1413,18.3882 12.2503,18.3772 M12.6063,18.3772 L12.2503,18.3772 C12.3853,18.4582 12.5423,18.4772 12.7133,18.4772 C12.8623,18.4772 13.0233,18.4632 13.1913,18.4632 C12.9833,18.4632 12.7853,18.4322 12.6063,18.3772" id="Fill-157" fill="#3B3835"></path>
                    <path d="M14.3444,18.4627 L14.0744,18.4627 C14.1074,18.4657 14.1404,18.4667 14.1734,18.4667 C14.2304,18.4667 14.2874,18.4637 14.3444,18.4627 M10.1324,9.8497 C9.6874,9.8497 9.3264,9.4897 9.3264,9.0447 C9.3264,8.5987 9.6874,8.2377 10.1324,8.2377 C10.5774,8.2377 10.9404,8.5987 10.9404,9.0447 C10.9404,9.4897 10.5774,9.8497 10.1324,9.8497 M12.9374,0.2437 C12.8104,0.2647 12.6834,0.2907 12.5574,0.3227 C11.4014,0.6597 10.4854,1.3587 9.8594,2.3197 C9.5594,2.7637 9.2844,2.9777 8.9594,2.9777 C8.7374,2.9777 8.4924,2.8777 8.1994,2.6827 C7.4344,2.1607 6.6394,1.9687 5.8324,1.9687 C5.0374,1.9687 4.2314,2.1547 3.4314,2.3927 C2.8234,2.5787 2.5224,2.8957 2.52339752,3.3517 C2.52339752,3.5447 2.5784,3.7617 2.6864,4.0047 C3.02339752,4.7517 3.5044,5.4017 3.9854,6.0727 C4.6804,7.0727 5.5114,7.6607 6.7434,7.6607 C6.8784,7.6607 7.0184,7.6537 7.1634,7.6397 C7.5014,7.6037 7.7684,7.5797 7.9804,7.5797 C8.7614,7.5797 8.7974,7.9057 8.9684,9.1567 C9.2834,11.4167 9.5714,13.6787 9.5714,15.9657 C9.5784,16.3447 9.6314,16.6777 9.7334,16.9637 C9.7044,16.8357 9.6884,16.7017 9.6884,16.5647 C9.6884,15.9747 9.9754,15.4577 10.4114,15.1257 L10.4104,15.1257 C10.4104,15.1257 13.8104,10.6347 12.0054,7.0367 C11.6404,6.3087 11.5244,5.5897 11.5714,4.9057 C10.9704,4.3907 10.6034,3.7027 10.6034,2.9467 C10.6034,1.7287 11.5534,0.6887 12.8984,0.2617 C12.9104,0.2557 12.9234,0.2497 12.9374,0.2437" id="Fill-158" fill="#555251"></path>
                    <path d="M12.8988,0.2621 C11.5538,0.6881 10.6028,1.7291 10.6028,2.9471 C10.6028,3.7031 10.9708,4.3911 11.5718,4.9061 C11.6848,3.2601 12.7448,1.8171 13.5528,0.9431 C13.4638,0.9111 12.3918,0.5231 12.8988,0.2621" id="Fill-159" fill="#555251"></path>
                    <path d="M14.3444,0.5817 C13.8694,0.6317 13.5584,0.9447 13.5584,0.9447 C13.5584,0.9447 13.5564,0.9437 13.5524,0.9427 C12.7444,1.8167 11.6854,3.2597 11.5714,4.9057 C11.5244,5.5897 11.6404,6.3087 12.0054,7.0367 C13.8104,10.6347 10.4104,15.1257 10.4104,15.1257 L10.4114,15.1257 C9.9754,15.4577 9.6884,15.9747 9.6884,16.5647 C9.6884,16.7017 9.7044,16.8347 9.7334,16.9637 C9.8654,17.5537 10.2864,18.0357 10.8404,18.2527 C10.9544,18.2957 11.0774,18.3287 11.2084,18.3517 C11.3094,18.3617 11.4074,18.3707 11.5024,18.3767 L12.2504,18.3767 L12.6064,18.3767 C12.1024,18.2227 11.7484,17.8747 11.7484,17.4727 L11.7484,17.3517 C11.1024,17.2737 10.6034,16.7237 10.6034,16.0577 C10.6034,15.3377 11.1864,14.7537 11.9084,14.7537 C12.6114,14.7537 13.1874,15.3147 13.2094,16.0147 L14.3444,16.0147 C14.3444,16.0147 14.1304,16.0137 14.2164,16.0137 C14.2374,16.0137 14.2774,16.0137 14.3444,16.0147 L14.3444,0.5817 Z" id="Fill-160" fill="#E9E9E9"></path>
                    <path d="M11.908,14.7538 C11.187,14.7538 10.603,15.3368 10.603,16.0578 C10.603,16.7238 11.102,17.2738 11.748,17.3518 L11.748,17.0048 C11.748,16.4608 12.398,16.0148 13.191,16.0148 L13.21,16.0148 C13.187,15.3148 12.612,14.7538 11.908,14.7538" id="Fill-161" fill="#E9E9E9"></path>
                    <path d="M11.8051,17.3619 L11.8051,17.3619 C11.8051,17.0829 12.0301,16.8579 12.3091,16.8579 C12.5901,16.8579 12.8141,17.0829 12.8141,17.3619 C12.8141,17.6409 12.5901,17.8659 12.3091,17.8659 C12.0301,17.8659 11.8051,17.6409 11.8051,17.3619 L11.8051,17.3619 Z M14.3441,16.0149 L13.2101,16.0149 L13.1911,16.0149 C12.3981,16.0149 11.7481,16.4599 11.7481,17.0049 L11.7481,17.3519 L11.7481,17.4729 C11.7481,17.8749 12.1021,18.2229 12.6061,18.3769 C12.7851,18.4319 12.9831,18.4629 13.1911,18.4629 L14.0741,18.4629 L14.3441,18.4629 L14.3441,16.0149 Z" id="Fill-162" fill="#E0A8B1"></path>
                    <path d="M12.3089,16.8582 L12.4839,16.8912 C12.2899,16.9622 12.1519,17.1452 12.1519,17.3622 C12.1519,17.5812 12.2899,17.7632 12.4839,17.8352 L12.3089,17.8662 C12.0309,17.8662 11.8049,17.6412 11.8049,17.3622 C11.8049,17.6412 12.0309,17.8662 12.3089,17.8662 C12.5899,17.8662 12.8139,17.6412 12.8139,17.3622 C12.8139,17.0832 12.5899,16.8582 12.3089,16.8582" id="Fill-163" fill="#423E3B"></path>
                    <path d="M12.3089,16.8582 C12.0309,16.8582 11.8049,17.0832 11.8049,17.3622 C11.8049,17.6412 12.0309,17.8662 12.3089,17.8662 L12.4839,17.8352 C12.2899,17.7632 12.1519,17.5812 12.1519,17.3622 C12.1519,17.1452 12.2899,16.9622 12.4839,16.8912 L12.3089,16.8582 Z" id="Fill-164" fill="#35312E"></path>
                    <path d="M9.689,9.0413 C9.691,8.7963 9.888,8.5993 10.133,8.5993 C10.379,8.5993 10.578,8.7983 10.578,9.0443 C10.578,9.2883 10.379,9.4883 10.133,9.4883 C9.888,9.4883 9.691,9.2893 9.689,9.0473 C9.689,9.0463 9.689,9.0453 9.689,9.0443 C9.689,9.0433 9.689,9.0423 9.689,9.0413 M10.133,8.2373 C9.687,8.2373 9.327,8.5983 9.327,9.0443 C9.327,9.4893 9.687,9.8503 10.133,9.8503 C10.578,9.8503 10.94,9.4893 10.94,9.0443 C10.94,8.5983 10.578,8.2373 10.133,8.2373" id="Fill-165" fill="#423E3B"></path>
                    <path d="M10.1326,8.599 C9.8886,8.599 9.6906,8.797 9.6886,9.041 C9.6906,8.92 9.7906,8.823 9.9106,8.823 C10.0346,8.823 10.1326,8.922 10.1326,9.044 C10.1326,9.166 10.0346,9.266 9.9106,9.266 C9.7906,9.266 9.6906,9.168 9.6886,9.047 C9.6906,9.289 9.8886,9.489 10.1326,9.489 C10.3786,9.489 10.5776,9.288 10.5776,9.044 C10.5776,8.798 10.3786,8.599 10.1326,8.599" id="Fill-166" fill="#181711"></path>
                    <path d="M9.9103,8.8227 C9.7903,8.8227 9.6903,8.9197 9.6893,9.0417 C9.6893,9.0427 9.6893,9.0437 9.6893,9.0437 C9.6893,9.0447 9.6893,9.0457 9.6893,9.0467 C9.6903,9.1677 9.7903,9.2657 9.9103,9.2657 C10.0343,9.2657 10.1323,9.1657 10.1323,9.0437 C10.1323,8.9217 10.0343,8.8227 9.9103,8.8227" id="Fill-167" fill="#E9E9E9"></path>
                    <path d="M14.2646,0.055 C13.9456,0.055 13.5906,0.082 13.2276,0.158 C13.1036,0.184 13.0086,0.213 12.9376,0.244 C12.9236,0.25 12.9106,0.256 12.8986,0.262 C12.3916,0.523 13.4636,0.911 13.5526,0.943 C13.5566,0.944 13.5586,0.945 13.5586,0.945 C13.5586,0.945 13.8696,0.632 14.3446,0.582 L14.3446,0.056 C14.3176,0.055 14.2916,0.055 14.2646,0.055" id="Fill-168" fill="#555251"></path>
                    <path d="M28.494,63.545 C28.494,71.413 22.116,77.791 14.248,77.791 C6.38,77.791 0,71.413 0,63.545 C0,55.677 6.38,49.3 14.248,49.3 C22.116,49.3 28.494,55.677 28.494,63.545" id="Fill-169" fill="#EEEEF2"></path>
                    <path d="M9.7595,60.4909 C9.7595,61.4789 8.9585,62.2789 7.9695,62.2789 C6.9815,62.2789 6.1805,61.4789 6.1805,60.4909 C6.1805,59.5029 6.9815,58.7009 7.9695,58.7009 C8.9585,58.7009 9.7595,59.5029 9.7595,60.4909" id="Fill-170" fill="#65B32E"></path>
                    <path d="M7.969,58.7011 C6.981,58.7011 6.181,59.5021 6.181,60.4911 C6.181,60.7351 6.23,60.9681 6.319,61.1811 C6.339,61.1801 6.359,61.1801 6.379,61.1801 L6.389,61.1801 C7.167,61.1841 7.843,61.6211 8.185,62.2631 C8.301,62.2471 8.413,62.2191 8.52,62.1841 C7.804,61.9521 7.282,61.2851 7.282,60.4911 C7.282,59.6941 7.804,59.0281 8.52,58.7961 C8.347,58.7411 8.162,58.7011 7.969,58.7011" id="Fill-171" fill="#009F3C"></path>
                    <path d="M23.5642,67.176 C22.3082,70.007 19.8502,72.129 16.8632,72.956 C15.6862,73.286 14.4352,73.255 13.2752,72.867 C12.0652,72.418 11.1382,71.422 10.7832,70.18 C10.6712,69.759 10.6562,69.315 10.7412,68.888 L10.7412,68.881 C10.8462,68.402 11.0742,67.957 11.4012,67.592 C12.0182,66.989 12.7772,66.551 13.6062,66.318 C13.8842,66.212 14.1602,66.106 14.4322,65.989 C14.8172,65.829 15.1862,65.63 15.5312,65.399 L15.5542,65.381 L15.6032,65.346 C16.5352,64.588 17.2852,63.632 17.7962,62.544 C18.2182,61.651 18.8082,60.847 19.5322,60.176 C20.0892,59.679 20.8662,59.516 21.5752,59.748 C22.7542,60.256 23.6272,61.287 23.9352,62.534 C24.3282,64.079 24.1972,65.712 23.5642,67.176" id="Fill-172" fill="#E8D1C1"></path>
                    <path d="M21.549,59.7393 C21.558,59.7423 21.567,59.7453 21.576,59.7483 C21.602,59.7593 21.629,59.7713 21.655,59.7833 C21.629,59.7713 21.602,59.7593 21.576,59.7483 C21.567,59.7453 21.558,59.7423 21.549,59.7393 M20.922,59.6443 C20.416,59.6453 19.921,59.8293 19.532,60.1753 C18.808,60.8473 18.219,61.6503 17.797,62.5443 C17.285,63.6313 16.536,64.5883 15.603,65.3463 L15.554,65.3813 L15.531,65.3983 C15.186,65.6303 14.817,65.8293 14.432,65.9893 C14.16,66.1063 13.884,66.2123 13.606,66.3173 C12.777,66.5503 12.018,66.9883 11.401,67.5913 C11.074,67.9563 10.846,68.4023 10.742,68.8803 C10.846,68.4023 11.074,67.9563 11.401,67.5913 C12.018,66.9883 12.777,66.5503 13.606,66.3173 C13.884,66.2123 14.16,66.1063 14.432,65.9893 C14.817,65.8293 15.186,65.6303 15.531,65.3983 L15.554,65.3813 L15.603,65.3463 C16.536,64.5883 17.285,63.6313 17.797,62.5443 C18.219,61.6503 18.808,60.8473 19.532,60.1753 C19.921,59.8293 20.416,59.6453 20.922,59.6443" id="Fill-173" fill="#D8C2B5"></path>
                    <path d="M20.9256,59.6443 L20.9216,59.6443 C20.4166,59.6453 19.9206,59.8293 19.5326,60.1763 C18.8076,60.8473 18.2186,61.6503 17.7966,62.5443 C17.2856,63.6313 16.5356,64.5883 15.6036,65.3463 L15.5546,65.3813 L15.5316,65.3983 C15.1856,65.6303 14.8166,65.8293 14.4326,65.9893 C14.1596,66.1063 13.8836,66.2123 13.6056,66.3173 C12.7766,66.5503 12.0186,66.9883 11.4016,67.5913 C11.0736,67.9563 10.8466,68.4023 10.7416,68.8803 L10.7416,68.8883 C10.7046,69.0713 10.6866,69.2583 10.6866,69.4443 C10.6876,69.6923 10.7196,69.9393 10.7836,70.1803 C11.1386,71.4223 12.0646,72.4183 13.2756,72.8663 C13.8986,73.0743 14.5476,73.1783 15.1976,73.1783 C15.7236,73.1783 16.2506,73.1103 16.7636,72.9753 C16.6196,72.9383 16.4746,72.9143 16.3326,72.8663 C15.1226,72.4183 14.1966,71.4223 13.8406,70.1803 C13.7296,69.7583 13.7156,69.3153 13.8006,68.8883 L13.8006,68.8803 C13.9046,68.4023 14.1316,67.9563 14.4606,67.5913 C15.0776,66.9883 15.8346,66.5503 16.6646,66.3173 C16.9426,66.2123 17.2186,66.1063 17.4916,65.9893 C17.8756,65.8293 18.2436,65.6303 18.5886,65.3983 L18.6126,65.3813 L18.6606,65.3463 C19.5936,64.5883 20.3446,63.6313 20.8546,62.5443 C21.2536,61.6993 21.8086,60.9373 22.4796,60.2893 C22.2266,60.0923 21.9516,59.9193 21.6546,59.7833 C21.6286,59.7713 21.6026,59.7593 21.5756,59.7483 C21.5666,59.7453 21.5576,59.7423 21.5486,59.7393 C21.3446,59.6753 21.1356,59.6443 20.9276,59.6443 L20.9256,59.6443" id="Fill-174" fill="#D2AA91"></path>
                    <path d="M13.7409,55.3395 C13.9639,55.7835 13.5449,56.4425 12.8059,56.8135 C12.0679,57.1855 11.2889,57.1255 11.0669,56.6835 C10.8459,56.2395 11.2609,55.5785 11.9999,55.2085 C12.7389,54.8375 13.5159,54.8975 13.7409,55.3395" id="Fill-175" fill="#754E4C"></path>
                    <path d="M16.8661,57.6292 C16.8801,58.1232 16.2211,58.5442 15.3941,58.5652 C14.5691,58.5872 13.8881,58.2022 13.8771,57.7072 C13.8641,57.2112 14.5221,56.7922 15.3481,56.7702 C16.1751,56.7482 16.8551,57.1332 16.8661,57.6292" id="Fill-176" fill="#754E4C"></path>
                    <path d="M17.8833,55.3452 C17.7293,55.8152 16.9683,55.9902 16.1823,55.7322 C15.3983,55.4782 14.8843,54.8882 15.0403,54.4182 C15.1913,53.9442 15.9543,53.7712 16.7383,54.0272 C17.5233,54.2822 18.0373,54.8732 17.8833,55.3452" id="Fill-177" fill="#754E4C"></path>
                    <path d="M8.4241,63.2234 C8.4241,64.3524 7.5081,65.2664 6.3791,65.2664 C5.2501,65.2664 4.3371,64.3524 4.3371,63.2234 C4.3371,62.0944 5.2501,61.1804 6.3791,61.1804 C7.5081,61.1804 8.4241,62.0944 8.4241,63.2234" id="Fill-178" fill="#65B32E"></path>
                    <path d="M6.3893,65.2667 C6.3863,65.2667 6.3823,65.2667 6.3793,65.2667 C6.3823,65.2667 6.3863,65.2667 6.3893,65.2667" id="Fill-179" fill="#5DAB31"></path>
                    <path d="M6.3789,61.1801 C6.3589,61.1801 6.3389,61.1801 6.3189,61.1811 C5.2179,61.2131 4.3369,62.1141 4.3369,63.2231 C4.3369,64.3521 5.2499,65.2671 6.3789,65.2671 C6.3819,65.2671 6.3859,65.2671 6.3889,65.2671 C6.6069,65.2651 6.8129,65.2211 7.0079,65.1581 C6.1899,64.8921 5.5939,64.1311 5.5939,63.2231 C5.5939,62.3161 6.1899,61.5551 7.0079,61.2901 C6.8129,61.2241 6.6069,61.1811 6.3899,61.1801 L6.3789,61.1801" id="Fill-180" fill="#009F3C"></path>
                    <path d="M14.3587,61.5876 C14.3587,62.7156 13.4437,63.6296 12.3157,63.6296 C11.1867,63.6296 10.2717,62.7156 10.2717,61.5876 C10.2717,60.4586 11.1867,59.5426 12.3157,59.5426 C13.4437,59.5426 14.3587,60.4586 14.3587,61.5876" id="Fill-181" fill="#65B32E"></path>
                    <path d="M12.3149,63.6293 L12.3259,63.6293 L12.3149,63.6293 Z" id="Fill-182" fill="#5DAB31"></path>
                    <path d="M12.3153,59.5424 C11.1863,59.5424 10.2723,60.4584 10.2723,61.5874 C10.2723,62.7154 11.1863,63.6294 12.3153,63.6294 L12.3253,63.6294 C12.5423,63.6284 12.7493,63.5844 12.9433,63.5204 C12.1253,63.2554 11.5293,62.4944 11.5293,61.5874 C11.5293,60.6794 12.1253,59.9184 12.9433,59.6524 C12.7453,59.5874 12.5353,59.5424 12.3153,59.5424" id="Fill-183" fill="#009F3C"></path>
                    <path d="M0.1476,119.8504 C0.1476,112.0224 6.4926,105.6774 14.3206,105.6774 C22.1486,105.6774 28.4936,112.0224 28.4936,119.8504 C28.4936,127.6774 22.1486,134.0234 14.3206,134.0234 C6.4926,134.0234 0.1476,127.6774 0.1476,119.8504" id="Fill-184" fill="#EEEEF2"></path>
                    <path d="M18.859,121.4153 L14.42,111.5133 L9.774,121.4363 C9.542,122.0053 9.415,122.6293 9.415,123.2823 C9.415,125.9913 11.611,128.1873 14.321,128.1873 C17.03,128.1873 19.227,125.9913 19.227,123.2823 C19.227,122.6293 19.099,122.0063 18.868,121.4363 L18.859,121.4153 Z" id="Fill-185" fill="#FBBA00"></path>
                    <path d="M14.4196,111.5128 L9.7736,121.4368 C9.5416,122.0058 9.4146,122.6288 9.4146,123.2818 C9.4146,122.6288 9.5416,122.0058 9.7736,121.4368 L14.4196,111.5128 L14.4486,111.5778 L14.4486,111.5778 L14.4196,111.5128 Z" id="Fill-186" fill="#B9B6B7"></path>
                    <path d="M14.4201,111.5132 L9.7741,121.4362 C9.5421,122.0052 9.4141,122.6292 9.4141,123.2822 L9.4141,123.2972 C9.4141,123.2992 9.4151,123.3012 9.4151,123.3022 L9.4151,123.3132 C9.4151,123.3152 9.4151,123.3162 9.4151,123.3182 C9.4151,123.3222 9.4151,123.3252 9.4151,123.3282 C9.4151,123.3312 9.4151,123.3332 9.4151,123.3352 C9.4151,123.3382 9.4151,123.3412 9.4151,123.3442 C9.4151,123.3462 9.4151,123.3492 9.4151,123.3512 C9.4151,123.3542 9.4151,123.3562 9.4151,123.3592 C9.4151,123.3622 9.4151,123.3652 9.4151,123.3672 C9.4151,123.3702 9.4151,123.3722 9.4151,123.3742 C9.4151,123.3772 9.4151,123.3802 9.4151,123.3832 C9.4161,123.3852 9.4161,123.3872 9.4161,123.3902 C9.4161,123.3932 9.4161,123.3962 9.4161,123.3982 C9.4161,123.4002 9.4161,123.4032 9.4161,123.4052 C9.4161,123.4082 9.4161,123.4112 9.4161,123.4142 C9.4161,123.4162 9.4161,123.4182 9.4161,123.4202 C9.4161,123.4232 9.4161,123.4262 9.4171,123.4292 C9.4171,123.4312 9.4171,123.4332 9.4171,123.4352 C9.4171,123.4382 9.4171,123.4412 9.4171,123.4442 C9.4171,123.4462 9.4171,123.4482 9.4171,123.4502 C9.4171,123.4542 9.4181,123.4572 9.4181,123.4602 C9.4181,123.4622 9.4181,123.4642 9.4181,123.4652 C9.4181,123.4692 9.4181,123.4722 9.4181,123.4752 C9.4181,123.4772 9.4181,123.4792 9.4181,123.4802 C9.4191,123.4842 9.4191,123.4872 9.4191,123.4912 C9.4191,123.4922 9.4191,123.4932 9.4191,123.4942 C9.4191,123.4982 9.4191,123.5032 9.4201,123.5072 C9.4201,123.5072 9.4201,123.5082 9.4201,123.5082 C9.5321,125.9792 11.4741,127.9702 13.9231,128.1682 C12.4491,127.5382 11.5661,125.9422 11.8941,124.3082 L14.4491,111.5772 L14.4201,111.5132 Z" id="Fill-187" fill="#C58E14"></path>
                    <path d="M17.465,123.8774 C17.249,124.9914 16.453,125.9014 15.405,126.2784 C15.243,126.3374 15.159,126.5154 15.218,126.6784 C15.276,126.8404 15.455,126.9244 15.617,126.8654 C16.87,126.4144 17.818,125.3294 18.078,123.9964 C18.11,123.8274 18,123.6634 17.831,123.6304 C17.662,123.5974 17.498,123.7084 17.465,123.8774" id="Fill-188" fill="#FFFFFF"></path>
                    <path d="M28.494,161.8017 C28.494,169.6287 22.149,175.9747 14.322,175.9747 C6.494,175.9747 0.148,169.6287 0.148,161.8017 C0.148,153.9737 6.494,147.6297 14.322,147.6297 C22.149,147.6297 28.494,153.9737 28.494,161.8017" id="Fill-189" fill="#EEEEF2"></path>
                    <polygon id="Fill-190" fill="#D2D1D0" points="7.6852 166.8289 14.7662 166.8289 14.7662 159.7479 7.6852 159.7479"></polygon>
                    <polygon id="Fill-191" fill="#F3F3F4" points="19.4897 166.7911 14.4827 161.7831 19.4897 156.7761 24.4977 161.7831"></polygon>
                    <polygon id="Fill-192" fill="#FFFFFF" points="16.2342 166.7911 11.2262 161.7831 16.2342 156.7761 21.2412 161.7831"></polygon>
                    <polygon id="Fill-193" fill="#FFFFFF" points="4.1452 166.8289 11.2262 166.8289 11.2262 159.7479 4.1452 159.7479"></polygon>
                    <polygon id="Fill-194" fill="#B4B1B1" points="16.2342 166.7911 19.4892 166.7911 24.4982 161.7831 21.2412 161.7831"></polygon>
                    <polygon id="Fill-195" fill="#D2D1D0" points="16.2342 156.7758 19.4892 156.7758 24.4982 161.7828 21.2412 161.7828"></polygon>
                </g>
            </g>
            <g id="text" transform="translate(45.000000, 7.079588)" font-family="LucidaGrande-Bold, Lucida Grande" font-size="14" font-weight="bold" letter-spacing="0.0251605483">
                <text id="Lng-cht-dinh-dn" fill="#3D1818">
                    <tspan x="181" y="14">Lng cht dinh </tspan>
                    <tspan x="181" y="31">dng a lng </tspan>
                    <tspan x="181" y="48">(gram/ngy)</tspan>
                    <tspan x="271.79825" y="48" font-family="LucidaGrande, Lucida Grande" font-weight="normal"> </tspan>
                    <tspan x="181" y="65" font-family="LucidaGrande, Lucida Grande" font-weight="normal">(phm vi c th)</tspan>
                </text>
                <text id="Lng-calo-tiu-th" fill="#3D1818">
                    <tspan x="317" y="45">Lng calo tiu </tspan>
                    <tspan x="317" y="62">th kcal/ngy</tspan>
                </text>
                <text id="Ht-nguyn-cm" fill="#3D1818">
                    <tspan x="1" y="95">Ht nguyn cm</tspan>
                </text>
                <text id="(0-100)" fill="#3D1818">
                    <tspan x="218" y="151">(0-100)</tspan>
                </text>
                <text id="(200-600)" fill="#3D1818">
                    <tspan x="227" y="193">(200-600)</tspan>
                </text>
                <text id="(100-300)" fill="#3D1818">
                    <tspan x="227" y="235">(100-300)</tspan>
                </text>
                <text id="(0-500)-copy" fill="#3D1818">
                    <tspan x="228" y="277">(0-500)</tspan>
                </text>
                <text id="(0-28)" fill="#3D1818">
                    <tspan x="220" y="316">(0-28)</tspan>
                </text>
                <text id="(0-58)" fill="#3D1818">
                    <tspan x="220" y="331">(0-58)</tspan>
                </text>
                <text id="(0-25)" fill="#3D1818">
                    <tspan x="220" y="345">(0-25)</tspan>
                </text>
                <text id="(0-100)" fill="#3D1818">
                    <tspan x="220" y="360">(0-100)</tspan>
                </text>
                <text id="(0-100)" fill="#3D1818">
                    <tspan x="220" y="374">(0-100)</tspan>
                </text>
                <text id="(0-75)" fill="#3D1818">
                    <tspan x="220" y="388">(0-75)</tspan>
                </text>
                <text id="(20-80)" fill="#3D1818">
                    <tspan x="218" y="428">(20-80)</tspan>
                </text>
                <text id="(0-11,8)" fill="#3D1818">
                    <tspan x="231" y="445">(0-11,8)</tspan>
                </text>
                <text id="(0-31)" fill="#3D1818">
                    <tspan x="218" y="487">(0-31)</tspan>
                </text>
                <text id="Go,-bt-m,-ng-cc" fill="#E73E0E">
                    <tspan x="1" y="111">Go, bt m, ng cc #</tspan>
                </text>
                <text id="232" fill="#E73E0E">
                    <tspan x="196" y="111">232</tspan>
                </text>
                <text id="50" fill="#E73E0E">
                    <tspan x="196" y="151">50</tspan>
                </text>
                <text id="300" fill="#E73E0E">
                    <tspan x="196" y="193">300</tspan>
                </text>
                <text id="200" fill="#E73E0E">
                    <tspan x="196" y="235">200</tspan>
                </text>
                <text id="250" fill="#E73E0E">
                    <tspan x="196" y="277">250</tspan>
                </text>
                <text id="14" fill="#E73E0E">
                    <tspan x="196" y="317">14</tspan>
                </text>
                <text id="29" fill="#E73E0E">
                    <tspan x="196" y="331">29</tspan>
                </text>
                <text id="13" fill="#E73E0E">
                    <tspan x="196" y="345">13</tspan>
                </text>
                <text id="28" fill="#E73E0E">
                    <tspan x="196" y="360">28</tspan>
                </text>
                <text id="75" fill="#E73E0E">
                    <tspan x="196" y="374">75</tspan>
                </text>
                <text id="50" fill="#E73E0E">
                    <tspan x="196" y="389">50</tspan>
                </text>
                <text id="40" fill="#E73E0E">
                    <tspan x="196" y="429">40</tspan>
                </text>
                <text id="11,8" fill="#E73E0E">
                    <tspan x="196" y="445">11,8</tspan>
                </text>
                <text id="31" fill="#E73E0E">
                    <tspan x="196" y="487">31</tspan>
                </text>
                <text id="811" fill="#E73E0E">
                    <tspan x="356" y="111">811</tspan>
                </text>
                <text id="39" fill="#E73E0E">
                    <tspan x="356" y="150">39	</tspan>
                </text>
                <text id="76" fill="#E73E0E">
                    <tspan x="356" y="193">76</tspan>
                </text>
                <text id="126" fill="#E73E0E">
                    <tspan x="356" y="235">126</tspan>
                </text>
                <text id="153" fill="#E73E0E">
                    <tspan x="356" y="277">153</tspan>
                </text>
                <text id="30" fill="#E73E0E">
                    <tspan x="356" y="317">30</tspan>
                </text>
                <text id="62" fill="#E73E0E">
                    <tspan x="356" y="331">62</tspan>
                </text>
                <text id="19" fill="#E73E0E">
                    <tspan x="356" y="345">19</tspan>
                </text>
                <text id="40" fill="#E73E0E">
                    <tspan x="356" y="360">40</tspan>
                </text>
                <text id="284" fill="#E73E0E">
                    <tspan x="356" y="374">284</tspan>
                </text>
                <text id="291" fill="#E73E0E">
                    <tspan x="356" y="389">291</tspan>
                </text>
                <text id="354" fill="#E73E0E">
                    <tspan x="356" y="429">354</tspan>
                </text>
                <text id="96" fill="#E73E0E">
                    <tspan x="356" y="445">96</tspan>
                </text>
                <text id="120" fill="#E73E0E">
                    <tspan x="356" y="487">120</tspan>
                </text>
                <text id="Khoai-sn" fill="#E73E0E">
                    <tspan x="1" y="152">Khoai sn</tspan>
                </text>
                <text id="Tt-c-cc-loi-rau" fill="#E73E0E">
                    <tspan x="1" y="194">Tt c cc loi rau</tspan>
                </text>
                <text id="Tt-c-cc-loi-qu" fill="#E73E0E">
                    <tspan x="0" y="237">Tt c cc loi qu</tspan>
                </text>
                <text id="Sa-ti-nguyn-cht" fill="#E73E0E">
                    <tspan x="1" y="278">Sa ti nguyn cht </tspan>
                </text>
                <text id="Tht-b,-cu,-ln" fill="#E73E0E">
                    <tspan x="0" y="317">Tht b, cu, ln</tspan>
                </text>
                <text id="G-vt-ngan" fill="#E73E0E">
                    <tspan x="0" y="333">G vt ngan</tspan>
                </text>
                <text id="Trng" fill="#E73E0E">
                    <tspan x="1" y="348">Trng</tspan>
                </text>
                <text id="C" fill="#E73E0E">
                    <tspan x="1" y="363">C</tspan>
                </text>
                <text id="Cc-loi-u" fill="#E73E0E">
                    <tspan x="0.835768733" y="378">Cc loi u</tspan>
                </text>
                <text id="Cc-loi-qu-hch" fill="#E73E0E">
                    <tspan x="1" y="392">Cc loi qu hch</tspan>
                </text>
                <text id="Cht-bo-khng-bo-h" fill="#E73E0E">
                    <tspan x="1" y="430">Cht bo khng bo ho</tspan>
                </text>
                <text id="Cht-bo-bo-ho" fill="#E73E0E">
                    <tspan x="1" y="447">Cht bo bo ho</tspan>
                </text>
                <text id="Tt-c-cc-loi-n" fill="#E73E0E">
                    <tspan x="1" y="487">Tt c cc loi ng</tspan>
                </text>
                <text id="C-cha-tinh-bt" fill="#3D1818">
                    <tspan x="1" y="135">C cha tinh bt</tspan>
                </text>
                <text id="Rau" fill="#3D1818">
                    <tspan x="0" y="177">Rau</tspan>
                </text>
                <text id="Hoa-qu" fill="#3D1818">
                    <tspan x="0" y="219">Hoa qu</tspan>
                </text>
                <text id="Sa" fill="#3D1818">
                    <tspan x="1" y="261">Sa</tspan>
                </text>
                <text id="Cc-ngun-m" fill="#3D1818">
                    <tspan x="0" y="301">Cc ngun m</tspan>
                </text>
                <text id="Cht-bo-t-du" fill="#3D1818">
                    <tspan x="0" y="414">Cht bo t du</tspan>
                </text>
                <text id="ng-tinh-luyn" fill="#3D1818">
                    <tspan x="2" y="470">ng tinh luyn</tspan>
                </text>
            </g>
        </g>
    </g>
</svg>