
<svg width="121px" height="119px" viewBox="0 0 121 119" version="1.1" xmlns="http://www.w3.org/2000/svg" xmlns:xlink="http://www.w3.org/1999/xlink">
    <g id="Page-1" stroke="none" stroke-width="1" fill="none" fill-rule="evenodd">
        <g id="perma-rules" transform="translate(0.000000, -163.000000)">
            <g id="perma-rule-2" transform="translate(0.000000, 163.000000)">
                <path d="M121,59.5008876 C121,92.3622626 93.9155226,119 60.5,119 C27.0880192,119 0,92.3622626 0,59.5008876 C0,26.6395125 27.0880192,0 60.5,0 C93.9155226,0 121,26.6395125 121,59.5008876" id="Fill-14" fill="#CFE6AD"></path>
                <path d="M57.8639788,59.6697501 C57.7570387,59.4556923 57.681358,59.1967515 57.6237748,58.9050115 C57.5020276,58.3215315 57.4444444,57.6154862 57.4444444,57.0285536 C57.4576063,56.0411259 58.1091184,54.2768757 58.6586262,53.3567726 C58.8725064,53.0684851 58.961349,52.8112706 59.3627858,52.7525773 C59.4236594,52.7525773 59.5026305,52.7715663 59.5618589,52.8060918 C59.7592868,52.902763 59.9040673,53.1720615 59.887615,53.3964769 C59.8728079,53.9281687 59.5519875,54.6204039 59.124227,56.3190557 C58.9465419,57.0095646 58.8971849,57.582687 58.8971849,58.052233 C58.8955397,58.6616071 58.982737,59.0810913 58.982737,59.4246194 C59.0057703,59.6386772 58.9021206,59.9994681 58.5780098,60.0909605 C58.5368789,60.1013182 58.4891672,60.1116758 58.4332293,60.1134021 C58.1189898,60.0995919 57.9676284,59.8682714 57.8639788,59.6697501" id="Fill-15" fill="#241F21"></path>
                <path d="M65.3041024,60.0857878 C64.9162353,59.9769551 64.7637244,59.6374622 64.7787872,59.3629439 C64.7976157,58.5799984 65.511216,57.4916717 66.4187498,56.7688278 C66.8856967,56.403345 67.4147777,56.0264915 67.8911388,55.7357296 C68.3825627,55.4482164 68.7384214,55.2305511 69.1601799,55.2061856 C69.2656195,55.2061856 69.4143647,55.2337998 69.5273357,55.3312619 C69.6346582,55.428724 69.6666667,55.552176 69.6666667,55.6480137 C69.6666667,55.9192832 69.649721,56.3205022 69.5518128,56.6973556 C69.4444903,57.0660872 69.2731509,57.4738036 68.7685471,57.6362405 C67.9250301,57.8522815 66.9478308,59.2005071 66.6371605,59.5481219 C66.2172848,59.9590871 65.5300445,60.0760416 65.5074503,60.0922853 L65.4020106,60.1134021 L65.3041024,60.0857878 Z" id="Fill-16" fill="#241F21"></path>
                <path d="M70.0533782,69.4636909 C69.9240255,69.2229523 69.8446891,68.9494732 69.7429317,68.6432537 C69.6929153,68.5045882 69.6670447,68.3717005 69.6670447,68.2407386 C69.6601459,68.0365923 69.7481058,67.8228164 69.8947055,67.6995582 C70.0361311,67.5782259 70.1982532,67.5474114 70.344853,67.5454854 C70.5673396,67.5512632 70.7812028,67.6205959 70.9726448,67.74578 C71.3469054,67.7168914 72.6059385,67.6167441 73.3613583,67.5685964 C73.8839433,67.5377818 74.4186012,67.4742268 74.8463275,67.4742268 C75.1326282,67.4838563 75.3585643,67.4742268 75.6051968,67.6668177 C75.7035049,67.7496318 75.7811165,67.9075564 75.7776671,68.0577773 C75.7483472,68.4294777 75.5431075,68.5816246 75.3154467,68.7607341 C75.075713,68.9282882 74.7600924,69.0765832 74.3927307,69.18636 C73.5269298,69.4328764 71.534898,69.6986519 71.0485317,69.8719837 C70.9398755,69.9047241 70.8398427,69.9259091 70.7311864,69.9259091 C70.7242876,69.9259091 70.7173888,69.9278351 70.71049,69.9278351 C70.4121164,69.9259091 70.1654839,69.6928741 70.0533782,69.4636909" id="Fill-17" fill="#241F21"></path>
                <path d="M69.5530078,81.2703182 C69.0905874,80.7882217 68.4740269,79.7652364 68.4444444,79.0446114 C68.4444444,78.9001504 68.4740269,78.7254534 68.6125973,78.5927509 L68.6935598,78.5154639 L68.8072187,78.5154639 C68.8181175,78.5154639 69.2135881,78.5121215 69.5748054,78.59947 C69.9874027,78.7674479 70.1430998,79.1739543 70.5012031,79.6577306 C70.8219391,80.1347878 71.1971691,80.6588787 71.4898797,80.8755702 C71.8728946,81.1863293 72.0815287,81.3677454 72.1111111,81.7221787 C72.0877565,82.1169267 71.7374381,82.1958763 71.5615004,82.1958763 C71.1037509,82.1757189 70.130644,81.8028081 69.5530078,81.2703182" id="Fill-18" fill="#241F21"></path>
                <path d="M57.7790192,87.1011699 C57.3303183,87.0454067 57.1898555,86.7973564 56.8991753,86.6069922 C56.2124679,86.0166709 56.302208,84.9917809 56.2280748,84.3091619 C56.2222222,84.2572444 56.2222222,84.2149412 56.2222222,84.1764838 C56.2339275,83.4880962 56.5050989,82.2093872 56.9459963,81.4767736 C57.0864592,81.2671807 57.2444799,81.0441277 57.5605214,80.9845187 C57.6073424,80.9672129 57.6385564,80.9691357 57.6561142,80.9691357 C57.6658686,80.9691357 57.6717212,80.9691357 57.6717212,80.9691357 C58.1867518,81.009516 58.3603795,81.4037045 58.4871863,81.7267467 C58.6120422,82.0728634 58.6666667,82.4708976 58.6666667,82.8035542 C58.6276492,83.0708332 58.7115368,83.2746575 58.4364636,83.5265536 L58.4364636,83.5265536 C58.430611,83.5400137 58.4169549,83.5803939 58.4013479,83.6380801 C58.3701339,83.7553752 58.3428217,83.9342021 58.3174603,84.1418721 C58.2706394,84.5572122 58.2511306,85.0879244 58.2511306,85.5417219 C58.2511306,85.8263067 58.260885,86.0839714 58.276492,86.2627984 C58.2823446,86.3320217 58.2823446,86.3916307 58.2823446,86.4531625 C58.2823446,86.5877635 58.276492,86.7031357 58.2082114,86.8377366 C58.1594396,86.9684918 57.9663031,87.1030928 57.8043806,87.1030928 C57.798528,87.1030928 57.7887736,87.1030928 57.7790192,87.1011699" id="Fill-19" fill="#241F21"></path>
                <path d="M49.9906563,78.6688144 C50.066733,78.7653046 50.1111111,78.8979787 50.1111111,79.0220375 C50.0429591,79.6423318 49.4803085,79.9180181 49.2425688,80.2005965 C48.8653552,80.5658809 47.0442692,81.8030233 46.7241131,82.0425258 C46.5989035,82.1338469 46.4515049,82.1958763 46.3072762,82.1958763 L46.3025214,82.1958763 C45.9585913,82.1717537 45.8127777,81.9977267 45.575038,81.9167439 C45.3547325,81.8443762 45.2089189,81.5773051 45.2231832,81.3705404 C45.251712,80.8450133 45.6447749,80.3608392 46.172557,80.0145083 C46.8144542,79.6388857 48.8764497,78.5464786 49.6435564,78.5154639 C49.7323126,78.520633 49.8622769,78.5154639 49.9906563,78.6688144" id="Fill-20" fill="#241F21"></path>
                <path d="M46.2379801,71.1546392 C45.6929699,71.1460149 45.1237784,70.8484772 44.8447629,70.7104886 C44.4597216,70.5056619 44.3257941,70.3374884 43.8012451,70.3310202 C43.7175404,70.3310202 43.6245353,70.3374884 43.511069,70.3504249 C43.4496856,70.354737 43.3957426,70.3590492 43.3362193,70.3590492 C43.2301934,70.3590492 43.1409085,70.3525809 43.0311624,70.2965231 C42.9195562,70.2555578 42.7688878,70.0593554 42.7781884,69.8674651 C42.8488723,69.4039099 43.0479033,69.3737249 43.2339136,69.1969271 C43.4366648,69.0589386 43.6617373,68.9360426 43.8923901,68.886453 C44.2253486,68.8153027 45.2725866,68.703187 46.1486952,68.7010309 C46.7104463,68.7312159 47.1085084,68.6773142 47.4786689,68.9834762 C47.5921352,69.0955918 47.6702595,69.2896382 47.6665393,69.4599677 C47.5977155,70.108945 47.1438503,70.3978584 46.9690006,70.7687026 C46.7867105,71.0748646 46.4853738,71.1546392 46.2454205,71.1546392 L46.2379801,71.1546392 Z" id="Fill-21" fill="#241F21"></path>
                <path d="M48.8803987,63.7265496 C47.8357327,63.4751075 46.8002953,62.7175779 46.2447398,62.3588324 C45.7371724,62.0161023 45.2443706,61.5740766 45.2222222,61.0167398 C45.2222222,60.9094365 45.2443706,60.79893 45.2997416,60.6932282 C45.4584718,60.3905367 45.7685493,60.1214776 46.2133629,60.1134699 C46.464378,60.1102668 46.7190845,60.2207732 46.8962717,60.400146 C47.2764858,60.7765084 48.0110742,61.5628658 48.7973422,62.0401254 C49.5485419,62.5013697 50.567368,62.5622283 51.071244,62.741601 C51.1727575,62.7752334 51.3333333,62.8969507 51.3333333,63.0683157 C51.3019564,63.3197579 51.1543005,63.3678041 51.0490956,63.4430766 C50.9291251,63.5087399 50.7906977,63.5631923 50.6282761,63.6144417 C50.3089701,63.7153389 49.8992248,63.7906113 49.4820967,63.7938144 C49.2827612,63.7938144 49.0760428,63.7745959 48.8803987,63.7265496" id="Fill-22" fill="#241F21"></path>
                <path d="M55.2155283,65.8537493 C53.7756858,67.2643397 52.5958639,70.9470684 53.5811124,74.0272315 C54.5628233,77.1073946 56.2485358,78.0552699 57.587554,78.1346912 C58.9318788,78.2141124 61.0792607,77.8964274 61.2561455,78.2141124 C61.4347992,78.5300708 58.7532251,79.9510205 57.1418042,79.7162099 C55.5303834,79.4762196 51.778656,78.6077655 50.4325624,73.9495368 C49.0935441,69.291308 52.2244057,64.8696165 54.5486725,63.8423199 C56.8747081,62.8184764 63.5804123,61.3975268 66.5326202,64.2394261 C69.4830593,67.0813255 68.4075995,71.7395543 67.3374462,74.028958 C66.2637553,76.3200883 63.3115473,77.741038 62.7755863,78.0552699 C62.2396252,78.3712283 61.1677031,77.6616168 62.0592027,76.3200883 C62.95424,74.9768333 64.9194305,73.5437978 65.2802756,69.291308 C65.5509094,66.1334502 63.7608348,65.0267324 61.6134529,64.3171208 C59.4678398,63.6057827 56.8269492,64.2739571 55.2155283,65.8537493" id="Fill-23" fill="#241F21"></path>
                <path d="M57.1377629,20.5648851 C54.091396,21.1796048 52.0696001,21.5853603 51.6101839,22.0499504 C51.1471216,22.5125118 51.2419217,23.0704257 52.0696001,23.1617207 C52.9009247,23.2570732 54.4651274,23.4396632 56.2171074,23.1617207 C57.9672644,22.8858069 61.0118082,22.9771019 63.2232044,22.7904543 C65.4364237,22.6078643 68.014259,22.4212168 68.9385607,21.305389 C69.8573931,20.1936188 69.8573931,19.5444099 69.2138458,19.6377336 C68.5684754,19.7290286 68.5684754,20.2869425 65.3452697,20.1936188 C62.1165948,20.100295 58.98272,20.1936188 57.1377629,20.5648851" id="Fill-24" fill="#241F21"></path>
                <path d="M57.1377629,16.8838608 C54.091396,17.4961665 52.0696001,17.9036944 51.6101839,18.37002 C51.1471216,18.830263 51.2419217,19.3878261 52.0696001,19.4810913 C52.9009247,19.5743564 54.4651274,19.7608866 56.2171074,19.4810913 C57.9672644,19.2033234 61.0118082,19.294561 63.2232044,19.1080308 C65.4364237,18.9255556 68.014259,18.7390254 68.9385607,17.6259266 C69.8573931,16.5148553 69.8573931,15.8640271 69.2138458,15.9572922 C68.5684754,16.0485298 68.5684754,16.6060929 65.3452697,16.5148553 C62.1165948,16.4195627 58.98272,16.5148553 57.1377629,16.8838608" id="Fill-25" fill="#241F21"></path>
                <path d="M54.2074573,24.85693 C54.8473583,24.85693 55.216601,29.2112899 55.0248099,35.0958459 C54.8079247,41.6150455 50.6924825,45.6697126 45.7077069,53.8125419 C40.7229313,61.9553711 37.8890837,69.3665975 39.6152034,83.3076007 C40.7265162,92.2596005 40.778497,95.7536658 42.061884,96.7690955 C43.3667803,97.8021541 52.303886,96.2049679 57.6507345,96.2860612 C62.9957905,96.3671546 74.9692895,97.4601518 75.9336222,96.4729285 C77.0574821,95.314704 78.5846409,83.7095416 78.6778478,75.5684752 C78.7692623,67.423883 77.3621969,59.5842723 73.5138283,53.3171673 C69.8948919,47.4273226 66.249069,44.1641971 65.5392628,34.693905 C64.9531349,26.9565424 67.0753839,24.5360825 67.5288712,24.5360825 C67.9823585,24.5360825 67.9823585,30.5017318 68.4340534,34.0486841 C68.8875407,37.5938734 69.3446129,42.3519371 73.4206214,48.2364931 C77.4984223,54.122812 83.2880034,61.0474783 83.106967,74.6729227 C82.9241381,88.298367 80.5814191,97.0194271 78.9485063,98.4632412 C77.3173859,99.9070552 61.8217423,98.7858516 57.380076,98.7858516 C52.9384098,98.7858516 41.0796269,100.102737 38.8910577,98.7858516 C36.7024885,97.4672034 35.5696664,89.5993863 35.445988,75.5684752 C35.3258946,61.4458934 42.2447129,55.0906434 45.2345028,50.1703931 C48.2242926,45.2554314 51.3072894,40.4162743 52.3953005,33.8864974 C53.4815191,27.3549576 53.6607631,24.85693 54.2074573,24.85693" id="Fill-26" fill="#241F21"></path>
            </g>
        </g>
    </g>
</svg>