<svg width="123px" height="126px" viewBox="0 0 123 126" version="1.1" xmlns="http://www.w3.org/2000/svg" xmlns:xlink="http://www.w3.org/1999/xlink">
    <g id="Page-1" stroke="none" stroke-width="1" fill="none" fill-rule="evenodd">
        <g id="perma-rules" transform="translate(-213.000000, 0.000000)">
            <g id="perma-rule-7" transform="translate(213.000000, 0.000000)">
                <path d="M123,62.9990882 C123,97.7955628 95.4674543,126 61.5,126 C27.5362386,126 0,97.7955628 0,62.9990882 C0,28.2044372 27.5362386,0 61.5,0 C95.4674543,0 123,28.2044372 123,62.9990882" id="Fill-8" fill="#C9A1BA"></path>
                <path d="M102.982326,41.6640097 C102.920875,41.4882536 102.738329,41.3958457 102.566628,41.4556391 L97.1860497,43.4106997 L86.4140495,29.5857571 L89.708908,26.4293941 C89.8408469,26.3043717 89.8480764,26.0905652 89.7287892,25.9528594 C89.6040798,25.8151535 89.3998455,25.804282 89.2660992,25.9329283 L84.9265737,30.0858468 L64.3983224,21.2382459 L64.9821069,15.3748758 C65.0019882,15.19006 64.8682418,15.0233635 64.6911183,15.0016204 C64.5121875,14.9835012 64.3531378,15.1193952 64.335064,15.3060228 L63.7512794,21.1784526 L44.0417724,24.3402514 L42.5289932,21.3125346 C42.447661,21.14765 42.2488489,21.0824209 42.0916066,21.1675811 C41.932557,21.2563651 41.8692986,21.4574881 41.9524382,21.6259966 L43.4778691,24.6772683 L25.6787654,49.2360196 L21.7332493,48.7413657 C21.5579332,48.7178107 21.3934614,48.8500808 21.3753875,49.0367085 C21.3500842,49.2233362 21.4784083,49.3918446 21.6591466,49.4153996 L25.4727238,49.8919343 L23.3363976,70.0060481 L21.1910345,71.0279704 C21.0265627,71.1058829 20.9542674,71.305194 21.0301775,71.4755144 C21.0843989,71.6005369 21.2054936,71.6730136 21.3265882,71.6730136 C21.3717728,71.6730136 21.4169573,71.663954 21.4621419,71.642211 L23.4882178,70.680082 L38.5400999,99.4914073 L35.8181817,106.048742 C35.7476938,106.220875 35.8236038,106.418374 35.989883,106.492663 C36.0296455,106.512594 36.07483,106.521653 36.1182072,106.521653 C36.2429166,106.521653 36.3622039,106.443741 36.4164253,106.315095 L39.1202697,99.8048693 L69.5728587,101.578738 L70.6970506,106.737272 C70.7295835,106.893097 70.8651372,107 71.0133426,107 C71.0368386,107 71.0621419,106.998188 71.0874453,106.992752 C71.260954,106.949266 71.369397,106.769886 71.3314419,106.586882 L70.1982131,101.386675 L90.0866509,81.8795538 L93.3218657,85.0395407 C93.3869315,85.1011459 93.4682637,85.1319486 93.5459812,85.1319486 C93.6327355,85.1319486 93.7194899,85.0957102 93.7827483,85.0250453 C93.9074577,84.8891514 93.9002282,84.673533 93.7682892,84.5466987 L90.5150006,81.3667807 L97.1245987,44.1481508 L102.781706,42.0952465 C102.9516,42.0336412 103.040162,41.8433897 102.982326,41.6640097 L102.982326,41.6640097 Z M92.5121583,44.8421158 L92.4687812,45.1229633 L87.9864724,46.7518785 L81.450977,34.3329851 L84.913922,31.0189851 L92.5121583,44.8421158 Z M81.8865562,48.7178107 L81.8630602,48.9732913 L77.2289313,50.6565642 L77.2379682,50.4192028 L76.5186299,49.6201464 C77.9573065,47.6288474 78.8826863,46.0071798 79.2423555,44.8330562 L81.8865562,48.7178107 Z M56.1277397,56.5978468 C56.2940189,55.5958556 57.9423518,54.7188867 57.9423518,54.7188867 C57.9423518,54.7188867 56.7675531,53.2240535 57.0766156,51.8633023 C57.2266283,51.1947041 58.0272988,49.5096194 59.9250505,49.9571634 C61.9782371,50.4427577 62.1119834,52.0644253 61.887868,52.9287107 C61.5263915,54.3039573 60.1220552,55.2099168 60.1220552,55.2099168 C60.1220552,55.2099168 61.2354029,56.5978468 61.0727384,57.5327971 C60.9209183,58.4061421 59.4479015,59.0022635 59.171372,59.52772 C58.8044733,60.2180612 61.9131713,60.9971864 60.9173035,65.260632 C60.2377277,68.1687621 58.0688686,68.8464198 56.1458135,68.3680732 C54.2263732,67.8879146 52.6015363,66.3423477 53.2937638,63.3454335 C54.2842095,59.0493734 57.0531196,60.0803553 57.0242015,59.1345336 C56.993476,58.1923356 55.9632679,57.5998381 56.1277397,56.5978468 L56.1277397,56.5978468 Z M66.196668,60.5623258 C66.196668,60.5623258 69.2764479,61.2889053 70.268701,62.4032356 C71.2627614,63.5211897 71.884501,64.1481137 72.1718748,65.1011831 C72.4628634,66.0542525 73.292452,66.3550311 73.0936399,64.6681344 C72.8984426,62.9776139 72.6327574,61.3541344 71.3187903,60.1582678 C70.0066305,58.9642132 68.2896171,58.1579092 68.2896171,58.1579092 C68.2896171,58.1579092 71.4055446,56.0615188 74.5214722,52.2166265 C75.1034494,51.4991065 75.6330125,50.8142011 76.117391,50.167346 L76.5782735,50.6746834 L76.0378662,67.230188 L74.5793084,65.8060196 C74.4473695,65.6791853 74.2413279,65.684621 74.1184259,65.8223269 C73.9955238,65.9582208 74.0027534,66.1702154 74.1328849,66.3006735 L76.008948,68.1325237 L76.0071407,68.1760098 L67.5485902,76.0669174 C68.3691419,74.2332553 68.9438895,72.1024384 69.0270291,69.8176085 C69.2222265,64.4470803 66.196668,60.5623258 66.196668,60.5623258 L66.196668,60.5623258 Z M71.7941319,45.3603247 L74.7184769,48.6090956 C74.3280822,48.9895986 73.9033473,49.4099638 73.4424648,49.8883105 C70.8868258,52.5463958 68.5806057,53.7313908 68.5806057,53.7313908 C68.5806057,53.7313908 70.7729607,51.7292203 71.7941319,45.3603247 L71.7941319,45.3603247 Z M65.6128835,72.9775954 C65.3471982,74.3184155 65.058017,75.4436172 64.7579915,76.3966867 L63.4476391,70.3774915 C63.4078767,70.1962996 63.234368,70.0803367 63.0572445,70.1220109 C62.8819284,70.1618731 62.7734854,70.3448769 62.8114405,70.5260688 L64.3459083,77.5726222 C64.2338506,77.867965 64.1199855,78.1470005 64.0061204,78.3988573 L48.2746624,77.7483783 L51.39059,70.2470333 C51.4592705,70.0767129 51.3851678,69.8774018 51.2188886,69.804925 C51.0544168,69.7306364 50.8628343,69.806737 50.7923463,69.9788693 L47.6926852,77.442164 L45.2129563,73.1044297 C45.3087476,71.4084734 45.6268469,69.46972 46.1690617,67.5055997 C47.6203899,62.2564701 51.0471873,61.1040896 51.0471873,61.1040896 C51.0471873,61.1040896 48.0758503,69.8629065 55.7102343,71.508129 C63.3428109,73.1551634 63.881411,63.7639868 63.881411,63.7639868 C63.881411,63.7639868 66.9648056,66.1049863 65.6128835,72.9775954 L65.6128835,72.9775954 Z M51.2929913,40.337685 C50.0838524,45.1320229 50.7489692,49.8647555 50.7489692,49.8647555 C50.7489692,49.8647555 48.8439879,47.3661191 47.4613403,43.3545303 L51.0056175,39.7433755 L51.2947987,40.3231896 C51.2929913,40.3268135 51.2929913,40.3322492 51.2929913,40.337685 L51.2929913,40.337685 Z M49.3121,53.773065 C49.3121,53.773065 45.9539832,53.7078359 43.609808,55.900258 C41.9452086,57.4603203 41.1228496,59.3121016 43.0730154,58.1651568 C47.0402201,55.8350289 50.6098007,57.1849086 50.6098007,57.1849086 C50.6098007,57.1849086 44.6418234,60.0676719 43.4543731,65.6737495 C43.1868805,66.938469 43.0314456,68.0999092 42.9555355,69.1635057 L39.3443851,62.8544034 L40.8625865,51.825252 L46.387755,52.5155931 C46.4004067,52.5174051 46.411251,52.519217 46.4239027,52.519217 C46.5883745,52.519217 46.7257355,52.3923826 46.7492315,52.2202503 C46.7709201,52.0354346 46.6444033,51.8651142 46.4636651,51.8433712 L39.939014,51.0261957 L45.7352899,45.1175275 C47.1269745,49.6908113 49.3121,53.773065 49.3121,53.773065 L49.3121,53.773065 Z M40.2155435,51.7419037 L38.7081864,62.6931426 L36.0621783,63.9524264 L39.5450046,51.6585554 L40.2155435,51.7419037 Z M38.876273,63.356305 L42.901314,70.388363 C42.8416704,74.6101345 44.1285268,77.0489775 44.8081026,77.866153 C45.8798805,79.1526156 46.472702,79.3827293 45.6702241,77.4747785 C45.3593543,76.7282679 45.1966899,75.650176 45.1822308,74.3763969 L47.3763933,78.2067938 L45.8744584,81.8233843 L35.989883,64.7315516 L38.876273,63.356305 Z M47.9981329,78.4151645 L63.6898284,79.0638316 C62.7969814,80.7960262 61.9836592,81.3396019 61.6764042,81.5606561 C61.1450337,81.942971 60.9028445,83.2765434 63.4241432,81.4972389 C63.9139438,81.1493504 64.4163962,80.6999945 64.9098116,80.1600426 L65.70506,83.8110596 L46.4636651,82.1078556 L47.9981329,78.4151645 Z M65.4429895,79.5403663 C65.8532653,79.0275932 66.2526969,78.4568387 66.6304399,77.8335385 L76.5077856,68.618118 L79.7158897,71.7509261 L66.3249922,83.6008769 L65.4429895,79.5403663 Z M76.6722574,67.8480524 L77.2090501,51.3070431 C77.232546,51.3142908 77.256042,51.3342219 77.2849601,51.3342219 C77.3211078,51.3342219 77.3572554,51.3251623 77.3915957,51.3142908 L81.796187,49.7161782 L79.8893984,70.991732 L76.6722574,67.8480524 Z M78.1687702,44.3619573 C77.6373997,45.8404832 76.693946,46.7102044 75.1938185,48.1470562 L71.9170339,44.5050989 C71.9369151,44.3728288 71.9549889,44.2496183 71.9730627,44.1155363 C72.0092104,43.8401246 72.0399359,43.5719605 72.0670466,43.3110442 L75.7902547,39.7524351 L78.4507219,43.6679923 C78.3603528,43.8654914 78.2681763,44.0919813 78.1687702,44.3619573 L78.1687702,44.3619573 Z M72.1791044,42.2873099 C72.3761091,40.2797036 72.4086419,38.9008331 72.36165,37.9242088 L75.3131057,39.0530343 L75.408897,39.196176 L72.1791044,42.2873099 Z M68.983652,46.2844034 C67.8413862,51.0117003 65.0417506,53.3237091 65.0417506,53.3237091 C65.0417506,53.3237091 65.327317,49.0294608 60.579323,48.0365292 C55.831329,47.0399737 54.206492,50.8069534 54.206492,50.8069534 C54.206492,50.8069534 52.4894786,46.4366046 53.8811632,40.3068824 C53.9389994,40.0350945 53.9950283,39.7868616 54.0510571,39.5350048 L61.9113639,39.7089491 L61.179374,47.0707763 C61.1613002,47.2537801 61.2914317,47.4222886 61.4685552,47.4404078 C61.4830143,47.4404078 61.4920512,47.4404078 61.5047029,47.4404078 C61.6691747,47.4404078 61.8083431,47.3099496 61.8282243,47.1378173 L62.5385257,39.9843608 L69.6885312,43.2313198 C69.4788748,44.1862011 69.2439151,45.2026877 68.983652,46.2844034 L68.983652,46.2844034 Z M61.9782371,39.0331032 L54.2010699,38.8609709 C54.6167679,36.954832 54.877031,35.6393788 55.0559618,34.7134881 L62.3017586,34.0684449 L62.464423,34.1300502 L61.9782371,39.0331032 Z M51.744837,38.8084253 L51.2658806,38.7957418 L49.4729571,35.208142 L53.2052021,34.8783728 C52.6919054,36.1086658 52.1478833,37.5690726 51.744837,38.8084253 L51.744837,38.8084253 Z M50.6911329,39.1128277 L47.2299953,42.644258 C47.181196,42.4920568 47.1323966,42.3434794 47.0872121,42.1876544 C46.7311577,40.9772924 46.4004067,39.6292246 46.1708691,38.4188627 L48.8909799,35.5089206 L50.6911329,39.1128277 Z M45.5202114,44.3855122 L39.1112328,50.9211043 L34.974134,50.4010836 L44.6689342,40.0260349 C44.7936436,41.4357079 45.1099355,42.9251054 45.5202114,44.3855122 L45.5202114,44.3855122 Z M38.8907321,51.5752071 L35.2795817,64.3238698 L32.91914,65.4472596 L34.6524199,51.0443148 L38.8907321,51.5752071 Z M35.3952542,65.014211 L45.5581664,82.5862023 L43.9983952,86.3423105 L33.0257756,66.1412247 L35.3952542,65.014211 Z M46.1943651,82.7619584 L65.8550727,84.5032127 L67.2106097,90.7235309 L44.4683147,86.9166889 L46.1943651,82.7619584 Z M66.4876566,84.3437638 L80.1930387,72.2147774 L83.4770528,75.4236861 L67.8558452,90.6238753 L66.4876566,84.3437638 Z M80.4876421,71.5769819 L82.4721481,49.4697572 L87.2038757,47.7502459 L83.7174347,74.731533 L80.4876421,71.5769819 Z M82.5372139,48.7286823 L82.5552877,48.5311831 L79.4140568,43.9126013 C79.4483971,42.8997386 79.2007857,42.5627216 78.8194279,43.0374444 L76.2710185,39.2903957 L80.9575615,34.8040841 L87.3177408,46.8877725 L87.3014744,46.9982995 L82.5372139,48.7286823 Z M75.8932756,38.7323247 L75.7269964,38.4913394 L72.3020064,37.1776981 C72.1682601,35.9999507 71.8935379,35.6049523 71.7832876,35.164656 C71.5591721,34.2822514 71.0241869,34.7334192 70.8994775,36.3424034 C70.892248,36.4311874 70.8832111,36.5290311 70.8741741,36.6304985 L63.1638801,33.6770704 L63.6717546,28.5674586 L80.5274045,34.2985587 L75.8932756,38.7323247 Z M70.7928419,37.3226516 C70.6283701,38.5565685 70.306656,40.3521803 69.8349292,42.5590978 L62.6072062,39.2795242 L63.0951995,34.3728474 L70.7928419,37.3226516 Z M62.5331036,33.4360852 L62.3921277,33.3817276 L55.1897081,34.021335 C55.3704464,33.0936325 55.4698524,32.6678315 55.6596276,32.3090715 C56.077133,31.5172629 55.8042182,30.1601355 54.291439,32.589919 C54.0817826,32.9269359 53.8088679,33.4922547 53.5088424,34.1735363 L49.1476282,34.5576631 L47.0004577,30.259791 L63.0301338,28.4442481 L62.5331036,33.4360852 Z M48.5746879,34.8783728 L46.0317006,37.5998752 C45.9322946,36.9638916 45.8708436,36.3877014 45.8672288,35.9437812 C45.8636141,34.40365 45.0340255,34.7515384 44.6888154,37.4114357 C44.6183275,37.9531995 44.5984463,38.523954 44.6129053,39.1164515 L34.1626193,50.301428 L29.8773152,49.7632881 L46.3534147,30.4319233 L48.5746879,34.8783728 Z M34.0071844,50.9627785 L32.2251051,65.7788408 L27.7265299,67.9187173 L29.4778836,50.3938359 L34.0071844,50.9627785 Z M32.4311468,66.4256959 L43.6748738,87.1214357 L41.7680851,91.7146506 L27.7644849,68.6434849 L32.4311468,66.4256959 Z M44.2044369,87.5581082 L67.3660446,91.4356151 L68.421556,96.2843105 L42.3139147,92.1060251 L44.2044369,87.5581082 Z M68.0203171,91.3866933 L83.9505871,75.8875374 L87.2255643,79.0873865 L69.0324513,96.0342657 L68.0203171,91.3866933 Z M84.2994119,75.2986637 L87.8924885,47.5002011 L92.3549161,45.8803455 L87.4406428,78.3662427 L84.2994119,75.2986637 Z M64.3278344,21.9412705 L84.398818,30.5895603 L81.0750414,33.7712902 L63.7404351,27.8807413 L64.3278344,21.9412705 Z M63.6825989,21.8742295 L63.0970069,27.7557189 L46.6787436,29.6147478 L44.3598718,24.9744231 L63.6825989,21.8742295 Z M43.8104274,25.3404307 L46.0317006,29.7886921 L29.0892964,49.6636325 L26.4252145,49.3302394 L43.8104274,25.3404307 Z M26.1179594,49.9734707 L28.8344554,50.3159234 L27.0415319,68.2448627 L24.0268178,69.6799026 L26.1179594,49.9734707 Z M38.8672361,98.7014106 L24.0828466,70.3937987 L27.1662413,68.9297681 L41.455408,92.466597 L38.8672361,98.7014106 Z M39.3949918,99.1417069 L42.0482294,92.7474445 L68.5751835,96.9945828 L69.4228459,100.890209 L39.3949918,99.1417069 Z M70.0319339,100.618421 L69.1969231,96.789836 L87.7027133,79.5530497 L89.6131167,81.4157025 L70.0319339,100.618421 Z M89.9510972,80.8177692 L88.0153905,78.9261257 L93.0543731,45.6284887 L96.4179121,44.4036314 L89.9510972,80.8177692 Z M93.1682382,44.8692946 L93.1917342,44.7152815 L85.40553,30.5478862 L85.9314784,30.0441727 L96.5317772,43.6462492 L93.1682382,44.8692946 Z" id="Fill-9" fill="#241F21"></path>
            </g>
        </g>
    </g>
</svg>