
<svg style='scaling-svg' viewBox="0 0 891 922" version="1.1" xmlns="http://www.w3.org/2000/svg" xmlns:xlink="http://www.w3.org/1999/xlink">
    <g id="Page-1" stroke="none" stroke-width="1" fill="none" fill-rule="evenodd">
        <g id="perma-3o">
            <circle id="Oval" fill="#F8911E" cx="308.5" cy="310.5" r="308.5"></circle>
            <circle id="Oval-Copy" fill="#19ADF7" cx="579.5" cy="310.5" r="308.5"></circle>
            <circle id="Oval-Copy-8" fill="#F8911E" cx="308.5" cy="310.5" r="308.5"></circle>
            <circle id="Oval-Copy-7" fill="#19ADF7" cx="582.5" cy="308.5" r="308.5"></circle>
            <circle id="Oval-Copy-2" fill="#F26E6A" cx="446" cy="613" r="309"></circle>
            <path d="M444.005283,33.2753322 C546.454703,83.4460357 617,188.734649 617,310.5 C617,432.265351 546.454703,537.553964 444.005283,587.724668 L443.995716,587.725157 C341.545756,537.554649 271,432.265747 271,310.5 C271,189.53031 340.62637,84.8227297 441.990485,34.2658842 Z" id="Combined-Shape" fill="#4BAE5A"></path>
            <path d="M446,304 C600.887263,304 729.15797,417.959023 751.540155,566.605103 C702.39029,599.693837 643.199743,619 579.5,619 C424.591716,619 296.350363,504.825293 274.337461,356.037399 C323.436477,323.166317 382.479972,304 446,304 Z" id="Combined-Shape" fill="#8762C2"></path>
            <path d="M446,304 C507.95052,304 565.642994,322.230863 614.005093,353.620259 C593.030722,503.591695 464.242888,619 308.5,619 C246.368064,619 188.526091,600.632486 140.107702,569.031078 L140.105844,569.020996 C161.454728,419.195566 290.274681,304 446,304 Z" id="Combined-Shape" fill="#EF4D26"></path>
            <path d="M455.268014,304.136333 L459.657213,304.296405 C459.796907,304.302481 459.936577,304.308649 460.076223,304.31491 L459.656798,304.296387 C461.254494,304.365872 462.849042,304.447488 464.440352,304.541148 L464.440664,304.541166 C465.899613,304.627035 467.356152,304.723049 468.809899,304.82912 L464.46967,304.542875 C466.068759,304.637143 467.664577,304.743571 469.257035,304.862069 L468.809899,304.82912 C470.387993,304.944265 471.962797,305.071261 473.534222,305.21002 L473.534204,305.210019 C475.027932,305.341917 476.518589,305.484442 478.006118,305.637519 L473.615207,305.217182 C475.151423,305.353237 476.684409,305.500534 478.214082,305.658991 L478.006118,305.637519 C479.523973,305.793717 481.03857,305.960902 482.549829,306.138993 L482.549481,306.138952 C484.00942,306.310995 485.465897,306.493171 486.919187,306.685446 L482.694488,306.156075 C484.232269,306.338025 485.766589,306.531268 487.297364,306.735718 L486.919187,306.685446 C488.447458,306.887642 489.972205,307.101007 491.493343,307.325456 L491.493636,307.325499 C492.963008,307.542311 494.429304,307.769512 495.892155,308.006984 L491.687653,307.35419 C493.188786,307.576665 494.6864,307.809935 496.180413,308.053919 L496.180115,308.05387 C499.153707,308.539482 502.112737,309.06748 505.056864,309.637272 L505.056888,309.637277 C507.997867,310.20646 510.923996,310.817352 513.834614,311.469309 L513.442931,311.381844 C514.946495,311.716568 516.445931,312.062248 517.94115,312.418795 L517.941134,312.418791 C519.334832,312.75113 520.724851,313.092906 522.111136,313.444053 L518.022152,312.438123 C519.51968,312.79565 521.012977,313.164078 522.501953,313.54332 L522.111136,313.444053 C523.58444,313.817241 525.053525,314.201013 526.518307,314.595283 L526.518872,314.595435 C527.934325,314.976427 529.346321,315.367381 530.754218,315.768069 L526.66589,314.635047 C528.107394,315.023821 529.544725,315.422764 530.977802,315.831793 L530.754218,315.768069 C532.177131,316.17303 533.595857,316.587934 535.010316,317.012699 L535.01145,317.013039 C536.400411,317.430147 537.786383,317.85712 539.168159,318.293543 L535.208486,317.072282 C536.635008,317.50172 538.057184,317.94119 539.474932,318.390612 L539.475239,318.390709 C542.292071,319.283635 545.091724,320.215947 547.873251,321.186906 L547.873406,321.18696 C550.654502,322.157768 553.417628,323.167269 556.161988,324.214765 L556.162477,324.214951 C558.859248,325.244283 561.53838,326.310503 564.198772,327.412815 L563.955115,327.31198 C565.317352,327.875042 566.674686,328.447563 568.027033,329.029462 L568.027174,329.029523 C569.321765,329.58657 570.611927,330.152273 571.897446,330.7265 L568.201237,329.104484 C569.575663,329.696889 570.944932,330.298983 572.308958,330.91068 L572.309519,330.910931 C574.936453,332.088979 577.544493,333.30291 580.132464,334.551858 L579.880879,334.430584 C581.204475,335.067867 582.522832,335.714306 583.835867,336.369818 L583.83591,336.369839 C585.117312,337.009558 586.393687,337.657941 587.664918,338.314889 L584.017987,336.460813 C585.325461,337.114629 586.627651,337.777445 587.924475,338.449179 L587.923942,338.448903 C590.503367,339.785003 593.061041,341.156096 595.596859,342.561819 L595.309378,342.402654 C596.581704,343.106193 597.848541,343.818445 599.109808,344.539329 L599.10973,344.539284 C600.351389,345.24896 601.587573,345.966957 602.818284,346.693242 L599.353766,344.678911 C600.614672,345.401113 601.87,346.131946 603.119669,346.87133 L603.119282,346.871101 C605.580229,348.327155 608.018852,349.816132 610.434924,351.337647 L610.308025,351.257775 C611.485832,351.998698 612.658285,352.747351 613.825315,353.503663 L613.825242,353.503615 L614.005093,353.620259 L614.005093,353.620259 C610.645553,377.641717 604.519998,400.776437 595.960703,422.692201 L595.964629,422.693667 C593.822247,428.167639 591.531877,433.56699 589.094774,438.885072 L589.098299,438.88656 C587.254286,442.901263 585.330113,446.871104 583.324487,450.792365 L583.327655,450.793937 C581.338973,454.674305 579.273633,458.508633 577.13063,462.293185 L577.237782,462.110406 C576.546296,463.333471 575.846702,464.551346 575.139073,465.763957 L577.13063,462.293185 C576.409927,463.56595 575.68044,464.833085 574.942253,466.094508 L574.945145,466.095801 C572.727933,469.878359 570.43532,473.610812 568.066635,477.289646 L568.305905,476.922758 C567.521463,478.14483 566.728635,479.361005 565.927501,480.571201 L568.066635,477.289646 C567.306845,478.469684 566.539228,479.644206 565.763858,480.813138 L565.765988,480.814932 C564.175914,483.207088 562.55545,485.577591 560.903095,487.924016 L560.952526,487.858288 C560.183352,488.95112 559.407262,490.038734 558.624319,491.121064 L560.903095,487.924016 C560.003102,489.202052 559.093647,490.472945 558.174834,491.736593 L558.624319,491.121064 C557.769983,492.302087 556.907488,493.476819 556.036916,494.645179 L558.174834,491.736593 C557.372907,492.839487 556.563851,493.936862 555.747733,495.028651 L555.749418,495.030395 C553.954923,497.427042 552.128036,499.798474 550.267789,502.142231 L550.715772,501.580042 C549.850613,502.675233 548.978184,503.764415 548.098559,504.847517 L550.267789,502.142231 C549.395464,503.241288 548.515803,504.334259 547.628881,505.421071 L547.630797,505.422079 C545.80591,507.654892 543.952263,509.86269 542.06858,512.043822 L542.330549,511.74309 C541.438658,512.778466 540.540007,513.807853 539.634666,514.831183 L542.06858,512.043822 C541.105965,513.158443 540.135505,514.2661 539.157288,515.366708 L539.634666,514.831183 C538.660274,515.932561 537.678133,517.026924 536.688326,518.114185 L539.157288,515.366708 C538.256455,516.380249 537.349044,517.387813 536.43512,518.389331 L536.436394,518.390587 C534.399815,520.619707 532.332215,522.820102 530.233057,524.989776 L530.76597,524.439956 C529.82977,525.41236 528.887248,526.378635 527.938471,527.338715 L530.233057,524.989776 C529.254243,526.001471 528.268568,527.006487 527.276107,528.004748 L527.938471,527.338715 C526.851353,528.438786 525.756023,529.530723 524.65258,530.614428 L527.276107,528.004748 C526.338508,528.947826 525.394854,529.884875 524.445206,530.815832 L524.65258,530.614428 C523.598034,531.650109 522.53608,532.678272 521.466803,533.698829 L524.445206,530.815832 C523.329078,531.909992 522.204671,532.995738 521.072088,534.072966 L521.466803,533.698829 C520.494231,534.627086 519.515601,535.549052 518.530979,536.464659 L521.072088,534.072966 C519.993099,535.09922 518.906689,536.117744 517.812947,537.128448 L518.530979,536.464659 C517.526094,537.399108 516.514968,538.326936 515.497669,539.248072 L517.812947,537.128448 C516.806196,538.058766 515.793233,538.982459 514.774127,539.899459 L514.774593,539.900734 C512.561767,541.890157 510.320457,543.849309 508.050906,545.776206 L508.729742,545.199674 C507.687043,546.090085 506.638338,546.97367 505.583697,547.850359 L508.050906,545.776206 C506.985123,546.681078 505.913112,547.578837 504.834947,548.46941 L505.583697,547.850359 C504.468435,548.77744 503.346535,549.69681 502.218078,550.608386 L504.834947,548.46941 C503.800638,549.323757 502.760666,550.17149 501.715094,551.012545 L501.715824,551.013248 C499.338352,552.924389 496.932678,554.801724 494.498831,556.64379 L495.33071,556.013096 C494.25809,556.830592 493.179952,557.641219 492.096362,558.444911 L494.498831,556.64379 C493.39961,557.47574 492.294643,558.300495 491.183999,559.117987 L492.096362,558.444911 C490.813506,559.396397 489.523009,560.338164 488.224979,561.270101 L491.183999,559.117987 C490.124394,559.897911 489.059623,560.671223 487.989745,561.437862 L488.224979,561.270101 C487.039059,562.121549 485.846851,562.964792 484.648439,563.799748 L487.989745,561.437862 C486.666889,562.385779 485.336226,563.323494 483.997872,564.250892 L484.648439,563.799748 C483.571099,564.550351 482.488745,565.294257 481.401437,566.031404 L483.997872,564.250892 C482.788131,565.08917 481.572106,565.919019 480.349882,566.740355 L481.401437,566.031404 C480.261303,566.804366 479.115722,567.569898 477.964764,568.327929 L480.349882,566.740355 C479.235846,567.488988 478.116659,568.230549 476.992386,568.964972 L476.992324,568.965766 C474.469389,570.613101 471.920779,572.225285 469.347285,573.800797 L470.270829,573.233811 C469.104738,573.953327 467.933497,574.665297 466.757174,575.369654 L469.347285,573.800797 C468.167775,574.522901 466.983037,575.237302 465.793142,575.94393 L466.757174,575.369654 C465.46333,576.144378 464.163337,576.909891 462.857286,577.666103 L465.793142,575.94393 C464.650852,576.622287 463.503809,577.29348 462.352075,577.957447 L462.857286,577.666103 C461.519354,578.440773 460.175064,579.205681 458.824514,579.96073 L462.352075,577.957447 C460.957298,578.761526 459.555641,579.555008 458.147214,580.337783 L458.824514,579.96073 C457.635402,580.625525 456.441436,581.282677 455.242684,581.932119 L458.147214,580.337783 C456.874161,581.04532 455.595576,581.744109 454.311542,582.434069 L455.242684,581.932119 C454.0492,582.578707 452.850972,583.217653 451.648065,583.848891 L454.311542,582.434069 C453.089532,583.0907 451.862587,583.739335 450.630775,584.379903 L450.63103,584.380175 C448.437335,585.520538 446.228465,586.635596 444.004562,587.72468 C441.7285,586.614906 439.474874,585.476601 437.23732,584.311674 L437.798034,584.602865 C436.622536,583.993937 435.451453,583.377669 434.284847,582.754122 L437.23732,584.311674 C435.864867,583.597141 434.498461,582.872591 433.138198,582.138121 L434.284847,582.754122 C433.078733,582.109459 431.877404,581.457015 430.680927,580.796858 L433.138198,582.138121 C431.964882,581.504593 430.796138,580.863685 429.632026,580.215459 L430.680927,580.796858 C429.395098,580.087401 428.114873,579.369036 426.840335,578.641846 L429.632026,580.215459 C428.457447,579.561404 427.287584,578.899899 426.122503,578.231008 L426.840335,578.641846 C425.463132,577.85608 424.092569,577.060011 422.728751,576.253742 L426.122503,578.231008 C424.690167,577.408681 423.265058,576.575192 421.847293,575.730658 L422.728751,576.253742 C421.592814,575.582193 420.461556,574.903568 419.335037,574.217929 L421.847293,575.730658 C420.606508,574.991547 419.371349,574.243977 418.141894,573.488027 L419.335037,574.217929 C418.171937,573.510024 417.013889,572.794641 415.86096,572.071847 L418.141894,573.488027 C417.014908,572.795081 415.892715,572.095094 414.775377,571.388127 L415.86096,572.071847 C414.564449,571.259039 413.274411,570.436858 411.990942,569.6054 L414.775377,571.388127 C413.651218,570.676844 412.531973,569.958496 411.417706,569.233145 L411.990942,569.6054 C410.713581,568.777899 409.442725,567.941208 408.17847,567.095423 L411.417706,569.233145 C410.016459,568.32098 408.623083,567.39774 407.237702,566.46355 L408.17847,567.095423 C407.062236,566.348663 405.951147,565.594813 404.845267,564.833937 L407.237702,566.46355 C406.085281,565.68645 404.938392,564.901772 403.797107,564.109588 L404.845267,564.833937 C403.686506,564.036678 402.533465,563.231704 401.386217,562.419091 L403.797107,564.109588 C402.714691,563.358267 401.637315,562.600194 400.565041,561.83543 L401.386217,562.419091 C400.032355,561.46013 398.686561,560.49053 397.348958,559.510413 L400.565041,561.83543 C399.356871,560.973743 398.155177,560.103563 396.960047,559.224975 L397.348958,559.510413 C396.275437,558.723799 395.207192,557.930411 394.144285,557.130312 L396.960047,559.224975 C395.703493,558.301233 394.454194,557.368197 393.212252,556.42597 L394.144285,557.130312 C393.110886,556.352424 392.082533,555.568193 391.059284,554.777675 L393.212252,556.42597 C392.102447,555.583991 390.998517,554.734673 389.900534,553.878087 L391.059284,554.777675 C389.924093,553.900676 388.795183,553.01594 387.672635,552.123546 L389.900534,553.878087 C388.874775,553.077846 387.854206,552.271263 386.838886,551.458395 L387.672635,552.123546 C386.384732,551.0997 385.105202,550.065774 383.834164,549.021888 L386.838886,551.458395 C385.557837,550.432784 384.285144,549.397169 383.020925,548.351668 L383.834164,549.021888 C382.820173,548.18911 381.811587,547.349994 380.808466,546.504599 L383.020925,548.351668 C381.930473,547.449871 380.846327,546.54072 379.768561,545.62429 L380.808466,546.504599 C379.770345,545.629708 378.738078,544.748092 377.711731,543.859819 L379.768561,545.62429 C378.756074,544.763367 377.749219,543.89602 376.748058,543.022313 L376.748054,543.02231 C374.516018,541.074425 372.312284,539.094922 370.137551,537.084501 L370.862363,537.752418 C369.897136,536.865788 368.937574,535.973087 367.983736,535.074377 L370.137551,537.084501 C369.100511,536.125815 368.070065,535.160097 367.046291,534.187426 L367.983736,535.074377 C366.993897,534.141746 366.010223,533.202644 365.032781,532.257137 L367.046291,534.187426 C366.072889,533.262612 365.105517,532.331512 364.144242,531.39419 L365.032781,532.257137 C363.80718,531.071578 362.591378,529.875951 361.385509,528.670389 L364.144242,531.39419 C363.112346,530.388008 362.087475,529.374656 361.069709,528.354215 L361.385509,528.670389 C360.452464,527.737582 359.525365,526.798826 358.604276,525.854185 L361.069709,528.354215 C359.972577,527.2542 358.883701,526.145947 357.803182,525.029557 L358.604276,525.854185 C357.670299,524.896327 356.742501,523.932417 355.820944,522.962519 L357.803182,525.029557 C356.847865,524.042526 355.89908,523.049135 354.956898,522.049452 L355.820944,522.962519 C354.833667,521.923453 353.853554,520.877514 352.880684,519.824782 L354.956898,522.049452 C354.052144,521.089482 353.153477,520.123712 352.260961,519.152201 L352.880684,519.824782 C351.792751,518.647543 350.713877,517.461808 349.644171,516.267689 L352.260961,519.152201 C351.159598,517.953361 350.067599,516.745781 348.985081,515.529578 L349.644171,516.267689 C348.759523,515.28015 347.881145,514.286877 347.009101,513.287932 L348.985081,515.529578 C348.042296,514.470363 347.106701,513.404608 346.178373,512.332388 L347.009101,513.287932 C346.120735,512.270291 345.238942,511.246764 344.363788,510.217417 L346.178373,512.332388 C345.294877,511.31195 344.417964,510.285656 343.547699,509.253573 L344.363788,510.217417 C343.298147,508.964022 342.242349,507.701997 341.196515,506.431463 L343.547699,509.253573 C342.70268,508.25143 341.863929,507.24383 341.031507,506.230832 L341.196515,506.431463 C340.31889,505.365279 339.448281,504.293102 338.584759,503.215004 L341.031507,506.230832 C339.955443,504.921338 338.889954,503.602825 337.83517,502.275422 L338.584759,503.215004 C337.756606,502.181063 336.93497,501.141677 336.119915,500.096906 L337.83517,502.275422 C336.970004,501.186646 336.112041,500.091889 335.261352,498.991223 L336.119915,500.096906 C335.278563,499.018425 334.444222,497.934207 333.616961,496.844321 L335.261352,498.991223 C334.457821,497.951572 333.660781,496.90665 332.870291,495.856516 L333.616961,496.844321 C332.590685,495.492239 331.575306,494.131433 330.570954,492.762034 L332.870291,495.856516 C331.929651,494.606914 330.998288,493.349933 330.076303,492.085676 L330.570954,492.762034 C329.801906,491.713464 329.039324,490.659855 328.283266,489.601266 L330.076303,492.085676 C329.184154,490.862333 328.300788,489.632176 327.426295,488.395299 L328.283266,489.601266 C327.501674,488.506926 326.727054,487.407264 325.959472,486.302345 L327.426295,488.395299 C326.663588,487.316531 325.907631,486.232651 325.158486,485.14372 L325.959472,486.302345 C325.124029,485.099742 324.296922,483.890911 323.478236,482.675937 L325.158486,485.14372 C324.415002,484.063018 323.678227,482.977341 322.948222,481.886751 L323.478236,482.675937 C322.565095,481.320786 321.66243,479.957992 320.770355,478.587671 L322.948222,481.886751 C322.072297,480.578163 321.206118,479.2625 320.349789,477.939866 L320.770355,478.587671 C320.049198,477.479895 319.334961,476.3672 318.627708,475.249647 L320.349789,477.939866 C319.549596,476.703936 318.758005,475.46192 317.975099,474.213901 L318.627708,475.249647 C317.896296,474.09392 317.172352,472.932997 316.455944,471.766946 L317.975099,474.213901 C317.255454,473.066724 316.543147,471.914475 315.838245,470.75722 L316.455944,471.766946 C315.663201,470.476651 314.879687,469.180077 314.105492,467.877317 L315.838245,470.75722 C315.146335,469.621295 314.461559,468.480546 313.783979,467.335037 L314.105492,467.877317 C313.332404,466.576421 312.56861,465.269356 311.8142,463.956214 L313.783979,467.335037 C312.90728,465.852899 312.042629,464.362791 311.190161,462.864848 L311.8142,463.956214 C311.164049,462.824547 310.520869,461.688367 309.884716,460.547732 L311.190161,462.864848 C310.502323,461.656192 309.822417,460.442435 309.150513,459.223647 L309.884716,460.547732 C309.218052,459.352389 308.559107,458.152153 307.907948,456.947092 L309.150513,459.223647 C308.509563,458.061008 307.875894,456.893792 307.249569,455.722059 L307.249442,455.721821 C305.812306,453.033218 304.413711,450.320596 303.054528,447.584936 L303.646434,448.769863 C303.040679,447.563718 302.442601,446.353052 301.852266,445.137929 L303.054528,447.584936 C302.452504,446.373228 301.858213,445.157 301.271717,443.936316 L301.852266,445.137929 C301.231334,443.859827 300.618967,442.576793 300.015241,441.288903 L301.271717,443.936316 C300.690139,442.725867 300.116227,441.511036 299.550045,440.291888 L300.015241,441.288903 C299.305108,439.774024 298.606929,438.252426 297.920825,436.724229 L299.550045,440.291888 C298.862187,438.810737 298.185737,437.323214 297.520809,435.82943 L297.920825,436.724229 C297.382546,435.525291 296.8517,434.322293 296.328345,433.115291 L297.520809,435.82943 C296.926875,434.495135 296.342133,433.155846 295.766663,431.811642 L296.328345,433.115291 C295.782436,431.856276 295.244678,430.592905 294.715137,429.325246 L295.766663,431.811642 C295.230523,430.559304 294.702432,429.302701 294.182455,428.041897 L294.715137,429.325246 C294.133415,427.932672 293.56161,426.534922 292.999809,425.132086 L294.182455,428.041897 C293.676663,426.815488 293.178548,425.585105 292.68817,424.350807 L292.999809,425.132086 C292.415302,423.672552 291.841625,422.207512 291.278878,420.737065 L292.68817,424.350807 C292.051882,422.749248 291.42862,421.141098 290.818516,419.526488 L291.278878,420.737065 C290.785399,419.447617 290.300325,418.154011 289.823722,416.856314 L290.818516,419.526488 C290.33611,418.249826 289.861929,416.969125 289.39604,415.684449 L289.823722,416.856314 C289.337078,415.531278 288.859265,414.201977 288.390357,412.868482 L289.39604,415.684449 C288.927551,414.392608 288.467446,413.096748 288.01579,411.796936 L288.015671,411.796594 C286.995148,408.859651 286.017651,405.902181 285.084059,402.925284 L285.490828,404.212379 C285.075561,402.908409 284.668728,401.600677 284.270394,400.289245 L285.084059,402.925284 C284.674173,401.618302 284.272749,400.307575 283.879853,398.993168 L284.270394,400.289245 C283.83195,398.845759 283.403803,397.397792 282.986037,395.945429 L283.879853,398.993168 C283.496031,397.709118 283.120347,396.421556 282.75286,395.130542 L282.986037,395.945429 C282.533357,394.371684 282.092866,392.792778 281.664674,391.20882 L282.75286,395.130542 C282.304876,393.556735 281.869075,391.977797 281.445564,390.393836 L281.664674,391.20882 C281.309231,389.893972 280.962262,388.575643 280.62383,387.253895 L281.445564,390.393836 C281.053627,388.927964 280.672216,387.457791 280.301418,385.983401 L280.62383,387.253895 C280.288179,385.943007 279.960925,384.628755 279.642129,383.311201 L280.301418,385.983401 C279.95945,384.623651 279.626508,383.260314 279.30266,381.89346 L279.642129,383.311201 C279.277481,381.804146 278.923899,380.29277 278.581473,378.777164 L279.30266,381.89346 C278.992876,380.585966 278.691413,379.275252 278.398329,377.961378 L278.581473,378.777164 C278.222913,377.190145 277.876586,375.598487 277.542595,374.002296 L278.398329,377.961378 C278.022056,376.274568 277.659594,374.582549 277.31107,372.885446 L277.542595,374.002296 C277.26131,372.657987 276.988774,371.310463 276.725052,369.959786 L277.31107,372.885446 C277.022195,371.478802 276.742895,370.068666 276.473241,368.655108 L276.725052,369.959786 C276.459078,368.597577 276.202069,367.232161 275.954087,365.863602 L276.473241,368.655108 C276.209107,367.270485 275.954227,365.882578 275.708669,364.491455 L275.708714,364.491711 C275.237945,361.824733 274.801476,359.146193 274.399732,356.456306 L274.337198,356.035619 L274.337198,356.035619 L276.192685,354.798924 L276.192685,354.798924 C277.413634,354.000278 278.637471,353.206006 279.86724,352.420204 L279.863905,352.416709 C281.140148,351.606837 282.419411,350.802545 283.704939,350.00742 L283.702289,350.003873 C284.904548,349.265436 286.109613,348.531434 287.320058,347.805488 L287.317438,347.802263 C288.660828,347.001382 290.0082,346.207159 291.362073,345.422921 L291.359942,345.419767 C292.663183,344.669246 293.970298,343.924792 295.283328,343.189648 L295.281332,343.186746 C296.521923,342.49618 297.765781,341.810996 299.014829,341.134172 L296.416272,342.55454 C297.657519,341.866537 298.904001,341.186832 300.155644,340.515499 L299.014829,341.134172 C300.357924,340.406385 301.707018,339.688265 303.062019,338.979903 L303.060565,338.977304 C304.339557,338.312037 305.622345,337.652847 306.910305,337.002409 L304.100288,338.436353 C305.350995,337.788651 306.606691,337.149244 307.867303,336.518205 L306.910305,337.002409 C308.214917,336.343562 309.524835,335.693696 310.839979,335.052891 L310.838761,335.0507 C312.154819,334.412235 313.474882,333.780637 314.800088,333.158177 L311.853698,334.558536 C313.155518,333.930201 314.462418,333.310726 315.774318,332.700191 L314.800088,333.158177 C316.095753,332.549593 317.396334,331.949744 318.701754,331.358708 L318.701231,331.356662 C320.095795,330.727547 321.495355,330.106435 322.900341,329.495465 L319.804297,330.859918 C321.119328,330.270831 322.439227,329.690668 323.763918,329.119505 L322.900341,329.495465 C324.231032,328.916802 325.566591,328.347236 326.906939,327.786845 L323.763918,329.119505 C325.040376,328.569139 326.321283,328.027131 327.606571,327.493548 L326.906939,327.786845 C328.318166,327.196819 329.734703,326.616966 331.156458,326.047374 L327.606571,327.493548 C328.994131,326.917508 330.386796,326.351288 331.784479,325.794975 L331.156458,326.047374 C332.494991,325.511124 333.838149,324.983969 335.185856,324.465988 L331.784479,325.794975 C333.097212,325.272475 334.414371,324.758715 335.735886,324.253766 L335.185856,324.465988 C336.61524,323.916614 338.04974,323.377558 339.489265,322.848912 L335.735886,324.253766 C337.128734,323.72156 338.52642,323.199143 339.928859,322.686599 L339.489265,322.848912 C340.835908,322.354376 342.186949,321.868949 343.542312,321.392707 L339.928859,322.686599 C341.289119,322.18947 342.65385,321.701628 344.022977,321.223151 L344.023581,321.22405 L347.874631,319.906696 C349.242958,319.448748 350.615553,319.000116 351.992341,318.560874 L348.229083,319.78734 C349.613781,319.325833 351.002839,318.873861 352.396177,318.431501 L351.992341,318.560874 C353.388307,318.115514 354.788583,317.679809 356.193091,317.253836 L356.19326,317.253045 C357.621176,316.820712 359.053637,316.397651 360.490389,315.984734 L356.595522,317.131355 C358.044646,316.694057 359.498261,316.267115 360.956282,315.850615 L360.490389,315.984734 C361.944247,315.566901 363.402501,315.159456 364.865064,314.762484 L360.956282,315.850615 C362.322406,315.460365 363.692398,315.079282 365.066187,314.707436 L364.865064,314.762484 C366.265621,314.382342 367.670131,314.011803 369.078518,313.650944 L365.066187,314.707436 C366.578503,314.298094 368.095419,313.899947 369.616843,313.513088 L369.078518,313.650944 C370.540249,313.276416 372.006157,312.912314 373.476156,312.558722 L369.616843,313.513088 C370.991204,313.163624 372.369243,312.823371 373.75089,312.492399 L373.476156,312.558722 C374.937789,312.207143 376.403467,311.865954 377.873109,311.535238 L373.75089,312.492399 C375.247726,312.133834 376.748796,311.786162 378.254012,311.449472 L377.873109,311.535238 C379.29946,311.214263 380.729544,310.903154 382.163286,310.601985 L378.254012,311.449472 C379.690599,311.128133 381.130963,310.816797 382.575026,310.515541 L382.163286,310.601985 C383.70264,310.278631 385.246211,309.966736 386.793905,309.666393 L382.575026,310.515541 C383.991536,310.220034 385.411607,309.934225 386.835164,309.658188 L386.793905,309.666393 C388.210128,309.391562 389.629804,309.126405 391.05286,308.870991 L386.835164,309.658188 C388.353848,309.363706 389.876502,309.080345 391.403035,308.808194 L391.05286,308.870991 C392.580178,308.596865 394.111391,308.333962 395.64641,308.082373 L391.403035,308.808194 C392.861949,308.548098 394.324406,308.29824 395.790332,308.058698 L395.64641,308.082373 C397.086393,307.846359 398.529726,307.6203 399.976336,307.40427 L395.790332,308.058698 C397.311741,307.810089 398.836885,307.572592 400.365678,307.346291 L399.976336,307.40427 C401.527116,307.172683 403.081662,306.952621 404.639884,306.744172 L400.365678,307.346291 C401.800153,307.133952 403.237841,306.931471 404.67867,306.73892 L404.639884,306.744172 C406.085639,306.550768 407.534559,306.367363 408.986571,306.194027 L404.67867,306.73892 C406.256134,306.528108 407.837363,306.329198 409.422265,306.142283 L408.986571,306.194027 C410.510194,306.012142 412.037221,305.841346 413.567569,305.681719 L409.422265,306.142283 C410.877988,305.970603 412.336809,305.809041 413.798656,305.657672 L413.567569,305.681719 C415.078964,305.52407 416.593599,305.377316 418.111395,305.241537 L413.798656,305.657672 C415.358699,305.496134 416.922188,305.346204 418.489035,305.207967 L418.111395,305.241537 C419.611689,305.107324 421.115072,304.983834 422.621465,304.871146 L418.489035,305.207967 C419.994192,305.075174 421.502448,304.953172 423.013724,304.84204 L422.621465,304.871146 C424.187596,304.753988 425.756981,304.648505 427.329533,304.554783 L423.013724,304.84204 C424.55202,304.728921 426.093446,304.627064 427.63792,304.536551 L427.329533,304.554783 C428.821308,304.465875 430.315934,304.38755 431.813336,304.319884 L427.63792,304.536551 C429.167058,304.446936 430.699185,304.368441 432.234219,304.301146 L431.813336,304.319884 C433.401199,304.24813 434.992185,304.18836 436.586204,304.140662 L432.234219,304.301146 C433.777265,304.2335 435.323249,304.17717 436.872091,304.132237 L436.586204,304.140662 C438.113373,304.094965 439.643326,304.060349 441.175986,304.036892 L436.872091,304.132237 C438.403352,304.087815 439.937405,304.054533 441.474174,304.03247 L441.473971,304.032473 L446,304 L446,304 L450.509217,304.032232 C452.094064,304.054902 453.676023,304.089503 455.25501,304.13595 L450.784811,304.036295 C452.281704,304.059018 453.776016,304.092385 455.267675,304.136323 L455.268014,304.136333 Z" id="Combined-Shape" fill="#E9F6E9"></path>
            <text id="Một-phong-trào-toàn" font-family="LucidaGrande-Bold, Lucida Grande" font-size="17" font-weight="bold" fill="#1E1E1E">
                <tspan x="125.981445" y="82">Một phong trào toàn cầu:</tspan>
                <tspan x="346.018555" y="82" font-family="LucidaGrande, Lucida Grande" font-weight="normal"> </tspan>
                <tspan x="128.36377" y="102" font-family="LucidaGrande, Lucida Grande" font-weight="normal">một mạng lưới kết nối lẫn </tspan>
                <tspan x="147.60498" y="122" font-family="LucidaGrande, Lucida Grande" font-weight="normal">nhau không biên giới</tspan>
            </text>
            <text id="XÃ-HỘI" font-family="LucidaGrande-Bold, Lucida Grande" font-size="22" font-weight="bold" fill="#1E1E1E">
                <tspan x="234.652344" y="49">XÃ HỘI</tspan>
            </text>
            <text id="KINH-TẾ" font-family="LucidaGrande-Bold, Lucida Grande" font-size="22" font-weight="bold" fill="#1E1E1E">
                <tspan x="560.685059" y="49">KINH TẾ</tspan>
            </text>
            <text id="KINH-TẾ-Copy" font-family="LucidaGrande-Bold, Lucida Grande" font-size="22" font-weight="bold" fill="#1E1E1E">
                <tspan x="560.685059" y="49">KINH TẾ</tspan>
            </text>
            <text id="MÔI-TRƯỜNG" font-family="LucidaGrande-Bold, Lucida Grande" font-size="22" font-weight="bold" fill="#1E1E1E">
                <tspan x="375.075195" y="867">MÔI TRƯỜNG</tspan>
            </text>
            <text id="Tăng-cường-hiểu-biết" font-family="LucidaGrande-Bold, Lucida Grande" font-size="16" font-weight="bold" fill="#1E1E1E">
                <tspan x="89.25" y="151">Tăng cường hiểu biết </tspan>
                <tspan x="88.3242188" y="169">sinh thái:</tspan>
                <tspan x="164.417969" y="169" font-family="LucidaGrande, Lucida Grande" font-weight="normal"> tạo động lực </tspan>
                <tspan x="77.0859375" y="187" font-family="LucidaGrande, Lucida Grande" font-weight="normal">qua việc nhận diện những </tspan>
                <tspan x="76.96875" y="205" font-family="LucidaGrande, Lucida Grande" font-weight="normal">khuôn mẫu ở xung quanh</tspan>
            </text>
            <text id="Một-thế-giới-năng-độ" font-family="LucidaGrande-Bold, Lucida Grande" font-size="16" font-weight="bold" fill="#1E1E1E">
                <tspan x="48.0273438" y="234">Một thế giới năng động: </tspan>
                <tspan x="63.2304688" y="252" font-family="LucidaGrande, Lucida Grande" font-weight="normal">sự phát triển có trách </tspan>
                <tspan x="56.71875" y="270" font-family="LucidaGrande, Lucida Grande" font-weight="normal">nhiệm, làm cùng với tự </tspan>
                <tspan x="59.5351562" y="288" font-family="LucidaGrande, Lucida Grande" font-weight="normal">nhiên để đảm bảo nhu </tspan>
                <tspan x="75.40625" y="306" font-family="LucidaGrande, Lucida Grande" font-weight="normal">cầu của con người</tspan>
            </text>
            <text id="Tôn-vinh-sự-đa-dạng:" font-family="LucidaGrande-Bold, Lucida Grande" font-size="16" font-weight="bold" fill="#1E1E1E">
                <tspan x="46.75" y="336">Tôn vinh sự đa dạng:</tspan>
                <tspan x="221.25" y="336" font-family="LucidaGrande, Lucida Grande" font-weight="normal"> </tspan>
                <tspan x="31.8867188" y="354" font-family="LucidaGrande, Lucida Grande" font-weight="normal">văn hóa tôn trọng sự khác </tspan>
                <tspan x="35.6328125" y="372" font-family="LucidaGrande, Lucida Grande" font-weight="normal">biệt và đẩy mạnh hợp tác </tspan>
                <tspan x="65.2890625" y="390" font-family="LucidaGrande, Lucida Grande" font-weight="normal">hơn là cạnh tranh</tspan>
            </text>
            <text id="Tạo-cảm-hứng-cho-xã" font-family="LucidaGrande-Bold, Lucida Grande" font-size="16" font-weight="bold" fill="#1E1E1E">
                <tspan x="357.140625" y="108">Tạo cảm hứng cho xã </tspan>
                <tspan x="371.96875" y="126">hội sinh thái:</tspan>
                <tspan x="479.265625" y="126" font-family="LucidaGrande, Lucida Grande" font-weight="normal"> khởi </tspan>
                <tspan x="356.128906" y="144" font-family="LucidaGrande, Lucida Grande" font-weight="normal">nghiệp xã hội sinh thái </tspan>
                <tspan x="361.847656" y="162" font-family="LucidaGrande, Lucida Grande" font-weight="normal">để giải quyết nhu cầu </tspan>
                <tspan x="363.074219" y="180" font-family="LucidaGrande, Lucida Grande" font-weight="normal">và sinh lời từ rác thải </tspan>
                <tspan x="373.722656" y="198" font-family="LucidaGrande, Lucida Grande" font-weight="normal">cũng như đáp ứng </tspan>
                <tspan x="369.648438" y="216" font-family="LucidaGrande, Lucida Grande" font-weight="normal">những điểm khuyết </tspan>
                <tspan x="387.464844" y="234" font-family="LucidaGrande, Lucida Grande" font-weight="normal">trên thị trường</tspan>
            </text>
            <text id="Đầu-tư-ổn-định-&amp;-vữn" font-family="LucidaGrande-Bold, Lucida Grande" font-size="16" font-weight="bold" fill="#1E1E1E">
                <tspan x="610.753906" y="87">Đầu tư ổn định &amp; </tspan>
                <tspan x="635.703125" y="105">vững vàng:</tspan>
                <tspan x="605.925781" y="123" font-family="LucidaGrande, Lucida Grande" font-weight="normal">giữ vững năng suất </tspan>
                <tspan x="616.699219" y="141" font-family="LucidaGrande, Lucida Grande" font-weight="normal">dựa vào sự đang </tspan>
                <tspan x="611.078125" y="159" font-family="LucidaGrande, Lucida Grande" font-weight="normal">dạng giống cây và </tspan>
                <tspan x="614.605469" y="177" font-family="LucidaGrande, Lucida Grande" font-weight="normal">xây dựng trên tài </tspan>
                <tspan x="606.5625" y="195" font-family="LucidaGrande, Lucida Grande" font-weight="normal">nguyên thiên nhiên</tspan>
            </text>
            <text id="Tiềm-năng-hồi-vốn-ca" font-family="LucidaGrande-Bold, Lucida Grande" font-size="16" font-weight="bold" fill="#1E1E1E">
                <tspan x="651.460938" y="233">Tiềm năng hồi vốn </tspan>
                <tspan x="653.535156" y="251">cao: </tspan>
                <tspan x="690.902344" y="251" font-family="LucidaGrande, Lucida Grande" font-weight="normal">được bảo đảm </tspan>
                <tspan x="663.84375" y="269" font-family="LucidaGrande, Lucida Grande" font-weight="normal">do sản phẩm địa </tspan>
                <tspan x="656.773438" y="287" font-family="LucidaGrande, Lucida Grande" font-weight="normal">phương và hữu cơ </tspan>
                <tspan x="648.722656" y="305" font-family="LucidaGrande, Lucida Grande" font-weight="normal">với đầu vào tối thiểu</tspan>
            </text>
            <text id="Giảm-nghèo:-thỏa-mãn" font-family="LucidaGrande-Bold, Lucida Grande" font-size="16" font-weight="bold" fill="#1E1E1E">
                <tspan x="693.351562" y="346">Giảm nghèo: </tspan>
                <tspan x="801.070312" y="346" font-family="LucidaGrande, Lucida Grande" font-weight="normal">thỏa </tspan>
                <tspan x="714.210938" y="364" font-family="LucidaGrande, Lucida Grande" font-weight="normal">mãn nhu cầu</tspan>
                <tspan x="690.515625" y="382" font-family="LucidaGrande, Lucida Grande" font-weight="normal">cơ bản ở cấp độ cá </tspan>
                <tspan x="690.167969" y="400" font-family="LucidaGrande, Lucida Grande" font-weight="normal">nhân và cộng đồng</tspan>
            </text>
            <text id="Một-tương-lai-tốt-đẹ" font-family="LucidaGrande-Bold, Lucida Grande" font-size="16" font-weight="bold" fill="#1E1E1E">
                <tspan x="366.535156" y="370">Một tương lai tốt </tspan>
                <tspan x="384.179688" y="388">đẹp hơn: </tspan>
                <tspan x="461.757812" y="388" font-family="LucidaGrande, Lucida Grande" font-weight="normal">giải </tspan>
                <tspan x="371.503906" y="406" font-family="LucidaGrande, Lucida Grande" font-weight="normal">quyết những vấn </tspan>
                <tspan x="372.085938" y="424" font-family="LucidaGrande, Lucida Grande" font-weight="normal">đề then chốt của </tspan>
                <tspan x="362.253906" y="442" font-family="LucidaGrande, Lucida Grande" font-weight="normal">thời đại từ góc tiếp </tspan>
                <tspan x="388.207031" y="460" font-family="LucidaGrande, Lucida Grande" font-weight="normal">cận đa chiều</tspan>
            </text>
            <text id="Giảm-nhẹ-biến-đổi-kh" font-family="LucidaGrande-Bold, Lucida Grande" font-size="16" font-weight="bold" fill="#1E1E1E">
                <tspan x="544.132812" y="434">Giảm nhẹ biến đổi khí hậu: </tspan>
                <tspan x="550.707031" y="452" font-family="LucidaGrande, Lucida Grande" font-weight="normal">giảm tải cho cơ sở hạ tầng </tspan>
                <tspan x="545.269531" y="470" font-family="LucidaGrande, Lucida Grande" font-weight="normal">và chi phí giải quyết các vấn </tspan>
                <tspan x="575.65625" y="488" font-family="LucidaGrande, Lucida Grande" font-weight="normal">đề khí hậu cực đoan</tspan>
            </text>
            <text id="Kinh-tế-xanh:-tạo-vi" font-family="LucidaGrande-Bold, Lucida Grande" font-size="16" font-weight="bold" fill="#1E1E1E">
                <tspan x="528.363281" y="521">Kinh tế xanh: </tspan>
                <tspan x="641.449219" y="521" font-family="LucidaGrande, Lucida Grande" font-weight="normal">tạo việc làm </tspan>
                <tspan x="538.996094" y="539" font-family="LucidaGrande, Lucida Grande" font-weight="normal">từ mảng nghề sửa chữa </tspan>
                <tspan x="519.503906" y="557" font-family="LucidaGrande, Lucida Grande" font-weight="normal">những hệ sinh thái tập trung </tspan>
                <tspan x="531.328125" y="575" font-family="LucidaGrande, Lucida Grande" font-weight="normal">và phát triển tài nguyên ít </tspan>
                <tspan x="604.796875" y="593" font-family="LucidaGrande, Lucida Grande" font-weight="normal">carbon</tspan>
            </text>
            <text id="Một-hướng-tiếp-cận-c" font-family="LucidaGrande-Bold, Lucida Grande" font-size="16" font-weight="bold" fill="#1E1E1E">
                <tspan x="168.476562" y="420">Một hướng tiếp cận </tspan>
                <tspan x="179.054688" y="438">chủ động tới bền </tspan>
                <tspan x="178.160156" y="456">vững: </tspan>
                <tspan x="229.792969" y="456" font-family="LucidaGrande, Lucida Grande" font-weight="normal">định hướng </tspan>
                <tspan x="166.554688" y="474" font-family="LucidaGrande, Lucida Grande" font-weight="normal">năng lượng một cách </tspan>
                <tspan x="168.117188" y="492" font-family="LucidaGrande, Lucida Grande" font-weight="normal">sáng tạo và các hành </tspan>
                <tspan x="164.171875" y="510" font-family="LucidaGrande, Lucida Grande" font-weight="normal">động phục hồi xã hội.</tspan>
            </text>
            <text id="Xây-dựng-địa-phương" font-family="LucidaGrande-Bold, Lucida Grande" font-size="16" font-weight="bold" fill="#1E1E1E">
                <tspan x="154.347656" y="539">Xây dựng địa phương vững mạnh:</tspan>
                <tspan x="169.125" y="557" font-family="LucidaGrande, Lucida Grande" font-weight="normal">những kỹ thuật đặc biệt để chữa </tspan>
                <tspan x="156.804688" y="575" font-family="LucidaGrande, Lucida Grande" font-weight="normal">lành hệ sinh thái và tăng tính tự lực </tspan>
                <tspan x="237.59375" y="593" font-family="LucidaGrande, Lucida Grande" font-weight="normal">cho cộng đồng</tspan>
            </text>
            <text id="Hồi-sinh-đất:-quay-v" font-family="LucidaGrande-Bold, Lucida Grande" font-size="16" font-weight="bold" fill="#1E1E1E">
                <tspan x="201.183594" y="671">Hồi sinh đất: </tspan>
                <tspan x="310.621094" y="671" font-family="LucidaGrande, Lucida Grande" font-weight="normal">quay </tspan>
                <tspan x="198.199219" y="689" font-family="LucidaGrande, Lucida Grande" font-weight="normal">vòng carbon để xây </tspan>
                <tspan x="182.027344" y="707" font-family="LucidaGrande, Lucida Grande" font-weight="normal">dựng sự phức tạp và đa </tspan>
                <tspan x="196.757812" y="725" font-family="LucidaGrande, Lucida Grande" font-weight="normal">dạng của mạng lưới </tspan>
                <tspan x="206.492188" y="743" font-family="LucidaGrande, Lucida Grande" font-weight="normal">thức ăn trong đất</tspan>
            </text>
            <text id="Tăng-cường-học:-đẩy" font-family="LucidaGrande-Bold, Lucida Grande" font-size="16" font-weight="bold" fill="#1E1E1E">
                <tspan x="382.917969" y="648">Tăng cường học: </tspan>
                <tspan x="389.601562" y="666" font-family="LucidaGrande, Lucida Grande" font-weight="normal">đẩy mạnh sự ổn </tspan>
                <tspan x="374.933594" y="684" font-family="LucidaGrande, Lucida Grande" font-weight="normal">định và sinh sôi của </tspan>
                <tspan x="406.507812" y="702" font-family="LucidaGrande, Lucida Grande" font-weight="normal">hệ sinh thái</tspan>
            </text>
            <text id="Tạo-hình-Trái-đất:-đ" font-family="LucidaGrande-Bold, Lucida Grande" font-size="16" font-weight="bold" fill="#1E1E1E">
                <tspan x="396.570312" y="739">Tạo hình Trái </tspan>
                <tspan x="393.960938" y="757">đất: </tspan>
                <tspan x="429.679688" y="757" font-family="LucidaGrande, Lucida Grande" font-weight="normal">được thiết </tspan>
                <tspan x="396.835938" y="775" font-family="LucidaGrande, Lucida Grande" font-weight="normal">kế để bổ sung </tspan>
                <tspan x="396.84375" y="793" font-family="LucidaGrande, Lucida Grande" font-weight="normal">tài nguyên với </tspan>
                <tspan x="386.96875" y="811" font-family="LucidaGrande, Lucida Grande" font-weight="normal">sức mạnh tái tạo</tspan>
            </text>
            <text id="Hoàn-thành-vòng-tuần" font-family="LucidaGrande-Bold, Lucida Grande" font-size="16" font-weight="bold" fill="#1E1E1E">
                <tspan x="560.324219" y="662">Hoàn thành vòng </tspan>
                <tspan x="568.539062" y="680">tuần hoàn thủy </tspan>
                <tspan x="564.234375" y="698">văn: </tspan>
                <tspan x="602.867188" y="698" font-family="LucidaGrande, Lucida Grande" font-weight="normal">làm đầy kho </tspan>
                <tspan x="560.824219" y="716" font-family="LucidaGrande, Lucida Grande" font-weight="normal">nước ngầm và tạo </tspan>
                <tspan x="560.359375" y="734" font-family="LucidaGrande, Lucida Grande" font-weight="normal">nên những ốc đảo </tspan>
                <tspan x="583.539062" y="752" font-family="LucidaGrande, Lucida Grande" font-weight="normal">cho sự sống</tspan>
            </text>
            <text id="Xây-dựng-kinh-tế-địa" font-family="LucidaGrande-Bold, Lucida Grande" font-size="16" font-weight="bold" fill="#1E1E1E">
                <tspan x="298.554688" y="260">Xây dựng kinh tế địa phương vững </tspan>
                <tspan x="286.15625" y="278">mạnh:</tspan>
                <tspan x="336.046875" y="278" font-family="LucidaGrande, Lucida Grande" font-weight="normal"> Tập trung vào địa phương để xây </tspan>
                <tspan x="281.558594" y="296" font-family="LucidaGrande, Lucida Grande" font-weight="normal">dựng những doanh nghiệp sinh thái vùng</tspan>
            </text>
        </g>
    </g>
</svg>