
<svg width="121px" height="121px" viewBox="0 0 121 121" version="1.1" xmlns="http://www.w3.org/2000/svg" xmlns:xlink="http://www.w3.org/1999/xlink">
    <g id="Page-1" stroke="none" stroke-width="1" fill="none" fill-rule="evenodd">
        <g id="perma-rule-1">
            <path d="M121,60.5 C121,93.9137517 93.9155226,121 60.5,121 C27.0880192,121 0,93.9137517 0,60.5 C0,27.0862483 27.0880192,0 60.5,0 C93.9155226,0 121,27.0862483 121,60.5" id="Fill-9" fill="#E8EDAD"></path>
            <path d="M43.140619,54.8968476 C43.140619,54.8968476 38.8946143,56.2006867 37.712935,56.849974 C36.9770075,57.2588495 35.9019589,57.6098157 36.0715194,58.0292202 C36.2393319,58.4521343 39.335122,57.4009908 39.9574265,57.2676237 C41.6075823,56.9113931 44.7925228,56.1497966 46.4444266,57.8677757 C47.3551588,58.8118746 52.0818762,62.784811 52.1587902,70.678039 C52.2199718,77.1375703 51.1064663,85.3993127 47.5054908,92.5063765 C43.9080113,99.6116855 41.9606877,101.922797 41.371596,102.633504 C40.7807564,103.34421 40.2510983,104.825287 43.0234999,103.045889 C45.7941534,101.271755 51.7549915,92.6818596 53.585196,83.6813335 C55.4119045,74.6772978 55.8856251,67.2157582 52.4612022,61.0580577 C49.0402755,54.8968476 45.9147686,54.4827076 45.6176007,49.0339586 C45.3239289,43.5869645 45.970706,44.0625236 45.5004816,44.0011045 C45.026761,43.9414403 44.497103,46.3104616 44.2628647,48.3232522 C44.0251304,50.3377977 44.497103,52.8243927 44.497103,52.8243927 C44.497103,52.8243927 41.2614691,50.8396793 39.3211376,49.8218775 C37.7286674,48.9900879 33.3078581,47.0562646 33.0159344,47.5897331 C32.7187665,48.1214467 36.6518708,49.8411807 38.6533839,51.2397807 C40.8244575,52.7559543 43.140619,54.8968476 43.140619,54.8968476" id="Fill-10" fill="#241F21"></path>
            <path d="M61.801707,58.8617554 C59.7495357,58.2515011 58.8492827,59.1137777 57.8797795,60.8779345 C56.9102763,62.6384909 57.5943335,66.2838147 59.5907668,67.0740849 C61.5855112,67.8625549 64.7777778,65.3729338 64.7777778,62.6996963 C64.7777778,60.0264588 62.9198448,59.1929848 61.801707,58.8617554 M61.516261,65.3549322 C59.8576336,66.1398019 59.033387,65.7401664 58.9624477,63.7923934 C58.9067097,62.211853 59.5333398,61.3621775 59.5333398,61.3621775 C60.3288729,60.0264588 61.7290787,59.5692182 62.590484,60.9229385 C63.6444387,62.5754853 62.8033018,64.744678 61.516261,65.3549322" id="Fill-11" fill="#241F21"></path>
            <path d="M74.5643713,42.7810511 C74.0152818,42.9006828 75.5959394,52.1035255 72.9819134,57.268799 C70.8935731,61.4013698 69.1544896,62.1983278 66.2380143,67.4234173 C63.3197387,72.6467474 59.8613751,82.384414 61.560852,91.2318802 C63.0190897,98.1793139 64.659157,101.919563 66.4810539,103.819596 C68.3029509,105.719628 69.7611885,106.192877 67.2101728,100.494539 C65.5431011,96.775401 63.6275889,92.5390322 64.2324875,82.6219181 C64.8391863,72.7065632 73.8334522,59.9411596 76.9335574,57.803623 C80.0300621,55.6660864 82.6278855,54.7002366 84.3309631,54.1055968 C86.0286397,53.5127163 88.1709889,52.6383494 87.9891593,52.1035255 C87.8073296,51.5669422 85.6523784,52.3463074 84.2553507,52.763259 C82.8547225,53.1784513 79.6664028,54.404676 79.6664028,54.404676 C79.6664028,54.404676 83.0671571,49.9659889 82.6440881,49.4892215 C82.2192189,49.0142134 76.1414283,54.8919991 76.1414283,54.8919991 C76.1414283,54.8919991 76.6905178,51.2133251 76.2044386,48.4811487 C75.7165591,45.7507316 75.1098602,42.6631788 74.5643713,42.7810511" id="Fill-12" fill="#241F21"></path>
            <path d="M93.4214173,32.6796551 C89.1921615,29.9144982 84.9839817,29.1806343 83.2135955,28.9699557 C82.4214882,26.4435678 81.2359617,24.0049627 80.1435211,22.6057055 C78.2466787,20.1776343 73.8013936,16.6786134 67.4592662,16.029021 C61.1153824,15.3776729 54.0039801,17.0367671 49.7360848,20.1776343 C45.8914665,23.0042392 42.0538734,29.7670231 40.9333314,31.9089225 C37.0957384,32.1740264 32.7031433,33.5469488 28.5739986,37.71663 C22.3477893,43.9948531 20.0979236,54.0705584 23.7721774,60.7648718 C27.4481876,67.4609408 37.345138,67.99466 41.0808636,66.2161812 C44.8130765,64.4377025 47.6021372,62.3660293 46.6519597,61.6532333 C45.7052949,60.9421929 44.0455579,62.1290159 44.0455579,62.1290159 C42.3243491,63.2543909 37.643715,66.451439 30.5288,61.1195141 C23.4173976,55.7875892 26.4980101,44.6479568 30.1757766,40.7381126 C33.8500304,36.8265128 38.7133234,32.6199629 46.29718,34.6933917 C53.8845493,36.7685762 56.0167405,38.2503492 58.3895498,38.0115801 C60.7588463,37.7745666 60.2863921,37.3022953 58.6863705,36.7088839 C57.0845925,36.1154724 50.8618959,32.7990397 46.2374646,32.1441803 C45.2679674,32.0089948 44.2001154,31.9001442 43.0602537,31.8685424 C43.7259048,30.6150046 48.3556052,25.1882743 52.9975998,22.5477688 C57.6782339,19.8791729 64.5542873,18.7537979 70.5398786,20.5919689 C76.5289826,22.4301399 79.3724898,28.413413 80.1435211,33.7453379 C80.9163087,39.0772628 82.6831822,45.4836487 83.1082154,45.2413683 C83.5227105,45.0043548 83.4050361,44.1739299 83.3453206,41.6861664 C83.2856052,39.1966473 83.9934084,38.0712723 84.1145956,34.3387493 C84.1409406,33.5557271 84.0566365,32.6919447 83.9055917,31.7948049 C85.9868492,32.4865331 90.8396042,34.3949303 92.7715732,37.6569377 C95.2585442,41.8634876 96.7408914,48.2628509 92.4729962,55.4926391 C88.2051009,62.718916 82.1562815,67.0448505 77.2385422,68.6477637 C72.3208028,70.2471656 70.8384557,69.8310753 70.8384557,69.8310753 C70.1253835,69.7713831 69.7126446,70.4824234 70.8981711,70.7194369 C72.0836975,70.958206 80.0258466,71.4304772 85.2404066,68.1105332 C90.4602357,64.7941005 96.7092773,57.8943755 98.4006284,50.8120623 C100.156964,43.4470886 97.9211488,35.6221333 93.4214173,32.6796551" id="Fill-13" fill="#241F21"></path>
        </g>
    </g>
</svg>