
<svg width="122px" height="123px" viewBox="0 0 122 123" version="1.1" xmlns="http://www.w3.org/2000/svg" xmlns:xlink="http://www.w3.org/1999/xlink">
    <g id="Page-1" stroke="none" stroke-width="1" fill="none" fill-rule="evenodd">
        <g id="perma-rules" transform="translate(-215.000000, -334.000000)">
            <g id="perma-rule-9" transform="translate(215.000000, 334.000000)">
                <path d="M122,61.4990065 C122,95.4664233 94.6897286,123 60.9990009,123 C27.3122697,123 0,95.4664233 0,61.4990065 C0,27.5335767 27.3122697,0 60.9990009,0 C94.6897286,0 122,27.5335767 122,61.4990065" id="Fill-21" fill="#FAAB8F"></path>
                <path d="M100.002456,80.090773 C97.4399777,77.3628082 86.7488814,71.002166 86.7488814,71.002166 C86.7488814,71.002166 97.4399777,66.3660085 96.8013725,55.5509415 C96.1607528,44.7338991 87.4781403,33.4645004 73.7652531,32.1015057 C60.0543804,30.7404863 47.6630231,43.4202882 45.0622684,48.915725 C41.4059013,56.6413373 47.1634203,62.1861579 47.1634203,62.1861579 C47.1634203,62.1861579 42.7757799,64.0963259 39.3047494,64.8212811 C35.8296898,65.5482116 34.6411187,65.9136523 34.6411187,65.9136523 C34.6411187,65.9136523 32.9086253,63.0197576 34.9150944,57.5500004 C37.7495343,49.8243881 39.758018,49.9172298 39.758018,49.9172298 C39.758018,49.9172298 40.4006522,51.5508482 41.4985696,51.3691155 C42.5924579,51.1893583 43.9663655,49.2791902 42.4997897,48.3725024 C41.0412719,47.4618639 37.3828904,48.5522597 35.4630459,53.0047092 C33.5432014,57.4591341 32.0806546,61.4592274 33.5432014,65.6410533 C35.0057482,69.8209039 38.0214955,72.2762698 39.0267446,72.8194923 C40.0340083,73.3627149 40.6746279,72.728626 39.3954031,71.7310719 C38.1141638,70.7315424 35.9203436,68.3650675 35.9203436,68.3650675 C35.9203436,68.3650675 40.2153157,66.9131817 43.0497556,65.8208106 C45.8841955,64.7304148 48.5353134,63.5491527 48.5353134,63.5491527 C48.5353134,63.5491527 54.5708371,67.276647 57.0366185,67.7309786 C59.5044144,68.1833348 60.324327,67.6420876 58.4085116,66.8203401 C56.4886671,66.0025432 52.6489781,64.7304148 49.1759331,61.6389847 C45.702888,58.5515053 44.7862781,54.3696793 48.3540059,48.3725024 C51.9177047,42.3733502 62.61283,35.9218417 70.0162178,35.4675101 C77.4236346,35.0112032 90.0365899,38.5569649 93.5116495,52.7340856 C96.98268,66.9131817 76.8736686,75.7272145 66.269197,66.2771175 C55.6647254,56.8230699 68.779298,42.6242202 79.1581426,51.5508482 C82.5425484,54.4605457 82.1900061,59.3930064 80.8040114,61.0048958 C78.4208256,63.7743431 72.8728175,62.1980101 74.0392288,58.9149705 C75.1391607,55.8235404 77.0569906,59.7327674 77.6049421,58.276931 C78.1770678,56.7618339 75.8684195,54.4605457 73.7652531,56.6413373 C71.6620866,58.8221289 72.39336,62.8222221 75.5017756,64.0034843 C78.6101912,65.1847464 84.6437004,62.8222221 83.8217732,56.5504709 C82.9998461,50.2787197 76.6923612,46.916666 71.843394,47.0075323 C67.0004704,47.0983986 57.5825554,53.1864419 60.6023318,62.3678906 C65.2639479,76.5469867 83.179139,72.2762698 83.179139,72.2762698 C83.179139,72.2762698 88.5740431,75.1800412 91.3178293,76.9104519 C94.0616154,78.6388873 96.6200651,81.0014115 96.6200651,81.0014115 C96.6200651,81.0014115 93.0543518,80.8196789 82.8165241,77.9988724 C72.5786965,75.1800412 60.6929855,73.3627149 49.4499088,75.3637492 C38.206832,77.3628082 28.3739244,81.2107991 26.3211211,81.0014115 C23.6700032,80.7268372 25.0439108,74.1844624 32.5379523,70.2752355 C32.5379523,70.2752355 32.8099134,71.9108292 32.9025817,72.4580024 C32.9932354,73.0032003 33.6358696,73.3627149 33.6358696,71.7310719 C33.6358696,70.0935028 31.8993471,62.4587569 30.0721709,58.18804 C28.238951,53.9153478 25.2252182,49.0085666 22.4814321,47.7364382 C19.7376459,46.4643098 18.9177333,47.3729729 19.0063725,48.643126 C19.0990408,49.9172298 19.8162125,50.6955196 20.8395923,50.6441604 C22.5781294,50.553294 22.3927929,48.643126 22.3927929,48.643126 C22.3927929,48.643126 24.983475,50.519713 27.9669899,56.1850303 C31.0733909,62.0933163 31.8993471,67.0040481 31.8993471,67.0040481 C31.8993471,67.0040481 26.4117748,69.003107 23.3073883,75.2748582 C20.2735102,81.3905564 22.9387298,84 26.5024285,84 C30.0721709,84 38.6641297,81.8903212 44.0550047,80.3436184 C49.4499088,78.798891 54.8105659,77.5465162 67.0609063,78.7297536 C79.3132612,79.9090404 89.0313408,82.1806983 94.514884,82.8167625 C100.002456,83.4528267 102.562921,82.8167625 100.002456,80.090773 M41.0412719,49.099433 C41.4985696,48.826834 42.1371747,49.19425 41.9518382,49.9172298 C41.8430538,50.3577339 41.3132331,50.4624277 40.9506182,50.2787197 C40.5819597,50.0989624 40.4751897,49.4372186 41.0412719,49.099433 M20.4709338,49.5537645 C20.0378105,49.5419124 19.8645611,49.2693135 19.8323287,48.826834 C19.7980817,48.364601 20.0136362,48.0090372 20.4709338,48.0090372 C20.9302461,48.0090372 21.2022072,48.1907698 21.2022072,48.643126 C21.2022072,49.099433 21.0188853,49.5695674 20.4709338,49.5537645" id="Fill-22" fill="#241F21"></path>
            </g>
        </g>
    </g>
</svg>