<svg width="122px" height="122px" viewBox="0 0 122 122" version="1.1" xmlns="http://www.w3.org/2000/svg" xmlns:xlink="http://www.w3.org/1999/xlink">
    <g id="Page-1" stroke="none" stroke-width="1" fill="none" fill-rule="evenodd">
        <g id="perma-rules" transform="translate(-212.000000, -729.000000)">
            <g id="perma-rule-11" transform="translate(212.000000, 729.000000)">
                <path d="M122,60.9990843 C122,94.6908862 94.6912961,122 61,122 C27.3123668,122 0,94.6908862 0,60.9990843 C0,27.3091138 27.3123668,0 61,0 C94.6912961,0 122,27.3091138 122,60.9990843" id="Fill-27" fill="#FFDEA3"></path>
                <path d="M91.4326719,29.2277925 C87.4807641,29.8984836 79.6452087,27.2933197 72.745537,31.7294889 C68.9804466,34.1498895 65.8009572,37.7472329 60.4712706,40.4854265 C58.2420354,41.6309596 55.001471,42.6175962 52.734513,43.2310107 C50.5286299,41.6531312 48.290413,40.1805669 46.4491833,39.3713032 C43.4313628,38.0410067 34.1605463,38.2627228 32.003164,38.4844389 L30.4924574,39.1495871 C28.9853435,39.816583 26.8315537,41.3685956 28.7697849,41.3685956 C30.708016,41.3685956 41.5164838,39.8701644 47.0976554,42.6988921 C50.154995,44.2472094 54.437426,47.5526266 58.3120919,49.3522221 C61.6532503,50.9023871 60.8449055,49.2690786 59.9593189,48.6039304 C58.9911015,47.8796578 58.0139025,47.1609282 56.799589,46.2445017 C56.2804521,45.8528033 55.7379629,45.4463238 55.1846958,45.0306062 C57.3798009,44.5557642 61.2652448,43.5931469 63.3777192,42.3663179 C67.9242095,39.720506 73.7999778,33.5512561 80.1948832,31.3876766 C83.3761689,30.310506 88.5585571,31.2195419 91.1452604,31.4394104 C93.7319637,31.6629741 98.1958231,28.0785641 91.4326719,29.2277925" id="Fill-28" fill="#241F21"></path>
                <path d="M58.351762,41 C58.351762,41 56.5438021,31.3535304 61.1255201,28.6690622 C69.0776767,24.0009215 73,30.606781 73,30.606781 L70.6114861,31.8839139 C70.6114861,31.8839139 66.7429178,26.838569 62.4586441,29.9710867 C58.168995,33.1055192 60.3496562,39.7190377 60.3496562,39.7190377 L58.351762,41 Z" id="Fill-29" fill="#241F21"></path>
                <path d="M65.5054568,17.6430123 C64.9546768,18.4822161 63.7336706,21.7292461 64.0521939,22.551703 C64.3662934,23.3722991 64.9967042,25.2144537 65.4789132,22.8029059 C65.9655461,20.3950796 66.1624112,18.8841407 66.8127297,17.9946964 C67.4586243,17.1089735 66.2884934,16.4595675 65.5054568,17.6430123" id="Fill-30" fill="#241F21"></path>
                <path d="M72.1928195,23.9212903 C71.6791722,24.7987726 72.2681286,26.9190491 73.0617715,25.5532606 C73.8631384,24.1893079 74.51968,23.5174281 75.1742906,23.0456436 C75.8269701,22.5720235 76.5549588,20.4058536 75.363529,21.1566701 C74.1759612,21.9074866 72.8744641,22.75009 72.1928195,23.9212903" id="Fill-31" fill="#241F21"></path>
                <path d="M54.1193573,25.5134666 C54.5207296,27.0444493 55.3268328,27.6316755 56.1413329,27.9064135 C56.9541537,28.176957 58.8854427,27.8267185 57.531861,27.2940204 C56.1833175,26.767614 56.1379742,25.3960213 55.4359926,24.5613212 C54.7323317,23.7224266 53.6356954,23.6616067 54.1193573,25.5134666" id="Fill-32" fill="#241F21"></path>
                <path d="M52.7540949,34.3093685 C54.1917995,34.3423685 55.130249,33.9303685 55.6238734,34.1593685 C56.1156209,34.3873685 56.2770342,34.9353685 55.1527718,34.9093685 C54.03414,34.8843685 53.0337529,34.5883685 52.4162531,34.6833685 C51.7968764,34.7773685 51.8362913,34.2883685 52.7540949,34.3093685" id="Fill-33" fill="#241F21"></path>
                <path d="M57.8678149,46.0019581 C58.7477531,45.9815895 68.7826045,46.0963945 71.3406472,47.4962755 C74.2791077,49.0979911 73.0987461,51.5903717 64.1624843,56.6306838 C55.2244448,61.6691442 51.9197878,61.9320848 66.4805438,64.0800503 C88.1199142,67.2760748 98.362751,70.4332137 81.7861364,86.3725988 C75.5127989,92.399864 66.325888,98.7363621 63.2381047,101.399099 C59.8179003,104.348848 57.4305122,102.49345 58.1966807,101.57501 C59.3023809,100.251048 76.1954176,86.8540394 82.674963,80.082393 C89.1527306,73.3125984 84.5023903,67.940833 68.4252962,66.220609 C51.4433768,64.4059485 51.6620281,61.2599197 55.9888356,58.986039 C60.3174208,56.708455 67.9417746,53.0754306 69.415449,51.1811473 C70.8162396,49.3813003 69.200353,48.8202369 69.200353,48.8202369 C69.200353,48.8202369 70.6171424,51.0830075 55.807515,57.6102301 C41.0192194,64.130046 47.7529691,65.8965624 55.4164313,67.516795 C63.0834489,69.1351759 71.3033165,72.8737468 60.9236004,77.8733216 C50.5349961,82.8747481 34.1485904,89.1816192 31.9549666,89.8982249 C29.7595651,90.6129789 25.4149811,90.4222544 30.0688767,88.2779923 C34.7263277,86.1281752 45.8348815,82.2488755 54.8795801,77.586309 C63.9278341,72.9255943 64.1375971,70.3628493 53.8076553,68.5704091 C43.4848242,66.777969 40.5730285,62.8986693 48.54758,58.937895 C56.5239092,54.9808241 71.6375153,49.2387199 66.9747314,47.9980846 C62.3066145,46.7518943 58.9397397,46.5945003 57.9104785,46.5945003 C57.1123123,46.5945003 57.3647391,46.0130683 57.8678149,46.0019581" id="Fill-34" fill="#241F21"></path>
            </g>
        </g>
    </g>
</svg>