<svg width="121px" height="121px" viewBox="0 0 121 121" version="1.1" xmlns="http://www.w3.org/2000/svg" xmlns:xlink="http://www.w3.org/1999/xlink">
    <g id="Page-1" stroke="none" stroke-width="1" fill="none" fill-rule="evenodd">
        <g id="perma-rules" transform="translate(-213.000000, -161.000000)">
            <g id="perma-rule-8" transform="translate(213.000000, 161.000000)">
                <path d="M121,60.4990227 C121,93.9141237 93.9145613,121 60.5,121 C27.089348,121 0,93.9141237 0,60.4990227 C0,27.0858763 27.089348,0 60.5,0 C93.9145613,0 121,27.0858763 121,60.4990227" id="Fill-10" fill="#E0A6AD"></path>
                <path d="M59.7191172,17.0986943 C57.9455982,16.7574357 56.4450862,17.2776469 54.8912044,19.0276373 C52.4977748,21.7327354 55.4290076,24.5876544 57.764962,24.9393171 C60.1050218,25.2909799 62.1269156,24.0903325 62.8658818,21.9574666 C63.6027954,19.82252 61.1272585,17.3712849 59.7191172,17.0986943 M57.7300664,23.6824869 C56.2172383,22.8584724 56.2459759,20.8546189 56.8823079,19.8329242 C57.51864,18.8112294 58.2637643,18.3055842 59.3311599,18.4949411 C60.4786103,18.6988638 61.4146342,20.6756663 60.9178847,21.8388585 C60.4231878,23.0062124 59.2408419,24.5023397 57.7300664,23.6824869" id="Fill-11" fill="#241F21"></path>
                <path d="M65.6656809,47.9206291 C64.7201187,46.5369005 59.9718327,39.5548199 61.2021804,34.7950312 C62.4381122,30.0352426 66.1068192,25.8404434 72.9230573,27.2915743 C79.7411567,28.7446877 87.2889026,36.4761228 87.9310659,42.0744747 C88.5732293,47.6629146 84.6718543,52.8112574 78.6057375,52.9876927 C72.5340366,53.1641281 70.2445847,51.3878804 69.7550515,51.2233396 C69.2711023,51.0568164 68.4521114,50.4660555 70.5572903,50.6048248 C70.5572903,50.6048248 81.9096213,52.0757799 84.1060061,46.6974764 C86.3023908,41.3211554 83.8137752,36.6129097 76.7071676,32.0632575 C69.6080054,27.5155877 64.8448287,31.6231604 64.0314218,34.4084595 C62.7154523,38.912516 65.7196599,45.934245 66.3041216,47.2188527 C66.8885833,48.5074252 66.6559154,49.37176 65.6656809,47.9206291" id="Fill-12" fill="#241F21"></path>
                <path d="M20.0650549,47.4281215 C19.7906168,49.2122181 20.3644419,50.6986231 22.1690803,52.182975 C24.959201,54.480333 27.703582,51.4438786 27.9655457,49.0951945 C28.2295884,46.7465104 26.9571936,44.7694276 24.794954,44.1062938 C22.6368725,43.4472662 20.2833579,46.0115201 20.0650549,47.4281215 M26.7118625,49.1793694 C25.9467624,50.7212066 23.9446117,50.7622675 22.8988362,50.1627782 C21.8551398,49.565342 21.3249753,48.8385638 21.4746688,47.764821 C21.6347577,46.6130625 23.572457,45.6050171 24.7512934,46.0566871 C25.936367,46.5124632 27.4748836,47.6354791 26.7118625,49.1793694" id="Fill-13" fill="#241F21"></path>
                <path d="M49.9372647,51.3407501 C48.3914386,51.8665519 40.6115325,54.5034381 36.6999529,51.8015651 C32.7921344,49.0996921 30.1536988,44.1213139 33.5913754,37.7053502 C37.0290521,31.2913558 46.3623067,26.068785 51.6090889,27.1400816 C56.8577517,28.2153167 60.2803838,33.7175275 58.5446204,39.8755135 C56.8107375,46.0374381 54.4938788,47.797988 54.1929881,48.2371408 C53.8920974,48.6762937 53.1003786,49.3163146 53.8883362,47.2426468 C53.8883362,47.2426468 58.759005,36.269734 54.5897878,32.4079462 C50.4243316,28.5481276 45.4013369,29.611547 39.0807508,35.3579504 C32.7582842,41.1082923 34.979234,47.163875 37.2359145,48.8377759 C40.8879758,51.5435875 48.1620094,50.6770976 49.5066149,50.4841066 C50.8436981,50.2891464 51.5545525,50.7893474 49.9372647,51.3407501" id="Fill-14" fill="#241F21"></path>
                <path d="M40.9241877,92.3199099 C41.3074535,90.1514763 40.215435,88.1453203 38.1488813,87.2913348 C36.0881055,86.4373493 32.384487,87.4110145 33.0874619,90.8736113 C33.5439141,93.1170982 34.5242271,94.2956388 36.1266247,94.8778095 C37.3958315,95.3403005 40.5428479,94.4903719 40.9241877,92.3199099 M39.2871229,91.4598389 C39.1542317,92.6911197 37.4824996,93.9021158 36.4540377,93.5085928 C35.4968362,93.1414399 35.1270522,92.3503369 35.0789032,91.1717963 C35.0307542,89.9973127 35.928251,88.2913701 37.5383524,88.3359964 C39.1523058,88.3826512 39.42194,90.2305866 39.2871229,91.4598389" id="Fill-15" fill="#241F21"></path>
                <path d="M50,67.1571674 C50,68.7450138 49.9880376,76.7560859 46.1082251,79.6186304 C42.2244252,82.4793328 36.5681929,83.4998281 31.516063,78.4415609 C26.4659269,73.3851358 24.4941208,63.178341 27.2474718,58.6026908 C29.9988291,54.0233564 36.4186626,52.4226156 41.785803,55.8230385 C47.1449684,59.2197772 48.0820249,61.8870645 48.407004,62.2959994 C48.7319832,62.7030923 49.0908559,63.6222749 47.3483296,62.2904733 C47.3483296,62.2904733 38.3805,54.5851814 33.2944765,57.3482552 C28.2164281,60.1150132 27.5923883,65.0995984 31.0555097,72.6483161 C34.5206249,80.20256 41.0760326,79.8820434 43.4266487,78.2628821 C47.2306991,75.6434881 48.7798329,68.6160703 49.0330375,67.3100574 C49.2862421,66.0077286 50,65.4882708 50,67.1571674" id="Fill-16" fill="#241F21"></path>
                <path d="M85.6364133,94.0250083 C86.9067242,92.8169245 87.3171639,91.3710897 86.7507571,89.2525938 C85.8744684,85.9801362 81.8993599,86.7900357 80.3089061,88.4368956 C78.7164,90.0818226 78.5706939,92.2873005 79.9066752,93.9689532 C81.2426564,95.650606 84.6308361,94.9837437 85.6364133,94.0250083 M81.3596317,89.0612333 C82.8782586,88.3054561 84.5015476,89.3685699 84.981762,90.393025 C85.4599243,91.421346 85.4599243,92.2583065 84.712924,92.9986203 C83.90641,93.7891903 81.7639148,93.4992502 81.0887415,92.5095879 C80.4094638,91.5160597 79.843057,89.8170106 81.3596317,89.0612333" id="Fill-17" fill="#241F21"></path>
                <path d="M64.7213684,73.1974035 C66.2054438,73.72512 73.676435,76.3893964 75.2635461,80.9985157 C76.8434266,85.6076349 76.212559,91.2781165 70.0756089,94.3653568 C63.9404664,97.452597 53.8646607,95.9247887 50.363255,91.809786 C46.8618493,87.6967597 47.1673411,81.1171037 51.8419075,77.1859123 C56.516474,73.2566975 59.2677076,73.2586739 59.7395026,73.0867214 C60.2094899,72.9167453 61.1693487,72.8831454 59.4394337,74.0828604 C59.4394337,74.0828604 49.7323874,79.9885414 50.891087,85.6945995 C52.0461712,91.4026339 56.5237045,93.6419702 64.540604,92.8790542 C72.5611189,92.1161382 73.859007,86.8903615 73.0256833,82.9591702 C72.053171,78.375745 65.7426871,74.8339175 64.5948334,74.161919 C63.4469796,73.4899205 63.1686025,72.6439929 64.7213684,73.1974035" id="Fill-18" fill="#241F21"></path>
                <path d="M99.9642768,50.9653156 C101.386504,49.1509805 101.34534,46.6865086 99.8325509,44.7749769 C98.3177034,42.8612854 94.372102,41.7662045 93.3388772,45.3754355 C92.6678986,47.7189517 93.0095625,49.3518533 94.219794,50.757963 C95.1830394,51.876803 98.5461655,52.7818106 99.9642768,50.9653156 M98.8528397,49.2805758 C98.124231,50.3562174 95.9692781,50.5765295 95.1995051,49.6564024 C94.4853039,48.7967531 94.5202936,47.8593466 95.0554299,46.7361868 C95.5843916,45.613027 97.2618382,44.5071465 98.7458125,45.4207939 C100.231845,46.3366011 99.5814484,48.2049343 98.8528397,49.2805758" id="Fill-19" fill="#241F21"></path>
                <path d="M73.9815605,61.9487916 C74.9845042,60.6695978 80.0387087,54.2167353 84.9527379,54.0130187 C89.8667672,53.8056315 95.0394295,56.0465146 95.9002237,62.8554224 C96.7610179,69.6624949 91.9101662,78.9563788 86.8223987,81.1550504 C81.7306826,83.3573925 75.5787681,81.1752385 73.4267826,75.533572 C71.2688742,69.8900703 72.2007432,67.236248 72.1967946,66.7297093 C72.192846,66.2268412 72.4850422,65.2908458 73.045743,67.3078241 C73.045743,67.3078241 75.3714667,78.3745934 81.1857761,78.8903085 C87.0020599,79.4133648 90.6406922,75.7336181 92.622888,67.7721512 C94.6011352,59.8070138 89.1500968,56.5200182 86.2459035,56.5530533 C81.5490471,56.6044413 75.8768872,61.4349117 74.8561748,62.3488837 C73.8315138,63.2665263 72.9332079,63.2922203 73.9815605,61.9487916" id="Fill-20" fill="#241F21"></path>
            </g>
        </g>
    </g>
</svg>