<svg width="120px" height="120px" viewBox="0 0 120 120" version="1.1" xmlns="http://www.w3.org/2000/svg" xmlns:xlink="http://www.w3.org/1999/xlink">
    <g id="Page-1" stroke="none" stroke-width="1" fill="none" fill-rule="evenodd">
        <g id="perma-rules" transform="translate(-217.000000, -917.000000)">
            <g id="perma-rule-12" transform="translate(217.000000, 917.000000)">
                <path d="M120,60.0008711 C120,93.1397628 93.1388006,120 60.000871,120 C26.8664257,120 0,93.1397628 0,60.0008711 C0,26.8637215 26.8664257,0 60.000871,0 C93.1388006,0 120,26.8637215 120,60.0008711" id="Fill-36" fill="#FFFAAD"></path>
                <path d="M54.5961187,61.7713174 C53.4520942,58.9191429 52.679058,59.7892389 53.1363227,61.2092354 C53.5953129,62.629232 55.7643005,66.7447858 58.9513491,72.95031 C62.1349467,79.154094 58.977232,81.9993077 54.299328,83.3288143 C51.0501604,84.2493758 47.2229412,83.2470253 45.0763855,82.4987428 C50.1062971,80.7585509 53.2726394,79.1192902 53.5435471,74.6713598 C53.9697523,67.6844894 51.6782523,60.4818352 51.6644481,58.3762031 C51.6523694,56.2723111 50.1701416,55.0855002 50.642936,59.0809808 C51.1191815,63.0747211 54.1940708,75.2856475 50.4099899,77.8263276 C47.1746265,79.9980871 41.9997706,79.1610548 39.1129637,80.9116878 C36.9543293,82.2203121 31.5534294,87.425226 26.7530129,82.7841343 C21.384898,77.5914017 27.8625269,61.903572 37.7825823,53.432318 C42.8452789,49.1149019 44.3223301,47.5870135 46.1738208,46.4819916 C47.3402771,45.7893953 47.2557263,43.5932731 43.074774,46.3619184 C36.5263986,50.6967363 25.2621575,61.2248972 21.2727388,72.4839386 C17.1159439,84.2284935 24.1146819,87.2198833 28.3232426,87.9037788 C32.1987765,88.5372086 34.7560077,85.9217002 41.7133331,83.6211666 C42.2516976,83.443667 42.7641791,83.2731282 43.2732097,83.10781 C45.4266675,84.9089085 51.6075057,89.1584571 58.1903917,85.2726086 C61.0202562,83.6002843 62.6267219,79.2271821 61.7691349,76.1191994 C61.0133541,73.3783972 55.7384176,64.6200115 54.5961187,61.7713174" id="Fill-37" fill="#241F21"></path>
                <path d="M34.0948536,34.8379814 C34.0948536,34.8379814 36.0632941,35.5905828 38.2529998,36.7445718 C40.9180158,38.1494279 43.976392,40.0506425 45.0335478,40.6652671 C46.9593743,41.7870017 45.4121571,39.729891 45.4121571,39.729891 C43.6420358,38.7013356 34.3210358,33.8954376 34.3210358,33.8954376 C34.3210358,33.8954376 33.7047714,32.1053212 33.1671789,33.5872294 C32.4886324,35.4615654 34.0948536,34.8379814 34.0948536,34.8379814" id="Fill-38" fill="#241F21"></path>
                <path d="M90.5164182,33.7917156 C78.9471634,31.3141009 64.7697309,35.1694944 56.9814702,38.2353933 C52.3316592,40.068453 54.2074745,41.497387 55.413109,40.892051 C57.3286515,39.9252186 59.3996483,39.4972205 65.7266385,37.5447988 C78.1336192,33.7183932 94.7136844,36.574556 96.1576822,43.7976638 C97.4462256,50.2500339 90.1916914,52.0234126 87.9427858,53.1368898 C84.9269723,54.62721 82.8369756,59.39146 79.2822538,60.9499871 C75.1247148,62.7711106 66.593728,53.7643931 63.5191874,51.2646112 C60.4429194,48.761419 60.6329191,50.6285821 62.3791891,51.7471748 C64.1323682,52.8691779 68.9048154,58.5797983 74.9623514,61.9048833 C78.8210727,64.0210015 81.8921589,62.2442125 86.0531524,58.9566412 C85.5228805,61.1443767 84.2947915,64.8701771 81.7798863,67.0971315 C78.1508919,70.3062648 74.0745346,71.4470248 70.6148127,65.5130269 C67.1533635,59.5807341 64.8889125,55.6025683 63.9492776,54.4703342 C63.0096427,53.3381001 61.8696445,53.5273742 63.6331872,55.9828216 C65.3967299,58.4416793 69.861723,67.4688589 71.7392655,69.5406427 C73.8741713,71.8937798 78.3719825,72.7480709 81.2927961,71.2645714 C88.0723311,67.816714 87.8719678,60.4998217 87.5299683,57.7681365 C87.9427858,57.4339228 88.3625125,57.0928884 88.7995118,56.7399179 C94.4597757,52.135954 98.0265884,51.3788577 99.584586,47.8099331 C101.275583,43.928962 103.94767,36.6666353 90.5164182,33.7917156" id="Fill-39" fill="#241F21"></path>
                <path d="M49.9840973,36.0332961 C50.0875942,34.7943891 50.285817,31.1472506 50.6594582,28.0992 C50.971703,25.5925347 51.4839248,23.48809 51.4839248,23.48809 C51.4839248,23.48809 52.9241099,22.3968335 50.9927532,22.0370414 C49.4613504,21.7519231 50.5805199,23.2063659 50.5805199,23.2063659 C50.5805199,23.2063659 49.1736642,33.8117492 49,35.8873426 C49,35.8873426 49.799908,38.2904828 49.9840973,36.0332961" id="Fill-40" fill="#241F21"></path>
                <path d="M60.6468461,50.8485382 C58.7102921,47.9142052 55.850065,45.730475 55.850065,45.730475 C55.850065,45.730475 56.0749432,44.2746548 55.0193168,42.7751949 C54.0696248,41.4276012 52.3616659,41.3612689 52.3616659,41.3612689 C52.3616659,41.3612689 52.7407993,40.2493295 52.6776104,39.8827561 C52.4062699,38.269833 50.2522717,37.3376892 47.8436594,38.5596006 C45.6766518,39.6610664 45.6134629,41.6213615 46.6579383,42.4714627 C47.3437237,43.0265596 48.3231517,43.304108 48.3231517,43.304108 C48.3231517,43.304108 47.6986966,45.9643837 48.6632567,46.9279482 C49.6240997,47.889767 51.3060396,48.5478536 51.3060396,48.5478536 C51.3060396,48.5478536 51.0031045,54.346696 54.4245977,57.9268964 C57.8442325,61.5088425 63.3881294,66.5431175 63.9977164,66.8189203 C64.6110205,67.0929776 65.3953063,67.3757628 64.7708512,65.0768238 C64.1463962,62.7761392 62.5778246,53.7863623 60.6468461,50.8485382 M55.2720724,55.350409 C53.1626782,52.2415172 52.9582435,48.1009831 52.7816863,47.7588479 C52.6051291,47.4167127 51.2112562,47.1112349 50.4195364,46.0708646 C49.6315337,45.0304943 49.6166657,43.0894007 49.4401085,42.7472655 C49.2635512,42.4016392 48.2209343,42.4505156 47.6949797,41.7575173 C47.165308,41.0627734 47.3883276,39.9770178 48.5164354,39.3451151 C48.5164354,39.3451151 49.9381857,38.7201947 50.8135378,39.7605649 C51.4528608,40.5198956 51.001246,41.4555306 51.2632941,41.7191144 C51.5272007,41.9809525 52.5159212,42.5796891 53.3968488,44.0442372 C54.2740595,45.5087853 53.7927087,46.7306967 54.1439647,47.2491363 C54.4970791,47.7693214 57.4056271,49.0226534 59.5224554,53.3133081 C61.0445645,56.3942704 62.1931157,62.0918688 62.1931157,62.0918688 C62.1931157,62.0918688 57.3833252,58.4610463 55.2720724,55.350409" id="Fill-41" fill="#241F21"></path>
            </g>
        </g>
    </g>
</svg>