
<svg width="121px" height="117px" viewBox="0 0 121 117" version="1.1" xmlns="http://www.w3.org/2000/svg" xmlns:xlink="http://www.w3.org/1999/xlink">
    <g id="Page-1" stroke="none" stroke-width="1" fill="none" fill-rule="evenodd">
        <g id="perma-rules" transform="translate(0.000000, -340.000000)">
            <g id="perma-rule-3" transform="translate(0.000000, 340.000000)">
                <path d="M121,58.5008847 C121,90.8087166 93.9155226,117 60.5,117 C27.0880192,117 0,90.8087166 0,58.5008847 C0,26.1930528 27.0880192,2.13162821e-14 60.5,2.13162821e-14 C93.9155226,2.13162821e-14 121,26.1930528 121,58.5008847" id="Fill-27" fill="#9CD4AD"></path>
                <path d="M80.7150329,39.604121 C67.3873678,42.9910241 66.2402929,56.2489905 66.2402929,56.2489905 C66.2402929,56.2489905 65.1587145,57.601264 63.7885973,59.8242523 C62.4220204,62.0472406 61.4201,63.7940012 61.4201,63.7940012 C61.4201,63.7940012 61.5829563,59.268061 63.21683,55.298312 C65.323341,50.1877489 67.2492939,49.1571068 72.9156316,38.6783201 C78.5819692,28.1977564 81.4160231,19.0925668 82.3967014,15.917123 C83.3773796,12.7434562 81.0885403,13.271216 78.3642374,14.5417489 C75.6381643,15.8122818 67.5785469,21.2107139 64.3090294,32.4322738 C61.0395119,43.6520566 61.9122093,53.0735467 61.9122093,53.0735467 C61.9122093,53.0735467 61.0395119,55.6146125 60.6022781,57.0983817 C60.1685846,58.578597 59.294117,62.4435047 59.294117,62.4435047 C59.294117,62.4435047 59.4056382,56.5670679 59.7313508,48.9456475 C60.0570635,41.3242271 60.111939,36.0839452 54.8279596,27.9862971 C48.9704428,19.0090492 42.0791425,19.7287217 37.2855023,21.1040958 C32.4900919,22.4812468 28.4593981,28.7272932 29.1143637,29.255053 C29.765789,29.7845898 29.9321857,28.2510655 33.0618592,27.8263699 C36.1950731,27.4034512 39.1919833,27.9862971 44.5839434,34.7352257 C49.0501008,40.3184626 53.9818149,48.2313059 55.9449415,55.3747217 C57.0566129,59.4262112 57.2265499,62.601655 57.2265499,62.601655 C57.2265499,62.601655 55.6988869,60.2738255 53.0861051,57.309841 C50.469783,54.3440796 49.7333893,49.5800255 43.0615909,45.7702037 C33.8991531,40.5388067 28.5390561,42.1451868 25.3792896,43.9452565 C22.7753587,45.4290257 13.8589755,51.4867133 25.0818998,51.3800952 C36.3030539,51.275254 40.1726615,52.9153965 47.0922847,56.3573856 C55.2545724,60.415983 56.5715843,67.6820096 56.5715843,67.6820096 C56.5715843,67.6820096 53.1657631,68.3181645 49.8962456,72.3661001 C46.0319485,77.1514779 48.9155673,81.1016802 51.2044066,82.9266274 C53.4932459,84.7551286 55.1288898,85.2295794 57.0070479,88.0887226 C58.6798655,90.6315654 58.8073183,94.1233097 59.3773154,99.1219237 C59.9490826,104.125869 60.7651344,101.90288 60.8501029,100.474197 C60.9297609,99.0437371 61.0926172,94.5195738 61.829011,89.7572966 C62.5618644,84.9932425 66.4845773,84.7551286 68.6123305,83.1665183 C70.7347731,81.5779079 70.9808278,78.1643503 70.9011698,77.5281953 C70.8179714,76.8920404 69.4301524,77.0537446 68.6919885,76.7338901 C67.9573649,76.4175897 68.6087901,74.9835756 67.2227413,75.0688701 C65.9145802,75.1470568 65.9464434,74.2816728 66.4845773,73.5069143 C67.0581148,72.6859546 66.0243312,72.2079499 65.2596146,71.5735719 C64.4984384,70.9391939 65.8349223,69.6953156 65.8349223,69.6953156 C65.8349223,69.6953156 65.2897076,69.0591606 64.3090294,68.5278469 C63.3248108,68.001864 62.1281709,67.6820096 62.1281709,67.6820096 C62.1281709,67.6820096 65.2348321,58.118362 72.4819381,54.5573159 C83.7331852,49.0256111 100.024127,48.5227289 100.482603,48.4711968 C105.387765,47.9132285 90.419145,37.1394649 80.7150329,39.604121 M80.2990412,15.2827451 C81.2797195,14.9628906 81.1947509,15.5208589 81.0336648,15.9970866 C80.8708085,16.4733143 80.9504665,16.8695785 80.1326446,17.2658426 C79.0882399,17.7758327 75.3124517,18.6980796 75.3124517,18.6980796 C75.3124517,18.6980796 79.3165928,15.5990456 80.2990412,15.2827451 M66.7324022,29.8130213 C69.755865,22.0298967 79.7255038,19.0925668 79.7255038,19.0925668 C79.7255038,19.0925668 76.3763283,27.6682196 73.1068107,34.4171482 C69.8372932,41.1642999 63.625741,50.3761076 63.625741,50.3761076 C63.625741,50.3761076 64.0948379,36.6010432 66.7324022,29.8130213 M26.9317351,44.6578211 C30.0472472,43.4050579 32.8175747,43.9452565 32.8175747,43.9452565 C32.8175747,43.9452565 29.3852009,44.8177483 27.0149334,45.7702037 C25.1597876,46.5165308 21.7008611,48.5493834 21.7008611,48.5493834 C21.7008611,48.5493834 23.5807894,46.0083176 26.9317351,44.6578211 M36.1685204,50.296144 C28.5425965,49.1411141 22.847936,49.4218752 22.847936,49.4218752 C22.847936,49.4218752 28.7957318,46.2339927 31.9165545,45.6102765 C35.1046438,44.9758986 39.7407382,46.098943 42.7854433,47.7550782 C46.8727827,49.9780666 49.4873346,55.5346489 49.4873346,55.5346489 C49.4873346,55.5346489 43.5236072,51.4067497 36.1685204,50.296144 M45.238909,32.9085015 C41.9817827,29.4629584 39.2716413,27.6682196 39.2716413,27.6682196 C39.2716413,27.6682196 44.0953745,27.5100694 47.44455,31.2399275 C51.298226,35.5295309 52.4311395,39.4975029 52.7568522,40.3717716 C53.0861051,41.2460404 53.5729039,41.0061496 53.2471913,39.8155803 C52.9214786,38.625011 50.7954957,31.6379686 46.8727827,28.7006387 C41.8826528,24.9636727 34.0425374,26.0796093 34.0425374,26.0796093 C34.0425374,26.0796093 35.7613796,22.9041655 39.6805522,22.1898239 C43.6050354,21.4754823 49.8148174,23.3004296 53.3303896,29.0169392 C56.8424214,34.7352257 57.9877262,38.9413115 58.1505825,46.4863223 C58.3134388,54.0277791 57.7416715,54.9802345 57.7416715,54.9802345 C57.7416715,54.9802345 52.5922257,40.6898491 45.238909,32.9085015 M64.1975082,69.8268113 C64.1975082,69.8268113 63.7089393,70.3830026 64.0346519,71.3336811 C64.3639049,72.2896905 65.5056693,73.0022551 65.5056693,73.0022551 C65.5056693,73.0022551 64.9356722,74.4344921 65.5888676,75.3833936 C66.2402929,76.3358491 67.3023993,76.2594394 67.3023993,76.2594394 C67.3023993,76.2594394 67.7130804,77.0537446 68.1219914,77.3682681 C68.5291322,77.6863456 69.5930087,77.9244594 69.5930087,77.9244594 C69.5930087,77.9244594 69.0389432,78.9551015 67.5785469,80.7054161 C66.5146704,81.974172 65.7517239,81.9492944 63.8717956,82.8235632 C61.9918673,83.696055 60.6854764,86.6582625 60.4394218,88.9629914 C60.1951373,91.2641664 59.8694247,91.4240936 59.294117,89.0411781 C58.7223498,86.6582625 58.2036878,84.7551286 55.5909061,83.2464819 C52.9781243,81.7360581 50.1423002,80.2309653 49.9794439,77.0537446 C49.8148174,73.8783008 54.3110678,69.4287702 56.6795651,68.9543195 C57.7204294,68.7446371 60.4394218,68.7961692 61.7458126,68.8743559 C63.0539737,68.9543195 64.1975082,69.8268113 64.1975082,69.8268113 M82.8303948,48.9456475 C75.6381643,50.6924081 71.552595,52.7572462 71.552595,52.7572462 C71.552595,52.7572462 74.9035407,45.6102765 80.4618975,44.4197072 C84.2766297,43.6023015 88.0949022,44.2473412 90.5147346,45.0558622 C93.1292865,45.928354 96.069551,47.3588141 96.069551,47.3588141 C96.069551,47.3588141 90.0226253,47.1988869 82.8303948,48.9456475 M80.1326446,42.9910241 C72.8607561,44.5796345 68.6123305,53.7896653 68.6123305,53.7896653 C68.7751868,50.6142215 71.552595,44.5796345 77.9287738,42.0385687 C87.533756,38.2109772 98.3601605,45.5320899 97.8680512,46.0882812 C97.3777121,46.6426956 88.6064834,41.1411993 80.1326446,42.9910241" id="Fill-28" fill="#241F21"></path>
            </g>
        </g>
    </g>
</svg>