
<svg width="125px" height="125px" viewBox="0 0 125 125" version="1.1" xmlns="http://www.w3.org/2000/svg" xmlns:xlink="http://www.w3.org/1999/xlink">
    <g id="Page-1" stroke="none" stroke-width="1" fill="none" fill-rule="evenodd">
        <g id="perma-rules" transform="translate(-1.000000, -737.000000)">
            <g id="perma-rule-5" transform="translate(1.000000, 737.000000)">
                <path d="M125,62.5 C125,97.0176024 97.0197758,125 62.4991121,125 C27.9837759,125 0,97.0176024 0,62.5 C0,27.9823976 27.9837759,0 62.4991121,0 C97.0197758,0 125,27.9823976 125,62.5" id="Fill-43" fill="#94B5DE"></path>
                <path d="M33.5662769,50.8726435 C30.5835654,55.0393714 32.0758052,58.3182257 33.8155729,62.3558083 C35.5571086,66.3951847 35.9248644,68.1619634 36.0557006,71.3152598 C36.5525245,83.4298015 33.069453,84.1885298 33.4425129,85.0692286 C33.8155729,85.9535148 37.0511164,84.0593845 38.9164161,79.6433346 C40.7834839,75.2272846 42.0246596,72.3251039 39.5387721,65.5126921 C37.0511164,58.696693 39.911832,54.7846682 41.0292438,53.6474726 C41.7806678,52.8887443 42.6487836,52.7649801 42.1484236,53.900382 C41.6533677,55.0393714 39.788068,61.2222 41.8991276,66.6463004 C44.0154913,72.0739882 47.8698547,77.3743243 49.2418666,86.5830979 C50.6068063,95.7954589 50.1506477,98.2402501 50.1135185,99.2483005 C49.9879865,102.403391 54.5884697,104.629352 56.7048335,103.74686 C57.4315047,103.443727 58.6938971,102.105639 58.1988413,100.337067 C57.6984813,98.5720817 56.7012974,93.3973034 56.2044735,89.6126302 C55.7076496,85.827957 56.7048335,78.6334905 56.7048335,78.6334905 C56.7048335,78.6334905 57.5747173,78.8863999 58.3226053,78.8863999 C59.0687251,78.8863999 60.4372009,79.0119578 60.4372009,79.0119578 C60.4372009,79.0119578 62.5553327,83.5553593 62.9248566,91.0027353 C63.2996846,98.4447301 63.2996846,103.872418 62.6773286,107.908207 C61.9612657,112.582547 72.7534831,113.588804 70.8881834,105.639197 C70.1615122,102.548679 69.1484157,90.8753837 69.5161715,85.3221381 C69.8927676,79.7706861 70.2675956,79.1393094 70.2675956,79.1393094 C70.2675956,79.1393094 74.1201909,78.6334905 75.8634947,77.8765558 C77.6050304,77.1196212 78.7259783,76.1097771 78.7259783,76.1097771 C78.7259783,76.1097771 80.21645,79.5177767 78.3511503,84.4396455 C76.6060784,89.0386513 75.6141987,92.1363435 74.3694869,93.3973034 C73.1283111,94.6600569 72.5872858,95.9192231 72.6297192,97.5622376 C72.7534831,102.358549 79.965386,106.26878 80.9608018,100.466212 C81.3586145,98.1523596 86.5708454,86.4467779 87.1436957,82.5347532 C87.652896,79.0316883 86.3922717,67.2848519 87.1436957,62.4903346 C87.8898156,57.6940236 90.3933837,51.6744202 89.0920941,42.576855 C87.4301209,30.9376396 81.8324537,20.5898767 75.2393707,17.6859024 C68.6462877,14.7837217 68.0256998,16.2993846 67.40688,16.5487067 C66.780988,16.8016162 66.5352281,17.1818772 67.5288759,17.4329929 C68.5225237,17.6859024 81.6609522,16.3603699 85.060925,37.565302 C86.2030896,44.6718779 86.3286216,49.7982267 85.5825017,54.973005 C84.8328457,60.1459897 83.2009295,67.0247677 84.0708134,72.199546 C84.9424653,77.3725306 86.0634131,79.896244 83.8232854,86.3319822 C81.5866938,92.7677203 79.7107858,96.7927472 79.4703301,99.7092773 C79.0955021,104.250885 73.499603,99.4545742 73.998195,97.0582124 C74.5427564,94.4179096 76.4840825,94.0304738 77.9763223,90.4951227 C79.4703301,86.9633589 82.3310457,81.031646 80.9608018,76.9940633 C79.5940941,72.9564807 78.2256183,68.538637 77.6050304,69.0426622 C76.9809064,69.5502748 78.123071,73.7403206 78.123071,73.7403206 C78.123071,73.7403206 75.7980766,74.9277394 73.8072449,75.684674 C71.8181812,76.4416087 70.7697236,75.8478993 70.7697236,75.8478993 C70.7697236,75.8478993 71.6343033,69.4211295 71.0119474,69.5502748 C70.3878234,69.6776264 68.8955837,75.099933 68.5225237,78.0021137 C68.1529999,80.9060881 67.40688,87.8458514 67.7764038,93.1443939 C68.1529999,98.4447301 70.3878234,107.405975 69.5161715,108.541377 C68.6462877,109.674986 66.5352281,109.800543 65.1649843,109.045402 C63.7947404,108.290261 64.9156883,103.997976 64.9156883,99.8348352 C64.9156883,95.669901 64.6699284,84.6907613 62.4298007,79.2648673 C60.189673,73.8389732 58.0733093,65.3853406 57.1998893,65.5126921 C56.3300055,65.6364563 59.0987821,76.0093308 59.0987821,76.0093308 C59.0987821,76.0093308 57.2193379,77.2505601 54.9615297,74.5959078 C52.5994061,71.819285 51.8532862,70.4327673 51.3529262,70.6838831 C50.4635937,71.1358914 52.254635,73.7636385 52.8487021,74.8488173 C54.0898778,77.1232086 55.0852936,78.131259 55.0852936,78.131259 C55.0852936,78.131259 53.8423499,84.9454644 54.4647058,90.3695648 C55.0852936,95.7954589 58.0733093,103.241041 55.3345896,102.103845 C54.3515502,101.698473 53.3437579,101.519104 52.348342,100.383702 C51.3529262,99.2483005 51.8532862,92.5130172 51.7277542,88.9830471 C51.6022222,85.4476959 50.7305703,79.896244 49.1181027,76.7411539 C47.567517,73.7277648 43.3701507,65.1485743 44.7085695,59.3065456 C46.3263413,52.2394307 50.1789366,46.8745219 57.0177795,46.4942608 C63.8654627,46.1139998 65.2905163,47.0879702 66.780988,42.7956845 C68.2767638,38.5069861 66.657224,34.3438455 66.657224,34.3438455 C66.657224,34.3438455 70.6371194,33.3322078 71.6343033,30.9376396 C72.4776663,28.903602 71.3814712,23.7431732 70.5115874,23.9978763 C69.7566272,24.2149121 69.8927676,27.2767306 69.6417035,28.1592232 C69.3941756,29.0435094 68.5225237,31.5672227 67.030284,32.3223637 C65.5398122,33.081092 60.564501,35.1007802 58.5719012,36.9931168 C56.5793015,38.8854534 53.5930539,41.6602825 51.9788182,40.6522321 C50.3575103,39.6441817 50.3575103,37.1204683 51.4766901,35.8559211 C52.5994061,34.5949613 56.2044735,28.2865747 57.3236533,25.8902129 C58.4463692,23.4920574 61.9312088,18.6957464 61.0595569,18.3172791 C60.189673,17.9406055 56.3300055,23.4920574 55.2090576,25.384394 C54.0898778,27.2767306 49.9879865,35.1007802 49.6113904,36.4872979 C49.2418666,37.8756093 49.6113904,42.0405435 52.1008141,42.4190108 C54.5884697,42.7956845 57.6984813,40.6522321 59.8166131,38.8854534 C61.9312088,37.1204683 65.7855721,34.7223129 65.7855721,34.7223129 C65.7855721,34.7223129 69.1484157,45.0682821 58.9431931,44.058438 C50.3911034,43.2118192 45.1346712,49.3587742 45.1346712,49.3587742 C45.1346712,49.3587742 37.1448234,45.886202 33.5662769,50.8726435" id="Fill-44" fill="#241F21"></path>
                <path d="M60.1812298,24.5039878 C59.4704913,24.4142955 61.787537,21.9578852 63.266178,22.062044 C64.7429135,22.1633094 65.4098263,23.1803038 64.6076254,23.7922364 C63.8035191,24.4012757 63.1308899,24.6038066 62.4620717,24.1972982 C61.7913479,23.7922364 61.6598708,23.385728 61.6598708,23.385728 C61.6598708,23.385728 60.9853361,24.6038066 60.1812298,24.5039878" id="Fill-45" fill="#241F21"></path>
                <path d="M52.3365691,36.7738511 C51.5271279,36.8371956 51.0331136,38.5324941 52.0141842,39.0025769 C52.9906161,39.4709927 53.4799918,39.1192641 53.804696,38.4141399 C54.1340388,37.7123497 53.804696,36.6554969 52.3365691,36.7738511" id="Fill-46" fill="#241F21"></path>
                <path d="M60.1325572,14.7543976 C59.7698599,15.3558128 60.6133022,15.8372877 62.1752956,16.3187626 C63.7424216,16.8019509 65.0666088,18.4896832 65.5490646,19.2127523 C66.0298096,19.9358213 66.390796,19.6959406 66.0298096,18.248089 C65.670534,16.8019509 64.9451395,15.7173474 63.1384964,15.1142187 C61.3335642,14.51109 60.1325572,14.7543976 60.1325572,14.7543976" id="Fill-47" fill="#241F21"></path>
            </g>
        </g>
    </g>
</svg>