<svg width="122px" height="120px" viewBox="0 0 122 120" version="1.1" xmlns="http://www.w3.org/2000/svg" xmlns:xlink="http://www.w3.org/1999/xlink">
    <g id="Page-1" stroke="none" stroke-width="1" fill="none" fill-rule="evenodd">
        <g id="perma-rules" transform="translate(-215.000000, -523.000000)">
            <g id="perma-rule-10" transform="translate(215.000000, 523.000000)">
                <path d="M122,60 C122,93.1379344 94.6897286,120 61.0009991,120 C27.3122697,120 0,93.1379344 0,60 C0,26.8620656 27.3122697,0 61.0009991,0 C94.6897286,0 122,26.8620656 122,60" id="Fill-23" fill="#FCC499"></path>
                <path d="M40.225701,58.8445377 C37.3740206,58.4528452 34.8315362,59.4511589 34.8315362,59.4511589 C34.8315362,59.4511589 36.1502754,55.202802 36.1558633,50.8399503 C36.1577259,49.006026 35.9565623,49 35.9565623,49 C35.1034796,49.1024426 32.1940579,49.9561314 30.6331773,54.2768008 C29.3945311,57.7176686 27.4685758,61.9238432 23.588726,62.3275878 C19.7088761,62.733341 16.2797817,62.6931674 17.1310018,64.0088525 C17.9822219,65.3265461 19.9454296,66.8993421 21.2716193,66.8993421 C22.5940837,66.8993421 23.2683543,66.7647606 23.0988553,67.5220327 C22.8157362,68.8075875 22.6443746,69.8340227 22.5251666,70.9990567 C22.4152716,72.1118651 20.1596316,84.5737121 19.9696438,85.6885292 C19.7815185,86.8033462 19.8746498,87.3095334 20.2527629,86.8033462 C20.6327386,86.297159 21.5826778,87.1187089 21.7745283,86.2087771 C21.9626535,85.294828 24.1232996,73.1925347 24.7845318,71.4710964 C25.4476267,69.7476495 29.120725,67.5682323 30.1656582,67.670675 C31.2068661,67.771109 34.2615727,67.5561803 37.0070833,66.8471164 C39.7544566,66.1380526 42.3584077,63.5709603 42.9767995,60.6563665 C43.2096277,59.5536015 41.6468846,59.0373709 40.225701,58.8445377 M38.2364164,64.719925 C35.3027806,66.2364779 33.0918436,65.6921258 29.5267775,65.1256782 C26.7142123,64.6777427 23.4713805,65.4671537 22.0595101,65.521388 C20.8562537,65.5635703 19.4983994,64.719925 18.9302985,64.2117291 C18.3603349,63.7055419 20.0646377,63.8160192 21.1989769,64.0088525 C23.0168998,64.3181891 26.5055982,63.1631984 28.3924383,61.4799251 C30.7114076,59.4089766 32.9335204,59.1478483 32.9335204,59.1478483 C32.9335204,59.1478483 32.2406235,58.8947547 31.2329429,58.9449717 C29.9533188,59.0112581 28.6774201,59.8569121 28.6774201,59.8569121 C28.6774201,59.8569121 30.828753,57.3802104 31.3558762,55.1947673 C32.0450478,52.3504772 34.8315362,50.9403843 34.8315362,50.9403843 C34.8315362,50.9403843 34.7346797,51.9547674 34.6415484,53.1700184 C34.5465544,54.3852695 34.4534231,56.1087164 33.8853222,58.9449717 C33.3153587,61.781227 30.6890561,63.1933286 30.6890561,63.1933286 C30.6890561,63.1933286 31.989169,62.7956101 32.8403891,62.2874142 C33.6953344,61.781227 34.3956817,60.4514812 34.3956817,60.4514812 C34.3956817,60.4514812 34.8315362,60.1622314 36.8189581,59.8569121 C38.8045174,59.5536015 41.2669089,60.2626654 41.2669089,60.2626654 C41.2669089,60.2626654 41.1719149,63.1993547 38.2364164,64.719925" id="Fill-24" fill="#241F21"></path>
                <path d="M96.9244699,34.1369479 C87.3797994,36.8675505 78.0257048,39.7906446 71.9233094,40.1061721 C71.3237897,40.1379233 70.7500772,40.110141 70.2021718,40.0367164 C70.615086,38.9571758 71.9292649,35.3355554 72.0841077,32.3946012 C72.1893214,30.2970381 71.8439028,28.0506412 70.8136025,27.4533219 C69.8924862,26.9214894 69.0269545,26.681371 68.1177492,27.7390826 C65.8764986,30.3466493 62.5831109,32.9502471 61.0525491,34.1091656 C60.3061273,33.4364372 59.6073494,32.8867447 58.9184974,32.6029684 C55.8236261,31.321014 50.6403618,30.6800368 47.6308526,34.0913056 C44.6193582,37.5045588 45.2466701,39.6795155 45.2466701,39.6795155 C45.2466701,39.6795155 35.2732042,43.6067411 34.0662242,44.2040604 C32.8632146,44.8013797 31.8309291,45.7400243 35.9580859,44.7160484 C40.0852427,43.690088 44.9012515,41.9001145 44.9012515,41.9001145 C44.9012515,41.9001145 46.1042612,44.9700579 48.7723221,46.4206905 C49.3003758,46.7104201 49.8562219,46.9882431 50.4180234,47.2422526 C50.7197684,48.5718338 51.5793446,51.8501444 53.2429123,54.951839 C55.3928454,58.9624115 57.8842267,61.9490081 60.7210267,65.1876297 C63.5598117,68.4322047 65.1975724,72.8515738 65.1975724,81.0533037 C65.1975724,93.5751802 66.291398,89.3641783 69.8388868,81.6545919 C73.5154112,73.6552759 74.7124654,68.0095169 74.1367677,61.1810261 C73.8350227,57.5990947 72.727301,54.7791919 72.1932917,53.59646 C72.9714762,53.5488332 73.7873788,53.4892997 74.6509253,53.4178596 C83.5960761,52.6498776 94.5244061,44.49379 99.8188396,38.8281866 C105.238338,33.0296251 106.467155,31.4083298 96.9244699,34.1369479 M63.5915744,33.8234049 C66.4263891,30.9221397 68.8919633,28.5070646 68.8919633,28.5070646 C68.8919633,28.5070646 69.4934681,31.7496551 68.2904585,34.9882768 C67.8775443,36.0995685 67.1668555,37.8359618 66.7460006,38.8539845 C64.9792043,37.8716819 63.5201085,36.472645 62.2277664,35.2224418 C62.5434076,34.8950076 62.9761734,34.4504909 63.5915744,33.8234049 M84.9698098,47.8733076 C78.4386189,52.3085523 75.2564004,51.8818956 68.5485299,52.3085523 C62.4917933,52.6935355 61.7533121,52.7352089 63.2183635,53.2452124 C64.2228567,53.5984445 66.412493,53.7909361 69.6344148,53.7095736 C70.3530443,55.2435531 71.50841,58.0932226 71.6989858,60.831763 C72.4751851,71.8395045 67.6016065,81.3112821 67.6016065,81.3112821 C67.6016065,81.3112821 67.3514758,70.7500417 65.10824,67.4935601 C61.582588,62.3756647 58.9760671,62.288349 55.7938486,55.8904837 C53.6816337,51.6477306 53.5188502,49.3239402 53.6439156,48.2384463 C54.4022484,48.3376688 55.1367592,48.3178243 55.8236261,48.1273171 C57.9735591,47.5319822 57.9735591,47.1053256 56.510493,47.1053256 C55.049412,47.1053256 52.8577905,47.5438889 49.8323999,45.200254 C47.0769917,43.0669708 45.4154091,38.715073 49.3738269,34.9624789 C53.3898145,31.1483669 58.7537287,34.6152003 61.5925138,37.4311341 C64.4293138,40.247068 65.7990772,43.0927686 75.8579052,41.3027952 C85.9187184,39.5108372 98.5582602,35.4169179 98.5582602,35.4169179 C98.5582602,35.4169179 92.0171435,43.0887997 84.9698098,47.8733076" id="Fill-25" fill="#241F21"></path>
                <path d="M49.110209,40.7437829 C48.4251727,40.5420876 51.1007855,37.7158933 52.5254624,38.0233557 C53.9526213,38.3332778 54.4440604,39.7082496 53.5530168,40.3822072 C52.6644553,41.0586244 51.976937,41.233263 51.3911813,40.6355562 C50.7954976,40.0378493 50.7334472,39.5040946 50.7334472,39.5040946 C50.7334472,39.5040946 49.8771518,40.9700752 49.110209,40.7437829" id="Fill-26" fill="#241F21"></path>
            </g>
        </g>
    </g>
</svg>