
<svg style='scaling-svg' viewBox="0 0 714 698" version="1.1" xmlns="http://www.w3.org/2000/svg" xmlns:xlink="http://www.w3.org/1999/xlink">
    <g id="Page-1" stroke="none" stroke-width="1" fill="none" fill-rule="evenodd">
        <g id="perma-hoa">
            <path d="M356.999825,0 C308.922897,0 269.951433,81.6860272 269.951433,182.455989 C269.951433,183.052537 269.953298,183.652813 269.955163,184.247497 C311.659012,217.801443 342.194586,256.502477 356.999825,290.958702 C371.8032,256.502477 402.342503,217.801443 444.044487,184.245633 C444.048217,183.650949 444.048217,183.052537 444.048217,182.455989 C444.048217,81.6860272 405.074889,0 356.999825,0" id="Fill-9" fill="#FFF066"></path>
            <path d="M119.519158,118.584369 C98.6000897,118.584369 81.7283088,124.652378 71.5634618,137.390536 C41.5892865,174.959994 81.187427,256.347748 160.010686,319.175409 C160.476964,319.548252 160.946971,319.921094 161.413249,320.290208 C188.274556,314.291175 214.367439,311.448252 238.293064,311.446388 C260.900056,311.446388 281.576661,313.985444 299.155318,318.800703 C281.434912,285.74823 270.201358,237.755965 269.957028,184.247497 C269.492616,183.87279 269.024474,183.498084 268.556331,183.125241 C216.463822,141.603655 160.288588,118.580641 119.519158,118.584369" id="Fill-10" fill="#7DD96B"></path>
            <path d="M269.957028,184.247497 C270.201358,237.755965 281.434912,285.74823 299.155318,318.800703 C321.379963,324.889218 338.641552,334.616675 348.590046,347.451772 C344.751651,331.678677 347.909281,312.117504 357.00169,290.958702 C342.196451,256.502477 311.660878,217.801443 269.957028,184.247497" id="Fill-11" fill="#7DD42E"></path>
            <path d="M161.413249,320.290208 C160.831334,320.420703 160.24569,320.553062 159.663776,320.685421 C61.3762335,343.108159 -9.63035162,399.261943 1.06605157,446.111447 C8.77268417,479.862999 56.7787385,499.573309 119.776543,499.573309 C144.218804,499.573309 170.927172,496.60362 198.402101,490.33614 C198.984015,490.203781 199.571525,490.067694 200.151574,489.933471 C223.599731,441.829353 254.556819,403.460148 284.870444,381.367375 C247.965522,374.609608 203.426706,353.465719 161.413249,320.290208" id="Fill-12" fill="#66D6FF"></path>
            <path d="M238.293064,311.446387 C214.367439,311.448252 188.274556,314.291175 161.415114,320.288344 C203.426706,353.463855 247.965522,374.609608 284.870444,381.365511 C303.204471,368.002842 321.309089,360.596329 337.367682,360.594465 C337.613877,360.594465 337.860071,360.596329 338.104401,360.600057 C323.370035,353.763993 310.040097,339.101968 299.155318,318.800703 C281.576661,313.985444 260.900056,311.444524 238.293064,311.446387" id="Fill-13" fill="#33C7C4"></path>
            <path d="M299.155318,318.800703 C310.040097,339.101968 323.370035,353.763993 338.104401,360.600057 C344.8132,360.695132 351.152707,362.095155 357.00169,364.910115 C352.954403,359.837595 350.175389,353.969056 348.590046,347.451772 C338.641552,334.616675 321.379963,324.889218 299.155318,318.800703" id="Fill-14" fill="#33C7AB"></path>
            <path d="M324.899425,431.53704 C296.603848,456.159548 252.290711,477.786267 200.151574,489.931606 C199.890458,490.466635 199.629343,491.007257 199.370093,491.546014 C155.625814,582.334987 155.282634,672.835007 198.594207,693.682486 C204.657678,696.601841 211.248975,698 218.23008,698 C261.133195,698 318.60468,645.129093 356.22767,567.046587 C356.48692,566.509694 356.744305,565.970936 357.00169,565.432179 C333.993699,517.115541 323.28051,469.000238 324.899425,431.53704" id="Fill-15" fill="#9966FF"></path>
            <path d="M341.847675,376.986478 C332.770187,381.516512 321.639214,383.716282 309.044129,383.716282 C301.477379,383.716282 293.375344,382.922128 284.870444,381.365511 C254.556819,403.458284 223.599731,441.827488 200.151574,489.931606 C252.290711,477.784403 296.603848,456.159548 324.899425,431.53704 C325.893528,408.525211 331.539215,389.534487 341.847675,376.986478" id="Fill-16" fill="#5C57FF"></path>
            <path d="M337.365817,360.594465 C321.307224,360.596329 303.202606,368.002842 284.868579,381.365511 C293.375344,382.923992 301.475514,383.718146 309.044129,383.718146 C321.639214,383.718146 332.770187,381.518376 341.84581,376.986478 C346.10199,371.807698 351.154572,367.72321 356.999825,364.910115 C350.511109,364.910115 344.186523,363.420609 338.104401,360.600057 C337.858206,360.596329 337.612012,360.594465 337.365817,360.594465" id="Fill-17" fill="#4752E8"></path>
            <path d="M338.104401,360.600057 C344.186523,363.420609 350.512974,364.910115 356.999825,364.910115 C351.152707,362.095155 344.8132,360.695132 338.104401,360.600057" id="Fill-18" fill="#474FDE"></path>
            <path d="M356.999825,565.432179 C357.255345,565.970936 357.514595,566.509694 357.773846,567.048451 C395.3987,645.136549 452.866455,698 495.771435,698 C502.74881,698 509.347567,696.599977 515.405443,693.682486 C558.718882,672.835007 558.371972,582.334987 514.631423,491.546014 C514.372173,491.009121 514.109192,490.468499 513.848077,489.931606 C461.70894,477.786267 417.397667,456.159548 389.102091,431.53704 C390.721006,469.000238 380.007816,517.115541 356.999825,565.432179 Z" id="Fill-19" fill="#E069FA"></path>
            <path d="M356.999825,384.283002 C353.612786,400.162357 342.278516,416.412691 324.89756,431.53704 C323.278645,469.000238 333.991834,517.115541 356.999825,565.432179 C380.005951,517.115541 390.719141,469.000238 389.102091,431.53704 C371.721135,416.412691 360.388729,400.162357 356.999825,384.283002" id="Fill-20" fill="#BA2BFA"></path>
            <path d="M356.999825,364.910115 C352.954403,369.98077 347.845868,373.992554 341.84581,376.988342 C331.53735,389.536351 325.891663,408.527075 324.89756,431.53704 C342.278516,416.412691 353.612786,400.162357 356.999825,384.283002 C355.600993,377.72657 355.55623,371.231656 356.999825,364.910115" id="Fill-21" fill="#9E24FA"></path>
            <path d="M356.999825,364.910115 C351.154572,367.725074 346.10199,371.807698 341.84581,376.988342 C347.845868,373.992554 352.954403,369.98077 356.999825,364.910115" id="Fill-22" fill="#9621F0"></path>
            <path d="M552.586402,320.290208 C510.57854,353.461991 466.032264,374.607744 429.131071,381.367375 C459.444697,403.460148 490.39992,441.829353 513.848077,489.933471 C514.428126,490.067694 515.015635,490.203781 515.59755,490.33614 C543.078073,496.605484 569.775251,499.573309 594.223107,499.573309 C657.211586,499.573309 705.225101,479.861135 712.933599,446.111447 C723.631867,399.261943 652.625282,343.108159 554.335875,320.685421 C553.75396,320.553062 553.168316,320.420703 552.586402,320.290208" id="Fill-23" fill="#E66969"></path>
            <path d="M372.155705,376.990206 C382.460435,389.538215 388.107987,408.530804 389.102091,431.53704 C417.397667,456.159548 461.710805,477.786267 513.849942,489.931606 C490.401785,441.829353 459.446562,403.460148 429.132937,381.365511 C420.626172,382.923992 412.524136,383.718146 404.957387,383.718146 C392.360437,383.718146 381.233193,381.518376 372.155705,376.990206" id="Fill-24" fill="#D92B66"></path>
            <path d="M356.999825,364.910115 L356.999825,364.910115 C358.44342,371.231656 358.398657,377.72657 356.999825,384.283002 C360.388729,400.162357 371.721135,416.412691 389.102091,431.53704 C388.107987,408.530804 382.460435,389.538215 372.15384,376.990206 C366.151918,373.994418 361.047113,369.982635 356.999825,364.910115" id="Fill-25" fill="#C91466"></path>
            <path d="M356.999825,364.910115 L356.999825,364.910115 C355.55623,371.231656 355.600993,377.72657 356.999825,384.283002 C358.398657,377.72657 358.44342,371.231656 356.999825,364.910115" id="Fill-26" fill="#BF1266"></path>
            <path d="M594.480492,118.584369 C553.712928,118.584369 497.530233,141.607383 445.443319,183.125241 C444.977042,183.498084 444.5089,183.87279 444.044487,184.245633 C443.800158,237.755965 432.564738,285.751958 414.844332,318.802567 C432.41926,313.987308 453.101459,311.448252 475.708452,311.446388 C499.637807,311.446388 525.719499,314.289311 552.586402,320.290208 C553.052679,319.921094 553.524552,319.548252 553.990829,319.175409 C632.812223,256.347748 672.410364,174.959994 642.434324,137.390536 C632.267611,124.64865 615.405156,118.584369 594.480492,118.584369" id="Fill-27" fill="#FFA366"></path>
            <path d="M444.046352,184.245633 C402.342503,217.799579 371.805065,256.502477 357.00169,290.958702 C366.092234,312.117504 369.249865,331.680541 365.411469,347.455501 C375.356233,334.616675 392.621552,324.891082 414.846197,318.802567 C432.566603,285.750094 443.802023,237.7541 444.046352,184.245633" id="Fill-28" fill="#FF9E29"></path>
            <path d="M356.999825,290.958702 C347.907416,312.117504 344.749786,331.678677 348.588181,347.451772 C352.697018,352.75359 355.55623,358.584844 356.999825,364.910115 C358.44342,358.588573 361.304498,352.755454 365.409604,347.455501 C369.248,331.680541 366.090369,312.117504 356.999825,290.958702" id="Fill-29" fill="#CC9112"></path>
            <path d="M348.590046,347.451772 C350.175389,353.967192 352.954403,359.837595 357.00169,364.910115 C355.55623,358.584844 352.698883,352.75359 348.590046,347.451772" id="Fill-30" fill="#AD8C45"></path>
            <path d="M475.708452,311.446388 C453.101459,311.446388 432.421125,313.987308 414.844332,318.802567 C403.959553,339.103832 390.63148,353.763993 375.89525,360.600057 C376.141444,360.596329 376.387639,360.594465 376.633833,360.594465 C392.694292,360.5926 410.793314,368.000978 429.131071,381.365511 C466.034129,374.605879 510.57854,353.460126 552.586402,320.288344 C525.719499,314.289311 499.637807,311.446388 475.708452,311.446388" id="Fill-31" fill="#F56929"></path>
            <path d="M414.844332,318.802567 C392.621552,324.891082 375.356233,334.616675 365.409604,347.455501 C363.824261,353.97092 361.047113,359.837595 356.999825,364.910115 C362.845079,362.097019 369.190181,360.695132 375.89525,360.600057 C390.629615,353.763993 403.959553,339.103832 414.844332,318.802567" id="Fill-32" fill="#F56612"></path>
            <path d="M365.409604,347.455501 C361.304498,352.755454 358.44342,358.588573 356.999825,364.910115 C361.047113,359.837595 363.824261,353.97092 365.409604,347.455501" id="Fill-33" fill="#E06108"></path>
            <path d="M376.633833,360.594465 C376.387639,360.594465 376.141444,360.596329 375.89525,360.600057 C369.813128,363.420609 363.488541,364.910115 356.999825,364.910115 C362.848809,367.725074 367.89766,371.805834 372.155705,376.990206 C381.233193,381.518376 392.360437,383.718146 404.955522,383.718146 C412.524136,383.718146 420.626172,382.923992 429.131071,381.365511 C410.793314,368.000978 392.694292,360.594465 376.633833,360.594465" id="Fill-34" fill="#F04F29"></path>
            <path d="M375.89525,360.600057 C369.190181,360.695132 362.845079,362.097019 356.999825,364.910115 C363.486676,364.910115 369.813128,363.420609 375.89525,360.600057" id="Fill-35" fill="#F04F1F"></path>
            <path d="M356.999825,364.910115 C361.047113,369.982635 366.151918,373.994418 372.15384,376.990206 C367.89766,371.805834 362.846944,367.725074 356.999825,364.910115" id="Fill-36" fill="#EB4529"></path>
            <path d="M419.842826,96.8066481 C416.450192,96.6724249 413.065018,96.6053133 409.6929,96.6053133 C284.575757,96.6053133 175.271012,188.518406 157.037702,315.901854 C155.631409,325.737435 154.946914,335.511496 154.946914,345.169977 C154.946914,445.533541 228.741838,533.205552 331.016984,547.834021 C338.919453,548.963733 346.77343,549.511812 354.53415,549.511812 C435.177757,549.511812 505.621079,490.274621 517.373134,408.174739 C518.281442,401.825234 518.723473,395.514878 518.723473,389.27909 C518.723473,324.480956 471.081115,267.883489 405.052507,258.439393 C399.940242,257.708622 394.857819,257.352558 389.836944,257.352558 C337.656774,257.354422 292.088418,295.677021 284.484366,348.794005 C283.894992,352.912048 283.607765,357.005857 283.607765,361.051196 C283.607765,403.08917 314.510765,439.797362 357.34487,445.92689 C360.670361,446.4004 363.975335,446.631562 367.243007,446.631562 C401.204786,446.631562 430.856298,421.692138 435.810029,387.124061 C436.194241,384.435868 436.382617,381.760724 436.380752,379.117272 C436.380752,351.644384 416.189076,327.665029 388.203108,323.658839 C386.02093,323.347515 383.849942,323.19465 381.703201,323.19465 C359.400221,323.19465 339.937803,339.569885 336.683187,362.266662 C336.429532,364.041392 336.30457,365.8068 336.306435,367.551702 C336.306435,385.703532 349.641968,401.536281 368.128934,404.185326 L369.033512,397.865649 C353.732153,395.684521 342.69257,382.553014 342.69257,367.551702 C342.69257,366.108803 342.795151,364.645396 343.005908,363.170805 C345.792382,343.658101 362.552256,329.577711 381.703201,329.579575 C383.547794,329.579575 385.416634,329.71007 387.29853,329.978516 C412.098891,333.514926 429.994617,354.796766 429.994617,379.117272 C429.994617,381.458722 429.828622,383.829999 429.487307,386.219918 C425.001719,417.602058 398.052751,440.248501 367.243007,440.248501 C364.275618,440.248501 361.272791,440.037845 358.247583,439.607212 C318.60095,433.945601 289.9939,399.938652 289.9939,361.051196 C289.9939,357.307859 290.260611,353.516053 290.807088,349.698147 C297.942997,299.765238 340.810674,263.737483 389.836944,263.737483 C394.557536,263.737483 399.335947,264.071177 404.147929,264.759071 C466.99093,273.733386 512.337338,327.631474 512.335473,389.27909 C512.335473,395.212875 511.915823,401.22123 511.050412,407.270596 C499.7665,486.184541 432.025721,543.128751 354.53415,543.126887 C347.075577,543.126887 339.523749,542.599315 331.921562,541.514343 C232.832023,527.353792 161.333049,442.381159 161.334914,345.169977 C161.334914,335.813499 161.997028,326.341439 163.360423,316.804132 C181.123726,192.606622 287.729657,102.988374 409.6929,102.990238 C412.981088,102.990238 416.280467,103.055486 419.589171,103.18598 L419.842826,96.8066481 Z" id="Fill-37" fill="#17A363"></path>
            <polygon id="Fill-38" fill="#17A363" points="415.868278 81.745682 445.736142 102.369456 412.93446 117.916981"></polygon>
            <path d="M364.264427,446.213978 C322.536331,446.213978 288.71257,412.404635 288.71257,370.700356 C288.71257,328.994212 322.536331,295.183005 364.264427,295.183005 C405.988792,295.183005 439.814419,328.994212 439.814419,370.700356 C439.814419,412.404635 405.988792,446.213978 364.264427,446.213978 Z" id="Fill-39" fill="#FFF7DC"></path>
            <path d="M439.814419,370.700356 L435.556374,370.700356 C435.554509,390.392024 427.583031,408.178468 414.674607,421.086269 C401.758724,433.988478 383.963714,441.956119 364.264427,441.957983 C344.56141,441.956119 326.7664,433.988478 313.850516,421.086269 C300.943958,408.178468 292.97248,390.392024 292.970615,370.700356 C292.97248,351.008688 300.943958,333.22038 313.850516,320.310714 C326.7664,307.408505 344.56141,299.442729 364.264427,299.439 C383.963714,299.442729 401.758724,307.408505 414.674607,320.310714 C427.583031,333.22038 435.554509,351.008688 435.556374,370.700356 L439.814419,370.700356 L444.072464,370.700356 C444.068734,326.641577 408.340695,290.930738 364.264427,290.92701 C320.182563,290.930738 284.45639,326.641577 284.454525,370.700356 C284.45639,414.757271 320.182563,450.468109 364.264427,450.471838 C408.340695,450.468109 444.068734,414.757271 444.072464,370.700356 L439.814419,370.700356 Z" id="Fill-40" fill="#17A363"></path>
            <text id="XÂY-DỰNG" font-family="LucidaGrande-Bold, Lucida Grande" font-size="18" font-weight="bold" line-spacing="30" fill="#1A1919">
                <tspan x="338.421372" y="46.6692784">XÂY </tspan>
                <tspan x="329.025864" y="76.6692784">DỰNG</tspan>
            </text>
            <text id="CÔNG-NGHỆ-VÀ-CÔNG-CỤ" font-family="LucidaGrande-Bold, Lucida Grande" font-size="18" font-weight="bold" line-spacing="30" fill="#1A1919">
                <tspan x="468.878403" y="204.669278">CÔNG NGHỆ VÀ </tspan>
                <tspan x="497.77684" y="234.669278">CÔNG CỤ</tspan>
            </text>
            <text id="VĂN-HOÁ-GIÁO-DỤC" font-family="LucidaGrande-Bold, Lucida Grande" font-size="18" font-weight="bold" line-spacing="30" fill="#1A1919">
                <tspan x="550.372544" y="402.669278">VĂN HOÁ </tspan>
                <tspan x="547.357895" y="432.669278">GIÁO DỤC</tspan>
            </text>
            <text id="SỨC-KHOẺ,-TINH-THẦN" font-family="LucidaGrande-Bold, Lucida Grande" font-size="18" font-weight="bold" line-spacing="30" fill="#1A1919">
                <tspan x="419.820297" y="559.669278">SỨC KHOẺ, </tspan>
                <tspan x="417.354965" y="589.669278">TINH THẦN </tspan>
                <tspan x="426.759262" y="619.669278">VÀ HẠNH </tspan>
                <tspan x="444.649399" y="649.669278">PHÚC</tspan>
            </text>
            <text id="KINH-TẾ-TÀI-CHÍNH" font-family="LucidaGrande-Bold, Lucida Grande" font-size="18" font-weight="bold" line-spacing="30" fill="#1A1919">
                <tspan x="208.335922" y="566.669278">KINH TẾ </tspan>
                <tspan x="230.409653" y="596.669278">TÀI </tspan>
                <tspan x="215.872544" y="626.669278">CHÍNH</tspan>
            </text>
            <text id="QUẢN-TRỊ-CỘNG-ĐỒNG-V" font-family="LucidaGrande-Bold, Lucida Grande" font-size="18" font-weight="bold" line-spacing="30" fill="#1A1919">
                <tspan x="50.2763521" y="379.669278">QUẢN TRỊ </tspan>
                <tspan x="37.6420748" y="409.669278">CỘNG ĐỒNG </tspan>
                <tspan x="32.258774" y="439.669278">VÀ QUYỀN SỬ </tspan>
                <tspan x="45.899399" y="469.669278">DỤNG ĐẤT</tspan>
            </text>
            <text id="QUẢN-LÍ-ĐẤT-VÀ-TỰ-NH" font-family="LucidaGrande-Bold, Lucida Grande" font-size="18" font-weight="bold" line-spacing="30" fill="#1A1919">
                <tspan x="94.9614107" y="158.669278">QUẢN LÍ </tspan>
                <tspan x="81.2592623" y="188.669278">ĐẤT VÀ TỰ </tspan>
                <tspan x="104.48436" y="218.669278">NHIÊN</tspan>
            </text>
            <text id="NGUYÊN-TẮC-ĐẠO-ĐỨC-&amp;" font-family="LucidaGrande-Bold, Lucida Grande" font-size="18" font-weight="bold" line-spacing="30" fill="#1A1919">
                <tspan x="302.260239" y="347.669278">NGUYÊN TẮC </tspan>
                <tspan x="308.434555" y="377.669278">ĐẠO ĐỨC &amp; </tspan>
                <tspan x="320.638169" y="407.669278">THIẾT KẾ</tspan>
            </text>
        </g>
    </g>
</svg>