
<svg width="121px" height="121px" viewBox="0 0 121 121" version="1.1" xmlns="http://www.w3.org/2000/svg" xmlns:xlink="http://www.w3.org/1999/xlink">
    <g id="Page-1" stroke="none" stroke-width="1" fill="none" fill-rule="evenodd">
        <g id="perma-rules" transform="translate(0.000000, -523.000000)">
            <g id="perma-rule-4" transform="translate(0.000000, 523.000000)">
                <path d="M121,60.5017709 C121,93.9155226 93.915626,121 60.5,121 C27.0896574,121 0,93.9155226 0,60.5017709 C0,27.0880192 27.0896574,-2.84217094e-14 60.5,-2.84217094e-14 C93.915626,-2.84217094e-14 121,27.0880192 121,60.5017709" id="Fill-29" fill="#91D6E3"></path>
                <path d="M86.6156954,80.4668422 C86.0861981,79.3093904 84.8398723,79.2110175 84.1345131,79.7907899 C83.3297537,80.4480048 82.7123254,81.726853 83.4234192,82.4008123 C84.1345131,83.0789577 84.6640104,83.2715175 85.4649467,82.9784917 C86.26206,82.691745 87.1490158,81.6284801 86.6156954,80.4668422 M85.1457191,81.8377842 C84.8819263,82.0429023 84.6926835,82.13081 84.5607871,82.1287169 C84.3963944,82.13081 84.2721442,82.0052275 84.1230438,81.6787131 C84.0886361,81.6012706 84.0752553,81.5363863 84.0752553,81.4777811 C84.0523168,81.1554528 84.5799025,80.86452 84.9794149,80.4521909 C84.9966188,80.4459118 85.0424958,80.4270744 85.117046,80.4270744 C85.2393847,80.4270744 85.4343621,80.4773074 85.6656587,80.7284724 C85.7937321,80.8666131 85.8396091,80.9754512 85.8396091,81.065452 C85.8529899,81.2601048 85.5796393,81.5070837 85.1457191,81.8377842" id="Fill-30" fill="#241F21"></path>
                <path d="M73.8569468,86.7777778 C73.4410756,86.7716857 73.0807911,86.4853583 72.8296213,86.214261 C72.5558051,85.9050883 72.1172874,85.4542748 72.1111111,85.056767 C72.1111111,84.9029422 72.1872855,84.7536864 72.4013975,84.6287989 C72.4075738,84.6287989 73.3628423,84.4170993 74.2337014,84.3455175 C74.3284048,84.3348564 74.4189906,84.3333333 74.5054589,84.3333333 C75.2445567,84.3333333 75.7695427,84.6044306 75.7777778,84.9790931 C75.7571901,85.3964001 74.9830931,85.7939079 74.521929,86.4198685 C74.3407574,86.6635514 74.1060578,86.7777778 73.8610643,86.7777778 L73.8569468,86.7777778 Z M73.072556,85.0278297 C73.0066754,85.0750433 72.9716763,85.1451021 72.9716763,85.2136379 C72.9757939,85.3278643 73.1013788,85.6263759 73.2701978,85.6294219 C73.3443134,85.6294219 73.4534282,85.6096227 73.5831306,85.554794 C73.996943,85.38117 74.2069374,84.9653859 74.3407574,84.8420215 C73.9784141,84.8572516 73.2269636,84.8968501 73.072556,85.0278297 L73.072556,85.0278297 Z" id="Fill-31" fill="#241F21"></path>
                <path d="M84.3071522,84.3474027 C84.3246063,84.4236498 84.3333333,84.5071585 84.3333333,84.5924826 C84.3211155,85.6835417 82.9020985,87.2284524 81.7518743,87.7966745 C81.4464279,87.9400916 81.1531993,88 80.8844064,88 L80.8756793,88 C80.0605736,87.9927384 79.4584077,87.477163 79.4444444,87.0196807 C79.4444444,86.9960804 79.4444444,86.9724801 79.4479353,86.9506952 C79.5753501,86.3588728 82.3627673,83.4977926 82.9788964,83.2018814 C83.1063112,83.141973 83.2302352,83.1111111 83.3506684,83.1111111 C83.8044746,83.1147419 84.1134119,83.5468086 84.3071522,84.3455873 L84.3071522,84.3474027 Z M82.9858781,84.2257705 C82.8986076,84.2838635 82.8253005,84.3419565 82.8270459,84.3419565 C82.3435678,84.8393778 81.0432385,86.2735487 80.8093538,86.596691 C80.7220834,86.7056154 80.6662303,86.8363246 80.6697211,86.887156 C80.6784482,86.9198333 80.6697211,86.9107563 80.7255742,86.9216487 C80.8268079,86.9252795 81.0572018,86.8508479 81.4359554,86.6402608 C82.4692372,86.0665924 83.224999,85.1334736 83.3384506,84.6015596 C83.3646317,84.4726658 83.3768495,84.3728184 83.3768495,84.2983868 C83.3646317,84.1132153 83.3384506,84.1222924 83.2738704,84.1113999 L83.2668888,84.1113999 C83.1918362,84.1113999 83.0783847,84.1676775 82.9858781,84.2257705 L82.9858781,84.2257705 Z" id="Fill-32" fill="#241F21"></path>
                <path d="M75.9392654,68.8761252 C76.4211188,70.3063295 77.4735423,72.5084774 78.193713,73.6856456 C78.7834181,74.6501167 79.4444444,75.7374387 79.4444444,76.8742678 C79.4444444,77.1291375 79.4113931,77.3913416 79.3331137,77.6498786 C78.9260606,79.0104062 77.9658329,81.7956375 77.1360709,82.7601086 C76.412421,83.5907272 75.925349,84.3296661 74.9581631,84.3333333 C74.8555301,84.3333333 74.752897,84.325999 74.6415663,84.3094966 C73.4656352,84.1169691 70.2666157,81.0401962 67.6816549,81.045697 C67.3076531,81.045697 66.9475677,81.1117064 66.6083568,81.2583941 C65.4863516,81.738796 62.4369328,83.2918512 60.5930172,83.2955184 C60.3529603,83.2955184 60.1268197,83.2680145 59.9337304,83.2075058 C58.2672483,82.672096 57.4601003,80.6331381 57.4531422,79.9107015 C57.4531422,79.7640139 57.4444444,79.5384817 57.4444444,79.256108 C57.4444444,78.2256275 57.5453379,76.4433729 58.519482,75.1176835 C59.7493389,73.4454446 62.4177978,71.7071963 63.0457728,70.9645902 C63.7207155,70.1743106 65.2584715,69.6719055 65.9108001,69.4995476 C66.4918075,69.3711959 67.1667501,67.9024861 68.5079378,67.7191265 C69.7969391,67.5504358 69.9430607,67.4715912 70.4266537,67.3010668 C70.5605985,67.2515597 70.684106,67.2222222 70.7971763,67.2222222 C71.0424519,67.2222222 71.2216248,67.4074153 71.2216248,67.7594656 C71.2216248,67.8731485 71.2077085,68.0051674 71.1798758,68.1591894 C71.0546287,68.795447 70.6771479,69.6499024 70.6788874,70.2256513 C70.6788874,70.431014 70.7275946,70.5942039 70.8337067,70.7060532 C71.1189918,71.0067629 71.433849,71.1772872 71.6634687,71.1754536 C71.8095903,71.17362 71.9157025,71.1167786 71.9992005,70.9774253 C72.2514342,70.5520312 73.6743804,67.8548126 74.4606538,67.4715912 C74.650264,67.3854122 74.8016042,67.3304043 74.9494654,67.3304043 C75.4017466,67.3469067 75.5809195,67.8126399 75.9392654,68.8761252 M74.7685529,82.7949469 C74.852051,82.8334524 74.9355491,82.8517884 75.0225262,82.8517884 C75.7705297,82.8737915 76.7707669,81.3995809 77.4074396,80.0390532 C77.9745306,78.8490499 78.3885419,77.7690622 78.3885419,76.7679192 C78.3885419,76.4892127 78.3589696,76.2196742 78.2876484,75.9519693 C77.9745306,74.7069581 76.9290653,73.1814069 76.4472119,72.510311 C75.9584003,71.8245464 75.0903684,69.1144925 74.8433533,68.7202696 C74.8311765,68.7349383 74.8155206,68.7569415 74.7981252,68.7844454 C74.7546366,68.854122 74.7059294,68.9604705 74.650264,69.0888222 C74.5389333,69.3510263 74.4084675,69.7085774 74.265825,70.0899652 C73.9822795,70.8545745 73.6656827,71.7090299 73.3386486,72.0940849 C73.0672799,72.414964 72.7402458,72.5543173 72.3871186,72.5543173 C71.8617766,72.5524837 71.2859879,72.260942 70.6527943,71.8538839 C69.6995247,71.2414631 69.386407,70.344835 69.3898861,69.6590703 C69.3898861,69.5692242 69.3933651,69.4812116 69.4072815,69.4042006 C69.4107606,69.3455256 69.4142397,69.2978521 69.4142397,69.2538458 C69.3985838,68.9678049 69.3272625,68.949469 69.0941637,68.9329666 C68.9654376,68.9329666 68.7967019,68.9604705 68.6088313,68.9898081 C68.1217592,69.0411487 67.3615789,70.3026623 66.8849442,70.9865933 C66.6675013,71.2891365 66.4813702,71.4174882 66.2813228,71.4174882 C66.0343077,71.413821 65.8377393,71.2322951 65.5698497,71.096609 C65.5194029,71.0672715 65.4637376,71.0562699 65.3958954,71.0562699 C64.9505724,71.0452684 64.1660385,71.7126971 63.4058582,72.5213126 C62.5065145,73.4619469 61.0105075,74.4924275 59.8589301,76.0656522 C59.1387593,77.0502929 58.8221625,78.0386008 58.8221625,79.0745821 C58.8221625,79.6906701 58.9334932,80.3250941 59.1457175,80.9833548 C59.3840349,81.7314616 59.9389491,81.9148212 60.563445,81.920322 C60.9583213,81.920322 61.3705929,81.8396438 61.7185015,81.7736343 C62.5708776,81.6159451 64.7574831,80.1288994 66.6396686,79.6576654 C67.0032331,79.5659856 67.3737557,79.5256465 67.7425389,79.5256465 C70.8597999,79.5256465 73.9996749,82.4337286 74.7685529,82.7949469" id="Fill-33" fill="#241F21"></path>
                <path d="M77.2792129,65.9235667 C76.5208984,65.6729365 75.9295196,65.2534419 75.5086284,64.7468489 C75.3985219,64.6206451 75.2848635,64.5744296 75.1676533,64.5726521 C74.8799555,64.569097 74.5443081,64.8926055 74.4999103,65.2018939 C74.4413052,65.5467326 74.121641,65.7173744 73.6634557,65.7138194 C73.352671,65.7138194 72.9637463,65.6462737 72.4984573,65.5147373 C71.3032684,65.171676 70.9569655,64.1460474 70.7918057,63.4865878 C70.6532845,62.8946739 69.9624547,62.7275871 69.2254512,62.7275871 C68.3836688,62.6991468 67.9201557,61.3571198 67.3429842,60.642557 C67.26662,60.5394609 67.2222222,60.4523625 67.2222222,60.361709 C67.2559646,60.0648633 67.6040433,60.0488656 68.0391418,60.039978 C68.6340724,60.039978 69.4794066,60.1412966 70.2128583,60.1839571 C70.2128583,60.1821796 70.5325225,60.1839571 71.351218,60.0186478 C71.7099523,59.947547 72.0438238,59.8888889 72.3617121,59.8888889 C72.7772755,59.8888889 73.1733039,59.991985 73.5604528,60.2817206 C74.2015571,60.7598733 75.2653285,61.0904919 76.2580634,61.4193329 C77.2934202,61.7606166 77.6343953,62.628046 78.0428551,64.1833753 C78.165393,64.6490854 78.2222222,65.0099218 78.2222222,65.2818822 C78.2222222,65.7493698 78.0197682,65.9982225 77.6841208,66 C77.5615829,66 77.4266136,65.9715597 77.2792129,65.9235667 M73.7238367,61.981029 C72.2196391,61.3126818 72.4114376,61.0851593 71.4506691,61.0851593 C70.4490546,61.0851593 69.530908,60.8363066 69.1402074,60.8380747 C68.8684928,60.8416392 68.8542855,60.9020748 68.8542855,60.9074074 C68.824095,61.0353888 69.5078212,61.5082089 69.511373,61.5064314 C69.7848635,61.6610756 70.0565781,61.700181 70.3478276,61.700181 C70.6390772,61.700181 70.948086,61.6610756 71.2872852,61.6610756 C72.0455997,61.6841833 72.0242887,62.5658328 72.3492807,63.3532739 C72.5961325,63.9754056 72.7612923,64.4002327 73.0756287,64.3860125 C73.191063,64.3860125 73.3473433,64.3380195 73.5497973,64.2171482 C74.2619381,63.7994312 74.7734008,63.1044212 75.3541241,63.090201 C75.435816,63.090201 75.5210598,63.1079762 75.6045277,63.1453041 C76.0165393,63.3212785 76.7091451,63.9771831 77.1158289,64.3860125 C76.8370107,63.785211 76.3113407,62.7524724 75.941951,62.5516127 C75.4269365,62.2423243 75.2280343,62.6404887 73.7238367,61.981029" id="Fill-34" fill="#241F21"></path>
                <path d="M59.4871238,62.8971585 C58.9574112,62.4417389 58.6666667,61.7389939 58.6666667,61.0584229 C58.6666667,60.5023674 58.8618239,59.956546 59.2999321,59.5812938 C60.2199593,58.7898529 60.5983254,58.6585146 61.8907445,58.6670431 C62.3447839,58.6670431 62.7390812,58.6670431 63.025843,58.6875114 C63.2986649,58.7182138 63.5157275,58.7165081 63.5555556,58.9075456 C63.5356415,59.0508237 63.3902693,59.1344026 63.1114732,59.2862092 C62.3766463,59.6426987 61.6916044,59.818385 61.7354153,60.0367135 C61.7354153,60.1049412 61.7871917,60.2072827 61.9305725,60.3471494 C62.3049559,60.7104618 62.4801991,60.9816667 62.4801991,61.2562831 C62.4801991,61.4626718 62.3786377,61.6502979 62.2153428,61.860098 C61.8190541,62.3496315 61.0105454,62.7589975 61.028468,63.154718 C61.028468,63.3730465 60.9129667,63.5555556 60.6739986,63.5555556 C60.3892283,63.5504385 60.014845,63.3423441 59.4871238,62.8971585 M60.4190993,59.5369459 C60.0725956,59.8235021 59.9232406,60.3317982 59.925232,60.8213317 C59.9232406,61.228992 60.0287848,61.6247125 60.1880969,61.8566866 C60.2498303,61.9504996 60.2996153,62.0170216 60.3274949,62.0494298 C60.3414347,62.0289615 60.3593573,61.998259 60.3832541,61.9658509 C60.4390134,61.8737435 60.5346006,61.7577565 60.7018783,61.6724719 L60.7018783,61.6707662 C61.068296,61.500197 61.4665761,61.3773872 61.4287395,61.2596945 C61.4287395,61.2153465 61.3889115,61.1283562 61.2415479,61.0055464 C60.8771215,60.6934048 60.6122652,60.3761462 60.6102738,60.0520648 C60.6102738,59.8763785 60.6978955,59.7041036 60.8731387,59.5574142 C61.0025798,59.4431328 61.0503734,59.342497 61.0503734,59.2930319 C61.0424078,59.2503896 61.048382,59.248684 60.9766916,59.2401555 L60.9727088,59.2401555 C60.8791129,59.2401555 60.6700158,59.3186173 60.4190993,59.5369459" id="Fill-35" fill="#241F21"></path>
                <path d="M53.321243,63.5605038 C54.2487008,63.6182336 55.7108566,64.0701754 56.1075052,64.9328235 C56.1813907,65.0977658 56.2222222,65.242915 56.2222222,65.3699205 C56.1988899,65.9208277 55.5008661,65.9983506 53.976491,66 C53.9667692,66 53.9570474,66 53.9473256,66 C52.0457454,66 51.6918726,65.7822762 50.6244211,65.2792023 C50.2802701,65.1175589 50.1111111,64.9344729 50.1111111,64.7398411 C50.1344434,64.302744 50.8480221,63.9910031 51.4818821,63.7683311 C51.4857708,63.7683311 52.240181,63.5555556 53.070421,63.5555556 C53.1540284,63.5555556 53.2376357,63.5588544 53.321243,63.5605038 M51.213561,64.6870595 C51.0871779,64.8206628 51.3477216,64.8618983 51.557712,64.9245764 C51.8979743,65.0317889 52.4501715,65.0037487 53.0412557,65.0037487 C53.2376357,65.0037487 53.4320713,64.997151 53.6070633,64.9839556 C54.0173224,64.965812 54.2039806,64.8190133 54.2039806,64.8025191 C54.2039806,64.8025191 54.0600983,64.591393 53.7567787,64.5551057 C53.0257009,64.4495427 52.065189,64.4099565 51.923251,64.4099565 C51.4138297,64.4379967 51.213561,64.6821113 51.213561,64.6870595 C51.213561,64.6870595 51.3224449,64.5715999 51.213561,64.6870595" id="Fill-36" fill="#241F21"></path>
                <path d="M58.2937413,57.710221 C57.9435158,57.9497695 57.599776,58.2277857 57.6046402,58.5495152 C57.6046402,58.6491814 57.6354471,58.7593387 57.7148964,58.8887299 C57.8640665,59.1457638 57.9564871,59.54268 57.9564871,59.9780639 C57.9564871,60.6302655 57.7392176,61.371642 57.13443,61.7475759 C56.4874856,62.1427436 56.4923499,62.3245907 56.1502314,62.3333333 C56.0043041,62.3333333 55.8145986,62.3018598 55.4805872,62.2441583 C53.1506147,61.8262597 52.5555556,59.7804801 52.5555556,59.2576697 C52.5717697,58.6963917 53.3338345,57.9707519 54.1818343,56.9950723 C55.0346983,56.0281354 55.741635,55.2063265 56.5799063,55.0314735 C56.6901624,55.0087426 56.7987972,55 56.8960821,55 C57.5446479,55 57.9175732,55.4476236 58.3050912,55.8620251 C58.546682,56.1208075 58.6650453,56.4897473 58.6666667,56.8394532 C58.6666667,57.1909076 58.546682,57.5248768 58.2937413,57.710221 M55.4027594,57.8501033 C54.9455205,58.5617549 54.3747826,59.0058814 53.7018956,59.1737403 C53.429498,59.2436814 53.3646414,59.3433476 53.36302,59.4552535 C53.3565343,59.6143697 53.5332685,59.8749007 53.7845877,60.1109522 C54.1672415,60.4816404 55.3687096,60.7998728 56.0399752,60.7946272 C56.0934819,60.7946272 56.1453672,60.7946272 56.187524,60.7893817 C56.5685564,60.750914 56.6804339,60.5183596 56.688541,60.1092036 C56.688541,59.8836433 56.6431414,59.6143697 56.575042,59.3311079 C56.5166711,59.0985535 56.4858642,58.8642505 56.4858642,58.6421873 C56.4858642,58.066921 56.6820554,57.5423621 57.1052445,57.2503577 L57.106866,57.2503577 C57.2836001,57.1279606 57.3419711,56.9898267 57.3419711,56.8604355 C57.3468353,56.6103958 57.1052445,56.3481164 56.8766251,56.3201399 C56.8766251,56.3183914 56.8733823,56.3183914 56.8620324,56.3183914 L56.8490611,56.3183914 C56.5199139,56.3183914 55.8243271,57.1786679 55.4027594,57.8501033" id="Fill-37" fill="#241F21"></path>
                <path d="M48.057467,58.0664457 C48.3393397,58.5930684 49.3379745,59.4647818 49.842124,60.0794746 C50.0370189,60.3221164 50.1078897,60.7894267 50.1111111,61.30886 C50.0933934,62.3009957 49.8598417,63.508813 49.2912642,63.5555498 C48.5600058,63.5573414 48.1847124,63.1403568 47.6386846,62.4789331 C47.0878248,61.8103199 45.5431623,59.7667361 44.7957969,58.8267236 C44.3270828,58.233599 44.0033318,57.6854081 44.0000543,57.1965297 C43.996889,56.8999674 44.1321879,56.628568 44.41245,56.4344545 C44.6186197,56.28168 44.8135146,56.2187728 45.0003559,56.2223675 C45.4642379,56.2277595 45.8556383,56.5800396 46.5208579,56.8118974 C47.4743931,57.1426093 47.7562658,57.503876 48.057467,58.0664457 M48.9530169,62.0080281 C49.1479117,62.0062307 49.2799892,61.8175093 49.2832107,61.5299337 C49.2832107,61.2369661 49.1334154,60.8703073 48.7532899,60.6132867 C48.3441718,60.3364952 47.8496865,60.2286544 47.3858045,59.5995829 C46.9219226,58.9525379 46.8719908,58.1023927 46.1713358,57.7968436 C45.5866512,57.5344309 45.312832,57.2774103 45.1694796,57.2881944 C45.1276013,57.2899917 45.0953873,57.3007758 45.0454556,57.3439121 C45.0019666,57.3834538 44.9939131,57.4122113 44.9939131,57.4481583 C44.9810275,57.5685805 45.1920294,57.7644914 45.221022,57.804033 C45.404642,58.4259151 46.1455645,59.0406079 46.849441,59.7631415 C47.5517068,60.4946618 48.1428341,61.6485587 48.7710076,61.9594997 C48.8370464,61.991852 48.9014744,62.0080281 48.9530169,62.0080281" id="Fill-38" fill="#241F21"></path>
                <path d="M60.372987,20.7777778 C32.1719222,20.7777778 21.6773118,43.9148683 22.0075309,61.6780121 C22.3342183,79.441156 38.8910864,98.6691194 61.5190416,98.9956154 C84.1469968,99.3203465 100.048724,81.5572026 101.360771,62.4916047 C102.671052,43.4260068 88.5740518,20.7777778 60.372987,20.7777778 M59.0644717,22.4879106 C59.5960009,22.4632028 60.1345936,22.449084 60.6749521,22.449084 C64.1890485,22.449084 67.8391174,22.976772 71.4256147,23.9950864 C71.4273806,24.0621504 71.4344441,24.1327441 71.4415076,24.2068675 C71.4468053,24.3109933 71.450337,24.4274729 71.450337,24.5404229 C71.450337,24.7945602 71.4273806,25.0504625 71.3797019,25.2393006 C71.3302574,25.4316685 71.2507929,25.516381 71.2101777,25.5040271 C71.1836895,25.5040271 71.1395426,25.4916732 71.0812686,25.4404927 C70.7475178,25.1828257 70.6556921,24.1168606 69.8363249,24.100977 C69.6809277,24.100977 69.5043399,24.1398035 69.301264,24.235105 C68.1057649,24.7716173 66.6842335,25.1510585 65.7906994,25.7616941 C65.0490308,26.2646744 64.6040297,26.9812006 64.6075614,27.9659829 C64.6075614,28.1689399 64.6216885,28.3860155 64.6640695,28.6101506 C64.8229985,29.5419876 65.3721864,30.4861786 65.3686547,31.3068306 C65.3686547,31.6580343 65.2750632,31.9810005 65.0066498,32.2933777 C64.2861717,33.1493265 63.2601969,34.0635152 62.6686279,34.0493964 C62.5114648,34.0493964 62.393151,33.9999808 62.2942618,33.8711473 C62.0382096,33.537592 61.7609668,33.3293405 61.3989619,33.3293405 C60.978683,33.3293405 60.4824714,33.5958318 59.7725887,34.1835245 C58.5029227,35.2318412 57.8248257,36.2148587 57.8265916,37.9955852 C57.8265916,38.0661789 57.8265916,38.1385374 57.8318892,38.2161905 C57.8336551,38.3626725 57.8371868,38.5056248 57.8371868,38.6468122 C57.8336551,40.323413 57.5228606,41.6064538 56.4280165,42.99715 C55.3084502,44.4249079 54.0211254,46.1597485 52.9563012,46.1421 C52.8821344,46.1421 52.8097334,46.1332758 52.7373324,46.1173922 C51.9780051,45.9479673 51.1957213,45.6867706 50.6165135,45.681476 C50.2845285,45.6797112 49.9984563,45.7750127 49.8607179,46.052093 C49.6028997,46.5656623 49.0660729,47.5539743 49.0643071,48.4328661 C49.0643071,48.6675902 49.1031564,48.9005495 49.2038114,49.1105658 C49.641749,50.0371083 50.4046081,51.2936765 50.507029,52.0207917 C50.5158584,52.0896206 50.5229219,52.163744 50.5229219,52.2290432 C50.5229219,52.3967033 50.4911361,52.5555391 50.4487551,52.6631946 C50.4081399,52.77085 50.3498659,52.8061468 50.3445683,52.8026171 C50.3445683,52.8026171 50.2280204,52.8255601 50.1132383,52.7761445 C49.987861,52.7284937 49.9295871,52.4496486 49.8995672,52.1743331 C49.7635946,51.0995437 49.4051214,50.2594785 48.7517467,50.2400652 C48.5769249,50.2400652 48.3402973,50.400666 48.156646,50.5365589 C47.7187084,50.86129 47.4732514,51.0360094 47.1553934,51.0307149 C46.9064047,51.0307149 46.713924,50.8489361 46.6803723,50.1059372 C46.6468207,48.4946356 46.5938443,48.1204889 45.3700912,47.6986915 C44.2240366,47.2945424 43.0620892,44.9667146 42.5146672,44.1972431 C42.2303609,43.8019183 41.7023635,43.5707239 41.117858,43.5707239 C40.4803762,43.5654294 39.7687275,43.8478042 39.214242,44.5166797 C38.1617789,45.7838369 36.632529,49.3170524 36.1469126,50.0653458 C35.8661381,50.5330292 35.3928829,51.5248709 35.2551445,51.4719256 C35.2463151,51.4719256 35.1686165,51.4330991 35.1191719,51.1666078 C35.0714932,50.9160001 35.0414733,50.4942026 35.0414733,49.8623889 C35.0414733,48.6781793 35.0785567,47.7798742 35.0785567,47.0986449 C35.0820885,45.9497321 34.9690723,45.367334 34.3280587,45.1414341 C33.4292271,44.8343514 32.6151575,43.9078089 32.5250977,43.4648333 C32.4138475,42.9777367 31.901743,42.0388403 30.8616411,42.0335457 C30.8033671,42.0335457 30.746859,42.0353106 30.6850533,42.0441348 C29.5831457,42.1464957 29.0992953,42.446519 28.3894125,43.378356 C27.9408796,43.9642839 26.6853406,46.2144586 25.8076995,47.8204656 C29.8109439,31.0685768 44.6407838,23.1550212 59.0644717,22.4879106 M62.3419405,96.1400995 C59.7619934,95.9724395 57.1661534,95.6282951 54.6109285,95.0935477 C55.3649582,94.8711775 57.2632766,94.2870145 57.8689726,93.9534592 C57.9396077,93.9146326 58.0137746,93.8969842 58.1038344,93.8969842 C58.8260783,93.8811006 60.1063395,95.1729656 61.109358,95.1853195 C62.175948,95.1870844 62.3013253,95.1764953 64.0142266,94.3629027 C64.7417681,94.0169935 65.1549835,93.9146326 65.4233969,93.9146326 C65.7854018,93.911103 65.9319696,94.0981763 66.3345897,94.2058317 C66.7584003,94.3011332 67.0215161,94.7088119 67.5265571,94.7176362 C67.7419941,94.7176362 67.9839194,94.6382182 68.2858844,94.438791 C68.6408258,94.2058317 68.9198345,94.1264138 69.1511644,94.1264138 C69.5520186,94.1264138 69.8486861,94.3593731 70.1718417,94.5252683 C70.4172987,94.6382182 70.6362675,95.0847235 70.7775377,95.4482811 C68.5542978,95.9371426 66.3257603,96.1983394 64.1360721,96.1983394 C63.5374396,96.1983394 62.9388071,96.1806909 62.3419405,96.1400995 M88.1484753,86.147559 C83.6401899,90.3778875 78.215414,93.404593 72.6528997,94.9717735 L72.6370068,94.9611845 C72.6370068,94.9576548 72.1407952,94.5499761 71.1554355,93.8969842 C70.3908105,93.3904743 70.1594805,92.8963183 69.3489427,92.8892589 C69.1476327,92.8892589 68.912771,92.9192612 68.6319964,92.9880901 C68.3441584,93.0551541 68.1128284,93.0816268 67.9203478,93.0816268 C67.2086991,93.0798619 67.0638971,92.7074801 66.64715,92.4303998 C66.5517926,92.3668654 66.431713,92.3439225 66.2939745,92.3439225 C65.5258178,92.3474521 64.0601394,93.0392706 63.2937485,93.3163509 C62.666862,93.5440156 61.9234275,93.8440389 61.2753505,93.8422741 C60.9910442,93.8422741 60.7296943,93.787564 60.4965985,93.6481414 C59.8520531,93.270465 59.4317743,92.6315918 58.3934383,92.6315918 C58.1532789,92.6280622 57.8795679,92.6615942 57.5652417,92.742777 C56.2867463,93.0622135 52.9827894,93.9693428 51.5771509,94.3558434 C38.0364016,90.6002577 26.3074428,80.8018498 24.8753161,60.5326291 C24.8099786,59.5937326 24.776427,58.6830737 24.7640658,57.7865335 C25.2797021,54.8286568 26.5440704,48.8370151 28.684314,46.1421 C29.853325,44.6437484 29.5672528,43.8813363 30.285965,43.9148683 C31.1812649,43.8742769 30.9746572,45.4379277 31.8734889,45.7838369 C32.7334713,46.0803305 33.4963304,45.8685494 33.5104574,47.3368987 C33.5104574,48.0375413 33.473374,49.2835204 33.473374,50.4712597 C33.4804375,51.8672504 33.5069257,53.1397021 33.747085,53.4714926 C33.9483951,53.7273948 34.2062132,54.0080049 34.5664522,54.0115345 C34.8984372,54.0115345 35.2586762,53.7697511 35.6842527,53.1397021 C36.5618939,51.8301887 38.2571363,48.4028638 38.9599556,47.4392596 C39.5073777,46.6697881 40.3567648,45.1732013 41.0348618,45.1996739 C41.2202789,45.1996739 41.4127596,45.30027 41.6105378,45.5932339 C42.5411553,46.9451035 43.0850456,47.9828312 43.9291351,48.5475809 C44.7891175,49.1264494 45.0734238,48.5987613 45.4248334,51.0960141 C45.762116,53.6038558 46.1735655,55.9210946 46.7633686,56.4699607 C47.3107906,56.960587 47.4396997,57.0258862 48.0930744,57.3506173 C48.3138091,57.4582727 48.5186509,57.5218071 48.6881751,57.5218071 C48.84887,57.5218071 49.0060331,57.4318001 49.0060331,57.2553158 C49.0025014,57.0647128 48.8735923,56.8211644 48.5769249,56.4629013 C47.7716847,55.5098862 47.4467632,53.9991806 47.4467632,53.2032365 C47.4485291,52.4019978 47.6604344,52.0578534 47.897062,51.916666 C47.9641653,51.8778395 48.0506933,51.8513668 48.1354555,51.8513668 C48.3367655,51.8566614 48.5522026,51.9713761 48.5963495,52.4496486 C48.6440282,53.0955811 48.9195051,54.0115345 49.7759557,54.0203588 C49.8660155,54.0203588 49.959607,54.0115345 50.0584961,53.9885916 C51.084471,53.7644565 51.6583812,52.9102726 51.6530836,52.0102027 C51.6513177,51.0942492 50.7136367,49.6894343 50.3304413,49.0346775 C50.1203019,48.6746496 49.873079,48.1169592 49.8748449,47.760461 C49.8889719,47.5257369 49.9437141,47.4163166 50.2068299,47.4057275 C50.2509768,47.4057275 50.2986555,47.4074924 50.3569294,47.4163166 C50.8884586,47.5063236 51.6672106,47.6598649 52.426538,47.6598649 C53.0763809,47.6598649 53.7156286,47.5504447 54.1924155,47.1851222 C55.1883705,46.412121 57.9731594,43.4860114 58.916138,41.4493827 C59.4406037,40.3145887 59.6030644,39.6527727 59.6030644,39.0491964 C59.6030644,38.5868075 59.507707,38.1685398 59.4123496,37.6020252 C59.392925,37.4678971 59.3805638,37.3355339 59.3805638,37.2067004 C59.3770321,36.1283814 60.1381253,35.2883161 60.7614801,35.2530193 C60.8232858,35.2477248 60.8833256,35.2459599 60.936302,35.2459599 C61.5472956,35.2512544 61.8051137,35.4842137 62.1053129,35.9730752 C62.262476,36.2378016 62.5149965,36.4036969 62.7869417,36.4036969 C63.1153949,36.4036969 63.4350187,36.154854 63.6204359,35.6324605 C63.9382938,34.7341555 64.5810733,34.1994081 65.622941,33.1087352 C66.3716731,32.3216152 67.1257029,31.7215686 67.1292346,30.7773777 C67.1292346,30.4297036 67.0250478,30.0396733 66.7831226,29.5914032 C66.2498276,28.6030912 65.7041714,27.953629 65.7147667,27.5671284 C65.7147667,27.3306395 65.8931203,27.1312122 66.5164751,26.9370795 C68.1057649,26.4464532 68.8792193,26.0652471 69.2571171,25.9028816 C69.3065617,25.8799386 69.3507086,25.8711144 69.3930897,25.8693496 C69.6067608,25.8552308 69.8398567,26.1852564 70.2513062,26.7464765 C70.5462077,27.1312122 70.8993832,27.3641715 71.2349,27.3659363 C71.4874205,27.369466 71.7187504,27.2265138 71.8670841,26.9511983 C72.2078985,26.2946767 71.8317666,25.2393006 72.5098636,24.5810142 C72.5787328,24.5121854 72.6511338,24.4451213 72.7182371,24.381587 C86.3402167,28.7160412 98.7808242,40.2634083 99.6390407,57.9330155 C99.6690606,58.5542402 99.6831876,59.1684055 99.6831876,59.7755115 C99.6831876,70.6575328 94.9559334,79.7605925 88.1484753,86.147559" id="Fill-39" fill="#241F21"></path>
                <path d="M59.7067778,43.2595832 C59.8057778,43.3835563 59.84,43.53329 59.84,43.6814137 C59.84,43.9438503 59.7544444,44.214337 59.7568889,44.4671133 C59.7568889,44.5089744 59.7581111,44.5524455 59.763,44.5926965 C59.7715556,44.6619282 59.774,44.7279399 59.774,44.7826812 C59.774,45.0596082 59.6566667,45.2222222 59.5026667,45.2222222 C59.4647778,45.2222222 59.4244444,45.214172 59.3853333,45.1996817 C59.2081111,45.1401102 59.1311111,45.2351025 58.8903333,44.8503029 C58.7571111,44.6426077 58.7155556,44.2626382 58.7155556,43.8842788 C58.7204444,43.4463478 58.7632222,43.0357876 58.8732222,42.8892739 C58.9367778,42.811992 59.0137778,42.773351 59.0883333,42.7781811 C59.3022222,42.7814012 59.51,43.0212972 59.7067778,43.2595832" id="Fill-40" fill="#241F21"></path>
                <path d="M63.8092456,39.6354372 C63.6326022,39.4058185 63.5555556,39.1454635 63.5555556,38.8851085 C63.5555556,38.501808 63.7209239,38.1239316 63.9896474,37.8328402 C64.6962211,37.0752794 66.8441301,35.1587771 67.5450663,34.5711703 C67.8419776,34.3216634 68.0749966,34.2222222 68.2741902,34.2222222 C68.5598264,34.2222222 68.7120405,34.4482249 68.7627785,34.6416831 C68.8304291,34.9038462 69.6647875,35.9796187 69.6666667,36.950526 L69.6666667,37.0011506 C69.5858617,38.069691 66.0793016,39.7475345 65.1359505,40.1651874 C64.8597103,40.2772847 64.6661542,40.3333333 64.5139401,40.3333333 C64.1080361,40.3170611 64.0854859,39.9771532 63.8092456,39.6354372 M64.9273609,38.9465812 C64.9348777,38.9520053 64.9273609,38.9465812 64.9818573,38.9556213 C65.028837,38.9556213 65.100246,38.9465812 65.1960845,38.9230769 C65.8312491,38.7730112 67.8588903,37.6628863 68.2272106,37.0662393 C68.4489545,36.7172913 68.5222427,36.5129849 68.5184844,36.3593031 C68.5184844,36.2363577 68.4733839,36.1278764 68.3963373,35.9796187 C68.3399617,35.8675214 68.3042572,35.8602893 68.2929821,35.8602893 C68.2572776,35.8440171 68.0731174,36.0157791 67.8100314,36.2797502 C67.3928523,36.6757068 65.9120541,37.7876397 65.3389026,38.3915187 C65.1190379,38.6139053 64.9142066,38.8851085 64.9273609,38.9465812" id="Fill-41" fill="#241F21"></path>
                <path d="M70.0366021,30.6429129 C69.7591598,30.5914344 69.5236333,30.5555556 69.2781268,30.5555556 C68.9368129,30.5555556 68.5835231,30.6195136 68.0625703,30.7879884 C67.5356295,30.9564632 67.2182675,31.1920159 67.2222594,31.543005 C67.2222594,31.6834007 67.2701631,31.8378359 67.3619786,32.0109906 C67.6533928,32.5569737 68.1224499,33 68.8350175,33 C68.8909052,33 68.9467928,32.9968801 69.0066725,32.9937602 C69.7871037,32.9157626 70.3020685,32.5086152 70.707254,32.0234702 C70.8330012,31.8752748 70.8888889,31.7068 70.8888889,31.543005 C70.8888889,31.1342977 70.545579,30.7380699 70.0366021,30.6429129 M69.240203,31.8830745 C69.2002833,32.0094306 69.0984879,32.1077076 68.9447968,32.1077076 C68.763162,32.1030277 68.6094709,31.9907112 68.429832,31.8113167 C68.3020888,31.6802808 68.2222493,31.6210026 68.2142653,31.5227257 C68.2462011,31.3667305 68.4018882,31.3636106 68.6374147,31.2497341 L68.6633626,31.2434943 C68.6653586,31.2434943 68.912861,31.1935758 69.086512,31.1920159 C69.2920987,31.220095 69.2960907,31.3698504 69.3040746,31.510246 C69.3040746,31.6272424 69.2781268,31.7629582 69.240203,31.8830745" id="Fill-42" fill="#241F21"></path>
            </g>
        </g>
    </g>
</svg>