
<svg style="scaling-svg" viewBox="0 0 316 160" version="1.1" xmlns="http://www.w3.org/2000/svg" xmlns:xlink="http://www.w3.org/1999/xlink">
    <g id="Page-1" stroke="none" stroke-width="1" fill="none" fill-rule="evenodd">
        <g id="A2" transform="translate(-1574.000000, -1189.000000)">
            <g id="Chuyển-dịch-dân-số-Copy" transform="translate(1574.000000, 1189.000000)">
                <rect id="Rectangle" x="0" y="0" width="316" height="160"></rect>
                <polygon id="Line-8" fill="#3d1818" fill-rule="nonzero" points="136.378916 14.5 139.5 16.6565863 139.5 17.5281618 136.378916 19.6761908 134.7617 19.6761908 137.506046 17.592374 110.493029 17.592374 113.422861 19.6761908 111.685997 19.6761908 108.5 17.5281618 108.5 16.6565863 111.685997 14.5 113.422861 14.5 110.493029 16.592374 137.506046 16.592374 134.7617 14.5"></polygon>
                <polygon id="Line-8-Copy" fill="#3d1818" fill-rule="nonzero" points="165.879256 114.5 168.5 116.592374 168.5 117.592374 165.879256 119.676191 164.593186 119.676191 166.854258 117.592374 110.485563 117.592374 113.404421 119.676191 111.674064 119.676191 108.5 117.528162 108.5 116.656586 111.674064 114.5 113.404421 114.5 110.485563 116.592374 166.854258 116.592374 164.593186 114.5"></polygon>
                <g id="Group-25" transform="translate(28.500000, 6.000000)">
                    <polygon id="Polygon" fill="#C4FF96" points="112 19.9196697 172.675392 103.52 141.382037 103.68 79.7118215 19.9196697"></polygon>
                    <line x1="79" y1="19.5" x2="79" y2="104.5" id="Line-9" stroke="#3d1818" stroke-width="1.5" stroke-linecap="square" stroke-dasharray="3,3"></line>
                    <path id="Line-2" d="M14.3862085,21.2205825 C14.5554435,20.866892 14.967418,20.7233398 15.3063794,20.8999496 C15.4391752,20.9691405 15.5468845,21.0814079 15.6133402,21.2199004 L15.6133402,21.2199004 L20.6831504,31.7853012 C20.8527785,32.1388033 20.715666,32.5688492 20.3769012,32.7458357 C20.2816757,32.7955859 20.1766565,32.8215174 20.0701603,32.8215766 L20.0701603,32.8215766 L15.755,32.824 L15.7967979,105.691715 C15.7970281,106.105929 15.4614284,106.441902 15.0472149,106.442132 C14.6675192,106.442343 14.3535672,106.160363 14.3037013,105.794315 L14.2967981,105.692549 L14.255,32.824 L9.94228734,32.8272055 C9.5949986,32.8273986 9.30783615,32.5582655 9.26221823,32.2089019 L9.25590199,32.1117737 C9.25584023,32.0006473 9.28057439,31.8910332 9.3281457,31.7916122 L9.3281457,31.7916122 Z" fill="#3d1818" fill-rule="nonzero"></path>
                    <path id="Line-2-Copy-3" d="M90.3257743,55.3646115 L90.4356218,55.3700997 L102.06287,56.8322087 C102.4519,56.8811287 102.718171,57.2267149 102.657604,57.6040972 C102.633875,57.7519453 102.561353,57.8895891 102.450923,57.9963683 L102.450923,57.9963683 L94.0263902,66.1424046 C93.7445182,66.4149585 93.2931788,66.4206238 93.0182954,66.1550585 C92.9410268,66.0804092 92.8832668,65.9889473 92.8495898,65.8879161 L92.8495898,65.8879161 L91.485,61.794 L63.2371708,71.2115125 C62.8442133,71.3424983 62.4194734,71.1301283 62.2884875,70.7371708 C62.1684172,70.3769598 62.3368611,69.9900426 62.6684462,69.8271655 L62.7628292,69.7884875 L91.01,60.372 L89.6468746,56.2797707 C89.5379599,55.9530265 89.6990605,55.5987678 90.0110289,55.4431317 L90.1090263,55.4026257 C90.2144501,55.3674844 90.326267,55.3563485 90.4356218,55.3700997 Z" fill="#FF0000" fill-rule="nonzero"></path>
                    <path id="Line-2-Copy-2" d="M201.369653,127.773748 C201.48078,127.773499 201.590435,127.798049 201.689936,127.845454 L201.689936,127.845454 L212.269446,132.885755 C212.62342,133.054396 212.767664,133.466129 212.591624,133.805386 C212.522656,133.938298 212.410569,134.046196 212.272189,134.112884 L212.272189,134.112884 L201.715318,139.200432 C201.362101,139.370653 200.931825,139.234263 200.75427,138.895796 C200.70436,138.800654 200.678252,138.695679 200.678014,138.589183 L200.678014,138.589183 L200.668,134.275 L126.048475,134.44213 C125.634262,134.443056 125.297726,134.108021 125.2968,133.693808 C125.295951,133.314114 125.577403,132.999688 125.943367,132.949208 L126.045122,132.942134 L200.665,132.775 L200.655375,128.461334 C200.654599,128.114046 200.923249,127.826432 201.272536,127.780227 Z" fill="#3d1818" fill-rule="nonzero"></path>
                    <line x1="47" y1="20.6245337" x2="79.2" y2="20.6245337" id="Line-5" stroke="#FF0000" stroke-width="2" stroke-linecap="round" stroke-linejoin="round"></line>
                    <line x1="47" y1="18.8914823" x2="112" y2="18.8914823" id="Line-5-Copy" stroke="#0000FF" stroke-width="2" stroke-linecap="round"></line>
                    <line x1="112" y1="18.8914823" x2="174" y2="103.811003" id="Line-6" stroke="#0000FF" stroke-width="2" stroke-linecap="round"></line>
                    <line x1="79.5" y1="21" x2="141" y2="104.677529" id="Line-6-Copy" stroke="#FF0000" stroke-width="2" stroke-linecap="round"></line>
                    <line x1="174" y1="102.944478" x2="210" y2="102.944478" id="Line-7" stroke="#0000FF" stroke-width="2" stroke-linecap="round"></line>
                    <line x1="141" y1="104.677529" x2="210.5" y2="104.244266" id="Line-7-Copy" stroke="#FF0000" stroke-width="2" stroke-linecap="round"></line>
                    <line x1="79.071429" y1="6.41656" x2="79.0714286" y2="14.7061348" id="Line-3" stroke="#3d1818" stroke-width="1.5" stroke-linecap="square"></line>
                    <line x1="112.002463" y1="6.41656" x2="112.002463" y2="14.7061348" id="Line-3-Copy" stroke="#3d1818" stroke-width="1.5" stroke-linecap="square"></line>
                    <line x1="79.027094" y1="107.41656" x2="79.0270936" y2="115.706135" id="Line-3-Copy-2" stroke="#3d1818" stroke-width="1.5" stroke-linecap="square"></line>
                    <line x1="140.958128" y1="107.41656" x2="140.958128" y2="115.706135" id="Line-3-Copy-3" stroke="#3d1818" stroke-width="1.5" stroke-linecap="square"></line>
                    <text id="Tỉ-suất-tử" font-family="LucidaGrande-Bold, Lucida Grande" font-size="10" font-weight="bold" letter-spacing="0.0179718202" fill="#FF0000">
                        <tspan x="22.7319182" y="81">Tỉ suất tử</tspan>
                    </text>
                    <path id="Line-2-Copy-4" d="M188.707894,47.2522372 C188.833326,47.6106162 188.670676,48.0000041 188.341558,48.1678116 L188.247763,48.2078938 L158.944,58.464 L160.36996,62.5357389 C160.483739,62.8608213 160.327943,63.2174448 160.018332,63.3777193 L159.92095,63.4196833 C159.816062,63.4563939 159.704424,63.4691974 159.594876,63.4570797 L159.594876,63.4570797 L147.947103,62.1686552 C147.557386,62.1255464 147.285987,61.7839725 147.340916,61.4057283 C147.362435,61.2575425 147.432895,61.1188318 147.541719,61.0104164 L147.541719,61.0104164 L155.843745,52.739562 C156.121518,52.4628319 156.572723,52.4504315 156.851539,52.711865 C156.929913,52.7853529 156.989031,52.8759426 157.024212,52.9764599 L157.024212,52.9764599 L158.449,57.048 L187.752237,46.7921062 C188.143196,46.6552706 188.571058,46.8612782 188.707894,47.2522372 Z" fill="#0000FF" fill-rule="nonzero"></path>
                    <text id="Tỉ-suất-sinh" font-family="LucidaGrande-Bold, Lucida Grande" font-size="10" font-weight="bold" letter-spacing="0.0179718202" fill="#0000FF">
                        <tspan x="150.423419" y="44">Tỉ suất sinh</tspan>
                    </text>
                    <text id="Tỉ-suất" transform="translate(6.000000, 65.000000) rotate(-90.000000) translate(-6.000000, -65.000000) " font-family="LucidaGrande-Bold, Lucida Grande" font-size="10" font-weight="bold" letter-spacing="0.0179718202" fill="#3d1818">
                        <tspan x="-11.8631943" y="69">Tỉ suất</tspan>
                    </text>
                    <text id="Thời-gian" font-family="LucidaGrande-Bold, Lucida Grande" font-size="10" font-weight="bold" letter-spacing="0.0179718202" fill="#3d1818">
                        <tspan x="146.5" y="129">Thời gian</tspan>
                    </text>
                    <text id="r" font-family="LucidaGrande-Bold, Lucida Grande" font-size="10" font-weight="bold" line-spacing="12" letter-spacing="0.0179718202" fill="#3d1818">
                        <tspan x="198.5" y="97">r</tspan>
                    </text>
                    <text id="r-copy" font-family="LucidaGrande-Bold, Lucida Grande" font-size="10" font-weight="bold" line-spacing="12" letter-spacing="0.0179718202" fill="#3d1818">
                        <tspan x="48.5" y="14">r</tspan>
                    </text>
                    <text id="1" font-family="LucidaGrande-Bold, Lucida Grande" font-size="6" font-weight="bold" line-spacing="12" letter-spacing="0.0107830921" fill="#3d1818">
                        <tspan x="52.5" y="14">1</tspan>
                    </text>
                    <text id="2" font-family="LucidaGrande-Bold, Lucida Grande" font-size="6" font-weight="bold" line-spacing="12" letter-spacing="0.0107830921" fill="#3d1818">
                        <tspan x="202.5" y="97">2</tspan>
                    </text>
                    <text id="T" font-family="LucidaGrande-Bold, Lucida Grande" font-size="10" font-weight="bold" letter-spacing="0.0179718202" fill="#3d1818">
                        <tspan x="106.5" y="108">T</tspan>
                    </text>
                    <text id="𝛕" font-family="STIXTwoMath-Regular, STIX Two Math" font-size="11" font-weight="normal" letter-spacing="0.0197690022" fill="#3d1818">
                        <tspan x="93.5" y="8">𝛕</tspan>
                    </text>
                </g>
            </g>
        </g>
    </g>
</svg>