
<svg style='scaling-svg' viewBox="0 0 549 262" version="1.1" xmlns="http://www.w3.org/2000/svg" xmlns:xlink="http://www.w3.org/1999/xlink">
    <g id="Page-1" stroke="none" stroke-width="1" fill="none" fill-rule="evenodd">
        <g id="roadmap">
            <g id="Group-13">
                <path d="M429,212.310557 L429,244.553159 C429.683461,244.705019 430.407479,245.026784 431.11948,244.998216 C455.997465,244.013376 480.154435,239.251563 502.632044,226.397525 C518.626536,217.251295 532.515067,205.209186 541.683961,187.14527 C546.445657,177.761477 548.803973,167.582293 548.931653,156.785142 C549.065341,145.554961 548.961695,134.32027 548.961695,122 C548.150554,127.842881 547.498637,132.606198 546.828695,137.368011 C545.119291,149.540931 539.319636,159.285582 532.147049,167.919093 C515.771021,187.623406 495.098951,198.841558 472.27886,204.628807 C458.246127,208.186259 443.827351,209.749974 429,212.310557" id="Fill-6" fill="#FAA73A"></path>
                <polygon id="Fill-8" fill="#FAA73A" points="430 197 430 259 405 228.306976"></polygon>
                <path d="M408.125186,47.3782629 C408.125186,34.9825917 408,19.6325586 408,6.02020824 C408.808429,5.93738973 409.639482,6.13765993 410.473551,6.11055569 C439.706698,7.31067109 468.096725,13.1139895 494.509421,28.7757213 C513.30539,39.9230918 529.629317,54.5970248 540.401329,76.6116887 C545.996983,88.0451595 548.76917,100.451371 548.919996,113.607467 C549.076856,127.293601 548.954686,140.984252 548.954686,156 C548.002973,148.877609 547.233759,143.07429 546.449462,137.270972 C544.440456,122.437425 537.624617,110.561252 529.194937,100.041796 C509.951014,76.0274418 485.658936,62.3578714 458.840518,55.3077581 C442.350682,50.9710801 426.41287,47.823977 408.125186,47.3782629" id="Fill-9" fill="#055592"></path>
                <path d="M120,213.576223 L120,245.557196 C119.316539,245.707708 118.592521,246.026796 117.88052,245.998198 C93.0025351,245.02137 68.8455647,240.296771 46.3679558,227.548332 C30.3734637,218.476922 16.4849331,206.533726 7.31603945,188.616676 C2.55434337,179.30896 0.196027014,169.211053 0.0683474665,158.503568 C-0.0653405308,147.364111 0.0383052199,136.220139 0.0383052199,124 C0.849445877,129.79625 1.50136263,134.522354 2.17130473,139.243942 C3.88070856,151.318084 9.68036426,160.98402 16.8529506,169.546696 C33.2289792,189.089286 53.9010491,200.216702 76.7211396,205.957262 C90.753873,209.483779 105.172649,211.037071 120,213.576223" id="Fill-10" fill="#FAA73A"></path>
                <polygon id="Fill-11" fill="#FAA73A" points="119 200 119 262 144 231.306976"></polygon>
                <path d="M140.874814,49.3782629 C140.874814,36.9825917 141,21.6325586 141,8.02020824 C140.191571,7.93738973 139.360518,8.13765993 138.526449,8.11055569 C109.293302,9.31067109 80.9032745,15.1139895 54.4905789,30.7757213 C35.6946097,41.9230918 19.370683,56.5970248 8.59867113,78.6116887 C3.00301668,90.0451595 0.230829926,102.451371 0.0800036604,115.607467 C-0.0768556556,129.293601 0.0453136194,142.984252 0.0453136194,158 C0.997027354,150.877609 1.76624131,145.07429 2.55053789,139.270972 C4.55954374,124.437425 11.3753827,112.561252 19.8050627,102.041796 C39.0489859,78.0274418 63.3410642,64.3578714 90.1594824,57.3077581 C106.649318,52.9710801 122.58713,49.823977 140.874814,49.3782629" id="Fill-12" fill="#055592"></path>
                <polygon id="Fill-4" fill="#FAA73A" points="152 258 397 258 397 209 152 209"></polygon>
                <polygon id="Fill-3" fill="#055592" points="152 49 397 49 397 0 152 0"></polygon>
            </g>
            <g id="Group-5" transform="translate(36.000000, 12.000000)">
                <text id="Lộ-trình-xây-dựng-kh" font-family="LucidaGrande-Bold, Lucida Grande" font-size="18" font-weight="bold" letter-spacing="-0.0163636364" fill="#3D1818">
                    <tspan x="17.630396" y="91">Lộ trình </tspan>
                    <tspan x="10.7661381" y="112">xây dựng </tspan>
                    <tspan x="11.1528569" y="133">khả năng </tspan>
                    <tspan x="3.28103693" y="154">chống chịu</tspan>
                </text>
                <text id="Lộ-trình-Khử-carbon" font-family="LucidaGrande-Bold, Lucida Grande" font-size="18" font-weight="bold" letter-spacing="-0.0163636364" fill="#3D1818">
                    <tspan x="397.630396" y="101">Lộ trình </tspan>
                    <tspan x="415.057749" y="122">Khử </tspan>
                    <tspan x="402.254657" y="143">carbon</tspan>
                </text>
                <text id="--Xây-dựng-cơ-sở-hạ" font-family="LucidaGrande, Lucida Grande" font-size="16" font-weight="normal" letter-spacing="-0.0145454545" fill="#3D1818">
                    <tspan x="117" y="59">- Xây dựng cơ sở hạ tầng có khả </tspan>
                    <tspan x="117" y="77">năng chống chịu</tspan>
                    <tspan x="117" y="95">- Bảo vệ những đối tượng bị tổn </tspan>
                    <tspan x="117" y="113">thương nhất</tspan>
                    <tspan x="117" y="131">- Cải cách cơ cấu để khuyến </tspan>
                    <tspan x="117" y="149">khích nông dân và doanh nghiệp</tspan>
                    <tspan x="117" y="167">- Định giá carbon</tspan>
                    <tspan x="117" y="185">- Huy động nguồn vốn </tspan>
                </text>
                <text id="Việt-Nam-hiện-nay" font-family="LucidaGrande-Bold, Lucida Grande" font-size="18" font-weight="bold" letter-spacing="-0.0163636364" fill="#F8EAC5">
                    <tspan x="153.198173" y="17">Việt Nam hiện nay</tspan>
                </text>
                <text id="Việt-Nam-năm-2045" font-family="LucidaGrande-Bold, Lucida Grande" font-size="18" font-weight="bold" letter-spacing="-0.0163636364" fill="#F8EAC5">
                    <tspan x="145.991142" y="229">Việt Nam năm 2045</tspan>
                </text>
            </g>
        </g>
    </g>
</svg>