
<svg width="683px" height="317px" viewBox="0 0 683 317" version="1.1" xmlns="http://www.w3.org/2000/svg" xmlns:xlink="http://www.w3.org/1999/xlink">
    <g id="Page-1" stroke="none" stroke-width="1" fill="none" fill-rule="evenodd">
        <g id="A2" transform="translate(-2754.000000, -405.000000)">
            <g id="unit-1" transform="translate(2754.000000, 405.000000)">
                <rect id="Rectangle" x="0" y="0" width="683" height="317"></rect>
                <g id="Group-12" transform="translate(234.000000, 0.000000)">
                    <path d="M35.0298712,14.5165128 C35.1128446,14.0251667 35.0881153,13.5364178 35.1227689,12.9968623 C35.1240704,12.9759229 35.1178881,12.957256 35.1178881,12.9363165 C35.4317229,13.7221132 35.946321,14.4298334 36.5517017,14.8345 C37.3292117,15.3555508 38.2036867,15.6524362 39.1128154,15.8033949 C37.2660868,16.085509 36.427567,15.5362143 35.0298712,14.5165128 M164.265078,0.371361571 C151.68126,1.03704057 139.057745,0.0558092713 126.466607,0.00500275382 C112.453856,-0.0506733979 98.4313441,0.371361571 84.4224982,0.625069516 C69.8082716,0.888516729 55.2103143,1.11138366 40.5925085,0.898418319 C33.3677992,0.793234219 26.1469945,0.606402585 18.9198449,0.590332792 C14.1448045,0.580431202 9.16509629,0.106453468 4.39005593,0.574262999 C4.34661689,0.554459819 4.30691979,0.52475505 4.26364344,0.507386688 C3.97714102,0.388729933 3.62604947,0.398469202 3.3384082,0.507386688 C3.14984698,0.577996385 2.97495197,0.671980326 2.81502473,0.782196382 C2.08437034,1.0234056 1.87856366,1.74605932 2.06452179,2.40816726 C2.08323149,3.82133512 2.10926237,5.23320442 2.37835664,6.62413428 C2.16262568,7.68084491 1.90589609,8.74761946 2.17743075,9.80189528 C2.56073552,11.2942759 4.44097884,10.9303519 4.79320925,9.676908 C5.23963892,9.84020307 5.72332529,9.9280188 6.17609999,9.94782198 C8.9641704,10.0728093 14.3358061,11.4921453 16.2160494,8.68204172 C18.4385989,9.83030148 22.7784354,9.3613557 25.6335353,8.76985746 C25.7724752,8.78592725 25.9101135,8.80069847 26.0477518,8.81676827 C26.1805093,9.01609863 26.3181476,9.21283185 26.4868603,9.39219671 C25.4897147,9.30194616 24.4304204,9.99619368 24.4862241,11.1407201 C24.5159969,11.7731232 24.5049338,12.4141294 24.468816,13.0600052 C22.1818401,14.7788238 21.2069834,22.0524342 22.1172509,24.185821 C21.788611,25.3947888 21.4749389,26.5839535 21.2255304,27.736109 C20.2246429,32.3565803 19.6156829,36.9536773 19.4198005,41.6337205 C18.7462514,41.9616092 18.2724893,42.7746758 18.6990704,43.655755 C18.8393118,43.9440373 18.9793905,44.2323197 19.1183303,44.5219006 C19.177876,44.6431545 19.2610121,44.7446052 19.352771,44.8361543 C19.4829254,46.3001287 21.5715785,46.1615064 21.7663221,44.7062974 C21.7824287,44.5850435 21.8122015,44.476126 21.8307485,44.3573069 C24.8732708,40.8789272 27.5869905,37.2469916 30.290786,33.4975356 C33.8924842,28.5008039 38.16643,24.9060399 42.8249822,21.0674695 C44.1000075,21.1033425 45.2050185,19.2027242 44.0552669,18.1594862 C43.7550982,17.6249627 43.4562311,17.0915754 43.1560625,16.5570519 C43.0792714,16.2241313 42.8856667,15.9358489 42.6289371,15.7168777 C42.7405445,15.6944774 42.8497115,15.6636364 42.961319,15.6388012 C43.5492916,17.0445023 44.7994248,18.3909562 45.8152801,18.9217463 C47.2067935,19.6481334 48.6951093,19.6963428 50.1809848,19.2670034 C50.8073529,19.08634 51.5861644,18.7646195 52.2994107,18.3451816 C52.3452901,19.2509336 52.6640057,20.0948412 53.2034958,20.8645681 C40.7859505,27.1173408 31.2954154,38.4548233 26.8005324,51.5208636 C26.3479204,52.8411837 27.6006567,53.7594344 28.7416229,53.6034438 C29.8503759,54.2692852 31.3474772,53.9982088 32.4685948,53.5105961 C33.1780991,53.2025106 33.944546,52.7062949 34.6738988,52.109927 C35.1079638,52.6506187 35.8298328,52.9822408 36.7462826,52.8473519 C38.1242925,52.6420157 39.2455729,51.8388507 40.2700509,50.9442989 C40.630904,50.6287466 41.064969,50.2648226 41.465682,49.8627531 C42.1216602,51.0110129 43.4414261,51.892092 44.6370571,52.0381811 C46.2456031,52.2336157 47.6831587,51.093959 48.8377911,49.9653401 L48.8390927,49.9690735 C49.2557495,50.5086289 49.7914977,50.7586035 50.3682444,50.8365176 C50.5667299,51.0420162 50.8210191,51.2053113 51.1384332,51.293127 C52.0625296,51.546835 52.9815825,50.9826067 53.2568591,50.1250641 C54.595172,49.4332514 55.7436221,48.4693884 56.8164199,47.4039125 C57.0843753,47.1391667 57.3746197,46.850722 57.6660029,46.5501032 C57.7938796,46.6440872 57.9253356,46.7319029 58.0728982,46.7963444 C59.7112169,47.5238678 61.4438977,46.7642048 62.9248923,46.0056781 C63.9915078,45.4599545 64.9849114,44.7657069 65.944963,44.0281197 C66.2189381,44.6257861 66.7981252,45.0095133 67.5237361,45.0614561 C69.6558283,45.2137133 71.7989835,43.8177515 73.4163149,42.3130345 C73.4981495,42.3812094 73.5676194,42.4602598 73.6618187,42.5160982 C73.7127416,42.545803 73.7648034,42.5592757 73.8157263,42.585247 C73.8342733,42.6162504 73.8404556,42.6508248 73.8616057,42.6818281 C74.7546278,44.0170818 76.4710392,44.1531069 77.6456829,43.1087327 C78.0872317,42.7152663 78.3179305,42.1559076 78.3525841,41.5855111 C79.7317329,40.7291048 80.9758464,39.6006482 82.1875841,38.542639 C82.3488129,38.4015819 82.5087402,38.2592263 82.6699689,38.1194678 C82.7345581,38.764045 82.9738795,39.3977468 83.4438997,39.9397371 C84.5713624,41.2352221 86.8521559,40.7378701 88.2636806,39.6934959 C89.3885402,40.0746259 90.5482161,39.6378197 91.6260574,39.1675754 C93.1812401,38.4906962 94.7142965,37.4338233 96.0129122,36.2050522 C96.0426851,36.2001826 96.0724579,36.1964492 96.1009292,36.1914173 C96.1095519,36.2224206 96.1145954,36.2534239 96.1318408,36.2818301 C96.3997963,36.7483411 96.783101,37.1728109 97.2319711,37.4659629 C98.223097,38.1131373 99.6294155,37.29163 99.7262179,36.2001826 C100.057461,36.0404586 100.378617,35.8450239 100.686269,35.6247541 C101.888083,34.7621796 102.843091,33.5817803 103.779389,32.4507265 C103.981617,32.2056216 104.204832,31.9532122 104.431788,31.6933361 C106.831836,31.8158885 109.046901,31.4323237 111.178994,30.0512954 C112.468824,29.2159908 113.592545,28.1073374 114.70992,27.0665343 C115.259497,26.5542487 115.884564,26.1273441 116.499706,25.6929728 C117.192941,25.991319 118.077341,26.0023568 118.745846,25.81796 C120.271419,25.3947888 121.561249,24.4098241 122.884594,23.550983 C123.17614,23.7503133 123.524629,23.887637 123.90289,23.9283796 C124.478335,23.9928211 124.971946,23.7589163 125.339144,23.3839545 C126.679897,23.2862372 128.113548,22.645231 129.14551,21.943679 C129.794167,21.5042757 130.868267,20.7804857 131.886562,19.9265142 C134.065673,21.167784 137.094529,19.2075938 138.761319,17.7783562 C139.288444,17.327915 140.011615,16.7141788 140.740805,16.0062963 C141.642612,16.9518169 143.037868,16.7810551 144.254486,16.4208645 C145.945029,15.9209154 147.531286,14.790024 148.984949,13.8334655 C149.17351,13.7096144 149.375575,13.5834909 149.572921,13.4572051 C151.346438,15.5065095 154.577359,14.4718745 156.974803,12.645437 C157.622159,13.0514022 158.692516,12.9609893 159.150172,12.3793927 C160.333438,10.8797077 160.915228,8.81060006 161.06393,6.84683889 C161.075156,6.83823587 161.076457,6.83450248 161.065231,6.8369373 L161.065231,6.83076909 C161.415021,6.68841345 161.713888,6.56099136 162.033906,6.34202014 C162.690047,5.8902804 163.482524,5.38042969 163.843377,4.64543956 C163.948803,4.43020173 164.010951,4.20489998 164.044303,3.9808968 C164.118817,3.9747286 164.192029,3.97359235 164.265078,3.96726183 C166.554657,3.78416358 166.601838,0.24751054 164.265078,0.371361571" id="Fill-8" fill="#3AAB47"></path>
                    <path d="M72.0624093,299.807968 C61.7953371,296.310006 51.4571485,292.506086 41.5002089,288.151993 C34.5208363,285.101188 29.9818163,278.996977 26.2216428,272.648715 C24.1378527,262.838237 23.0248413,252.906546 20.8849755,243.067633 C21.1890592,242.693594 21.3947243,242.212966 21.4370671,241.62461 C21.8446372,235.973731 20.0286369,229.831174 19.1687015,224.258287 C17.9299696,216.237898 18.4047324,208.074849 18.4944861,199.996291 C18.6465279,186.27904 15.9344618,172.620122 15.892119,158.930168 C16.6075329,158.608124 17.1584801,157.94795 17.1684527,156.929661 C17.2307408,149.760203 16.514019,142.629092 16.6425188,135.45216 C16.7708552,128.215758 17.3178787,121.035089 17.153412,113.792513 C16.9129244,103.248906 17.5758593,92.630881 17.843976,82.0575392 C18.1068612,81.7824533 18.3074583,81.4121515 18.3872394,80.915437 C19.3719144,74.8508724 19.8517452,68.8755118 21.5068756,62.9149372 C22.7245179,58.5275357 24.6886363,54.3183796 25.1934805,49.7836049 C25.2034532,49.6906638 25.2008374,49.6040597 25.1921726,49.5197303 C27.1052836,45.297088 29.2489095,41.2057329 31.8499687,37.2989601 C32.1141617,36.901361 32.4033681,36.4888133 32.6999314,36.072691 C32.7586228,36.0416565 32.8171507,36.0132217 32.8745342,35.9722757 C34.4685208,34.8327732 35.9729172,33.4193221 36.8789556,31.6815524 C38.9091223,31.7533704 40.4869239,29.3118811 41.6511063,27.961799 C43.6402381,25.6553341 46.7709913,24.5949615 48.8534736,22.4235211 C48.9095492,22.3666516 48.9383227,22.2972708 48.9793576,22.2340644 C49.6573333,22.0186102 50.3366168,21.8377652 51.0145925,21.7373499 C52.5937019,21.5056472 51.9680417,18.9663424 50.35787,19.302035 C50.3055545,19.2872489 50.2643561,19.2612514 50.2069726,19.2524772 C49.6287233,19.1658731 49.2710163,19.1249271 48.7151646,19.3317696 C48.664157,19.3515927 48.6216507,19.3775902 48.5755477,19.4011504 C47.2034113,19.3714158 45.6542198,19.3255952 44.5387561,19.8669929 C44.3131457,19.9771573 44.1187611,20.1207934 43.9168561,20.2584176 C43.3560998,20.2359948 42.7865152,20.4813461 42.3889178,21.145257 C42.2280477,21.4153059 42.0449436,21.6593574 41.8430386,21.8897601 C41.7109421,21.9838386 41.5613526,22.0593938 41.4217357,22.1448605 C36.7754691,22.4644672 32.9729527,28.9651396 30.2808319,31.9465643 C26.2739582,36.3835235 21.9193503,41.5055165 19.335784,47.1414474 C19.2797084,47.1216243 19.2260851,47.0944895 19.1687015,47.0795409 C18.8433648,46.990337 18.5119791,46.9482536 18.1815742,46.943379 C18.0071349,45.8310114 17.856401,44.7210811 17.7815245,43.6150503 C17.135919,34.0770586 21.1030656,24.7671949 21.6788626,15.2553631 C21.6999523,14.9159334 21.6651298,14.5839779 21.6028417,14.2594967 C21.8209318,14.0178826 22.0277413,13.7652195 22.2034886,13.485259 C22.5711682,12.8980407 22.5549831,12.1746605 22.2620165,11.5825677 C22.5175448,10.3476869 21.6128144,8.9170125 20.1283632,9.49415678 C18.8136104,10.020606 17.5647423,9.92652754 16.3832304,9.21062165 C15.241609,8.70643283 14.1771529,9.12385503 13.7223353,10.2869178 C13.2985801,11.3745877 10.9143031,11.0153349 9.08473345,10.6399962 C8.43912799,9.2650539 6.26443978,9.12629229 5.3034702,10.2201367 C4.00473895,10.2857804 2.62393782,10.5408807 1.67424876,11.1107132 C0.897691177,11.5763933 0.852896065,12.3394196 1.19180214,12.9079522 C0.149907093,14.5293832 0.814149929,16.8730569 0.979924538,18.8165318 C1.38749466,23.6151811 0.625977764,28.5847638 1.03354788,33.3710643 C1.03976034,33.4391452 1.06591807,33.4887029 1.08095877,33.5494721 C1.02112296,33.6818968 0.982540311,33.8281326 0.975019964,33.9904545 C0.774259392,39.076376 1.02226736,44.0906419 1.14079457,49.1642146 C1.14455475,49.3289737 1.20063038,49.4565239 1.27403551,49.5668508 C1.2429732,53.8489624 1.20553495,58.1299366 1.13572651,62.4083111 C0.865320987,78.9867482 0.0428238889,95.7708904 0.824122563,112.337141 C0.826738336,112.376787 0.837855371,112.406522 0.841615545,112.444868 C0.29197626,114.13698 0.334319084,116.055595 0.320749762,117.795964 C0.310777127,119.294719 0.756929896,120.627578 0.870225561,122.10911 C0.895238889,122.434891 0.911423984,122.76181 0.93382154,123.087591 C0.393010489,133.202727 0.672080762,143.423153 0.835403084,153.536989 C-0.632699468,157.967774 0.238352915,163.640913 0.44287366,167.923025 C0.913876271,177.776724 -0.398424306,187.902909 0.456442982,197.75547 C0.395462776,200.172099 0.608648269,202.653235 0.531319482,204.831987 C0.391702602,208.751271 0.632190225,212.716213 0.669628475,216.637935 C0.698238491,219.604573 0.394154889,222.599647 0.807937468,225.49073 C0.520038961,235.1215 0.678293223,244.782005 0.663416014,254.39539 C0.652135494,261.481981 0.62107319,268.571009 0.748101663,275.656137 C0.887718542,283.321172 1.71773599,290.808937 0.854040466,298.449274 C0.805485181,298.872871 0.896546776,299.218475 1.07474631,299.490961 C1.05349315,299.576428 1.04728069,299.664332 1.03976034,299.753536 C0.891478716,299.935681 0.800580607,300.162347 0.780635338,300.46213 C0.738129028,301.112392 1.43604994,301.543463 2.0193673,301.400964 C2.44067023,301.296974 2.66252047,301.025626 2.76976716,300.696107 C2.9466588,300.54386 3.07385076,300.363015 3.16605676,300.120263 C3.8750947,299.92317 4.48342539,299.373323 4.53443297,298.449274 C4.55944629,297.984732 4.57187122,297.516452 4.59426877,297.050772 C5.23366176,296.547883 5.79441808,295.937104 6.47124933,295.457776 C7.56807561,294.681101 8.48523099,293.909463 9.35775475,292.87265 C9.5771527,292.612513 9.78150996,292.340027 9.98962739,292.071278 C10.2090253,291.969725 10.4258075,291.860698 10.6489657,291.773931 C13.3546558,295.555591 17.4102482,298.550827 21.1092781,301.140827 C25.2072133,304.01095 31.3763503,307.206691 36.4975432,305.541877 C38.0181247,306.038592 39.3964735,306.172316 39.7603929,305.17905 C40.5006567,303.156282 35.7048005,300.900513 34.4822536,300.159909 C33.1910427,299.37706 31.9011397,298.591611 30.6099288,297.810061 C29.5031299,297.139976 28.7005781,296.184893 27.9740471,295.160429 C29.2838954,294.861946 30.5912914,294.697187 31.8936194,294.644054 C32.9966581,295.956927 36.0252327,296.03622 37.5033079,296.487114 C39.4649741,297.087818 42.5870626,298.181663 44.4217003,296.768374 C52.0167605,299.155269 59.5555815,302.577676 67.1905322,301.812212 C67.4099301,301.791252 67.5969579,301.718134 67.7676371,301.62763 C68.9753068,301.876719 70.1743117,302.11947 71.3558236,302.356047 C73.0371116,302.69174 73.6876217,300.361715 72.0624093,299.807968" id="Fill-10" fill="#BBAE92"></path>
                    <path d="M184.756826,313.296038 C185.087064,309.392056 184.571841,305.401482 184.643979,301.480312 C184.750638,295.776526 185.500513,289.825448 184.380668,284.203067 C184.209361,283.345245 182.94068,283.424378 182.722312,284.203067 C182.711076,284.241498 182.701143,284.279768 182.689907,284.318037 C182.635356,284.313173 182.584387,284.301984 182.516157,284.307011 C182.285251,284.321767 182.138859,284.444197 182.061836,284.598735 C179.546783,284.084528 177.023099,284.274903 174.387545,284.205661 C170.751506,284.109176 167.157643,283.284597 163.556451,282.83347 C156.752374,281.981648 150.912956,283.2773 144.349718,283.690157 C144.01948,283.40946 143.575091,283.238868 142.998966,283.272273 C137.117373,283.620915 131.569601,284.012692 125.700221,283.250057 C120.085521,282.520665 114.669323,281.02491 109.033455,280.42038 C102.536004,279.725528 95.7319259,280.100116 89.2059778,280.119899 C84.1398842,280.135953 78.0967546,280.23487 73.3633417,282.191807 C73.0046067,282.032404 72.5836671,281.973054 72.1119216,282.063215 C66.8535147,283.075736 60.8662391,282.636934 55.4848885,283.034872 C49.8687236,283.449027 44.4637614,282.834606 39.1034171,281.321499 C38.8899347,280.833237 38.4455463,280.479731 37.7912579,280.561297 C37.4462014,280.603296 37.1022848,280.646592 36.7572283,280.688592 C36.521437,280.716969 36.3139797,280.787509 36.1278544,280.880264 C35.8510276,280.576053 35.5556371,280.356003 34.9795116,280.110008 C33.7989266,279.604396 32.5141245,280.948208 33.5357783,281.973054 C33.6699579,282.102781 33.7878536,282.20786 33.900864,282.303048 C39.4212794,287.649597 46.8869731,290.413762 53.9380779,293.228682 C59.387821,295.404371 65.053489,296.979261 70.4012947,299.413432 C72.0958005,300.184823 73.581872,301.238046 75.0615928,302.271486 C69.0482629,302.681911 63.1417555,302.532401 57.0204632,301.137832 C49.0432912,299.318244 41.7327833,295.654096 33.3434651,295.944523 C32.9896153,295.95701 32.704158,296.096629 32.4955608,296.304354 C32.340375,295.966901 32.0871598,295.680042 31.6886921,295.618259 C31.3633391,295.567503 31.0368463,295.515612 30.7129589,295.465019 C29.521138,295.278211 28.1544277,296.802507 29.3659522,297.766706 C31.7681576,299.675481 34.828071,301.612634 37.7069072,302.716451 C39.925267,303.565841 41.1257184,304.685874 42.4266416,306.290439 C38.3660807,305.989958 33.6114986,305.985093 29.1213675,305.306295 C27.557296,303.871186 25.2570279,302.872286 23.6084428,302.092301 C22.2081876,301.429718 20.805327,300.805406 19.4522952,300.046339 C18.0891673,299.282407 17.004169,298.138861 15.5220057,297.644438 C15.3941768,297.421793 15.2650452,297.199311 15.1471496,296.965639 C15.1297258,296.974396 15.112302,296.985423 15.0961809,296.994179 C14.8144689,296.582457 14.444498,296.293165 14.0336544,296.112682 C13.9888736,294.641575 12.0486432,293.509217 10.5987221,294.257257 C7.6194141,295.791283 4.80766779,299.225489 2.97523707,302.381593 C2.80767542,302.424727 2.64255636,302.481645 2.4873705,302.575535 C1.85799658,302.958879 1.47451001,303.47795 1.25223436,304.17037 C1.09216332,304.672253 1.12570822,305.307592 1.41865613,305.758881 C1.42354131,305.767475 1.43103192,305.774935 1.43721981,305.782394 C0.819081804,308.022298 0.801657998,310.771706 1.74010092,312.89291 C1.04998794,314.089645 1.56130336,315.997122 3.08955026,316.385169 C6.13220271,317.15656 10.207582,316.672029 13.2714036,316.662137 C21.092087,316.633759 28.903,315.747397 36.7249861,315.586698 C52.5129083,315.260271 68.3493566,315.952529 84.1361389,316.15166 C116.841762,316.56322 149.798158,314.550663 182.414383,316.990996 C184.676221,317.159155 185.44466,314.93644 184.756826,313.296038" id="Fill-11" fill="#84BF41"></path>
                </g>
                <g id="Group-19" transform="translate(303.000000, 231.000000)" fill="#3D1818" fill-opacity="0.3">
                    <path d="M5.39417853,4.3192916 C4.84824057,3.25586169 3.78983842,2.66205687 2.66839148,3.20425453 C0.935860272,4.04029043 0.179472753,5.74300396 0.018108081,7.71746141 C-0.231369208,10.7664766 2.11569871,17.7177989 5.89988791,15.608034 C6.18028717,15.4519223 5.79811559,15.3695122 5.64935987,15.4346662 C2.96470205,16.6150186 1.33289242,11.7574952 0.877468777,9.9035082 C0.607426874,8.79943765 0.598270368,7.64617903 0.752730133,6.52501361 C1.03433025,4.47669342 3.27707403,2.57851779 5.06004108,4.43976205 C5.12638823,4.50749644 5.44791672,4.42379609 5.39417853,4.3192916" id="Fill-13"></path>
                    <path d="M6.00539591,14.8106367 C6.55199897,15.6034367 8.35792893,15.5958367 8.97191884,14.8746367 C9.12640178,14.6932367 8.59556611,14.8136367 8.54263271,14.8336367 C7.79555848,15.1186367 7.31484061,14.9632367 6.64510169,14.6002367 C6.5448661,14.5454367 5.93669512,14.7116367 6.00539591,14.8106367" id="Fill-15"></path>
                    <path d="M8.28199538,4.66265675 C10.1142396,3.00122976 11.5340398,2.9090112 12.5402453,4.38832309 C12.7345493,4.7321524 12.8611264,5.10019737 12.9226067,5.49212628 C13.2571318,6.8273052 12.978991,8.39153779 12.7195902,9.69503731 C12.5339986,10.6245209 11.3472975,15.9982428 9.63045214,15.5127685 C9.40869569,15.4494097 8.57032808,15.809825 8.84600308,15.8856234 C9.81472863,16.1511664 10.892442,15.9881253 11.4700937,15.0372457 C13.0454029,12.4514769 14.169473,9.12099331 13.9789499,6.07379988 C13.8637154,4.23407261 12.4011749,2.77366884 10.5577525,3.02909437 C9.54530029,3.16808566 8.0952531,3.51589563 8.00007372,4.72584969 C7.99497776,4.7878816 8.25569365,4.70445365 8.28199538,4.66265675" id="Fill-16"></path>
                    <path d="M7.5952428,3.82785549 C7.89413553,2.56695816 8.92942584,1.05604479 9.92799551,0.258017333 C9.97728718,0.224693494 10.0012714,0.176888613 9.99994811,0.117045278 C9.99862484,0.111636696 9.99862484,0.106402585 9.99746698,0.100994004 C9.9696784,-0.105055498 9.34426976,0.0638318162 9.25726501,0.0891300193 C8.50068762,0.30861374 8.21568919,0.825918374 7.79819874,1.47372684 C7.28626017,2.27035853 7.11737833,3.02319816 7.00010387,3.97022331 C6.99117183,4.04472216 7.5611687,3.97284036 7.5952428,3.82785549" id="Fill-17"></path>
                    <path d="M5.39566017,3.28894044 C6.4415603,2.68514044 7.54527571,3.29034044 8.60415478,3.46874044 C8.72888743,3.49014044 9.16831719,3.25674044 8.93065092,3.09374044 C7.88593069,2.36954044 6.16141751,2.33894044 5.10776372,3.02514044 C4.80840536,3.21874044 5.20805552,3.39714044 5.39566017,3.28894044" id="Fill-18"></path>
                </g>
                <g id="Group-26" transform="translate(303.000000, 154.000000)" fill="#3D1818" fill-opacity="0.3">
                    <path d="M5.39417853,4.31928002 C4.84824057,3.25585944 3.78983842,2.66205984 2.66839148,3.20425274 C0.935860272,4.04028129 0.179472753,5.74297988 0.018108081,7.71758126 C-0.231369208,10.7665697 2.11569871,17.7176697 5.89988791,15.6080845 C6.18028717,15.451813 5.79811559,15.3695648 5.64935987,15.4347183 C2.96470205,16.614899 1.33289242,11.7574183 0.877468777,9.90344758 C0.607426874,8.8006769 0.598270368,7.64613824 0.752730133,6.52498266 C1.03433025,4.47668046 3.27707403,2.57852149 5.06004108,4.43991068 C5.12638823,4.50748321 5.44791672,4.42378359 5.39417853,4.31928002" id="Fill-20"></path>
                    <path d="M6.00539591,15.8105867 C6.55199897,16.6035867 8.35792893,16.5957867 8.97191884,15.8747867 C9.12640178,15.6931867 8.59556611,15.8137867 8.54263271,15.8335867 C7.79555848,16.1185867 7.31484061,15.9631867 6.64510169,15.6001867 C6.5448661,15.5453867 5.93669512,15.7115867 6.00539591,15.8105867" id="Fill-22"></path>
                    <path d="M8.28199538,4.66263953 C10.1142396,3.00122975 11.5340398,2.90901214 12.5402453,4.38830871 C12.7345493,4.73230032 12.8611264,5.10017562 12.9226067,5.49210047 C13.2571318,6.82743142 12.978991,8.39148196 12.7195902,9.69513383 C12.5339986,10.6244419 11.3472975,15.9981082 9.63045214,15.5126389 C9.40869569,15.4494466 8.57032808,15.8096924 8.84600308,15.8856558 C9.81472863,16.1511961 10.892442,15.9879908 11.4700937,15.0371211 C13.0454029,12.4515448 14.169473,9.12109577 13.9789499,6.07376805 C13.8637154,4.23405983 12.4011749,2.77367118 10.5577525,3.02909407 C9.54530029,3.16824978 8.0952531,3.51589028 8.00007372,4.72599767 C7.99497776,4.78786309 8.25569365,4.704436 8.28199538,4.66263953" id="Fill-23"></path>
                    <path d="M7.5952428,3.82785549 C7.89413553,2.56695816 8.92942584,1.05604479 9.92799551,0.258017333 C9.97728718,0.224693494 10.0012714,0.176888613 9.99994811,0.117045278 C9.99862484,0.111636696 9.99862484,0.106402585 9.99746698,0.100994004 C9.9696784,-0.105055498 9.34426976,0.0638318162 9.25726501,0.0891300193 C8.50068762,0.30861374 8.21568919,0.825918374 7.79819874,1.47372684 C7.28626017,2.27035853 7.11737833,3.02319816 7.00010387,3.97022331 C6.99117183,4.04472216 7.5611687,3.97284036 7.5952428,3.82785549" id="Fill-24"></path>
                    <path d="M5.39566017,3.28893991 C6.4415603,2.68513991 7.54527571,3.29033991 8.60415478,3.46873991 C8.72888743,3.49013991 9.16831719,3.25693991 8.93065092,3.09373991 C7.88593069,2.36953991 6.16141751,2.33893991 5.10776372,3.02513991 C4.80840536,3.21873991 5.20805552,3.39713991 5.39566017,3.28893991" id="Fill-25"></path>
                </g>
                <g id="Group-33" transform="translate(303.000000, 163.000000)" fill="#3D1818" fill-opacity="0.5">
                    <path d="M5.39417853,3.3192916 C4.84824057,2.25586169 3.78983842,1.66205687 2.66839148,2.20425453 C0.935860272,3.04029043 0.179472753,4.74300396 0.018108081,6.71746141 C-0.231369208,9.76647657 2.11569871,16.7177989 5.89988791,14.608034 C6.18028717,14.4519223 5.79811559,14.3695122 5.64935987,14.4346662 C2.96470205,15.6150186 1.33289242,10.7574952 0.877468777,8.9035082 C0.607426874,7.80072783 0.598270368,6.64617903 0.752730133,5.52501361 C1.03433025,3.47669342 3.27707403,1.57851779 5.06004108,3.43976205 C5.12638823,3.50749644 5.44791672,3.42379609 5.39417853,3.3192916" id="Fill-27"></path>
                    <path d="M6.00539591,14.8106367 C6.55199897,15.6034367 8.35792893,15.5958367 8.97191884,14.8746367 C9.12640178,14.6932367 8.59556611,14.8136367 8.54263271,14.8336367 C7.79555848,15.1186367 7.31484061,14.9632367 6.64510169,14.6002367 C6.5448661,14.5454367 5.93669512,14.7116367 6.00539591,14.8106367" id="Fill-29"></path>
                    <path d="M8.28199538,3.66265675 C10.1142396,2.00122976 11.5340398,1.9090112 12.5402453,3.38832309 C12.7345493,3.7321524 12.8611264,4.10019737 12.9226067,4.49212628 C13.2571318,5.8273052 12.978991,7.39153779 12.7195902,8.69503731 C12.5339986,9.62452087 11.3472975,14.9982428 9.63045214,14.5127685 C9.40869569,14.4494097 8.57032808,14.809825 8.84600308,14.8856234 C9.81472863,15.1511664 10.892442,14.9881253 11.4700937,14.0372457 C13.0454029,11.4514769 14.169473,8.12099331 13.9789499,5.07379988 C13.8637154,3.23407261 12.4011749,1.77366884 10.5577525,2.02909437 C9.54530029,2.16808566 8.0952531,2.51589563 8.00007372,3.72584969 C7.99497776,3.7878816 8.25569365,3.70445365 8.28199538,3.66265675" id="Fill-30"></path>
                    <path d="M7.5952428,3.82785549 C7.89413553,2.56695816 8.92942584,1.05604479 9.92799551,0.258017333 C9.97728718,0.224693494 10.0012714,0.176888613 9.99994811,0.117045278 C9.99862484,0.111636696 9.99862484,0.106402585 9.99746698,0.100994004 C9.9696784,-0.105055498 9.34426976,0.0638318162 9.25726501,0.0891300193 C8.50068762,0.30861374 8.21568919,0.825918374 7.79819874,1.47372684 C7.28626017,2.27035853 7.11737833,3.02319816 7.00010387,3.97022331 C6.99117183,4.04472216 7.5611687,3.97284036 7.5952428,3.82785549" id="Fill-31"></path>
                    <path d="M5.39566017,3.28894044 C6.4415603,2.68514044 7.54527571,3.29034044 8.60415478,3.46874044 C8.72888743,3.49014044 9.16831719,3.25674044 8.93065092,3.09374044 C7.88593069,2.36954044 6.16141751,2.33894044 5.10776372,3.02514044 C4.80840536,3.21874044 5.20805552,3.39714044 5.39566017,3.28894044" id="Fill-32"></path>
                </g>
                <g id="Group-40" transform="translate(303.000000, 79.000000)" fill="#3D1818" fill-opacity="0.3">
                    <path d="M5.39417853,3.3192916 C4.84824057,2.25586169 3.78983842,1.66205687 2.66839148,2.20425453 C0.935860272,3.04029043 0.179472753,4.74300396 0.018108081,6.71746141 C-0.231369208,9.76647657 2.11569871,16.7177989 5.89988791,14.608034 C6.18028717,14.4519223 5.79811559,14.3695122 5.64935987,14.4346662 C2.96470205,15.6150186 1.33289242,10.7574952 0.877468777,8.9035082 C0.607426874,7.80056655 0.598270368,6.64617903 0.752730133,5.52485234 C1.03433025,3.47669342 3.27707403,1.57835652 5.06004108,3.43976205 C5.12638823,3.50733517 5.44791672,3.42379609 5.39417853,3.3192916" id="Fill-34"></path>
                    <path d="M6.00539591,14.8106415 C6.55199897,15.6034415 8.35792893,15.5958415 8.97191884,14.8746415 C9.12640178,14.6932415 8.59556611,14.8136415 8.54263271,14.8334415 C7.79555848,15.1186415 7.31484061,14.9630415 6.64510169,14.6002415 C6.5448661,14.5454415 5.93669512,14.7114415 6.00539591,14.8106415" id="Fill-36"></path>
                    <path d="M8.28199538,3.66265675 C10.1142396,2.00122976 11.5340398,1.90884533 12.5402453,3.38832309 C12.7345493,3.7321524 12.8611264,4.10019737 12.9226067,4.49212628 C13.2571318,5.8273052 12.978991,7.39137193 12.7195902,8.69503731 C12.5339986,9.62435501 11.3472975,14.9982428 9.63045214,14.5126026 C9.40869569,14.4494097 8.57032808,14.809825 8.84600308,14.8856234 C9.81472863,15.1511664 10.892442,14.9881253 11.4700937,14.0372457 C13.0454029,11.4514769 14.169473,8.12099331 13.9789499,5.07379988 C13.8637154,3.23407261 12.4011749,1.77366884 10.5577525,2.02909437 C9.54530029,2.16808566 8.0952531,2.51589563 8.00007372,3.72584969 C7.99497776,3.7878816 8.25569365,3.70445365 8.28199538,3.66265675" id="Fill-37"></path>
                    <path d="M7.5952428,3.82793146 C7.89413553,2.56703731 8.92942584,1.05612777 9.92799551,0.258102342 C9.97728718,0.224778586 10.0012714,0.176973827 9.99994811,0.117130643 C9.99862484,0.111722075 9.99862484,0.106487978 9.99746698,0.10107941 C9.9696784,-0.10514404 9.34426976,0.0639173162 9.25726501,0.0890409852 C8.50068762,0.30852415 8.21568919,0.826001944 7.79819874,1.4736343 C7.28626017,2.27043844 7.11737833,3.02327617 7.00010387,3.97029891 C6.99117183,4.0446231 7.5611687,3.97291596 7.5952428,3.82793146" id="Fill-38"></path>
                    <path d="M5.39566017,3.28877658 C6.4415603,2.68497658 7.54527571,3.29037658 8.60415478,3.46877658 C8.72888743,3.49017658 9.16831719,3.25677658 8.93065092,3.09377658 C7.88593069,2.36937658 6.16141751,2.33897658 5.10776372,3.02517658 C4.80840536,3.21877658 5.20805552,3.39717658 5.39566017,3.28877658" id="Fill-39"></path>
                </g>
                <g id="Group-47" transform="translate(303.000000, 85.000000)" fill="#3D1818" fill-opacity="0.5">
                    <path d="M5.39417853,3.3192916 C4.84824057,2.25586169 3.78983842,1.66205687 2.66839148,2.20425453 C0.935860272,3.04029043 0.179472753,4.74300396 0.018108081,6.71746141 C-0.231369208,9.76647657 2.11569871,16.7177989 5.89988791,14.608034 C6.18028717,14.4519223 5.79811559,14.3695122 5.64935987,14.4346662 C2.96470205,15.6150186 1.33289242,10.7574952 0.877468777,8.9035082 C0.607426874,7.80056655 0.598270368,6.64617903 0.752730133,5.52485234 C1.03433025,3.47669342 3.27707403,1.57835652 5.06004108,3.43976205 C5.12638823,3.50733517 5.44791672,3.42379609 5.39417853,3.3192916" id="Fill-41"></path>
                    <path d="M6.00539591,14.8106415 C6.55199897,15.6034415 8.35792893,15.5958415 8.97191884,14.8746415 C9.12640178,14.6932415 8.59556611,14.8136415 8.54263271,14.8334415 C7.79555848,15.1186415 7.31484061,14.9630415 6.64510169,14.6002415 C6.5448661,14.5454415 5.93669512,14.7114415 6.00539591,14.8106415" id="Fill-43"></path>
                    <path d="M8.28199538,3.66265675 C10.1142396,2.00122976 11.5340398,1.90884533 12.5402453,3.38832309 C12.7345493,3.7321524 12.8611264,4.10019737 12.9226067,4.49212628 C13.2571318,5.8273052 12.978991,7.39137193 12.7195902,8.69503731 C12.5339986,9.62435501 11.3472975,14.9982428 9.63045214,14.5126026 C9.40869569,14.4494097 8.57032808,14.809825 8.84600308,14.8856234 C9.81472863,15.1511664 10.892442,14.9881253 11.4700937,14.0372457 C13.0454029,11.4514769 14.169473,8.12099331 13.9789499,5.07379988 C13.8637154,3.23407261 12.4011749,1.77366884 10.5577525,2.02909437 C9.54530029,2.16808566 8.0952531,2.51589563 8.00007372,3.72584969 C7.99497776,3.7878816 8.25569365,3.70445365 8.28199538,3.66265675" id="Fill-44"></path>
                    <path d="M7.5952428,3.82793146 C7.89413553,2.56703731 8.92942584,1.05612777 9.92799551,0.258102342 C9.97728718,0.224778586 10.0012714,0.176973827 9.99994811,0.117130643 C9.99862484,0.111722075 9.99862484,0.106487978 9.99746698,0.10107941 C9.9696784,-0.10514404 9.34426976,0.0639173162 9.25726501,0.0890409852 C8.50068762,0.30852415 8.21568919,0.826001944 7.79819874,1.4736343 C7.28626017,2.27043844 7.11737833,3.02327617 7.00010387,3.97029891 C6.99117183,4.0446231 7.5611687,3.97291596 7.5952428,3.82793146" id="Fill-45"></path>
                    <path d="M5.39566017,3.28877658 C6.4415603,2.68497658 7.54527571,3.29037658 8.60415478,3.46877658 C8.72888743,3.49017658 9.16831719,3.25677658 8.93065092,3.09377658 C7.88593069,2.36937658 6.16141751,2.33897658 5.10776372,3.02517658 C4.80840536,3.21877658 5.20805552,3.39717658 5.39566017,3.28877658" id="Fill-46"></path>
                </g>
                <g id="Group-106" transform="translate(234.000000, 1.000000)">
                    <g id="Group-54" transform="translate(68.999425, 241.000000)" fill="#3D1818" fill-opacity="0.5">
                        <path d="M5.68539168,3.56571356 C5.1099804,2.52474041 3.99443877,1.94347515 2.81244876,2.47422306 C0.98638415,3.29260413 0.18916187,4.95936095 0.019085674,6.89212319 C-0.243860035,9.87675137 2.22991801,16.6812806 6.21840257,14.6160681 C6.51393962,14.4632532 6.11113591,14.3825833 5.95434939,14.4463614 C3.12475612,15.6017879 1.4048507,10.8468424 0.924840299,9.03200656 C0.640219763,7.951251 0.630568927,6.8223461 0.793367444,5.72485667 C1.09017018,3.71979147 3.45399199,1.86154233 5.3332153,3.68364 C5.4031443,3.74994402 5.74203101,3.66801119 5.68539168,3.56571356" id="Fill-48"></path>
                        <path d="M5.92966856,14.5199273 C6.39037729,15.145711 7.91251969,15.139712 8.43002596,14.5704447 C8.56023313,14.4272595 8.11281407,14.5222953 8.06819874,14.5379241 C7.43852129,14.7630421 7.03334441,14.6402217 6.46884965,14.3538515 C6.38436529,14.310596 5.87176355,14.4417833 5.92966856,14.5199273" id="Fill-50"></path>
                        <path d="M7.49737556,3.94301501 C9.26078884,2.36166409 10.6272522,2.27373233 11.5956581,3.68190346 C11.7826629,4.00916117 11.9044849,4.35946742 11.9636556,4.73250648 C12.2856138,6.00333356 12.0179217,7.49217459 11.7682657,8.73284913 C11.5896461,9.61737636 10.4475252,14.732258 8.79517559,14.2700243 C8.58174974,14.2098771 7.77487663,14.5529215 8.04019549,14.6250665 C8.97252947,14.8778112 10.0097569,14.7226282 10.5657083,13.8175783 C12.0818388,11.3564361 13.1636816,8.18647242 12.9803157,5.28614506 C12.8694102,3.53508741 11.4618121,2.14507095 9.68764054,2.3881857 C8.7132226,2.52047801 7.31764853,2.85152452 7.2260447,4.00316223 C7.22114018,4.06220439 7.47206189,3.98279743 7.49737556,3.94301501" id="Fill-51"></path>
                        <path d="M6.69002781,3.46357379 C6.97591403,2.32267101 7.96615302,0.955545227 8.92126929,0.233462856 C8.968416,0.203310312 8.99135651,0.160054831 8.99009082,0.105906547 C8.98882514,0.101012678 8.98882514,0.0962766769 8.98771767,0.0913828086 C8.96113832,-0.0950577863 8.36294474,0.0577571975 8.27972606,0.0806478717 C7.55607162,0.279086337 7.28347508,0.747319025 6.88415199,1.33347815 C6.39449076,2.05429759 6.23295793,2.73549248 6.12078674,3.59239303 C6.11224338,3.65980212 6.65743647,3.59476103 6.69002781,3.46357379" id="Fill-52"></path>
                        <path d="M5.10649977,2.8834136 C6.0881954,2.40697184 7.12415719,2.88467653 8.11803502,3.02549364 C8.23511072,3.04238538 8.64756528,2.85815492 8.42448859,2.72949355 C7.44390044,2.15785816 5.82524969,2.13370455 4.83627638,2.67534526 C4.55529469,2.82816025 4.93041158,2.96897736 5.10649977,2.8834136" id="Fill-53"></path>
                    </g>
                    <path d="M41.9118896,26.1335699 C21.5702059,41.4602762 18.8118017,71.6518944 17.2929851,95.0081431 C15.0413961,129.623574 16.0683852,164.909702 17.8071313,199.525132 C18.7062355,217.434154 20.2972216,235.303733 22.5984984,253.08777 C24.2663783,265.968021 26.2014318,277.532847 37.8692602,284.938764 C47.3366535,290.948909 59.0095321,292.990706 69.0655219,297.857484 C70.4688348,298.538083 71.8188759,299.311366 73.1651701,300.096011 C72.5342169,299.728361 68.404756,300.076208 67.4659016,299.982063 C62.5552839,299.488292 57.7290539,298.344925 52.9339399,297.225094 C45.5444727,295.499005 38.2133276,293.554923 30.6537816,292.717201 C30.0899476,292.655358 27.9002647,293.6317 29.1299148,293.760418 C44.5943774,295.368988 59.199486,301.15757 74.9013096,300.996713 C75.0243072,300.995576 76.2935446,300.63166 75.9370959,300.395325 C60.6575369,290.23747 37.1017878,289.95033 28.5760184,271.644116 C25.8361859,265.760092 25.4487843,258.882682 24.6042551,252.551959 C23.5660251,244.766218 22.7226363,236.954344 21.9774827,229.136464 C20.4326004,212.928696 19.5732464,196.660546 19.0516063,180.390935 C18.1151955,151.181827 17.6754994,121.658309 19.4478051,92.4714388 C20.8586119,69.2452067 24.3359412,42.4861254 42.7811812,26.1373032 C43.0433045,25.9047016 42.0720308,26.0123184 41.9118896,26.1335699" id="Fill-55" fill="#3D1818"></path>
                    <path d="M29.0162116,293.463337 C28.4268893,293.565385 27.8388799,293.666276 27.2497216,293.767167 C27.0119249,293.797434 26.1974424,294.11003 26.5302593,294.489611 C28.2368489,296.432667 30.0883483,297.897733 32.1902811,299.391909 C33.7578687,300.506503 35.4318001,301.482332 37.0732376,302.479662 C39.1625338,303.749396 43.1860414,304.966205 36.5789355,305.057007 C27.0281719,305.188165 17.9590738,297.932962 11.8600553,291.253003 C11.4010371,290.749872 10.4839852,291.092901 10.0597585,291.454619 C6.41157256,294.577931 3.14888322,298.433612 0.171254561,302.204941 C-0.54065864,303.106342 1.16839255,302.998008 1.6211746,302.593288 C5.27444795,299.322443 8.07680614,295.191876 11.7499369,291.908627 C11.149455,291.975446 10.5489731,292.043589 9.94964004,292.110408 C18.6233949,300.957865 29.5016518,308.183958 42.3077197,305.391104 C42.661707,305.312872 43.318643,304.83637 42.8194176,304.494665 C40.8340036,303.130324 38.7872121,301.878287 36.7317228,300.626249 C35.7470572,300.027355 27.0294848,294.643428 29.1238684,293.664953 C29.3314687,293.567866 29.1939438,293.425461 29.0162116,293.463337" id="Fill-57" fill="#3D1818"></path>
                    <path d="M0.0639517091,7.82126448 C2.75061593,11.1083448 5.99067781,9.87944856 8.61701829,7.12078024 C8.13878335,7.13230741 7.66167746,7.145004 7.18328123,7.15786765 C8.96008936,12.7856312 13.5772743,10.8893286 15.5115048,6.35547657 C14.9987531,6.45604693 14.4871304,6.55544786 13.9743787,6.65468174 C17.7886451,10.5276429 21.9496923,10.0590385 25.366693,5.88937807 C24.7778108,5.90458056 24.1887673,5.91995012 23.6010142,5.93515262 C25.1244303,10.9658423 29.3248331,12.0941682 33.598947,9.9990638 C33.1231315,9.92138072 32.6471547,9.84369763 32.1702101,9.76484512 C34.1092794,15.5302664 38.6550113,16.8139585 42.6500877,12.2776005 C42.0107206,12.292803 41.3700632,12.309342 40.7306962,12.325881 C41.3184493,18.8198527 48.1734189,21.6229591 51.9004256,15.9148395 C52.4438231,15.0832128 50.6031428,15.2143552 50.2342648,15.6333427 C45.9638606,20.4958026 43.2009046,15.174929 42.8431559,11.7401672 C42.7583155,10.9300914 41.2102214,11.4548281 40.922474,11.7872783 C37.0344965,13.8491377 34.7891311,12.9881084 34.1879905,9.20569398 C33.9986321,8.65172171 33.1476481,8.77902173 32.7590923,8.97130825 C28.6977244,10.1315427 26.2926785,8.93956677 25.5437932,5.39521342 C25.3299181,4.71511055 24.0953784,5.03603357 23.7781143,5.43981854 C21.0175777,5.60921778 18.2559121,5.77844996 15.4955368,5.94784921 C15.1240781,5.59000584 14.173576,5.73518132 13.9584106,6.24722143 C13.4100131,8.62616147 11.6762703,8.7842006 8.76089201,6.71966823 C8.57895305,6.15416879 7.60135373,6.44585624 7.32715495,6.75541916 C5.26017999,6.94636919 3.19207597,7.13748628 1.12510101,7.32843631 C0.823804931,6.9923108 -0.274119264,7.40745588 0.0639517091,7.82126448" id="Fill-58" fill="#3D1818"></path>
                    <path d="M26.224262,52.7952899 C29.0271221,55.0315055 33.5512946,54.0490646 34.9413869,50.7213137 C35.3253082,49.8017608 33.7134642,49.8580057 33.2915417,50.3521049 C32.6286324,51.1263952 32.1171022,51.9186958 31.1753612,52.4352338 C29.9128778,53.126264 28.6336614,52.5939301 27.5929297,51.812849 C26.9645811,51.3401555 25.4267065,52.1594713 26.224262,52.7952899" id="Fill-59" fill="#3D1818"></path>
                    <path d="M33.0069639,50.7396018 C35.2123487,53.8084758 40.9179539,50.6192629 41.9923369,48.113606 C42.1196864,47.8168209 40.6200591,48.1790643 40.4443511,48.3216315 C39.5888718,49.0157651 38.9225237,49.8642699 38.0630862,50.5631558 C36.6737712,51.6908163 35.5940533,51.2631147 34.2388129,50.4018862 C34.0446908,50.2780214 32.9006098,50.5912093 33.0069639,50.7396018" id="Fill-60" fill="#3D1818"></path>
                    <path d="M40.0187097,48.7184125 C40.695305,50.5943795 41.8666854,52.1594216 43.9843723,51.986985 C45.9135533,51.8294569 48.329622,50.4765478 48.9734262,48.4732291 C49.2103462,47.7351644 47.7915733,48.0378266 47.5520781,48.2090059 C46.5365841,48.9388081 45.8062526,50.0930558 44.5850846,50.4806791 C43.2868318,50.8900365 41.794751,49.200337 41.0997858,48.3130067 C40.8577154,48.0035189 39.8511489,48.2540909 40.0187097,48.7184125" id="Fill-61" fill="#3D1818"></path>
                    <path d="M48.0054904,49.3572914 C50.2750896,53.9356274 55.8445982,47.7675557 56.9917318,45.1202256 C57.1242246,44.814283 55.6233631,45.1632702 55.4281922,45.3803798 C54.6642639,46.2393858 54.0373277,47.222381 53.3394907,48.1441533 C52.8321703,48.8134886 52.2525529,49.4370354 51.591485,49.9194439 C50.8179379,50.4855407 49.5702711,49.4816235 48.9433349,49.0383153 C48.8026194,48.9402216 47.9226436,49.1900862 48.0054904,49.3572914" id="Fill-62" fill="#3D1818"></path>
                    <path d="M56.0196933,44.2247557 C56.9221402,46.2597883 59.1443974,46.2833833 61.100484,45.5909541 C62.964978,44.9313728 66.3423738,43.3113351 66.981086,41.3480129 C67.1693055,40.7660022 65.8954539,41.0634846 65.6986272,41.1809971 C63.276945,42.6341732 60.0915039,46.7983101 57.1352067,43.8555629 C56.8974557,43.6193042 55.843816,43.8285751 56.0196933,44.2247557" id="Fill-63" fill="#3D1818"></path>
                    <path d="M65.0230605,42.3264966 C66.4634202,45.9259058 70.8932522,42.9590875 71.940228,40.5221139 C72.3113392,39.6583873 70.8440984,40.0704117 70.567762,40.3200867 C69.9318348,40.9012179 69.3768577,41.5696746 68.7573663,42.170558 C67.8171464,43.0859175 67.026692,42.3833275 66.1308641,41.7902411 C65.8943115,41.6330897 64.8310535,41.8482849 65.0230605,42.3264966" id="Fill-64" fill="#3D1818"></path>
                    <path d="M72.0125614,41.2172597 C73.9953059,46.3573704 81.2953968,39.014768 81.9869646,36.3471926 C82.1549302,35.6987834 80.6480881,36.1186824 80.4333612,36.3274148 C79.4021088,37.3353244 78.7130432,38.667895 77.7986161,39.7791058 C77.2537445,40.4401423 76.6313022,41.0640574 75.914868,41.5524181 C74.794159,42.3167559 73.8545527,41.6161637 72.9151027,40.9190706 C72.7338437,40.7845812 71.8874473,40.8912294 72.0125614,41.2172597" id="Fill-65" fill="#3D1818"></path>
                    <path d="M80.0815827,36.7278696 C79.0832616,40.6413735 87.5686462,41.3096305 87.9960298,37.2793137 C88.0802297,36.4875012 86.800322,36.7152954 86.5137317,37.1112928 C85.8415127,38.0392351 85.052311,38.5394711 83.92769,38.4490824 C82.653131,38.3463016 82.2072856,37.5349899 81.7797294,36.415336 C81.4838219,35.6455739 80.2513629,36.0610705 80.0815827,36.7278696" id="Fill-66" fill="#3D1818"></path>
                    <path d="M87.1164844,38.1177976 C90.4710998,40.329103 95.1463488,38.1012942 95.9853767,34.5594379 C96.1792159,33.7369127 94.3859538,33.9042825 94.1578685,34.5262753 C93.6712756,35.8437481 93.0970726,36.9368675 91.6801844,37.5457822 C90.4674425,38.0656405 88.8515615,37.7701355 87.5867855,37.6027657 C87.3382524,37.570693 86.7515812,37.8769408 87.1164844,38.1177976" id="Fill-67" fill="#3D1818"></path>
                    <path d="M94.0075493,34.5182559 C94.9280408,36.1795651 97.6547066,36.3417093 99.3033179,35.5104597 C100.121065,35.0988513 100.665894,34.4830007 101.182472,33.7991684 C101.554268,33.3058929 103.218181,31.6004031 102.976035,31.0968634 C102.849077,30.8337137 101.886378,31.1807619 101.718389,31.2668917 C100.483948,31.9020807 99.9263396,33.0824611 99.2071321,34.1314898 C99.0557908,34.3526902 98.8904925,34.5636265 98.7213265,34.7733728 C98.5994127,34.9230215 97.930316,35.4005289 98.2597356,35.384612 C97.2072408,35.433404 96.0355228,34.5420569 95.098552,34.2222311 C94.949733,34.1712077 93.9012741,34.3254679 94.0075493,34.5182559" id="Fill-68" fill="#3D1818"></path>
                    <path d="M101.341562,31.4885548 C103.998221,32.3448606 106.607761,32.1577142 109.004182,30.6855976 C110.132712,29.9917239 111.07826,28.9431583 112.008657,28.0062329 C113.208116,26.8005188 114.613202,25.8596731 115.812661,24.6733895 C116.476493,24.0171838 115.192119,23.9081003 114.812501,24.0613286 C112.897096,24.8371853 111.408262,26.4729272 109.972707,27.9373739 C107.533163,30.4256719 105.53917,30.9894975 102.12211,30.4321488 C101.580155,30.3424957 100.426483,31.1935179 101.341562,31.4885548" id="Fill-69" fill="#3D1818"></path>
                    <path d="M113.149054,25.1891877 C115.794352,27.4020602 120.767368,24.709956 121.948957,21.6238896 C122.249967,20.8359651 121.135734,20.9265747 120.796942,21.1813496 C119.890351,21.8590267 119.159658,22.7938903 118.27784,23.5189394 C116.824816,24.713918 115.488541,24.7585338 113.797062,24.3566475 C113.438142,24.271378 112.679268,24.7952255 113.149054,25.1891877" id="Fill-70" fill="#3D1818"></path>
                    <path d="M121.046852,21.770767 C122.492379,23.2317741 124.747381,23.2353117 126.647444,22.5845567 C128.293151,22.0216252 131.542945,20.2640793 130.922253,18.2215301 C130.782358,17.7630332 129.819114,18.1195564 129.635285,18.3668772 C128.745209,19.5676439 128.225103,20.6556704 126.83887,21.4753048 C125.276241,22.3979895 123.322169,22.280789 121.782168,21.4142437 C121.590906,21.3064254 120.801416,21.5222158 121.046852,21.770767" id="Fill-71" fill="#3D1818"></path>
                    <path d="M131.018571,18.72145 C131.7148,20.4808361 134.190207,20.106935 135.631364,19.4702925 C136.708547,18.9944454 137.63306,18.2297017 138.475711,17.4615399 C138.95567,17.0265603 140.291736,15.9932795 139.942501,15.2853046 C139.747057,14.8920842 139.18043,14.9805068 138.828632,15.1084594 C137.70515,15.514163 137.01501,16.7320166 136.18101,17.5034478 C135.677822,17.9680006 135.107511,18.3735555 134.474882,18.6761242 C133.528421,19.1270049 132.78942,18.7315554 131.921137,18.342942 C131.696377,18.2421848 130.866061,18.3372948 131.018571,18.72145" id="Fill-72" fill="#3D1818"></path>
                    <path d="M139.002768,15.0991378 C138.894779,17.5672553 141.974043,17.1543931 143.378216,16.4936194 C145.384672,15.5491949 147.466847,13.711125 148.820489,11.9222168 C149.53202,10.9803798 147.935954,10.7769405 147.381526,11.2342748 C146.203091,12.2082934 145.199863,13.3893091 144.016548,14.3668854 C143.39018,14.883408 142.725401,15.3297456 141.983645,15.6502677 C141.080063,16.0411365 140.673293,15.2361117 140.086437,14.6972723 C139.812844,14.4458031 139.020714,14.6898333 139.002768,15.0991378" id="Fill-73" fill="#3D1818"></path>
                    <path d="M148.09932,12.0544626 C149.113918,13.5457447 150.566723,14.0988805 152.100987,13.9857568 C153.650553,13.8712678 155.750388,13.4000492 156.843818,11.8744399 C157.354054,11.1607855 156.486761,10.9064523 156.063702,11.0299131 C153.86726,11.6721826 151.587196,13.6067925 149.556917,11.2173474 C149.118556,10.6999041 147.600831,11.3213041 148.09932,12.0544626" id="Fill-74" fill="#3D1818"></path>
                    <path d="M155.339368,11.9995754 C157.014331,11.9480546 158.659158,11.463928 159.774996,10.1851985 C160.736029,9.08535594 161.343712,6.54462008 160.788549,5.17838966 C160.592933,4.69544546 158.577881,5.29426925 158.510896,5.77586209 C158.383643,6.67215519 158.562039,7.59936077 158.424281,8.51372838 C158.31132,9.26441186 157.74944,11.1458503 156.738643,11.1882494 C156.221535,11.2102091 155.67808,11.3260887 155.226407,11.5862265 C154.891656,11.7806542 154.927128,12.0112309 155.339368,11.9995754" id="Fill-75" fill="#3D1818"></path>
                    <path d="M159.4702,5.97654635 C162.645027,6.30751018 164.660501,3.06634711 165.929728,0.635153323 C166.407607,-0.280261461 164.303211,-0.114699174 163.983825,0.55301514 C163.299792,1.98183376 161.99522,5.11642615 160.079864,5.01467768 C159.449409,4.98044004 158.376579,5.86258163 159.4702,5.97654635" id="Fill-76" fill="#3D1818"></path>
                    <path d="M32.4650594,278.902584 C38.3803258,277.815181 43.070902,281.756115 48.8805299,281.379287 C55.1358252,280.97279 61.3141298,281.292288 67.5568917,281.062303 C74.3643068,280.811867 80.8255076,278.450324 87.6750804,278.569172 C94.0433389,278.680309 100.535466,278.224026 106.871333,278.902584 C113.268077,279.587679 119.507095,281.30771 125.944857,281.91972 C132.106884,282.50625 138.313836,282.432159 144.485956,282.085839 C152.113575,281.659058 159.026465,280.069442 166.646597,281.843114 C172.26269,283.149104 177.114572,283.187491 182.859743,282.747802 C183.99263,282.660971 184.611811,281.236133 183.115456,281.351126 C175.667699,281.91972 169.205196,280.342844 161.948696,279.42793 C156.276609,278.710985 150.384945,280.266238 144.740204,280.691677 C137.262823,281.256584 129.734495,280.906409 122.292923,280.048992 C115.921084,279.315452 109.771264,277.442041 103.34864,277.204345 C97.7063408,276.995983 91.6558116,276.877135 86.027348,277.197975 C79.2223745,277.583854 72.7759859,279.780619 65.9239715,279.743573 C59.7617813,279.711557 53.5958474,280.143534 47.457259,280.083355 C41.8460491,280.028541 38.1296582,276.865736 32.4440619,278.197205 C31.8968253,278.326279 31.8012786,279.024114 32.4650594,278.902584" id="Fill-77" fill="#3D1818"></path>
                    <path d="M81.8003779,14.4242986 C81.6152082,13.550603 81.1029331,12.9721872 80.4641393,12.6399766 C80.3223714,12.3179137 80.0297864,12.0527441 79.5699621,12.0084937 C79.0908668,11.9614153 78.7217003,12.1136299 78.4291153,12.3761379 C78.1660235,12.4293714 77.9066182,12.5030666 77.6626299,12.6183505 C76.5499356,11.7624549 74.8929595,11.8993649 73.6896075,12.6196813 C66.8028007,10.7338829 67.8298645,25.7138032 74.6221592,24.7714031 C74.7704626,24.7511078 74.8879323,24.6903883 74.9914933,24.6141977 C75.7566382,25.0542063 76.7262239,25.1493613 77.5156671,24.7346386 C77.5808535,24.7005359 77.6242553,24.6497977 77.6767061,24.6053809 C78.10201,24.7271527 78.5799323,24.6433098 78.9822786,24.2287536 C81.3328452,21.8077917 82.4953091,17.7063132 81.8003779,14.4242986" id="Fill-78" fill="#AB2430"></path>
                    <path d="M74.3941785,13.3192916 C73.8482406,12.2558617 72.7898384,11.6620569 71.6683915,12.2042545 C69.9358603,13.0402904 69.1794728,14.743004 69.0181081,16.7174614 C68.7686308,19.7664766 71.1156987,26.7177989 74.8998879,24.608034 C75.1802872,24.4519223 74.7981156,24.3695122 74.6493599,24.4346662 C71.964702,25.6150186 70.3328924,20.7574952 69.8774688,18.9035082 C69.6074269,17.8005666 69.5982704,16.646179 69.7527301,15.5248523 C70.0343302,13.4766934 72.277074,11.5783565 74.0600411,13.4397621 C74.1263882,13.5073352 74.4479167,13.4237961 74.3941785,13.3192916" id="Fill-79" fill="#3D1818"></path>
                    <path d="M75.0053959,24.8106415 C75.551999,25.6034415 77.3579289,25.5958415 77.9719188,24.8746415 C78.1264018,24.6932415 77.5955661,24.8136415 77.5426327,24.8334415 C76.7955585,25.1186415 76.3148406,24.9630415 75.6451017,24.6002415 C75.5448661,24.5454415 74.9366951,24.7114415 75.0053959,24.8106415" id="Fill-80" fill="#3D1818"></path>
                    <path d="M77.2819954,13.6626567 C79.1142396,12.0012298 80.5340398,11.9088453 81.5402453,13.3883231 C81.7345493,13.7321524 81.8611264,14.1001974 81.9226067,14.4921263 C82.2571318,15.8273052 81.978991,17.3913719 81.7195902,18.6950373 C81.5339986,19.624355 80.3472975,24.9982428 78.6304521,24.5126026 C78.4086957,24.4494097 77.5703281,24.809825 77.8460031,24.8856234 C78.8147286,25.1511664 79.892442,24.9881253 80.4700937,24.0372457 C82.0454029,21.4514769 83.169473,18.1209933 82.9789499,15.0737999 C82.8637154,13.2340726 81.4011749,11.7736688 79.5577525,12.0290944 C78.5453003,12.1680857 77.0952531,12.5158956 77.0000737,13.7258497 C76.9949778,13.7878816 77.2556936,13.7044537 77.2819954,13.6626567" id="Fill-81" fill="#3D1818"></path>
                    <path d="M76.5952428,13.8279315 C76.8941355,12.5670373 77.9294258,11.0561278 78.9279955,10.2581023 C78.9772872,10.2247786 79.0012714,10.1769738 78.9999481,10.1171306 C78.9986248,10.1117221 78.9986248,10.106488 78.997467,10.1010794 C78.9696784,9.89485596 78.3442698,10.0639173 78.257265,10.089041 C77.5006876,10.3085241 77.2156892,10.8260019 76.7981987,11.4736343 C76.2862602,12.2704384 76.1173783,13.0232762 76.0001039,13.9702989 C75.9911718,14.0446231 76.5611687,13.972916 76.5952428,13.8279315" id="Fill-82" fill="#3D1818"></path>
                    <path d="M74.3956602,12.2887766 C75.4415603,11.6849766 76.5452757,12.2903766 77.6041548,12.4687766 C77.7288874,12.4901766 78.1683172,12.2567766 77.9306509,12.0937766 C76.8859307,11.3693766 75.1614175,11.3389766 74.1077637,12.0251766 C73.8084054,12.2187766 74.2080555,12.3971766 74.3956602,12.2887766" id="Fill-83" fill="#3D1818"></path>
                    <path d="M81.8003779,95.4242986 C81.6152082,94.550603 81.1029331,93.9721872 80.4641393,93.6399766 C80.3223714,93.3179137 80.0297864,93.0527441 79.5699621,93.0084937 C79.0908668,92.9614153 78.7217003,93.1136299 78.4291153,93.3761379 C78.1660235,93.4293714 77.9066182,93.5030666 77.6626299,93.6183505 C76.5499356,92.7624549 74.8929595,92.8993649 73.6896075,93.6196813 C66.8028007,91.7338829 67.8298645,106.713803 74.6221592,105.771403 C74.7704626,105.751108 74.8879323,105.690388 74.9914933,105.614198 C75.7566382,106.054206 76.7262239,106.149361 77.5156671,105.734639 C77.5808535,105.700536 77.6242553,105.649798 77.6767061,105.605381 C78.10201,105.727153 78.5799323,105.64331 78.9822786,105.228754 C81.3328452,102.807792 82.4953091,98.7063132 81.8003779,95.4242986" id="Fill-84" fill="#AB2430"></path>
                    <path d="M74.3941785,94.3192916 C73.8482406,93.2558617 72.7898384,92.6620569 71.6683915,93.2042545 C69.9358603,94.0402904 69.1794728,95.743004 69.0181081,97.7174614 C68.7686308,100.766477 71.1156987,107.717799 74.8998879,105.608034 C75.1802872,105.451922 74.7981156,105.369512 74.6493599,105.434666 C71.964702,106.615019 70.3328924,101.757495 69.8774688,99.9035082 C69.6074269,98.8005666 69.5982704,97.646179 69.7527301,96.5248523 C70.0343302,94.4766934 72.277074,92.5783565 74.0600411,94.4397621 C74.1263882,94.5073352 74.4479167,94.4237961 74.3941785,94.3192916" id="Fill-85" fill="#3D1818"></path>
                    <path d="M75.0053959,104.810642 C75.551999,105.603442 77.3579289,105.595842 77.9719188,104.874642 C78.1264018,104.693242 77.5955661,104.813642 77.5426327,104.833442 C76.7955585,105.118642 76.3148406,104.963042 75.6451017,104.600242 C75.5448661,104.545442 74.9366951,104.711442 75.0053959,104.810642" id="Fill-86" fill="#3D1818"></path>
                    <path d="M77.2819954,94.6626567 C79.1142396,93.0012298 80.5340398,92.9088453 81.5402453,94.3883231 C81.7345493,94.7321524 81.8611264,95.1001974 81.9226067,95.4921263 C82.2571318,96.8273052 81.978991,98.3913719 81.7195902,99.6950373 C81.5339986,100.624355 80.3472975,105.998243 78.6304521,105.512603 C78.4086957,105.44941 77.5703281,105.809825 77.8460031,105.885623 C78.8147286,106.151166 79.892442,105.988125 80.4700937,105.037246 C82.0454029,102.451477 83.169473,99.1209933 82.9789499,96.0737999 C82.8637154,94.2340726 81.4011749,92.7736688 79.5577525,93.0290944 C78.5453003,93.1680857 77.0952531,93.5158956 77.0000737,94.7258497 C76.9949778,94.7878816 77.2556936,94.7044537 77.2819954,94.6626567" id="Fill-87" fill="#3D1818"></path>
                    <path d="M76.5952428,93.8279315 C76.8941355,92.5670373 77.9294258,91.0561278 78.9279955,90.2581023 C78.9772872,90.2247786 79.0012714,90.1769738 78.9999481,90.1171306 C78.9986248,90.1117221 78.9986248,90.106488 78.997467,90.1010794 C78.9696784,89.894856 78.3442698,90.0639173 78.257265,90.089041 C77.5006876,90.3085241 77.2156892,90.8260019 76.7981987,91.4736343 C76.2862602,92.2704384 76.1173783,93.0232762 76.0001039,93.9702989 C75.9911718,94.0446231 76.5611687,93.972916 76.5952428,93.8279315" id="Fill-88" fill="#3D1818"></path>
                    <path d="M74.3956602,93.2887766 C75.4415603,92.6849766 76.5452757,93.2903766 77.6041548,93.4687766 C77.7288874,93.4901766 78.1683172,93.2567766 77.9306509,93.0937766 C76.8859307,92.3693766 75.1614175,92.3389766 74.1077637,93.0251766 C73.8084054,93.2187766 74.2080555,93.3971766 74.3956602,93.2887766" id="Fill-89" fill="#3D1818"></path>
                    <path d="M81.8003779,175.424299 C81.6152082,174.550603 81.1029331,173.972187 80.4641393,173.639977 C80.3223714,173.317914 80.0297864,173.052744 79.5699621,173.008494 C79.0908668,172.961415 78.7217003,173.11363 78.4291153,173.376138 C78.1660235,173.429371 77.9066182,173.503067 77.6626299,173.618351 C76.5499356,172.762455 74.8929595,172.899365 73.6896075,173.619681 C66.8028007,171.733883 67.8298645,186.713803 74.6221592,185.771403 C74.7704626,185.751108 74.8879323,185.690388 74.9914933,185.614198 C75.7566382,186.054206 76.7262239,186.149361 77.5156671,185.734639 C77.5808535,185.700536 77.6242553,185.649798 77.6767061,185.605381 C78.10201,185.727153 78.5799323,185.64331 78.9822786,185.228754 C81.3328452,182.807792 82.4953091,178.706313 81.8003779,175.424299" id="Fill-90" fill="#AB2430"></path>
                    <path d="M74.3941785,174.319292 C73.8482406,173.255862 72.7898384,172.662057 71.6683915,173.204255 C69.9358603,174.04029 69.1794728,175.743004 69.0181081,177.717461 C68.7686308,180.766477 71.1156987,187.717799 74.8998879,185.608034 C75.1802872,185.451922 74.7981156,185.369512 74.6493599,185.434666 C71.964702,186.615019 70.3328924,181.757495 69.8774688,179.903508 C69.6074269,178.800567 69.5982704,177.646179 69.7527301,176.524852 C70.0343302,174.476693 72.277074,172.578357 74.0600411,174.439762 C74.1263882,174.507335 74.4479167,174.423796 74.3941785,174.319292" id="Fill-91" fill="#3D1818"></path>
                    <path d="M75.0053959,185.810642 C75.551999,186.603442 77.3579289,186.595842 77.9719188,185.874642 C78.1264018,185.693242 77.5955661,185.813642 77.5426327,185.833442 C76.7955585,186.118642 76.3148406,185.963042 75.6451017,185.600242 C75.5448661,185.545442 74.9366951,185.711442 75.0053959,185.810642" id="Fill-92" fill="#3D1818"></path>
                    <path d="M77.2819954,174.662657 C79.1142396,173.00123 80.5340398,172.908845 81.5402453,174.388323 C81.7345493,174.732152 81.8611264,175.100197 81.9226067,175.492126 C82.2571318,176.827305 81.978991,178.391372 81.7195902,179.695037 C81.5339986,180.624355 80.3472975,185.998243 78.6304521,185.512603 C78.4086957,185.44941 77.5703281,185.809825 77.8460031,185.885623 C78.8147286,186.151166 79.892442,185.988125 80.4700937,185.037246 C82.0454029,182.451477 83.169473,179.120993 82.9789499,176.0738 C82.8637154,174.234073 81.4011749,172.773669 79.5577525,173.029094 C78.5453003,173.168086 77.0952531,173.515896 77.0000737,174.72585 C76.9949778,174.787882 77.2556936,174.704454 77.2819954,174.662657" id="Fill-93" fill="#3D1818"></path>
                    <path d="M76.5952428,174.827931 C76.8941355,173.567037 77.9294258,172.056128 78.9279955,171.258102 C78.9772872,171.224779 79.0012714,171.176974 78.9999481,171.117131 C78.9986248,171.111722 78.9986248,171.106488 78.997467,171.101079 C78.9696784,170.894856 78.3442698,171.063917 78.257265,171.089041 C77.5006876,171.308524 77.2156892,171.826002 76.7981987,172.473634 C76.2862602,173.270438 76.1173783,174.023276 76.0001039,174.970299 C75.9911718,175.044623 76.5611687,174.972916 76.5952428,174.827931" id="Fill-94" fill="#3D1818"></path>
                    <path d="M74.3956602,173.288777 C75.4415603,172.684977 76.5452757,173.290377 77.6041548,173.468777 C77.7288874,173.490177 78.1683172,173.256777 77.9306509,173.093777 C76.8859307,172.369377 75.1614175,172.338977 74.1077637,173.025177 C73.8084054,173.218777 74.2080555,173.397177 74.3956602,173.288777" id="Fill-95" fill="#3D1818"></path>
                    <path d="M81.8003779,256.424299 C81.6152082,255.550603 81.1029331,254.972187 80.4641393,254.639977 C80.3223714,254.317914 80.0297864,254.052744 79.5699621,254.008494 C79.0908668,253.961415 78.7217003,254.11363 78.4291153,254.376138 C78.1660235,254.429371 77.9066182,254.503067 77.6626299,254.618351 C76.5499356,253.762455 74.8929595,253.899365 73.6896075,254.619681 C66.8028007,252.733883 67.8298645,267.713803 74.6221592,266.771403 C74.7704626,266.751108 74.8879323,266.690388 74.9914933,266.614198 C75.7566382,267.054206 76.7262239,267.149361 77.5156671,266.734639 C77.5808535,266.700536 77.6242553,266.649798 77.6767061,266.605381 C78.10201,266.727153 78.5799323,266.64331 78.9822786,266.228754 C81.3328452,263.807792 82.4953091,259.706313 81.8003779,256.424299" id="Fill-96" fill="#AB2430"></path>
                    <path d="M74.3941785,255.319292 C73.8482406,254.255862 72.7898384,253.662057 71.6683915,254.204255 C69.9358603,255.04029 69.1794728,256.743004 69.0181081,258.717461 C68.7686308,261.766477 71.1156987,268.717799 74.8998879,266.608034 C75.1802872,266.451922 74.7981156,266.369512 74.6493599,266.434666 C71.964702,267.615019 70.3328924,262.757495 69.8774688,260.903508 C69.6074269,259.799438 69.5982704,258.646179 69.7527301,257.524852 C70.0343302,255.476693 72.277074,253.578357 74.0600411,255.439762 C74.1263882,255.507335 74.4479167,255.423796 74.3941785,255.319292" id="Fill-97" fill="#3D1818"></path>
                    <path d="M75.0053959,265.810642 C75.551999,266.603442 77.3579289,266.595842 77.9719188,265.874642 C78.1264018,265.693242 77.5955661,265.813642 77.5426327,265.833442 C76.7955585,266.118642 76.3148406,265.963042 75.6451017,265.600242 C75.5448661,265.545442 74.9366951,265.711442 75.0053959,265.810642" id="Fill-98" fill="#3D1818"></path>
                    <path d="M77.2819954,255.662657 C79.1142396,254.00123 80.5340398,253.908845 81.5402453,255.388323 C81.7345493,255.732152 81.8611264,256.100197 81.9226067,256.492126 C82.2571318,257.827305 81.978991,259.391372 81.7195902,260.695037 C81.5339986,261.624355 80.3472975,266.998243 78.6304521,266.512603 C78.4086957,266.44941 77.5703281,266.809825 77.8460031,266.885623 C78.8147286,267.151166 79.892442,266.988125 80.4700937,266.037246 C82.0454029,263.451477 83.169473,260.120993 82.9789499,257.0738 C82.8637154,255.234073 81.4011749,253.773669 79.5577525,254.029094 C78.5453003,254.168086 77.0952531,254.515896 77.0000737,255.72585 C76.9949778,255.787882 77.2556936,255.704454 77.2819954,255.662657" id="Fill-99" fill="#3D1818"></path>
                    <path d="M76.5952428,254.827931 C76.8941355,253.567037 77.9294258,252.056128 78.9279955,251.258102 C78.9772872,251.224779 79.0012714,251.176974 78.9999481,251.117131 C78.9986248,251.111722 78.9986248,251.106488 78.997467,251.101079 C78.9696784,250.894856 78.3442698,251.063917 78.257265,251.089041 C77.5006876,251.308524 77.2156892,251.826002 76.7981987,252.473634 C76.2862602,253.270438 76.1173783,254.023276 76.0001039,254.970299 C75.9911718,255.044623 76.5611687,254.972916 76.5952428,254.827931" id="Fill-100" fill="#3D1818"></path>
                    <path d="M74.3956602,254.288777 C75.4415603,253.684977 76.5452757,254.290377 77.6041548,254.468777 C77.7288874,254.490177 78.1683172,254.256777 77.9306509,254.093777 C76.8859307,253.369377 75.1614175,253.338977 74.1077637,254.025177 C73.8084054,254.218777 74.2080555,254.397177 74.3956602,254.288777" id="Fill-101" fill="#3D1818"></path>
                    <path d="M35.2353923,32.96891 C38.1784434,30.9443058 40.5920417,28.1739566 43.4982859,26.0369642 C46.6445243,23.7221591 49.8225731,21.7382024 53.6428269,20.681528 C54.1228152,20.5480874 54.1329746,19.9926249 53.5883661,20 C50.0510755,20.045742 46.9124983,22.3803041 44.1941191,24.3493621 C40.8891615,26.7431952 37.3024065,29.475164 35.0233781,32.8578175 C34.9294456,32.9985455 35.1427922,33.0332012 35.2353923,32.96891" id="Fill-102" fill="#3D1818"></path>
                    <path d="M20.8892806,46.4848166 C27.487213,35.0497361 35.8739746,25.0419722 46.7718897,17.4605492 C47.6799545,16.8286558 45.6135708,16.939947 45.1689636,17.242834 C34.2188852,24.7030697 25.2139635,35.0807224 19.0209876,46.7606109 C18.7856838,47.2033418 20.6005133,46.9857888 20.8892806,46.4848166" id="Fill-103" fill="#3D1818"></path>
                    <path d="M19.9279796,47.2677685 C20.0143607,33.4471884 22.1158268,19.9651439 24.9885857,6.50431965 C25.1709456,5.65041351 23.1102312,5.98138233 22.9470671,6.7500788 C20.1031018,20.1344118 17.8096779,33.7406518 18.0124923,47.4985584 C18.0268105,48.3789486 19.9232594,47.9701725 19.9279796,47.2677685" id="Fill-104" fill="#3D1818"></path>
                    <path d="M51.0797724,15.5590429 C50.5719206,18.7431049 52.5445894,21.8926474 55.4118423,22.9750878 C55.8377335,23.1345643 57.510791,22.4880677 56.8455446,22.1808296 C55.422315,21.5223059 54.3392216,20.6149615 53.6033981,19.1824851 C52.9542403,17.9202627 52.9774624,16.5629167 52.6974306,15.209007 C52.6013546,14.7386999 51.1445819,15.1530887 51.0797724,15.5590429" id="Fill-105" fill="#3D1818"></path>
                </g>
                <g id="Group-115" transform="translate(336.000000, 34.000000)" fill="#3D1818" font-family="GurmukhiSangamMN, Gurmukhi Sangam MN" font-size="15" font-weight="normal">
                    <text id="K.E.-=-2-J">
                        <tspan x="0" y="73">K.E. = 2 J</tspan>
                    </text>
                    <text id="K.E.-=-0-J">
                        <tspan x="0" y="31">K.E. = 0 J</tspan>
                    </text>
                    <text id="P.E.-=-7-J">
                        <tspan x="0" y="15">P.E. = 7 J</tspan>
                    </text>
                    <text id="P.E.-=-5-J">
                        <tspan x="0" y="55">P.E. = 5 J</tspan>
                    </text>
                    <text id="P.E.-=-3-J">
                        <tspan x="0" y="135">P.E. = 3 J</tspan>
                    </text>
                    <text id="P.E.-=-1-J">
                        <tspan x="0" y="214">P.E. = 1 J</tspan>
                    </text>
                    <text id="K.E.-=-4-J">
                        <tspan x="0" y="153">K.E. = 4 J</tspan>
                    </text>
                    <text id="K.E.-=-6-J">
                        <tspan x="0" y="232">K.E. = 6 J</tspan>
                    </text>
                </g>
                <g id="Group-120" transform="translate(316.000000, 27.000000)">
                    <line x1="17" y1="15" x2="5" y2="4" id="Stroke-116" stroke="#3D1818"></line>
                    <polygon id="Fill-118" fill="#3D1818" points="0 0 9 3.16918128 4.95216197 4.25855863 3.98760585 8"></polygon>
                </g>
            </g>
        </g>
    </g>
</svg>