<svg style="scaling-svg" viewBox="0 0 543 363" version="1.1" xmlns="http://www.w3.org/2000/svg" xmlns:xlink="http://www.w3.org/1999/xlink">
    <g id="Page-1" stroke="none" stroke-width="1" fill="none" fill-rule="evenodd">
        <g id="viet-spi">
            <g id="Group-22" transform="translate(0.017920, 4.792600)" fill="#FFFFFF">
                <path d="M1.23435,0 L16.04656,0 C16.72828,0 17.28091,0.5605 17.28091,1.2522 L17.28091,11.2701 C17.28091,11.9619 16.72828,12.5224 16.04656,12.5224 L1.23435,12.5224 C0.55264,12.5224 0,11.9619 0,11.2701 L0,1.2522 C0,0.5605 0.55264,0 1.23435,0 Z" id="Fill-20"></path>
            </g>
            <g id="Group-25">
                <polygon id="Fill-23" fill="#EA403F" points="0 19 26 19 26 0 0 0"></polygon>
                <polygon id="Fill-26" fill="#FFFE4E" points="13.5 11.6835585 10.1011099 14 11.3550389 10.1940496 8 7.82007592 12.1742662 7.78387923 13.5 4 14.8252497 7.78387923 19 7.82007592 15.6449611 10.1940496 16.8988901 14"></polygon>
            </g>
            <g id="toColor" transform="translate(0.017920, 0.097968)">
                <text id="Việt-Nam" font-family="LucidaGrande, Lucida Grande" font-size="16.529568" font-weight="normal" letter-spacing="0.0263" fill="#B99C9A">
                    <tspan x="31.035184" y="16">Việt Nam</tspan>
                </text>
                <text id="Tóm-tắt-Báo-cáo-Quốc" font-family="LucidaGrande-Bold, Lucida Grande" font-size="12" font-weight="bold" letter-spacing="0.0048" fill="#B99C9A">
                    <tspan x="0" y="34.0739848">Tóm tắt Báo cáo Quốc gia theo tính toán về Chỉ số bảo vệ loài SPI</tspan>
                </text>
                <text id="THÀNH-PHẦN-LOÀI" font-family="LucidaGrande-Bold, Lucida Grande" font-size="10" font-weight="bold" letter-spacing="0.125275506" fill="#B99C9A">
                    <tspan x="10.68317" y="200.859305">THÀNH PHẦN LOÀI</tspan>
                </text>
                <g id="Group-42" transform="translate(8.627033, 216.856557)" fill="#B99C9A">
                    <path d="M14.8315234,10.045475 C14.5174092,10.045475 14.3079997,10.2676062 14.3079997,10.6009566 C14.3079997,10.7121758 14.3079997,10.934307 14.2032949,11.2676574 C14.0985902,11.8232926 13.9938855,12.3787742 13.8891807,12.8231902 C13.4703618,14.1565918 12.9468525,14.8232926 12.1092146,14.8232926 C11.4809717,14.8232926 11.0621672,14.4899422 10.8527433,13.934307 C10.7480385,13.7121758 10.7480385,13.489891 10.6433338,13.2677598 L10.6433338,12.9344094 C10.6433338,12.4899934 10.2245293,12.156643 9.9104151,12.4899934 C9.28218666,12.9344094 8.54925349,13.2677598 7.81632031,13.3788254 C7.08338713,13.2677598 6.35045396,12.9344094 5.72222552,12.4899934 C5.4081113,12.2677086 4.98929234,12.4899934 4.98929234,12.9344094 L4.98929234,13.2677598 C4.8845876,13.6011102 4.8845876,13.8232414 4.77988286,13.934307 C4.57047338,14.4899422 4.15165443,14.8232926 3.52342599,14.8232926 C2.79049281,14.8232926 2.16226438,14.1565918 1.74345989,12.8231902 C1.63874068,12.3787742 1.4293312,11.8232926 1.4293312,11.2676574 C1.4293312,10.934307 1.32462646,10.7121758 1.32462646,10.6011102 C1.32462646,10.2676062 1.11521698,10.045475 0.801117237,10.045475 C0.486988542,10.045475 0.277579063,10.3788254 0.382283803,10.7121758 C0.382283803,10.8232414 0.382283803,11.1565918 0.486988542,11.4899422 C0.591693282,12.0454238 0.696398021,12.7121246 0.905821977,13.2677598 C1.4293312,14.9343582 2.26696911,16.045475 3.52342599,16.045475 C4.57047338,16.045475 5.30340656,15.4899934 5.72222552,14.4899422 C5.82693026,14.2676574 5.82693026,14.1565918 5.931635,13.934307 C6.55986344,14.2676574 7.18809187,14.4899422 7.81632031,14.6010078 L7.92102505,14.6010078 C8.54925349,14.4899422 9.17748192,14.2676574 9.80571036,13.934307 C9.80571036,14.1565918 9.9104151,14.2676574 10.0151198,14.4899422 C10.4339388,15.3787742 11.166872,16.045475 12.2139049,16.045475 C13.4703618,16.045475 14.3079997,14.9343582 14.8315234,13.2677598 C15.0409329,12.7121246 15.1456376,12.156643 15.2503423,11.4899422 C15.3550471,11.1565918 15.3550471,10.8232414 15.3550471,10.7121758 C15.2503423,10.3788254 15.0409329,10.1565406 14.8315234,10.045475 Z" id="Fill-38"></path>
                    <path d="M16.2393384,3.67204634 C16.1332002,3.34234077 15.8147856,3.34234077 15.496371,3.45234392 L14.7534035,4.00175191 L14.5411271,3.23248956 C14.4349889,2.90278399 14.2227125,2.68292963 13.9042979,2.79293278 C13.6920215,2.90278399 13.4797451,3.23248956 13.5858833,3.56219513 L13.9042979,4.77101426 C13.9042979,5.10071983 13.7981597,5.32057419 13.6920215,5.4304254 C13.3736068,5.86998218 13.1613304,6.19968775 12.949054,6.19968775 C12.6306394,6.19968775 12.3122248,5.76013097 12.0999484,4.99086862 L12.0999484,4.88086547 C12.418363,3.8919007 12.0999484,2.90278399 11.3569809,2.24337285 L9.12807862,0.375142585 C8.59738759,-0.0644141949 7.96055835,-0.0644141949 7.53602021,0.375142585 L5.30711788,2.353376 C4.56415044,3.0126352 4.24573583,4.00175191 4.56415044,4.99086862 L4.56415044,5.10071983 C4.35187403,5.76013097 4.03345942,6.19968775 3.7150448,6.19968775 C3.50276839,6.19968775 3.18435377,5.97983339 2.97207736,5.4304254 C2.86593915,5.32057419 2.75980095,5.10071983 2.65366274,4.88086547 L2.97207736,3.67204634 C3.07821556,3.34234077 2.86593915,3.0126352 2.65366274,2.90278399 C2.44138633,2.79293278 2.12297171,3.0126352 2.01683351,3.34234077 L1.8045571,4.11160312 L1.16772786,3.45234392 C0.95545145,3.34234077 0.637036833,3.34234077 0.424775096,3.67204634 C0.318622216,4.00175191 0.318622216,4.33145748 0.530913301,4.5511599 L1.8045571,5.65012782 L1.9106953,5.65012782 C2.01683351,5.76013097 2.01683351,5.97983339 2.12297171,6.19968775 C2.54752454,6.96895009 3.07821556,7.51835808 3.7150448,7.51835808 C4.24573583,7.51835808 4.67028865,7.18880445 4.98870327,6.74909574 C5.20097968,7.62836123 5.30711788,8.39762358 5.30711788,9.05703472 C4.77642686,8.50747479 4.13959762,8.28762043 3.50276839,8.617326 C2.65366274,9.05703472 2.54752454,10.0459995 2.75980095,11.3648218 C2.86593915,11.6945273 2.97207736,12.1340841 3.07821556,12.5736409 C3.07821556,12.7934953 3.18435377,13.0133496 3.29049198,13.233052 C3.39663018,13.3429032 3.39663018,13.4529064 3.39663018,13.5627576 C3.50276839,13.8924632 3.821183,14.0023144 4.03345942,13.782612 C4.35187403,13.6726088 4.45801224,13.3429032 4.35187403,13.1232008 C4.35187403,13.1232008 4.24573583,13.0133496 4.24573583,12.7934953 C4.13959762,12.5736409 4.03345942,12.3539385 4.03345942,12.0242329 C3.92732121,11.6945273 3.821183,11.2549706 3.7150448,10.925265 C3.60890659,10.0459995 3.60890659,9.60644271 3.821183,9.4965915 C4.24573583,9.27673714 4.56415044,9.60644271 4.98870327,10.2658538 C4.98870327,10.2658538 4.98870327,10.3757051 4.88256506,10.3757051 C4.77642686,10.5955594 4.77642686,10.925265 5.09484147,11.1451193 C5.30711788,11.2549706 5.6255325,11.2549706 5.73167071,10.925265 C6.58077635,9.4965915 6.36849994,7.51835808 5.5193943,4.77101426 C5.5193943,4.66116305 5.5193943,4.44130869 5.41325609,4.44130869 C5.30711788,3.8919007 5.41325609,3.34234077 5.83780891,3.0126352 L8.06671123,1.14440493 C8.17284944,1.03455372 8.38512585,1.03455372 8.49124938,1.14440493 L10.8263046,3.12263835 C11.2508427,3.45234392 11.3569809,4.00175191 11.2508427,4.5511599 C11.1447045,4.66116305 11.1447045,4.77101426 11.1447045,4.88086547 C10.4017371,7.51835808 10.1894607,9.60644271 10.9324428,11.0351162 C11.038581,11.2549706 11.3569809,11.3648218 11.5692573,11.2549706 C11.7815484,11.1449674 11.8876866,10.8152618 11.7815484,10.4855563 C11.7815484,10.4855563 11.7815484,10.3757051 11.6753956,10.3757051 C12.0999484,9.71629392 12.418363,9.38658835 12.8429158,9.60644271 C13.0551922,9.71629392 13.1613304,10.1558507 12.949054,11.0351162 C12.8429158,11.3648218 12.8429158,11.6945273 12.6306394,12.1340841 C12.5245012,12.3539385 12.418363,12.683644 12.418363,12.9033465 C12.418363,13.0133496 12.3122248,13.1232008 12.3122248,13.233052 C12.2060866,13.5627576 12.3122248,13.8924632 12.5245012,14.0023144 C12.7367923,14.1123175 13.0551922,14.0023144 13.1613304,13.782612 C13.1613304,13.6726088 13.2674686,13.5627576 13.2674686,13.4529064 C13.3736068,13.233052 13.4797451,12.9033465 13.5858833,12.683644 C13.6920215,12.2440873 13.7981597,11.9143817 13.9042979,11.474673 C14.1165743,10.1558507 14.0104361,9.16688593 13.1613304,8.72732915 C12.5245012,8.39762358 11.887672,8.617326 11.3569809,9.16688593 C11.3569809,8.50747479 11.4631191,7.73821244 11.6753956,6.85909888 C11.9938102,7.40850687 12.418363,7.62836123 12.949054,7.62836123 C13.5858833,7.62836123 14.1165743,7.0788013 14.5411271,6.30953896 C14.6472653,6.08983654 14.7534035,5.97983339 14.7534035,5.76013097 L14.8595417,5.76013097 L16.1332002,4.66116305 C16.3454766,4.33145748 16.4516148,4.00175191 16.2393384,3.67204634 Z" id="Fill-40"></path>
                    <path d="M8.21669708,9.51363208 L8.21669708,5.577465 C8.21669708,5.25830042 8.07202708,5.045475 7.85504708,5.045475 C7.63805708,5.045475 7.49339708,5.25830042 7.49339708,5.577465 L7.49339708,9.51363208 C7.49339708,9.83279666 7.63805708,10.045475 7.85504708,10.045475 C8.07202708,10.045475 8.21669708,9.83279666 8.21669708,9.51363208 Z" id="Fill-41"></path>
                </g>
                <text id="44-loài-lưỡng-cư-đặc" font-family="LucidaGrande, Lucida Grande" font-size="9.517024" font-weight="normal" letter-spacing="-0.0002" fill="#B99C9A">
                    <tspan x="30.7318661" y="215.869554">44 loài lưỡng cư </tspan>
                    <tspan x="30.7318661" y="226.869554">đặc hữu trên </tspan>
                    <tspan x="30.7318661" y="237.869554">tổng số 169 loài</tspan>
                </text>
                <g id="Group-55" transform="translate(8.484340, 256.447632)" fill="#B99C9A">
                    <path d="M15.423106,3.47972287 C15.5289597,3.26207688 15.5289597,2.9358335 15.5289597,2.60943972 C15.5289597,0.651077005 13.8353142,-0.545599935 11.5065167,-0.545599935 C9.28360235,-0.545599935 7.48408837,1.08636899 7.48408837,3.15332909 C7.48408837,3.58847066 7.58994214,4.02376265 7.6957959,4.35000603 C4.09676795,5.32918738 1.97969268,7.39629789 1.02700882,10.3336915 C0.603593763,11.8567623 0.49774,13.1623374 0.49774,15.2292975 L0.49774,15.7733373 C0.49774,16.0997311 0.709462161,16.3172267 1.02700882,16.3172267 L1.45042387,16.3172267 C1.76799979,16.3172267 2.08554645,16.2084789 2.5089615,16.0997311 C3.56749913,15.8820851 4.62603677,15.4469435 5.57872063,14.9029037 C8.01335719,13.597479 9.601149,11.4216207 10.0245787,8.48422704 C10.0245787,8.15783325 9.91871029,7.94018726 9.601149,7.83143947 C9.28360235,7.83143947 9.07189482,7.94018726 9.07189482,8.26658104 C8.64847977,10.8777313 7.27238085,12.7271958 5.15530558,13.9238728 C4.30847548,14.4677621 3.24993784,14.7941559 2.29725397,15.0118019 C2.08554645,15.1205497 1.76799979,15.1205497 1.55627763,15.1205497 C1.55627763,13.1623374 1.6621314,11.9656605 2.08554645,10.6600853 C2.93237655,7.83143947 4.94359805,5.98197495 8.64847977,5.22043959 C8.96604106,5.11154139 9.17774858,4.67639981 8.96604106,4.35000603 C8.7543189,4.02376265 8.542626,3.47972287 8.542626,3.0445813 C8.542626,1.63025836 9.81287116,0.433581422 11.5065167,0.433581422 C13.3060307,0.433581422 14.4704221,1.19511678 14.4704221,2.50054152 L14.4704221,2.9358335 C14.2587146,2.9358335 14.0470071,3.0445813 13.7294458,3.15332909 C13.0943232,3.80611666 12.8826157,4.78529802 13.0943232,6.19947054 L13.0943232,6.30836874 C13.3060307,8.37532883 12.5650544,10.4424393 11.1889701,11.8567623 C10.2362862,12.9446914 9.17774858,13.7062268 7.90750342,14.2502666 C7.6957959,14.3590144 7.48408837,14.6854081 7.58994214,14.9029037 C7.6957959,15.2292975 8.01335719,15.3381957 8.22506471,15.2292975 L9.49530987,14.5766604 L9.49530987,15.8820851 C9.49530987,16.2084789 9.70700276,16.4261249 10.0245787,16.4261249 C10.34214,16.4261249 10.5538329,16.2084789 10.5538329,15.8820851 L10.5538329,14.2502666 C10.5538329,14.1413684 10.5538329,14.0326206 10.4479791,13.9238728 C10.7655404,13.7062268 10.9772626,13.4887312 11.1889701,13.2710852 L11.5065167,15.9908329 C11.5065167,16.3172267 11.824078,16.5348727 12.0358002,16.4261249 C12.3533468,16.4261249 12.4592006,16.0997311 12.4592006,15.7733373 L12.0358002,12.2919039 C13.3060307,10.8777313 13.9411533,9.02811641 14.0470071,7.0699041 C14.7879834,7.28739969 15.6348135,7.17865189 16.2699361,6.52586432 C16.3757898,6.41711653 16.4816436,6.19947054 16.4816436,6.09072275 C16.5874974,5.0027936 16.1640823,4.13251044 15.423106,3.47972287 Z M14.1528608,5.65558117 L14.1528608,5.54683338 C14.1528608,5.43793517 14.1528608,5.43793517 14.0470071,5.32918738 C14.0470071,4.78529802 14.1528608,4.45890423 14.3645683,4.35000603 C14.4704221,4.24125824 14.5762759,4.24125824 14.5762759,4.24125824 C15.1055447,4.45890423 15.5289597,5.11154139 15.6348135,5.76432896 C15.1055447,6.09072275 14.5762759,5.98197495 14.1528608,5.65558117 Z" id="Fill-52"></path>
                    <path d="M10.6939743,3.95433094 C10.8327078,4.15438624 10.9714605,4.25434476 11.2489659,4.35444154 C11.3877186,4.35444154 11.3877186,4.45440006 11.5264712,4.45440006 C11.6652239,4.45440006 11.6652431,4.45440006 11.8039958,4.35444154 C12.081482,4.25434476 12.2202346,4.15438624 12.3589873,3.95433094 C12.49774,3.85437241 12.49774,3.65431711 12.49774,3.45440006 L12.49774,3.35444154 C12.49774,3.15438624 12.3589873,3.05442772 12.3589873,2.85437241 C12.3589873,2.85437241 12.3589873,2.75441389 12.2202346,2.75441389 C12.081482,2.55435859 11.8039958,2.55435859 11.6652239,2.45440006 L11.3877186,2.45440006 C11.1102132,2.45440006 10.8327078,2.65445537 10.6939743,2.85437241 C10.5552217,2.95433094 10.5552217,3.15438624 10.5552217,3.35444154 L10.5552217,3.45440006 C10.4164498,3.75441389 10.5552217,3.85437241 10.6939743,3.95433094 Z" id="Fill-54"></path>
                </g>
                <text id="12-loài-chim-đặc-hữu" font-family="LucidaGrande, Lucida Grande" font-size="9.517024" font-weight="normal" letter-spacing="-0.0002" fill="#B99C9A">
                    <tspan x="30.376436" y="257.191682">12 loài chim đặc </tspan>
                    <tspan x="30.376436" y="268.191682">hữu trên tổng số </tspan>
                    <tspan x="30.376436" y="279.191682">1573 loài</tspan>
                </text>
                <g id="Group-66" transform="translate(8.909280, 298.047114)" fill="#B99C9A">
                    <path d="M12.5196065,3.27635243 C13.157905,2.10029922 12.3068403,0.389582294 12.200472,0.175687246 C12.0940742,-0.038059982 11.9876911,-0.145081416 11.7749249,-0.145081416 C11.5621588,-0.145081416 11.3494073,-0.038059982 11.3494073,0.0688136322 C11.0302581,0.603477342 10.3919596,0.924246005 9.64726326,0.924246005 L3.7962084,0.924246005 C1.56216366,0.924246005 0.0728004984,2.20717283 0.0728004984,4.13178481 C0.0728004984,6.05624896 1.56216366,7.33917579 3.7962084,7.33917579 L5.0728005,7.33917579 C4.54088999,7.98071311 4.32812382,8.72912405 4.32812382,9.47753499 L4.32812382,10.3329674 C3.47705916,10.9745047 3.05152682,11.9366629 3.26429299,12.7920952 C3.7962084,14.2889171 4.96642232,16.8549186 6.9877009,16.8549186 C9.00896477,16.8549186 10.1791934,14.2889171 10.7110941,12.7920952 C10.9238603,12.0436843 10.604711,11.1882519 9.96641251,10.5468624 L11.3494073,10.5468624 C13.3706712,10.5468624 15.0728005,8.83599767 15.0728005,6.8046599 C14.9664174,5.20081659 13.9025866,3.81101615 12.5196065,3.27635243 Z M11.2430242,9.47753499 L10.1791934,9.47753499 C9.54089489,9.47753499 9.11536256,9.69143004 8.90258168,9.90517727 L8.7961986,9.90517727 C8.47706406,9.79830365 8.26429789,9.90517727 8.05151702,10.2259459 C7.94513393,10.5468624 8.05151702,10.7606096 8.37068098,10.9745047 C9.32812872,11.402147 9.86002943,12.1505579 9.64726326,12.6852216 C9.43451181,13.4336326 8.37068098,16.1065076 6.9877009,16.1065076 C5.60472082,16.1065076 4.54088999,13.5405062 4.32812382,12.6852216 C4.22174074,12.2574315 4.64727307,11.402147 5.60472082,10.9745047 C5.92387007,10.8676311 6.03025315,10.5468624 5.92387007,10.2259459 C5.81748698,10.0121987 5.60472082,9.90517727 5.39195465,9.90517727 L5.39195465,9.58440861 C5.39195465,9.04989272 5.60472082,8.40835539 5.92387007,8.08758673 C6.3494024,7.65994445 6.88131781,7.44619722 7.41323323,7.55307084 L10.7110941,7.55307084 C11.0302433,7.55307084 11.2430242,7.33917579 11.2430242,7.01840713 C11.2430242,6.69778629 11.0302433,6.48389124 10.7110941,6.48389124 L3.7962084,6.48389124 C2.51961141,6.48389124 1.13663133,5.94922753 1.13663133,4.34553204 C1.13663133,2.74183654 2.51961141,2.20717283 3.7962084,2.20717283 L9.64726326,2.20717283 C10.3919596,2.31419427 11.0302433,1.99342561 11.6685418,1.56563551 C11.7749249,2.10029922 11.881308,2.63481511 11.6685418,2.95558377 C11.5621588,3.16947882 11.2430242,3.27635243 10.8174772,3.27635243 L3.7962084,3.27635243 C3.47705916,3.06260521 3.26429299,3.27635243 3.26429299,3.5971211 C3.26429299,3.91788976 3.47705916,4.13178481 3.7962084,4.13178481 L11.2430242,4.13178481 C12.7323727,4.13178481 13.9025866,5.30783802 13.9025866,6.8046599 C13.9025866,8.30148178 12.7323727,9.47753499 11.2430242,9.47753499 Z" id="Fill-63"></path>
                    <path d="M6.54649007,12.2120191 C6.44122653,11.9977193 6.23069945,11.9263189 6.02017237,11.8549186 L5.5991182,11.8549186 C5.28332758,11.9263189 5.17806404,12.0692184 5.0728005,12.2120191 L5.0728005,12.4978181 C5.17806404,12.7120191 5.38859112,12.7835182 5.5991182,12.8549186 L6.02017237,12.8549186 C6.33596299,12.7835182 6.44122653,12.6406188 6.54649007,12.4978181 L6.54649007,12.2120191 Z M7.59912548,12.2120191 L7.59912548,12.4978181 C7.70438902,12.7120191 7.9149161,12.7835182 8.12542863,12.8549186 L8.54649735,12.8549186 C8.86227342,12.7835182 8.96753696,12.6406188 9.0728005,12.4978181 L9.0728005,12.2120191 C8.96753696,11.9977193 8.75702443,11.9263189 8.54649735,11.8549186 L8.12542863,11.8549186 C7.9149161,11.8549186 7.70438902,11.9977193 7.59912548,12.2120191 Z" id="Fill-65"></path>
                </g>
                <text id="103-loài-bò-sát-đặc" font-family="LucidaGrande, Lucida Grande" font-size="9.517024" font-weight="normal" letter-spacing="-0.0002" fill="#B99C9A">
                    <tspan x="31.376436" y="298.994994">103 loài bò sát </tspan>
                    <tspan x="31.376436" y="309.994994">đặc hữu trên </tspan>
                    <tspan x="31.376436" y="320.994994">tổng số 422 loài</tspan>
                </text>
                <g id="Group-81" transform="translate(9.105361, 334.240045)" fill="#B99C9A">
                    <path d="M7.49200601,5.76105206 C8.56224157,5.43430299 9.09738154,4.3451896 9.31141681,2.71144424 L12.6291929,2.71144424 C13.4853932,2.71144424 14.0205184,3.69169146 14.0205184,4.78080484 L14.0205184,7.39464685 C14.0205184,7.72139592 14.2345685,7.93912825 14.4486185,7.93912825 C14.6626686,7.93912825 14.8767187,7.72139592 14.8767187,7.39464685 L14.8767187,4.78080484 C14.8767187,3.14721005 14.0205184,1.62233086 12.5221679,1.62233086 L9.20440658,1.62233086 L9.20440658,1.18671562 C9.20440658,0.315485142 8.56224157,-0.338013003 7.81306632,-0.338013003 L6.849841,-0.338013003 C6.20770558,-0.338013003 5.56555536,-0.0112639302 5.03043019,0.315485142 C4.60233004,-0.0112639302 3.96017983,-0.229146837 3.31802962,-0.338013003 C2.3548043,-0.338013003 1.49860401,-0.0112639302 0.749428762,0.751100381 C0.214303584,1.40459853 -0.213796558,2.38484574 -0.106771523,3.36494239 L-0.106771523,8.70164314 C-0.106771523,9.24612454 0.107278548,9.79060595 0.428353655,10.117355 C0.749428762,10.5531208 1.28455394,10.661987 1.81967912,10.661987 C2.03372919,10.661987 2.24777926,10.4442547 2.24777926,10.117355 C2.24777926,9.79060595 2.03372919,9.57287361 1.71265408,9.57287361 C1.49860401,9.57287361 1.1775289,9.46400745 1.07050387,9.24612454 C0.963478833,9.02824163 0.749428762,8.8105093 0.749428762,8.48376023 L0.749428762,3.14721005 C0.749428762,2.38484574 0.963478833,1.7313476 1.49860401,1.18671562 C1.92670415,0.642234215 2.6758794,0.424351308 3.31802962,0.424351308 C3.8531548,0.424351308 4.38827997,0.751100381 4.81638012,1.07784945 C5.03041539,1.29573236 5.35150529,1.29573236 5.45853033,1.07784945 C5.88661567,0.642234215 6.42175565,0.424351308 6.95686603,0.315485142 L7.92009135,0.315485142 C8.13414142,0.315485142 8.34820629,0.533368049 8.34820629,0.859966546 L8.34820629,1.94907993 C8.24116646,3.36494239 7.92009135,4.3451896 7.27795593,4.45405577 C6.74281596,4.56292193 6.31473061,4.56292193 6.10066575,4.56292193 C5.99364071,4.56292193 5.99364071,4.45405577 5.99364071,4.45405577 C5.88661567,4.45405577 5.6725804,4.23632344 5.45853033,4.3451896 C5.13744043,4.45405577 5.03041539,4.67193868 5.13744043,4.99868775 C5.35150529,5.76105206 6.10066575,6.08780113 7.49200601,5.76105206 Z" id="Fill-76"></path>
                    <path d="M2.43662827,6.68878081 C2.2239769,6.58800056 1.90499984,6.78970046 1.90499984,6.99126097 C1.79867416,7.29374112 2.01132553,7.49544102 2.2239769,7.59622127 C3.07458238,7.79778178 3.71253648,8.60444199 3.71253648,9.51174306 L3.71253648,15.1578069 C3.71253648,15.4602871 3.92518785,15.661987 4.13783922,15.661987 C4.35049059,15.661987 4.56314196,15.4602871 4.56314196,15.1578069 L4.56314196,9.51174306 C4.56314196,8.10026194 3.71253648,6.99126097 2.43662827,6.68878081 Z M14.5577416,12.435625 L9.66676012,12.435625 C9.56043444,12.3348447 9.56043444,12.1332842 9.45410875,12.0323645 C9.1351464,11.7298844 8.81615464,11.5283239 8.39086661,11.5283239 C8.17821524,11.5283239 7.96556387,11.830804 7.96556387,12.1332842 C7.96556387,12.435625 8.17821524,12.7381051 8.49717759,12.6373249 C8.60350327,12.6373249 8.70982896,12.7381051 8.81616934,12.8390248 C8.92249503,12.939805 8.92249503,13.0405853 8.92249503,13.2422852 L8.92249503,15.0570267 C8.92249503,15.3595068 9.1351464,15.5612067 9.34778307,15.5612067 C9.56043444,15.5612067 9.77308581,15.3595068 9.77308581,15.0570267 L9.77308581,13.4438457 L14.4514159,13.4438457 C14.6640673,13.4438457 14.8767187,13.2422852 14.8767187,12.939805 C14.8767187,12.6373249 14.770393,12.435625 14.5577416,12.435625 Z" id="Fill-78"></path>
                    <path d="M14.353462,8.46484559 L12.2604354,8.46484559 L12.2604354,8.23942984 C12.2604354,7.22529268 11.9464814,6.661987 10.8999681,6.661987 C10.3767187,6.661987 9.95810611,6.88724696 9.53951525,7.22529268 C8.91160727,6.661987 8.07439662,6.54935702 7.34182283,6.88724696 C6.50461218,7.33807844 5.87671867,8.23942984 5.87671867,9.36619699 L5.87671867,13.0845441 C5.87671867,13.5352199 5.98137,13.8732656 6.29532399,14.2113113 C6.60927798,14.549357 6.92323198,14.661987 7.34182283,14.661987 C7.55113996,14.661987 7.76044263,14.436727 7.76044263,14.0986813 C7.76044263,13.7606356 7.55113996,13.5352199 7.23718597,13.5352199 C7.13253464,13.5352199 7.02788331,13.5352199 6.92323198,13.4225899 C6.81858065,13.3099599 6.81858065,13.1971741 6.81858065,13.0845441 L6.81858065,9.36619699 C6.81858065,8.69010555 7.13253464,8.12679986 7.65579129,7.90138412 C8.17903348,7.67596838 8.80695594,7.78875414 9.22554679,8.23942984 C9.43484945,8.46484559 9.64415212,8.46484559 9.85346925,8.23942984 C10.1674088,7.90138412 10.5860141,7.67596838 11.0046194,7.67596838 C11.4232247,7.67596838 11.4232247,7.67596838 11.4232247,8.23942984 C11.4232247,8.69010555 11.4232247,9.02815127 11.3185734,9.47882697 C11.2139221,9.92950267 11.0046194,10.2677042 10.7953168,10.4929641 C10.4813628,10.6057499 10.1674088,10.6057499 9.85346925,10.3803342 C9.64416658,10.1549184 9.33019812,10.2677042 9.22554679,10.4929641 C9.12089546,10.7183799 9.12089546,11.0564256 9.33019812,11.2816856 C9.85346925,11.732517 10.5860141,11.845147 11.2139221,11.5071013 C11.7371787,11.1690556 12.1557841,10.6057499 12.2604354,9.81687269 L12.2604354,9.70424271 L14.4581133,9.70424271 C14.667416,9.70424271 14.8767187,9.47882697 14.8767187,9.14078125 C14.8767187,8.80273553 14.5627647,8.46484559 14.353462,8.46484559 Z" id="Fill-79"></path>
                    <path d="M3.87671867,3.66191019 C3.87671867,4.21417995 3.65286372,4.661987 3.37671867,4.661987 C3.10057362,4.661987 2.87671867,4.21417995 2.87671867,3.66191019 C2.87671867,3.10964043 3.10057362,2.661987 3.37671867,2.661987 C3.65286372,2.661987 3.87671867,3.10964043 3.87671867,3.66191019 Z" id="Fill-80"></path>
                </g>
            </g>
            <text id="9-loài-có-vú-trên-tổ" font-family="LucidaGrande, Lucida Grande" font-size="9.517024" font-weight="normal" letter-spacing="-0.0002" fill="#B99C9A">
                <tspan x="31.3081722" y="339.164642">9 loài có vú trên </tspan>
                <tspan x="31.3081722" y="350.164642">tổng số 284 loài</tspan>
            </text>
            <path d="M542.2379,272.7719 L542.2379,357.5956 C542.2379,360.5435 539.8491,362.9332 536.9018,362.9332 L142.3488,362.9332 C139.4019,362.9332 137.013,360.5435 137.013,357.5956 L137.013,187.9482 C137.013,185.0004 139.4019,182.6107 142.3488,182.6107 L536.9018,182.6107 C539.8491,182.6107 542.2379,185.0004 542.2379,187.9482 L542.2379,272.7719 Z" id="Fill-91" fill="#B99C9A"></path>
            <path d="M115.01792,105.8483 L115.01792,165.3272 C115.01792,167.5417 113.437592,169.3369 111.48816,169.3369 L3.5476887,169.3369 C1.5982477,169.3369 0.01792,167.5417 0.01792,165.3272 L0.01792,46.3694 C0.01792,44.155 1.5982477,42.3598 3.5476887,42.3598 L111.48816,42.3598 C113.437592,42.3598 115.01792,44.155 115.01792,46.3694 L115.01792,105.8483 Z" id="Fill-126" fill="#B99C9A"></path>
            <path d="M267.7469,105.8483 L267.7469,165.3272 C267.7469,167.5417 265.740573,169.3369 263.265868,169.3369 L126.227932,169.3369 C123.753115,169.3369 121.7469,167.5417 121.7469,165.3272 L121.7469,46.3694 C121.7469,44.155 123.753115,42.3598 126.227932,42.3598 L263.265868,42.3598 C265.740573,42.3598 267.7469,44.155 267.7469,46.3694 L267.7469,105.8483 Z" id="Fill-136" fill="#B99C9A"></path>
            <path d="M394.5089,105.8483 L394.5089,165.3272 C394.5089,167.5417 392.859956,169.3369 390.82586,169.3369 L278.19194,169.3369 C276.157936,169.3369 274.5089,167.5417 274.5089,165.3272 L274.5089,46.3694 C274.5089,44.155 276.157936,42.3598 278.19194,42.3598 L390.82586,42.3598 C392.859956,42.3598 394.5089,44.155 394.5089,46.3694 L394.5089,105.8483 Z" id="Fill-152" fill="#B99C9A"></path>
            <path d="M542.2379,105.8483 L542.2379,165.3272 C542.2379,167.5417 540.300173,169.3369 537.910432,169.3369 L405.565368,169.3369 C403.175411,169.3369 401.2379,167.5417 401.2379,165.3272 L401.2379,46.3694 C401.2379,44.155 403.175411,42.3598 405.565368,42.3598 L537.910432,42.3598 C540.300173,42.3598 542.2379,44.155 542.2379,46.3694 L542.2379,105.8483 Z" id="Fill-166" fill="#B99C9A"></path>
            <g id="Group-107" transform="translate(396.099900, 201.394260)" fill="#3d1818">
                <polygon id="Fill-103" points="0 1.25224 2.50448 1.25224 2.50448 0 0 0"></polygon>
                <polygon id="Fill-103-Copy" points="4 1.25224 6.50448 1.25224 6.50448 0 4 0"></polygon>
                <polygon id="Fill-103-Copy-2" points="8 1.25224 10.50448 1.25224 10.50448 0 8 0"></polygon>
                <polygon id="Fill-105" points="11.7693 1.25224 14.27378 1.25224 14.27378 0 11.7693 0"></polygon>
            </g>
            <g id="Group-100" transform="translate(357.535348, 201.395152)" fill="#3d1818">
                <polygon id="Fill-95" points="0.249552 0.750448 13.523292 0.750448 13.523292 0.249552 0.249552 0.249552"></polygon>
                <polygon id="Fill-97" points="0.249552 1.251348 13.523292 1.251348 13.523292 0.750452 0.249552 0.750452"></polygon>
                <polygon id="Fill-98" points="0.249552 1.251348 0.750448 1.251348 0.750448 0.249556 0.249552 0.249556"></polygon>
                <polygon id="Fill-99" points="13.022452 1.251348 13.523348 1.251348 13.523348 0.249556 13.022452 0.249556"></polygon>
            </g>
            <text id="%-Khu-vực-được-bảo-v" font-family="LucidaGrande-Bold, Lucida Grande" font-size="10" font-weight="bold" letter-spacing="0.001" fill="#3d1818">
                <tspan x="414.372954" y="203.070099">%</tspan>
                <tspan x="422.205985" y="203.070099" letter-spacing="-0.002"> </tspan>
                <tspan x="425.499884" y="203.070099">Khu vực được bảo vệ</tspan>
            </text>
            <text id="SPI" font-family="LucidaGrande-Bold, Lucida Grande" font-size="10" font-weight="bold" letter-spacing="0.004" fill="#3d1818">
                <tspan x="374.018824" y="203.070099">SPI</tspan>
            </text>
            <text id="Xu-hướng-SPI-trên-đấ" font-family="LucidaGrande, Lucida Grande" font-size="12" font-weight="normal" letter-spacing="0.150330608" fill="#3d1818">
                <tspan x="150.602218" y="201.957273">Xu hướng SPI trên đất liền</tspan>
            </text>
            <text id="40" font-family="LucidaGrande, Lucida Grande" font-size="22.54032" font-weight="normal" letter-spacing="0.0444" fill="#3d1818">
                <tspan x="10.70109" y="70.3714903">40</tspan>
            </text>
            <text id="Chỉ-số-Bảo-vệ-loài-t" font-family="LucidaGrande, Lucida Grande" font-size="12" font-weight="normal" letter-spacing="-0.0036" fill="#3d1818">
                <tspan x="10.70109" y="90.2426257">Chỉ số Bảo vệ </tspan>
                <tspan x="10.70109" y="105.242626">loài trên cạn </tspan>
                <tspan x="10.70109" y="120.242626">(SPI)</tspan>
            </text>
            <text id="SPI-Trung-bình-toàn" font-family="LucidaGrande-Bold, Lucida Grande" font-size="12" font-weight="bold" letter-spacing="-0.0024" fill="#3d1818">
                <tspan x="10.70109" y="146.488563">SPI </tspan>
                <tspan x="32.8399275" y="146.488563" letter-spacing="0.0012">Trung bình </tspan>
                <tspan x="10.70109" y="161.488563" letter-spacing="0.0012">toàn cầu</tspan>
                <tspan x="63.4509244" y="161.488563" letter-spacing="0.0036">:</tspan>
                <tspan x="70.4193681" y="161.488563">4</tspan>
                <tspan x="78.2856619" y="161.488563">1</tspan>
            </text>
            <text id="168" font-family="LucidaGrande, Lucida Grande" font-size="22.54032" font-weight="normal" letter-spacing="0.0144" fill="#E56D00">
                <tspan x="133.930956" y="70.3714903">1</tspan>
                <tspan x="148.198146" y="70.3714903" letter-spacing="0.6906096">6</tspan>
                <tspan x="163.141546" y="70.3714903">8</tspan>
            </text>
            <text id="Loài-đặc-hữu-có-xươn" font-family="LucidaGrande, Lucida Grande" font-size="12" font-weight="normal" fill="#3d1818">
                <tspan x="134.930956" y="90.2426257">Loài đặc hữu có </tspan>
                <tspan x="134.930956" y="105.242626">xương sống trên </tspan>
                <tspan x="134.930956" y="120.242626">tổng cộng 2.448 loài </tspan>
                <tspan x="134.930956" y="135.242626">xương sống trên cạn</tspan>
            </text>
            <polygon id="Fill-150" fill="#D8D8D8" points="134.190992 163.311804 257.190992 163.311804 257.190992 155.311804 134.190992 155.311804"></polygon>
            <polygon id="Fill-164" fill="#D8D8D8" points="285.2782 162.311804 383.2782 162.311804 383.2782 155.311804 285.2782 155.311804"></polygon>
            <polygon id="Fill-180" fill="#D8D8D8" points="419.5237 162.0739 528.719 162.0739 528.719 155.311804 419.5237 155.311804"></polygon>
            <rect id="Rectangle" fill="#E56D00" x="134" y="155" width="9" height="8"></rect>
            <rect id="Rectangle" fill="#008604" x="285" y="155" width="7" height="7"></rect>
            <rect id="Rectangle-Copy-163" fill="#7D2EFC" x="419" y="155" width="13" height="7"></rect>
            <rect id="Rectangle-Copy-164" fill="#C175FF" x="432" y="155" width="86" height="7"></rect>
            <rect id="Rectangle-Copy-162" fill="#93CE1E" x="292" y="155" width="53" height="7"></rect>
            <text id="8%" font-family="LucidaGrande, Lucida Grande" font-size="22.54032" font-weight="normal" letter-spacing="0.0444" fill="#008604">
                <tspan x="285.168596" y="70.3714903">8%</tspan>
            </text>
            <text id="Đất-được-bảo-vệ-và-5" font-family="LucidaGrande, Lucida Grande" font-size="12" font-weight="normal" letter-spacing="0.0024" fill="#3d1818">
                <tspan x="285.079764" y="90.2426257">Đất được bảo </tspan>
                <tspan x="285.079764" y="105.242626">vệ và 52,53% </tspan>
                <tspan x="285.079764" y="120.242626">cần bảo vệ</tspan>
            </text>
            <text id="11%" font-family="LucidaGrande, Lucida Grande" font-size="22.54032" font-weight="normal" letter-spacing="0.0444" fill="#7D2EFC">
                <tspan x="419.406286" y="70.3714903">11%</tspan>
            </text>
            <text id="Đất-đai-có-sự-can-th" font-family="LucidaGrande, Lucida Grande" font-size="12" font-weight="normal" letter-spacing="0.000504359346" fill="#3d1818">
                <tspan x="419.406286" y="90.2426257">Đất đai có sự can </tspan>
                <tspan x="419.406286" y="105.242626">thiệp cao bởi con </tspan>
                <tspan x="419.406286" y="120.242626">người và 89% có </tspan>
                <tspan x="419.406286" y="135.242626">một số can thiệp</tspan>
            </text>
            <line x1="162.80918" y1="346.15322" x2="528.46326" y2="346.15322" id="Stroke-182" stroke="#3d1818" stroke-width="0.9"></line>
            <line x1="162.80918" y1="210.9113" x2="162.80918" y2="346.15322" id="Stroke-194" stroke="#0F2B3B"></line>
            <text id="1980" font-family="LucidaGrande, Lucida Grande" font-size="9" font-weight="normal" letter-spacing="-0.000399284482" fill="#3d1818">
                <tspan x="152.662767" y="357.051812">1980</tspan>
            </text>
            <text id="1990" font-family="LucidaGrande, Lucida Grande" font-size="9" font-weight="normal" letter-spacing="-0.000399284482" fill="#3d1818">
                <tspan x="241.846681" y="357.051812">1990</tspan>
            </text>
            <text id="2000" font-family="LucidaGrande, Lucida Grande" font-size="9" font-weight="normal" letter-spacing="-0.000399284482" fill="#3d1818">
                <tspan x="331.030613" y="357.051812">2000</tspan>
            </text>
            <text id="2010" font-family="LucidaGrande, Lucida Grande" font-size="9" font-weight="normal" letter-spacing="-0.000399284482" fill="#3d1818">
                <tspan x="420.214569" y="357.051812">2010</tspan>
            </text>
            <text id="2020" font-family="LucidaGrande, Lucida Grande" font-size="9" font-weight="normal" letter-spacing="-0.000399284482" fill="#3d1818">
                <tspan x="509.398351" y="357.051812">2020</tspan>
            </text>
            <text id="0" font-family="LucidaGrande, Lucida Grande" font-size="9" font-weight="normal" fill="#3d1818">
                <tspan x="154.228807" y="346.444281">0</tspan>
            </text>
            <text id="50" font-family="LucidaGrande, Lucida Grande" font-size="9" font-weight="normal" letter-spacing="-0.000399284482" fill="#3d1818">
                <tspan x="148.655599" y="279.823321">50</tspan>
            </text>
            <text id="100" font-family="LucidaGrande, Lucida Grande" font-size="9" font-weight="normal" letter-spacing="-0.000399284482" fill="#3d1818">
                <tspan x="143.082393" y="214.706841">100</tspan>
            </text>
            <g id="Group-207" transform="translate(162.809180, 291.650726)" stroke="#3d1818">
                <polyline id="Stroke-203" points="0 52.9066391 8.91839317 52.9066391 17.8367863 52.9066391 26.7551745 52.9066391 35.6735627 52.9066391 44.5919659 52.9066391 53.5103691 50.4993329 62.4287222 50.4993329 71.3471253 50.4993329 80.2655285 50.4993329 89.1839317 50.4993329 98.1023349 50.2153249 107.020688 50.0665588 115.939091 49.7149298 124.857494 49.0116718 133.775898 47.7268736 142.694301 45.0626077 151.612654 44.6433578 160.531057 42.5741564 169.44946 41.9926162 178.367863 41.5057452 187.286217 34.9870847 196.20462 23.6538118 205.123023 22.8964571 214.041426 19.9752316 222.959779 18.947393 231.878182 16.4995142 240.796586 15.8638772 249.714989 15.8638772 258.633392 15.5122482 267.551795 15.498724 276.470148 12.8615066 285.388551 11.9418615 294.306955 5.49082195 303.225308 0.527443488 312.143711 0.47334672 321.062114 0.365153184 329.980517 0.3381048 338.898921 0.3381048 347.817324 0.06762096 356.735677 0 365.65408 0"></polyline>
                <path d="M0,54.5024938 C2.97279772,54.5024938 5.94559545,54.5024938 8.91839317,54.5024938 C11.8911909,54.5024938 14.8639886,54.5024938 17.8367863,54.5024938 C20.8095841,54.5024938 23.7823818,54.5024938 26.7551745,54.5024938 C29.7279722,54.5024938 32.70077,54.5024938 35.6735627,54.5024938 C38.6463804,54.5024938 41.6191481,54.5024938 44.5919659,54.5024938 C47.5647836,54.5024938 50.5375513,54.5024938 53.5103691,54.5024938 C56.4831367,54.5024938 59.4559545,54.5024938 62.4287222,54.5024938 C65.4015399,54.5024938 68.3743577,54.5024938 71.3471253,54.5024938 C74.3199431,54.5024938 77.2927108,54.5024938 80.2655285,54.5024938 C83.2383463,54.5024938 86.211114,54.5024938 89.1839317,54.5024938 C92.1566994,54.5024938 95.1295172,54.5024938 98.1023349,54.5024938 C101.075103,54.5024938 104.04792,54.5024938 107.020688,54.5024938 C109.993506,54.5024938 112.966324,54.5024938 115.939091,54.5024938 C118.911909,54.5024938 121.884677,53.1500746 124.857494,53.1500746 C127.830262,53.1500746 130.80308,53.1500746 133.775898,53.1500746 C136.748665,53.1500746 139.721483,53.1500746 142.694301,53.1500746 C145.667068,53.1500746 148.639886,53.1500746 151.612654,53.1500746 C154.585472,53.1500746 157.558289,53.1500746 160.531057,53.1500746 C163.503875,53.1500746 166.476642,53.1500746 169.44946,53.1500746 C172.422228,53.1500746 175.395046,53.1500746 178.367863,53.1500746 C181.340631,53.1500746 184.313449,52.473865 187.286217,51.7976554 C190.259034,51.1214458 193.231852,49.092817 196.20462,49.092817 C199.177438,49.092817 202.150205,49.092817 205.123023,49.092817 C208.095791,49.092817 211.068608,49.092817 214.041426,49.092817 C217.014194,49.092817 219.987012,47.7403978 222.959779,47.7403978 C225.932597,47.7403978 228.905415,47.7403978 231.878182,47.7403978 C234.851,47.7403978 237.823818,47.7403978 240.796586,47.7403978 C243.769403,47.7403978 246.742171,47.7403978 249.714989,47.7403978 C252.687807,47.7403978 255.660574,47.7403978 258.633392,47.7403978 C261.60616,47.7403978 264.578977,47.7403978 267.551795,47.7403978 C270.524563,47.7403978 273.497331,47.7403978 276.470148,47.7403978 C279.442966,47.7403978 282.415784,47.7403978 285.388551,47.7403978 C288.361319,47.7403978 291.334137,46.838785 294.306955,46.3879786 C297.279722,45.9371722 300.25254,45.0355594 303.225308,45.0355594 C306.198126,45.0355594 309.170943,45.0355594 312.143711,45.0355594 C315.116529,45.0355594 318.089296,45.0355594 321.062114,45.0355594 C324.034932,45.0355594 327.0077,45.0355594 329.980517,45.0355594 C332.953335,45.0355594 335.926103,45.0355594 338.898921,45.0355594 C341.871688,45.0355594 344.844506,45.0355594 347.817324,45.0355594 C350.790091,45.0355594 353.762909,45.0355594 356.735677,45.0355594 C359.708495,45.0355594 362.681312,45.0355594 365.65408,45.0355594" id="Stroke-205" stroke-dasharray="3,3,3,3"></path>
            </g>
        </g>
    </g>
</svg>