<?xml version="1.0" encoding="UTF-8"?>
<svg width="125px" height="130px" viewBox="0 0 125 130" version="1.1" xmlns="http://www.w3.org/2000/svg" xmlns:xlink="http://www.w3.org/1999/xlink">
    <title>logo</title>
        <path d="M90.549,101.249 C93.113,98.608 94.623,94.6 94.361,91.032 C94.268,89.753 94.397,88.245 93.379,87.303 C91.418,85.487 89.293,83.849 86.994,81.935 C88.215,88.572 89.367,94.827 90.549,101.249 Z M35.206,101.412 C36.375,95.043 37.545,88.674 38.786,81.916 C36.613,83.735 34.798,85.331 32.896,86.817 C31.917,87.583 31.329,88.424 31.129,89.689 C30.412,94.23 32.077,97.987 35.206,101.412 Z M98.725,44.192 C105.988,52.032 112.785,60.08 118.581,69.261 C120.053,65.723 120.502,62.391 119.946,59.013 C119.585,56.819 118.527,54.98 116.427,53.722 C111.833,50.971 107.168,48.363 102.368,45.995 C101.153,45.396 99.939,44.794 98.725,44.192 Z M6.766,70.014 C12.742,60.291 19.727,52.196 27.169,44.419 C21.421,46.921 16.066,50.057 10.563,52.903 C5.544,55.501 4.721,59.452 5.362,64.284 C5.591,66.012 6.184,67.69 6.766,70.014 Z M76.136,113.716 C71.988,107.11 67.828,100.661 64.107,93.319 C64.107,103.475 64.107,112.977 64.107,122.928 C67.355,118.561 71.805,116.403 76.136,113.716 Z M61.728,93.957 C57.933,100.831 53.647,107.292 49.508,113.923 C53.951,116.594 58.555,118.914 61.728,123.676 C61.728,113.442 61.728,103.7 61.728,93.957 Z M77.065,71.56 C81.625,75.365 86.615,78.771 90.624,83.089 C94.612,87.384 98.53,86.76 102.985,84.862 C105.514,83.786 107.921,82.491 110.13,80.493 C98.794,77.964 87.813,75.285 77.065,71.56 Z M15.206,80.567 C18.18,82.944 21.225,84.397 24.465,85.64 C28.263,87.095 31.54,87.144 34.246,83.666 C34.554,83.271 35.033,83.01 35.427,82.68 C39.856,78.97 44.284,75.259 48.711,71.548 C37.873,75.314 26.81,78.037 15.206,80.567 Z M107.206,20.754 C101.447,17.377 95.634,15.128 89.114,15.228 C85.725,15.278 82.34,15.11 79.009,14.588 C73.455,13.718 68.282,11.843 64.146,7.63 C64.146,14.68 64.146,21.487 64.146,28.338 C79.097,29.229 93.084,25.491 107.206,20.754 Z M18.265,20.687 C27.928,25.367 54.834,29.959 61.598,28.144 C61.598,21.164 61.598,14.191 61.598,6.909 C59.313,9.822 56.536,11.396 53.501,12.641 C48.081,14.863 42.38,15.238 36.638,15.194 C29.962,15.145 24.004,17.287 18.265,20.687 Z M65.417,30.009 C84.138,35.554 102.008,42.963 118.434,53.598 C119.028,52.375 119.573,51.336 120.045,50.266 C121.591,46.766 122.233,43.147 121.431,39.342 C119.87,31.938 115.27,26.681 109.433,22.288 C108.859,21.856 108.328,21.841 107.606,22.061 C103.633,23.273 99.615,24.313 95.658,25.606 C88.827,27.839 81.77,28.955 74.58,29.439 C71.543,29.644 68.481,29.396 65.417,30.009 Z M60.249,29.802 C59.884,29.774 59.52,29.728 59.155,29.724 C52.78,29.648 46.46,29.152 40.151,28.099 C34.199,27.104 28.624,24.919 22.858,23.347 C15.958,21.466 15.871,21.379 10.894,26.686 C3.382,34.694 0.871,43.668 7.13,53.739 C23.605,43.045 41.535,35.572 60.249,29.802 Z M77.002,113.145 C81.351,110.395 85.583,107.754 88.893,103.914 C89.516,103.191 89.927,102.549 89.679,101.396 C88.33,95.122 87.112,88.819 85.908,82.517 C85.647,81.152 85.066,80.168 83.95,79.285 C80.786,76.781 77.735,74.134 74.635,71.547 C71.231,68.706 67.822,65.871 64.35,62.979 C64.167,63.38 64.063,63.502 64.063,63.624 C64.035,72.363 64.015,81.103 63.9979828,89.842 C63.997,90.351 64.039,90.828 64.277,91.325 C67.918,98.922 72.508,105.957 77.002,113.145 Z M48.666,113.353 C52.987,106.436 57.33,99.673 60.969,92.487 C61.547,91.346 61.818,90.21 61.8092169,88.923 C61.753,81.206 61.766,73.488 61.731,65.771 C61.727,64.928 61.941,64.048 61.51,63.107 C61.212,63.271 60.945,63.365 60.74,63.536 C54.192,68.988 47.654,74.452 41.103,79.899 C40.505,80.396 40.24,80.964 40.088,81.743 C38.81,88.335 37.531,94.929 36.08,101.483 C35.795,102.769 36.057,103.521 36.855,104.393 C40.222,108.066 44.395,110.647 48.666,113.353 Z M64.04084,31.089 C64.04084,40.902 64.04,50.452 64.043,60.003 C64.043,60.44 64.035,60.879 64.46,61.188 C68.003,63.773 70.895,67.233 74.985,69.079 C85.293,73.732 96.339,75.929 107.192,78.787 C111.088,79.813 113.636,78.529 115.502,75.214 C116.006,74.32 116.557,73.447 117.155,72.614 C118.038,71.385 117.981,70.34 117.093,69.042 C113.065,63.16 108.901,57.376 104.096,52.11 C99.772,47.372 95.727,42.364 89.323,39.951 C81.06,36.838 72.912,33.433 64.04084,31.089 Z M61.451,31.149 C61.13,31.235 60.79,31.322 60.451,31.416 C51.413,33.918 42.732,37.392 34.107,41.026 C32.529,41.692 31.148,42.591 29.885,43.728 C22.581,50.304 16.539,57.958 10.858,65.925 C6.833,71.57 6.888,72.398 11.694,77.501 L11.846,77.66 C13.004,79.276 14.423,79.401 16.377,79.086 C21.941,78.188 27.321,76.577 32.75,75.187 C42.758,72.623 52.665,69.753 60.308,62.102 C61.267,61.143 61.789,60.336 61.7781704,58.946 C61.713,50.348 61.75,41.748 61.736,33.148 C61.735,32.517 61.918,31.843 61.451,31.149 Z M95.856,89.275 C96.839,93.243 96.13,96.874 94.121,100.32 C91.365,105.05 87.636,108.845 83.084,111.834 C79.833,113.971 76.537,116.041 73.232,118.096 C69.508,120.411 66.101,122.996 64.162,127.131 C63.435,128.684 61.934,128.711 61.219,127.188 C59.174,122.832 55.554,120.156 51.597,117.801 C47.555,115.396 43.596,112.866 39.82,110.057 C36.472,107.564 33.815,104.459 31.596,100.946 C29.3,97.313 28.418,93.436 29.51,89.136 C27.337,88.615 25.189,88.189 23.092,87.585 C11.202,84.152 2.896,73.115 3.081,61.06 C3.109,59.199 3.454,57.394 4.383,55.779 C5.009,54.69 5.007,53.699 4.399,52.672 C-1.766,42.247 2.669,31.984 9.502,25.1 C17.257,17.285 26.516,12.833 37.793,12.885 C43.743,12.912 49.658,12.217 55.106,9.414 C58.148,7.849 60.637,5.8 61.693,2.404 C61.858,1.872 61.943,1.42 62.636,1.456 C63.108,1.479 63.42,1.569 63.592,2.12 C65.542,8.362 70.964,10.065 76.356,11.635 C80.542,12.853 84.925,12.688 89.244,12.965 C104.06,13.914 115.151,20.84 121.932,34.103 C124.877,39.864 124.568,45.884 121.449,51.619 C120.539,53.292 120.505,54.658 121.256,56.528 C123.49,62.09 122.101,67.551 119.68,72.683 C115.488,81.569 108.164,86.504 98.698,88.496 C97.838,88.678 96.972,88.83 96.11,89.005 C96.052,89.017 96.01,89.108 95.856,89.275 L95.856,89.275 Z" id="logo" style="fill-opacity: 0.5" stroke-width="3" transform="translate(62.718864, 64.883601) rotate(-180.000000) translate(-62.718864, -64.883601) "></path>
</svg>


