<?xml version="1.0" encoding="UTF-8"?>
<svg style="scaling-svg" viewBox="0 0 316 186" version="1.1" xmlns="http://www.w3.org/2000/svg" xmlns:xlink="http://www.w3.org/1999/xlink">
    <title>imperial-3.4</title>
    <g id="Page-1" stroke="none" stroke-width="1" fill="none" fill-rule="evenodd">
        <g id="Board" transform="translate(-3802.000000, -543.000000)">
            <g id="imperial-3.4" transform="translate(3802.000000, 543.000000)">
                <text id="Hình-3.4:-Doanh-thu" font-family="LucidaGrande-Bold, Lucida Grande" font-size="9.5" font-weight="bold" letter-spacing="-0.19" fill="#3D1818">
                    <tspan x="14.0118604" y="9">Hình 3.4: Doanh thu ước tính của quảng cáo trên mạng xã hội </tspan>
                    <tspan x="58.8968604" y="20">trên toàn cầu (đơn vị: Tỉ Euro, 2015–2021)</tspan>
                </text>
                <path d="M356,154.387435 L12.0008019,154.387435 L12.0008019,155 L356,155 L356,154.387435 Z M356,142.449887 L12.0008019,142.449887 L12.0008019,143.062452 L356,143.062452 L356,142.449887 Z M356,130.513334 L12.0008019,130.513334 L12.0008019,131.1259 L356,131.1259 L356,130.513334 Z M356,118.575786 L12.0008019,118.575786 L12.0008019,119.188351 L356,119.188351 L356,118.575786 Z M356,106.622301 L12.0008019,106.622301 L12.0008019,107.234866 L356,107.234866 L356,106.622301 Z M356,94.7016858 L12.0008019,94.7016858 L12.0008019,95.3142509 L356,95.3142509 L356,94.7016858 Z M356,82.7651336 L12.0008019,82.7651336 L12.0008019,83.3776986 L356,83.3776986 L356,82.7651336 Z M356,70.8106527 L12.0008019,70.8106527 L12.0008019,71.4232177 L356,71.4232177 L356,70.8106527 Z M356,58.8910331 L12.0008019,58.8910331 L12.0008019,59.5035982 L356,59.5035982 L356,58.8910331 Z M356,46.9544809 L12.0008019,46.9544809 L12.0008019,47.567046 L356,47.567046 L356,46.9544809 Z M356,35 L12.0008019,35 L12.0008019,35.6125651 L356,35.6125651 L356,35 Z M12,154.999004 L355.999198,154.999004 L355.999198,154.386439 L12,154.386439 L12,154.999004 Z" id="Fill-2" fill="#E7E5E5"></path>
                <polygon id="Fill-3" fill="#EF9F5B" points="322 155 350 155 350 135 322 135"></polygon>
                <polygon id="Fill-4" fill="#EF9F5B" points="272 155 300 155 300 135 272 135"></polygon>
                <polygon id="Fill-5" fill="#EF9F5B" points="223 155 251 155 251 135 223 135"></polygon>
                <polygon id="Fill-6" fill="#EF9F5B" points="174 155 202 155 202 135 174 135"></polygon>
                <polygon id="Fill-7" fill="#EF9F5B" points="125 155 153 155 153 136 125 136"></polygon>
                <polygon id="Fill-8" fill="#EF9F5B" points="76 155 104 155 104 136 76 136"></polygon>
                <polygon id="Fill-9" fill="#EF9F5B" points="27 155 55 155 55 138 27 138"></polygon>
                <polygon id="Fill-10" fill="#D45D5A" points="322 135 350 135 350 49 322 49"></polygon>
                <polygon id="Fill-11" fill="#D45D5A" points="272 135 300 135 300 57 272 57"></polygon>
                <polygon id="Fill-12" fill="#D45D5A" points="223 135 251 135 251 65 223 65"></polygon>
                <polygon id="Fill-13" fill="#D45D5A" points="174 136 202 136 202 75 174 75"></polygon>
                <polygon id="Fill-14" fill="#D45D5A" points="125 136 153 136 153 86 125 86"></polygon>
                <polygon id="Fill-15" fill="#D45D5A" points="76 137 104 137 104 97 76 97"></polygon>
                <polygon id="Fill-16" fill="#D45D5A" points="27 138 55 138 55 109 27 109"></polygon>
                <text id="50" font-family="LucidaGrande, Lucida Grande" font-size="8" font-weight="normal" fill="#3D1818">
                    <tspan x="0" y="37">50</tspan>
                </text>
                <text id="45" font-family="LucidaGrande, Lucida Grande" font-size="8" font-weight="normal" fill="#3D1818">
                    <tspan x="0" y="49">45</tspan>
                </text>
                <text id="40" font-family="LucidaGrande, Lucida Grande" font-size="8" font-weight="normal" fill="#3D1818">
                    <tspan x="0" y="61">40</tspan>
                </text>
                <text id="35" font-family="LucidaGrande, Lucida Grande" font-size="8" font-weight="normal" fill="#3D1818">
                    <tspan x="0" y="73">35</tspan>
                </text>
                <text id="30" font-family="LucidaGrande, Lucida Grande" font-size="8" font-weight="normal" fill="#3D1818">
                    <tspan x="0" y="85">30</tspan>
                </text>
                <text id="25" font-family="LucidaGrande, Lucida Grande" font-size="8" font-weight="normal" fill="#3D1818">
                    <tspan x="0" y="97">25</tspan>
                </text>
                <text id="20" font-family="LucidaGrande, Lucida Grande" font-size="8" font-weight="normal" fill="#3D1818">
                    <tspan x="0" y="109">20</tspan>
                </text>
                <text id="15" font-family="LucidaGrande, Lucida Grande" font-size="8" font-weight="normal" fill="#3D1818">
                    <tspan x="0" y="121">15</tspan>
                </text>
                <text id="10" font-family="LucidaGrande, Lucida Grande" font-size="8" font-weight="normal" fill="#3D1818">
                    <tspan x="0" y="133">10</tspan>
                </text>
                <text id="5" font-family="LucidaGrande, Lucida Grande" font-size="8" font-weight="normal" fill="#3D1818">
                    <tspan x="5.14285714" y="145">5</tspan>
                </text>
                <text id="0" font-family="LucidaGrande, Lucida Grande" font-size="8" font-weight="normal" fill="#3D1818">
                    <tspan x="4.66666667" y="157">0</tspan>
                </text>
                <text id="2015" font-family="LucidaGrande, Lucida Grande" font-size="9" font-weight="normal" fill="#3D1818">
                    <tspan x="30" y="164">2015</tspan>
                </text>
                <text id="2016" font-family="LucidaGrande, Lucida Grande" font-size="9" font-weight="normal" fill="#3D1818">
                    <tspan x="79" y="164">2016</tspan>
                </text>
                <text id="2017" font-family="LucidaGrande, Lucida Grande" font-size="9" font-weight="normal" fill="#3D1818">
                    <tspan x="127" y="164">2017</tspan>
                </text>
                <text id="2018" font-family="LucidaGrande, Lucida Grande" font-size="9" font-weight="normal" fill="#3D1818">
                    <tspan x="177" y="164">2018</tspan>
                </text>
                <text id="2019" font-family="LucidaGrande, Lucida Grande" font-size="9" font-weight="normal" fill="#3D1818">
                    <tspan x="226" y="164">2019</tspan>
                </text>
                <text id="2020" font-family="LucidaGrande, Lucida Grande" font-size="9" font-weight="normal" fill="#3D1818">
                    <tspan x="275" y="164">2020</tspan>
                </text>
                <text id="2021" font-family="LucidaGrande, Lucida Grande" font-size="9" font-weight="normal" fill="#3D1818">
                    <tspan x="325" y="164">2021</tspan>
                </text>
                <polygon id="Fill-17" fill="#EF9F5B" points="128 177 140 177 140 169 128 169"></polygon>
                <text id="Máy-tính-bàn" font-family="LucidaGrande, Lucida Grande" font-size="8" font-weight="normal" letter-spacing="0.032" fill="#3D1818">
                    <tspan x="142" y="176">Máy tính bàn</tspan>
                </text>
                <polygon id="Fill-18" fill="#D45D5A" points="201 177 213 177 213 169 201 169"></polygon>
                <text id="Di-động" font-family="LucidaGrande, Lucida Grande" font-size="8" font-weight="normal" letter-spacing="0.048" fill="#3D1818">
                    <tspan x="215" y="176">Di động</tspan>
                </text>
                <text id="Nguồn:-Statista,-201" font-family="LucidaGrande, Lucida Grande" font-size="7.5" font-weight="normal" letter-spacing="0.0525" fill="#3D1818">
                    <tspan x="127" y="31">Nguồn: Statista, 2016f</tspan>
                </text>
            </g>
        </g>
    </g>
</svg>